<!--?xml version="1.0" encoding="utf-8"?--><svg style="display:block;width:100%;height:100%;" version="1.1" id="Layer_1" xmlns="http://www.w3.org/2000/svg" xmlns:xlink="http://www.w3.org/1999/xlink" viewBox="0 0 345.968 365.246" xml:space="preserve">
<g>
	<g>
		<path fill="#4091C2" d="M299.06,89.838c4.901-2.798,12.121-2.183,20.173,2.47c14.765,8.534,26.735,27.422,26.735,42.188
			c0,6.657-2.433,11.34-6.459,13.693l-6.441,3.719c-4.901,2.798-12.121,2.183-20.173-2.47
			c-14.765-8.534-26.735-27.423-26.735-42.188c0-6.657,2.433-11.34,6.459-13.693L299.06,89.838z"></path>
	</g>
	<path fill="#306D91" d="M238.098,117.737c-5.059,2.957-8.118,8.842-8.118,17.209c0,18.557,15.043,42.295,33.6,53.02
		c10.119,5.849,19.193,6.62,25.352,3.104l33.874-19.573c11.631-8.049,19.256-21.478,19.256-36.693c0-24.632-19.968-44.6-44.6-44.6
		c-9.47,0-18.245,2.96-25.466,7.994L238.098,117.737z"></path>
	<path fill="#255470" d="M338.445,152.371c-3.33,7.752-8.779,14.38-15.638,19.127l-33.874,19.573
		c-4.636,2.646-10.922,2.861-18.062,0.314L338.445,152.371z"></path>
	<path fill="#64A9D4" d="M268.351,124.034l33.873-19.557c8.941,6.468,16.739,15.793,21.945,25.692l-33.885,19.563
		C285.083,139.834,277.288,130.506,268.351,124.034z"></path>
	<g>
		<g>
			<path fill="#64A9D4" d="M222.985,84.899c4.034-2.818,9.561-3.45,14.429-0.639l56.946,32.877l5.573,3.217
				c8.315,4.8,13.437,13.672,13.437,23.273v109.506l0,2.72l-2.042,1.179v-0.601l-22.867-12.685v-2.119l0,0l-8.678-36.005
				l-31.637-18.266l-8.466,25.349l-2.042,1.179l-22.419-12.943V97.076C215.217,91.454,218.528,86.984,222.985,84.899z"></path>
			<polygon fill="#64A9D4" points="293.263,242.127 304.655,235.55 324.762,247.158 324.762,249.277 313.369,255.855 
				293.263,244.246 			"></polygon>
			<polygon fill="#A2D3F2" points="324.762,247.158 313.369,253.736 313.369,240.581 			"></polygon>
			<g>
				<path fill="#377CA6" d="M311.327,257.034l-23.012-13.286v-2.72l-8.533-35.404l-33.019-19.063l-8.534,25.55l-23.012-13.286
					V97.076c0-10.344,11.197-16.808,20.155-11.636l62.518,36.095c8.315,4.8,13.437,13.672,13.437,23.273v109.506l0,0V257.034z"></path>
				<polygon fill="#377CA6" points="238.229,212.111 237.636,213.887 215.217,200.943 215.217,198.825 				"></polygon>
			</g>
			<path fill="#A2D3F2" d="M301.368,123.941l2.042-1.179c4.818,3.905,8.135,9.349,9.392,15.397l-2.042,1.179
				C309.503,133.29,306.186,127.847,301.368,123.941z"></path>
		</g>
	</g>
	<path fill="#306D91" d="M288.932,191.071c5.059-2.957,8.118-8.842,8.118-17.209c0-18.557-15.043-42.295-33.6-53.02
		c-10.119-5.849-19.193-6.62-25.352-3.104L63.118,218.794C58.058,221.751,55,227.636,55,236.003c0,18.557,15.043,42.294,33.6,53.02
		c10.119,5.849,19.193,6.62,25.352,3.104L288.932,191.071z"></path>
	<path fill="#64A9D4" d="M268.351,124.034c8.938,6.472,16.732,15.8,21.933,25.699L72.417,275.518
		c-7.653-8.638-13.482-19.117-16.019-29.113L268.351,124.034z"></path>
	<polyline fill="none" stroke="#C1272D" points="286.913,117.986 270.05,127.722 153.201,195.185 	"></polyline>
	<path d="M296.948,176.329c-0.549,7.059-3.471,12.085-8.016,14.741l-174.98,101.057c-4.643,2.65-10.942,2.861-18.095,0.302
		L296.948,176.329z"></path>
	<g>
		<path fill="#4091C2" d="M315.87,188.409c1.894-1.107,3.039-3.311,3.039-6.443c0-6.948-5.632-15.836-12.58-19.852
			c-3.789-2.19-7.186-2.479-9.492-1.162L163.143,238.14c-1.923,1.098-3.088,3.312-3.088,6.471c0,6.948,5.632,15.836,12.58,19.852
			c3.815,2.205,7.234,2.483,9.541,1.134L315.87,188.409z"></path>
		<path d="M172.635,239.302c-3.789-2.19-7.186-2.479-9.492-1.162c-1.923,1.098-3.088,3.312-3.088,6.471
			c0,6.948,5.632,15.836,12.58,19.852c3.815,2.205,7.234,2.483,9.541,1.134c1.894-1.107,3.039-3.311,3.039-6.443
			C185.215,252.206,179.583,243.318,172.635,239.302z"></path>
		<path fill="#A2D3F2" d="M172.635,239.302c-0.379-0.219-0.75-0.405-1.12-0.586l133.694-77.188c0.37,0.181,0.741,0.367,1.12,0.586
			c3.078,1.779,5.895,4.516,8.081,7.615l-133.694,77.188C178.53,243.818,175.713,241.081,172.635,239.302z"></path>
		<path fill="#4091C2" d="M174.829,264.26c0.682-0.399,1.094-1.192,1.094-2.319c0-2.501-2.028-5.701-4.529-7.146
			c-1.364-0.788-2.587-0.892-3.417-0.418l-14.329,8.273l0,0c-0.692,0.395-1.112,1.192-1.112,2.33c0,2.501,2.028,5.701,4.529,7.146
			c1.373,0.794,2.604,0.894,3.435,0.408L174.829,264.26z"></path>
		<path fill="#4091C2" d="M174.829,250.352c0.682-0.399,1.094-1.192,1.094-2.319c0-2.501-2.028-5.701-4.529-7.146
			c-1.364-0.788-2.587-0.892-3.417-0.418l-14.329,8.273l0,0c-0.692,0.395-1.112,1.192-1.112,2.33c0,2.501,2.028,5.701,4.529,7.146
			c1.373,0.794,2.604,0.894,3.435,0.408L174.829,250.352z"></path>
		<line fill="none" stroke="#64A9D4" stroke-miterlimit="10" x1="173.736" y1="257.015" x2="159.407" y2="265.287"></line>
		<line fill="none" stroke="#64A9D4" stroke-miterlimit="10" x1="173.736" y1="243.107" x2="159.407" y2="251.38"></line>
		
			<line fill="none" stroke="#999999" stroke-width="5" stroke-linecap="round" stroke-linejoin="round" stroke-miterlimit="10" x1="156.329" y1="254.686" x2="139.147" y2="264.607"></line>
		
			<line fill="none" stroke="#999999" stroke-width="5" stroke-linecap="round" stroke-linejoin="round" stroke-miterlimit="10" x1="156.329" y1="268.033" x2="139.147" y2="277.953"></line>
		
			<line fill="none" stroke="#CCCCCC" stroke-linecap="round" stroke-linejoin="round" stroke-miterlimit="10" x1="156.329" y1="253.487" x2="139.147" y2="263.407"></line>
		
			<line fill="none" stroke="#CCCCCC" stroke-linecap="round" stroke-linejoin="round" stroke-miterlimit="10" x1="156.329" y1="266.833" x2="139.147" y2="276.753"></line>
	</g>
	<path fill="#4091C2" d="M126.982,286.195c0,2.715,3.99,4.916,8.911,4.916c4.921,0,8.911-2.201,8.911-4.916v-77.804
		c0-2.715-3.99-4.916-8.911-4.916c-4.921,0-8.911,2.201-8.911,4.916V286.195z"></path>
	<g>
		<polygon fill="#306D91" points="59.73,296.172 71.122,289.595 102.759,307.86 105.071,309.195 114.198,344.941 113.727,345.214 
			114.198,347.06 102.806,353.637 100.493,352.302 91.367,316.556 59.73,298.291 61.565,297.231 		"></polygon>
		<g>
			<path fill="#64A9D4" d="M45.962,187.135c4.034-2.818,9.561-3.45,14.429-0.639l62.518,36.095
				c8.315,4.8,13.437,13.672,13.437,23.273V355.37v2.119v0l-2.042,1.179l0,0l-11.392,6.577l-22.419-12.943v-2.119l10.944-6.319
				l-8.678-36.005l-31.637-18.266l-8.466,25.349l-2.042,1.179l-22.419-12.943V199.312C38.195,193.69,41.505,189.22,45.962,187.135z"></path>
			<polygon fill="#64A9D4" points="114.198,344.941 134.304,356.55 122.912,363.127 102.806,351.519 			"></polygon>
			<polygon fill="#306D91" points="100.493,350.184 122.912,363.127 122.912,365.246 100.493,352.302 			"></polygon>
			<g>
				<polygon fill="none" points="102.759,307.86 111.292,343.264 61.207,314.347 69.74,288.797 				"></polygon>
				<path fill="#377CA6" d="M38.195,199.312c0-10.344,11.197-16.808,20.155-11.637l62.518,36.095
					c8.315,4.8,13.437,13.672,13.437,23.273V356.55l0,0l-23.012-13.286l-8.533-35.404L69.74,288.797l-8.534,25.55l-23.012-13.286
					V199.312z"></path>
				<polygon fill="#377CA6" points="61.207,314.347 60.613,316.123 38.195,303.179 38.195,301.061 				"></polygon>
			</g>
			<path fill="#A2D3F2" d="M124.345,226.177l2.042-1.179c4.818,3.905,8.135,9.349,9.392,15.397l-2.042,1.179
				C132.48,235.526,129.163,230.083,124.345,226.177z"></path>
			<polygon fill="#4091C2" points="105.071,309.195 93.679,315.772 102.806,351.519 114.198,344.941 			"></polygon>
			<polygon fill="#306D91" points="93.679,315.772 102.806,351.519 102.806,353.637 100.493,352.302 91.367,316.556 			"></polygon>
			<polygon fill="#64A9D4" points="91.367,314.437 102.759,307.86 105.071,309.195 93.679,315.772 			"></polygon>
		</g>
	</g>
	<path fill="#306D91" d="M113.952,292.127c5.059-2.957,8.118-8.842,8.118-17.209c0-18.557-15.043-42.295-33.6-53.02
		c-10.119-5.849-19.193-6.62-25.352-3.104l-33.874,19.573c-11.631,8.049-19.256,21.478-19.256,36.693
		c0,24.632,19.968,44.6,44.6,44.6c9.47,0,18.245-2.96,25.466-7.994L113.952,292.127z"></path>
	<path fill="#255470" d="M277.866,151.783c-6.132-10.098-14.858-19.237-24.541-24.834l-31.697,18.3
		c9.683,5.597,18.409,14.736,24.541,24.834L277.866,151.783z"></path>
	
		<line fill="none" stroke="#255470" stroke-width="5" stroke-linecap="round" stroke-linejoin="round" stroke-miterlimit="10" x1="242.068" y1="157.755" x2="172.076" y2="198.165"></line>
	<path d="M113.952,292.127l-33.898,19.539c-7.222,5.034-15.996,7.994-25.466,7.994c-1.804,0-3.58-0.12-5.329-0.328l72.711-41.98
		C121.428,284.429,118.504,289.467,113.952,292.127z"></path>
	<path fill="#255470" d="M70.913,309.23c0,0-23.903,7.823-37.811-6.085l-2.608,8.692l29.119,6.954L70.913,309.23z"></path>
	<g>
		<path fill="#4091C2" d="M12.9,261.341c4.901-2.798,12.121-2.183,20.173,2.47c14.765,8.534,26.735,27.423,26.735,42.188
			c0,6.657-2.433,11.34-6.459,13.693l-6.441,3.719c-4.901,2.798-12.121,2.183-20.173-2.47C11.97,312.406,0,293.518,0,278.753
			c0-6.657,2.433-11.34,6.459-13.693L12.9,261.341z"></path>
		<path fill="#377CA6" d="M46.908,323.411c4.026-2.353,6.459-7.036,6.459-13.693c0-14.765-11.97-33.654-26.735-42.188
			c-8.051-4.654-15.271-5.268-20.173-2.47C2.433,267.413,0,272.095,0,278.753c0,14.765,11.97,33.654,26.735,42.188
			C34.786,325.594,42.006,326.208,46.908,323.411z"></path>
		<path fill="#255470" d="M41.253,315.254c2.9-1.695,4.653-5.068,4.653-9.864c0-10.637-8.623-24.244-19.26-30.392
			c-5.8-3.353-11.002-3.795-14.533-1.78c-2.9,1.695-4.653,5.068-4.653,9.864c0,10.637,8.623,24.244,19.26,30.393
			C32.521,316.827,37.722,317.269,41.253,315.254z"></path>
		<path d="M12.114,273.217c0.919-0.524,0.513-0.398,1.639-0.582c-0.066,0.035-0.135,0.065-0.199,0.102
			c-2.9,1.695-4.653,5.068-4.653,9.864c0,10.637,8.623,24.244,19.26,30.392c4.291,2.48,8.252,3.364,11.454,2.841
			c-4.982,0.973-7.199,0.93-12.894-2.362c-10.637-6.148-19.26-19.755-19.26-30.393C7.46,278.285,9.213,274.912,12.114,273.217z"></path>
		<g>
			<path fill="#4091C2" d="M18.47,266.092c-0.396,0.226-0.635,0.682-0.635,1.332c0,1.43,1.159,3.259,2.589,4.085
				c0.785,0.454,1.489,0.511,1.963,0.233l0.741-0.428c0.39-0.228,0.625-0.681,0.625-1.326c0-1.43-1.159-3.259-2.589-4.085
				c-0.78-0.451-1.479-0.51-1.953-0.239L18.47,266.092z"></path>
			<path fill="#64A9D4" d="M20.423,266.331c-0.275-0.159-0.54-0.268-0.789-0.333l0.741-0.428c0.249,0.064,0.514,0.174,0.789,0.333
				c0.403,0.233,0.785,0.546,1.125,0.907l-0.741,0.428C21.208,266.877,20.827,266.564,20.423,266.331z"></path>
			<path fill="#2C5B91" d="M20.423,266.331c-0.78-0.451-1.479-0.51-1.953-0.239c-0.396,0.226-0.635,0.682-0.635,1.332
				c0,1.43,1.159,3.259,2.589,4.085c0.785,0.454,1.489,0.511,1.963,0.233c0.39-0.228,0.625-0.681,0.625-1.326
				C23.012,268.987,21.853,267.158,20.423,266.331z"></path>
			<path fill="#255470" d="M23.012,270.416c0,0.645-0.236,1.098-0.625,1.326l0.741-0.428c0.39-0.228,0.625-0.681,0.625-1.326
				L23.012,270.416z"></path>
			<g>
				<polygon fill="#4091C2" points="21.477,271.161 22.417,270.079 21.477,267.906 19.597,266.814 18.631,267.366 17.691,268.447 
					18.631,270.621 20.51,271.713 				"></polygon>
				<polygon fill="#306D91" points="18.631,267.366 17.691,268.447 18.631,270.621 20.51,271.713 21.45,270.632 20.51,268.458 				
					"></polygon>
				<polygon fill="#64A9D4" points="18.631,267.366 20.51,268.458 21.477,267.906 19.597,266.814 				"></polygon>
				<polygon fill="#255470" points="21.477,271.161 22.417,270.079 21.45,270.632 20.51,271.713 				"></polygon>
			</g>
		</g>
		<g>
			<path fill="#4091C2" d="M1.989,287.279c-0.396,0.226-0.635,0.682-0.635,1.332c0,1.43,1.159,3.259,2.589,4.085
				c0.785,0.454,1.489,0.511,1.963,0.233l0.741-0.428c0.39-0.228,0.625-0.681,0.625-1.326c0-1.43-1.159-3.259-2.589-4.085
				c-0.78-0.451-1.479-0.51-1.953-0.239L1.989,287.279z"></path>
			<path fill="#64A9D4" d="M3.942,287.518c-0.275-0.159-0.54-0.268-0.789-0.333l0.741-0.428c0.249,0.064,0.514,0.174,0.789,0.333
				c0.403,0.233,0.785,0.546,1.125,0.907l-0.741,0.428C4.727,288.064,4.345,287.751,3.942,287.518z"></path>
			<path fill="#2C5B91" d="M3.942,287.518c-0.78-0.451-1.479-0.51-1.953-0.239c-0.396,0.226-0.635,0.682-0.635,1.332
				c0,1.43,1.159,3.259,2.589,4.085c0.785,0.454,1.489,0.511,1.963,0.233c0.39-0.228,0.625-0.681,0.625-1.326
				C6.531,290.174,5.372,288.345,3.942,287.518z"></path>
			<path fill="#255470" d="M6.531,291.603c0,0.645-0.236,1.098-0.625,1.326l0.741-0.428c0.39-0.228,0.625-0.681,0.625-1.326
				L6.531,291.603z"></path>
			<g>
				<polygon fill="#4091C2" points="4.996,292.348 5.935,291.266 4.996,289.093 3.116,288.001 2.149,288.553 1.21,289.635 
					2.149,291.808 4.029,292.9 				"></polygon>
				<polygon fill="#306D91" points="2.149,288.553 1.21,289.635 2.149,291.808 4.029,292.9 4.969,291.819 4.029,289.645 				"></polygon>
				<polygon fill="#64A9D4" points="2.149,288.553 4.029,289.645 4.996,289.093 3.116,288.001 				"></polygon>
				<polygon fill="#255470" points="4.996,292.348 5.935,291.266 4.969,291.819 4.029,292.9 				"></polygon>
			</g>
		</g>
		<g>
			<path fill="#4091C2" d="M8.214,300.616c-0.396,0.226-0.635,0.682-0.635,1.332c0,1.43,1.159,3.259,2.589,4.085
				c0.785,0.454,1.489,0.511,1.963,0.233l0.741-0.428c0.39-0.228,0.625-0.681,0.625-1.326c0-1.43-1.159-3.259-2.589-4.085
				c-0.78-0.451-1.479-0.51-1.953-0.239L8.214,300.616z"></path>
			<path fill="#64A9D4" d="M10.167,300.856c-0.275-0.159-0.54-0.268-0.789-0.333l0.741-0.428c0.249,0.064,0.514,0.174,0.789,0.333
				c0.403,0.233,0.785,0.546,1.125,0.907l-0.741,0.428C10.952,301.401,10.57,301.089,10.167,300.856z"></path>
			<path fill="#2C5B91" d="M10.167,300.856c-0.78-0.451-1.479-0.51-1.953-0.239c-0.396,0.226-0.635,0.682-0.635,1.332
				c0,1.43,1.159,3.259,2.589,4.085c0.785,0.454,1.489,0.511,1.963,0.233c0.39-0.228,0.625-0.681,0.625-1.326
				C12.756,303.511,11.597,301.682,10.167,300.856z"></path>
			<path fill="#255470" d="M12.756,304.94c0,0.645-0.236,1.098-0.625,1.326l0.741-0.428c0.39-0.228,0.625-0.681,0.625-1.326
				L12.756,304.94z"></path>
			<g>
				<polygon fill="#4091C2" points="11.22,305.685 12.16,304.603 11.22,302.43 9.341,301.338 8.374,301.89 7.435,302.972 
					8.374,305.145 10.254,306.237 				"></polygon>
				<polygon fill="#306D91" points="8.374,301.89 7.435,302.972 8.374,305.145 10.254,306.237 11.193,305.156 10.254,302.982 				
					"></polygon>
				<polygon fill="#64A9D4" points="8.374,301.89 10.254,302.982 11.22,302.43 9.341,301.338 				"></polygon>
				<polygon fill="#255470" points="11.22,305.685 12.16,304.603 11.193,305.156 10.254,306.237 				"></polygon>
			</g>
		</g>
		<g>
			<path fill="#4091C2" d="M18.594,311.925c-0.396,0.226-0.635,0.682-0.635,1.332c0,1.43,1.159,3.259,2.589,4.085
				c0.785,0.454,1.489,0.511,1.963,0.233l0.741-0.428c0.39-0.228,0.625-0.681,0.625-1.326c0-1.43-1.159-3.259-2.589-4.085
				c-0.78-0.451-1.479-0.51-1.953-0.239L18.594,311.925z"></path>
			<path fill="#64A9D4" d="M20.548,312.164c-0.275-0.159-0.54-0.268-0.789-0.333l0.741-0.428c0.249,0.064,0.514,0.174,0.789,0.333
				c0.403,0.233,0.785,0.546,1.125,0.907l-0.741,0.428C21.332,312.71,20.951,312.397,20.548,312.164z"></path>
			<path fill="#2C5B91" d="M20.548,312.164c-0.78-0.451-1.479-0.51-1.953-0.239c-0.396,0.226-0.635,0.682-0.635,1.332
				c0,1.43,1.159,3.259,2.589,4.085c0.785,0.454,1.489,0.511,1.963,0.233c0.39-0.228,0.625-0.681,0.625-1.326
				C23.136,314.82,21.977,312.991,20.548,312.164z"></path>
			<path fill="#255470" d="M23.136,316.249c0,0.645-0.236,1.098-0.625,1.326l0.741-0.428c0.39-0.228,0.625-0.681,0.625-1.326
				L23.136,316.249z"></path>
			<g>
				<polygon fill="#4091C2" points="21.601,316.994 22.541,315.912 21.601,313.739 19.722,312.647 18.755,313.199 17.815,314.281 
					18.755,316.454 20.635,317.546 				"></polygon>
				<polygon fill="#306D91" points="18.755,313.199 17.815,314.281 18.755,316.454 20.635,317.546 21.574,316.465 20.635,314.291 
									"></polygon>
				<polygon fill="#64A9D4" points="18.755,313.199 20.635,314.291 21.601,313.739 19.722,312.647 				"></polygon>
				<polygon fill="#255470" points="21.601,316.994 22.541,315.912 21.574,316.465 20.635,317.546 				"></polygon>
			</g>
		</g>
		<g>
			<path fill="#4091C2" d="M42.421,287.936c-0.396,0.226-0.635,0.682-0.635,1.332c0,1.43,1.159,3.259,2.589,4.085
				c0.785,0.454,1.489,0.511,1.963,0.233l0.741-0.428c0.39-0.228,0.625-0.681,0.625-1.326c0-1.43-1.159-3.259-2.589-4.085
				c-0.78-0.451-1.479-0.51-1.953-0.239L42.421,287.936z"></path>
			<path fill="#64A9D4" d="M44.374,288.175c-0.275-0.159-0.54-0.268-0.789-0.333l0.741-0.428c0.249,0.064,0.514,0.174,0.789,0.333
				c0.403,0.233,0.785,0.546,1.125,0.907l-0.741,0.428C45.159,288.721,44.777,288.408,44.374,288.175z"></path>
			<path fill="#2C5B91" d="M44.374,288.175c-0.78-0.451-1.479-0.51-1.953-0.239c-0.396,0.226-0.635,0.682-0.635,1.332
				c0,1.43,1.159,3.259,2.589,4.085c0.785,0.454,1.489,0.511,1.963,0.233c0.39-0.228,0.625-0.681,0.625-1.326
				C46.963,290.83,45.804,289.001,44.374,288.175z"></path>
			<path fill="#255470" d="M46.963,292.26c0,0.645-0.236,1.098-0.625,1.326l0.741-0.428c0.39-0.228,0.625-0.681,0.625-1.326
				L46.963,292.26z"></path>
			<g>
				<polygon fill="#4091C2" points="45.428,293.004 46.367,291.923 45.428,289.749 43.548,288.657 42.582,289.21 41.642,290.291 
					42.582,292.465 44.461,293.557 				"></polygon>
				<polygon fill="#306D91" points="42.582,289.21 41.642,290.291 42.582,292.465 44.461,293.557 45.401,292.475 44.461,290.302 
									"></polygon>
				<polygon fill="#64A9D4" points="42.582,289.21 44.461,290.302 45.428,289.749 43.548,288.657 				"></polygon>
				<polygon fill="#255470" points="45.428,293.004 46.367,291.923 45.401,292.475 44.461,293.557 				"></polygon>
			</g>
		</g>
		<g>
			<path fill="#4091C2" d="M31.841,274.169c-0.396,0.226-0.635,0.682-0.635,1.332c0,1.43,1.159,3.259,2.589,4.085
				c0.785,0.454,1.489,0.511,1.963,0.233l0.741-0.428c0.39-0.228,0.625-0.681,0.625-1.326c0-1.43-1.159-3.259-2.589-4.085
				c-0.78-0.451-1.479-0.51-1.953-0.239L31.841,274.169z"></path>
			<path fill="#64A9D4" d="M33.794,274.408c-0.275-0.159-0.54-0.268-0.789-0.333l0.741-0.428c0.249,0.064,0.514,0.174,0.789,0.333
				c0.403,0.233,0.785,0.546,1.125,0.907l-0.741,0.428C34.579,274.954,34.197,274.641,33.794,274.408z"></path>
			<path fill="#2C5B91" d="M33.794,274.408c-0.78-0.451-1.479-0.51-1.953-0.239c-0.396,0.226-0.635,0.682-0.635,1.332
				c0,1.43,1.159,3.259,2.589,4.085c0.785,0.454,1.489,0.511,1.963,0.233c0.39-0.228,0.625-0.681,0.625-1.326
				C36.383,277.063,35.224,275.234,33.794,274.408z"></path>
			<path fill="#255470" d="M36.383,278.493c0,0.645-0.236,1.098-0.625,1.326l0.741-0.428c0.39-0.228,0.625-0.681,0.625-1.326
				L36.383,278.493z"></path>
			<g>
				<polygon fill="#4091C2" points="34.848,279.237 35.787,278.156 34.848,275.982 32.968,274.89 32.002,275.442 31.062,276.524 
					32.002,278.698 33.881,279.79 				"></polygon>
				<polygon fill="#306D91" points="32.002,275.442 31.062,276.524 32.002,278.698 33.881,279.79 34.821,278.708 33.881,276.535 
									"></polygon>
				<polygon fill="#64A9D4" points="32.002,275.442 33.881,276.535 34.848,275.982 32.968,274.89 				"></polygon>
				<polygon fill="#255470" points="34.848,279.237 35.787,278.156 34.821,278.708 33.881,279.79 				"></polygon>
			</g>
		</g>
		<g>
			<path fill="#4091C2" d="M6.923,266.395c-0.396,0.226-0.635,0.682-0.635,1.332c0,1.43,1.159,3.259,2.589,4.085
				c0.785,0.454,1.489,0.511,1.963,0.233l0.741-0.428c0.39-0.228,0.625-0.681,0.625-1.326c0-1.43-1.159-3.259-2.589-4.085
				c-0.78-0.451-1.479-0.51-1.953-0.239L6.923,266.395z"></path>
			<path fill="#64A9D4" d="M8.877,266.635c-0.275-0.159-0.54-0.268-0.789-0.333l0.741-0.428c0.249,0.064,0.514,0.174,0.789,0.333
				c0.403,0.233,0.785,0.546,1.125,0.907l-0.741,0.428C9.661,267.18,9.28,266.868,8.877,266.635z"></path>
			<path fill="#2C5B91" d="M8.877,266.635c-0.78-0.451-1.479-0.51-1.953-0.239c-0.396,0.226-0.635,0.682-0.635,1.332
				c0,1.43,1.159,3.259,2.589,4.085c0.785,0.454,1.489,0.511,1.963,0.233c0.39-0.228,0.625-0.681,0.625-1.326
				C11.465,269.29,10.306,267.461,8.877,266.635z"></path>
			<path fill="#255470" d="M11.465,270.72c0,0.645-0.236,1.098-0.625,1.326l0.741-0.428c0.39-0.228,0.625-0.681,0.625-1.326
				L11.465,270.72z"></path>
			<g>
				<polygon fill="#4091C2" points="9.93,271.464 10.87,270.383 9.93,268.209 8.051,267.117 7.084,267.669 6.144,268.751 
					7.084,270.924 8.963,272.017 				"></polygon>
				<polygon fill="#306D91" points="7.084,267.669 6.144,268.751 7.084,270.924 8.963,272.017 9.903,270.935 8.963,268.761 				"></polygon>
				<polygon fill="#64A9D4" points="7.084,267.669 8.963,268.761 9.93,268.209 8.051,267.117 				"></polygon>
				<polygon fill="#255470" points="9.93,271.464 10.87,270.383 9.903,270.935 8.963,272.017 				"></polygon>
			</g>
		</g>
		<g>
			<path fill="#4091C2" d="M1.319,274.182c-0.396,0.226-0.635,0.682-0.635,1.332c0,1.43,1.159,3.259,2.589,4.085
				c0.785,0.454,1.489,0.511,1.963,0.233l0.741-0.428c0.39-0.228,0.625-0.681,0.625-1.326c0-1.43-1.159-3.259-2.589-4.085
				c-0.78-0.451-1.479-0.51-1.953-0.239L1.319,274.182z"></path>
			<path fill="#64A9D4" d="M3.272,274.421c-0.275-0.159-0.54-0.268-0.789-0.333l0.741-0.428c0.249,0.064,0.514,0.174,0.789,0.333
				c0.403,0.233,0.785,0.546,1.125,0.907l-0.741,0.428C4.057,274.967,3.675,274.654,3.272,274.421z"></path>
			<path fill="#2C5B91" d="M3.272,274.421c-0.78-0.451-1.479-0.51-1.953-0.239c-0.396,0.226-0.635,0.682-0.635,1.332
				c0,1.43,1.159,3.259,2.589,4.085c0.785,0.454,1.489,0.511,1.963,0.233c0.39-0.228,0.625-0.681,0.625-1.326
				C5.861,277.077,4.702,275.248,3.272,274.421z"></path>
			<path fill="#255470" d="M5.861,278.506c0,0.645-0.236,1.098-0.625,1.326l0.741-0.428c0.39-0.228,0.625-0.681,0.625-1.326
				L5.861,278.506z"></path>
			<g>
				<polygon fill="#4091C2" points="4.326,279.251 5.265,278.169 4.326,275.996 2.446,274.903 1.479,275.456 0.54,276.537 
					1.479,278.711 3.359,279.803 				"></polygon>
				<polygon fill="#306D91" points="1.479,275.456 0.54,276.537 1.479,278.711 3.359,279.803 4.299,278.722 3.359,276.548 				"></polygon>
				<polygon fill="#64A9D4" points="1.479,275.456 3.359,276.548 4.326,275.996 2.446,274.903 				"></polygon>
				<polygon fill="#255470" points="4.326,279.251 5.265,278.169 4.299,278.722 3.359,279.803 				"></polygon>
			</g>
		</g>
		<g>
			<path fill="#4091C2" d="M44.191,314.732c-0.396,0.226-0.635,0.682-0.635,1.332c0,1.43,1.159,3.259,2.589,4.085
				c0.785,0.454,1.489,0.511,1.963,0.233l0.741-0.428c0.39-0.228,0.625-0.681,0.625-1.326c0-1.43-1.159-3.259-2.589-4.085
				c-0.78-0.451-1.479-0.51-1.953-0.239L44.191,314.732z"></path>
			<path fill="#64A9D4" d="M46.144,314.971c-0.275-0.159-0.54-0.268-0.789-0.333l0.741-0.428c0.249,0.064,0.514,0.174,0.789,0.333
				c0.403,0.233,0.785,0.546,1.125,0.907l-0.741,0.428C46.929,315.517,46.548,315.204,46.144,314.971z"></path>
			<path fill="#2C5B91" d="M46.144,314.971c-0.78-0.451-1.479-0.51-1.953-0.239c-0.396,0.226-0.635,0.682-0.635,1.332
				c0,1.43,1.159,3.259,2.589,4.085c0.785,0.454,1.489,0.511,1.963,0.233c0.39-0.228,0.625-0.681,0.625-1.326
				C48.733,317.626,47.574,315.798,46.144,314.971z"></path>
			<path fill="#255470" d="M48.733,319.056c0,0.645-0.236,1.098-0.625,1.326l0.741-0.428c0.39-0.228,0.625-0.681,0.625-1.326
				L48.733,319.056z"></path>
			<g>
				<polygon fill="#4091C2" points="47.198,319.801 48.138,318.719 47.198,316.546 45.318,315.453 44.352,316.006 43.412,317.087 
					44.352,319.261 46.231,320.353 				"></polygon>
				<polygon fill="#306D91" points="44.352,316.006 43.412,317.087 44.352,319.261 46.231,320.353 47.171,319.272 46.231,317.098 
									"></polygon>
				<polygon fill="#64A9D4" points="44.352,316.006 46.231,317.098 47.198,316.546 45.318,315.453 				"></polygon>
				<polygon fill="#255470" points="47.198,319.801 48.138,318.719 47.171,319.272 46.231,320.353 				"></polygon>
			</g>
		</g>
		<g>
			<path fill="#4091C2" d="M46.658,302.59c-0.396,0.226-0.635,0.682-0.635,1.332c0,1.43,1.159,3.259,2.589,4.085
				c0.785,0.454,1.489,0.511,1.963,0.233l0.741-0.428c0.39-0.228,0.625-0.681,0.625-1.326c0-1.43-1.159-3.259-2.589-4.085
				c-0.78-0.451-1.479-0.51-1.953-0.239L46.658,302.59z"></path>
			<path fill="#64A9D4" d="M48.612,302.829c-0.275-0.159-0.54-0.268-0.789-0.333l0.741-0.428c0.249,0.064,0.514,0.174,0.789,0.333
				c0.403,0.233,0.785,0.546,1.125,0.907l-0.741,0.428C49.396,303.375,49.015,303.062,48.612,302.829z"></path>
			<path fill="#2C5B91" d="M48.612,302.829c-0.78-0.451-1.479-0.51-1.953-0.239c-0.396,0.226-0.635,0.682-0.635,1.332
				c0,1.43,1.159,3.259,2.589,4.085c0.785,0.454,1.489,0.511,1.963,0.233c0.39-0.228,0.625-0.681,0.625-1.326
				C51.2,305.485,50.041,303.656,48.612,302.829z"></path>
			<path fill="#255470" d="M51.2,306.914c0,0.645-0.236,1.098-0.625,1.326l0.741-0.428c0.39-0.228,0.625-0.681,0.625-1.326
				L51.2,306.914z"></path>
			<g>
				<polygon fill="#4091C2" points="49.665,307.659 50.605,306.577 49.665,304.404 47.786,303.312 46.819,303.864 45.879,304.946 
					46.819,307.119 48.698,308.211 				"></polygon>
				<polygon fill="#306D91" points="46.819,303.864 45.879,304.946 46.819,307.119 48.698,308.211 49.638,307.13 48.698,304.956 
									"></polygon>
				<polygon fill="#64A9D4" points="46.819,303.864 48.698,304.956 49.665,304.404 47.786,303.312 				"></polygon>
				<polygon fill="#255470" points="49.665,307.659 50.605,306.577 49.638,307.13 48.698,308.211 				"></polygon>
			</g>
		</g>
		<g>
			<path fill="#4091C2" d="M32.851,317.969c-0.396,0.226-0.635,0.682-0.635,1.332c0,1.43,1.159,3.259,2.589,4.085
				c0.785,0.454,1.489,0.511,1.963,0.233l0.741-0.428c0.39-0.228,0.625-0.681,0.625-1.326c0-1.43-1.159-3.259-2.589-4.085
				c-0.78-0.451-1.479-0.51-1.953-0.239L32.851,317.969z"></path>
			<path fill="#64A9D4" d="M34.804,318.208c-0.275-0.159-0.54-0.268-0.789-0.333l0.741-0.428c0.249,0.064,0.514,0.174,0.789,0.333
				c0.403,0.233,0.785,0.546,1.125,0.907l-0.741,0.428C35.589,318.754,35.207,318.441,34.804,318.208z"></path>
			<path fill="#2C5B91" d="M34.804,318.208c-0.78-0.451-1.479-0.51-1.953-0.239c-0.396,0.226-0.635,0.682-0.635,1.332
				c0,1.43,1.159,3.259,2.589,4.085c0.785,0.454,1.489,0.511,1.963,0.233c0.39-0.228,0.625-0.681,0.625-1.326
				C37.393,320.863,36.234,319.035,34.804,318.208z"></path>
			<path fill="#255470" d="M37.393,322.293c0,0.645-0.236,1.098-0.625,1.326l0.741-0.428c0.39-0.228,0.625-0.681,0.625-1.326
				L37.393,322.293z"></path>
			<g>
				<polygon fill="#4091C2" points="35.857,323.038 36.797,321.956 35.857,319.782 33.978,318.69 33.011,319.243 32.071,320.324 
					33.011,322.498 34.891,323.59 				"></polygon>
				<polygon fill="#306D91" points="33.011,319.243 32.071,320.324 33.011,322.498 34.891,323.59 35.83,322.508 34.891,320.335 				
					"></polygon>
				<polygon fill="#64A9D4" points="33.011,319.243 34.891,320.335 35.857,319.782 33.978,318.69 				"></polygon>
				<polygon fill="#255470" points="35.857,323.038 36.797,321.956 35.83,322.508 34.891,323.59 				"></polygon>
			</g>
		</g>
	</g>
	<path fill="#64A9D4" d="M32.332,271.44l6.441-3.719c5.144,4.091,9.736,9.339,13.306,15.013l-6.441,3.719
		C42.068,280.779,37.476,275.531,32.332,271.44z"></path>
	<path fill="#4091C2" d="M38.774,267.721c0,0,5.563-13.126,18.871-22.036c8.983,6.402,16.838,15.696,22.112,25.596
		c-17.277,9.126-27.676,11.454-27.676,11.454C48.509,277.061,43.918,271.812,38.774,267.721z"></path>
	<path fill="#64A9D4" d="M93.346,225.073c8.941,6.468,16.739,15.793,21.945,25.692l-35.535,20.516
		c-5.274-9.899-13.129-19.194-22.112-25.596L93.346,225.073z"></path>
	<path fill="#64A9D4" d="M339.389,119.566c-7.003,6.538-15.22,10.603-15.22,10.603l-21.945-25.692c0,0,6.344-5.312,21.12-5.984
		C330.623,103.691,336.28,111.014,339.389,119.566z"></path>
	<polygon fill="#4091C2" points="46.309,213.541 80.223,233.121 106.566,229.909 106.566,215.513 72.652,195.933 46.309,211.142 	
		"></polygon>
	<polygon fill="#64A9D4" points="80.223,230.722 106.566,215.513 72.652,195.933 46.309,211.142 	"></polygon>
	<path fill="#255470" d="M74.797,194.813L249.742,93.777l44.618,25.76v2.399l-30.213,17.449l-28.327,16.36l-59.761,34.514
		c4.134,4.232,7.829,9.018,10.88,14.043l-31.697,18.301c-3.05-5.023-6.743-9.808-10.876-14.039l-22.872,13.209L74.797,194.813z"></path>
	<polygon fill="#4091C2" points="249.742,88.978 294.36,114.738 294.36,117.138 170.791,188.503 174.362,188.165 190.934,197.733 
		190.934,200.133 164.681,215.29 144.541,203.663 115.295,220.553 70.678,194.793 70.678,192.394 	"></polygon>
	<polygon fill="#4091C2" points="48.603,211.308 79.935,229.397 112.504,210.594 112.504,208.031 81.172,189.942 48.603,208.746 	
		"></polygon>
	<polygon fill="#64A9D4" points="79.935,226.835 112.504,208.031 81.172,189.942 48.603,208.746 	"></polygon>
	<path fill="none" stroke="#377CA6" stroke-width="0.5" stroke-miterlimit="10" d="M322.83,171.532
		c5.09-2.905,8.118-8.842,8.118-17.209c0-18.557-15.043-42.295-33.6-53.02c-10.119-5.849-19.193-6.62-25.352-3.104"></path>
	<polygon fill="#64A9D4" points="70.678,192.394 249.742,88.978 294.36,114.738 170.791,186.103 190.934,197.733 164.681,212.891 
		144.541,201.263 115.295,218.154 	"></polygon>
	<polygon fill="#4091C2" points="282.15,144.981 282.15,147.381 255.897,162.538 235.757,150.911 262.006,133.351 	"></polygon>
	<polyline fill="#64A9D4" points="262.006,133.351 282.15,144.981 255.897,160.139 235.757,148.511 	"></polyline>
	<g>
		<g>
			
				<ellipse transform="matrix(0.9875 -0.1578 0.1578 0.9875 -2.475 39.7909)" fill="none" stroke="#000000" stroke-miterlimit="10" cx="249.371" cy="35.483" rx="15.851" ry="8.745"></ellipse>
			<path fill="none" stroke="#000000" stroke-miterlimit="10" d="M264.707,31.48v39.079c-1.552,0.28-3.208,0.433-4.929,0.433
				c-6.566,0-12.199-2.202-14.605-5.341l-11.139-26.165"></path>
		</g>
		<g>
			
				<ellipse transform="matrix(0.9875 -0.1578 0.1578 0.9875 -4.5126 36.7769)" fill="none" stroke="#000000" stroke-miterlimit="10" cx="229.369" cy="46.809" rx="15.851" ry="8.745"></ellipse>
			<path fill="none" stroke="#000000" stroke-miterlimit="10" d="M244.706,42.806v39.079c-1.552,0.28-3.208,0.433-4.929,0.433
				c-6.566,0-12.199-2.202-14.605-5.341l-11.139-26.165"></path>
		</g>
		<g>
			
				<ellipse transform="matrix(0.9875 -0.1578 0.1578 0.9875 -6.5502 33.7629)" fill="none" stroke="#000000" stroke-miterlimit="10" cx="209.368" cy="58.136" rx="15.851" ry="8.745"></ellipse>
			<path fill="none" stroke="#000000" stroke-miterlimit="10" d="M224.705,54.132v39.079c-1.552,0.28-3.208,0.433-4.929,0.433
				c-6.566,0-12.199-2.202-14.605-5.341l-11.139-26.165"></path>
		</g>
		<g>
			
				<ellipse transform="matrix(0.9875 -0.1578 0.1578 0.9875 -8.5879 30.7489)" fill="none" stroke="#000000" stroke-miterlimit="10" cx="189.367" cy="69.462" rx="15.851" ry="8.745"></ellipse>
			<path fill="#255470" stroke="#000000" stroke-miterlimit="10" d="M204.703,65.458v39.079c-1.552,0.28-3.208,0.433-4.929,0.433
				c-6.566,0-12.199-2.202-14.605-5.341L174.03,73.465"></path>
		</g>
	</g>
	<polygon fill="#999999" points="277.097,124.705 294.36,114.738 308.721,123.029 308.721,125.429 291.458,135.396 277.097,127.105 
			"></polygon>
	<polygon fill="#CCCCCC" points="294.36,114.738 308.721,123.029 291.458,132.996 277.097,124.705 	"></polygon>
	<path fill="none" stroke="#000000" stroke-width="2" stroke-linecap="round" stroke-linejoin="round" d="M188.692,43.684
		c0,0-7.243-7.533-7.243,17.964"></path>
	<polygon fill="#4091C2" points="184.728,135.987 211.603,151.504 291.716,105.25 291.716,47.882 264.841,32.366 184.728,78.619 	
		"></polygon>
	<g>
		<path fill="none" stroke="#FF9900" stroke-width="1.2667" d="M207.035,28.408l-5.791-3.343c-1.28-0.739-2.879,0.185-2.879,1.662
			v14.349"></path>
	</g>
	<g>
		<g>
			<path fill="#377CA6" d="M274.138,52.134v39.079c1.552,0.28,3.208,0.433,4.929,0.433c6.566,0,12.199-2.202,14.605-5.341
				l11.139-26.165"></path>
			
				<ellipse transform="matrix(0.2526 -0.9676 0.9676 0.2526 162.0432 322.048)" fill="#4091C2" cx="289.475" cy="56.138" rx="8.745" ry="15.851"></ellipse>
		</g>
		<g>
			<path fill="#377CA6" d="M253.86,63.842v39.079c1.552,0.28,3.208,0.433,4.929,0.433c6.566,0,12.199-2.202,14.605-5.341
				l11.139-26.165"></path>
			
				<ellipse transform="matrix(0.2526 -0.9676 0.9676 0.2526 135.5587 311.1778)" fill="#4091C2" cx="269.197" cy="67.845" rx="8.745" ry="15.851"></ellipse>
		</g>
		<g>
			<path fill="#377CA6" d="M233.582,75.549v39.079c1.552,0.28,3.208,0.433,4.929,0.433c6.566,0,12.199-2.202,14.605-5.341
				l11.139-26.165"></path>
			
				<ellipse transform="matrix(0.2526 -0.9676 0.9676 0.2526 109.0742 300.3076)" fill="#4091C2" cx="248.918" cy="79.553" rx="8.745" ry="15.851"></ellipse>
		</g>
		<g>
			<path fill="#377CA6" d="M213.303,87.257v39.079c1.552,0.28,3.208,0.433,4.929,0.433c6.566,0,12.199-2.202,14.605-5.341
				l11.139-26.165"></path>
			
				<ellipse transform="matrix(0.2526 -0.9676 0.9676 0.2526 82.5896 289.4375)" fill="#4091C2" cx="228.64" cy="91.261" rx="8.745" ry="15.851"></ellipse>
		</g>
	</g>
	<path fill="#64A9D4" d="M173.714,71.963c-0.762-4.769,5.628-9.755,14.272-11.137c1.986-0.317,3.913-0.407,5.721-0.315
		c-0.632-4.731,5.711-9.643,14.281-11.012c1.986-0.317,3.913-0.407,5.721-0.314c-0.632-4.731,5.712-9.643,14.281-11.012
		c1.986-0.317,3.913-0.407,5.721-0.314c-0.632-4.731,5.711-9.643,14.281-11.012c4.199-0.671,8.149-0.363,11.193,0.674l0.531-0.306
		c1.188-0.686,2.651-0.686,3.839,0l36.78,21.235c1.248,0.72,1.248,2.521,0,3.242l-0.007,0.004c3.39,2.53,5.215,5.648,4.485,8.446
		c-1.22,4.673-9.075,6.669-17.546,4.458c-2.042-0.533-3.93-1.262-5.605-2.127l-1.615,0.933c3.392,2.529,5.218,5.646,4.488,8.444
		c-1.22,4.673-9.075,6.669-17.545,4.458c-2.042-0.533-3.93-1.262-5.605-2.127l-1.615,0.933c3.392,2.529,5.218,5.646,4.488,8.444
		c-1.22,4.673-9.075,6.669-17.546,4.458c-2.042-0.533-3.93-1.262-5.605-2.127l-1.615,0.933c3.392,2.529,5.218,5.646,4.488,8.444
		c-1.22,4.673-9.075,6.669-17.546,4.458c-2.042-0.533-3.93-1.262-5.605-2.127l-4.075,2.353c-0.594,0.343-1.326,0.343-1.92,0
		l-38.848-22.429c-0.755-0.436-0.755-1.525,0-1.961l0,0C174.741,74.566,173.936,73.351,173.714,71.963z"></path>
	<g>
		<path fill="#4091C2" d="M133.183,108.758c-3.955,2.312-6.346,6.912-6.346,13.452c0,14.506,11.759,33.062,26.265,41.447
			c7.91,4.572,15.003,5.175,19.818,2.427l37.748-21.794c3.955-2.312,6.346-6.912,6.346-13.452c0-14.506-11.759-33.062-26.265-41.447
			c-7.91-4.572-15.003-5.175-19.818-2.427L133.183,108.758z"></path>
		<path fill="#64A9D4" d="M153.001,111.184l37.748-21.794c5.542,3.203,10.679,7.893,14.917,13.272l-37.748,21.794
			C163.68,119.077,158.543,114.387,153.001,111.184z"></path>
		<path fill="#306D91" d="M172.921,166.083c3.955-2.312,6.346-6.912,6.346-13.452c0-14.506-11.759-33.062-26.265-41.447
			c-7.91-4.572-15.003-5.175-19.818-2.427c-3.955,2.312-6.346,6.912-6.346,13.452c0,14.506,11.759,33.062,26.265,41.447
			C161.012,168.228,168.106,168.832,172.921,166.083z"></path>
		<path fill="#4091C2" d="M168.082,159.102c2.992-1.749,4.8-5.228,4.8-10.176c0-10.973-8.895-25.01-19.868-31.352
			c-5.983-3.458-11.349-3.915-14.992-1.836c-2.992,1.749-4.8,5.228-4.8,10.176c0,10.973,8.895,25.01,19.868,31.352
			C159.074,160.725,164.439,161.181,168.082,159.102z"></path>
		<path fill="#306D91" d="M163.291,161.868c2.992-1.749,4.8-5.228,4.8-10.176c0-10.973-8.895-25.01-19.868-31.352
			c-5.983-3.458-11.349-3.915-14.992-1.836c-2.992,1.749-4.8,5.228-4.8,10.176c0,10.973,8.895,25.01,19.868,31.352
			C154.283,163.491,159.648,163.947,163.291,161.868z"></path>
		<g>
			<g>
				<polygon fill="#4091C2" points="146.937,123.484 147.876,122.402 146.937,120.228 145.057,119.136 144.09,119.689 
					143.151,120.77 144.09,122.944 145.97,124.036 				"></polygon>
				<polygon fill="#306D91" points="144.09,119.689 143.151,120.77 144.09,122.944 145.97,124.036 146.91,122.954 145.97,120.781 
									"></polygon>
				<polygon fill="#64A9D4" points="144.09,119.689 145.97,120.781 146.937,120.228 145.057,119.136 				"></polygon>
			</g>
		</g>
		<g>
			<g>
				<polygon fill="#4091C2" points="136.832,122.832 137.772,121.75 136.832,119.577 134.953,118.484 133.986,119.037 
					133.046,120.118 133.986,122.292 135.865,123.384 				"></polygon>
				<polygon fill="#306D91" points="133.986,119.037 133.046,120.118 133.986,122.292 135.865,123.384 136.805,122.303 
					135.865,120.129 				"></polygon>
				<polygon fill="#64A9D4" points="133.986,119.037 135.865,120.129 136.832,119.577 134.953,118.484 				"></polygon>
			</g>
		</g>
		<g>
			<g>
				<polygon fill="#4091C2" points="158.78,132.719 159.719,131.637 158.78,129.464 156.9,128.372 155.934,128.924 154.994,130.006 
					155.934,132.179 157.813,133.271 				"></polygon>
				<polygon fill="#306D91" points="155.934,128.924 154.994,130.006 155.934,132.179 157.813,133.271 158.753,132.19 
					157.813,130.016 				"></polygon>
				<polygon fill="#64A9D4" points="155.934,128.924 157.813,130.016 158.78,129.464 156.9,128.372 				"></polygon>
			</g>
		</g>
		<g>
			<g>
				<polygon fill="#4091C2" points="166.168,145.105 167.108,144.024 166.168,141.85 164.289,140.758 163.322,141.31 
					162.382,142.392 163.322,144.566 165.201,145.658 				"></polygon>
				<polygon fill="#306D91" points="163.322,141.31 162.382,142.392 163.322,144.566 165.201,145.658 166.141,144.576 
					165.201,142.403 				"></polygon>
				<polygon fill="#64A9D4" points="163.322,141.31 165.201,142.403 166.168,141.85 164.289,140.758 				"></polygon>
			</g>
		</g>
		<g>
			<g>
				<polygon fill="#4091C2" points="166.168,156.622 167.108,155.541 166.168,153.367 164.289,152.275 163.322,152.828 
					162.382,153.909 163.322,156.083 165.201,157.175 				"></polygon>
				<polygon fill="#306D91" points="163.322,152.828 162.382,153.909 163.322,156.083 165.201,157.175 166.141,156.093 
					165.201,153.92 				"></polygon>
				<polygon fill="#64A9D4" points="163.322,152.828 165.201,153.92 166.168,153.367 164.289,152.275 				"></polygon>
			</g>
		</g>
		<g>
			<g>
				<polygon fill="#4091C2" points="159.54,162.598 160.48,161.517 159.54,159.343 157.661,158.251 156.694,158.803 
					155.754,159.885 156.694,162.059 158.573,163.151 				"></polygon>
				<polygon fill="#306D91" points="156.694,158.803 155.754,159.885 156.694,162.059 158.573,163.151 159.513,162.069 
					158.573,159.896 				"></polygon>
				<polygon fill="#64A9D4" points="156.694,158.803 158.573,159.896 159.54,159.343 157.661,158.251 				"></polygon>
			</g>
		</g>
		<g>
			<path fill="#64A9D4" stroke="#255470" stroke-width="0.5" stroke-miterlimit="10" d="M200.298,102.87
				c8.143,9.168,13.666,21.008,13.666,30.948c0,6.54-2.391,11.141-6.346,13.452l-26.963,15.567c1.386-0.81-2.342,0.133-2.342,0.133
				c3.955-2.312,6.346-6.912,6.346-13.452c0-9.94-5.523-21.78-13.666-30.948l26.963-15.567L200.298,102.87z"></path>
			<path fill="none" stroke="#255470" stroke-width="0.5" stroke-miterlimit="10" d="M179.033,162.97
				c3.955-2.312,6.346-6.912,6.346-13.452c0-9.94-5.523-21.78-13.666-30.948"></path>
		</g>
		<g>
			<path fill="none" d="M180.656,162.837c3.955-2.312,6.346-6.912,6.346-13.452c0-9.94-5.523-21.78-13.666-30.948l26.963-15.567
				c8.143,9.168,13.666,21.008,13.666,30.948c0,6.54-2.391,11.141-6.346,13.452"></path>
		</g>
		<path fill="#333333" d="M190.853,147.161c0-7.66-3.289-16.445-8.52-24.27l19.259-11.119c5.232,7.825,8.52,16.61,8.52,24.27
			c0,6.54-2.391,11.141-6.346,13.452l-19.259,11.119C188.463,158.301,190.853,153.701,190.853,147.161z"></path>
		<g>
			<path fill="none" stroke="#B3B3B3" stroke-width="0.5" stroke-miterlimit="10" d="M184.508,160.613
				c3.955-2.312,6.346-6.912,6.346-13.452c0-7.66-3.289-16.445-8.52-24.27"></path>
			<path fill="none" stroke="#B3B3B3" stroke-width="0.5" stroke-miterlimit="10" d="M187.259,159.025
				c3.955-2.312,6.346-6.912,6.346-13.452c0-7.66-3.289-16.445-8.52-24.27"></path>
			<path fill="none" stroke="#B3B3B3" stroke-width="0.5" stroke-miterlimit="10" d="M190.01,157.436
				c3.955-2.312,6.346-6.912,6.346-13.452c0-7.66-3.289-16.445-8.52-24.27"></path>
			<path fill="none" stroke="#B3B3B3" stroke-width="0.5" stroke-miterlimit="10" d="M192.761,155.848
				c3.955-2.312,6.346-6.912,6.346-13.452c0-7.66-3.289-16.445-8.52-24.27"></path>
			<path fill="none" stroke="#B3B3B3" stroke-width="0.5" stroke-miterlimit="10" d="M195.513,154.259
				c3.955-2.312,6.346-6.912,6.346-13.452c0-7.66-3.289-16.445-8.52-24.27"></path>
			<path fill="none" stroke="#B3B3B3" stroke-width="0.5" stroke-miterlimit="10" d="M198.264,152.671
				c3.955-2.312,6.346-6.912,6.346-13.452c0-7.66-3.289-16.445-8.52-24.27"></path>
			<path fill="none" stroke="#B3B3B3" stroke-width="0.5" stroke-miterlimit="10" d="M201.015,151.082
				c3.955-2.312,6.346-6.912,6.346-13.452c0-7.66-3.289-16.445-8.52-24.27"></path>
			<path fill="none" stroke="#B3B3B3" stroke-width="0.5" stroke-miterlimit="10" d="M203.767,149.494
				c3.955-2.312,6.346-6.912,6.346-13.452c0-7.66-3.289-16.445-8.52-24.27"></path>
		</g>
	</g>
	<path fill="#4091C2" d="M303.141,49.517v-9.958c0-2.586-1.4-4.687-3.359-5.818L258.363,9.829c-1.972-1.178-4.534-1.364-6.807-0.052
		l-74.393,42.951c-1.782,1.029-2.879,2.93-2.879,4.987v18.27l41.507,23.964L303.141,49.517z"></path>
	<path fill="#64A9D4" d="M303.141,49.517v-9.958c0-2.586-1.4-4.687-3.359-5.818s-4.479-1.293-6.718,0L218.67,76.691
		c-1.782,1.029-2.879,2.93-2.879,4.987v18.27"></path>
	<path fill="#808080" stroke="#000000" stroke-miterlimit="10" d="M283.018,29.601c0,9.448-13.883,17.108-31.008,17.108
		s-31.008-7.659-31.008-17.108V17.608c0-9.448,13.883-17.108,31.008-17.108s31.008,7.659,31.008,17.108L283.018,29.601z"></path>
	<g>
		<line fill="none" stroke="#4D4D4D" stroke-miterlimit="10" x1="223.026" y1="16.304" x2="223.026" y2="34.992"></line>
		<line fill="none" stroke="#4D4D4D" stroke-miterlimit="10" x1="226.666" y1="19.183" x2="226.666" y2="37.871"></line>
		<line fill="none" stroke="#4D4D4D" stroke-miterlimit="10" x1="230.306" y1="22.062" x2="230.306" y2="40.751"></line>
		<line fill="none" stroke="#4D4D4D" stroke-miterlimit="10" x1="233.946" y1="24.462" x2="233.946" y2="43.15"></line>
		<line fill="none" stroke="#4D4D4D" stroke-miterlimit="10" x1="237.585" y1="25.182" x2="237.585" y2="43.87"></line>
		<line fill="none" stroke="#4D4D4D" stroke-miterlimit="10" x1="241.225" y1="26.141" x2="241.225" y2="44.83"></line>
		<line fill="none" stroke="#4D4D4D" stroke-miterlimit="10" x1="244.865" y1="26.621" x2="244.865" y2="45.309"></line>
		<line fill="none" stroke="#4D4D4D" stroke-miterlimit="10" x1="248.505" y1="27.101" x2="248.505" y2="45.789"></line>
		<line fill="none" stroke="#4D4D4D" stroke-miterlimit="10" x1="252.145" y1="27.581" x2="252.145" y2="46.269"></line>
		<line fill="none" stroke="#4D4D4D" stroke-miterlimit="10" x1="255.785" y1="27.101" x2="255.785" y2="45.789"></line>
		<line fill="none" stroke="#4D4D4D" stroke-miterlimit="10" x1="259.424" y1="26.621" x2="259.424" y2="45.309"></line>
		<line fill="none" stroke="#4D4D4D" stroke-miterlimit="10" x1="263.064" y1="26.141" x2="263.064" y2="44.83"></line>
		<line fill="none" stroke="#4D4D4D" stroke-miterlimit="10" x1="266.704" y1="25.182" x2="266.704" y2="43.87"></line>
		<line fill="none" stroke="#4D4D4D" stroke-miterlimit="10" x1="270.344" y1="24.462" x2="270.344" y2="43.15"></line>
		<line fill="none" stroke="#4D4D4D" stroke-miterlimit="10" x1="273.984" y1="22.062" x2="273.984" y2="40.751"></line>
		<line fill="none" stroke="#4D4D4D" stroke-miterlimit="10" x1="277.624" y1="19.183" x2="277.624" y2="37.871"></line>
		<line fill="none" stroke="#4D4D4D" stroke-miterlimit="10" x1="281.263" y1="16.304" x2="281.263" y2="34.992"></line>
	</g>
	<ellipse fill="#CCCCCC" cx="252.01" cy="17.608" rx="31.008" ry="17.108"></ellipse>
	<ellipse fill="#E6E6E6" cx="252.01" cy="17.608" rx="22.844" ry="12.604"></ellipse>
	<ellipse fill="#CCCCCC" cx="252.01" cy="17.608" rx="13.19" ry="7.277"></ellipse>
	<path fill="#F5E97D" d="M300.828,110.605v12.513c0,2.715-3.99,4.916-8.911,4.916c-4.921,0-8.911-2.201-8.911-4.916v-12.513"></path>
	<ellipse fill="#F7F9C7" cx="291.917" cy="110.605" rx="8.911" ry="4.916"></ellipse>
	<path fill="#CCCCCC" d="M219.064,37.55v12.513c0,2.715-3.99,4.916-8.911,4.916c-4.921,0-8.911-2.201-8.911-4.916V37.55"></path>
	<ellipse fill="#808080" cx="210.153" cy="39.949" rx="8.911" ry="4.916"></ellipse>
	<ellipse fill="#CCCCCC" cx="210.153" cy="36.35" rx="11.899" ry="6.565"></ellipse>
	<ellipse fill="#E6E6E6" cx="210.153" cy="33.942" rx="10.741" ry="5.926"></ellipse>
	<path fill="#F2F2F2" d="M213.214,26.549c0-0.933-1.37-1.689-3.061-1.689c-1.69,0-3.061,0.756-3.061,1.689v6.993
		c0,0.933,1.37,1.689,3.061,1.689c1.69,0,3.061-0.756,3.061-1.689V26.549z"></path>
	<ellipse fill="#E6E6E6" cx="280.355" cy="124.051" rx="2.56" ry="1.412"></ellipse>
	
		<line fill="none" stroke="#999999" stroke-width="5" stroke-linecap="round" stroke-linejoin="round" stroke-miterlimit="10" x1="285.836" y1="123.19" x2="272.526" y2="130.875"></line>
	
		<line fill="none" stroke="#E6E6E6" stroke-linecap="round" stroke-linejoin="round" stroke-miterlimit="10" x1="285.836" y1="121.751" x2="272.526" y2="129.435"></line>
	<g>
		<path fill="#306D91" d="M271.29,144.187l6.913-3.995c2.374-1.643,3.93-4.383,3.93-7.488c0-5.027-4.075-9.102-9.102-9.102
			c-1.933,0-3.723,0.604-5.197,1.631l-6.918,3.988l-12.512,7.227l-6.913,3.995c-2.374,1.643-3.93,4.383-3.93,7.488
			c0,5.027,4.075,9.102,9.102,9.102c1.933,0,3.723-0.604,5.197-1.631l6.918-3.988L271.29,144.187z"></path>
		<path fill="none" stroke="#255470" stroke-miterlimit="10" d="M251.86,155.402c1.033-0.604,1.657-1.805,1.657-3.512
			c0-3.787-3.07-8.632-6.857-10.821c-2.065-1.194-3.917-1.351-5.174-0.634"></path>
		<path fill="none" stroke="#255470" stroke-miterlimit="10" d="M278.208,140.199c1.033-0.604,1.657-1.805,1.657-3.512
			c0-3.787-3.07-8.632-6.857-10.821c-2.065-1.194-3.917-1.351-5.174-0.634"></path>
	</g>
	
		<line fill="none" stroke="#999999" stroke-width="5" stroke-linecap="round" stroke-linejoin="round" stroke-miterlimit="10" x1="242.068" y1="150.557" x2="172.076" y2="190.967"></line>
	
		<line fill="none" stroke="#E6E6E6" stroke-linecap="round" stroke-linejoin="round" stroke-miterlimit="10" x1="242.068" y1="149.357" x2="172.076" y2="189.767"></line>
	<g>
		<path fill="#306D91" d="M180.601,196.53l6.913-3.995c2.374-1.643,3.93-4.383,3.93-7.488c0-5.027-4.075-9.102-9.102-9.102
			c-1.933,0-3.723,0.604-5.197,1.631l-6.918,3.988l-12.512,7.227l-6.913,3.995c-2.374,1.643-3.93,4.383-3.93,7.488
			c0,5.027,4.075,9.102,9.102,9.102c1.933,0,3.723-0.604,5.197-1.631l6.918-3.988L180.601,196.53z"></path>
		<path fill="none" stroke="#255470" stroke-miterlimit="10" d="M161.172,207.745c1.033-0.604,1.657-1.805,1.657-3.512
			c0-3.787-3.07-8.632-6.857-10.821c-2.065-1.194-3.917-1.351-5.174-0.634"></path>
		<path fill="none" stroke="#255470" stroke-miterlimit="10" d="M187.519,192.543c1.033-0.604,1.657-1.805,1.657-3.512
			c0-3.787-3.07-8.632-6.857-10.821c-2.065-1.194-3.917-1.351-5.174-0.634"></path>
	</g>
	
		<line fill="none" stroke="#999999" stroke-width="5" stroke-linecap="round" stroke-linejoin="round" stroke-miterlimit="10" x1="151.507" y1="202.71" x2="139.147" y2="209.846"></line>
	
		<line fill="none" stroke="#CCCCCC" stroke-linecap="round" stroke-linejoin="round" stroke-miterlimit="10" x1="151.027" y1="201.99" x2="138.667" y2="209.126"></line>
	<path fill="#4091C2" d="M126.982,218.107c0,2.715,3.99,4.916,8.911,4.916c4.921,0,8.911-2.201,8.911-4.916v-9.715
		c0-2.715-3.99-4.916-8.911-4.916c-4.921,0-8.911,2.201-8.911,4.916V218.107z"></path>
	<ellipse fill="#64A9D4" cx="135.893" cy="208.392" rx="8.911" ry="4.916"></ellipse>
	<g>
		<g>
			<path fill="#4091C2" d="M90.205,131.779c-3.412-1.948-8.439-1.52-14.044,1.72c-10.28,5.942-18.613,19.092-18.613,29.371
				c0,4.635,1.694,7.895,4.497,9.533l4.484,2.589c3.412,1.948,8.439,1.52,14.044-1.72c10.28-5.942,18.613-19.092,18.613-29.371
				c0-4.635-1.694-7.895-4.497-9.533L90.205,131.779z"></path>
			<path fill="#377CA6" d="M66.529,174.992c-2.803-1.638-4.497-4.898-4.497-9.533c0-10.28,8.333-23.43,18.613-29.371
				c5.605-3.24,10.632-3.667,14.044-1.72c2.803,1.638,4.497,4.898,4.497,9.533c0,10.28-8.333,23.43-18.613,29.371
				C74.968,176.512,69.941,176.94,66.529,174.992z"></path>
			<path fill="#A2D3F2" d="M94.689,134.368c-3.412-1.948-8.439-1.52-14.044,1.72l-4.484-2.589c5.605-3.24,10.632-3.667,14.044-1.72
				L94.689,134.368z"></path>
		</g>
		<path fill="#4091C2" d="M136.975,123.906c2.735-1.561,6.764-1.218,11.257,1.378c8.24,4.762,14.919,15.303,14.919,23.542
			c0,3.715-1.358,6.328-3.604,7.641l-78.73,45.455c-2.735,1.561-6.764,1.218-11.257-1.378c-8.24-4.762-14.919-15.303-14.919-23.542
			c0-3.715,1.358-6.328,3.604-7.641l40.943-23.638L136.975,123.906z"></path>
		<path fill="#64A9D4" d="M152.595,128.457c3.174,2.804,5.89,6.379,7.776,10.109l-97.636,56.37
			c-2.912-3.186-5.257-6.972-6.659-10.753L152.595,128.457z"></path>
		<path fill="#4091C2" d="M122.069,201.171c-2.223-1.299-3.566-3.884-3.566-7.56c0-8.152,6.608-18.579,14.76-23.291
			c4.445-2.569,8.431-2.908,11.137-1.364l-52.625-30.383c-2.706-1.545-6.692-1.205-11.137,1.364
			c-8.152,4.712-14.76,15.139-14.76,23.291c0,3.675,1.343,6.261,3.566,7.56L122.069,201.171z"></path>
		<path fill="#64A9D4" d="M133.263,170.32c4.445-2.569,8.431-2.908,11.137-1.364l-52.625-30.383
			c-2.706-1.545-6.692-1.205-11.137,1.364L133.263,170.32z"></path>
		<g>
			<path fill="#64A9D4" d="M142.83,162.162c-3.412-1.948-8.439-1.52-14.044,1.72c-10.28,5.942-18.613,19.092-18.613,29.371
				c0,4.635,1.694,7.895,4.497,9.533l4.484,2.589c3.412,1.948,8.439,1.52,14.044-1.72c10.28-5.942,18.613-19.092,18.613-29.371
				c0-4.635-1.694-7.895-4.497-9.533L142.83,162.162z"></path>
			<path fill="#377CA6" d="M119.154,205.375c-2.803-1.638-4.497-4.898-4.497-9.533c0-10.28,8.333-23.43,18.613-29.371
				c5.605-3.24,10.632-3.667,14.044-1.72c2.803,1.638,4.497,4.898,4.497,9.533c0,10.28-8.333,23.43-18.613,29.371
				C127.593,206.896,122.566,207.323,119.154,205.375z"></path>
			<path fill="#4091C2" d="M114.657,195.842c0,4.635,1.694,7.895,4.497,9.533l-4.484-2.589c-2.803-1.638-4.497-4.898-4.497-9.533
				L114.657,195.842z"></path>
			<path fill="#A2D3F2" d="M147.314,164.751c-3.412-1.948-8.439-1.52-14.044,1.72l-4.484-2.589c5.605-3.24,10.632-3.667,14.044-1.72
				L147.314,164.751z"></path>
		</g>
		<g>
			<g>
				<polygon fill="#4091C2" points="123.424,179.115 122.484,178.034 123.424,175.86 125.303,174.768 126.27,175.32 127.21,176.402 
					126.27,178.576 124.391,179.668 				"></polygon>
				<polygon fill="#306D91" points="126.27,175.32 127.21,176.402 126.27,178.576 124.391,179.668 123.451,178.586 124.391,176.413 
									"></polygon>
				<polygon fill="#64A9D4" points="126.27,175.32 124.391,176.413 123.424,175.86 125.303,174.768 				"></polygon>
			</g>
		</g>
		<g>
			<g>
				<polygon fill="#4091C2" points="132.641,170.858 131.701,169.776 132.641,167.603 134.521,166.511 135.487,167.063 
					136.427,168.145 135.487,170.318 133.608,171.41 				"></polygon>
				<polygon fill="#306D91" points="135.487,167.063 136.427,168.145 135.487,170.318 133.608,171.41 132.668,170.329 
					133.608,168.155 				"></polygon>
				<polygon fill="#64A9D4" points="135.487,167.063 133.608,168.155 132.641,167.603 134.521,166.511 				"></polygon>
			</g>
		</g>
		<g>
			<g>
				<polygon fill="#4091C2" points="143.026,168.694 142.087,167.612 143.026,165.439 144.906,164.347 145.873,164.899 
					146.812,165.981 145.873,168.154 143.993,169.246 				"></polygon>
				<polygon fill="#306D91" points="145.873,164.899 146.812,165.981 145.873,168.154 143.993,169.246 143.053,168.165 
					143.993,165.991 				"></polygon>
				<polygon fill="#64A9D4" points="145.873,164.899 143.993,165.991 143.026,165.439 144.906,164.347 				"></polygon>
			</g>
		</g>
		<g>
			<g>
				<polygon fill="#4091C2" points="148.083,173.864 147.144,172.782 148.083,170.609 149.963,169.517 150.929,170.069 
					151.869,171.151 150.929,173.324 149.05,174.416 				"></polygon>
				<polygon fill="#306D91" points="150.929,170.069 151.869,171.151 150.929,173.324 149.05,174.416 148.11,173.335 
					149.05,171.161 				"></polygon>
				<polygon fill="#64A9D4" points="150.929,170.069 149.05,171.161 148.083,170.609 149.963,169.517 				"></polygon>
			</g>
		</g>
		<g>
			<g>
				<polygon fill="#4091C2" points="147.499,183.049 146.56,181.968 147.499,179.794 149.379,178.702 150.345,179.255 
					151.285,180.336 150.345,182.51 148.466,183.602 				"></polygon>
				<polygon fill="#306D91" points="150.345,179.255 151.285,180.336 150.345,182.51 148.466,183.602 147.526,182.52 
					148.466,180.347 				"></polygon>
				<polygon fill="#64A9D4" points="150.345,179.255 148.466,180.347 147.499,179.794 149.379,178.702 				"></polygon>
			</g>
		</g>
		<g>
			<g>
				<polygon fill="#4091C2" points="142.399,194.018 141.46,192.936 142.399,190.763 144.279,189.671 145.245,190.223 
					146.185,191.305 145.245,193.478 143.366,194.57 				"></polygon>
				<polygon fill="#306D91" points="145.245,190.223 146.185,191.305 145.245,193.478 143.366,194.57 142.426,193.489 
					143.366,191.315 				"></polygon>
				<polygon fill="#64A9D4" points="145.245,190.223 143.366,191.315 142.399,190.763 144.279,189.671 				"></polygon>
			</g>
		</g>
		<g>
			<g>
				<polygon fill="#4091C2" points="133.354,202.515 132.414,201.434 133.354,199.26 135.233,198.168 136.2,198.721 137.14,199.802 
					136.2,201.976 134.321,203.068 				"></polygon>
				<polygon fill="#306D91" points="136.2,198.721 137.14,199.802 136.2,201.976 134.321,203.068 133.381,201.986 134.321,199.813 
									"></polygon>
				<polygon fill="#64A9D4" points="136.2,198.721 134.321,199.813 133.354,199.26 135.233,198.168 				"></polygon>
			</g>
		</g>
		<g>
			<g>
				<polygon fill="#4091C2" points="121.244,205.911 120.304,204.829 121.244,202.656 123.123,201.564 124.09,202.116 
					125.03,203.197 124.09,205.371 122.211,206.463 				"></polygon>
				<polygon fill="#306D91" points="124.09,202.116 125.03,203.197 124.09,205.371 122.211,206.463 121.271,205.382 
					122.211,203.208 				"></polygon>
				<polygon fill="#64A9D4" points="124.09,202.116 122.211,203.208 121.244,202.656 123.123,201.564 				"></polygon>
			</g>
		</g>
		<g>
			<g>
				<polygon fill="#4091C2" points="115.919,198.759 114.98,197.677 115.919,195.504 117.799,194.411 118.765,194.964 
					119.705,196.045 118.765,198.219 116.886,199.311 				"></polygon>
				<polygon fill="#306D91" points="118.765,194.964 119.705,196.045 118.765,198.219 116.886,199.311 115.946,198.23 
					116.886,196.056 				"></polygon>
				<polygon fill="#64A9D4" points="118.765,194.964 116.886,196.056 115.919,195.504 117.799,194.411 				"></polygon>
			</g>
		</g>
		<g>
			<g>
				<polygon fill="#4091C2" points="117.542,188.514 116.602,187.433 117.542,185.259 119.421,184.167 120.388,184.719 
					121.328,185.801 120.388,187.975 118.509,189.067 				"></polygon>
				<polygon fill="#306D91" points="120.388,184.719 121.328,185.801 120.388,187.975 118.509,189.067 117.569,187.985 
					118.509,185.812 				"></polygon>
				<polygon fill="#64A9D4" points="120.388,184.719 118.509,185.812 117.542,185.259 119.421,184.167 				"></polygon>
			</g>
		</g>
		<polygon fill="#4091C2" points="99.472,146.215 80.214,135.097 60.195,146.655 60.195,209.101 79.453,220.22 99.472,208.662 		"></polygon>
		<polygon fill="#306D91" points="60.195,146.655 79.453,157.773 79.453,220.22 60.195,209.101 		"></polygon>
		<polygon fill="#64A9D4" points="60.195,146.655 79.453,157.773 99.472,146.215 80.214,135.097 		"></polygon>
		<path fill="#306D91" d="M80.817,201.922c2.246-1.313,3.604-3.926,3.604-7.641c0-8.24-6.679-18.78-14.919-23.542
			c-4.493-2.597-8.522-2.94-11.257-1.378c-2.246,1.313-3.604,3.926-3.604,7.641c0,8.24,6.679,18.78,14.919,23.542
			C74.052,203.141,78.081,203.483,80.817,201.922z"></path>
		<path fill="#255470" d="M58.245,179.093c0,6.245,5.063,14.234,11.308,17.844c3.405,1.968,6.459,2.228,8.532,1.045
			c1.703-0.995,2.732-2.976,2.732-5.791c0-6.245-5.063-14.234-11.308-17.843c-3.405-1.968-6.459-2.228-8.532-1.045
			C59.274,174.297,58.245,176.277,58.245,179.093z M60.977,180.678c0-2.134,0.78-3.635,2.071-4.39
			c1.571-0.897,3.886-0.7,6.467,0.792c4.733,2.736,8.57,8.791,8.57,13.524c0,2.134-0.78,3.635-2.071,4.39
			c-1.571,0.897-3.886,0.7-6.467-0.792C64.814,191.466,60.977,185.411,60.977,180.678z"></path>
		<g>
			<path fill="#377CA6" d="M99.472,191.017c0.385-0.136,0.751-0.301,1.095-0.498c2.246-1.313,3.604-3.926,3.604-7.641
				c0-4.28-1.812-9.176-4.7-13.566l-20.019,11.005c3.042,4.49,4.968,9.554,4.968,13.964c0,3.715-1.358,6.328-3.604,7.641
				c-0.422,0.241-0.883,0.42-1.363,0.568L99.472,191.017z"></path>
			<path fill="#64A9D4" d="M104.172,182.878c0-4.28-1.812-9.176-4.7-13.566l-20.019,11.005c3.042,4.49,4.968,9.554,4.968,13.964
				L104.172,182.878z"></path>
		</g>
	</g>
	<g>
		<path fill="#4091C2" d="M142.574,123.335c0-3.825-5.621-6.927-12.554-6.927s-12.554,3.101-12.554,6.927v14.443
			c0,3.825,5.621,6.927,12.554,6.927s12.554-3.101,12.554-6.927V123.335z"></path>
		<ellipse fill="#64A9D4" cx="130.02" cy="123.335" rx="12.554" ry="6.927"></ellipse>
	</g>
	<g>
		<path fill="#4091C2" d="M57.205,208.552c0,0.136-0.034,0.277-0.098,0.411c-0.411,0.84-1.922,1.386-3.451,1.246
			c-0.982-0.083-1.74-0.448-2.028-0.959c-0.072-0.137-0.114-0.283-0.114-0.435v-0.441c0-0.135,0.034-0.273,0.101-0.411
			c0.398-0.823,1.944-1.383,3.447-1.246c0.983,0.088,1.741,0.448,2.024,0.96c0.081,0.14,0.119,0.291,0.119,0.435V208.552z"></path>
		<path fill="#4091C2" d="M55.062,206.717c0.983,0.088,1.741,0.448,2.024,0.96c0.081,0.14,0.119,0.291,0.119,0.435
			c0,0.14-0.034,0.277-0.098,0.415c-0.411,0.836-1.922,1.386-3.451,1.25c-0.982-0.091-1.74-0.456-2.028-0.964
			c-0.072-0.145-0.114-0.283-0.114-0.44c0-0.135,0.034-0.273,0.101-0.411C52.013,207.141,53.559,206.581,55.062,206.717z"></path>
		<polygon fill="#377CA6" stroke="#306D91" stroke-width="0.143" points="56.888,206.852 55.541,205.806 52.996,205.966 
			51.806,207.171 51.806,208.336 53.157,209.385 55.702,209.221 56.888,208.021 		"></polygon>
		<polygon fill="#A2D3F2" points="53.157,208.216 55.702,208.057 56.888,206.852 55.541,205.806 52.996,205.966 51.806,207.171 		
			"></polygon>
		<polyline fill="#FFFFFF" points="51.806,207.171 53.157,208.216 55.702,208.057 		"></polyline>
	</g>
	<g>
		<path fill="#4091C2" d="M82.139,222.881c0,0.136-0.034,0.277-0.098,0.411c-0.411,0.84-1.922,1.386-3.451,1.246
			c-0.982-0.083-1.74-0.448-2.028-0.959c-0.072-0.137-0.114-0.283-0.114-0.435v-0.441c0-0.135,0.034-0.273,0.101-0.411
			c0.398-0.823,1.944-1.383,3.447-1.246c0.983,0.088,1.741,0.448,2.024,0.96c0.081,0.14,0.119,0.291,0.119,0.435V222.881z"></path>
		<path fill="#4091C2" d="M79.996,221.046c0.983,0.088,1.741,0.448,2.024,0.96c0.081,0.14,0.119,0.291,0.119,0.435
			c0,0.14-0.034,0.277-0.098,0.415c-0.411,0.836-1.922,1.386-3.451,1.25c-0.982-0.091-1.74-0.456-2.028-0.964
			c-0.072-0.145-0.114-0.283-0.114-0.44c0-0.135,0.034-0.273,0.101-0.411C76.947,221.47,78.493,220.909,79.996,221.046z"></path>
		<polygon fill="#377CA6" stroke="#306D91" stroke-width="0.143" points="81.821,221.18 80.475,220.135 77.93,220.295 76.74,221.5 
			76.74,222.665 78.09,223.714 80.635,223.55 81.821,222.349 		"></polygon>
		<polygon fill="#A2D3F2" points="78.09,222.545 80.635,222.385 81.821,221.18 80.475,220.135 77.93,220.295 76.74,221.5 		"></polygon>
		<polyline fill="#FFFFFF" points="76.74,221.5 78.09,222.545 80.635,222.385 		"></polyline>
	</g>
	<g>
		<polygon fill="#B3B3B3" points="294.034,128.817 292.688,127.771 290.143,127.932 288.953,129.136 288.953,130.301 
			290.303,131.35 292.849,131.186 294.034,129.986 		"></polygon>
		<polygon fill="#CCCCCC" points="290.303,130.182 292.849,130.022 294.034,128.817 292.688,127.771 290.143,127.932 
			288.953,129.136 		"></polygon>
		<polyline fill="#FFFFFF" points="288.953,129.136 290.303,130.182 292.849,130.022 		"></polyline>
	</g>
	<g>
		<polygon fill="#B3B3B3" points="306.941,121.904 305.595,120.859 303.05,121.019 301.86,122.224 301.86,123.388 303.21,124.437 
			305.755,124.273 306.941,123.073 		"></polygon>
		<polygon fill="#CCCCCC" points="303.21,123.269 305.755,123.109 306.941,121.904 305.595,120.859 303.05,121.019 301.86,122.224 
					"></polygon>
		<polyline fill="#FFFFFF" points="301.86,122.224 303.21,123.269 305.755,123.109 		"></polyline>
	</g>
	<g>
		<path fill="#4091C2" d="M103.652,212.016c0,0.136-0.034,0.277-0.098,0.411c-0.411,0.84-1.922,1.386-3.451,1.246
			c-0.982-0.083-1.74-0.448-2.028-0.959c-0.072-0.137-0.114-0.283-0.114-0.435v-0.441c0-0.135,0.034-0.273,0.101-0.411
			c0.398-0.823,1.944-1.383,3.447-1.246c0.983,0.088,1.741,0.448,2.024,0.96c0.081,0.14,0.119,0.291,0.119,0.435V212.016z"></path>
		<path fill="#4091C2" d="M101.509,210.181c0.983,0.088,1.741,0.448,2.024,0.96c0.081,0.14,0.119,0.291,0.119,0.435
			c0,0.14-0.034,0.277-0.098,0.415c-0.411,0.836-1.922,1.386-3.451,1.25c-0.982-0.091-1.74-0.456-2.028-0.964
			c-0.072-0.145-0.114-0.283-0.114-0.44c0-0.135,0.034-0.273,0.101-0.411C98.46,210.604,100.006,210.044,101.509,210.181z"></path>
		<polygon fill="#377CA6" stroke="#306D91" stroke-width="0.143" points="103.334,210.315 101.988,209.27 99.443,209.43 
			98.253,210.635 98.253,211.8 99.604,212.849 102.149,212.685 103.334,211.484 		"></polygon>
		<polygon fill="#A2D3F2" points="99.604,211.68 102.149,211.52 103.334,210.315 101.988,209.27 99.443,209.43 98.253,210.635 		"></polygon>
		<polyline fill="#FFFFFF" points="98.253,210.635 99.604,211.68 102.149,211.52 		"></polyline>
	</g>
	<polyline fill="none" stroke="#F2F2F2" stroke-width="3" stroke-linecap="round" stroke-linejoin="round" points="189.928,44.993 
		196.459,48.763 202.989,44.993 	"></polyline>
</g>
</svg>