<!--?xml version="1.0" encoding="utf-8"?--><svg style="display:block;width:100%;height:100%;" version="1.1" id="Layer_1" xmlns="http://www.w3.org/2000/svg" xmlns:xlink="http://www.w3.org/1999/xlink" viewBox="0 0 100 100" xml:space="preserve">
<g>
	<g>
		<g>
			
				<linearGradient id="SVGID_1_gasturbineengine" gradientUnits="userSpaceOnUse" x1="403.8465" y1="66.8019" x2="403.8465" y2="35.4296" gradientTransform="matrix(-1 0 0 1 494.0179 0)">
				<stop offset="0" style="stop-color:#035DC4"></stop>
				<stop offset="0.8556" style="stop-color:#A7D1E2"></stop>
				<stop offset="0.9893" style="stop-color:#29ABE2"></stop>
			</linearGradient>
			<path fill="url(#SVGID_1_gasturbineengine)" d="M94.277,67.197c3.163,0,5.727-7.199,5.727-16.079s-2.564-16.079-5.727-16.079h-9.141
				c-2.65,0-4.798,7.199-4.798,16.079s2.148,16.079,4.798,16.079H94.277z"></path>
			
				<linearGradient id="SVGID_2_gasturbineengine" gradientUnits="userSpaceOnUse" x1="407.3581" y1="68.263" x2="414.4347" y2="36.4182" gradientTransform="matrix(-1 0 0 1 494.0179 0)">
				<stop offset="0" style="stop-color:#035DC4"></stop>
				<stop offset="0.8556" style="stop-color:#A7D1E2"></stop>
				<stop offset="0.9893" style="stop-color:#29ABE2"></stop>
			</linearGradient>
			<path fill="url(#SVGID_2_gasturbineengine)" d="M84.763,35.087c0.123-0.032,0.247-0.048,0.373-0.048c2.65,0,4.798,7.199,4.798,16.079
				s-2.148,16.079-4.798,16.079c-0.11,0-0.22-0.013-0.329-0.037c0,0-4.721-1.111-4.796-1.131c-2.459-0.644-4.391-7.074-4.391-14.911
				c0-7.748,1.888-14.121,4.307-14.887L84.763,35.087z"></path>
			
				<linearGradient id="SVGID_3_gasturbineengine" gradientUnits="userSpaceOnUse" x1="415.575" y1="65.7141" x2="415.575" y2="36.5177" gradientTransform="matrix(-1 0 0 1 494.0179 0)">
				<stop offset="0" style="stop-color:#035DC4"></stop>
				<stop offset="0.8556" style="stop-color:#A7D1E2"></stop>
				<stop offset="0.9893" style="stop-color:#29ABE2"></stop>
			</linearGradient>
			<path fill="url(#SVGID_3_gasturbineengine)" d="M80.419,66.082c2.65,0,4.798-6.7,4.798-14.964s-2.148-14.964-4.798-14.964h-4.644
				c-2.267,0-4.106,6.7-4.106,14.964s1.838,14.964,4.106,14.964H80.419z"></path>
			
				<linearGradient id="SVGID_4_gasturbineengine" gradientUnits="userSpaceOnUse" x1="416.3668" y1="66.9241" x2="423.8304" y2="38.3412" gradientTransform="matrix(-1 0 0 1 494.0179 0)">
				<stop offset="0" style="stop-color:#035DC4"></stop>
				<stop offset="0.8556" style="stop-color:#A7D1E2"></stop>
				<stop offset="0.9893" style="stop-color:#29ABE2"></stop>
			</linearGradient>
			<path fill="url(#SVGID_4_gasturbineengine)" d="M75.373,36.225c0.132-0.047,0.266-0.071,0.402-0.071c2.267,0,4.106,6.7,4.106,14.964
				s-1.838,14.964-4.106,14.964c-0.144,0-0.287-0.027-0.427-0.08l-5.115-1.711c-1.824-0.71-3.245-6.337-3.245-13.173
				c0-6.938,1.463-12.631,3.327-13.202L75.373,36.225z"></path>
			<polyline fill="none" stroke="#4781C4" stroke-width="0.8846" stroke-linecap="round" stroke-miterlimit="10" points="
				74.691,55.688 78.93,56.499 84.274,56.389 88.365,57.531 			"></polyline>
			<path fill="none" stroke="#C4FFFF" stroke-width="0.4423" stroke-miterlimit="10" d="M85.136,35.039
				c2.65,0,4.798,7.199,4.798,16.079"></path>
			<path fill="none" stroke="#C4FFFF" stroke-width="0.4423" stroke-miterlimit="10" d="M75.775,36.154
				c2.267,0,4.106,6.7,4.106,14.964"></path>
		</g>
		
			<linearGradient id="SVGID_5_gasturbineengine" gradientUnits="userSpaceOnUse" x1="425.8642" y1="64.0409" x2="425.8642" y2="38.1914" gradientTransform="matrix(-1 0 0 1 494.0179 0)">
			<stop offset="0" style="stop-color:#808080"></stop>
			<stop offset="0.7701" style="stop-color:#FFFFFF"></stop>
			<stop offset="1" style="stop-color:#CCCCCC"></stop>
		</linearGradient>
		<path fill="url(#SVGID_5_gasturbineengine)" d="M70.623,64.367c2.008,0,3.635-5.932,3.635-13.249s-1.627-13.249-3.635-13.249h-4.939
			c-2.008,0-3.635,5.932-3.635,13.249s1.627,13.249,3.635,13.249H70.623z"></path>
		
			<linearGradient id="SVGID_6_gasturbineengine" gradientUnits="userSpaceOnUse" x1="432.3142" y1="68.6621" x2="432.3142" y2="33.5689" gradientTransform="matrix(-1 0 0 1 494.0179 0)">
			<stop offset="0" style="stop-color:#5C393A"></stop>
			<stop offset="1" style="stop-color:#C18184"></stop>
		</linearGradient>
		<path fill="url(#SVGID_6_gasturbineengine)" d="M59.595,33.407c-0.267-0.181-0.542-0.276-0.822-0.276c-2.588,0-4.685,8.053-4.685,17.986
			s2.098,17.986,4.685,17.986c0.297,0,0.587-0.106,0.869-0.309l6.863-4.768c1.612-1.356,2.814-6.621,2.814-12.909
			c0-6.393-1.243-11.729-2.895-12.974L59.595,33.407z"></path>
		
			<linearGradient id="SVGID_7_gasturbineengine" gradientUnits="userSpaceOnUse" x1="444.256" y1="68.6621" x2="444.256" y2="33.5689" gradientTransform="matrix(-1 0 0 1 494.0179 0)">
			<stop offset="0" style="stop-color:#5C393A"></stop>
			<stop offset="1" style="stop-color:#C18184"></stop>
		</linearGradient>
		<path fill="url(#SVGID_7_gasturbineengine)" d="M58.773,69.104c2.588,0,4.685-8.053,4.685-17.986s-2.098-17.986-4.685-17.986H39.493
			c-1.893,0-3.428,8.053-3.428,17.986s1.535,17.986,3.428,17.986H58.773z"></path>
		
			<linearGradient id="SVGID_8_gasturbineengine" gradientUnits="userSpaceOnUse" x1="456.8474" y1="68.6621" x2="456.8474" y2="33.5689" gradientTransform="matrix(-1 0 0 1 494.0179 0)">
			<stop offset="0" style="stop-color:#5C393A"></stop>
			<stop offset="1" style="stop-color:#C18184"></stop>
		</linearGradient>
		<path fill="url(#SVGID_8_gasturbineengine)" d="M38.971,68.897c0.17,0.136,0.345,0.207,0.522,0.207c1.893,0,3.428-8.053,3.428-17.986
			s-1.535-17.986-3.428-17.986c-0.177,0-0.352,0.071-0.522,0.207c0,0-5.65,3.945-5.719,3.992c-1.028,0.71-1.831,6.611-1.831,13.787
			c0,7.163,0.8,13.057,1.826,13.783L38.971,68.897z"></path>
		<polyline fill="none" stroke="#82494A" stroke-width="1.3269" stroke-linecap="round" stroke-miterlimit="10" points="
			66.127,63.814 59.948,64.718 42.331,64.718 34.885,63.539 		"></polyline>
		<path fill="none" stroke="#ED797D" stroke-width="0.4423" stroke-miterlimit="10" d="M42.92,51.118
			c0-9.934-1.535-17.986-3.428-17.986"></path>
		
			<linearGradient id="SVGID_9_gasturbineengine" gradientUnits="userSpaceOnUse" x1="463.047" y1="64.6355" x2="463.047" y2="37.5952" gradientTransform="matrix(-1 0 0 1 494.0179 0)">
			<stop offset="0" style="stop-color:#808080"></stop>
			<stop offset="0.7701" style="stop-color:#FFFFFF"></stop>
			<stop offset="1" style="stop-color:#CCCCCC"></stop>
		</linearGradient>
		<path fill="url(#SVGID_9_gasturbineengine)" d="M33.46,64.976c1.126,0,2.039-6.205,2.039-13.858S34.586,37.26,33.46,37.26h-5.307
			c-1.133-0.105-2.036,6.021-1.597,13.858c0.428,7.642,0.715,13.858,1.597,13.858H33.46z"></path>
		
			<linearGradient id="SVGID_10_gasturbineengine" gradientUnits="userSpaceOnUse" x1="466.084" y1="37.5349" x2="470.1824" y2="65.7686" gradientTransform="matrix(-1 0 0 1 494.0179 0)">
			<stop offset="0" style="stop-color:#F0943A"></stop>
			<stop offset="0.1551" style="stop-color:#FFBB66"></stop>
			<stop offset="0.2389" style="stop-color:#F2A54C"></stop>
			<stop offset="0.3515" style="stop-color:#E48E30"></stop>
			<stop offset="0.4735" style="stop-color:#D97C1B"></stop>
			<stop offset="0.6079" style="stop-color:#D2700C"></stop>
			<stop offset="0.7643" style="stop-color:#CD6803"></stop>
			<stop offset="0.9947" style="stop-color:#CC6600"></stop>
		</linearGradient>
		<path fill="url(#SVGID_10_gasturbineengine)" d="M24.314,36.174c-0.036-0.013-0.072-0.02-0.108-0.02c-1.145,0-2.073,6.7-2.073,14.964
			s0.928,14.964,2.073,14.964c0.036,0,0.071-0.007,0.107-0.019l3.922-1.104c0.844-0.37,1.515-6.425,1.515-13.84
			c0-7.415-0.675-13.393-1.515-13.833L24.314,36.174z"></path>
		
			<linearGradient id="SVGID_11_gasturbineengine" gradientUnits="userSpaceOnUse" x1="472.0246" y1="35.96" x2="476.6686" y2="67.9522" gradientTransform="matrix(-1 0 0 1 494.0179 0)">
			<stop offset="0" style="stop-color:#F0943A"></stop>
			<stop offset="0.1551" style="stop-color:#FFBB66"></stop>
			<stop offset="0.2389" style="stop-color:#F2A54C"></stop>
			<stop offset="0.3515" style="stop-color:#E48E30"></stop>
			<stop offset="0.4735" style="stop-color:#D97C1B"></stop>
			<stop offset="0.6079" style="stop-color:#D2700C"></stop>
			<stop offset="0.7643" style="stop-color:#CD6803"></stop>
			<stop offset="0.9947" style="stop-color:#CC6600"></stop>
		</linearGradient>
		<path fill="url(#SVGID_11_gasturbineengine)" d="M24.273,36.162c1.114,0.256,2.006,6.854,2.006,14.956c0,8.055-0.882,14.623-1.986,14.951
			l-7.986,1.982c-0.048,0.014-0.097,0.021-0.146,0.021c-1.588,0-2.874-7.591-2.874-16.954s1.287-16.954,2.874-16.954
			c0.04,0,0.08,0.005,0.119,0.014L24.273,36.162z"></path>
		
			<linearGradient id="SVGID_12_gasturbineengine" gradientUnits="userSpaceOnUse" x1="484.1591" y1="35.6474" x2="484.1591" y2="68.1001" gradientTransform="matrix(-1 0 0 1 494.0179 0)">
			<stop offset="0" style="stop-color:#F0943A"></stop>
			<stop offset="0.1551" style="stop-color:#FFBB66"></stop>
			<stop offset="0.2389" style="stop-color:#F2A54C"></stop>
			<stop offset="0.3515" style="stop-color:#E48E30"></stop>
			<stop offset="0.4735" style="stop-color:#D97C1B"></stop>
			<stop offset="0.6079" style="stop-color:#D2700C"></stop>
			<stop offset="0.7643" style="stop-color:#CD6803"></stop>
			<stop offset="0.9947" style="stop-color:#CC6600"></stop>
		</linearGradient>
		<path fill="url(#SVGID_12_gasturbineengine)" d="M16.161,68.072c1.588,0,2.874-7.591,2.874-16.954s-1.287-16.954-2.874-16.954H2.008
			c-0.733,0-1.326,7.591-1.326,16.954s0.594,16.954,1.326,16.954H16.161z"></path>
		<polyline fill="none" stroke="#E87400" stroke-width="0.4423" stroke-linecap="round" stroke-miterlimit="10" points="
			28.18,63.649 18.447,65.419 1.603,65.529 		"></polyline>
		<ellipse fill="#BF7614" cx="2.008" cy="51.118" rx="1.326" ry="16.954"></ellipse>
		<path fill="none" stroke="#F8E5BA" stroke-width="0.4423" stroke-miterlimit="10" d="M3.335,51.118
			c0-9.364-0.594-16.954-1.326-16.954"></path>
		<path fill="none" stroke="#F8E5BA" stroke-width="0.4423" stroke-miterlimit="10" d="M19.036,51.118
			c0-9.364-1.287-16.954-2.874-16.954"></path>
		<g>
			<path fill="none" stroke="#000000" stroke-width="0.4423" stroke-miterlimit="10" d="M69.158,65.023
				c2.107,0,3.815-6.226,3.815-13.905s-1.708-13.905-3.815-13.905"></path>
			<g>
				
					<linearGradient id="SVGID_13_gasturbineengine" gradientUnits="userSpaceOnUse" x1="425.3032" y1="37.4807" x2="425.3032" y2="38.1436" gradientTransform="matrix(-1 0 0 1 494.0179 0)">
					<stop offset="0" style="stop-color:#FFFFFF"></stop>
					<stop offset="1" style="stop-color:#000000"></stop>
				</linearGradient>
				<rect x="66.424" y="37.481" fill="url(#SVGID_13_gasturbineengine)" width="4.582" height="0.663"></rect>
				
					<linearGradient id="SVGID_14_gasturbineengine" gradientUnits="userSpaceOnUse" x1="423.8658" y1="40.8532" x2="423.8658" y2="41.5161" gradientTransform="matrix(-1 0 0 1 494.0179 0)">
					<stop offset="0" style="stop-color:#FFFFFF"></stop>
					<stop offset="1" style="stop-color:#000000"></stop>
				</linearGradient>
				<rect x="67.861" y="40.853" fill="url(#SVGID_14_gasturbineengine)" width="4.582" height="0.663"></rect>
				
					<linearGradient id="SVGID_15_gasturbineengine" gradientUnits="userSpaceOnUse" x1="423.3129" y1="44.2256" x2="423.3129" y2="44.8885" gradientTransform="matrix(-1 0 0 1 494.0179 0)">
					<stop offset="0" style="stop-color:#FFFFFF"></stop>
					<stop offset="1" style="stop-color:#000000"></stop>
				</linearGradient>
				<rect x="68.414" y="44.226" fill="url(#SVGID_15_gasturbineengine)" width="4.582" height="0.663"></rect>
				
					<linearGradient id="SVGID_16_gasturbineengine" gradientUnits="userSpaceOnUse" x1="422.76" y1="47.5981" x2="422.76" y2="48.261" gradientTransform="matrix(-1 0 0 1 494.0179 0)">
					<stop offset="0" style="stop-color:#FFFFFF"></stop>
					<stop offset="1" style="stop-color:#000000"></stop>
				</linearGradient>
				<rect x="68.967" y="47.598" fill="url(#SVGID_16_gasturbineengine)" width="4.582" height="0.663"></rect>
				
					<linearGradient id="SVGID_17_gasturbineengine" gradientUnits="userSpaceOnUse" x1="422.76" y1="50.9705" x2="422.76" y2="51.6334" gradientTransform="matrix(-1 0 0 1 494.0179 0)">
					<stop offset="0" style="stop-color:#FFFFFF"></stop>
					<stop offset="1" style="stop-color:#000000"></stop>
				</linearGradient>
				<rect x="68.967" y="50.971" fill="url(#SVGID_17_gasturbineengine)" width="4.582" height="0.663"></rect>
				
					<linearGradient id="SVGID_18_gasturbineengine" gradientUnits="userSpaceOnUse" x1="422.76" y1="54.343" x2="422.76" y2="55.0059" gradientTransform="matrix(-1 0 0 1 494.0179 0)">
					<stop offset="0" style="stop-color:#FFFFFF"></stop>
					<stop offset="1" style="stop-color:#000000"></stop>
				</linearGradient>
				<rect x="68.967" y="54.343" fill="url(#SVGID_18_gasturbineengine)" width="4.582" height="0.663"></rect>
				
					<linearGradient id="SVGID_19_gasturbineengine" gradientUnits="userSpaceOnUse" x1="423.3129" y1="57.7154" x2="423.3129" y2="58.3783" gradientTransform="matrix(-1 0 0 1 494.0179 0)">
					<stop offset="0" style="stop-color:#FFFFFF"></stop>
					<stop offset="1" style="stop-color:#000000"></stop>
				</linearGradient>
				<rect x="68.414" y="57.715" fill="url(#SVGID_19_gasturbineengine)" width="4.582" height="0.663"></rect>
				
					<linearGradient id="SVGID_20_gasturbineengine" gradientUnits="userSpaceOnUse" x1="423.8658" y1="61.0879" x2="423.8658" y2="61.7508" gradientTransform="matrix(-1 0 0 1 494.0179 0)">
					<stop offset="0" style="stop-color:#FFFFFF"></stop>
					<stop offset="1" style="stop-color:#000000"></stop>
				</linearGradient>
				<rect x="67.861" y="61.088" fill="url(#SVGID_20_gasturbineengine)" width="4.582" height="0.663"></rect>
				
					<linearGradient id="SVGID_21_gasturbineengine" gradientUnits="userSpaceOnUse" x1="425.3032" y1="64.4603" x2="425.3032" y2="65.1232" gradientTransform="matrix(-1 0 0 1 494.0179 0)">
					<stop offset="0" style="stop-color:#FFFFFF"></stop>
					<stop offset="1" style="stop-color:#000000"></stop>
				</linearGradient>
				<rect x="66.424" y="64.46" fill="url(#SVGID_21_gasturbineengine)" width="4.582" height="0.663"></rect>
			</g>
			
				<linearGradient id="SVGID_22_gasturbineengine" gradientUnits="userSpaceOnUse" x1="422.04" y1="37.2126" x2="422.04" y2="65.0234" gradientTransform="matrix(-1 0 0 1 494.0179 0)">
				<stop offset="0" style="stop-color:#FFFFFF"></stop>
				<stop offset="1" style="stop-color:#000000"></stop>
			</linearGradient>
			<path fill="url(#SVGID_22_gasturbineengine)" d="M69.49,65.023c2.107,0,3.815-6.226,3.815-13.905s-1.708-13.905-3.815-13.905h1.161
				c2.107,0,3.815,6.226,3.815,13.905s-1.708,13.905-3.815,13.905H69.49z"></path>
			
				<linearGradient id="SVGID_23_gasturbineengine" gradientUnits="userSpaceOnUse" x1="426.6841" y1="37.2126" x2="426.6841" y2="65.0234" gradientTransform="matrix(-1 0 0 1 494.0179 0)">
				<stop offset="0" style="stop-color:#FFFFFF"></stop>
				<stop offset="1" style="stop-color:#000000"></stop>
			</linearGradient>
			<path fill="url(#SVGID_23_gasturbineengine)" d="M64.846,65.023c2.107,0,3.815-6.226,3.815-13.905s-1.708-13.905-3.815-13.905h1.161
				c2.107,0,3.815,6.226,3.815,13.905s-1.708,13.905-3.815,13.905H64.846z"></path>
		</g>
		<path d="M7.461,61.807c-0.054,0.845-0.114,1.623-0.179,2.322H5.07c0.065-0.699,0.125-1.477,0.179-2.322H7.461z"></path>
		
			<line fill="none" stroke="#B3B3B3" stroke-width="0.4423" stroke-miterlimit="10" x1="5.249" y1="61.807" x2="7.461" y2="61.807"></line>
		<circle fill="#B3B3B3" cx="6.395" cy="63.074" r="0.456"></circle>
		<path fill="none" stroke="#B3B3B3" stroke-width="0.4423" stroke-miterlimit="10" d="M6.395,63.53
			c-0.111,1.004-0.848,4.69-0.405,5.28c0.442,0.59,3.243,1.032,6.929,0.885s22.366-3.746,26.052-0.797"></path>
		<path fill="none" stroke="#B3B3B3" stroke-width="1.3269" stroke-miterlimit="10" d="M69.679,38.881l0.295-3.649
			c0,0-1.474-2.654-3.833-2.654l-0.627,4.386"></path>
		<path fill="none" stroke="#FFFFFF" stroke-width="0.4423" stroke-miterlimit="10" d="M69.974,35.011c0,0-1.474-2.654-3.833-2.654"></path>
		<path fill="none" stroke="#B3B3B3" stroke-width="1.3269" stroke-linecap="round" stroke-miterlimit="10" d="M70.858,46.548
			l-0.037-2.543c0,0-3.15-1.248-3.022,0.221c0.405,4.681,2.636,6.378,2.322,11.094c-0.295,4.423-3.655,12.241-6.118,12.679
			l-1.548-0.147"></path>
		<path fill="none" stroke="#FFFFFF" stroke-width="0.2211" stroke-miterlimit="10" d="M70.821,43.562c0,0-3.15-1.248-3.022,0.221
			c0.405,4.681,2.636,6.378,2.322,11.094"></path>
		<path fill="none" stroke="#B3B3B3" stroke-width="1.3269" stroke-linecap="round" stroke-miterlimit="10" d="M71.066,51.118h4.555
			c0,0,1.43,4.57-2.625,14.89"></path>
		
			<line fill="none" stroke="#FFFFFF" stroke-width="0.8846" stroke-linecap="round" stroke-miterlimit="10" x1="71.066" y1="50.897" x2="75.621" y2="50.897"></line>
		
			<line fill="none" stroke="#B3B3B3" stroke-width="1.3269" stroke-linecap="round" stroke-miterlimit="10" x1="74.396" y1="59.816" x2="69.974" y2="59.595"></line>
		
			<line fill="none" stroke="#FFFFFF" stroke-width="0.2211" stroke-linecap="round" stroke-miterlimit="10" x1="74.396" y1="59.485" x2="69.974" y2="59.263"></line>
		<g>
			<path fill="#005EAB" d="M100.336,51.118c0,6.089-1.206,11.387-2.984,14.116h-9.992l-1.106-0.442
				c1.778-2.729,2.984-8.027,2.984-14.116l4.434,0.221h6.221L100.336,51.118z"></path>
			<path fill="#00467F" d="M90.344,51.118h9.992c0,6.089-1.206,11.387-2.984,14.116h-9.992
				C89.139,62.505,90.344,57.207,90.344,51.118z"></path>
		</g>
		
			<line fill="none" stroke="#000000" stroke-width="0.4423" stroke-linecap="round" stroke-miterlimit="10" x1="98.685" y1="52.592" x2="91.756" y2="52.592"></line>
		
			<line fill="none" stroke="#000000" stroke-width="0.4423" stroke-linecap="round" stroke-miterlimit="10" x1="98.685" y1="53.882" x2="91.756" y2="53.882"></line>
		
			<line fill="none" stroke="#000000" stroke-width="0.4423" stroke-linecap="round" stroke-miterlimit="10" x1="98.685" y1="55.209" x2="91.756" y2="55.209"></line>
		
			<line fill="none" stroke="#000000" stroke-width="0.4423" stroke-linecap="round" stroke-miterlimit="10" x1="98.464" y1="56.352" x2="91.535" y2="56.352"></line>
		
			<line fill="none" stroke="#000000" stroke-width="0.4423" stroke-linecap="round" stroke-miterlimit="10" x1="96.548" y1="64.239" x2="89.619" y2="64.239"></line>
		
			<line fill="none" stroke="#000000" stroke-width="0.4423" stroke-linecap="round" stroke-miterlimit="10" x1="97.027" y1="63.097" x2="90.098" y2="63.097"></line>
		
			<line fill="none" stroke="#000000" stroke-width="0.4423" stroke-linecap="round" stroke-miterlimit="10" x1="97.506" y1="61.77" x2="90.577" y2="61.77"></line>
		
			<line fill="none" stroke="#000000" stroke-width="0.4423" stroke-linecap="round" stroke-miterlimit="10" x1="97.801" y1="60.517" x2="90.872" y2="60.517"></line>
		
			<line fill="none" stroke="#000000" stroke-width="0.4423" stroke-linecap="round" stroke-miterlimit="10" x1="98.133" y1="59.263" x2="91.203" y2="59.263"></line>
		<ellipse fill="#4D4D4D" cx="57.26" cy="33.537" rx="0.997" ry="0.405"></ellipse>
		<rect x="56.852" y="31.62" width="0.629" height="1.843"></rect>
		<path fill="none" stroke="#B3B3B3" stroke-width="0.4423" stroke-miterlimit="10" d="M57.481,31.62
			c-0.187-0.553,3.352-0.111,3.573,2.543"></path>
		<ellipse fill="#4D4D4D" cx="58.953" cy="38.439" rx="1.161" ry="0.737"></ellipse>
		<ellipse fill="#4D4D4D" cx="59.764" cy="45.958" rx="1.161" ry="0.737"></ellipse>
		<ellipse fill="#4D4D4D" cx="59.58" cy="53.809" rx="1.161" ry="0.645"></ellipse>
		<ellipse fill="#333333" cx="58.732" cy="60.738" rx="1.161" ry="0.605"></ellipse>
		<ellipse fill="#1A1A1A" cx="56.558" cy="66.819" rx="1.161" ry="0.491"></ellipse>
		<rect x="58.548" y="37.112" width="0.885" height="1.032"></rect>
		<rect x="58.179" y="61.069" fill="#4D4D4D" width="1.161" height="0.605"></rect>
		<rect x="56.336" y="67.04" width="0.442" height="1.179"></rect>
		<path fill="none" stroke="#B3B3B3" stroke-width="0.4423" stroke-miterlimit="10" d="M58.99,37.112l0.332-0.774
			c0,0,3.547-0.955,6.362,1.531"></path>
		<path fill="none" stroke="#B3B3B3" stroke-width="0.4423" stroke-miterlimit="10" d="M60.243,45.811c0,0,3.243-0.885,8.109,0.147"></path>
		<path fill="none" stroke="#B3B3B3" stroke-width="0.4423" stroke-miterlimit="10" d="M59.58,53.809l0.811,0.995
			c0,0,2.506,1.032,8.109-0.147"></path>
		<path fill="none" stroke="#B3B3B3" stroke-width="0.4423" stroke-miterlimit="10" d="M58.76,61.151v1.172
			c0,0,4.58,1.032,8.118-0.147"></path>
		<path fill="none" stroke="#B3B3B3" stroke-width="0.4423" stroke-miterlimit="10" d="M56.779,68.22c0,0,3.759,0.147,7.887-1.327"></path>
		<g>
			<path fill="none" stroke="#000000" stroke-width="0.4423" stroke-miterlimit="10" d="M32.624,65.023
				c1.284,0,2.324-6.226,2.324-13.905s-1.041-13.905-2.324-13.905"></path>
			<g>
				
					<linearGradient id="SVGID_24_gasturbineengine" gradientUnits="userSpaceOnUse" x1="462.9169" y1="37.4807" x2="462.9169" y2="38.1436" gradientTransform="matrix(-1 0 0 1 494.0179 0)">
					<stop offset="0" style="stop-color:#FFFFFF"></stop>
					<stop offset="1" style="stop-color:#000000"></stop>
				</linearGradient>
				<rect x="28.434" y="37.481" fill="url(#SVGID_24_gasturbineengine)" width="5.334" height="0.663"></rect>
				
					<linearGradient id="SVGID_25_gasturbineengine" gradientUnits="userSpaceOnUse" x1="462.0412" y1="40.8532" x2="462.0412" y2="41.5161" gradientTransform="matrix(-1 0 0 1 494.0179 0)">
					<stop offset="0" style="stop-color:#FFFFFF"></stop>
					<stop offset="1" style="stop-color:#000000"></stop>
				</linearGradient>
				<rect x="29.309" y="40.853" fill="url(#SVGID_25_gasturbineengine)" width="5.334" height="0.663"></rect>
				
					<linearGradient id="SVGID_26_gasturbineengine" gradientUnits="userSpaceOnUse" x1="461.7044" y1="44.2256" x2="461.7044" y2="44.8885" gradientTransform="matrix(-1 0 0 1 494.0179 0)">
					<stop offset="0" style="stop-color:#FFFFFF"></stop>
					<stop offset="1" style="stop-color:#000000"></stop>
				</linearGradient>
				<rect x="29.646" y="44.226" fill="url(#SVGID_26_gasturbineengine)" width="5.334" height="0.663"></rect>
				
					<linearGradient id="SVGID_27_gasturbineengine" gradientUnits="userSpaceOnUse" x1="461.3676" y1="47.5981" x2="461.3676" y2="48.261" gradientTransform="matrix(-1 0 0 1 494.0179 0)">
					<stop offset="0" style="stop-color:#FFFFFF"></stop>
					<stop offset="1" style="stop-color:#000000"></stop>
				</linearGradient>
				<rect x="29.983" y="47.598" fill="url(#SVGID_27_gasturbineengine)" width="5.334" height="0.663"></rect>
				
					<linearGradient id="SVGID_28_gasturbineengine" gradientUnits="userSpaceOnUse" x1="461.3676" y1="50.9705" x2="461.3676" y2="51.6334" gradientTransform="matrix(-1 0 0 1 494.0179 0)">
					<stop offset="0" style="stop-color:#FFFFFF"></stop>
					<stop offset="1" style="stop-color:#000000"></stop>
				</linearGradient>
				<rect x="29.983" y="50.971" fill="url(#SVGID_28_gasturbineengine)" width="5.334" height="0.663"></rect>
				
					<linearGradient id="SVGID_29_gasturbineengine" gradientUnits="userSpaceOnUse" x1="461.3676" y1="54.343" x2="461.3676" y2="55.0059" gradientTransform="matrix(-1 0 0 1 494.0179 0)">
					<stop offset="0" style="stop-color:#FFFFFF"></stop>
					<stop offset="1" style="stop-color:#000000"></stop>
				</linearGradient>
				<rect x="29.983" y="54.343" fill="url(#SVGID_29_gasturbineengine)" width="5.334" height="0.663"></rect>
				
					<linearGradient id="SVGID_30_gasturbineengine" gradientUnits="userSpaceOnUse" x1="461.7044" y1="57.7154" x2="461.7044" y2="58.3783" gradientTransform="matrix(-1 0 0 1 494.0179 0)">
					<stop offset="0" style="stop-color:#FFFFFF"></stop>
					<stop offset="1" style="stop-color:#000000"></stop>
				</linearGradient>
				<rect x="29.646" y="57.715" fill="url(#SVGID_30_gasturbineengine)" width="5.334" height="0.663"></rect>
				
					<linearGradient id="SVGID_31_gasturbineengine" gradientUnits="userSpaceOnUse" x1="462.0412" y1="61.0879" x2="462.0412" y2="61.7508" gradientTransform="matrix(-1 0 0 1 494.0179 0)">
					<stop offset="0" style="stop-color:#FFFFFF"></stop>
					<stop offset="1" style="stop-color:#000000"></stop>
				</linearGradient>
				<rect x="29.309" y="61.088" fill="url(#SVGID_31_gasturbineengine)" width="5.334" height="0.663"></rect>
				
					<linearGradient id="SVGID_32_gasturbineengine" gradientUnits="userSpaceOnUse" x1="462.9169" y1="64.4603" x2="462.9169" y2="65.1232" gradientTransform="matrix(-1 0 0 1 494.0179 0)">
					<stop offset="0" style="stop-color:#FFFFFF"></stop>
					<stop offset="1" style="stop-color:#000000"></stop>
				</linearGradient>
				<rect x="28.434" y="64.46" fill="url(#SVGID_32_gasturbineengine)" width="5.334" height="0.663"></rect>
			</g>
			
				<linearGradient id="SVGID_33_gasturbineengine" gradientUnits="userSpaceOnUse" x1="459.6574" y1="37.2126" x2="459.6574" y2="65.0234" gradientTransform="matrix(-1 0 0 1 494.0179 0)">
				<stop offset="0" style="stop-color:#FFFFFF"></stop>
				<stop offset="1" style="stop-color:#000000"></stop>
			</linearGradient>
			<path fill="url(#SVGID_33_gasturbineengine)" d="M32.845,65.023c1.284,0,2.324-6.226,2.324-13.905s-1.041-13.905-2.324-13.905h0.707
				c1.284,0,2.324,6.226,2.324,13.905s-1.041,13.905-2.324,13.905H32.845z"></path>
			
				<linearGradient id="SVGID_34_gasturbineengine" gradientUnits="userSpaceOnUse" x1="465.0297" y1="37.2126" x2="465.0297" y2="65.0234" gradientTransform="matrix(-1 0 0 1 494.0179 0)">
				<stop offset="0" style="stop-color:#FFFFFF"></stop>
				<stop offset="1" style="stop-color:#000000"></stop>
			</linearGradient>
			<path fill="url(#SVGID_34_gasturbineengine)" d="M27.473,65.023c1.284,0,2.324-6.226,2.324-13.905s-1.041-13.905-2.324-13.905h0.707
				c1.284,0,2.324,6.226,2.324,13.905s-1.041,13.905-2.324,13.905H27.473z"></path>
		</g>
	</g>
</g>
</svg>