<!--?xml version="1.0" encoding="utf-8"?--><svg style="display:block;width:100%;height:100%;" version="1.1" id="Layer_1" xmlns="http://www.w3.org/2000/svg" xmlns:xlink="http://www.w3.org/1999/xlink" viewBox="0 0 101.906 91.723" xml:space="preserve">
<g>
	<polyline fill="#FFFFFF" stroke="#000000" stroke-width="0.6063" stroke-linejoin="round" stroke-miterlimit="10" points="
		85.265,41.283 64.222,29.134 58.395,32.498 53.383,38.606 54.026,38.978 	"></polyline>
	<polyline fill="#CCCCCC" stroke="#000000" stroke-width="0.3031" stroke-miterlimit="10" points="0.076,12.142 3.881,14.339 
		7.686,12.142 7.686,11.741 3.881,9.544 0.076,11.741 	"></polyline>
	<g>
		<polyline fill="#E6E6E6" stroke="#000000" stroke-width="0.3031" stroke-miterlimit="10" points="6.03,58.143 9.835,60.34 
			13.64,58.143 13.64,57.742 9.835,55.545 6.03,57.742 		"></polyline>
		<g>
			
				<line fill="none" stroke="#000000" stroke-width="2.4252" stroke-linecap="round" stroke-miterlimit="10" x1="9.808" y1="50.375" x2="9.808" y2="57.308"></line>
			
				<line fill="none" stroke="#E6E6E6" stroke-width="1.8189" stroke-linecap="round" stroke-miterlimit="10" x1="9.808" y1="50.375" x2="9.808" y2="57.308"></line>
		</g>
		<g>
			
				<line fill="none" stroke="#000000" stroke-width="3.6377" stroke-linecap="round" stroke-miterlimit="10" x1="9.808" y1="44.209" x2="9.808" y2="51.388"></line>
			
				<line fill="none" stroke="#CCCCCC" stroke-width="3.0315" stroke-linecap="round" stroke-miterlimit="10" x1="9.808" y1="44.209" x2="9.808" y2="51.388"></line>
		</g>
		<g>
			<polyline fill="none" stroke="#000000" stroke-width="1.2126" stroke-linecap="round" stroke-miterlimit="10" points="
				5.899,47.328 8.418,48.782 10.937,47.328 			"></polyline>
			
				<line fill="none" stroke="#000000" stroke-width="1.8189" stroke-linecap="round" stroke-miterlimit="10" x1="5.951" y1="47.328" x2="3.432" y2="48.782"></line>
		</g>
	</g>
	<g>
		<polyline fill="#E6E6E6" stroke="#000000" stroke-width="0.3031" stroke-miterlimit="10" points="60.255,89.351 64.06,91.548 
			67.865,89.351 67.865,88.95 64.06,86.754 60.255,88.95 		"></polyline>
		<g>
			
				<line fill="none" stroke="#000000" stroke-width="2.4252" stroke-linecap="round" stroke-miterlimit="10" x1="64.033" y1="81.584" x2="64.033" y2="88.516"></line>
			
				<line fill="none" stroke="#F2F2F2" stroke-width="1.8189" stroke-linecap="round" stroke-miterlimit="10" x1="64.033" y1="81.584" x2="64.033" y2="88.516"></line>
		</g>
		<g>
			
				<line fill="none" stroke="#000000" stroke-width="3.6377" stroke-linecap="round" stroke-miterlimit="10" x1="64.033" y1="75.541" x2="64.033" y2="82.72"></line>
			
				<line fill="none" stroke="#CCCCCC" stroke-width="3.0315" stroke-linecap="round" stroke-miterlimit="10" x1="64.033" y1="75.541" x2="64.033" y2="82.72"></line>
		</g>
		<g>
			<polyline fill="none" stroke="#000000" stroke-width="1.2126" stroke-linecap="round" stroke-miterlimit="10" points="
				59.945,78.61 62.464,80.065 64.983,78.61 			"></polyline>
			
				<line fill="none" stroke="#000000" stroke-width="1.8189" stroke-linecap="round" stroke-miterlimit="10" x1="59.998" y1="78.61" x2="57.479" y2="80.065"></line>
		</g>
	</g>
	<g>
		<polyline fill="#E6E6E6" stroke="#000000" stroke-width="0.3031" stroke-miterlimit="10" points="86.786,74.108 90.591,76.305 
			94.396,74.108 94.396,73.707 90.591,71.51 86.786,73.707 		"></polyline>
		<g>
			
				<line fill="none" stroke="#000000" stroke-width="2.4252" stroke-linecap="round" stroke-miterlimit="10" x1="90.564" y1="66.34" x2="90.564" y2="73.273"></line>
			
				<line fill="none" stroke="#F2F2F2" stroke-width="1.8189" stroke-linecap="round" stroke-miterlimit="10" x1="90.564" y1="66.34" x2="90.564" y2="73.273"></line>
		</g>
		<g>
			
				<line fill="none" stroke="#000000" stroke-width="3.6377" stroke-linecap="round" stroke-miterlimit="10" x1="90.564" y1="60.297" x2="90.564" y2="67.477"></line>
			
				<line fill="none" stroke="#FFFFFF" stroke-width="3.0315" stroke-linecap="round" stroke-miterlimit="10" x1="90.564" y1="60.297" x2="90.564" y2="67.477"></line>
		</g>
		<g>
			<polyline fill="none" stroke="#000000" stroke-width="1.2126" stroke-linecap="round" stroke-miterlimit="10" points="
				86.476,63.367 88.995,64.821 91.514,63.367 			"></polyline>
			
				<line fill="none" stroke="#000000" stroke-width="1.8189" stroke-linecap="round" stroke-miterlimit="10" x1="86.529" y1="63.367" x2="84.01" y2="64.821"></line>
		</g>
	</g>
	<polyline fill="#FFFFFF" stroke="#000000" stroke-width="0.3031" stroke-linejoin="round" stroke-miterlimit="10" points="
		85.265,41.283 87.993,47.757 87.993,52.964 	"></polyline>
	<polygon fill="#CCCCCC" stroke="#000000" stroke-width="0.3031" stroke-miterlimit="10" points="38.015,22.861 12.85,37.39 
		12.85,25.363 41.07,9.071 41.07,5.67 38.015,3.907 6.742,21.963 6.742,25.363 6.742,40.917 6.742,41.04 6.742,46.074 
		66.632,80.652 97.906,62.596 97.906,57.439 	"></polygon>
	<polygon fill="#B3B3B3" stroke="#000000" stroke-width="0.3031" stroke-miterlimit="10" points="66.632,80.652 66.632,75.495 
		97.906,57.439 97.906,62.596 	"></polygon>
	<polygon fill="#E6E6E6" points="66.632,69.761 23.885,45.081 11.525,41.817 9.657,42.724 66.632,75.618 91.798,61.089 
		84.594,59.391 	"></polygon>
	<g>
		
			<line fill="none" stroke="#000000" stroke-width="4.244" stroke-linecap="round" stroke-miterlimit="10" x1="4.041" y1="3.568" x2="4.041" y2="10.748"></line>
		
			<line fill="none" stroke="#CCCCCC" stroke-width="3.6377" stroke-linecap="round" stroke-miterlimit="10" x1="4.041" y1="3.568" x2="4.041" y2="10.748"></line>
	</g>
	<polygon fill="#CCCCCC" stroke="#000000" stroke-width="0.3031" stroke-miterlimit="10" points="28.315,9.506 4.515,0.168 
		0.541,2.462 0.541,4.603 16.716,18.345 28.315,11.648 	"></polygon>
	<polygon fill="#F2F2F2" points="4.515,0.168 0.541,2.462 16.716,16.203 28.315,9.506 	"></polygon>
	<polygon fill="#E6E6E6" stroke="#000000" stroke-width="0.3031" stroke-linejoin="round" stroke-miterlimit="10" points="
		85.265,41.283 79.437,44.647 58.395,32.498 64.222,29.134 	"></polygon>
	<polygon fill="none" stroke="#000000" stroke-width="0.6063" stroke-linejoin="round" stroke-miterlimit="10" points="
		84.449,56.543 79.437,44.647 58.395,32.498 53.383,38.606 	"></polygon>
	<polygon fill="#CCCCCC" points="66.632,80.775 66.632,75.618 66.632,75.618 66.632,75.618 6.742,41.04 6.742,46.074 	"></polygon>
	<polygon fill="#FFFFFF" stroke="#000000" stroke-width="0.6063" stroke-miterlimit="10" points="34.961,24.747 38.015,26.511 
		41.07,24.747 41.07,5.67 38.015,3.907 34.961,5.67 	"></polygon>
	<path d="M25.301,55.241c1.065-0.614,2.592-0.508,4.275,0.459c3.144,1.807,5.642,5.936,5.58,9.222
		c-0.029,1.524-0.604,2.6-1.526,3.134l-4.47,2.581c-1.066,0.618-2.595,0.514-4.281-0.455c-3.144-1.807-5.642-5.936-5.58-9.222
		c0.029-1.528,0.606-2.604,1.532-3.138L25.301,55.241z"></path>
	<path d="M38.398,62.97c1.065-0.614,2.592-0.508,4.275,0.459c3.144,1.807,5.642,5.936,5.58,9.222
		c-0.029,1.524-0.604,2.6-1.526,3.134l-4.47,2.581c-1.066,0.618-2.595,0.514-4.281-0.455c-3.144-1.807-5.642-5.936-5.58-9.222
		c0.029-1.528,0.606-2.604,1.532-3.138L38.398,62.97z"></path>
	<polygon fill="#F2F2F2" points="41.07,5.67 9.796,23.726 6.742,21.963 38.015,3.907 	"></polygon>
	<polygon fill="#CCCCCC" stroke="#000000" stroke-width="0.3031" stroke-linejoin="round" stroke-miterlimit="10" points="
		18.528,61.828 18.528,57.289 21.293,53.919 27.121,50.554 48.164,62.703 50.941,69.295 48.164,62.703 27.121,50.554 48.164,62.703 
		50.941,69.295 50.941,73.827 45.113,77.192 44.394,76.776 44.394,72.614 42.067,67.028 21.316,55.047 19.16,57.674 19.171,62.199 	
		"></polygon>
	<polygon fill="#F2F2F2" points="18.528,57.289 18.528,61.828 19.171,62.199 19.16,57.674 21.316,55.047 42.067,67.028 
		44.394,72.614 44.394,76.776 45.113,77.192 45.113,72.66 42.336,66.068 21.293,53.919 	"></polygon>
	<polygon fill="#F2F2F2" points="45.113,72.66 42.336,66.068 48.164,62.703 50.941,69.295 	"></polygon>
	
		<line fill="none" stroke="#FFFFFF" stroke-width="0.6063" stroke-miterlimit="10" x1="42.336" y1="66.068" x2="48.164" y2="62.703"></line>
	
		<line fill="none" stroke="#C1272D" stroke-width="0.6063" stroke-miterlimit="10" x1="23.081" y1="19.671" x2="23.081" y2="39.823"></line>
	<path fill="#999999" d="M41.343,73.83c-0.017,0.871-0.345,1.486-0.872,1.792c-0.609,0.353-1.483,0.294-2.447-0.26
		c-1.797-1.033-3.225-3.393-3.189-5.271c0.017-0.873,0.347-1.489,0.875-1.794c0.609-0.351,1.481-0.291,2.443,0.262
		C39.951,69.592,41.379,71.952,41.343,73.83z"></path>
	<g>
		<path fill="#666666" d="M39.958,73.034c-0.01,0.5-0.198,0.853-0.501,1.029c-0.35,0.203-0.852,0.169-1.405-0.149
			c-1.032-0.593-1.852-1.949-1.832-3.027c0.01-0.501,0.199-0.855,0.503-1.03c0.35-0.202,0.851-0.167,1.403,0.151
			C39.158,70.6,39.978,71.955,39.958,73.034z"></path>
		<path fill="none" stroke="#000000" stroke-width="0.6063" stroke-miterlimit="10" stroke-dasharray="0.6347,2.5388" d="
			M39.958,73.034c-0.01,0.5-0.198,0.853-0.501,1.029c-0.35,0.203-0.852,0.169-1.405-0.149c-1.032-0.593-1.852-1.948-1.832-3.027
			c0.01-0.501,0.199-0.855,0.503-1.03c0.35-0.202,0.851-0.167,1.403,0.151C39.158,70.6,39.978,71.955,39.958,73.034z"></path>
	</g>
	<path fill="#999999" d="M28.246,66.101c-0.017,0.871-0.345,1.486-0.872,1.792c-0.609,0.353-1.483,0.294-2.447-0.26
		c-1.797-1.033-3.225-3.393-3.189-5.271c0.017-0.873,0.347-1.489,0.875-1.794c0.609-0.351,1.481-0.291,2.443,0.262
		C26.854,61.863,28.282,64.223,28.246,66.101z"></path>
	<g>
		<path fill="#666666" d="M26.861,65.305c-0.01,0.5-0.198,0.853-0.501,1.029c-0.35,0.203-0.852,0.169-1.405-0.149
			c-1.032-0.593-1.852-1.949-1.832-3.027c0.01-0.501,0.199-0.855,0.503-1.03c0.35-0.202,0.851-0.167,1.403,0.151
			C26.061,62.871,26.881,64.226,26.861,65.305z"></path>
		<path fill="none" stroke="#000000" stroke-width="0.6063" stroke-miterlimit="10" stroke-dasharray="0.6347,2.5388" d="
			M26.861,65.305c-0.01,0.5-0.198,0.853-0.501,1.029c-0.35,0.203-0.852,0.169-1.405-0.149c-1.032-0.593-1.852-1.948-1.832-3.027
			c0.01-0.501,0.199-0.855,0.503-1.03c0.35-0.202,0.851-0.167,1.403,0.151C26.061,62.871,26.881,64.227,26.861,65.305z"></path>
	</g>
	<g>
		<polygon fill="#E6E6E6" points="86.924,56.374 40.417,29.524 37.187,31.389 37.187,33.782 83.693,60.632 86.924,58.767 		"></polygon>
		<polygon fill="#B3B3B3" points="67.623,69.91 86.924,58.767 86.924,56.374 67.623,67.517 		"></polygon>
		<polygon fill="#666666" points="51.534,60.629 70.835,49.485 70.835,47.092 51.534,58.236 		"></polygon>
		<polygon fill="#F2F2F2" points="40.417,29.524 37.187,31.389 83.693,58.239 86.924,56.374 		"></polygon>
	</g>
	<g>
		<polygon fill="#C2B863" stroke="#000000" stroke-width="0.3031" stroke-miterlimit="10" points="14.939,40.791 19.254,43.282 
			41.512,30.431 41.512,6.69 37.198,4.2 14.939,17.051 		"></polygon>
		<polyline fill="none" stroke="#000000" stroke-width="0.1516" stroke-miterlimit="10" points="20.121,40.054 20.121,20.028 
			40.645,8.178 40.645,17.823 		"></polyline>
		<polyline fill="none" stroke="#000000" stroke-width="0.1516" stroke-miterlimit="10" points="41.512,6.69 19.254,19.542 
			19.254,40.801 		"></polyline>
		<polygon fill="#BAB186" points="16.044,17.688 16.044,41.429 17.822,42.456 17.822,18.715 		"></polygon>
		<g>
			<polygon fill="#D6CC9A" points="17.822,18.715 19.254,19.542 41.512,6.69 40.081,5.864 			"></polygon>
			<polygon fill="#D6CC9A" points="37.198,4.2 14.939,17.051 16.044,17.688 38.303,4.837 			"></polygon>
			<polygon fill="#BAB186" points="38.303,4.837 16.044,17.688 17.822,18.715 40.081,5.864 			"></polygon>
		</g>
		<path fill="#808080" d="M21.421,30.123c0.045,2.365,0.937,4.034,2.367,4.864c1.653,0.959,4.026,0.797,6.642-0.706
			c4.878-2.804,8.755-9.21,8.658-14.31c-0.045-2.37-0.941-4.041-2.376-4.869c-1.653-0.953-4.022-0.789-6.633,0.712
			C25.201,18.616,21.324,25.023,21.421,30.123z"></path>
		<g>
			<path fill="#4D4D4D" d="M23.41,23.914c-0.608,1.278-1.046,2.59-1.268,3.867l6.576-2.62L23.41,23.914z"></path>
			<path fill="#4D4D4D" d="M26.075,19.805c-0.856,1.003-1.612,2.109-2.235,3.26l5.352,1.257L26.075,19.805z"></path>
			<path fill="#4D4D4D" d="M22.937,33.204c0.341,0.488,0.762,0.88,1.252,1.165c0.456,0.265,0.972,0.436,1.534,0.513l3.201-7.811
				L22.937,33.204z"></path>
			<path fill="#4D4D4D" d="M29.693,16.635c-1.062,0.664-2.067,1.501-2.979,2.464l3.061,4.436L29.693,16.635z"></path>
			<path fill="#4D4D4D" d="M33.801,15.172c-0.975,0.051-2.053,0.354-3.189,0.932l0.079,6.658L33.801,15.172z"></path>
			<path fill="#4D4D4D" d="M37.572,16.888c-0.343-0.491-0.767-0.884-1.261-1.169c-0.454-0.262-0.967-0.431-1.526-0.508l-3.201,7.811
				L37.572,16.888z"></path>
			<path fill="#4D4D4D" d="M22.003,28.832c-0.026,0.33-0.04,0.656-0.034,0.976c0.019,0.983,0.201,1.83,0.507,2.545l5.925-6.069
				L22.003,28.832z"></path>
			<path fill="#4D4D4D" d="M30.817,33.457c1.062-0.664,2.067-1.501,2.979-2.464l-3.061-4.436L30.817,33.457z"></path>
			<path fill="#4D4D4D" d="M31.317,25.771l3.117,4.517c0.856-1.003,1.612-2.109,2.235-3.26L31.317,25.771z"></path>
			<path fill="#4D4D4D" d="M26.709,34.92c0.975-0.051,2.053-0.354,3.189-0.932l-0.079-6.658L26.709,34.92z"></path>
			<path fill="#4D4D4D" d="M38.506,21.261c0.026-0.33,0.04-0.656,0.034-0.976c-0.019-0.983-0.201-1.83-0.507-2.545l-5.925,6.069
				L38.506,21.261z"></path>
			<path fill="#4D4D4D" d="M37.099,26.178c0.608-1.278,1.046-2.59,1.268-3.867l-6.576,2.62L37.099,26.178z"></path>
		</g>
	</g>
	<g>
		<polygon fill="#B3B3B3" points="67.623,67.517 21.116,40.667 17.886,42.532 17.886,44.925 64.393,71.776 67.623,69.91 		"></polygon>
		<polygon fill="#F2F2F2" points="21.116,40.667 17.886,42.532 64.393,69.382 67.623,67.517 		"></polygon>
	</g>
	<polygon fill="#125D7A" stroke="#000000" stroke-width="0.3031" stroke-miterlimit="10" points="26.987,42.599 50.847,56.375 
		63.228,49.227 63.228,32.123 39.368,18.348 26.987,25.496 	"></polygon>
	<path fill="#187AA0" stroke="#000000" stroke-width="0.3031" stroke-miterlimit="10" d="M45.113,51.962l-0.001,0.91l-3.934,2.268
		v0.493l2.989,1.726l2.587-1.494l0.604-0.349c0.458-0.264,0.74-0.753,0.74-1.282v-0.697"></path>
	<polygon fill="#3FA6CC" points="43.931,54.132 44.711,54.132 45.101,53.728 44.711,53.323 43.931,53.323 43.541,53.728 	"></polygon>
	<polygon fill="#3FA6CC" points="42.95,55.612 43.73,55.612 44.12,55.207 43.73,54.803 42.95,54.803 42.56,55.207 	"></polygon>
	<polygon fill="#125D7A" points="50.847,56.375 50.847,39.272 63.228,32.123 63.228,49.227 	"></polygon>
	<g>
		<polygon points="29.734,39.835 27.845,35.112 25.77,33.914 27.66,38.637 27.66,43.171 28.728,43.788 29.734,43.207 		"></polygon>
		<polygon points="33.809,42.188 31.92,37.464 29.845,36.267 31.735,40.99 31.735,45.524 32.803,46.141 33.809,45.559 		"></polygon>
		<polygon points="37.885,44.54 35.995,39.817 33.92,38.619 35.81,43.343 35.81,47.877 36.878,48.493 37.885,47.912 		"></polygon>
		<polygon points="41.96,46.893 40.07,42.17 37.996,40.972 39.885,45.695 39.885,50.229 40.953,50.846 41.96,50.265 		"></polygon>
		<polygon points="46.035,49.246 44.145,44.523 42.071,43.325 43.96,48.048 43.96,52.582 45.028,53.199 46.035,52.618 		"></polygon>
		<polygon points="50.11,51.599 48.22,46.875 46.146,45.678 48.035,50.401 48.035,54.935 49.103,55.552 50.11,54.97 		"></polygon>
	</g>
	<g>
		<polygon fill="#F2F2F2" points="68.226,44.869 48.303,56.371 51.534,58.236 71.456,46.734 		"></polygon>
	</g>
	<g>
		<polygon fill="#F2F2F2" points="83.693,54.509 64.393,65.652 67.623,67.517 86.924,56.374 		"></polygon>
	</g>
	
		<line fill="none" stroke="#C1272D" stroke-width="0.6063" stroke-miterlimit="10" x1="62.252" y1="33.972" x2="38.347" y2="20.171"></line>
	<polyline fill="#187AA0" stroke="#000000" stroke-width="0.3031" stroke-miterlimit="10" points="26.987,25.496 23.137,29.731 
		23.137,34.076 46.997,47.852 46.997,43.507 50.847,39.272 	"></polyline>
	<g>
		
			<ellipse transform="matrix(0.7481 -0.6636 0.6636 0.7481 -12.4898 25.5912)" fill="#125D7A" cx="27.462" cy="29.246" rx="2.313" ry="1.728"></ellipse>
		
			<ellipse transform="matrix(0.7481 -0.6636 0.6636 0.7481 -13.1159 29.4519)" fill="#125D7A" cx="32.234" cy="32.001" rx="2.313" ry="1.728"></ellipse>
		
			<ellipse transform="matrix(0.7481 -0.6636 0.6636 0.7481 -13.7421 33.3127)" fill="#125D7A" cx="37.006" cy="34.757" rx="2.313" ry="1.728"></ellipse>
		
			<ellipse transform="matrix(0.7481 -0.6636 0.6636 0.7481 -14.3683 37.1734)" fill="#125D7A" cx="41.778" cy="37.512" rx="2.313" ry="1.728"></ellipse>
		
			<ellipse transform="matrix(0.7481 -0.6636 0.6636 0.7481 -14.9945 41.0342)" fill="#125D7A" cx="46.55" cy="40.267" rx="2.313" ry="1.728"></ellipse>
	</g>
	<polyline fill="#187AA0" stroke="#000000" stroke-width="0.3031" stroke-miterlimit="10" points="63.228,32.123 67.219,32.638 
		43.359,18.863 39.368,18.348 	"></polyline>
	<g>
		<path fill="#187AA0" stroke="#000000" stroke-width="0.6063" stroke-miterlimit="10" d="M62.749,38.343
			c-0.313-0.18-0.67-0.292-1.061-0.331l-5.655,3.265c-1.397,1.782-2.302,3.99-2.266,5.891c0.026,1.39,0.55,2.37,1.391,2.857
			l8.725,4.013c0.824,0.478,2.007,0.397,3.31-0.352c2.432-1.397,4.364-4.591,4.315-7.132c-0.022-1.181-0.469-2.014-1.184-2.427
			c-0.265-0.153-0.568-0.247-0.9-0.281L62.749,38.343z"></path>
		<path d="M53.766,47.168c0.026,1.39,0.55,2.37,1.391,2.857l8.725,4.013c0.824,0.478,2.007,0.397,3.31-0.352L53.766,47.168z"></path>
	</g>
	<polygon fill="#187AA0" stroke="#000000" stroke-width="0.3031" stroke-miterlimit="10" points="46.997,43.507 46.997,47.852 
		50.847,51.537 50.847,39.272 	"></polygon>
	<path d="M54.907,51.222c-1.317-0.648-2.139-1.952-2.18-3.8c-0.057-2.528,1.362-5.465,3.552-7.835l-5.494,3.59v10.391L54.907,51.222
		z"></path>
	<g>
		<polygon fill="#CCCCCC" stroke="#000000" stroke-width="0.3031" stroke-linejoin="round" stroke-miterlimit="10" points="
			44.177,54.224 48.699,51.613 55.946,55.797 55.946,60.332 51.425,62.942 44.177,58.758 		"></polygon>
		<polygon fill="#E6E6E6" points="55.946,55.797 48.699,51.613 44.177,54.224 51.425,58.408 		"></polygon>
		<polygon fill="#CCCCCC" stroke="#000000" stroke-width="0.1516" stroke-linejoin="round" stroke-miterlimit="10" points="
			44.78,55.196 50.822,58.684 50.822,62.463 50.328,62.71 44.287,59.222 44.287,55.443 		"></polygon>
	</g>
	<path fill="#187AA0" stroke="#000000" stroke-width="0.3031" stroke-miterlimit="10" d="M81.129,46.833
		c0.087,4.551-3.373,10.269-7.726,12.771l-5.058,2.92l5.797,0.039l5.058-2.92c4.354-2.502,7.813-8.22,7.726-12.771L81.129,46.833z"></path>
	<path fill="#7D4747" stroke="#000000" stroke-width="0.3031" stroke-miterlimit="10" d="M43.291,19.951
		c0-0.972,1.305-1.76,2.915-1.76s2.915,0.788,2.915,1.76v2.535c0,0.972-1.305,1.76-2.915,1.76s-2.915-0.788-2.915-1.76V19.951z"></path>
	<g>
		<path fill="#187AA0" stroke="#000000" stroke-width="0.3031" stroke-miterlimit="10" d="M79.006,44.83
			c-0.371-0.214-0.781-0.367-1.221-0.462c-0.178-0.15-0.365-0.288-0.566-0.404c-0.324-0.187-0.678-0.327-1.056-0.423
			c-0.157-0.127-0.322-0.243-0.497-0.344c-1.54-0.888-3.748-0.735-6.181,0.663c-4.546,2.613-8.159,8.583-8.068,13.336
			c0.037,1.957,0.699,3.399,1.779,4.24c0.31,0.583,0.715,1.057,1.197,1.42l-0.001,0.91l-3.934,2.268v0.493l2.989,1.726l2.587-1.494
			l0.604-0.349c0.458-0.264,0.74-0.753,0.74-1.282v-0.697c1.513,0.461,3.451,0.151,5.552-1.057
			c4.717-2.711,8.466-8.906,8.372-13.837C81.26,47.246,80.394,45.63,79.006,44.83z"></path>
		<path fill="#187AA0" stroke="#000000" stroke-width="0.3031" stroke-miterlimit="10" d="M68.323,58.95
			c0.032,1.675,0.663,2.857,1.676,3.444c1.171,0.679,2.851,0.564,4.703-0.5c3.455-1.985,6.199-6.522,6.131-10.133
			c-0.032-1.679-0.666-2.862-1.683-3.448c-1.17-0.675-2.848-0.559-4.697,0.504C71,50.802,68.255,55.339,68.323,58.95z"></path>
		<g>
			<path fill="#187AA0" d="M69.703,58.157c0.025,1.306,0.517,2.227,1.307,2.684c0.913,0.529,2.222,0.44,3.666-0.39
				c2.693-1.547,4.832-5.084,4.779-7.898c-0.025-1.308-0.519-2.231-1.312-2.687c-0.912-0.526-2.22-0.435-3.661,0.393
				C71.789,51.806,69.649,55.342,69.703,58.157z"></path>
			
				<path fill="none" stroke="#000000" stroke-width="1.2126" stroke-linecap="round" stroke-miterlimit="10" stroke-dasharray="0.1876,3.1274" d="
				M69.703,58.157c0.025,1.306,0.517,2.227,1.307,2.684c0.912,0.529,2.222,0.44,3.666-0.39c2.693-1.547,4.832-5.084,4.779-7.898
				c-0.025-1.308-0.519-2.231-1.312-2.687c-0.912-0.526-2.22-0.435-3.661,0.393C71.789,51.806,69.649,55.342,69.703,58.157z"></path>
		</g>
	</g>
	<path fill="#187AA0" stroke="#000000" stroke-width="0.3031" stroke-miterlimit="10" d="M81.129,46.833
		c0,0.972,1.305,1.76,2.915,1.76s2.915-0.788,2.915-1.76l-0.081-5.367c0-0.972-1.305-1.76-2.915-1.76
		c-1.61,0-2.915,0.788-2.915,1.76L81.129,46.833z"></path>
	<path fill="#187AA0" stroke="#000000" stroke-width="0.3031" stroke-miterlimit="10" d="M73.287,75.259
		c-0.565,0.328-1.377,0.273-2.271-0.242c-1.668-0.959-2.994-3.15-2.961-4.894c0.015-0.811,0.322-1.382,0.813-1.665l3.589-2.072
		l22.556-13.023c0.565-0.326,1.375-0.27,2.268,0.243c1.668,0.959,2.994,3.15,2.961,4.894c-0.015,0.809-0.32,1.379-0.809,1.663
		L73.287,75.259z"></path>
	
		<ellipse fill="#187AA0" stroke="#000000" stroke-width="0.3031" stroke-miterlimit="10" cx="83.963" cy="42.419" rx="3.643" ry="2.2"></ellipse>
	
		<ellipse fill="#187AA0" stroke="#000000" stroke-width="0.3031" stroke-miterlimit="10" cx="83.963" cy="41.466" rx="3.643" ry="2.2"></ellipse>
	
		<ellipse fill="#FFFFFF" stroke="#00467F" stroke-width="0.6063" stroke-miterlimit="10" cx="83.963" cy="41.466" rx="2.915" ry="1.76"></ellipse>
	<path fill="#187AA0" stroke="#000000" stroke-width="0.3031" stroke-miterlimit="10" d="M57.775,59.937
		c0,0.972,1.305,1.76,2.915,1.76c1.61,0,2.915-0.788,2.915-1.76l-0.081-9.314c0-0.972-1.305-1.76-2.915-1.76
		s-2.915,0.788-2.915,1.76L57.775,59.937z"></path>
	<path fill="#A66B6B" stroke="#000000" stroke-width="0.3031" stroke-miterlimit="10" d="M49.849,17.477
		c0-1.215-1.631-2.2-3.643-2.2c-2.012,0-3.643,0.985-3.643,2.2v0.953c0,1.215,1.631,2.2,3.643,2.2c2.012,0,3.643-0.985,3.643-2.2
		V17.477z"></path>
	<ellipse fill="#B88181" cx="46.206" cy="17.477" rx="3.643" ry="2.2"></ellipse>
	<path fill="#7D4747" stroke="#000000" stroke-width="0.3031" stroke-miterlimit="10" d="M43.291,14.662
		c0-0.972,1.305-1.76,2.915-1.76s2.915,0.788,2.915,1.76v2.535c0,0.972-1.305,1.76-2.915,1.76s-2.915-0.788-2.915-1.76V14.662z"></path>
	<path fill="#187AA0" stroke="#000000" stroke-width="0.3031" stroke-miterlimit="10" d="M77.456,52.462
		c-0.54-0.311-1.313-0.257-2.165,0.232c-1.592,0.915-2.857,3.006-2.826,4.671c0.015,0.772,0.306,1.317,0.773,1.587l5.705,3.294"></path>
	<g>
		<path fill="none" stroke="#000000" stroke-width="10.3069" stroke-miterlimit="10" d="M77.044,56.449l2.847,1.643
			c0.687,0.397,1.269,0.954,1.695,1.623l1.182,2.023"></path>
		<path fill="none" stroke="#187AA0" stroke-width="9.7006" stroke-linecap="round" stroke-miterlimit="10" d="M77.044,56.449
			l2.847,1.643c0.687,0.397,1.269,0.954,1.695,1.623l1.182,2.023"></path>
	</g>
	
		<line fill="none" stroke="#3896BA" stroke-width="0.6063" stroke-linecap="round" stroke-miterlimit="10" x1="86.517" y1="59.197" x2="96.297" y2="53.551"></line>
	
		<line fill="none" stroke="#3896BA" stroke-width="0.6063" stroke-linecap="round" stroke-miterlimit="10" x1="70.608" y1="68.358" x2="78.959" y2="63.537"></line>
	<path fill="#187AA0" stroke="#000000" stroke-width="0.3031" stroke-miterlimit="10" d="M74.097,73.596
		c-0.015,0.809-0.32,1.379-0.809,1.663c-0.565,0.328-1.377,0.273-2.271-0.242c-1.668-0.959-2.994-3.15-2.961-4.894
		c0.015-0.811,0.322-1.382,0.813-1.665c0.565-0.326,1.375-0.27,2.268,0.243C72.804,69.661,74.13,71.852,74.097,73.596z"></path>
	<g>
		<g>
			<path fill="#187AA0" stroke="#000000" stroke-width="0.3031" stroke-miterlimit="10" d="M96.488,65.369l-1.49-2.549
				c-0.344-0.585,0.367-1.641,1.587-2.358s2.489-0.824,2.832-0.239l1.49,2.549L96.488,65.369z"></path>
			<path fill="#187AA0" stroke="#000000" stroke-width="0.3031" stroke-miterlimit="10" d="M95.227,65.303
				c0.324,0.551,1.983,0.178,3.705-0.834c1.722-1.012,2.856-2.279,2.532-2.83l-0.235-0.401c-0.324-0.551-1.983-0.178-3.705,0.834
				c-1.722,1.012-2.856,2.279-2.532,2.83L95.227,65.303z"></path>
			<g>
				<path fill="#187AA0" stroke="#000000" stroke-width="0.3031" stroke-miterlimit="10" d="M95.463,65.704
					c0.324,0.551,1.983,0.178,3.705-0.834s2.856-2.279,2.532-2.83l-0.235-0.401c-0.324-0.551-1.983-0.178-3.705,0.834
					c-1.722,1.012-2.856,2.279-2.532,2.83L95.463,65.704z"></path>
				
					<ellipse transform="matrix(0.8622 -0.5066 0.5066 0.8622 -18.771 58.7438)" fill="#187AA0" stroke="#000000" stroke-width="0.3031" stroke-miterlimit="10" cx="98.581" cy="63.871" rx="3.617" ry="1.158"></ellipse>
				
					<ellipse transform="matrix(0.8622 -0.5066 0.5066 0.8622 -18.771 58.7438)" fill="#125D7A" cx="98.581" cy="63.871" rx="2.563" ry="0.821"></ellipse>
			</g>
		</g>
		<g>
			<path fill="#187AA0" stroke="#000000" stroke-width="0.3031" stroke-miterlimit="10" d="M89.767,64.41
				c1.221-0.717,2.489-0.824,2.832-0.239l0,0l1.49,2.549l-4.42,2.597l-1.49-2.549C87.836,66.183,88.547,65.127,89.767,64.41z"></path>
			<path fill="#187AA0" stroke="#000000" stroke-width="0.3031" stroke-miterlimit="10" d="M88.408,69.251
				c0.324,0.551,1.983,0.178,3.705-0.834s2.856-2.279,2.532-2.83l-0.235-0.401c-0.324-0.551-1.983-0.178-3.705,0.834
				c-1.722,1.012-2.856,2.279-2.532,2.83L88.408,69.251z"></path>
			<g>
				<path fill="#187AA0" stroke="#000000" stroke-width="0.3031" stroke-miterlimit="10" d="M88.644,69.651
					c0.324,0.551,1.983,0.178,3.705-0.834s2.856-2.279,2.532-2.83l-0.235-0.401c-0.324-0.551-1.983-0.178-3.705,0.834
					c-1.722,1.012-2.856,2.279-2.532,2.83L88.644,69.651z"></path>
				
					<ellipse transform="matrix(0.8622 -0.5066 0.5066 0.8622 -21.7106 55.8335)" fill="#187AA0" stroke="#000000" stroke-width="0.3031" stroke-miterlimit="10" cx="91.762" cy="67.819" rx="3.617" ry="1.158"></ellipse>
				
					<ellipse transform="matrix(0.8622 -0.5066 0.5066 0.8622 -21.7106 55.8335)" fill="#125D7A" cx="91.762" cy="67.819" rx="2.563" ry="0.821"></ellipse>
			</g>
		</g>
		<g>
			<path fill="#187AA0" stroke="#000000" stroke-width="0.3031" stroke-miterlimit="10" d="M82.948,68.358
				c1.221-0.717,2.489-0.824,2.832-0.239l0,0l1.49,2.549l-4.42,2.597l-1.49-2.549C81.017,70.131,81.728,69.075,82.948,68.358z"></path>
			<path fill="#187AA0" stroke="#000000" stroke-width="0.3031" stroke-miterlimit="10" d="M81.59,73.198
				c0.324,0.551,1.983,0.178,3.705-0.834c1.722-1.012,2.856-2.279,2.532-2.83l-0.235-0.401c-0.324-0.551-1.983-0.178-3.705,0.834
				c-1.722,1.012-2.856,2.279-2.532,2.83L81.59,73.198z"></path>
			<g>
				<path fill="#187AA0" stroke="#000000" stroke-width="0.3031" stroke-miterlimit="10" d="M81.825,73.599
					c0.324,0.551,1.983,0.178,3.705-0.834c1.722-1.012,2.856-2.279,2.532-2.83l-0.235-0.401c-0.324-0.551-1.983-0.178-3.705,0.834
					c-1.722,1.012-2.856,2.279-2.532,2.83L81.825,73.599z"></path>
				
					<ellipse transform="matrix(0.8622 -0.5066 0.5066 0.8622 -24.6503 52.9232)" fill="#187AA0" stroke="#000000" stroke-width="0.3031" stroke-miterlimit="10" cx="84.943" cy="71.767" rx="3.617" ry="1.158"></ellipse>
				
					<ellipse transform="matrix(0.8622 -0.5066 0.5066 0.8622 -24.6503 52.9232)" fill="#125D7A" cx="84.943" cy="71.767" rx="2.563" ry="0.821"></ellipse>
			</g>
		</g>
		<g>
			<path fill="#187AA0" stroke="#000000" stroke-width="0.3031" stroke-miterlimit="10" d="M76.032,77.212l-1.49-2.549
				c-0.344-0.585,0.367-1.641,1.587-2.358c1.221-0.717,2.489-0.824,2.832-0.239l0,0l1.49,2.549L76.032,77.212z"></path>
			<path fill="#187AA0" stroke="#000000" stroke-width="0.3031" stroke-miterlimit="10" d="M74.771,77.146
				c0.324,0.551,1.983,0.178,3.705-0.834s2.856-2.279,2.532-2.83l-0.235-0.401c-0.324-0.551-1.983-0.178-3.705,0.834
				c-1.722,1.012-2.856,2.279-2.532,2.83L74.771,77.146z"></path>
			<g>
				<path fill="#187AA0" stroke="#000000" stroke-width="0.3031" stroke-miterlimit="10" d="M75.006,77.547
					c0.324,0.551,1.983,0.178,3.705-0.834s2.856-2.279,2.532-2.83l-0.235-0.401c-0.324-0.551-1.983-0.178-3.705,0.834
					c-1.722,1.012-2.856,2.279-2.532,2.83L75.006,77.547z"></path>
				
					<ellipse transform="matrix(0.8622 -0.5066 0.5066 0.8622 -27.5899 50.0129)" fill="#187AA0" stroke="#000000" stroke-width="0.3031" stroke-miterlimit="10" cx="78.125" cy="75.714" rx="3.617" ry="1.158"></ellipse>
				
					<ellipse transform="matrix(0.8622 -0.5066 0.5066 0.8622 -27.5899 50.0129)" fill="#125D7A" cx="78.125" cy="75.714" rx="2.563" ry="0.821"></ellipse>
			</g>
		</g>
	</g>
	<polygon fill="#187AA0" points="78.549,72.041 74.86,73.82 74.162,72.382 77.605,70.813 	"></polygon>
	<polygon fill="#187AA0" points="85.256,68.139 81.567,69.918 80.869,68.48 84.312,66.911 	"></polygon>
	<polygon fill="#187AA0" points="92.181,64.57 88.492,66.349 87.794,64.911 91.236,63.342 	"></polygon>
	<polygon fill="#187AA0" points="99.056,60.233 95.366,62.012 94.668,60.574 98.111,59.005 	"></polygon>
	<path fill="#187AA0" stroke="#000000" stroke-width="0.3031" stroke-miterlimit="10" d="M81.129,41.466
		c0,0.972,1.305,1.76,2.915,1.76s2.915-0.788,2.915-1.76l-0.081-5.367c0-0.972-1.305-1.76-2.915-1.76
		c-1.61,0-2.915,0.788-2.915,1.76L81.129,41.466z"></path>
	<polyline fill="#187AA0" stroke="#000000" stroke-width="0.3031" stroke-miterlimit="10" points="77.492,57.026 81.964,54.444 
		81.964,53.972 77.492,51.39 73.019,53.972 73.019,54.444 	"></polyline>
	<path fill="#187AA0" stroke="#000000" stroke-width="0.3031" stroke-miterlimit="10" d="M80.52,51.089
		c0-1.248-1.675-2.259-3.742-2.259s-3.742,1.012-3.742,2.259v1.862c0,1.248,1.675,2.259,3.742,2.259s3.742-1.012,3.742-2.259V51.089
		z"></path>
	<ellipse fill="#3FA6CC" cx="76.778" cy="51.089" rx="3.742" ry="2.259"></ellipse>
	<path fill="#187AA0" stroke="#000000" stroke-width="0.3031" stroke-miterlimit="10" d="M80.641,48.48l-1.008,2.608
		c0,0.952-1.278,1.724-2.855,1.724c-1.577,0-2.855-0.772-2.855-1.724l-1.008-2.608"></path>
	<path fill="#187AA0" stroke="#000000" stroke-width="0.3031" stroke-miterlimit="10" d="M80.641,44.431
		c0-1.288-1.729-2.332-3.863-2.332s-3.863,1.044-3.863,2.332v4.05c0,1.288,1.729,2.332,3.863,2.332s3.863-1.044,3.863-2.332V44.431z
		"></path>
	<path fill="#187AA0" stroke="#000000" stroke-width="0.3031" stroke-miterlimit="10" d="M81.396,43.26
		c0-1.54-2.068-2.789-4.618-2.789S72.16,41.72,72.16,43.26v1.17c0,1.54,2.068,2.789,4.618,2.789s4.618-1.248,4.618-2.789"></path>
	<ellipse fill="#3FA6CC" cx="76.778" cy="43.26" rx="4.618" ry="2.789"></ellipse>
	<path fill="#187AA0" stroke="#000000" stroke-width="0.3031" stroke-miterlimit="10" d="M78.499,42.098
		c0-0.574-0.771-1.039-1.721-1.039s-1.721,0.465-1.721,1.039v1.162c0,0.574,0.771,1.039,1.721,1.039s1.721-0.465,1.721-1.039V42.098
		z"></path>
	<ellipse fill="#3FA6CC" cx="76.778" cy="42.098" rx="1.721" ry="1.039"></ellipse>
	<path fill="#187AA0" stroke="#000000" stroke-width="0.3031" stroke-miterlimit="10" d="M87.606,34.927
		c0-1.215-1.631-2.2-3.643-2.2s-3.643,0.985-3.643,2.2v0.953c0,1.215,1.631,2.2,3.643,2.2s3.643-0.985,3.643-2.2V34.927z"></path>
	<ellipse fill="#3896BA" cx="83.963" cy="34.927" rx="3.643" ry="2.2"></ellipse>
	<path fill="#187AA0" stroke="#000000" stroke-width="0.3031" stroke-miterlimit="10" d="M64.252,51.484
		c0-1.215-1.631-2.2-3.643-2.2s-3.643,0.985-3.643,2.2v0.953c0,1.215,1.631,2.2,3.643,2.2s3.643-0.985,3.643-2.2V51.484z"></path>
	<ellipse fill="#3896BA" cx="60.609" cy="51.484" rx="3.643" ry="2.2"></ellipse>
	<path fill="#187AA0" stroke="#000000" stroke-width="0.3031" stroke-miterlimit="10" d="M57.775,51.028
		c0,0.972,1.305,1.76,2.915,1.76c1.61,0,2.915-0.788,2.915-1.76l-0.081-5.367c0-0.972-1.305-1.76-2.915-1.76
		s-2.915,0.788-2.915,1.76L57.775,51.028z"></path>
	<g>
		<path fill="none" stroke="#000000" stroke-width="1.2126" stroke-miterlimit="10" d="M75.152,41.807c0,0-1.385-0.8-3.078-1.777
			c-1.693-0.977-3.078-0.39-3.078,1.306c0,1.696-1.385,2.283-3.078,1.306c-1.693-0.977-3.078-1.777-3.078-1.777"></path>
		<path fill="none" stroke="#999999" stroke-width="0.6063" stroke-linecap="round" stroke-miterlimit="10" d="M75.152,41.807
			c0,0-1.385-0.8-3.078-1.777c-1.693-0.977-3.078-0.39-3.078,1.306c0,1.696-1.385,2.283-3.078,1.306
			c-1.693-0.977-3.078-1.777-3.078-1.777"></path>
	</g>
	<path fill="#187AA0" stroke="#000000" stroke-width="0.3031" stroke-miterlimit="10" d="M57.754,56.74v1.875
		c0,0.98-0.523,1.886-1.372,2.376l-1.121,0.647l3.933,3.251l1.029-0.594c2.137-1.234,3.453-3.514,3.453-5.981v-2.232"></path>
	<g>
		<path fill="#187AA0" stroke="#000000" stroke-width="0.3031" stroke-miterlimit="10" d="M65.566,55.497
			c0.418,0.241,0.678,0.727,0.691,1.416c0.028,1.484-1.099,3.347-2.519,4.163c-0.761,0.437-1.451,0.484-1.932,0.205l-0.984-0.568
			c-0.416-0.241-0.676-0.727-0.689-1.415c-0.028-1.484,1.099-3.347,2.519-4.163c0.76-0.436,1.449-0.484,1.93-0.207L65.566,55.497z"></path>
		<path fill="#187AA0" d="M61.118,59.867c0.013,0.688,0.273,1.174,0.689,1.415c0.481,0.279,1.171,0.232,1.932-0.205
			c1.419-0.816,2.547-2.679,2.519-4.163c-0.013-0.69-0.274-1.176-0.691-1.416c-0.481-0.277-1.17-0.229-1.93,0.207
			C62.217,56.52,61.09,58.384,61.118,59.867z"></path>
		<path fill="#125D7A" d="M61.85,59.447c0.009,0.492,0.195,0.839,0.493,1.012c0.344,0.2,0.838,0.166,1.382-0.147
			c1.015-0.583,1.822-1.917,1.802-2.978c-0.009-0.493-0.196-0.841-0.495-1.013c-0.344-0.198-0.837-0.164-1.38,0.148
			C62.636,57.052,61.829,58.385,61.85,59.447z"></path>
	</g>
	<g>
		<path fill="#187AA0" stroke="#000000" stroke-width="0.3031" stroke-miterlimit="10" d="M54.984,60.79
			c-0.418,0.241-0.678,0.727-0.691,1.416c-0.028,1.484,1.099,3.347,2.519,4.163c0.761,0.437,1.451,0.484,1.932,0.205l0.984-0.568
			c0.416-0.241,0.676-0.727,0.689-1.415c0.028-1.484-1.099-3.347-2.519-4.163c-0.76-0.436-1.449-0.484-1.93-0.207L54.984,60.79z"></path>
		<path fill="#187AA0" d="M59.432,65.16c-0.013,0.688-0.273,1.174-0.689,1.415c-0.481,0.279-1.171,0.232-1.932-0.205
			c-1.419-0.816-2.547-2.679-2.519-4.163c0.013-0.69,0.274-1.176,0.691-1.416c0.481-0.277,1.17-0.229,1.93,0.207
			C58.332,61.812,59.46,63.676,59.432,65.16z"></path>
		<path fill="#3FA6CC" d="M57.897,60.429l-0.984,0.568c0.821,0.472,1.536,1.297,1.994,2.194l0.984-0.568
			C59.432,61.726,58.718,60.901,57.897,60.429z"></path>
		<path fill="#3FA6CC" d="M62.653,55.136l0.984,0.568c-0.821,0.472-1.536,1.297-1.994,2.194l-0.984-0.568
			C61.117,56.433,61.832,55.608,62.653,55.136z"></path>
		<path fill="#125D7A" d="M58.7,64.739c-0.009,0.492-0.195,0.839-0.493,1.012c-0.344,0.2-0.838,0.166-1.382-0.147
			c-1.015-0.583-1.822-1.917-1.802-2.978c0.009-0.493,0.196-0.841,0.495-1.013c0.344-0.198,0.837-0.164,1.38,0.148
			C57.914,62.345,58.72,63.678,58.7,64.739z"></path>
	</g>
	<path fill="#FFFFFF" stroke="#00467F" stroke-width="0.6063" stroke-miterlimit="10" d="M57.571,32.649
		c-1.691,0.972-3.274,2.32-4.667,3.883l9.348-5.397C60.838,31.197,59.248,31.686,57.571,32.649z"></path>
	<path fill="#187AA0" stroke="#000000" stroke-width="0.3031" stroke-miterlimit="10" d="M77.618,57.782
		c0.252-0.882,2.078-2.015,2.078-2.015s1.511-1.134,2.456-0.693"></path>
	<g>
		
			<line fill="none" stroke="#000000" stroke-width="2.4252" stroke-linecap="round" stroke-miterlimit="10" x1="43.346" y1="52.063" x2="21.052" y2="39.192"></line>
		
			<line fill="none" stroke="#FFFFFF" stroke-width="1.8189" stroke-linecap="round" stroke-miterlimit="10" x1="43.346" y1="52.063" x2="21.052" y2="39.192"></line>
	</g>
	<g>
		
			<line fill="none" stroke="#000000" stroke-width="3.6377" stroke-miterlimit="10" x1="36.306" y1="47.999" x2="28.093" y2="43.257"></line>
		
			<line fill="none" stroke="#CCCCCC" stroke-width="3.0315" stroke-linecap="round" stroke-miterlimit="10" x1="36.306" y1="47.999" x2="28.093" y2="43.257"></line>
	</g>
	<g>
		<path fill="none" stroke="#000000" stroke-width="2.4252" stroke-linecap="round" stroke-miterlimit="10" d="M21.176,21.656
			l2.258,1.304c1.155,0.667,2.1,2.304,2.1,3.638v9.711c0,1.334,0.945,2.971,2.1,3.638l18.093,10.446
			c1.155,0.667,2.486,1.015,2.958,0.773s0.858-0.44,0.858-0.44"></path>
		<path fill="none" stroke="#666666" stroke-width="1.8189" stroke-linecap="round" stroke-miterlimit="10" d="M21.176,21.656
			l2.258,1.304c1.155,0.667,2.1,2.304,2.1,3.638v9.711c0,1.334,0.945,2.971,2.1,3.638l18.093,10.446
			c1.155,0.667,2.486,1.015,2.958,0.773s0.858-0.44,0.858-0.44"></path>
	</g>
	<path fill="#187AA0" stroke="#000000" stroke-width="0.3031" stroke-miterlimit="10" d="M58.348,31.548V29.43L36.765,16.97
		c-0.458-0.264-1.022-0.264-1.48,0l-4.471,2.581c-0.458,0.264-0.74,0.753-0.74,1.282v1.892l0.054,0.031
		c-0.742,0.631-1.452,1.326-2.117,2.072l23.905,13.802l9.348-5.397L58.348,31.548z"></path>
	<polygon fill="#3896BA" points="53.137,32.439 57.608,29.857 35.285,16.97 30.814,19.551 	"></polygon>
	<path fill="#3FA6CC" d="M30.814,19.551c-0.458,0.264-0.74,0.753-0.74,1.282L52.397,33.72c0-0.529,0.282-1.017,0.74-1.282"></path>
	<polyline fill="#CCCCCC" stroke="#000000" stroke-width="0.3031" stroke-miterlimit="10" points="12.743,44.92 9.688,36.772 
		9.688,29.971 10.551,29.601 16.862,46.43 15.998,46.8 	"></polyline>
	<polygon fill="#F2F2F2" points="9.688,29.971 10.551,29.601 16.862,46.43 15.998,46.8 	"></polygon>
	<path fill="#A66B6B" stroke="#000000" stroke-width="0.3031" stroke-miterlimit="10" d="M55.291,23.034
		c0.494,0.286,1.202,0.238,1.983-0.211c1.456-0.837,2.614-2.75,2.585-4.272c-0.013-0.708-0.281-1.206-0.709-1.454l-2.532-1.462
		L46.541,9.818c-0.493-0.285-1.201-0.235-1.98,0.212c-1.456,0.837-2.614,2.75-2.585,4.272c0.013,0.706,0.28,1.204,0.707,1.452
		L55.291,23.034z"></path>
	<path fill="#7D4747" stroke="#000000" stroke-width="0.3031" stroke-miterlimit="10" d="M55.291,23.034
		c0.494,0.286,1.202,0.238,1.983-0.211c1.456-0.837,2.614-2.75,2.585-4.272c-0.013-0.708-0.281-1.206-0.709-1.454
		c-0.493-0.285-1.201-0.235-1.98,0.212c-1.456,0.837-2.614,2.75-2.585,4.272C54.598,22.288,54.864,22.787,55.291,23.034z"></path>
	<path fill="#B88181" d="M54.585,21.582c-0.029-1.522,1.128-3.435,2.585-4.272L44.56,10.03c-1.456,0.837-2.614,2.75-2.585,4.272
		L54.585,21.582z"></path>
	<path fill="#A66B6B" stroke="#000000" stroke-width="0.3031" stroke-miterlimit="10" d="M61.638,18.535
		c0.429,0.247,0.696,0.746,0.709,1.454c0.029,1.522-1.128,3.435-2.585,4.272c-0.781,0.449-1.489,0.497-1.983,0.211l-0.805-0.465
		c-0.427-0.248-0.693-0.746-0.707-1.452c-0.029-1.522,1.128-3.435,2.585-4.272c0.779-0.448,1.487-0.497,1.98-0.212L61.638,18.535z"></path>
	<path fill="#7D4747" stroke="#000000" stroke-width="0.3031" stroke-miterlimit="10" d="M57.78,24.471
		c0.494,0.286,1.202,0.238,1.983-0.211c1.456-0.837,2.614-2.75,2.585-4.272c-0.013-0.708-0.281-1.206-0.709-1.454
		c-0.493-0.285-1.201-0.235-1.98,0.212c-1.456,0.837-2.614,2.75-2.585,4.272C57.087,23.725,57.353,24.224,57.78,24.471z"></path>
	<polygon fill="#A66B6B" stroke="#000000" stroke-width="0.3031" stroke-miterlimit="10" points="61.455,26.911 58.029,28.889 
		58.029,20.694 60.945,19.01 61.455,19.333 	"></polygon>
	<path fill="#7D4747" stroke="#000000" stroke-width="0.3031" stroke-miterlimit="10" d="M59.24,23.109
		c0.246,0.143,0.6,0.119,0.99-0.105c0.727-0.418,1.305-1.373,1.29-2.133c-0.007-0.353-0.14-0.602-0.354-0.726
		c-0.246-0.142-0.599-0.118-0.989,0.106c-0.727,0.418-1.305,1.373-1.29,2.133C58.894,22.736,59.027,22.985,59.24,23.109z"></path>
	<g>
		<path fill="none" stroke="#000000" stroke-width="3.0315" stroke-miterlimit="10" d="M60.486,21.743c0,0,0.735,0.424,1.633,0.943
			c0.898,0.519,1.633-1.24,1.633-3.907v-7.098"></path>
		<path fill="none" stroke="#7D4747" stroke-width="2.4252" stroke-linecap="round" stroke-miterlimit="10" d="M60.486,21.743
			c0,0,0.735,0.424,1.633,0.943c0.898,0.519,1.633-1.24,1.633-3.907v-7.098"></path>
	</g>
	<g>
		<path fill="#187AA0" stroke="#000000" stroke-width="0.3031" stroke-miterlimit="10" d="M50.501,41.815
			c-0.565,0.328-1.377,0.273-2.271-0.242c-1.668-0.959-2.994-3.15-2.961-4.894c0.015-0.811,0.322-1.382,0.813-1.665l8.802-5.082
			l8.54-4.931c0.565-0.326,1.375-0.27,2.268,0.243c1.668,0.959,2.994,3.15,2.961,4.894c-0.015,0.809-0.32,1.379-0.809,1.663
			L50.501,41.815z"></path>
		
			<line fill="none" stroke="#3896BA" stroke-width="0.6063" stroke-linecap="round" stroke-miterlimit="10" x1="47.981" y1="35.343" x2="65.324" y2="25.33"></line>
		<path fill="#125D7A" d="M50.281,41.477c0.44-0.255,0.715-0.769,0.729-1.497c0.03-1.57-1.164-3.543-2.666-4.406
			c-0.804-0.462-1.533-0.513-2.042-0.219c-0.442,0.255-0.718,0.769-0.732,1.499c-0.03,1.57,1.164,3.543,2.666,4.406
			C49.041,41.722,49.772,41.772,50.281,41.477z"></path>
		<path d="M50.501,41.815c0.489-0.284,0.794-0.854,0.809-1.663l17.343-10.013c-0.015,0.809-0.32,1.379-0.809,1.663L50.501,41.815z"></path>
		<path fill="#187AA0" stroke="#000000" stroke-width="0.3031" stroke-miterlimit="10" d="M55.187,32.335
			c0-1.046-1.405-1.895-3.138-1.895c-1.733,0-3.138,0.848-3.138,1.895v0.821c0,1.046,1.405,1.895,3.138,1.895
			c1.733,0,3.138-0.848,3.138-1.895V32.335z"></path>
		<ellipse fill="#3896BA" cx="52.05" cy="32.335" rx="3.138" ry="1.895"></ellipse>
		<path fill="#187AA0" stroke="#000000" stroke-width="0.3031" stroke-miterlimit="10" d="M49.656,28.368
			c0-0.798,1.071-1.445,2.393-1.445c1.322,0,2.393,0.647,2.393,1.445v3.967c0,0.798-1.071,1.445-2.393,1.445
			c-1.322,0-2.393-0.647-2.393-1.445V28.368z"></path>
		
			<ellipse fill="#187AA0" stroke="#000000" stroke-width="0.3031" stroke-miterlimit="10" cx="52.05" cy="28.184" rx="3.779" ry="2.282"></ellipse>
		<path fill="#187AA0" stroke="#000000" stroke-width="0.3031" stroke-miterlimit="10" d="M48.271,28.184
			c0-1.444,1.692-2.614,3.779-2.614c2.087,0,3.779,1.17,3.779,2.614"></path>
	</g>
	
		<ellipse fill="#A66B6B" stroke="#000000" stroke-width="0.3031" stroke-miterlimit="10" cx="63.551" cy="11.613" rx="1.56" ry="0.942"></ellipse>
	<polyline fill="#7D4747" stroke="#000000" stroke-width="0.3031" stroke-miterlimit="10" points="64.167,11.366 63.466,10.314 
		62.619,10.164 62.113,11.295 	"></polyline>
	
		<line fill="#FFFFFF" stroke="#000000" stroke-width="0.3031" stroke-miterlimit="10" x1="26.096" y1="46.142" x2="30.104" y2="43.839"></line>
	<g>
		<path fill="#C1272D" stroke="#000000" stroke-width="0.3031" stroke-miterlimit="10" d="M43.852,45.19v7.152
			c0,0.998-0.809,1.472-1.808,1.472c-0.998,0-1.808-0.473-1.808-1.472V45.19"></path>
		<polyline fill="#CCCCCC" stroke="#000000" stroke-width="0.3031" points="44.895,45.66 42.068,47.292 38.044,44.969 
			38.044,44.366 42.068,42.043 46.091,44.366 46.091,47.787 45.465,48.148 44.155,47.368 44.175,46.197 		"></polyline>
		<path fill="#CCCCCC" stroke="#000000" stroke-width="0.3031" d="M43.916,42.939c-0.306-0.464-1.053-0.792-1.93-0.792
			c-0.877,0-1.624,0.329-1.93,0.792c-0.28,0.235-0.449,0.522-0.449,0.834v0.762c0,0.793,1.065,1.436,2.378,1.436
			c1.313,0,2.378-0.643,2.378-1.436v-0.762C44.365,43.461,44.196,43.174,43.916,42.939z"></path>
	</g>
	<g>
		<path fill="#CCCCCC" stroke="#000000" stroke-width="0.3031" d="M34.949,47.584v0.722c0,0.814-1.093,1.474-2.441,1.474
			c-1.348,0-2.441-0.66-2.441-1.474v-0.722l0,0.03c-0.111-0.175-0.174-0.364-0.174-0.563v-0.385c0-0.041,0.005-0.081,0.01-0.122
			v-1.889v-0.111v-0.01l0.043-0.016v-0.138l0.048-0.111l0.083-0.03v-0.118l0.077-0.101l0.165-0.048v-0.131l0.133-0.115l0.226-0.034
			c0.01-0.015,0.021-0.03,0.032-0.044V43.55l0.16-0.081c0.363-0.34,0.961-0.562,1.638-0.562c0.677,0,1.274,0.222,1.637,0.562
			l0.161,0.082v0.099c0.011,0.014,0.022,0.029,0.032,0.043l0.227,0.034l0.133,0.115v0.131l0.165,0.048l0.077,0.101v0.118l0.083,0.03
			l0.048,0.111v0.138l0.043,0.016v0.01v0.111v1.896c0.005,0.038,0.01,0.076,0.01,0.115v0.385c0,0.199-0.063,0.388-0.174,0.563"></path>
		<path fill="none" stroke="#000000" stroke-width="0.3031" d="M29.893,47.051c0,0.872,1.171,1.579,2.615,1.579
			c1.444,0,2.615-0.707,2.615-1.579"></path>
		<line fill="none" stroke="#000000" stroke-width="0.3031" x1="33.971" y1="48.526" x2="33.971" y2="49.14"></line>
		<line fill="none" stroke="#000000" stroke-width="0.3031" x1="34.767" y1="47.956" x2="34.767" y2="48.57"></line>
		<line fill="none" stroke="#000000" stroke-width="0.3031" x1="32.063" y1="48.802" x2="32.063" y2="49.416"></line>
		<line fill="none" stroke="#000000" stroke-width="0.3031" x1="30.434" y1="48.233" x2="30.434" y2="48.847"></line>
		<path fill="none" d="M32.188,48.907c0.105,0.008,0.212,0.012,0.32,0.012c0.497,0,0.962-0.084,1.358-0.229v-0.096
			c-0.396,0.146-0.861,0.229-1.358,0.229c-0.108,0-0.215-0.004-0.32-0.012V48.907z"></path>
		<path fill="none" stroke="#000000" stroke-width="0.3031" d="M34.513,44.408c0,0.669-0.898,1.211-2.005,1.211
			c-1.107,0-2.005-0.542-2.005-1.211"></path>
		<polygon fill="#29ABE2" points="32.986,43.144 32.867,43.224 33.163,43.272 33.206,43.173 		"></polygon>
		<polygon points="33.001,43.16 32.867,43.224 33.163,43.272 33.221,43.189 		"></polygon>
	</g>
	<g>
		<polygon fill="#E6E6E6" stroke="#000000" stroke-width="0.3031" stroke-linejoin="round" stroke-miterlimit="10" points="
			15.387,48.35 19.685,45.869 30.501,52.114 30.501,50.728 19.685,44.483 15.387,46.965 		"></polygon>
		<g>
			<polygon fill="#F7F9C7" stroke="#000000" stroke-width="0.3031" stroke-linejoin="round" stroke-miterlimit="10" points="
				16.36,42.341 16.36,48.216 26.127,53.855 30.008,51.615 30.008,43.755 22.542,39.444 20.24,40.1 			"></polygon>
		</g>
		<polygon fill="#DADBAF" points="21.423,43.672 20.327,43.195 16.761,45.254 16.761,47.932 25.726,53.108 26.135,53.243 
			29.567,51.271 29.567,48.374 		"></polygon>
		<polyline fill="none" stroke="#808080" stroke-width="0.1516" stroke-linejoin="round" stroke-miterlimit="10" points="
			17.131,45.356 26.054,50.508 29.422,48.563 		"></polyline>
		<polyline fill="none" stroke="#808080" stroke-width="0.3031" stroke-linejoin="round" stroke-miterlimit="10" points="
			26.127,53.855 26.127,45.996 18.661,41.685 16.36,42.341 		"></polyline>
		<polygon fill="#F7F9DB" points="18.661,41.685 26.127,45.996 30.008,43.755 22.542,39.444 		"></polygon>
		<polygon fill="none" stroke="#666666" stroke-width="0.1516" stroke-miterlimit="10" points="18.587,42.267 16.761,42.787 
			16.761,47.932 25.726,53.108 25.726,46.388 		"></polygon>
		<polyline fill="none" stroke="#808080" stroke-width="0.1516" stroke-miterlimit="10" points="29.567,44.181 29.567,51.271 
			26.135,53.243 		"></polyline>
		
			<line fill="none" stroke="#000000" stroke-width="1.8189" stroke-linecap="round" stroke-linejoin="round" stroke-miterlimit="10" x1="20.102" y1="40.398" x2="18.964" y2="41.056"></line>
	</g>
	<path fill="#187AA0" stroke="#000000" stroke-width="0.3031" stroke-miterlimit="10" d="M57.726,45.892
		c-0.087-4.551,3.373-10.269,7.726-12.771l-0.003-0.006l10.268-5.928c4.986-2.879,11.219,0.72,11.219,6.477v0l0.022,0.806
		c0,0.972-1.305,1.76-2.915,1.76s-2.915-0.788-2.915-1.76l0.151,0.964c-0.024-1.286-0.509-2.193-1.287-2.644
		c-0.899-0.521-2.189-0.433-3.611,0.384l-8.153,4.707c-2.652,1.524-4.759,5.007-4.706,7.779"></path>
	<polygon fill="#E6E6E6" stroke="#000000" stroke-width="0.3031" stroke-linejoin="round" stroke-miterlimit="10" points="
		30.501,50.728 30.042,50.747 26.204,52.963 15.856,46.988 15.387,46.965 15.387,48.35 26.204,54.595 30.501,52.114 	"></polygon>
	
		<ellipse transform="matrix(0.489 -0.8723 0.8723 0.489 -2.7307 73.9098)" fill="#3896BA" cx="61.719" cy="39.286" rx="2.453" ry="1.084"></ellipse>
	<path fill="none" stroke="#3896BA" stroke-width="0.6063" stroke-linecap="round" stroke-miterlimit="10" d="M59.71,45.834
		c-0.081-4.279,3.171-9.655,7.265-12.008l-0.003-0.005"></path>
	<polygon fill="#3FA6CC" points="63.332,64.901 64.112,64.901 64.503,64.497 64.112,64.092 63.332,64.092 62.942,64.497 	"></polygon>
	<polygon fill="#3FA6CC" points="62.351,66.381 63.132,66.381 63.522,65.976 63.132,65.572 62.351,65.572 61.961,65.976 	"></polygon>
	<polyline fill="none" stroke="#FFFFFF" stroke-width="0.1516" stroke-linejoin="round" stroke-miterlimit="10" points="
		30.501,50.852 26.204,53.333 15.387,47.088 	"></polyline>
</g>
</svg>