<!--?xml version="1.0" encoding="utf-8"?--><svg style="display:block;width:100%;height:100%;" version="1.1" id="Layer_1" xmlns="http://www.w3.org/2000/svg" xmlns:xlink="http://www.w3.org/1999/xlink" viewBox="0 0 989.32 771.117" xml:space="preserve">
<polygon fill="#B3B3B3" stroke="#000000" stroke-miterlimit="10" points="756.48,177.246 0.5,613.712 0.5,636.398 25.987,651.113 
	36.38,645.113 207.786,744.075 207.786,756.075 232.84,770.54 988.82,334.075 988.82,311.388 "></polygon>
<polygon fill="#E6E6E6" points="0.5,613.712 756.48,177.246 988.82,311.388 232.84,747.853 "></polygon>
<polygon fill="#B3B3B3" stroke="#000000" stroke-linecap="round" stroke-linejoin="round" stroke-miterlimit="10" points="
	86.1,611.423 86.1,293.614 79.643,289.886 60.486,300.946 60.486,618.755 66.944,622.483 "></polygon>
<polygon fill="#4D4D4D" points="60.486,300.946 66.944,304.674 66.944,622.483 60.486,618.755 "></polygon>
<polygon fill="#4D4D4D" stroke="#000000" stroke-miterlimit="10" points="300.499,572.367 201.441,515.176 194.945,518.926 
	194.945,569.831 294.003,627.022 300.499,623.271 "></polygon>
<polygon fill="#4D4D4D" stroke="#000000" stroke-miterlimit="10" points="416.983,504.494 317.925,447.303 311.429,451.054 
	311.429,501.958 410.487,559.149 416.983,555.398 "></polygon>
<path fill="#B3B3B3" stroke="#000000" stroke-linecap="round" stroke-linejoin="round" stroke-miterlimit="10" d="M81.561,660.512
	l4.972-2.871V560.47l-1.793-1.058c-0.673,0.997-1.504,1.783-2.467,2.337c-2.914,1.677-7.017,1.265-11.473-1.616
	c-5.397-3.489-9.969-9.743-12.403-16.255l-1.315-0.776l-4.972,2.871v97.535L81.561,660.512z"></path>
<path fill="#4D4D4D" d="M81.561,563.34l-1.793-1.058c-0.673,0.997-1.504,1.783-2.467,2.337c-2.914,1.677-7.017,1.265-11.473-1.616
	c-5.397-3.489-9.969-9.743-12.403-16.255l-1.315-0.776v97.535l29.452,17.004V563.34z"></path>
<polygon points="36.38,645.113 25.987,639.113 25.987,651.113 "></polygon>
<g>
	<polygon fill="#B3B3B3" stroke="#000000" stroke-linecap="round" stroke-linejoin="round" stroke-miterlimit="10" points="
		634.581,486.14 938.6,310.46 938.6,127.04 902.78,65.66 790.28,0.5 486.26,176.18 450.44,196.52 450.44,379.94 	"></polygon>
	<polygon fill="#B3B3B3" stroke="#000000" stroke-linecap="round" stroke-linejoin="round" stroke-miterlimit="10" points="
		634.581,486.14 633.86,303.8 598.04,242.42 485.54,177.26 450.44,196.52 450.44,379.94 	"></polygon>
	<polygon fill="#CCCCCC" stroke="#000000" stroke-linecap="round" stroke-linejoin="round" stroke-miterlimit="10" points="
		633.86,303.8 634.581,486.14 938.6,310.46 938.6,127.04 	"></polygon>
	<polygon fill="#E6E6E6" points="485.54,177.26 598.04,242.42 633.86,303.8 938.6,127.04 902.78,65.66 790.28,0.5 	"></polygon>
	<polygon fill="#F2F2F2" points="598.04,242.42 633.86,303.8 938.6,127.04 902.78,65.66 	"></polygon>
	<path fill="none" stroke="#000000" stroke-miterlimit="10" d="M582.5,346.079c-0.526,11.421-4.827,19.368-11.475,23.193
		c-7.685,4.422-18.507,3.335-30.257-4.262c-21.915-14.168-38.762-45.615-37.629-70.238c0.527-11.446,4.845-19.403,11.518-23.218
		c7.683-4.393,18.485-3.296,30.214,4.286C566.786,290.008,583.633,321.455,582.5,346.079z"></path>
</g>
<g>
	<g>
		<line fill="none" stroke="#00467F" stroke-miterlimit="10" x1="456.62" y1="548.471" x2="450.124" y2="544.721"></line>
		<path fill="#B3B3B3" stroke="#000000" stroke-linecap="round" stroke-linejoin="round" stroke-miterlimit="10" d="
			M367.561,504.159c-0.787-0.45-1.894-0.338-3.095,0.439c-2.245,1.451-3.971,4.673-3.855,7.196c0.054,1.17,0.494,1.984,1.176,2.376
			l47.652,27.512c0.787,0.453,1.896,0.342,3.1-0.437c2.245-1.451,3.971-4.673,3.855-7.196c-0.054-1.173-0.496-1.988-1.18-2.379
			L367.561,504.159z"></path>
		<path fill="#B3B3B3" stroke="#000000" stroke-linecap="round" stroke-linejoin="round" stroke-miterlimit="10" d="
			M423.184,552.563c1.123,0.646,2.703,0.487,4.42-0.622c3.201-2.07,5.662-6.663,5.497-10.26c-0.077-1.672-0.708-2.834-1.683-3.392
			l-14.976-8.75c-1.122-0.642-2.7-0.481-4.414,0.626c-3.201,2.07-5.662,6.663-5.497,10.26c0.077,1.668,0.705,2.829,1.676,3.388
			L423.184,552.563z"></path>
		<path fill="#B3B3B3" d="M423.565,552.58c-0.971-0.559-1.599-1.72-1.676-3.388c-0.166-3.597,2.295-8.191,5.497-10.26
			c1.713-1.108,3.291-1.268,4.414-0.626c0.975,0.557,1.606,1.72,1.683,3.392c0.166,3.597-2.295,8.191-5.497,10.26
			C426.269,553.067,424.688,553.226,423.565,552.58z"></path>
		<path fill="#B3B3B3" stroke="#000000" stroke-linecap="round" stroke-linejoin="round" stroke-miterlimit="10" d="
			M430.796,540.341c-0.787-0.45-1.894-0.338-3.095,0.439c-2.245,1.451-3.971,4.673-3.855,7.196c0.054,1.17,0.494,1.984,1.176,2.376
			l11.349,6.552c0.787,0.453,1.896,0.342,3.1-0.437c2.245-1.451,3.971-4.673,3.855-7.196c-0.054-1.173-0.496-1.988-1.18-2.379
			L430.796,540.341z"></path>
		<path fill="#B3B3B3" stroke="#000000" stroke-linecap="round" stroke-linejoin="round" stroke-miterlimit="10" d="
			M441.606,562.975c1.123,0.646,2.703,0.487,4.42-0.622c3.201-2.07,5.662-6.663,5.497-10.26c-0.077-1.672-0.708-2.834-1.683-3.392
			l-6.467-3.939c-1.122-0.642-2.7-0.481-4.414,0.626c-3.201,2.07-5.662,6.663-5.497,10.26c0.077,1.668,0.705,2.829,1.676,3.388
			L441.606,562.975z"></path>
		<polygon fill="#B3B3B3" stroke="#000000" stroke-linecap="round" stroke-linejoin="round" stroke-miterlimit="10" points="
			447.825,570.708 456.62,565.635 461.018,554.517 456.62,548.471 450.124,544.721 441.329,549.793 436.931,560.912 
			441.329,566.957 		"></polygon>
		<polygon fill="#E6E6E6" points="441.329,549.793 450.124,544.721 456.62,548.471 447.825,553.544 		"></polygon>
		<polygon fill="#B3B3B3" points="456.62,548.471 461.018,554.517 456.62,565.635 447.825,570.708 443.427,564.662 447.825,553.544 
					"></polygon>
		<path d="M449.333,564.594c-0.681-0.392-1.122-1.206-1.176-2.376c-0.116-2.523,1.61-5.744,3.855-7.196
			c1.201-0.777,2.308-0.889,3.095-0.439c0.684,0.391,1.126,1.206,1.18,2.379c0.116,2.523-1.61,5.744-3.855,7.196
			C451.229,564.935,450.12,565.047,449.333,564.594z"></path>
		<path fill="#B3B3B3" stroke="#000000" stroke-linecap="round" stroke-linejoin="round" stroke-miterlimit="10" d="
			M426.873,530.289c0-1.849-2.592-3.348-5.79-3.348c-3.198,0-5.79,1.499-5.79,3.348v5.137c0,1.849,2.592,3.348,5.79,3.348
			c3.198,0,5.79-1.499,5.79-3.348V530.289z"></path>
		<g>
			<path fill="#006CC2" stroke="#000000" stroke-linecap="round" stroke-linejoin="round" stroke-miterlimit="10" d="
				M393.548,539.491c0-0.459,0.227-0.918,0.682-1.181l25.753-14.869c1.266-0.731,2.825-0.731,4.09,0l5.058,2.92
				c0.454,0.262,0.682,0.722,0.682,1.181v1.543c0,0.459-0.227,0.918-0.682,1.181l-25.753,14.869c-1.266,0.731-2.825,0.731-4.09,0
				l-5.058-2.92c-0.454-0.262-0.682-0.722-0.682-1.181V539.491z"></path>
			<path fill="#2F92E0" d="M419.982,523.441l-25.753,14.869c-0.454,0.262-0.682,0.722-0.682,1.181s0.227,0.918,0.682,1.181
				l5.058,2.92c1.266,0.731,2.825,0.731,4.09,0l25.753-14.869c0.454-0.262,0.682-0.722,0.682-1.181s-0.227-0.918-0.682-1.181
				l-5.058-2.92C422.807,522.711,421.248,522.711,419.982,523.441z"></path>
		</g>
	</g>
	<g>
		<line fill="none" stroke="#00467F" stroke-miterlimit="10" x1="417.362" y1="571.137" x2="410.866" y2="567.386"></line>
		<path fill="#B3B3B3" stroke="#000000" stroke-linecap="round" stroke-linejoin="round" stroke-miterlimit="10" d="
			M328.303,526.825c-0.787-0.45-1.894-0.338-3.095,0.439c-2.245,1.451-3.971,4.673-3.855,7.196c0.054,1.17,0.495,1.984,1.176,2.376
			l47.652,27.512c0.787,0.453,1.896,0.342,3.1-0.437c2.245-1.451,3.971-4.673,3.855-7.196c-0.054-1.173-0.496-1.988-1.18-2.379
			L328.303,526.825z"></path>
		<path fill="#B3B3B3" stroke="#000000" stroke-linecap="round" stroke-linejoin="round" stroke-miterlimit="10" d="
			M383.926,575.229c1.123,0.646,2.703,0.487,4.42-0.623c3.201-2.07,5.662-6.663,5.497-10.26c-0.077-1.672-0.708-2.834-1.683-3.392
			l-14.976-8.75c-1.122-0.642-2.7-0.482-4.414,0.626c-3.201,2.07-5.662,6.663-5.497,10.26c0.077,1.668,0.705,2.829,1.676,3.388
			L383.926,575.229z"></path>
		<path fill="#B3B3B3" d="M384.307,575.246c-0.971-0.559-1.599-1.72-1.676-3.388c-0.166-3.597,2.295-8.191,5.497-10.26
			c1.713-1.108,3.291-1.268,4.414-0.626c0.975,0.557,1.606,1.72,1.683,3.392c0.165,3.597-2.296,8.191-5.497,10.26
			C387.011,575.733,385.43,575.892,384.307,575.246z"></path>
		<path fill="#B3B3B3" stroke="#000000" stroke-linecap="round" stroke-linejoin="round" stroke-miterlimit="10" d="
			M391.538,563.007c-0.787-0.45-1.894-0.338-3.095,0.439c-2.245,1.451-3.971,4.673-3.855,7.196c0.054,1.17,0.495,1.984,1.176,2.376
			l11.349,6.552c0.787,0.453,1.896,0.342,3.1-0.437c2.245-1.451,3.971-4.673,3.855-7.196c-0.054-1.173-0.496-1.988-1.18-2.379
			L391.538,563.007z"></path>
		<path fill="#B3B3B3" stroke="#000000" stroke-linecap="round" stroke-linejoin="round" stroke-miterlimit="10" d="M402.348,585.64
			c1.123,0.646,2.703,0.487,4.42-0.622c3.201-2.07,5.662-6.663,5.497-10.26c-0.077-1.672-0.708-2.834-1.683-3.392l-6.467-3.939
			c-1.122-0.642-2.7-0.481-4.414,0.626c-3.201,2.07-5.662,6.663-5.497,10.26c0.077,1.668,0.705,2.829,1.676,3.388L402.348,585.64z"></path>
		<polygon fill="#B3B3B3" stroke="#000000" stroke-linecap="round" stroke-linejoin="round" stroke-miterlimit="10" points="
			408.567,593.373 417.362,588.301 421.76,577.183 417.362,571.137 410.866,567.386 402.071,572.459 397.673,583.577 
			402.071,589.623 		"></polygon>
		<polygon fill="#E6E6E6" points="402.071,572.459 410.866,567.386 417.362,571.137 408.567,576.21 		"></polygon>
		<polygon fill="#B3B3B3" points="417.362,571.137 421.76,577.183 417.362,588.301 408.567,593.373 404.169,587.328 408.567,576.21 
					"></polygon>
		<path d="M410.075,587.259c-0.681-0.392-1.122-1.206-1.176-2.376c-0.116-2.523,1.61-5.744,3.855-7.196
			c1.202-0.777,2.308-0.889,3.095-0.439c0.684,0.391,1.126,1.206,1.18,2.379c0.116,2.523-1.61,5.744-3.855,7.196
			C411.971,587.601,410.862,587.712,410.075,587.259z"></path>
		<path fill="#B3B3B3" stroke="#000000" stroke-linecap="round" stroke-linejoin="round" stroke-miterlimit="10" d="
			M387.615,552.955c0-1.849-2.592-3.348-5.79-3.348s-5.79,1.499-5.79,3.348v5.137c0,1.849,2.592,3.348,5.79,3.348
			s5.79-1.499,5.79-3.348V552.955z"></path>
		<g>
			<path fill="#006CC2" stroke="#000000" stroke-linecap="round" stroke-linejoin="round" stroke-miterlimit="10" d="
				M354.29,562.156c0-0.459,0.227-0.918,0.682-1.181l25.753-14.869c1.266-0.731,2.825-0.731,4.09,0l5.058,2.92
				c0.454,0.262,0.682,0.722,0.682,1.181v1.543c0,0.459-0.227,0.918-0.682,1.181l-25.753,14.869c-1.266,0.731-2.825,0.731-4.09,0
				l-5.058-2.92c-0.454-0.262-0.682-0.722-0.682-1.181V562.156z"></path>
			<path fill="#2F92E0" d="M380.724,546.107l-25.753,14.869c-0.454,0.262-0.682,0.722-0.682,1.181s0.227,0.918,0.682,1.181
				l5.058,2.92c1.266,0.731,2.825,0.731,4.09,0l25.753-14.869c0.454-0.262,0.682-0.722,0.682-1.181s-0.227-0.918-0.682-1.181
				l-5.058-2.92C383.549,545.376,381.99,545.376,380.724,546.107z"></path>
		</g>
	</g>
	<g>
		<line fill="none" stroke="#00467F" stroke-miterlimit="10" x1="378.104" y1="593.803" x2="371.608" y2="590.052"></line>
		<path fill="#B3B3B3" stroke="#000000" stroke-linecap="round" stroke-linejoin="round" stroke-miterlimit="10" d="
			M289.045,549.491c-0.787-0.45-1.894-0.338-3.095,0.439c-2.245,1.451-3.971,4.673-3.855,7.196c0.054,1.17,0.494,1.984,1.176,2.376
			l47.652,27.512c0.787,0.453,1.896,0.342,3.1-0.437c2.245-1.451,3.971-4.673,3.855-7.196c-0.054-1.173-0.496-1.988-1.18-2.379
			L289.045,549.491z"></path>
		<path fill="#B3B3B3" stroke="#000000" stroke-linecap="round" stroke-linejoin="round" stroke-miterlimit="10" d="
			M344.668,597.894c1.123,0.646,2.703,0.487,4.42-0.622c3.201-2.07,5.662-6.663,5.497-10.26c-0.077-1.672-0.708-2.834-1.683-3.392
			l-14.976-8.75c-1.122-0.642-2.7-0.481-4.414,0.626c-3.201,2.07-5.662,6.663-5.497,10.26c0.077,1.668,0.705,2.829,1.676,3.388
			L344.668,597.894z"></path>
		<path fill="#B3B3B3" d="M345.049,597.911c-0.971-0.559-1.599-1.72-1.676-3.388c-0.165-3.597,2.295-8.191,5.497-10.26
			c1.713-1.108,3.291-1.268,4.414-0.626c0.975,0.557,1.606,1.72,1.683,3.392c0.165,3.597-2.295,8.191-5.497,10.26
			C347.753,598.399,346.172,598.557,345.049,597.911z"></path>
		<path fill="#B3B3B3" stroke="#000000" stroke-linecap="round" stroke-linejoin="round" stroke-miterlimit="10" d="M352.28,585.672
			c-0.787-0.45-1.894-0.338-3.095,0.439c-2.245,1.451-3.971,4.673-3.855,7.196c0.054,1.17,0.494,1.984,1.176,2.376l11.349,6.552
			c0.787,0.453,1.896,0.342,3.1-0.437c2.245-1.451,3.971-4.673,3.855-7.196c-0.054-1.173-0.496-1.988-1.18-2.379L352.28,585.672z"></path>
		<path fill="#B3B3B3" stroke="#000000" stroke-linecap="round" stroke-linejoin="round" stroke-miterlimit="10" d="M363.09,608.306
			c1.123,0.646,2.703,0.487,4.42-0.623c3.201-2.07,5.662-6.663,5.497-10.26c-0.077-1.672-0.708-2.834-1.683-3.392l-6.467-3.939
			c-1.122-0.642-2.7-0.482-4.414,0.626c-3.201,2.07-5.662,6.663-5.497,10.26c0.077,1.668,0.705,2.829,1.676,3.388L363.09,608.306z"></path>
		<polygon fill="#B3B3B3" stroke="#000000" stroke-linecap="round" stroke-linejoin="round" stroke-miterlimit="10" points="
			369.309,616.039 378.104,610.967 382.502,599.848 378.104,593.803 371.608,590.052 362.813,595.125 358.415,606.243 
			362.813,612.289 		"></polygon>
		<polygon fill="#E6E6E6" points="362.813,595.125 371.608,590.052 378.104,593.803 369.309,598.875 		"></polygon>
		<polygon fill="#B3B3B3" points="378.104,593.803 382.502,599.848 378.104,610.967 369.309,616.039 364.911,609.993 
			369.309,598.875 		"></polygon>
		<path d="M370.817,609.925c-0.681-0.392-1.122-1.206-1.176-2.376c-0.116-2.523,1.61-5.744,3.855-7.196
			c1.202-0.777,2.308-0.889,3.095-0.439c0.684,0.391,1.126,1.206,1.18,2.379c0.116,2.523-1.61,5.744-3.855,7.196
			C372.713,610.267,371.604,610.378,370.817,609.925z"></path>
		<path fill="#B3B3B3" stroke="#000000" stroke-linecap="round" stroke-linejoin="round" stroke-miterlimit="10" d="M348.357,575.62
			c0-1.849-2.592-3.348-5.79-3.348s-5.79,1.499-5.79,3.348v5.137c0,1.849,2.592,3.348,5.79,3.348s5.79-1.499,5.79-3.348V575.62z"></path>
		<g>
			<path fill="#006CC2" stroke="#000000" stroke-linecap="round" stroke-linejoin="round" stroke-miterlimit="10" d="
				M315.032,584.822c0-0.459,0.227-0.918,0.682-1.181l25.753-14.869c1.266-0.731,2.825-0.731,4.09,0l5.058,2.92
				c0.454,0.262,0.682,0.722,0.682,1.181v1.543c0,0.459-0.227,0.918-0.682,1.181l-25.753,14.869c-1.266,0.731-2.825,0.731-4.09,0
				l-5.058-2.92c-0.454-0.262-0.682-0.722-0.682-1.181V584.822z"></path>
			<path fill="#2F92E0" d="M341.466,568.772l-25.753,14.869c-0.454,0.262-0.682,0.722-0.682,1.181c0,0.459,0.227,0.918,0.682,1.181
				l5.058,2.92c1.266,0.731,2.825,0.731,4.09,0l25.753-14.869c0.454-0.262,0.682-0.722,0.682-1.181s-0.227-0.918-0.682-1.181
				l-5.058-2.92C344.291,568.042,342.732,568.042,341.466,568.772z"></path>
		</g>
	</g>
</g>
<g>
	<path fill="#B3B3B3" stroke="#000000" stroke-linecap="round" stroke-linejoin="round" stroke-miterlimit="10" d="M465.64,425.533
		c-7.145,4.111-17.205,3.1-28.128-3.962c-20.373-13.171-36.035-42.405-34.982-65.297c0.49-10.641,4.505-18.038,10.708-21.584
		l103.4-59.698c7.142-4.084,17.185-3.064,28.088,3.985c20.373,13.171,36.035,42.405,34.982,65.297
		c-0.489,10.617-4.487,18.005-10.668,21.561L465.64,425.533z"></path>
	<path fill="#E6E6E6" d="M544.726,278.977c-4.259-2.753-8.382-4.574-12.257-5.543l-128.56,74.224
		c-0.731,2.571-1.194,5.436-1.339,8.594c-0.593,12.887,4.112,27.784,11.972,40.694l155.318-89.673
		C563.552,295.743,554.708,285.43,544.726,278.977z"></path>
	<path fill="#B3B3B3" stroke="#000000" stroke-linecap="round" stroke-linejoin="round" stroke-miterlimit="10" d="M403.795,318.302
		c9.718-5.557,23.384-4.169,38.22,5.422c27.722,17.922,49.033,57.701,47.6,88.85c-0.665,14.447-6.106,24.5-14.516,29.339
		l-48.596,28.057c-9.722,5.593-23.411,4.219-38.274-5.391c-27.722-17.922-49.033-57.701-47.6-88.85
		c0.666-14.479,6.129-24.544,14.57-29.37L403.795,318.302z"></path>
	<path fill="#E6E6E6" d="M442.014,323.725c-7.176-4.639-14.073-7.342-20.387-8.285l-77.968,45.015
		c-1.705,4.345-2.763,9.445-3.031,15.275c-0.739,16.065,4.582,34.422,13.703,50.896l119.311-68.884
		C465.3,343.883,454.288,331.66,442.014,323.725z"></path>
	<g>
		<g>
			
				<path fill="#999999" stroke="#000000" stroke-width="0.75" stroke-linecap="round" stroke-linejoin="round" stroke-miterlimit="10" d="
				M340.97,321.666c13.6-7.776,32.724-5.835,53.485,7.588c38.795,25.081,68.618,80.749,66.612,124.339
				c-0.93,20.218-8.545,34.286-20.313,41.057l-4.847,2.799c-13.605,7.828-32.761,5.904-53.562-7.544
				c-38.795-25.081-68.618-80.749-66.612-124.339c0.932-20.262,8.578-34.347,20.39-41.101L340.97,321.666z"></path>
			<path fill="#808080" d="M456.22,456.391c-0.93,20.218-8.545,34.286-20.313,41.057c-13.605,7.828-32.761,5.904-53.562-7.544
				c-38.795-25.081-68.618-80.749-66.612-124.339c0.932-20.262,8.578-34.347,20.39-41.101c13.6-7.776,32.724-5.835,53.485,7.588
				C428.402,357.134,458.225,412.802,456.22,456.391z"></path>
		</g>
		<path fill="#B3B3B3" stroke="#000000" stroke-linecap="round" stroke-linejoin="round" stroke-miterlimit="10" d="
			M343.902,337.966c11.478-6.563,27.617-4.924,45.139,6.404c32.74,21.167,57.91,68.147,56.217,104.935
			c-0.785,17.063-7.211,28.935-17.143,34.65l-143.541,82.874c-11.482,6.606-27.649,4.982-45.203-6.367
			c-32.74-21.167-57.91-68.147-56.217-104.935c0.787-17.1,7.239-28.987,17.208-34.687L343.902,337.966z"></path>
		<path fill="#E6E6E6" d="M389.041,344.37c-7.559-4.887-14.859-7.966-21.64-9.366L185.966,439.755
			c-1.523,4.608-2.478,9.855-2.748,15.735c-0.815,17.702,4.603,37.758,14.078,56.169L424.037,380.75
			C414.507,365.955,402.406,353.011,389.041,344.37z"></path>
		<path fill="#B3B3B3" stroke="#000000" stroke-linecap="round" stroke-linejoin="round" stroke-miterlimit="10" d="
			M436.467,479.408c0.787-0.45,1.894-0.338,3.095,0.439c2.245,1.451,3.971,4.673,3.855,7.196c-0.054,1.17-0.494,1.984-1.176,2.376
			l-141.853,81.899c-0.787,0.453-1.896,0.342-3.1-0.437c-2.245-1.451-3.971-4.673-3.855-7.196c0.054-1.173,0.496-1.988,1.18-2.379
			L436.467,479.408z"></path>
		
			<line fill="none" stroke="#FFFFFF" stroke-linecap="round" stroke-linejoin="round" stroke-miterlimit="10" x1="297.114" y1="562.807" x2="438.967" y2="480.908"></line>
		<g>
			
				<path fill="#999999" stroke="#000000" stroke-width="0.75" stroke-linecap="round" stroke-linejoin="round" stroke-miterlimit="10" d="
				M196.332,405.557c13.6-7.776,32.724-5.835,53.485,7.588c38.795,25.081,68.618,80.749,66.612,124.339
				c-0.93,20.218-8.545,34.286-20.313,41.057l-4.847,2.799c-13.605,7.828-32.761,5.904-53.562-7.544
				c-38.795-25.081-68.618-80.749-66.612-124.339c0.932-20.262,8.578-34.347,20.39-41.101L196.332,405.557z"></path>
			<path fill="#808080" d="M311.582,540.282c-0.93,20.218-8.545,34.286-20.313,41.057c-13.605,7.828-32.761,5.904-53.562-7.544
				c-38.795-25.081-68.618-80.749-66.612-124.339c0.932-20.262,8.578-34.347,20.39-41.101c13.6-7.776,32.724-5.835,53.485,7.588
				C283.764,441.024,313.588,496.692,311.582,540.282z"></path>
			<path fill="#B3B3B3" stroke="#000000" stroke-linecap="round" stroke-linejoin="round" stroke-miterlimit="10" d="
				M227.739,475.388c-2.866,1.649-4.72,5.074-4.946,9.997c-0.488,10.614,6.773,24.168,16.219,30.275
				c5.055,3.268,9.712,3.741,13.023,1.848c2.866-1.649,4.72-5.074,4.946-9.997c0.488-10.614-6.773-24.168-16.219-30.275
				C235.707,473.967,231.05,473.494,227.739,475.388z"></path>
		</g>
		<g>
			<path fill="#B3B3B3" stroke="#000000" stroke-linecap="round" stroke-linejoin="round" stroke-miterlimit="10" d="
				M186.863,500.272c0.787-0.45,1.894-0.338,3.095,0.439c2.245,1.451,3.971,4.673,3.855,7.196c-0.054,1.17-0.494,1.984-1.176,2.376
				l-6.726,3.883c-0.787,0.453-1.896,0.342-3.1-0.437c-2.245-1.451-3.971-4.673-3.855-7.196c0.054-1.173,0.496-1.988,1.18-2.379
				L186.863,500.272z"></path>
			<path fill="#808080" d="M187.087,511.79c-0.054,1.17-0.494,1.984-1.176,2.376c-0.787,0.453-1.896,0.342-3.1-0.437
				c-2.245-1.451-3.971-4.673-3.855-7.196c0.054-1.173,0.496-1.988,1.18-2.379c0.787-0.45,1.894-0.338,3.095,0.439
				C185.477,506.046,187.203,509.267,187.087,511.79z"></path>
		</g>
		<g>
			<path fill="#B3B3B3" stroke="#000000" stroke-linecap="round" stroke-linejoin="round" stroke-miterlimit="10" d="
				M294.614,561.307c0.787-0.45,1.894-0.338,3.095,0.439c2.245,1.451,3.971,4.673,3.855,7.196c-0.054,1.17-0.494,1.984-1.176,2.376
				l-6.726,3.883c-0.787,0.453-1.896,0.342-3.1-0.437c-2.245-1.451-3.971-4.673-3.855-7.196c0.054-1.173,0.496-1.988,1.18-2.379
				L294.614,561.307z"></path>
			<path fill="#808080" d="M294.838,572.825c-0.054,1.17-0.495,1.984-1.176,2.376c-0.787,0.453-1.896,0.342-3.1-0.437
				c-2.245-1.451-3.971-4.673-3.855-7.196c0.054-1.173,0.496-1.988,1.18-2.379c0.787-0.45,1.894-0.338,3.095,0.439
				C293.228,567.081,294.954,570.303,294.838,572.825z"></path>
		</g>
	</g>
</g>
<g>
	
		<path fill="#999999" stroke="#000000" stroke-width="0.75" stroke-linecap="round" stroke-linejoin="round" stroke-miterlimit="10" d="
		M189.684,451.215c2.913-1.666,7.009-1.25,11.456,1.625c8.31,5.372,14.698,17.296,14.268,26.633
		c-0.199,4.331-1.83,7.344-4.351,8.794l-5.4,3.24c-2.914,1.677-7.017,1.265-11.473-1.616c-8.31-5.372-14.698-17.296-14.268-26.633
		c0.2-4.34,1.837-7.357,4.368-8.804L189.684,451.215z"></path>
	<path fill="#4D4D4D" d="M210.009,482.713c-0.199,4.331-1.83,7.344-4.351,8.794c-2.914,1.677-7.017,1.265-11.473-1.616
		c-8.31-5.372-14.698-17.296-14.268-26.633c0.2-4.34,1.837-7.357,4.368-8.804c2.913-1.666,7.009-1.25,11.456,1.625
		C204.05,461.452,210.438,473.376,210.009,482.713z"></path>
	<g>
		<path fill="#B3B3B3" stroke="#000000" stroke-linecap="round" stroke-linejoin="round" stroke-miterlimit="10" d="
			M187.728,460.431c1.974-1.128,4.749-0.847,7.762,1.101c5.63,3.64,9.957,11.718,9.666,18.043c-0.135,2.934-1.24,4.975-2.948,5.958
			L73.851,558.646c-1.974,1.136-4.754,0.857-7.773-1.095c-5.63-3.64-9.957-11.718-9.666-18.043c0.135-2.94,1.245-4.984,2.959-5.964
			L187.728,460.431z"></path>
		
			<path fill="#999999" stroke="#000000" stroke-width="0.75" stroke-linecap="round" stroke-linejoin="round" stroke-miterlimit="10" d="
			M87.051,552.586c-0.199,4.331-1.83,7.344-4.351,8.794c-2.914,1.677-7.017,1.265-11.473-1.616
			c-8.31-5.372-14.698-17.296-14.268-26.633c0.2-4.34,1.837-7.357,4.368-8.804c2.913-1.666,7.009-1.25,11.456,1.625
			C81.093,531.325,87.481,543.249,87.051,552.586z"></path>
		<path fill="#4D4D4D" stroke="#000000" stroke-miterlimit="10" d="M81.651,555.826c-0.199,4.331-1.83,7.344-4.351,8.794
			c-2.914,1.677-7.017,1.265-11.473-1.616c-8.31-5.372-14.698-17.296-14.268-26.633c0.2-4.34,1.837-7.357,4.368-8.804
			c2.913-1.666,7.009-1.25,11.456,1.625C75.693,534.565,82.081,546.489,81.651,555.826z"></path>
		<path d="M76.799,552.688c-0.135,2.934-1.24,4.975-2.948,5.958c-1.974,1.136-4.754,0.857-7.773-1.095
			c-5.63-3.64-9.957-11.718-9.666-18.043c0.135-2.94,1.245-4.984,2.959-5.964c1.974-1.128,4.749-0.847,7.762,1.101
			C72.762,538.285,77.09,546.363,76.799,552.688z"></path>
	</g>
</g>
<path fill="#B3B3B3" stroke="#000000" stroke-linecap="round" stroke-linejoin="round" stroke-miterlimit="10" d="M127.339,519.054
	v-18.143c0-6.947,9.741-12.579,21.756-12.579c12.016,0,21.756,5.632,21.756,12.579v10.099l58.386-33.025
	c2.903-1.66,6.985-1.245,11.417,1.62c8.281,5.354,14.647,17.236,14.218,26.54c-0.199,4.315-1.824,7.318-4.336,8.764L186.2,551.3
	C150.003,572.143,127.339,542.399,127.339,519.054z"></path>
<path stroke="#000000" stroke-width="0.75" stroke-linecap="round" stroke-linejoin="round" stroke-miterlimit="10" d="
	M195.524,542.564c-36.198,20.843-56.361,6.092-56.361-29.746v-18.143c0-0.565-2.429-3.619-2.305-4.164
	c-5.745,2.264-9.519,6.077-9.519,10.401v18.143c0,23.344,22.663,53.089,58.861,32.246l64.336-36.391
	c1.857-1.069,3.225-2.993,3.895-5.666L195.524,542.564z"></path>
<path fill="#B3B3B3" stroke="#000000" stroke-width="0.75" stroke-linecap="round" stroke-linejoin="round" stroke-miterlimit="10" d="
	M124.571,502.512c0,7.831,10.98,14.18,24.525,14.18s24.525-6.349,24.525-14.18v-34.123c0-7.831-10.98-14.18-24.525-14.18
	s-24.525,6.349-24.525,14.18V502.512z"></path>
<path fill="none" stroke="#C1272D" stroke-width="0.75" stroke-linecap="round" stroke-linejoin="round" stroke-miterlimit="10" d="
	M219.695,250.741"></path>
<path fill="#999999" stroke="#000000" stroke-width="0.75" stroke-linecap="round" stroke-linejoin="round" stroke-miterlimit="10" d="
	M339.787,376.395c0-8.802-12.341-15.937-27.563-15.937s-27.563,7.135-27.563,15.937v6.42c0,8.802,12.341,15.937,27.563,15.937
	s27.563-7.135,27.563-15.937V376.395z"></path>
<ellipse fill="none" stroke="#C1272D" stroke-width="0.75" stroke-linecap="round" stroke-linejoin="round" stroke-miterlimit="10" cx="312.224" cy="327.324" rx="20.623" ry="11.924"></ellipse>
<ellipse fill="#E6E6E6" cx="312.224" cy="376.395" rx="27.563" ry="15.937"></ellipse>
<path fill="#B3B3B3" stroke="#000000" stroke-linecap="round" stroke-linejoin="round" stroke-miterlimit="10" d="M291.601,327.324
	c0-6.585,9.233-11.924,20.623-11.924s20.623,5.338,20.623,11.924v49.07c0,6.585-9.233,11.924-20.623,11.924
	s-20.623-5.338-20.623-11.924V327.324z"></path>
<g>
	<path stroke="#000000" stroke-width="0.75" stroke-linecap="round" stroke-linejoin="round" stroke-miterlimit="10" d="
		M291.601,327.324v49.07c0,3.915,3.278,7.378,8.318,9.552v-68.174C294.879,319.946,291.601,323.41,291.601,327.324z"></path>
</g>
<path fill="#999999" stroke="#000000" stroke-width="0.75" stroke-linecap="round" stroke-linejoin="round" stroke-miterlimit="10" d="
	M339.787,320.24c0-8.802-12.341-15.937-27.563-15.937s-27.563,7.135-27.563,15.937v6.42c0,8.802,12.341,15.937,27.563,15.937
	s27.563-7.135,27.563-15.937V320.24z"></path>
<ellipse fill="#E6E6E6" cx="312.224" cy="320.24" rx="27.563" ry="15.937"></ellipse>
<path fill="#B3B3B3" stroke="#000000" stroke-linecap="round" stroke-linejoin="round" stroke-miterlimit="10" d="M291.601,291.17
	c0-6.585,9.233-11.924,20.623-11.924s20.623,5.338,20.623,11.924v29.07c0,6.585-9.233,11.924-20.623,11.924
	s-20.623-5.338-20.623-11.924V291.17z"></path>
<g>
	<path stroke="#000000" stroke-width="0.75" stroke-linecap="round" stroke-linejoin="round" stroke-miterlimit="10" d="
		M291.601,291.17v29.07c0,3.915,3.278,7.378,8.318,9.552v-48.174C294.879,283.792,291.601,287.255,291.601,291.17z"></path>
</g>
<g>
	<path fill="#B3B3B3" stroke="#000000" stroke-linecap="round" stroke-linejoin="round" stroke-miterlimit="10" d="M318.197,331.644
		c-1.708-0.983-2.813-3.024-2.948-5.958c-0.291-6.326,4.037-14.404,9.666-18.043c3.013-1.948,5.788-2.23,7.762-1.101l24.76,14.417
		c1.714,0.98,2.824,3.024,2.959,5.964c0.291,6.326-4.037,14.404-9.666,18.043c-3.018,1.951-5.798,2.231-7.773,1.095L318.197,331.644
		z"></path>
	
		<path fill="#999999" stroke="#000000" stroke-width="0.75" stroke-linecap="round" stroke-linejoin="round" stroke-miterlimit="10" d="
		M344.907,355.275c2.914,1.677,7.017,1.265,11.473-1.616c8.31-5.372,14.698-17.296,14.268-26.633c-0.2-4.34-1.837-7.357-4.368-8.804
		l-5.4-3.24c-2.913-1.666-7.009-1.25-11.456,1.625c-8.31,5.372-14.698,17.296-14.268,26.633c0.199,4.331,1.83,7.344,4.351,8.794
		L344.907,355.275z"></path>
	<path fill="#CCCCCC" d="M340.556,346.481c0.199,4.331,1.83,7.344,4.351,8.794c2.914,1.677,7.017,1.265,11.473-1.616
		c8.31-5.372,14.698-17.296,14.268-26.633c-0.2-4.34-1.837-7.357-4.368-8.804c-2.913-1.666-7.009-1.25-11.456,1.625
		C346.514,325.22,340.126,337.144,340.556,346.481z"></path>
	<path fill="#B3B3B3" stroke="#000000" stroke-linecap="round" stroke-linejoin="round" stroke-miterlimit="10" d="M348.356,349.302
		c-1.708-0.983-2.813-3.024-2.948-5.958c-0.291-6.326,4.037-14.404,9.666-18.043c3.013-1.948,5.788-2.23,7.762-1.101l19.36,11.177
		c1.714,0.98,2.824,3.024,2.959,5.964c0.291,6.326-4.037,14.404-9.666,18.043c-3.018,1.951-5.798,2.231-7.773,1.095L348.356,349.302
		z"></path>
	<path fill="#B3B3B3" stroke="#000000" stroke-linecap="round" stroke-linejoin="round" stroke-miterlimit="10" d="M373.934,325.699
		c0-3.229-4.527-5.846-10.111-5.846c-5.584,0-10.111,2.617-10.111,5.846v5.239c0,3.229,4.527,5.846,10.111,5.846
		c5.584,0,10.111-2.617,10.111-5.846V325.699z"></path>
	<ellipse fill="#E6E6E6" cx="363.823" cy="325.699" rx="10.111" ry="5.846"></ellipse>
	<path fill="#B3B3B3" stroke="#000000" stroke-linecap="round" stroke-linejoin="round" stroke-miterlimit="10" d="M369.733,322.655
		c0-1.887-2.646-3.417-5.91-3.417s-5.91,1.53-5.91,3.417c0,0.548,0,2.497,0,3.044c0,1.887,2.646,3.417,5.91,3.417
		s5.91-1.53,5.91-3.417C369.733,325.152,369.733,323.203,369.733,322.655z"></path>
	
		<path fill="#999999" stroke="#000000" stroke-width="0.75" stroke-linecap="round" stroke-linejoin="round" stroke-miterlimit="10" d="
		M369.667,369.693c2.914,1.677,7.017,1.265,11.473-1.616c8.31-5.372,14.698-17.296,14.268-26.633c-0.2-4.34-1.837-7.357-4.368-8.804
		l-5.4-3.24c-2.913-1.666-7.009-1.25-11.456,1.625c-8.31,5.372-14.698,17.296-14.268,26.633c0.199,4.331,1.83,7.344,4.351,8.794
		L369.667,369.693z"></path>
	<path fill="#CCCCCC" d="M365.316,360.898c0.199,4.331,1.83,7.344,4.351,8.794c2.914,1.677,7.017,1.265,11.473-1.616
		c8.31-5.372,14.698-17.296,14.268-26.633c-0.2-4.34-1.837-7.357-4.368-8.804c-2.913-1.666-7.009-1.25-11.456,1.625
		C371.274,339.638,364.886,351.562,365.316,360.898z"></path>
	<path d="M370.168,357.761c0.135,2.934,1.24,4.975,2.948,5.958c1.974,1.136,4.754,0.857,7.773-1.095
		c5.63-3.64,9.957-11.718,9.666-18.043c-0.135-2.94-1.245-4.984-2.959-5.964c-1.974-1.128-4.749-0.847-7.762,1.101
		C374.205,343.357,369.877,351.436,370.168,357.761z"></path>
</g>
<path fill="#999999" stroke="#000000" stroke-width="0.75" stroke-linecap="round" stroke-linejoin="round" stroke-miterlimit="10" d="
	M339.787,290.3c0-8.802-12.341-15.937-27.563-15.937s-27.563,7.135-27.563,15.937v6.42c0,8.802,12.341,15.937,27.563,15.937
	s27.563-7.135,27.563-15.937V290.3z"></path>
<ellipse fill="#E6E6E6" cx="312.224" cy="290.3" rx="27.563" ry="15.937"></ellipse>
<path fill="#B3B3B3" stroke="#000000" stroke-linecap="round" stroke-linejoin="round" stroke-miterlimit="10" d="M291.601,240.8
	c0-6.585,9.233-11.924,20.623-11.924s20.623,5.338,20.623,11.924v49.5c0,6.585-9.233,11.924-20.623,11.924
	s-20.623-5.338-20.623-11.924V240.8z"></path>
<g>
	<path stroke="#000000" stroke-width="0.75" stroke-linecap="round" stroke-linejoin="round" stroke-miterlimit="10" d="
		M291.601,240.8v49.5c0,3.915,3.278,7.378,8.318,9.552v-68.604C294.879,233.422,291.601,236.885,291.601,240.8z"></path>
</g>
<path fill="#999999" stroke="#000000" stroke-width="0.75" stroke-linecap="round" stroke-linejoin="round" stroke-miterlimit="10" d="
	M339.787,236.54c0-8.802-12.341-15.937-27.563-15.937s-27.563,7.135-27.563,15.937v6.42c0,8.802,12.341,15.937,27.563,15.937
	s27.563-7.135,27.563-15.937V236.54z"></path>
<ellipse fill="#E6E6E6" cx="312.224" cy="236.54" rx="27.563" ry="15.937"></ellipse>
<path fill="#B3B3B3" stroke="#000000" stroke-linecap="round" stroke-linejoin="round" stroke-miterlimit="10" d="M291.601,207.47
	c0-6.585,9.233-11.924,20.623-11.924s20.623,5.338,20.623,11.924v29.07c0,6.585-9.233,11.924-20.623,11.924
	s-20.623-5.338-20.623-11.924V207.47z"></path>
<g>
	<path stroke="#000000" stroke-width="0.75" stroke-linecap="round" stroke-linejoin="round" stroke-miterlimit="10" d="
		M291.601,207.47v29.07c0,3.915,3.278,7.378,8.318,9.552v-48.174C294.879,200.091,291.601,203.555,291.601,207.47z"></path>
</g>
<path fill="#999999" stroke="#000000" stroke-width="0.75" stroke-linecap="round" stroke-linejoin="round" stroke-miterlimit="10" d="
	M339.404,206.028c0-8.802-12.341-15.937-27.563-15.937c-15.223,0-27.563,7.135-27.563,15.937v6.42
	c0,8.802,12.341,15.937,27.563,15.937c15.223,0,27.563-7.135,27.563-15.937V206.028z"></path>
<ellipse fill="#E6E6E6" cx="311.84" cy="206.028" rx="27.563" ry="15.937"></ellipse>
<ellipse fill="#CCCCCC" cx="149.095" cy="468.389" rx="24.525" ry="14.18"></ellipse>
<path fill="#999999" stroke="#000000" stroke-linecap="round" stroke-linejoin="round" stroke-miterlimit="10" d="M31.432,345.279
	c-7.465-9.449-11.624-19.955-11.624-31.022c0-41.284,57.884-74.752,129.288-74.752s129.288,33.467,129.288,74.752
	c0,11.267-4.312,21.952-12.033,31.534l-98.577,127.66c-3.292,4.055-10.418,6.862-18.678,6.862c-8.278,0-15.417-2.82-18.7-6.89
	L31.432,345.279z"></path>
<g>
	<path d="M31.432,345.279l98.964,128.144c1.59,1.972,4.092,3.646,7.183,4.852l-36.315-94.561
		C70.302,376.581,45.222,362.737,31.432,345.279z"></path>
</g>
<path fill="#E6E6E6" stroke="#000000" stroke-width="0.75" stroke-linecap="round" stroke-linejoin="round" stroke-miterlimit="10" d="
	M278.383,314.257c0,11.267-4.312,21.952-12.033,31.534c-20.57,25.525-65.339,43.218-117.255,43.218
	c-52.263,0-97.282-17.929-117.664-43.73c-7.465-9.449-11.624-19.955-11.624-31.022c0-41.284,57.884-74.752,129.288-74.752
	S278.383,272.973,278.383,314.257z"></path>
<g>
	<defs>
		<ellipse id="SVGID_1_" cx="149.095" cy="314.257" rx="125.646" ry="72.646"></ellipse>
	</defs>
	<clipPath id="SVGID_00000002360000389819524270000014035327078735349159_">
		<use xlink:href="#SVGID_1_" overflow="visible"></use>
	</clipPath>
	<g clip-path="url(#SVGID_00000002360000389819524270000014035327078735349159_)">
		<ellipse fill="#E6E6E6" cx="149.095" cy="314.257" rx="125.646" ry="72.646"></ellipse>
		<ellipse fill="#E5E5E5" cx="149.095" cy="315.076" rx="124.703" ry="72.101"></ellipse>
		<ellipse fill="#E4E4E4" cx="149.095" cy="315.895" rx="123.76" ry="71.555"></ellipse>
		<ellipse fill="#E3E3E3" cx="149.095" cy="316.714" rx="122.816" ry="71.01"></ellipse>
		<ellipse fill="#E2E2E2" cx="149.095" cy="317.532" rx="121.873" ry="70.465"></ellipse>
		<ellipse fill="#E1E1E1" cx="149.095" cy="318.351" rx="120.93" ry="69.919"></ellipse>
		<ellipse fill="#E0E0E0" cx="149.095" cy="319.17" rx="119.987" ry="69.374"></ellipse>
		<ellipse fill="#DFDFDF" cx="149.095" cy="319.989" rx="119.044" ry="68.829"></ellipse>
		<ellipse fill="#DEDEDE" cx="149.095" cy="320.807" rx="118.101" ry="68.283"></ellipse>
		<ellipse fill="#DDDDDD" cx="149.095" cy="321.626" rx="117.157" ry="67.738"></ellipse>
		<ellipse fill="#DCDCDC" cx="149.095" cy="322.445" rx="116.214" ry="67.193"></ellipse>
		<ellipse fill="#DBDBDB" cx="149.095" cy="323.264" rx="115.271" ry="66.647"></ellipse>
		<ellipse fill="#DADADA" cx="149.095" cy="324.082" rx="114.328" ry="66.102"></ellipse>
		<ellipse fill="#D9D9D9" cx="149.095" cy="324.901" rx="113.385" ry="65.557"></ellipse>
		<ellipse fill="#D8D8D8" cx="149.095" cy="325.72" rx="112.442" ry="65.011"></ellipse>
		<ellipse fill="#D7D7D7" cx="149.095" cy="326.539" rx="111.499" ry="64.466"></ellipse>
		<ellipse fill="#D6D6D6" cx="149.095" cy="327.357" rx="110.555" ry="63.921"></ellipse>
		<ellipse fill="#D5D5D5" cx="149.095" cy="328.176" rx="109.612" ry="63.376"></ellipse>
		<ellipse fill="#D4D4D4" cx="149.095" cy="328.995" rx="108.669" ry="62.83"></ellipse>
		<ellipse fill="#D3D3D3" cx="149.095" cy="329.814" rx="107.726" ry="62.285"></ellipse>
		<ellipse fill="#D2D2D2" cx="149.095" cy="330.632" rx="106.783" ry="61.74"></ellipse>
		<ellipse fill="#D1D1D1" cx="149.095" cy="331.451" rx="105.84" ry="61.194"></ellipse>
		<ellipse fill="#D0D0D0" cx="149.095" cy="332.27" rx="104.896" ry="60.649"></ellipse>
		<ellipse fill="#CFCFCF" cx="149.095" cy="333.089" rx="103.953" ry="60.104"></ellipse>
		<ellipse fill="#CECECE" cx="149.095" cy="333.907" rx="103.01" ry="59.558"></ellipse>
		<ellipse fill="#CDCDCD" cx="149.095" cy="334.726" rx="102.067" ry="59.013"></ellipse>
		<ellipse fill="#CCCCCC" cx="149.095" cy="335.545" rx="101.124" ry="58.468"></ellipse>
		<ellipse fill="#CBCBCB" cx="149.095" cy="336.364" rx="100.181" ry="57.922"></ellipse>
		<ellipse fill="#CACACA" cx="149.095" cy="337.182" rx="99.237" ry="57.377"></ellipse>
		<ellipse fill="#C9C9C9" cx="149.095" cy="338.001" rx="98.294" ry="56.832"></ellipse>
		<ellipse fill="#C8C8C8" cx="149.095" cy="338.82" rx="97.351" ry="56.286"></ellipse>
		<ellipse fill="#C7C7C7" cx="149.095" cy="339.639" rx="96.408" ry="55.741"></ellipse>
		<ellipse fill="#C6C6C6" cx="149.095" cy="340.457" rx="95.465" ry="55.196"></ellipse>
		<ellipse fill="#C5C5C5" cx="149.095" cy="341.276" rx="94.522" ry="54.65"></ellipse>
		<ellipse fill="#C4C4C4" cx="149.095" cy="342.095" rx="93.578" ry="54.105"></ellipse>
		<ellipse fill="#C3C3C3" cx="149.095" cy="342.914" rx="92.635" ry="53.56"></ellipse>
		<ellipse fill="#C2C2C2" cx="149.095" cy="343.732" rx="91.692" ry="53.014"></ellipse>
		<ellipse fill="#C1C1C1" cx="149.095" cy="344.551" rx="90.749" ry="52.469"></ellipse>
		<ellipse fill="#C0C0C0" cx="149.095" cy="345.37" rx="89.806" ry="51.924"></ellipse>
		<ellipse fill="#BFBFBF" cx="149.095" cy="346.189" rx="88.863" ry="51.379"></ellipse>
		<ellipse fill="#BEBEBE" cx="149.095" cy="347.008" rx="87.919" ry="50.833"></ellipse>
		<ellipse fill="#BDBDBD" cx="149.095" cy="347.826" rx="86.976" ry="50.288"></ellipse>
		<ellipse fill="#BCBCBC" cx="149.095" cy="348.645" rx="86.033" ry="49.743"></ellipse>
		<ellipse fill="#BBBBBB" cx="149.095" cy="349.464" rx="85.09" ry="49.197"></ellipse>
		<ellipse fill="#BABABA" cx="149.095" cy="350.283" rx="84.147" ry="48.652"></ellipse>
		<ellipse fill="#B9B9B9" cx="149.095" cy="351.101" rx="83.204" ry="48.107"></ellipse>
		<ellipse fill="#B8B8B8" cx="149.095" cy="351.92" rx="82.26" ry="47.561"></ellipse>
		<ellipse fill="#B7B7B7" cx="149.095" cy="352.739" rx="81.317" ry="47.016"></ellipse>
		<ellipse fill="#B6B6B6" cx="149.095" cy="353.558" rx="80.374" ry="46.471"></ellipse>
		<ellipse fill="#B5B5B5" cx="149.095" cy="354.376" rx="79.431" ry="45.925"></ellipse>
		<ellipse fill="#B4B4B4" cx="149.095" cy="355.195" rx="78.488" ry="45.38"></ellipse>
		<ellipse fill="#B3B3B3" cx="149.095" cy="356.014" rx="77.545" ry="44.835"></ellipse>
		<ellipse fill="#B2B2B2" cx="149.095" cy="356.833" rx="76.601" ry="44.289"></ellipse>
		<ellipse fill="#B1B1B1" cx="149.095" cy="357.651" rx="75.658" ry="43.744"></ellipse>
		<ellipse fill="#B0B0B0" cx="149.095" cy="358.47" rx="74.715" ry="43.199"></ellipse>
		<ellipse fill="#AFAFAF" cx="149.095" cy="359.289" rx="73.772" ry="42.653"></ellipse>
		<ellipse fill="#AEAEAE" cx="149.095" cy="360.108" rx="72.829" ry="42.108"></ellipse>
		<ellipse fill="#ADADAD" cx="149.095" cy="360.926" rx="71.886" ry="41.563"></ellipse>
		<ellipse fill="#ACACAC" cx="149.095" cy="361.745" rx="70.942" ry="41.017"></ellipse>
		<ellipse fill="#ABABAB" cx="149.095" cy="362.564" rx="69.999" ry="40.472"></ellipse>
		<ellipse fill="#AAAAAA" cx="149.095" cy="363.383" rx="69.056" ry="39.927"></ellipse>
		<ellipse fill="#A9A9A9" cx="149.095" cy="364.201" rx="68.113" ry="39.382"></ellipse>
		<ellipse fill="#A8A8A8" cx="149.095" cy="365.02" rx="67.17" ry="38.836"></ellipse>
		<ellipse fill="#A7A7A7" cx="149.095" cy="365.839" rx="66.227" ry="38.291"></ellipse>
		<ellipse fill="#A6A6A6" cx="149.095" cy="366.658" rx="65.284" ry="37.746"></ellipse>
		<ellipse fill="#A5A5A5" cx="149.095" cy="367.476" rx="64.34" ry="37.2"></ellipse>
		<ellipse fill="#A4A4A4" cx="149.095" cy="368.295" rx="63.397" ry="36.655"></ellipse>
		<ellipse fill="#A3A3A3" cx="149.095" cy="369.114" rx="62.454" ry="36.11"></ellipse>
		<ellipse fill="#A2A2A2" cx="149.095" cy="369.933" rx="61.511" ry="35.564"></ellipse>
		<ellipse fill="#A1A1A1" cx="149.095" cy="370.751" rx="60.568" ry="35.019"></ellipse>
		<ellipse fill="#A0A0A0" cx="149.095" cy="371.57" rx="59.625" ry="34.474"></ellipse>
		<ellipse fill="#9F9F9F" cx="149.095" cy="372.389" rx="58.681" ry="33.928"></ellipse>
		<ellipse fill="#9E9E9E" cx="149.095" cy="373.208" rx="57.738" ry="33.383"></ellipse>
		<ellipse fill="#9D9D9D" cx="149.095" cy="374.026" rx="56.795" ry="32.838"></ellipse>
		<ellipse fill="#9C9C9C" cx="149.095" cy="374.845" rx="55.852" ry="32.292"></ellipse>
		<ellipse fill="#9B9B9B" cx="149.095" cy="375.664" rx="54.909" ry="31.747"></ellipse>
		<ellipse fill="#9A9A9A" cx="149.095" cy="376.483" rx="53.966" ry="31.202"></ellipse>
		<ellipse fill="#999999" cx="149.095" cy="377.301" rx="53.022" ry="30.656"></ellipse>
		<ellipse fill="#989898" cx="149.095" cy="378.12" rx="52.079" ry="30.111"></ellipse>
		<ellipse fill="#979797" cx="149.095" cy="378.939" rx="51.136" ry="29.566"></ellipse>
		<ellipse fill="#969696" cx="149.095" cy="379.758" rx="50.193" ry="29.02"></ellipse>
		<ellipse fill="#959595" cx="149.095" cy="380.576" rx="49.25" ry="28.475"></ellipse>
		<ellipse fill="#949494" cx="149.095" cy="381.395" rx="48.307" ry="27.93"></ellipse>
		<ellipse fill="#939393" cx="149.095" cy="382.214" rx="47.363" ry="27.385"></ellipse>
		<ellipse fill="#929292" cx="149.095" cy="383.033" rx="46.42" ry="26.839"></ellipse>
		<ellipse fill="#919191" cx="149.095" cy="383.852" rx="45.477" ry="26.294"></ellipse>
		<ellipse fill="#909090" cx="149.095" cy="384.67" rx="44.534" ry="25.749"></ellipse>
		<ellipse fill="#8F8F8F" cx="149.095" cy="385.489" rx="43.591" ry="25.203"></ellipse>
		<ellipse fill="#8E8E8E" cx="149.095" cy="386.308" rx="42.648" ry="24.658"></ellipse>
		<ellipse fill="#8D8D8D" cx="149.095" cy="387.127" rx="41.704" ry="24.113"></ellipse>
		<ellipse fill="#8C8C8C" cx="149.095" cy="387.945" rx="40.761" ry="23.567"></ellipse>
		<ellipse fill="#8B8B8B" cx="149.095" cy="388.764" rx="39.818" ry="23.022"></ellipse>
		<ellipse fill="#8A8A8A" cx="149.095" cy="389.583" rx="38.875" ry="22.477"></ellipse>
		<ellipse fill="#898989" cx="149.095" cy="390.402" rx="37.932" ry="21.931"></ellipse>
		<ellipse fill="#888888" cx="149.095" cy="391.22" rx="36.989" ry="21.386"></ellipse>
		<ellipse fill="#878787" cx="149.095" cy="392.039" rx="36.045" ry="20.841"></ellipse>
		<ellipse fill="#868686" cx="149.095" cy="392.858" rx="35.102" ry="20.295"></ellipse>
		<ellipse fill="#858585" cx="149.095" cy="393.677" rx="34.159" ry="19.75"></ellipse>
		<ellipse fill="#848484" cx="149.095" cy="394.495" rx="33.216" ry="19.205"></ellipse>
		<ellipse fill="#838383" cx="149.095" cy="395.314" rx="32.273" ry="18.659"></ellipse>
		<ellipse fill="#828282" cx="149.095" cy="396.133" rx="31.33" ry="18.114"></ellipse>
		<ellipse fill="#818181" cx="149.095" cy="396.952" rx="30.386" ry="17.569"></ellipse>
		<ellipse fill="#808080" cx="149.095" cy="397.77" rx="29.443" ry="17.024"></ellipse>
		<ellipse fill="#7F7F7F" cx="149.095" cy="398.589" rx="28.5" ry="16.478"></ellipse>
		<ellipse fill="#7E7E7E" cx="149.095" cy="399.408" rx="27.557" ry="15.933"></ellipse>
		<ellipse fill="#7D7D7D" cx="149.095" cy="400.227" rx="26.614" ry="15.388"></ellipse>
		<ellipse fill="#7C7C7C" cx="149.095" cy="401.045" rx="25.671" ry="14.842"></ellipse>
		<ellipse fill="#7B7B7B" cx="149.095" cy="401.864" rx="24.727" ry="14.297"></ellipse>
		<ellipse fill="#7A7A7A" cx="149.095" cy="402.683" rx="23.784" ry="13.752"></ellipse>
		<ellipse fill="#797979" cx="149.095" cy="403.502" rx="22.841" ry="13.206"></ellipse>
		<ellipse fill="#787878" cx="149.095" cy="404.32" rx="21.898" ry="12.661"></ellipse>
		<ellipse fill="#777777" cx="149.095" cy="405.139" rx="20.955" ry="12.116"></ellipse>
		<ellipse fill="#767676" cx="149.095" cy="405.958" rx="20.012" ry="11.57"></ellipse>
		<ellipse fill="#757575" cx="149.095" cy="406.777" rx="19.068" ry="11.025"></ellipse>
		<ellipse fill="#747474" cx="149.095" cy="407.595" rx="18.125" ry="10.48"></ellipse>
		<ellipse fill="#737373" cx="149.095" cy="408.414" rx="17.182" ry="9.934"></ellipse>
		<ellipse fill="#727272" cx="149.095" cy="409.233" rx="16.239" ry="9.389"></ellipse>
		<ellipse fill="#717171" cx="149.095" cy="410.052" rx="15.296" ry="8.844"></ellipse>
		<ellipse fill="#707070" cx="149.095" cy="410.87" rx="14.353" ry="8.298"></ellipse>
		<ellipse fill="#6F6F6F" cx="149.095" cy="411.689" rx="13.41" ry="7.753"></ellipse>
		<ellipse fill="#6E6E6E" cx="149.095" cy="412.508" rx="12.466" ry="7.208"></ellipse>
		<ellipse fill="#6D6D6D" cx="149.095" cy="413.327" rx="11.523" ry="6.662"></ellipse>
		<ellipse fill="#6C6C6C" cx="149.095" cy="414.145" rx="10.58" ry="6.117"></ellipse>
		<ellipse fill="#6B6B6B" cx="149.095" cy="414.964" rx="9.637" ry="5.572"></ellipse>
		<ellipse fill="#6A6A6A" cx="149.095" cy="415.783" rx="8.694" ry="5.027"></ellipse>
		<ellipse fill="#696969" cx="149.095" cy="416.602" rx="7.751" ry="4.481"></ellipse>
		<ellipse fill="#686868" cx="149.095" cy="417.42" rx="6.807" ry="3.936"></ellipse>
		<ellipse fill="#676767" cx="149.095" cy="418.239" rx="5.864" ry="3.391"></ellipse>
		<ellipse fill="#666666" cx="149.095" cy="419.058" rx="4.921" ry="2.845"></ellipse>
	</g>
</g>
<g>
	<path fill="#B3B3B3" stroke="#000000" stroke-linecap="round" stroke-linejoin="round" stroke-miterlimit="10" d="M274.94,152.78
		C274.94,152.78,274.94,152.78,274.94,152.78l-60.784,35.255c-13.35,8.147-35.706,29.917-35.706,62.707v35.771
		c0,6.585,9.233,11.924,20.623,11.924c11.39,0,20.623-5.338,20.623-11.924v-35.771c0-16.739,14.244-25.877,15.214-26.729
		l56.308-32.658v14.674c0,6.585,9.233,11.924,20.623,11.924c11.39,0,20.623-5.338,20.623-11.924v-20.172
		C332.463,142.741,291.71,142.741,274.94,152.78z"></path>
	<path stroke="#000000" stroke-width="0.75" stroke-linecap="round" stroke-linejoin="round" stroke-miterlimit="10" d="
		M178.45,250.741v35.771c0,2.383,1.223,4.598,3.306,6.461c0.112-62.729,2.238-69.503,2.398-69.923
		C180.681,231.127,178.45,240.384,178.45,250.741z"></path>
	<path d="M299.919,215.574v-35.356c-0.193,4.205-1.777,7.131-4.225,8.539l-4.517,2.62v14.65
		C291.177,206.028,291.251,212.907,299.919,215.574z"></path>
</g>
<polygon fill="#CCCCCC" stroke="#000000" stroke-miterlimit="10" points="622.16,485.6 622.52,368.51 585.8,346.82 503.18,393.98 
	503,512.06 539.18,532.76 "></polygon>
<polygon fill="#E6E6E6" points="622.52,368.51 539.9,415.67 503.18,393.98 585.8,346.82 "></polygon>
<polygon fill="#E6E6E6" points="619.15,373.864 543.14,417.251 548.286,420.291 623.871,376.652 "></polygon>
<polygon fill="none" stroke="#000000" stroke-miterlimit="10" points="543.14,517.111 548.286,520.151 623.871,476.512 
	623.871,376.652 619.15,373.864 543.14,417.251 "></polygon>
<path stroke="#000000" stroke-width="0.75" stroke-linecap="round" stroke-linejoin="round" stroke-miterlimit="10" d="
	M124.571,468.389v34.123c0,4.831,4.182,9.095,10.563,11.655v-34.123C128.752,477.485,124.571,473.22,124.571,468.389z"></path>
<path fill="#B3B3B3" stroke="#000000" stroke-linecap="round" stroke-linejoin="round" stroke-miterlimit="10" d="M215.834,708.445
	l6.457,3.728l19.157-11.06V378.304l-0.346-0.2c-6.885,5.934-15.43,11.169-25.268,15.472V708.445z"></path>
<polyline fill="#4D4D4D" points="215.834,393.576 215.834,708.445 222.291,712.173 222.291,391.073 "></polyline>
<g>
	<g>
		<polygon fill="#999999" points="656.763,320.497 654.412,319.139 654.412,314.437 		"></polygon>
		<polygon fill="#E6E6E6" points="741.784,271.41 656.763,320.497 654.412,314.437 739.433,265.35 		"></polygon>
	</g>
	<g>
		<polygon fill="#999999" points="656.763,335.478 654.412,334.12 654.412,329.418 		"></polygon>
		<polygon fill="#E6E6E6" points="741.784,286.391 656.763,335.478 654.412,329.418 739.433,280.331 		"></polygon>
	</g>
	<g>
		<polygon fill="#999999" points="656.763,350.459 654.412,349.102 654.412,344.399 		"></polygon>
		<polygon fill="#E6E6E6" points="741.784,301.372 656.763,350.459 654.412,344.399 739.433,295.312 		"></polygon>
	</g>
	<g>
		<polygon fill="#999999" points="656.763,365.44 654.412,364.083 654.412,359.38 		"></polygon>
		<polygon fill="#E6E6E6" points="741.784,316.353 656.763,365.44 654.412,359.38 739.433,310.293 		"></polygon>
	</g>
	<g>
		<polygon fill="#999999" points="656.763,380.421 654.412,379.064 654.412,374.361 		"></polygon>
		<polygon fill="#E6E6E6" points="741.784,331.334 656.763,380.421 654.412,374.361 739.433,325.274 		"></polygon>
	</g>
	<g>
		<polygon fill="#999999" points="656.763,395.402 654.412,394.045 654.412,389.342 		"></polygon>
		<polygon fill="#E6E6E6" points="741.784,346.315 656.763,395.402 654.412,389.342 739.433,340.255 		"></polygon>
	</g>
	<g>
		<polygon fill="#999999" points="656.763,410.384 654.412,409.026 654.412,404.323 		"></polygon>
		<polygon fill="#E6E6E6" points="741.784,361.297 656.763,410.384 654.412,404.323 739.433,355.236 		"></polygon>
	</g>
	<g>
		<polygon fill="#999999" points="656.763,425.365 654.412,424.007 654.412,419.305 		"></polygon>
		<polygon fill="#E6E6E6" points="741.784,376.278 656.763,425.365 654.412,419.305 739.433,370.218 		"></polygon>
	</g>
	<g>
		<polygon fill="#999999" points="656.763,440.346 654.412,438.988 654.412,434.286 		"></polygon>
		<polygon fill="#E6E6E6" points="741.784,391.259 656.763,440.346 654.412,434.286 739.433,385.199 		"></polygon>
	</g>
</g>
<g>
	<g>
		<polygon fill="#999999" points="837.368,216.274 835.016,214.917 835.016,210.214 		"></polygon>
		<polygon fill="#E6E6E6" points="922.389,167.187 837.368,216.274 835.016,210.214 920.038,161.127 		"></polygon>
	</g>
	<g>
		<polygon fill="#999999" points="837.368,231.255 835.016,229.898 835.016,225.195 		"></polygon>
		<polygon fill="#E6E6E6" points="922.389,182.168 837.368,231.255 835.016,225.195 920.038,176.108 		"></polygon>
	</g>
	<g>
		<polygon fill="#999999" points="837.368,246.236 835.016,244.879 835.016,240.176 		"></polygon>
		<polygon fill="#E6E6E6" points="922.389,197.149 837.368,246.236 835.016,240.176 920.038,191.089 		"></polygon>
	</g>
	<g>
		<polygon fill="#999999" points="837.368,261.217 835.016,259.86 835.016,255.157 		"></polygon>
		<polygon fill="#E6E6E6" points="922.389,212.13 837.368,261.217 835.016,255.157 920.038,206.07 		"></polygon>
	</g>
	<g>
		<polygon fill="#999999" points="837.368,276.199 835.016,274.841 835.016,270.138 		"></polygon>
		<polygon fill="#E6E6E6" points="922.389,227.112 837.368,276.199 835.016,270.138 920.038,221.051 		"></polygon>
	</g>
	<g>
		<polygon fill="#999999" points="837.368,291.18 835.016,289.822 835.016,285.12 		"></polygon>
		<polygon fill="#E6E6E6" points="922.389,242.093 837.368,291.18 835.016,285.12 920.038,236.033 		"></polygon>
	</g>
	<g>
		<polygon fill="#999999" points="837.368,306.161 835.016,304.803 835.016,300.101 		"></polygon>
		<polygon fill="#E6E6E6" points="922.389,257.074 837.368,306.161 835.016,300.101 920.038,251.014 		"></polygon>
	</g>
	<g>
		<polygon fill="#999999" points="837.368,321.142 835.016,319.784 835.016,315.082 		"></polygon>
		<polygon fill="#E6E6E6" points="922.389,272.055 837.368,321.142 835.016,315.082 920.038,265.995 		"></polygon>
	</g>
	<g>
		<polygon fill="#999999" points="837.368,336.123 835.016,334.766 835.016,330.063 		"></polygon>
		<polygon fill="#E6E6E6" points="922.389,287.036 837.368,336.123 835.016,330.063 920.038,280.976 		"></polygon>
	</g>
</g>
<path fill="#B3B3B3" stroke="#000000" stroke-linecap="round" stroke-linejoin="round" stroke-miterlimit="10" d="M154.352,509.029
	c-1.708-0.983-2.813-3.024-2.948-5.958c-0.291-6.326,4.037-14.404,9.666-18.043c3.013-1.948,5.788-2.23,7.762-1.101l19.36,11.177
	c1.714,0.98,2.824,3.024,2.959,5.964c0.291,6.326-4.037,14.404-9.666,18.043c-3.019,1.951-5.798,2.231-7.773,1.095L154.352,509.029z
	"></path>
<path fill="#CCCCCC" stroke="#000000" stroke-linecap="round" stroke-linejoin="round" stroke-miterlimit="10" d="M191.151,501.069
	c-0.135-2.94-1.245-4.984-2.959-5.964c-1.974-1.128-4.749-0.847-7.761,1.101c-4.134,2.673-7.558,7.74-8.975,12.748l10.899-6.293
	v8.794l-10.818,6.246c0.513,1.124,1.252,1.975,2.175,2.506c1.974,1.136,4.754,0.857,7.773-1.095
	C187.115,515.473,191.442,507.394,191.151,501.069z"></path>
<path fill="none" stroke="#00467F" stroke-miterlimit="10" d="M159.714,510.467"></path>
<polyline points="159.633,501.719 171.62,508.64 171.456,508.953 182.355,502.661 182.355,511.455 172.806,516.968 159.714,509.717 
	"></polyline>
<path fill="#CCCCCC" d="M159.633,501.719c-0.512,1.812-0.769,3.615-0.692,5.296c0.062,1.347,0.337,2.497,0.773,3.452l7.535-4.35
	L159.633,501.719z"></path>
<path fill="#E6E6E6" stroke="#000000" stroke-linecap="round" stroke-linejoin="round" stroke-miterlimit="10" d="M171.456,508.953
	l0.164-0.313l-2.251-1.3l-59.879,34.571l0,0c-0.425,0.243-0.699,0.749-0.733,1.478c-0.072,1.567,1,3.568,2.395,4.47
	c0.748,0.483,1.436,0.553,1.926,0.271l65.692-37.927c0.423-0.243,0.697-0.749,0.73-1.476c0.054-1.172-0.532-2.585-1.414-3.601
	L171.456,508.953z"></path>
<line fill="none" stroke="#FFFFFF" stroke-linecap="round" stroke-linejoin="round" stroke-miterlimit="10" x1="170.369" y1="509.59" x2="110.49" y2="544.161"></line>
<circle fill="#005EA8" stroke="#000000" stroke-linecap="round" stroke-linejoin="round" stroke-miterlimit="10" cx="109.799" cy="546.475" r="6.573"></circle>
<path fill="#B3B3B3" stroke="#000000" stroke-linecap="round" stroke-linejoin="round" stroke-miterlimit="10" d="M376.073,309.831
	c0-3.912-5.485-7.083-12.25-7.083c-6.766,0-12.25,3.171-12.25,7.083v10.868c0,3.912,5.484,7.083,12.25,7.083
	c6.765,0,12.25-3.171,12.25-7.083V309.831z"></path>
<ellipse fill="#E6E6E6" cx="363.823" cy="309.831" rx="12.25" ry="7.083"></ellipse>
<path d="M359.721,324.249c-3.505-0.721-6.27-2.335-7.478-4.372v-7.75l11.254-6.498l7.525,4.345l-11.301,6.525V324.249z"></path>
<path fill="#E6E6E6" stroke="#000000" stroke-linecap="round" stroke-linejoin="round" stroke-miterlimit="10" d="M359.221,316.249
	l6.077-3.508c-0.427-1.004-1.143-1.946-1.982-2.488c-0.748-0.483-1.436-0.553-1.926-0.271l-65.692,37.927
	c-0.425,0.243-0.699,0.749-0.733,1.478c-0.072,1.567,1,3.568,2.395,4.47c0.748,0.483,1.436,0.553,1.926,0.271l59.935-34.604V316.249
	z"></path>
<line fill="none" stroke="#FFFFFF" stroke-linecap="round" stroke-linejoin="round" stroke-miterlimit="10" x1="356.578" y1="315.587" x2="296.699" y2="350.158"></line>
<circle fill="#005EA8" stroke="#000000" stroke-linecap="round" stroke-linejoin="round" stroke-miterlimit="10" cx="296.008" cy="352.472" r="6.573"></circle>
<g>
	<path fill="#999999" stroke="#000000" stroke-miterlimit="10" d="M519.055,533.798l10.518-6.073v-13.784l-10.136-5.852
		l-2.785,1.608v9.785c0,0.49-0.261,0.943-0.686,1.188l-7.047,4.069v3.207L519.055,533.798z"></path>
	<polygon fill="#E6E6E6" points="526.103,526.522 519.055,530.59 508.919,524.738 515.966,520.67 	"></polygon>
	<path fill="#CCCCCC" d="M526.789,515.549v9.785c0,0.49-0.262,0.943-0.686,1.188l-7.047,4.069v3.207l9.603-5.544
		c0.566-0.327,0.915-0.931,0.915-1.584v-12.728L526.789,515.549z"></path>
	<polygon fill="#CCCCCC" points="526.789,515.549 529.573,513.941 519.437,508.089 516.652,509.697 	"></polygon>
</g>
<g>
	<path fill="#999999" stroke="#000000" stroke-miterlimit="10" d="M236.78,718.715l-12.185-7.035V695.71l11.743-6.78l3.226,1.863
		v11.336c0,0.568,0.303,1.093,0.795,1.376l8.164,4.714v3.715L236.78,718.715z"></path>
	<polygon fill="#F2F2F2" points="228.615,710.286 236.78,714.999 248.523,708.22 240.358,703.506 	"></polygon>
	<path fill="#CCCCCC" d="M227.821,697.573v11.336c0,0.568,0.303,1.093,0.795,1.376l8.164,4.714v3.716l-11.126-6.423
		c-0.656-0.379-1.06-1.078-1.06-1.835V695.71L227.821,697.573z"></path>
	<polygon fill="#CCCCCC" points="227.821,697.573 224.594,695.71 236.337,688.931 239.563,690.793 	"></polygon>
</g>
<g>
	<path fill="#FFFFFF" d="M289.124,160.97c1.811-1.048,2.931-2.496,2.931-4.095c0-3.2-4.487-5.795-10.023-5.795
		c-2.77,0-5.278,0.65-7.092,1.7l-60.784,35.254c-1.811,1.048-2.931,2.496-2.931,4.095c0,3.2,4.487,5.795,10.023,5.795
		c2.77,0,5.278-0.65,7.092-1.7L289.124,160.97z"></path>
</g>
</svg>