<!--?xml version="1.0" encoding="utf-8"?--><svg style="display:block;width:100%;height:100%;" version="1.1" id="Layer_1" xmlns="http://www.w3.org/2000/svg" xmlns:xlink="http://www.w3.org/1999/xlink" viewBox="0 0 291.802 246.678" xml:space="preserve">
<g>
	<g>
		<g>
			<polygon fill="#4D4D4D" stroke="#000000" stroke-linejoin="round" points="76.672,246.178 71.136,242.982 71.136,240.547 
				72.206,241.165 72.206,238.048 71.136,237.43 71.136,235.206 271.31,119.635 276.846,122.831 276.846,125.266 275.776,124.648 
				275.776,127.766 276.846,128.383 276.846,130.608 			"></polygon>
			<polygon fill="#CCCCCC" points="275.776,127.766 276.846,128.383 76.672,243.954 75.602,243.336 			"></polygon>
			<polygon fill="#B3B3B3" points="276.846,122.831 276.846,125.266 76.672,240.837 76.672,238.402 			"></polygon>
			<polygon fill="#CCCCCC" points="71.136,242.982 76.672,246.178 76.672,243.954 75.602,243.336 75.602,240.219 76.672,240.837 
				76.672,238.402 71.136,235.206 71.136,237.43 72.206,238.048 72.206,241.165 71.136,240.547 71.136,242.982 76.672,246.178 			
				"></polygon>
		</g>
		<g>
			<polygon fill="#4D4D4D" stroke="#000000" points="6.036,205.396 0.5,202.2 0.5,199.765 1.57,200.383 1.57,197.266 0.5,196.648 
				0.5,194.424 200.674,78.853 206.21,82.049 206.21,84.484 205.14,83.867 205.14,86.984 206.21,87.602 206.21,89.826 			"></polygon>
			<polygon fill="#CCCCCC" points="205.14,86.984 206.21,87.602 6.036,203.172 4.966,202.554 			"></polygon>
			<polygon fill="#B3B3B3" points="206.21,82.049 206.21,84.484 6.036,200.055 6.036,197.62 			"></polygon>
			<polygon fill="#CCCCCC" points="0.5,202.2 6.036,205.396 6.036,203.172 4.966,202.554 4.966,199.437 6.036,200.055 6.036,197.62 
				0.5,194.424 0.5,196.648 1.57,197.266 1.57,200.383 0.5,199.765 0.5,202.2 6.036,205.396 			"></polygon>
		</g>
		<polygon fill="#808080" stroke="#000000" stroke-width="0.5" points="0.5,191.924 200.674,76.353 276.846,120.331 
			276.846,122.831 76.672,238.402 0.5,194.424 		"></polygon>
		<polyline fill="none" stroke="#CCCCCC" stroke-width="0.5" stroke-linecap="round" points="276.846,120.331 76.672,235.902 
			0.5,191.924 		"></polyline>
	</g>
	<g>
		<path fill="#E6E6E6" stroke="#000000" stroke-width="0.5" stroke-miterlimit="10" d="M104.292,173.065
			c-0.223-0.893-0.692-1.547-1.342-1.922l-11.635-6.718c-1.034-0.596-2.516-0.493-4.149,0.445c-3.052,1.754-5.477,5.762-5.416,8.952
			c0.028,1.48,0.586,2.524,1.481,3.043l11.635,6.718c0.478,0.277,1.056,0.397,1.697,0.361c0.91,0.324,2.1,0.157,3.396-0.588
			c2.79-1.603,5.007-5.268,4.952-8.184C104.894,174.293,104.67,173.586,104.292,173.065z"></path>
		<g>
			<g>
				<polygon fill="#0071BC" points="85.308,182.609 89.069,184.78 92.01,183.083 92.01,179.737 88.248,177.565 87.546,177.971 
					87.546,180.607 85.308,181.899 				"></polygon>
				<polygon fill="#0071BC" points="91.307,182.779 89.069,184.071 85.308,181.899 87.546,180.607 				"></polygon>
			</g>
			<g>
				<polygon fill="#B3B3B3" points="85.308,182.609 89.069,184.78 92.01,183.083 92.01,179.737 88.248,177.565 87.546,177.971 
					87.546,180.607 85.308,181.899 				"></polygon>
				<polygon fill="#E6E6E6" points="91.307,182.779 89.069,184.071 85.308,181.899 87.546,180.607 				"></polygon>
			</g>
		</g>
		<path fill="#CCCCCC" d="M94.632,180.805c0.026,1.353,0.536,2.307,1.354,2.782c0.946,0.549,2.303,0.456,3.799-0.404
			c2.79-1.603,5.007-5.268,4.952-8.184c-0.026-1.356-0.538-2.311-1.359-2.785c-0.945-0.545-2.3-0.451-3.793,0.407
			C96.793,174.224,94.576,177.888,94.632,180.805z"></path>
		<path fill="#4D4D4D" d="M96.165,180.381c0.02,1.069,0.424,1.824,1.07,2.199c0.748,0.434,1.82,0.36,3.003-0.319
			c2.206-1.268,3.958-4.164,3.915-6.47c-0.02-1.072-0.425-1.827-1.075-2.202c-0.747-0.431-1.818-0.357-2.999,0.322
			C97.874,175.178,96.121,178.075,96.165,180.381z"></path>
		<path fill="#E6E6E6" d="M98.655,179.6c0.01,0.543,0.215,0.926,0.543,1.117c0.38,0.22,0.924,0.183,1.525-0.162
			c1.12-0.644,2.01-2.115,1.988-3.285c-0.01-0.544-0.216-0.928-0.546-1.118c-0.379-0.219-0.923-0.181-1.523,0.163
			C99.522,176.958,98.632,178.429,98.655,179.6z"></path>
		
			<line fill="none" stroke="#E6E6E6" stroke-linecap="round" stroke-miterlimit="10" x1="100.079" y1="173.91" x2="100.238" y2="182.26"></line>
		
			<line fill="none" stroke="#E6E6E6" stroke-linecap="round" stroke-miterlimit="10" x1="96.165" y1="180.381" x2="104.153" y2="175.79"></line>
	</g>
	<g>
		<polygon fill="#B3B3B3" stroke="#000000" stroke-width="0.5" stroke-miterlimit="10" points="7.2,195.886 23.951,205.557 
			57.611,186.123 57.611,178.261 40.861,168.59 12.238,185.115 7.2,191.274 		"></polygon>
		<polygon fill="#E6E6E6" points="7.2,191.274 23.951,200.945 28.989,194.786 12.238,185.115 		"></polygon>
		<polygon fill="#CCCCCC" points="40.861,168.59 12.238,185.115 28.989,194.786 57.611,178.261 		"></polygon>
	</g>
	<g>
		<path fill="#B3B3B3" stroke="#000000" stroke-width="1.0974" d="M50.93,181.022c0,6.156-8.264,11.146-18.459,11.146
			s-18.459-4.99-18.459-11.146v-26.426c0-6.156,8.264-11.146,18.459-11.146s18.459,4.99,18.459,11.146V181.022z"></path>
		<ellipse fill="#808080" cx="32.471" cy="154.596" rx="18.459" ry="11.146"></ellipse>
		<path fill="#4D4D4D" d="M14.012,157.096c0,6.156,8.264,11.146,18.459,11.146s18.459-4.99,18.459-11.146v-2.5
			c0,6.156-8.264,11.146-18.459,11.146s-18.459-4.99-18.459-11.146V157.096z"></path>
		<path fill="#4D4D4D" d="M14.012,164.197c0,6.156,8.264,11.146,18.459,11.146s18.459-4.99,18.459-11.146v-1.5
			c0,6.156-8.264,11.146-18.459,11.146s-18.459-4.99-18.459-11.146V164.197z"></path>
		<path fill="#4D4D4D" d="M14.012,172.181c0,6.156,8.264,11.146,18.459,11.146s18.459-4.99,18.459-11.146v-1.5
			c0,6.156-8.264,11.146-18.459,11.146s-18.459-4.99-18.459-11.146V172.181z"></path>
		<path fill="#4D4D4D" d="M14.012,181.022c0,6.156,8.264,11.146,18.459,11.146s18.459-4.99,18.459-11.146v-2.5
			c0,6.156-8.264,11.146-18.459,11.146s-18.459-4.99-18.459-11.146V181.022z"></path>
		<ellipse fill="#4D4D4D" cx="32.221" cy="155.372" rx="4.098" ry="2.474"></ellipse>
		<ellipse fill="#333333" cx="32.221" cy="154.122" rx="4.098" ry="2.474"></ellipse>
	</g>
	<g>
		<g>
			<path fill="#CCCCCC" stroke="#000000" stroke-width="0.5" d="M133.838,169.215c-1.055,0.612-2.19,1.098-3.381,1.482v12.745
				l9.729,5.617l9.729-5.617v-21.064l-2.118-1.223L133.838,169.215z"></path>
			<polygon fill="#F2F2F2" points="140.186,189.059 140.186,167.995 149.915,162.378 149.915,183.442 			"></polygon>
		</g>
		<g>
			<polygon fill="#F2F2F2" stroke="#000000" stroke-width="0.5" points="101.704,134.414 101.704,155.477 91.975,161.094 
				82.246,155.477 82.246,134.414 91.975,128.797 			"></polygon>
		</g>
		<g>
			<path fill="#CCCCCC" stroke="#000000" stroke-width="0.5" d="M190.185,136.683c-1.055,0.612-2.19,1.098-3.381,1.482v12.745
				l9.729,5.617l9.729-5.617v-21.064l-2.118-1.223L190.185,136.683z"></path>
			<polygon fill="#F2F2F2" points="196.533,156.527 196.533,135.464 206.262,129.847 206.262,150.91 			"></polygon>
		</g>
		<g>
			<path fill="#CCCCCC" stroke="#000000" stroke-width="0.5" d="M246.532,104.151c-1.055,0.612-2.19,1.098-3.381,1.482v12.745
				l9.729,5.617l9.729-5.617V97.315l-2.118-1.223L246.532,104.151z"></path>
			<polygon fill="#F2F2F2" points="252.88,123.995 252.88,102.932 262.609,97.315 262.609,118.378 			"></polygon>
		</g>
	</g>
	<line fill="none" stroke="#C1272D" stroke-width="0.25" stroke-miterlimit="10" x1="229.016" y1="2.965" x2="81.242" y2="88.282"></line>
	<path fill="#1B5291" stroke="#000000" stroke-width="1.0974" d="M229.016,2.965c6.727-3.879,16.369-3.21,26.995,2.897
		c19.855,11.411,35.631,37.486,35.236,58.241c-0.183,9.627-3.813,16.418-9.634,19.795l-147.774,85.317
		c-6.729,3.903-16.386,3.244-27.033-2.875c-19.855-11.411-35.631-37.486-35.236-58.241c0.184-9.648,3.829-16.448,9.672-19.817
		L95.5,80.05L229.016,2.965z"></path>
	<path fill="#0071BC" d="M256.01,5.862c-6.301-3.621-12.249-5.316-17.455-5.298L105.039,77.648
		c5.206-0.017,11.155,1.677,17.456,5.298c4.922,2.829,9.592,6.56,13.829,10.887l133.515-77.085
		C265.602,12.422,260.932,8.69,256.01,5.862z"></path>
	<path fill="none" stroke="#000000" stroke-miterlimit="10" d="M188.543,90.078c1.921,3.58,3.543,7.255,4.811,10.939l12.921-7.46"></path>
	<path fill="none" stroke="#000000" stroke-miterlimit="10" d="M158.394,107.485c1.921,3.58,3.543,7.255,4.811,10.939l12.921-7.46"></path>
	<path fill="none" stroke="#000000" stroke-miterlimit="10" d="M222.998,70.185c1.921,3.58,3.543,7.255,4.811,10.939l12.921-7.46"></path>
	<path fill="none" stroke="#000000" stroke-miterlimit="10" d="M254.124,52.215c1.921,3.58,3.543,7.255,4.811,10.939"></path>
	<line fill="none" stroke="#000000" stroke-miterlimit="10" x1="258.936" y1="63.154" x2="271.856" y2="55.694"></line>
	<path fill="#3C72B0" d="M188.543,89.828c1.921,3.58,3.543,7.255,4.811,10.939l12.921-7.46c-1.268-3.683-2.891-7.359-4.811-10.939
		L188.543,89.828z"></path>
	<path fill="#3C72B0" d="M158.394,107.235c1.921,3.58,3.543,7.255,4.811,10.939l12.921-7.46c-1.268-3.683-2.891-7.359-4.811-10.939
		L158.394,107.235z"></path>
	<path fill="#3C72B0" d="M222.998,69.935c1.921,3.58,3.543,7.255,4.811,10.939l12.921-7.46c-1.268-3.683-2.891-7.359-4.811-10.939
		L222.998,69.935z"></path>
	<path fill="#3C72B0" d="M254.124,51.965c1.921,3.58,3.543,7.255,4.811,10.939l12.921-7.46c-1.268-3.683-2.891-7.359-4.811-10.939
		L254.124,51.965z"></path>
	<g>
		<path fill="#808080" d="M139.536,129.183c2.625,6.86,4.058,13.804,3.936,20.237c-0.183,9.627-3.813,16.418-9.634,19.795
			c-6.729,3.903-16.386,3.244-27.033-2.875c-19.855-11.411-35.631-37.486-35.236-58.241c0.124-6.502,1.825-11.703,4.706-15.44
			l14.259-8.232c1.394-1.808,3.061-3.278,4.966-4.377c6.727-3.879,16.368-3.21,26.995,2.896c13.701,7.874,25.457,22.731,31.3,38.004
			L139.536,129.183z"></path>
		<path fill="#4D4D4D" d="M90.534,84.427c1.394-1.808,3.061-3.278,4.966-4.377c6.727-3.879,16.368-3.21,26.995,2.896
			c13.701,7.874,25.457,22.731,31.3,38.004L90.534,84.427z"></path>
		<path fill="#4D4D4D" d="M90.534,84.427c1.394-1.808,3.061-3.278,4.966-4.377c6.727-3.879,16.368-3.21,26.995,2.896
			c13.701,7.874,25.457,22.731,31.3,38.004"></path>
		<path d="M107.665,87.829c-0.022,1.174-0.465,2.002-1.175,2.414c-0.821,0.476-1.998,0.396-3.296-0.351
			c-2.421-1.391-4.345-4.571-4.297-7.102c0.022-1.176,0.467-2.006,1.179-2.416c0.82-0.473,1.996-0.391,3.292,0.353
			C105.79,82.118,107.714,85.298,107.665,87.829z"></path>
		<path fill="#4D4D4D" d="M139.536,129.183c2.625,6.86,4.058,13.804,3.936,20.237c-0.183,9.627-3.813,16.418-9.634,19.795
			c-6.729,3.903-16.386,3.244-27.033-2.875c-19.855-11.411-35.631-37.486-35.236-58.241c0.124-6.502,1.825-11.703,4.706-15.44
			L139.536,129.183z"></path>
	</g>
	<path fill="#666666" d="M108.861,162.159c-18.307-10.521-32.852-34.562-32.488-53.699c0.086-4.542,1.008-8.396,2.605-11.495
		l-0.946-0.546c-2.243,3.358-3.555,7.827-3.659,13.291c-0.364,19.137,14.181,43.178,32.488,53.699
		c9.816,5.641,18.72,6.249,24.924,2.65c0.494-0.286,0.964-0.609,1.423-0.948C127.035,168.355,118.381,167.63,108.861,162.159z"></path>
	<g>
		<polygon fill="#666666" points="140.657,146.42 140.51,143.539 127.914,136.267 127.914,125.218 125.462,123.803 125.462,137.648 
					"></polygon>
		<polygon fill="#666666" points="96.776,107.241 94.324,105.825 94.324,119.67 122.664,136.032 125.117,134.651 96.776,118.289 		
			"></polygon>
	</g>
	<g>
		<path fill="#4D4D4D" d="M140.657,146.42l-15.195-8.773v-13.845l-2.798-1.615v13.845l-28.34-16.363v-13.845l-2.798-1.615v13.845
			l-17.081-9.862c-0.031,0.5-0.062,1-0.072,1.518c-0.005,0.249,0.004,0.502,0.004,0.753l17.149,9.901v30.215
			c0.908,1.032,1.84,2.034,2.798,3.004v-31.604l28.34,16.363v29.954c0.96,0.01,1.895-0.04,2.798-0.155v-28.183l15.17,8.758
			c0.013-0.301,0.03-0.599,0.036-0.907C140.677,147.35,140.665,146.885,140.657,146.42z"></path>
		<polygon fill="#666666" points="125.462,139.957 125.462,139.957 125.462,168.141 127.914,166.817 127.914,141.373 		"></polygon>
		<polygon fill="#666666" points="76.465,106.562 74.445,108.192 91.526,118.054 91.526,115.257 		"></polygon>
	</g>
	<polygon fill="#666666" points="94.324,121.979 94.324,121.979 94.324,153.583 96.776,152.783 96.776,123.395 	"></polygon>
	<g>
		<path fill="none" stroke="#5C90CC" stroke-width="0.5" stroke-linecap="round" d="M95.5,80.05
			c6.727-3.879,16.369-3.21,26.995,2.897c19.855,11.411,35.631,37.486,35.236,58.241c-0.183,9.627-3.813,16.418-9.634,19.795"></path>
		<path fill="none" stroke="#5C90CC" stroke-width="0.5" stroke-linecap="round" d="M128.879,60.779
			c6.727-3.879,16.369-3.21,26.995,2.897c19.855,11.411,35.631,37.486,35.236,58.241c-0.183,9.627-3.813,16.418-9.634,19.795"></path>
		<path fill="none" stroke="#5C90CC" stroke-width="0.5" stroke-linecap="round" d="M162.258,41.508
			c6.727-3.879,16.369-3.21,26.995,2.897c19.855,11.411,35.631,37.486,35.236,58.241c-0.183,9.627-3.813,16.418-9.634,19.795"></path>
		<path fill="none" stroke="#5C90CC" stroke-width="0.5" stroke-linecap="round" d="M195.637,22.236
			c6.727-3.879,16.369-3.21,26.995,2.897c19.855,11.411,35.631,37.486,35.236,58.241c-0.183,9.627-3.813,16.418-9.634,19.795"></path>
		<path fill="none" stroke="#5C90CC" stroke-width="0.5" stroke-linecap="round" d="M229.016,2.965
			c6.727-3.879,16.369-3.21,26.995,2.897c19.855,11.411,35.631,37.486,35.236,58.241c-0.183,9.627-3.813,16.418-9.634,19.795"></path>
	</g>
	<path fill="#666666" stroke="#CCCCCC" d="M115.653,154.404c-0.032,1.703-0.675,2.905-1.705,3.502
		c-1.191,0.691-2.899,0.574-4.783-0.509c-3.513-2.019-6.305-6.633-6.235-10.305c0.032-1.707,0.677-2.91,1.711-3.506
		c1.19-0.686,2.896-0.568,4.776,0.513C112.931,146.118,115.722,150.732,115.653,154.404z"></path>
	<path fill="#1B5291" stroke="#000000" stroke-width="1.0974" d="M115.653,154.404c-0.032,1.703-0.675,2.905-1.705,3.502
		c-1.191,0.691-2.899,0.574-4.783-0.509c-3.513-2.019-6.305-6.633-6.235-10.305c0.032-1.707,0.677-2.91,1.711-3.506
		c1.19-0.686,2.896-0.568,4.776,0.513C112.931,146.118,115.722,150.732,115.653,154.404z"></path>
	<g>
		<path fill="#333333" d="M84.332,133.491c-0.62,0.358-1.007,1.08-1.027,2.104c-0.042,2.203,1.633,4.971,3.741,6.183
			c1.13,0.649,2.155,0.72,2.87,0.305l1.901-1.098c0.618-0.358,1.003-1.079,1.023-2.101c0.042-2.203-1.633-4.971-3.741-6.183
			c-1.128-0.648-2.152-0.719-2.866-0.307L84.332,133.491z"></path>
		<path fill="#666666" d="M90.938,139.981c-0.019,1.022-0.405,1.743-1.023,2.101c-0.714,0.414-1.74,0.344-2.87-0.305
			c-2.108-1.211-3.783-3.979-3.741-6.183c0.019-1.024,0.406-1.746,1.027-2.104c0.714-0.412,1.738-0.341,2.866,0.307
			C89.305,135.01,90.98,137.778,90.938,139.981z"></path>
		<path fill="none" stroke="#333333" stroke-width="7" stroke-linecap="round" stroke-miterlimit="10" d="M85.675,138.416
			l-5.208,3.007c-1.856,1.072-3,3.053-3,5.196v24.096"></path>
		<path fill="#333333" d="M89.694,139.267c-0.013,0.689-0.273,1.175-0.689,1.416c-0.482,0.279-1.173,0.232-1.934-0.206
			c-1.421-0.816-2.55-2.682-2.521-4.168c0.013-0.69,0.274-1.177,0.692-1.418c0.481-0.278,1.171-0.23,1.932,0.207
			C88.593,135.916,89.722,137.781,89.694,139.267z"></path>
	</g>
	<path fill="none" stroke="#333333" stroke-width="7" stroke-linecap="round" stroke-miterlimit="10" d="M100.55,85.316
		l-61.768,35.662c-4.022,2.322-6.5,6.614-6.5,11.258v20.055"></path>
	<path fill="none" stroke="#CCCCCC" stroke-linecap="round" stroke-miterlimit="10" d="M98.8,84.066l-61.768,35.662
		c-4.022,2.322-6.5,6.614-6.5,11.258"></path>
	<g>
		<path fill="#999999" d="M125.984,108.025V87.613c0-4.362-5.856-7.898-13.08-7.898c-7.224,0-13.08,3.536-13.08,7.898v18.643
			l16.308,9.415C121.792,114.801,125.984,111.713,125.984,108.025z"></path>
		<ellipse fill="#B3B3B3" stroke="#808080" stroke-width="0.5487" cx="112.904" cy="87.613" rx="13.08" ry="7.898"></ellipse>
		<ellipse fill="#B3B3B3" stroke="#808080" cx="112.904" cy="87.613" rx="11.175" ry="6.748"></ellipse>
		<path fill="#666666" d="M116.143,115.669c0,0-3.936-8.397-9.681-11.843c-5.745-3.447-6.361,2.581-6.361,2.581L116.143,115.669z"></path>
	</g>
	<g>
		<path fill="#CCCCCC" d="M46.702,204.763c0.006,0.335,0.133,0.571,0.335,0.689c0.234,0.136,0.57,0.113,0.94-0.1
			c0.691-0.397,1.239-1.304,1.226-2.026c-0.006-0.336-0.133-0.572-0.336-0.689c-0.234-0.135-0.569-0.112-0.939,0.101
			C47.237,203.134,46.688,204.041,46.702,204.763z"></path>
		<path fill="#CCCCCC" d="M46.702,209.228c0.006,0.335,0.133,0.571,0.335,0.689c0.234,0.136,0.57,0.113,0.94-0.1
			c0.691-0.397,1.239-1.304,1.226-2.026c-0.006-0.336-0.133-0.572-0.336-0.689c-0.234-0.135-0.569-0.112-0.939,0.101
			C47.237,207.599,46.688,208.506,46.702,209.228z"></path>
		<path fill="#CCCCCC" d="M46.702,213.693c0.006,0.335,0.133,0.571,0.335,0.689c0.234,0.136,0.57,0.113,0.94-0.1
			c0.691-0.397,1.239-1.304,1.226-2.026c-0.006-0.336-0.133-0.572-0.336-0.689c-0.234-0.135-0.569-0.112-0.939,0.101
			C47.237,212.064,46.688,212.971,46.702,213.693z"></path>
	</g>
	<g>
		<g>
			<path fill="#1B5291" stroke="#000000" stroke-width="0.5" d="M245.152,13.497c0-2.768-3.716-5.012-8.3-5.012
				c-4.584,0-8.3,2.244-8.3,5.012v2.75c0,2.768,3.716,5.012,8.3,5.012c4.584,0,8.3-2.244,8.3-5.012V13.497z"></path>
			<ellipse fill="#3C72B0" cx="236.852" cy="13.497" rx="8.3" ry="5.012"></ellipse>
			<path fill="none" stroke="#4E95E6" stroke-width="0.5" stroke-miterlimit="10" d="M236.852,18.508c-4.584,0-8.3-2.244-8.3-5.012"></path>
		</g>
		<g>
			<path fill="#1B5291" stroke="#000000" stroke-width="0.5" d="M212.581,32.302c0-2.768-3.716-5.012-8.3-5.012
				s-8.3,2.244-8.3,5.012v2.75c0,2.768,3.716,5.012,8.3,5.012s8.3-2.244,8.3-5.012V32.302z"></path>
			<ellipse fill="#3C72B0" cx="204.281" cy="32.302" rx="8.3" ry="5.012"></ellipse>
			<path fill="none" stroke="#4E95E6" stroke-width="0.5" stroke-miterlimit="10" d="M204.281,37.313c-4.584,0-8.3-2.244-8.3-5.012"></path>
		</g>
		<g>
			<path fill="#1B5291" stroke="#000000" stroke-width="0.5" d="M180.01,51.106c0-2.768-3.716-5.012-8.3-5.012
				c-4.584,0-8.3,2.244-8.3,5.012v2.75c0,2.768,3.716,5.012,8.3,5.012c4.584,0,8.3-2.244,8.3-5.012V51.106z"></path>
			<ellipse fill="#3C72B0" cx="171.71" cy="51.106" rx="8.3" ry="5.012"></ellipse>
			<path fill="none" stroke="#4E95E6" stroke-width="0.5" stroke-miterlimit="10" d="M171.71,56.118c-4.584,0-8.3-2.244-8.3-5.012"></path>
		</g>
		<g>
			<path fill="#1B5291" stroke="#000000" stroke-width="0.5" d="M147.439,69.911c0-2.768-3.716-5.012-8.3-5.012
				s-8.3,2.244-8.3,5.012v2.75c0,2.768,3.716,5.012,8.3,5.012s8.3-2.244,8.3-5.012V69.911z"></path>
			<ellipse fill="#3C72B0" cx="139.139" cy="69.911" rx="8.3" ry="5.012"></ellipse>
			<path fill="none" stroke="#4E95E6" stroke-width="0.5" stroke-miterlimit="10" d="M139.139,74.923c-4.584,0-8.3-2.244-8.3-5.012"></path>
		</g>
	</g>
	<ellipse fill="#B3B3B3" cx="236.852" cy="13.497" rx="4.15" ry="2.506"></ellipse>
	<ellipse fill="#B3B3B3" cx="204.281" cy="32.302" rx="4.15" ry="2.506"></ellipse>
	<ellipse fill="#B3B3B3" cx="171.71" cy="51.106" rx="4.15" ry="2.506"></ellipse>
	<ellipse fill="#B3B3B3" cx="139.139" cy="69.911" rx="4.15" ry="2.506"></ellipse>
	<path fill="none" stroke="#333333" stroke-width="6" stroke-linecap="round" stroke-miterlimit="10" d="M139.266,68.224v-6.426
		c0-2.118,1.13-4.074,2.964-5.133l25.008-14.438c1.976-1.141,4.446,0.285,4.446,2.567v4.715"></path>
	<path fill="none" stroke="#CCCCCC" stroke-linecap="round" stroke-miterlimit="10" d="M138.016,60.798
		c0-2.118,1.13-4.074,2.964-5.133l25.008-14.438"></path>
	<path fill="none" stroke="#333333" stroke-width="6" stroke-linecap="round" stroke-miterlimit="10" d="M204.197,30.692V24.22
		c0-2.133,1.138-4.104,2.985-5.171l25.189-14.543c1.99-1.149,4.478,0.287,4.478,2.585v4.749"></path>
	<g>
		<polygon fill="#3C72B0" stroke="#000000" stroke-width="0.5" points="196.153,140.078 204.017,144.618 223.142,133.576 
			223.142,114.709 215.279,110.169 196.153,121.211 		"></polygon>
		<polygon fill="#5C90CC" points="215.279,110.169 196.153,121.211 204.017,125.751 223.142,114.709 		"></polygon>
	</g>
	<polyline fill="none" stroke="#C78163" stroke-width="3" stroke-linecap="round" stroke-miterlimit="10" points="168.888,99.613 
		168.888,108.578 166.207,110.32 	"></polyline>
	<polyline fill="none" stroke="#C78163" stroke-width="3" stroke-linecap="round" stroke-miterlimit="10" points="200.675,81.23 
		200.675,90.179 197.994,91.937 	"></polyline>
	<polyline fill="none" stroke="#C78163" stroke-width="3" stroke-linecap="round" stroke-miterlimit="10" points="233.611,62.081 
		233.611,71.046 231.313,72.804 	"></polyline>
	<polyline fill="none" stroke="#C78163" stroke-width="3" stroke-linecap="round" stroke-miterlimit="10" points="265.399,43.733 
		265.399,52.397 263.101,54.006 	"></polyline>
	<g>
		<path fill="#CCCCCC" d="M200.301,126.35c-0.004,0.234-0.093,0.4-0.235,0.482c-0.164,0.095-0.399,0.079-0.658-0.07
			c-0.484-0.278-0.868-0.913-0.858-1.418c0.004-0.235,0.093-0.401,0.236-0.483c0.164-0.094,0.399-0.078,0.657,0.071
			C199.926,125.21,200.31,125.845,200.301,126.35z"></path>
		<path fill="#CCCCCC" d="M200.301,130.66c-0.004,0.234-0.093,0.4-0.235,0.482c-0.164,0.095-0.399,0.079-0.658-0.07
			c-0.484-0.278-0.868-0.913-0.858-1.418c0.004-0.235,0.093-0.401,0.236-0.483c0.164-0.094,0.399-0.078,0.657,0.071
			C199.926,129.52,200.31,130.155,200.301,130.66z"></path>
		<path fill="#CCCCCC" d="M200.301,134.97c-0.004,0.234-0.093,0.4-0.235,0.482c-0.164,0.095-0.399,0.079-0.658-0.07
			c-0.484-0.278-0.868-0.913-0.858-1.418c0.004-0.235,0.093-0.401,0.236-0.483c0.164-0.094,0.399-0.078,0.657,0.071
			C199.926,133.83,200.31,134.465,200.301,134.97z"></path>
		<path fill="#CCCCCC" d="M200.301,139.281c-0.004,0.234-0.093,0.4-0.235,0.482c-0.164,0.095-0.399,0.079-0.658-0.07
			c-0.484-0.278-0.868-0.913-0.858-1.418c0.004-0.235,0.093-0.401,0.236-0.483c0.164-0.094,0.399-0.078,0.657,0.071
			C199.926,138.14,200.31,138.775,200.301,139.281z"></path>
	</g>
	<g>
		<g>
			<path fill="none" stroke="#C78163" stroke-width="1.5" stroke-linecap="round" stroke-miterlimit="10" d="M269.933,35.714
				l1.218-0.757c0.464-0.288,1.078-0.154,1.374,0.305c1.316,2.04,2.537,4.13,3.653,6.253c2.702,5.14,4.786,10.47,6.089,15.72
				c0.117,0.471-0.127,0.957-0.57,1.155l-1.297,0.579"></path>
			<path fill="none" stroke="#F1C08C" stroke-width="0.5" stroke-linecap="round" stroke-miterlimit="10" d="M271.151,34.956
				c0.464-0.288,1.078-0.154,1.374,0.305c1.316,2.04,2.537,4.13,3.653,6.253c2.702,5.14,4.786,10.47,6.089,15.72"></path>
			<polyline fill="none" stroke="#C78163" stroke-width="2.5" stroke-linecap="round" stroke-miterlimit="10" points="
				268.022,44.505 271.685,42.39 275.228,40.344 			"></polyline>
			<polyline fill="none" stroke="#F1C08C" stroke-width="0.5" stroke-linecap="round" stroke-miterlimit="10" points="
				267.772,44.005 271.435,41.89 274.978,39.844 			"></polyline>
			<path fill="#808080" stroke="#000000" stroke-width="0.5" d="M268.481,43.733c0-0.969-1.301-1.754-2.905-1.754
				s-2.905,0.785-2.905,1.754v7.713c0,0.969,1.301,1.754,2.905,1.754s2.905-0.785,2.905-1.754V43.733z"></path>
			<ellipse fill="#999999" cx="265.576" cy="43.733" rx="2.905" ry="1.754"></ellipse>
			<path fill="none" stroke="#FFFFFF" stroke-width="0.5" stroke-miterlimit="10" d="M265.576,45.487
				c-1.604,0-2.905-0.785-2.905-1.754"></path>
		</g>
		<polyline fill="none" stroke="#C78163" stroke-width="3" stroke-linecap="round" stroke-miterlimit="10" points="241.909,18.848 
			265.399,32.41 265.399,43.233 		"></polyline>
		
			<line fill="none" stroke="#F1C08C" stroke-width="0.5" stroke-linecap="round" stroke-miterlimit="10" x1="265.899" y1="37.41" x2="265.899" y2="43.233"></line>
		
			<line fill="none" stroke="#F1C08C" stroke-width="0.5" stroke-linecap="round" stroke-miterlimit="10" x1="241.909" y1="18.348" x2="265.399" y2="31.91"></line>
		<g>
			<path fill="#808080" stroke="#000000" stroke-width="0.5" d="M268.481,31.233c0-0.969-1.301-1.754-2.905-1.754
				s-2.905,0.785-2.905,1.754v2.713c0,0.969,1.301,1.754,2.905,1.754s2.905-0.785,2.905-1.754V31.233z"></path>
			<ellipse fill="#999999" cx="265.576" cy="31.233" rx="2.905" ry="1.754"></ellipse>
			<path fill="none" stroke="#FFFFFF" stroke-width="0.5" stroke-miterlimit="10" d="M265.576,32.987
				c-1.604,0-2.905-0.785-2.905-1.754"></path>
		</g>
		<path fill="none" stroke="#C78163" stroke-width="1.5" stroke-linecap="round" stroke-miterlimit="10" d="M238.138,51.429
			l1.331-0.887c0.461-0.307,1.089-0.185,1.396,0.276c1.55,2.333,2.977,4.738,4.264,7.186c2.699,5.133,4.781,10.456,6.084,15.699
			c0.119,0.48-0.137,0.975-0.593,1.165l-1.452,0.605"></path>
		<path fill="none" stroke="#F1C08C" stroke-width="0.5" stroke-linecap="round" stroke-miterlimit="10" d="M239.469,50.542
			c0.461-0.307,1.089-0.185,1.396,0.276c1.55,2.333,2.977,4.738,4.264,7.186c2.699,5.133,4.781,10.456,6.084,15.699"></path>
		<path fill="none" stroke="#C78163" stroke-width="1.5" stroke-linecap="round" stroke-miterlimit="10" d="M248.918,45.846
			l1.218-0.757c0.464-0.288,1.078-0.154,1.374,0.305c1.316,2.04,2.537,4.13,3.653,6.253c2.702,5.14,4.786,10.47,6.089,15.72
			c0.117,0.471-0.127,0.957-0.57,1.155l-1.297,0.579"></path>
		<path fill="none" stroke="#F1C08C" stroke-width="0.5" stroke-linecap="round" stroke-miterlimit="10" d="M250.136,45.089
			c0.464-0.288,1.078-0.154,1.374,0.305c1.316,2.04,2.537,4.13,3.653,6.253c2.702,5.14,4.786,10.47,6.089,15.72"></path>
		<polyline fill="none" stroke="#C78163" stroke-width="2.5" stroke-linecap="round" stroke-miterlimit="10" points="236.42,62.75 
			250.047,54.882 263.229,47.272 		"></polyline>
		<polyline fill="none" stroke="#F1C08C" stroke-width="0.5" stroke-linecap="round" stroke-miterlimit="10" points="236.42,62.25 
			250.047,54.382 263.229,46.772 		"></polyline>
	</g>
	<g>
		<g>
			<path fill="#808080" stroke="#000000" stroke-width="0.5" d="M236.66,62.288c0-0.969-1.301-1.754-2.905-1.754
				c-1.604,0-2.905,0.785-2.905,1.754v7.713c0,0.969,1.301,1.754,2.905,1.754s2.905-0.785,2.905-1.754V62.288z"></path>
			<ellipse fill="#999999" cx="233.755" cy="62.288" rx="2.905" ry="1.754"></ellipse>
			<path fill="none" stroke="#FFFFFF" stroke-width="0.5" stroke-miterlimit="10" d="M233.755,64.042
				c-1.604,0-2.905-0.785-2.905-1.754"></path>
		</g>
		<polyline fill="none" stroke="#C78163" stroke-width="3" stroke-linecap="round" stroke-miterlimit="10" points="210.122,37.497 
			233.611,51.059 233.611,61.581 		"></polyline>
		
			<line fill="none" stroke="#F1C08C" stroke-width="0.5" stroke-linecap="round" stroke-miterlimit="10" x1="234.111" y1="56.059" x2="234.111" y2="61.581"></line>
		
			<line fill="none" stroke="#F1C08C" stroke-width="0.5" stroke-linecap="round" stroke-miterlimit="10" x1="210.122" y1="36.747" x2="233.611" y2="50.309"></line>
		<g>
			<path fill="#808080" stroke="#000000" stroke-width="0.5" d="M236.66,49.788c0-0.969-1.301-1.754-2.905-1.754
				c-1.604,0-2.905,0.785-2.905,1.754v2.712c0,0.969,1.301,1.754,2.905,1.754s2.905-0.785,2.905-1.754V49.788z"></path>
			<ellipse fill="#999999" cx="233.755" cy="49.788" rx="2.905" ry="1.754"></ellipse>
			<path fill="none" stroke="#FFFFFF" stroke-width="0.5" stroke-miterlimit="10" d="M233.755,51.542
				c-1.604,0-2.905-0.785-2.905-1.754"></path>
		</g>
		<path fill="none" stroke="#C78163" stroke-width="1.5" stroke-linecap="round" stroke-miterlimit="10" d="M204.54,70.827
			l1.331-0.887c0.461-0.307,1.089-0.185,1.396,0.276c1.55,2.333,2.977,4.738,4.264,7.186c2.699,5.133,4.781,10.456,6.084,15.699
			c0.119,0.48-0.137,0.975-0.593,1.165l-1.452,0.605"></path>
		<path fill="none" stroke="#F1C08C" stroke-width="0.5" stroke-linecap="round" stroke-miterlimit="10" d="M205.871,69.94
			c0.461-0.307,1.089-0.185,1.396,0.276c1.55,2.333,2.977,4.738,4.264,7.186c2.699,5.133,4.781,10.456,6.084,15.699"></path>
		<g>
			<path fill="none" stroke="#C78163" stroke-width="1.5" stroke-linecap="round" stroke-miterlimit="10" d="M215.32,65.244
				l1.218-0.757c0.464-0.288,1.078-0.154,1.374,0.305c1.316,2.04,2.537,4.13,3.653,6.253c2.702,5.14,4.786,10.47,6.089,15.72
				c0.117,0.471-0.127,0.957-0.57,1.155l-1.297,0.579"></path>
		</g>
		<path fill="none" stroke="#F1C08C" stroke-width="0.5" stroke-linecap="round" stroke-miterlimit="10" d="M216.538,64.487
			c0.464-0.288,1.078-0.154,1.374,0.305c1.316,2.04,2.537,4.13,3.653,6.253c2.702,5.14,4.786,10.47,6.089,15.72"></path>
		<polyline fill="none" stroke="#C78163" stroke-width="2.5" stroke-linecap="round" stroke-miterlimit="10" points="
			202.335,82.429 216.237,74.403 231.313,65.699 		"></polyline>
		<polyline fill="none" stroke="#F1C08C" stroke-width="0.5" stroke-linecap="round" stroke-miterlimit="10" points="
			202.335,81.929 216.237,73.903 231.313,65.199 		"></polyline>
	</g>
	<g>
		<g>
			<path fill="#808080" stroke="#000000" stroke-width="0.5" d="M203.589,81.343c0-0.969-1.301-1.754-2.905-1.754
				c-1.604,0-2.905,0.785-2.905,1.754v7.713c0,0.969,1.301,1.754,2.905,1.754c1.604,0,2.905-0.785,2.905-1.754V81.343z"></path>
			<ellipse fill="#999999" cx="200.684" cy="81.343" rx="2.905" ry="1.754"></ellipse>
			<path fill="none" stroke="#FFFFFF" stroke-width="0.5" stroke-miterlimit="10" d="M200.684,83.097
				c-1.604,0-2.905-0.785-2.905-1.754"></path>
		</g>
		<polyline fill="none" stroke="#C78163" stroke-width="3" stroke-linecap="round" stroke-miterlimit="10" points="177.186,56.38 
			200.675,69.942 200.675,81.299 		"></polyline>
		
			<line fill="none" stroke="#F1C08C" stroke-width="0.5" stroke-linecap="round" stroke-miterlimit="10" x1="201.175" y1="74.942" x2="201.175" y2="81.299"></line>
		
			<line fill="none" stroke="#F1C08C" stroke-width="0.5" stroke-linecap="round" stroke-miterlimit="10" x1="177.186" y1="55.88" x2="200.675" y2="69.442"></line>
		<g>
			<path fill="#808080" stroke="#000000" stroke-width="0.5" d="M203.589,68.843c0-0.969-1.301-1.754-2.905-1.754
				c-1.604,0-2.905,0.785-2.905,1.754v2.713c0,0.969,1.301,1.754,2.905,1.754c1.604,0,2.905-0.785,2.905-1.754V68.843z"></path>
			<ellipse fill="#999999" cx="200.684" cy="68.843" rx="2.905" ry="1.754"></ellipse>
			<path fill="none" stroke="#FFFFFF" stroke-width="0.5" stroke-miterlimit="10" d="M200.684,70.597
				c-1.604,0-2.905-0.785-2.905-1.754"></path>
		</g>
		<path fill="none" stroke="#C78163" stroke-width="1.5" stroke-linecap="round" stroke-miterlimit="10" d="M182.297,84.027
			l1.218-0.757c0.464-0.288,1.078-0.154,1.374,0.305c1.316,2.04,2.537,4.13,3.653,6.253c2.702,5.14,4.786,10.47,6.089,15.72
			c0.117,0.471-0.127,0.957-0.57,1.155l-1.297,0.579"></path>
		<path fill="none" stroke="#F1C08C" stroke-width="0.5" stroke-linecap="round" stroke-miterlimit="10" d="M183.515,83.27
			c0.464-0.288,1.078-0.154,1.374,0.305c1.316,2.04,2.537,4.13,3.653,6.253c2.702,5.14,4.786,10.47,6.089,15.72"></path>
		<path fill="none" stroke="#C78163" stroke-width="1.5" stroke-linecap="round" stroke-miterlimit="10" d="M171.517,89.611
			l1.331-0.887c0.461-0.307,1.089-0.185,1.396,0.276c1.55,2.333,2.977,4.738,4.264,7.186c2.699,5.133,4.781,10.456,6.084,15.699
			c0.119,0.48-0.137,0.975-0.593,1.165l-1.452,0.605"></path>
		<path fill="none" stroke="#F1C08C" stroke-width="0.5" stroke-linecap="round" stroke-miterlimit="10" d="M172.849,88.724
			c0.461-0.307,1.089-0.185,1.396,0.276c1.55,2.333,2.977,4.738,4.264,7.186c2.699,5.133,4.781,10.456,6.084,15.699"></path>
		<polyline fill="none" stroke="#C78163" stroke-width="2.5" stroke-linecap="round" stroke-miterlimit="10" points="
			170.361,100.889 178.337,96.284 188.809,90.238 198.25,84.788 		"></polyline>
		<polyline fill="none" stroke="#F1C08C" stroke-width="0.5" stroke-linecap="round" stroke-miterlimit="10" points="
			170.361,100.389 178.337,95.784 188.809,89.738 198.25,84.288 		"></polyline>
	</g>
	<g>
		<g>
			<path fill="#808080" stroke="#000000" stroke-width="0.5" d="M171.517,99.898c0-0.969-1.301-1.754-2.905-1.754
				c-1.604,0-2.905,0.785-2.905,1.754v7.713c0,0.969,1.301,1.754,2.905,1.754c1.604,0,2.905-0.785,2.905-1.754V99.898z"></path>
			<ellipse fill="#999999" cx="168.612" cy="99.898" rx="2.905" ry="1.754"></ellipse>
			<path fill="none" stroke="#FFFFFF" stroke-width="0.5" stroke-miterlimit="10" d="M168.612,101.652
				c-1.604,0-2.905-0.785-2.905-1.754"></path>
		</g>
		<polyline fill="none" stroke="#C78163" stroke-width="3" stroke-linecap="round" stroke-miterlimit="10" points="145.399,75.029 
			168.888,88.591 168.888,99.549 		"></polyline>
		
			<line fill="none" stroke="#F1C08C" stroke-width="0.5" stroke-linecap="round" stroke-miterlimit="10" x1="169.388" y1="93.591" x2="169.388" y2="99.549"></line>
		
			<line fill="none" stroke="#F1C08C" stroke-width="0.5" stroke-linecap="round" stroke-miterlimit="10" x1="145.399" y1="74.529" x2="168.888" y2="88.091"></line>
		<g>
			<path fill="#808080" stroke="#000000" stroke-width="0.5" d="M171.517,87.398c0-0.969-1.301-1.754-2.905-1.754
				c-1.604,0-2.905,0.785-2.905,1.754v2.713c0,0.969,1.301,1.754,2.905,1.754c1.604,0,2.905-0.785,2.905-1.754V87.398z"></path>
			<ellipse fill="#999999" cx="168.612" cy="87.398" rx="2.905" ry="1.754"></ellipse>
			<path fill="none" stroke="#FFFFFF" stroke-width="0.5" stroke-miterlimit="10" d="M168.612,89.152
				c-1.604,0-2.905-0.785-2.905-1.754"></path>
		</g>
		<g>
			<path fill="none" stroke="#C78163" stroke-width="1.5" stroke-linecap="round" stroke-miterlimit="10" d="M147.472,103.494
				l1.331-0.887c0.461-0.307,1.089-0.185,1.396,0.276c1.55,2.333,2.977,4.738,4.264,7.186c2.699,5.133,4.781,10.456,6.084,15.699
				c0.119,0.48-0.137,0.975-0.593,1.165l-1.452,0.605"></path>
		</g>
		<path fill="none" stroke="#F1C08C" stroke-width="0.5" stroke-linecap="round" stroke-miterlimit="10" d="M148.803,102.606
			c0.461-0.307,1.089-0.185,1.396,0.276c1.55,2.333,2.977,4.738,4.264,7.186c2.699,5.133,4.781,10.456,6.084,15.699"></path>
		
			<line fill="none" stroke="#C78163" stroke-width="2.5" stroke-linecap="round" stroke-miterlimit="10" x1="154.462" y1="110.068" x2="166.079" y2="103.361"></line>
		
			<line fill="none" stroke="#F1C08C" stroke-width="0.5" stroke-linecap="round" stroke-miterlimit="10" x1="154.462" y1="109.568" x2="166.079" y2="102.861"></line>
	</g>
	<path fill="none" stroke="#E6E6E6" stroke-linecap="round" stroke-miterlimit="10" d="M199.289,134.57l-10.336,5.967
		c-0.928,0.536-1.602,1.421-1.872,2.458l-0.795,17.811c-0.202,0.778-0.708,1.442-1.404,1.844"></path>
	<path fill="none" stroke="#E6E6E6" stroke-linecap="round" stroke-miterlimit="10" d="M199.289,130.315l-11.928,6.887
		c-1.126,0.65-1.866,1.807-1.984,3.102l-0.391,20.557c-0.118,1.295-0.857,2.452-1.984,3.102"></path>
	<path fill="none" stroke="#E6E6E6" stroke-linecap="round" stroke-miterlimit="10" d="M199.289,126.059l-13.162,7.599
		c-1.547,0.893-2.5,2.544-2.5,4.33v22.783c0,1.429-0.762,2.75-2,3.464"></path>
	<path fill="none" stroke="#CCCCCC" stroke-linecap="round" stroke-miterlimit="10" d="M203.372,22.495
		c0-2.118,1.13-4.074,2.964-5.133l25.008-14.438"></path>
	<path fill="none" stroke="#B3B3B3" stroke-linecap="round" stroke-miterlimit="10" d="M202.59,121.075
		c0-3.447-1.66-6.144-3.447-5.745c-3.812,0.851-12.255,7.261-15.702,6.495c-3.447-0.766-3.064-9.957-8.809-18l-2.947,0.016"></path>
	<path fill="none" stroke="#B3B3B3" stroke-linecap="round" stroke-miterlimit="10" d="M207.303,118.496
		c0-2.788-1.266-3.181-2.415-6.628s-3.83-11.106-7.277-16.468s1.532-8.043,1.532-8.043"></path>
	<path fill="none" stroke="#B3B3B3" stroke-linecap="round" stroke-miterlimit="10" d="M211.032,116.331
		c0.383-4.596-1.282-4.846-1.282-5.995c0-1.149,28.426-15.92,30.34-17.452c1.915-1.532,0.415-12.42-3.798-18.931
		c0,0,1.532-6.383-0.383-6.511"></path>
	<path fill="none" stroke="#B3B3B3" stroke-linecap="round" stroke-miterlimit="10" d="M214.994,114.017
		c0-2.848-2.947-3.085,0.5-5.598c3.447-2.514,54.766-29.322,55.915-32.769c1.149-3.447-0.06-11.529-2.947-20.846
		c0,0,1.089-6.573-0.649-6.894"></path>
	<g>
		
			<polyline fill="none" stroke="#C78163" stroke-width="3" stroke-linecap="round" stroke-linejoin="round" stroke-miterlimit="10" points="
			240.701,105.493 247.82,109.603 262.958,100.863 255.839,96.753 		"></polyline>
		<polyline fill="none" stroke="#F1C08C" stroke-width="0.5" stroke-linecap="round" stroke-miterlimit="10" points="
			240.701,104.493 247.82,108.603 262.958,99.863 		"></polyline>
		
			<line fill="none" stroke="#C78163" stroke-width="5" stroke-linecap="round" stroke-linejoin="round" stroke-miterlimit="10" x1="254.731" y1="105.613" x2="257.25" y2="104.158"></line>
		<g>
			<path fill="none" stroke="#000000" stroke-width="1.5" stroke-linejoin="round" stroke-miterlimit="10" d="M253.613,107.902
				c0.019,1.002,0.397,1.709,1.003,2.061c0.701,0.406,1.706,0.338,2.814-0.299c2.067-1.188,3.71-3.903,3.668-6.064
				c-0.019-1.004-0.399-1.712-1.007-2.063c-0.7-0.404-1.704-0.334-2.81,0.302C255.214,103.026,253.572,105.741,253.613,107.902z"></path>
			
				<line fill="none" stroke="#000000" stroke-linejoin="round" stroke-miterlimit="10" x1="257.282" y1="101.838" x2="257.43" y2="109.663"></line>
			
				<line fill="none" stroke="#000000" stroke-linejoin="round" stroke-miterlimit="10" x1="261.099" y1="103.6" x2="253.613" y2="107.902"></line>
			<path d="M256.033,106.511c0.007,0.354,0.14,0.604,0.355,0.729c0.248,0.144,0.603,0.119,0.995-0.106
				c0.731-0.42,1.311-1.38,1.297-2.144c-0.007-0.355-0.141-0.605-0.356-0.729c-0.248-0.143-0.602-0.118-0.994,0.107
				C256.599,104.788,256.018,105.747,256.033,106.511z"></path>
		</g>
		<path fill="#C78163" d="M238.277,106.211c0.009,0.46,0.182,0.784,0.46,0.945c0.321,0.186,0.783,0.155,1.291-0.137
			c0.948-0.545,1.702-1.79,1.683-2.782c-0.009-0.461-0.183-0.786-0.462-0.947c-0.321-0.185-0.782-0.153-1.289,0.138
			C239.012,103.974,238.258,105.22,238.277,106.211z"></path>
		<path fill="#C78163" d="M253.596,97.403c0.009,0.46,0.182,0.784,0.46,0.945c0.321,0.186,0.783,0.155,1.291-0.137
			c0.948-0.545,1.702-1.79,1.683-2.782c-0.009-0.461-0.183-0.786-0.462-0.947c-0.321-0.185-0.782-0.153-1.289,0.138
			C254.331,95.166,253.577,96.411,253.596,97.403z"></path>
		<path fill="none" stroke="#F1C08C" stroke-width="0.5" stroke-linecap="round" stroke-miterlimit="10" d="M240.21,103.429
			c-0.948,0.545-1.702,1.79-1.683,2.782"></path>
		<path fill="none" stroke="#F1C08C" stroke-width="0.5" stroke-linecap="round" stroke-miterlimit="10" d="M255.529,94.621
			c-0.948,0.545-1.702,1.79-1.683,2.782"></path>
	</g>
	<g>
		<path fill="#C78163" d="M262.908,85.774c0.009,0.46,0.182,0.784,0.46,0.945c0.321,0.186,0.783,0.155,1.291-0.137
			c0.948-0.545,1.702-1.79,1.683-2.782c-0.009-0.461-0.183-0.786-0.462-0.947c-0.321-0.185-0.782-0.153-1.289,0.138
			C263.642,83.537,262.889,84.782,262.908,85.774z"></path>
		
			<polyline fill="none" stroke="#C78163" stroke-width="3" stroke-linecap="round" stroke-linejoin="round" stroke-miterlimit="10" points="
			230.767,105.101 237.886,109.211 272.418,89.273 265.299,85.163 		"></polyline>
		<polyline fill="none" stroke="#F1C08C" stroke-width="0.5" stroke-linecap="round" stroke-miterlimit="10" points="
			230.767,104.101 237.886,108.211 272.418,88.273 		"></polyline>
		
			<line fill="none" stroke="#C78163" stroke-width="5" stroke-linecap="round" stroke-linejoin="round" stroke-miterlimit="10" x1="262.104" y1="95.228" x2="264.608" y2="93.782"></line>
		<g>
			<path fill="none" stroke="#000000" stroke-width="1.5" stroke-linejoin="round" stroke-miterlimit="10" d="M260.507,97.423
				c0.019,1.002,0.397,1.709,1.003,2.061c0.701,0.406,1.706,0.338,2.814-0.299c2.067-1.188,3.71-3.903,3.668-6.064
				c-0.019-1.004-0.399-1.712-1.007-2.063c-0.7-0.404-1.704-0.334-2.81,0.302C262.108,92.547,260.466,95.262,260.507,97.423z"></path>
			
				<line fill="none" stroke="#000000" stroke-linejoin="round" stroke-miterlimit="10" x1="264.175" y1="91.36" x2="264.324" y2="99.185"></line>
			
				<line fill="none" stroke="#000000" stroke-linejoin="round" stroke-miterlimit="10" x1="267.993" y1="93.121" x2="260.507" y2="97.423"></line>
			<path d="M262.926,96.033c0.007,0.354,0.14,0.604,0.355,0.729c0.248,0.144,0.603,0.119,0.995-0.106
				c0.731-0.42,1.311-1.38,1.297-2.144c-0.007-0.355-0.141-0.605-0.356-0.729c-0.248-0.143-0.602-0.118-0.994,0.107
				C263.492,94.309,262.912,95.269,262.926,96.033z"></path>
		</g>
		<path fill="#C78163" d="M228.567,105.816c0.009,0.46,0.182,0.784,0.46,0.945c0.321,0.186,0.783,0.155,1.291-0.137
			c0.948-0.545,1.702-1.79,1.683-2.782c-0.009-0.461-0.183-0.786-0.462-0.947c-0.321-0.185-0.782-0.153-1.289,0.138
			C229.302,103.579,228.548,104.825,228.567,105.816z"></path>
		<path fill="none" stroke="#F1C08C" stroke-width="0.5" stroke-linecap="round" stroke-miterlimit="10" d="M264.841,83.242
			c-0.948,0.545-1.702,1.79-1.683,2.782"></path>
		<path fill="none" stroke="#F1C08C" stroke-width="0.5" stroke-linecap="round" stroke-miterlimit="10" d="M230.5,103.284
			c-0.948,0.545-1.702,1.79-1.683,2.782"></path>
	</g>
	<path fill="none" stroke="#E6E6E6" stroke-linecap="round" stroke-miterlimit="10" d="M185.436,162.853
		c1.076-0.621,1.802-1.707,1.965-2.939l1.845-13.938c0.122-0.924,0.667-1.738,1.474-2.204l8.568-4.947"></path>
	<path fill="none" stroke="#000000" stroke-width="1.2259" d="M183.367,118.803l-1.149,0.691c0,0,0,0.457-0.574,0.649
		c-0.574,0.191-1.207-0.016-1.207-0.016l-1.016,0.383"></path>
	<path fill="none" stroke="#000000" stroke-width="1.2259" d="M206.351,109.378l-1.149,0.691c0,0,0,0.457-0.574,0.649
		c-0.574,0.191-1.207-0.016-1.207-0.016l-1.016,0.383"></path>
	<path fill="none" stroke="#000000" stroke-width="1.2259" d="M274.074,70.719l-1.149,0.691c0,0,0,0.457-0.574,0.649
		c-0.574,0.191-1.207-0.016-1.207-0.016l-1.016,0.383"></path>
	<path fill="none" stroke="#000000" stroke-width="1.2259" d="M243.175,87.565l-1.149,0.691c0,0,0,0.457-0.574,0.649
		s-1.207-0.016-1.207-0.016l-1.016,0.383"></path>
	<path fill="none" stroke="#000000" stroke-width="1.2259" d="M211.016,107.4l0.383,1.021c0,0,0.638,0.888,0.255,1.527l0.383,0.638"></path>
	<path fill="none" stroke="#000000" stroke-width="1.2259" d="M242.425,91.698l0.122,1.149c0,0,0.638,0.888-0.128,1.91l-0.383,0.771
		"></path>
	<g>
		
			<path fill="none" stroke="#BAB186" stroke-width="1.6483" stroke-linecap="round" stroke-linejoin="round" stroke-miterlimit="10" d="
			M158.921,144.53l3.525,2.035c0.366,0.211,0.824-0.053,0.824-0.476v-3.685"></path>
		<linearGradient id="SVGID_1_" gradientUnits="userSpaceOnUse" x1="161.3206" y1="144.205" x2="165.1731" y2="137.5323">
			<stop offset="0.011" style="stop-color:#4D4D4D"></stop>
			<stop offset="0.3516" style="stop-color:#FFFFFF"></stop>
			<stop offset="1" style="stop-color:#4D4D4D"></stop>
		</linearGradient>
		<path fill="url(#SVGID_1_)" d="M166.166,138.105c0.467,0.269,0.758,0.813,0.773,1.584c0.032,1.659-1.229,3.744-2.817,4.656
			c-0.851,0.489-1.623,0.542-2.161,0.23l-1.637-0.945c-0.465-0.27-0.755-0.813-0.77-1.582c-0.032-1.659,1.229-3.744,2.817-4.656
			c0.849-0.488,1.62-0.542,2.158-0.232L166.166,138.105z"></path>
		<path fill="#FFFFFF" stroke="#FFFFFF" stroke-width="0.2747" stroke-linejoin="round" stroke-miterlimit="10" d="M161.74,142.677
			c0.012,0.623,0.247,1.062,0.623,1.28c0.435,0.252,1.06,0.21,1.748-0.186c1.284-0.738,2.305-2.425,2.279-3.767
			c-0.012-0.624-0.248-1.064-0.626-1.282c-0.435-0.251-1.059-0.208-1.746,0.187C162.735,139.648,161.714,141.335,161.74,142.677z"></path>
		<path fill="#BAB186" d="M157.671,144.988c0.006,0.294,0.116,0.501,0.294,0.605c0.206,0.119,0.5,0.099,0.826-0.088
			c0.606-0.349,1.088-1.145,1.076-1.779c-0.006-0.295-0.117-0.502-0.295-0.605c-0.205-0.118-0.5-0.098-0.824,0.088
			C158.141,143.558,157.659,144.354,157.671,144.988z"></path>
		<g>
			<path fill="none" stroke="#000000" stroke-width="0.5494" stroke-linejoin="round" stroke-dasharray="0.277,0.5539" d="
				M162.108,142.466c0.01,0.524,0.208,0.894,0.524,1.078c0.366,0.212,0.892,0.177,1.472-0.156c1.081-0.621,1.94-2.041,1.918-3.171
				c-0.01-0.525-0.208-0.895-0.526-1.079c-0.366-0.211-0.891-0.175-1.47,0.158C162.945,139.916,162.087,141.336,162.108,142.466z"></path>
		</g>
		<path fill="#993300" d="M163.792,141.76c0.07,0.04,0.17,0.034,0.28-0.03c0.206-0.118,0.369-0.389,0.365-0.604
			c-0.002-0.1-0.04-0.17-0.1-0.205c-0.07-0.04-1.543-0.308-1.653-0.245C162.478,140.795,163.732,141.725,163.792,141.76z"></path>
		
			<line fill="none" stroke="#D6CC9A" stroke-width="0.2747" stroke-linecap="round" stroke-linejoin="round" stroke-miterlimit="10" x1="158.783" y1="143.843" x2="162.308" y2="145.878"></line>
	</g>
	<g>
		
			<path fill="none" stroke="#BAB186" stroke-width="1.6483" stroke-linecap="round" stroke-linejoin="round" stroke-miterlimit="10" d="
			M176.505,134.418l3.525,2.035c0.366,0.211,0.824-0.053,0.824-0.476v-3.685"></path>
		
			<linearGradient id="SVGID_00000163044899978504903660000015468766803693916557_" gradientUnits="userSpaceOnUse" x1="178.9047" y1="134.0927" x2="182.7572" y2="127.42">
			<stop offset="0.011" style="stop-color:#4D4D4D"></stop>
			<stop offset="0.3516" style="stop-color:#FFFFFF"></stop>
			<stop offset="1" style="stop-color:#4D4D4D"></stop>
		</linearGradient>
		<path fill="url(#SVGID_00000163044899978504903660000015468766803693916557_)" d="M183.75,127.993
			c0.467,0.269,0.758,0.813,0.773,1.584c0.032,1.659-1.229,3.744-2.817,4.656c-0.851,0.489-1.623,0.542-2.161,0.23l-1.637-0.945
			c-0.465-0.27-0.755-0.813-0.77-1.582c-0.032-1.659,1.229-3.744,2.817-4.656c0.849-0.488,1.62-0.542,2.158-0.232L183.75,127.993z"></path>
		<path fill="#FFFFFF" stroke="#FFFFFF" stroke-width="0.2747" stroke-linejoin="round" stroke-miterlimit="10" d="M179.324,132.565
			c0.012,0.623,0.247,1.062,0.623,1.28c0.435,0.252,1.06,0.21,1.748-0.186c1.284-0.738,2.305-2.425,2.279-3.767
			c-0.012-0.624-0.248-1.064-0.626-1.282c-0.435-0.251-1.059-0.208-1.746,0.187C180.319,129.536,179.299,131.223,179.324,132.565z"></path>
		<path fill="#BAB186" d="M175.256,134.876c0.006,0.294,0.116,0.501,0.294,0.605c0.206,0.119,0.5,0.099,0.826-0.088
			c0.606-0.348,1.088-1.145,1.076-1.779c-0.006-0.295-0.117-0.502-0.295-0.605c-0.205-0.118-0.5-0.098-0.824,0.088
			C175.725,133.446,175.244,134.242,175.256,134.876z"></path>
		<g>
			<path fill="none" stroke="#000000" stroke-width="0.5494" stroke-linejoin="round" stroke-dasharray="0.277,0.5539" d="
				M179.692,132.354c0.01,0.524,0.208,0.894,0.524,1.078c0.366,0.212,0.892,0.177,1.472-0.156c1.081-0.621,1.94-2.041,1.918-3.171
				c-0.01-0.525-0.208-0.895-0.526-1.079c-0.366-0.211-0.891-0.175-1.47,0.158C180.53,129.804,179.671,131.224,179.692,132.354z"></path>
		</g>
		<path fill="#993300" d="M181.377,131.648c0.07,0.04,0.17,0.034,0.28-0.03c0.206-0.118,0.369-0.389,0.365-0.604
			c-0.002-0.1-0.04-0.17-0.1-0.205c-0.07-0.04-1.543-0.308-1.653-0.245C180.063,130.683,181.316,131.613,181.377,131.648z"></path>
		
			<line fill="none" stroke="#D6CC9A" stroke-width="0.2747" stroke-linecap="round" stroke-linejoin="round" stroke-miterlimit="10" x1="176.368" y1="133.731" x2="179.892" y2="135.766"></line>
	</g>
	<g>
		
			<path fill="none" stroke="#BAB186" stroke-width="1.6483" stroke-linecap="round" stroke-linejoin="round" stroke-miterlimit="10" d="
			M250.462,91.853l3.525,2.035c0.366,0.211,0.824-0.053,0.824-0.476v-3.685"></path>
		
			<linearGradient id="SVGID_00000176011725756801739290000006074970495141964461_" gradientUnits="userSpaceOnUse" x1="252.8619" y1="91.5278" x2="256.7144" y2="84.855">
			<stop offset="0.011" style="stop-color:#4D4D4D"></stop>
			<stop offset="0.3516" style="stop-color:#FFFFFF"></stop>
			<stop offset="1" style="stop-color:#4D4D4D"></stop>
		</linearGradient>
		<path fill="url(#SVGID_00000176011725756801739290000006074970495141964461_)" d="M257.707,85.428
			c0.467,0.269,0.758,0.813,0.773,1.584c0.032,1.659-1.229,3.744-2.817,4.656c-0.851,0.489-1.623,0.542-2.161,0.23l-1.637-0.945
			c-0.465-0.27-0.755-0.813-0.77-1.582c-0.032-1.659,1.229-3.744,2.817-4.656c0.849-0.488,1.62-0.542,2.158-0.232L257.707,85.428z"></path>
		<path fill="#FFFFFF" stroke="#FFFFFF" stroke-width="0.2747" stroke-linejoin="round" stroke-miterlimit="10" d="M253.281,90
			c0.012,0.623,0.247,1.062,0.623,1.28c0.435,0.252,1.06,0.21,1.748-0.186c1.284-0.738,2.305-2.425,2.279-3.767
			c-0.012-0.624-0.248-1.064-0.626-1.282c-0.435-0.251-1.059-0.208-1.746,0.187C254.276,86.971,253.256,88.658,253.281,90z"></path>
		<path fill="#BAB186" d="M249.213,92.311c0.006,0.294,0.116,0.501,0.294,0.605c0.206,0.119,0.5,0.099,0.826-0.088
			c0.606-0.349,1.088-1.145,1.076-1.779c-0.006-0.295-0.117-0.502-0.295-0.605c-0.205-0.118-0.5-0.098-0.824,0.088
			C249.683,90.881,249.201,91.677,249.213,92.311z"></path>
		<g>
			<path fill="none" stroke="#000000" stroke-width="0.5494" stroke-linejoin="round" stroke-dasharray="0.277,0.5539" d="
				M253.649,89.789c0.01,0.524,0.208,0.894,0.524,1.078c0.366,0.212,0.892,0.177,1.472-0.156c1.081-0.621,1.94-2.041,1.918-3.171
				c-0.01-0.525-0.208-0.895-0.526-1.079c-0.366-0.211-0.891-0.175-1.47,0.158C254.487,87.239,253.628,88.659,253.649,89.789z"></path>
		</g>
		<path fill="#993300" d="M255.334,89.083c0.07,0.04,0.17,0.034,0.28-0.03c0.206-0.118,0.369-0.389,0.365-0.604
			c-0.002-0.1-0.04-0.17-0.1-0.205c-0.07-0.04-1.543-0.308-1.653-0.245C254.02,88.118,255.273,89.048,255.334,89.083z"></path>
		
			<line fill="none" stroke="#D6CC9A" stroke-width="0.2747" stroke-linecap="round" stroke-linejoin="round" stroke-miterlimit="10" x1="250.325" y1="91.166" x2="253.849" y2="93.201"></line>
	</g>
	<g>
		
			<path fill="none" stroke="#BAB186" stroke-width="1.6483" stroke-linecap="round" stroke-linejoin="round" stroke-miterlimit="10" d="
			M268.046,81.741l3.525,2.035c0.366,0.211,0.824-0.053,0.824-0.476v-3.685"></path>
		
			<linearGradient id="SVGID_00000173150824306371925730000003341706381868006534_" gradientUnits="userSpaceOnUse" x1="270.446" y1="81.4155" x2="274.2986" y2="74.7428">
			<stop offset="0.011" style="stop-color:#4D4D4D"></stop>
			<stop offset="0.3516" style="stop-color:#FFFFFF"></stop>
			<stop offset="1" style="stop-color:#4D4D4D"></stop>
		</linearGradient>
		<path fill="url(#SVGID_00000173150824306371925730000003341706381868006534_)" d="M275.291,75.316
			c0.467,0.269,0.758,0.813,0.773,1.584c0.032,1.659-1.229,3.744-2.817,4.656c-0.851,0.489-1.623,0.542-2.161,0.23l-1.637-0.945
			c-0.465-0.27-0.755-0.813-0.77-1.582c-0.032-1.659,1.229-3.744,2.817-4.656c0.849-0.488,1.62-0.542,2.158-0.232L275.291,75.316z"></path>
		<path fill="#FFFFFF" stroke="#FFFFFF" stroke-width="0.2747" stroke-linejoin="round" stroke-miterlimit="10" d="M270.865,79.888
			c0.012,0.623,0.247,1.062,0.623,1.28c0.435,0.252,1.06,0.21,1.748-0.186c1.284-0.738,2.305-2.425,2.279-3.767
			c-0.012-0.624-0.248-1.064-0.626-1.282c-0.435-0.251-1.059-0.208-1.746,0.187C271.86,76.859,270.84,78.546,270.865,79.888z"></path>
		<path fill="#BAB186" d="M266.797,82.199c0.006,0.294,0.116,0.501,0.294,0.605c0.206,0.119,0.5,0.099,0.826-0.088
			c0.606-0.349,1.088-1.145,1.076-1.779c-0.006-0.295-0.117-0.502-0.295-0.605c-0.205-0.118-0.5-0.098-0.824,0.088
			C267.267,80.768,266.785,81.565,266.797,82.199z"></path>
		<g>
			<path fill="none" stroke="#000000" stroke-width="0.5494" stroke-linejoin="round" stroke-dasharray="0.277,0.5539" d="
				M271.234,79.676c0.01,0.524,0.208,0.894,0.524,1.078c0.366,0.212,0.892,0.177,1.472-0.156c1.081-0.621,1.94-2.041,1.918-3.171
				c-0.01-0.525-0.208-0.895-0.526-1.079c-0.366-0.211-0.891-0.175-1.47,0.158C272.071,77.127,271.212,78.547,271.234,79.676z"></path>
		</g>
		<path fill="#993300" d="M272.918,78.971c0.07,0.04,0.17,0.034,0.28-0.03c0.206-0.118,0.369-0.389,0.365-0.604
			c-0.002-0.1-0.04-0.17-0.1-0.205c-0.07-0.04-1.543-0.308-1.653-0.245C271.604,78.006,272.858,78.936,272.918,78.971z"></path>
		
			<line fill="none" stroke="#D6CC9A" stroke-width="0.2747" stroke-linecap="round" stroke-linejoin="round" stroke-miterlimit="10" x1="267.909" y1="81.054" x2="271.434" y2="83.089"></line>
	</g>
	<g>
		
			<polyline fill="none" stroke="#C78163" stroke-width="3" stroke-linecap="round" stroke-linejoin="round" stroke-miterlimit="10" points="
			158.71,152.422 165.829,156.532 180.967,147.792 173.848,143.682 		"></polyline>
		<polyline fill="none" stroke="#F1C08C" stroke-width="0.5" stroke-linecap="round" stroke-miterlimit="10" points="
			158.71,151.422 165.829,155.532 180.967,146.792 		"></polyline>
		
			<line fill="none" stroke="#C78163" stroke-width="5" stroke-linecap="round" stroke-linejoin="round" stroke-miterlimit="10" x1="171.537" y1="153.237" x2="175.259" y2="151.087"></line>
		<g>
			<path fill="none" stroke="#000000" stroke-width="1.5" stroke-linejoin="round" stroke-miterlimit="10" d="M171.622,154.831
				c0.019,1.002,0.397,1.709,1.003,2.061c0.701,0.406,1.706,0.338,2.814-0.299c2.067-1.188,3.71-3.903,3.668-6.064
				c-0.019-1.004-0.399-1.712-1.007-2.063c-0.7-0.404-1.704-0.334-2.81,0.302C173.223,149.955,171.581,152.67,171.622,154.831z"></path>
			
				<line fill="none" stroke="#000000" stroke-linejoin="round" stroke-miterlimit="10" x1="175.29" y1="148.767" x2="175.439" y2="156.593"></line>
			
				<line fill="none" stroke="#000000" stroke-linejoin="round" stroke-miterlimit="10" x1="179.108" y1="150.529" x2="171.622" y2="154.831"></line>
			<path d="M174.042,153.44c0.007,0.354,0.14,0.604,0.355,0.729c0.248,0.144,0.603,0.119,0.995-0.106
				c0.731-0.42,1.311-1.38,1.297-2.144c-0.007-0.355-0.141-0.605-0.356-0.729c-0.248-0.143-0.602-0.118-0.994,0.107
				C174.608,151.717,174.027,152.676,174.042,153.44z"></path>
		</g>
		<path fill="#C78163" d="M156.286,153.14c0.009,0.46,0.182,0.784,0.46,0.945c0.321,0.186,0.783,0.155,1.291-0.137
			c0.948-0.545,1.702-1.79,1.683-2.782c-0.009-0.461-0.183-0.786-0.462-0.947c-0.321-0.185-0.782-0.153-1.289,0.138
			C157.021,150.903,156.267,152.149,156.286,153.14z"></path>
		<path fill="#C78163" d="M171.605,144.332c0.009,0.46,0.182,0.784,0.46,0.945c0.321,0.186,0.783,0.155,1.291-0.137
			c0.948-0.545,1.702-1.79,1.683-2.782c-0.009-0.461-0.183-0.786-0.462-0.947c-0.321-0.185-0.782-0.153-1.289,0.138
			C172.34,142.095,171.586,143.34,171.605,144.332z"></path>
		<path fill="none" stroke="#F1C08C" stroke-width="0.5" stroke-linecap="round" stroke-miterlimit="10" d="M158.219,150.608
			c-0.948,0.545-1.702,1.79-1.683,2.782"></path>
		<path fill="none" stroke="#F1C08C" stroke-width="0.5" stroke-linecap="round" stroke-miterlimit="10" d="M173.538,141.8
			c-0.948,0.545-1.702,1.79-1.683,2.782"></path>
	</g>
	<g>
		<path fill="#C78163" d="M180.916,132.703c0.009,0.46,0.182,0.784,0.46,0.945c0.321,0.186,0.783,0.155,1.291-0.137
			c0.948-0.545,1.702-1.79,1.683-2.782c-0.009-0.461-0.183-0.786-0.462-0.947c-0.321-0.185-0.782-0.153-1.289,0.138
			C181.651,130.466,180.898,131.711,180.916,132.703z"></path>
		
			<polyline fill="none" stroke="#C78163" stroke-width="3" stroke-linecap="round" stroke-linejoin="round" stroke-miterlimit="10" points="
			148.776,152.03 155.895,156.14 190.427,136.203 183.308,132.093 		"></polyline>
		<polyline fill="none" stroke="#F1C08C" stroke-width="0.5" stroke-linecap="round" stroke-miterlimit="10" points="
			148.776,151.03 155.895,155.14 190.427,135.203 		"></polyline>
		
			<line fill="none" stroke="#C78163" stroke-width="5" stroke-linecap="round" stroke-linejoin="round" stroke-miterlimit="10" x1="179.45" y1="142.54" x2="183.28" y2="140.329"></line>
		<g>
			<path fill="none" stroke="#000000" stroke-width="1.5" stroke-linejoin="round" stroke-miterlimit="10" d="M178.516,144.352
				c0.019,1.002,0.397,1.709,1.003,2.061c0.701,0.406,1.706,0.338,2.814-0.299c2.067-1.188,3.71-3.903,3.668-6.064
				c-0.019-1.004-0.399-1.712-1.007-2.063c-0.7-0.404-1.704-0.334-2.81,0.302C180.117,139.477,178.474,142.191,178.516,144.352z"></path>
			
				<line fill="none" stroke="#000000" stroke-linejoin="round" stroke-miterlimit="10" x1="182.184" y1="138.289" x2="182.333" y2="146.114"></line>
			
				<line fill="none" stroke="#000000" stroke-linejoin="round" stroke-miterlimit="10" x1="186.001" y1="140.05" x2="178.516" y2="144.352"></line>
			<path d="M180.935,142.962c0.007,0.354,0.14,0.604,0.355,0.729c0.248,0.144,0.603,0.119,0.995-0.106
				c0.731-0.42,1.311-1.38,1.297-2.144c-0.007-0.355-0.141-0.605-0.356-0.729c-0.248-0.143-0.602-0.118-0.994,0.107
				C181.501,141.238,180.921,142.198,180.935,142.962z"></path>
		</g>
		<path fill="#C78163" d="M146.576,152.745c0.009,0.46,0.182,0.784,0.46,0.945c0.321,0.186,0.783,0.155,1.291-0.137
			c0.948-0.545,1.702-1.79,1.683-2.782c-0.009-0.461-0.183-0.786-0.462-0.947c-0.321-0.185-0.782-0.153-1.289,0.138
			C147.311,150.508,146.557,151.754,146.576,152.745z"></path>
		<path fill="none" stroke="#F1C08C" stroke-width="0.5" stroke-linecap="round" stroke-miterlimit="10" d="M182.849,130.171
			c-0.948,0.545-1.702,1.79-1.683,2.782"></path>
		<path fill="none" stroke="#F1C08C" stroke-width="0.5" stroke-linecap="round" stroke-miterlimit="10" d="M148.509,150.213
			c-0.948,0.545-1.702,1.79-1.683,2.782"></path>
	</g>
	<path fill="none" stroke="#E6E6E6" stroke-width="2" stroke-linecap="round" stroke-miterlimit="10" d="M49.264,216.305
		l17.454,10.077c2.475,1.429,5.525,1.429,8,0l110.469-63.779"></path>
	
		<line fill="none" stroke="#E6E6E6" stroke-linecap="round" stroke-miterlimit="10" x1="104.91" y1="177.113" x2="132.505" y2="193.044"></line>
	
		<line fill="none" stroke="#E6E6E6" stroke-linecap="round" stroke-miterlimit="10" x1="79.831" y1="207.868" x2="93.186" y2="215.578"></line>
	<g>
		<path fill="#333333" d="M121.711,157.726c-0.058,3.049-1.208,5.2-3.052,6.27c-2.131,1.236-5.19,1.027-8.562-0.911
			c-6.289-3.614-11.286-11.874-11.161-18.448c0.058-3.056,1.213-5.21,3.064-6.277c2.131-1.229,5.185-1.017,8.55,0.917
			C116.84,142.892,121.837,151.152,121.711,157.726z"></path>
		<path fill="#666666" d="M119.924,158.747c-0.058,3.049-1.208,5.2-3.052,6.27c-2.131,1.236-5.19,1.027-8.562-0.911
			c-6.289-3.614-11.286-11.874-11.161-18.448c0.058-3.056,1.213-5.21,3.064-6.277c2.131-1.229,5.185-1.017,8.55,0.917
			C115.052,143.914,120.049,152.173,119.924,158.747z"></path>
		<path fill="#FFFFFF" d="M117.152,157.054c-0.043,2.26-0.895,3.855-2.262,4.648c-1.58,0.916-3.847,0.762-6.347-0.675
			c-4.662-2.679-8.366-8.801-8.273-13.675c0.043-2.265,0.899-3.862,2.271-4.653c1.58-0.911,3.843-0.754,6.338,0.68
			C113.541,146.058,117.245,152.181,117.152,157.054z"></path>
		<path fill="#CCCCCC" d="M116.454,157.578c-0.043,2.26-0.895,3.855-2.262,4.648c-1.58,0.916-3.847,0.762-6.347-0.675
			c-4.662-2.679-8.366-8.801-8.273-13.675c0.043-2.265,0.899-3.862,2.271-4.653c1.58-0.911,3.843-0.754,6.338,0.68
			C112.843,146.582,116.547,152.704,116.454,157.578z"></path>
		<path fill="#1B5291" stroke="#000000" stroke-width="1.0974" d="M102.608,144.633c1.383-0.797,3.364-0.66,5.548,0.595
			c4.081,2.345,7.323,7.704,7.242,11.97c-0.038,1.978-0.784,3.374-1.98,4.068l-19.356,11.175c-1.383,0.802-3.368,0.667-5.556-0.591
			c-4.081-2.345-7.323-7.704-7.242-11.97c0.038-1.983,0.787-3.38,1.988-4.073L102.608,144.633z"></path>
		<path fill="#3A75BA" d="M96.042,168.373c0.081-4.266-3.161-9.625-7.242-11.97c-2.184-1.255-4.165-1.392-5.548-0.595l19.356-11.175
			c1.383-0.797,3.364-0.66,5.548,0.595c4.081,2.345,7.323,7.704,7.242,11.97L96.042,168.373z"></path>
		<path fill="#1B5291" stroke="#000000" stroke-width="1.0974" d="M71.495,160.465c-1.425,0.821-2.313,2.479-2.358,4.832
			c-0.096,5.06,3.75,11.418,8.591,14.2c2.596,1.492,4.95,1.653,6.591,0.701l10.751-6.207c1.419-0.823,2.304-2.479,2.349-4.826
			c0.096-5.06-3.75-11.418-8.591-14.2c-2.591-1.489-4.941-1.652-6.582-0.706L71.495,160.465z"></path>
		<path fill="#3A75BA" d="M86.668,175.371c0.096-5.06-3.75-11.418-8.591-14.2c-2.591-1.489-4.941-1.652-6.582-0.706l10.751-6.207
			c1.64-0.946,3.991-0.783,6.582,0.706c4.841,2.782,8.687,9.14,8.591,14.2L86.668,175.371z"></path>
		<path fill="#0071BC" stroke="#000000" stroke-width="0.5" d="M70.594,158.085l-8.187,4.727c-5.302,3.12-10.345,7.432-13.9,12.629
			c-3.705,5.416-5.951,11.475-5.838,16.833c0.109,5.302,2.259,9.043,5.707,10.903l14.691,8.274c1.636,0.882,3.564,1.341,5.704,1.343
			c2.774-0.169,5.883-1.194,9.154-3.156c6.311-3.694,11.326-12.136,11.2-18.856c-0.073-4.137-1.52-7.052-3.84-8.497
			c0,0,0-12.891,0-15.925L70.594,158.085z"></path>
		<path fill="#0071BC" d="M85.285,182.284c0,0,0-12.891,0-15.925l-8.187,4.727c-5.302,3.12-10.345,7.432-13.9,12.629
			c-3.705,5.416-5.951,11.475-5.838,16.833c0.109,5.302,2.259,9.043,5.707,10.903c1.636,0.882,3.564,1.341,5.704,1.343
			c2.774-0.169,5.883-1.194,9.154-3.156c6.311-3.694,11.326-12.136,11.2-18.856C89.052,186.644,87.605,183.729,85.285,182.284z"></path>
		<g>
			<g>
				<polygon fill="#0071BC" points="81.704,213.189 75.161,216.966 70.046,214.013 70.046,208.192 76.589,204.414 77.811,205.12 
					77.811,209.706 81.704,211.954 				"></polygon>
				<polygon fill="#0071BC" points="71.268,213.484 75.161,215.732 81.704,211.954 77.811,209.706 				"></polygon>
			</g>
			<g>
				<polygon fill="#43A2E0" points="71.268,213.484 75.161,215.732 81.704,211.954 77.811,209.706 				"></polygon>
			</g>
		</g>
		<g>
			<g>
				<polygon fill="#0071BC" points="91.994,207.207 85.451,210.985 80.336,208.032 80.336,202.21 86.879,198.433 88.102,199.138 
					88.102,203.725 91.994,205.972 				"></polygon>
				<polygon fill="#0071BC" points="81.558,207.502 85.451,209.75 91.994,205.972 88.102,203.725 				"></polygon>
			</g>
			<g>
				<polygon fill="#43A2E0" points="81.558,207.502 85.451,209.75 91.994,205.972 88.102,203.725 				"></polygon>
			</g>
		</g>
		<path fill="none" stroke="#43A2E0" stroke-miterlimit="10" d="M85.285,166.359l-8.187,4.727c-5.302,3.12-10.345,7.432-13.9,12.629
			c-3.705,5.416-5.951,11.475-5.838,16.833"></path>
		<path fill="#43A2E0" d="M62.408,162.812c-5.302,3.12-10.345,7.432-13.9,12.629l14.691,8.274c3.555-5.197,8.598-9.509,13.9-12.629
			L62.408,162.812z"></path>
		<path d="M66.918,201.831c0.051,2.698,1.069,4.602,2.7,5.548c1.886,1.094,4.593,0.909,7.577-0.806
			c5.565-3.198,9.987-10.507,9.876-16.324c-0.051-2.704-1.073-4.61-2.711-5.554c-1.886-1.087-4.588-0.9-7.566,0.812
			C71.229,188.705,66.808,196.013,66.918,201.831z"></path>
		<path fill="#43A2E0" d="M65.696,200.958c0.051,2.698,1.069,4.602,2.7,5.548c1.886,1.094,4.593,0.909,7.577-0.806
			c5.565-3.198,9.987-10.507,9.876-16.324c-0.051-2.704-1.073-4.61-2.711-5.554c-1.886-1.087-4.588-0.9-7.566,0.812
			C70.007,187.832,65.586,195.141,65.696,200.958z"></path>
		<path fill="#0071BC" d="M66.446,201.52c0.051,2.698,1.069,4.602,2.7,5.548c1.886,1.094,4.593,0.909,7.577-0.806
			c5.565-3.198,9.987-10.507,9.876-16.324c-0.051-2.704-1.073-4.61-2.711-5.554c-1.886-1.087-4.588-0.9-7.566,0.812
			C70.757,188.394,66.335,195.703,66.446,201.52z"></path>
		<path fill="none" stroke="#000000" stroke-linecap="round" stroke-miterlimit="10" stroke-dasharray="0.5,4" d="M67.511,201.008
			c0.047,2.46,0.974,4.195,2.462,5.058c1.719,0.997,4.187,0.829,6.907-0.735c5.073-2.916,9.105-9.579,9.004-14.882
			c-0.047-2.465-0.978-4.203-2.471-5.064c-1.719-0.991-4.183-0.82-6.898,0.74C71.441,189.042,67.41,195.705,67.511,201.008z"></path>
		<path d="M69.598,200.425c0.039,2.034,0.806,3.469,2.036,4.183c1.422,0.825,3.463,0.685,5.712-0.607
			c4.196-2.411,7.529-7.921,7.446-12.307c-0.039-2.039-0.809-3.476-2.044-4.187c-1.422-0.82-3.459-0.678-5.704,0.612
			C72.848,190.529,69.515,196.039,69.598,200.425z"></path>
		<path fill="#43A2E0" d="M68.725,199.727c0.039,2.034,0.806,3.469,2.036,4.183c1.422,0.825,3.463,0.685,5.712-0.607
			c4.196-2.411,7.529-7.921,7.446-12.307c-0.039-2.039-0.809-3.476-2.044-4.187c-1.422-0.82-3.459-0.678-5.704,0.612
			C71.976,189.831,68.642,195.341,68.725,199.727z"></path>
		<path fill="#0071BC" d="M69.249,200.25c0.039,2.034,0.806,3.469,2.036,4.183c1.422,0.825,3.463,0.685,5.712-0.607
			c4.196-2.411,7.529-7.921,7.446-12.307c-0.039-2.039-0.809-3.476-2.044-4.187c-1.422-0.82-3.459-0.678-5.704,0.612
			C72.499,190.354,69.166,195.865,69.249,200.25z"></path>
		<path fill="#E6E6E6" stroke="#000000" stroke-width="0.5" stroke-miterlimit="10" d="M93.863,198.303
			c-0.223-0.893-0.692-1.547-1.342-1.922l-11.635-6.718c-1.034-0.596-2.516-0.493-4.149,0.445c-3.052,1.754-5.477,5.762-5.416,8.952
			c0.028,1.48,0.586,2.524,1.481,3.043l11.635,6.718c0.478,0.277,1.056,0.397,1.697,0.361c0.91,0.324,2.1,0.157,3.396-0.588
			c2.79-1.603,5.007-5.268,4.952-8.184C94.464,199.531,94.24,198.823,93.863,198.303z"></path>
		<path fill="#B3B3B3" d="M71.345,199.446c0.111,1.274,0.642,2.185,1.456,2.657l11.635,6.718c0.478,0.277,1.056,0.397,1.697,0.361
			c0.585,0.208,1.287,0.211,2.057-0.01L71.345,199.446z"></path>
		<path fill="#CCCCCC" d="M84.202,206.042c0.026,1.353,0.536,2.307,1.354,2.782c0.946,0.549,2.303,0.456,3.799-0.404
			c2.79-1.603,5.007-5.268,4.952-8.184c-0.026-1.356-0.538-2.311-1.359-2.785c-0.945-0.545-2.3-0.451-3.793,0.407
			C86.364,199.461,84.147,203.125,84.202,206.042z"></path>
		<path fill="#4D4D4D" d="M85.735,205.618c0.02,1.069,0.424,1.824,1.07,2.199c0.748,0.434,1.82,0.36,3.003-0.319
			c2.206-1.268,3.958-4.164,3.915-6.47c-0.02-1.072-0.425-1.827-1.075-2.202c-0.747-0.431-1.818-0.357-2.999,0.322
			C87.444,200.415,85.692,203.312,85.735,205.618z"></path>
		<polygon fill="#0071BC" stroke="#000000" stroke-width="0.5" stroke-miterlimit="10" points="76.816,177.937 80.928,180.311 
			87.403,176.573 87.403,171.336 83.291,168.962 76.816,172.701 		"></polygon>
		<polygon fill="#43A2E0" points="87.403,171.336 80.928,175.074 76.816,172.701 83.291,168.962 		"></polygon>
		<path fill="#999999" d="M87.701,204.488c0.01,0.543,0.215,0.926,0.543,1.117c0.38,0.22,0.924,0.183,1.525-0.162
			c1.12-0.644,2.01-2.115,1.988-3.285c-0.01-0.544-0.216-0.928-0.546-1.118c-0.379-0.219-0.923-0.181-1.523,0.163
			C88.569,201.847,87.679,203.317,87.701,204.488z"></path>
		<path fill="#E6E6E6" d="M88.225,204.837c0.01,0.543,0.215,0.926,0.543,1.117c0.38,0.22,0.924,0.183,1.525-0.162
			c1.12-0.644,2.01-2.115,1.988-3.285c-0.01-0.544-0.216-0.928-0.546-1.118c-0.379-0.219-0.923-0.181-1.523,0.163
			C89.093,202.196,88.203,203.666,88.225,204.837z"></path>
		
			<line fill="none" stroke="#E6E6E6" stroke-linecap="round" stroke-miterlimit="10" x1="89.65" y1="199.148" x2="89.809" y2="207.498"></line>
		
			<line fill="none" stroke="#E6E6E6" stroke-linecap="round" stroke-miterlimit="10" x1="85.735" y1="205.618" x2="93.723" y2="201.027"></line>
		<polyline fill="#0071BC" stroke="#000000" stroke-width="0.5" points="58.058,197.083 43.367,188.808 35.18,193.535 
			35.18,204.921 49.871,213.196 58.058,208.469 		"></polyline>
		<polygon fill="#0071BC" stroke="#000000" stroke-width="0.5" points="50.838,198.92 34.666,189.811 30.787,192.051 
			25.654,200.251 25.654,211.04 41.826,220.148 50.838,214.945 		"></polygon>
		<polygon fill="#0071BC" points="50.838,198.92 46.959,201.159 41.826,209.36 25.654,200.251 30.787,192.051 34.666,189.811 		"></polygon>
		<polygon fill="#43A2E0" points="46.959,201.159 41.826,209.36 25.654,200.251 30.787,192.051 		"></polygon>
		
			<line fill="none" stroke="#000000" stroke-linecap="round" stroke-miterlimit="10" stroke-dasharray="0.5,3" x1="59.229" y1="197.759" x2="59.229" y2="208.597"></line>
		<polygon points="109.89,141.587 108.814,140.97 108.276,141.593 108.814,142.833 109.89,143.451 110.428,142.827 		"></polygon>
		<polygon points="117.779,150.947 116.703,150.329 116.165,150.952 116.703,152.193 117.779,152.81 118.317,152.187 		"></polygon>
		<polygon points="117.779,161.91 116.703,161.293 116.165,161.916 116.703,163.157 117.779,163.774 118.317,163.151 		"></polygon>
		<polygon points="100.664,141.587 99.588,140.97 99.05,141.593 99.588,142.833 100.664,143.451 101.202,142.827 		"></polygon>
	</g>
</g>
</svg>