<svg xmlns="http://www.w3.org/2000/svg" xmlns:xlink="http://www.w3.org/1999/xlink" width="1400" height="650" viewBox="0 0 1400 650">
  <defs>
    <linearGradient id="bgGrad5" x1="0%" y1="0%" x2="0%" y2="100%">
      <stop offset="0%" style="stop-color:#051225;stop-opacity:1"/>
      <stop offset="100%" style="stop-color:#0B1E36;stop-opacity:1"/>
    </linearGradient>
    <linearGradient id="busH" x1="0%" y1="0%" x2="100%" y2="0%">
      <stop offset="0%" style="stop-color:#00ACC1;stop-opacity:1"/>
      <stop offset="100%" style="stop-color:#0097A7;stop-opacity:1"/>
    </linearGradient>
    <linearGradient id="busV" x1="0%" y1="0%" x2="0%" y2="100%">
      <stop offset="0%" style="stop-color:#00ACC1;stop-opacity:1"/>
      <stop offset="100%" style="stop-color:#0097A7;stop-opacity:1"/>
    </linearGradient>
    <filter id="tealGlow" x="-50%" y="-50%" width="200%" height="200%">
      <feGaussianBlur in="SourceGraphic" stdDeviation="5" result="blur"/>
      <feFlood flood-color="#00BCD4" flood-opacity="0.6" result="color"/>
      <feComposite in="color" in2="blur" operator="in" result="shadow"/>
      <feMerge>
        <feMergeNode in="shadow"/>
        <feMergeNode in="SourceGraphic"/>
      </feMerge>
    </filter>
    <filter id="goldGlow" x="-50%" y="-50%" width="200%" height="200%">
      <feGaussianBlur in="SourceGraphic" stdDeviation="4" result="blur"/>
      <feFlood flood-color="#FFD600" flood-opacity="0.6" result="color"/>
      <feComposite in="color" in2="blur" operator="in" result="shadow"/>
      <feMerge>
        <feMergeNode in="shadow"/>
        <feMergeNode in="SourceGraphic"/>
      </feMerge>
    </filter>
    <filter id="limeGlow" x="-50%" y="-50%" width="200%" height="200%">
      <feGaussianBlur in="SourceGraphic" stdDeviation="4" result="blur"/>
      <feFlood flood-color="#76FF03" flood-opacity="0.6" result="color"/>
      <feComposite in="color" in2="blur" operator="in" result="shadow"/>
      <feMerge>
        <feMergeNode in="shadow"/>
        <feMergeNode in="SourceGraphic"/>
      </feMerge>
    </filter>
  </defs>
  <rect x="0" y="0" width="1400" height="650" fill="url(#bgGrad5)" rx="8" ry="8"/>
  <rect x="0" y="0" width="1400" height="44" fill="#063349" rx="8" ry="0"/>
  <text x="700" y="28" fill="#4DD0E1" font-family="'Segoe UI', sans-serif" font-size="16" font-weight="bold" text-anchor="middle" letter-spacing="3">CON DAO ISLAND - MICROGRID OVERVIEW</text>
  <rect x="50" y="52" width="110" height="36" fill="#0a1e30" rx="6" ry="6" stroke="#00796B" stroke-width="1"/>
  <text x="105" y="66" fill="#80CBC4" font-family="Consolas, monospace" font-size="9" text-anchor="middle">Freq</text>
  <text x="105" y="82" fill="#00E676" font-family="Consolas, monospace" font-size="13" text-anchor="middle" font-weight="bold">50.0 Hz</text>
  <rect x="180" y="52" width="110" height="36" fill="#0a1e30" rx="6" ry="6" stroke="#00796B" stroke-width="1"/>
  <text x="235" y="66" fill="#80CBC4" font-family="Consolas, monospace" font-size="9" text-anchor="middle">Voltage</text>
  <text x="235" y="82" fill="#00E676" font-family="Consolas, monospace" font-size="13" text-anchor="middle" font-weight="bold">15.5 kV</text>
  <rect x="100" y="130" width="1200" height="8" fill="url(#busH)" rx="2" ry="2" filter="url(#tealGlow)"/>
  <rect x="100" y="480" width="1200" height="8" fill="url(#busH)" rx="2" ry="2" filter="url(#tealGlow)"/>
  <rect x="100" y="130" width="8" height="358" fill="url(#busV)" rx="2" ry="2" filter="url(#tealGlow)"/>
  <rect x="1292" y="130" width="8" height="358" fill="url(#busV)" rx="2" ry="2" filter="url(#tealGlow)"/>
  <g id="source_0">
    <line x1="200.0" y1="130" x2="200.0" y2="80" stroke="#FFD600" stroke-width="2.5"/>
    <rect x="130.0" y="20" width="140" height="60" fill="#0a1e30" rx="6" ry="6" stroke="#FFD600" stroke-width="1.2"/>
    <text x="200.0" y="38" fill="#FFD600" font-family="'Segoe UI', sans-serif" font-size="12" text-anchor="middle" font-weight="bold">PV PLANT</text>
    <text x="200.0" y="56" fill="white" font-family="Consolas, monospace" font-size="14" text-anchor="middle" font-weight="bold">250.3 kW</text>
    <text x="200.0" y="70" fill="#78909C" font-family="Consolas, monospace" font-size="9" text-anchor="middle">370W Panels</text>
    <circle cx="200.0" cy="130" r="5" fill="#FFD600" filter="url(#goldGlow)"/>
    <rect x="190.0" y="95" width="20" height="20" fill="#00C853" rx="3" ry="3" opacity="0.85"/>
    <line x1="195.0" y1="105" x2="205.0" y2="105" stroke="white" stroke-width="2"/>
  </g>
  <g id="source_1">
    <line x1="700.0" y1="130" x2="700.0" y2="80" stroke="#76FF03" stroke-width="2.5"/>
    <rect x="630.0" y="20" width="140" height="60" fill="#0a1e30" rx="6" ry="6" stroke="#76FF03" stroke-width="1.2"/>
    <text x="700.0" y="38" fill="#76FF03" font-family="'Segoe UI', sans-serif" font-size="12" text-anchor="middle" font-weight="bold">BESS #1</text>
    <text x="700.0" y="56" fill="white" font-family="Consolas, monospace" font-size="14" text-anchor="middle" font-weight="bold">120 kW</text>
    <text x="700.0" y="70" fill="#78909C" font-family="Consolas, monospace" font-size="9" text-anchor="middle">SOC: 75%</text>
    <circle cx="700.0" cy="130" r="5" fill="#76FF03" filter="url(#limeGlow)"/>
    <rect x="690.0" y="95" width="20" height="20" fill="#00C853" rx="3" ry="3" opacity="0.85"/>
    <line x1="695.0" y1="105" x2="705.0" y2="105" stroke="white" stroke-width="2"/>
  </g>
  <g id="source_2">
    <line x1="1200.0" y1="130" x2="1200.0" y2="80" stroke="#76FF03" stroke-width="2.5"/>
    <rect x="1130.0" y="20" width="140" height="60" fill="#0a1e30" rx="6" ry="6" stroke="#76FF03" stroke-width="1.2"/>
    <text x="1200.0" y="38" fill="#76FF03" font-family="'Segoe UI', sans-serif" font-size="12" text-anchor="middle" font-weight="bold">BESS #2</text>
    <text x="1200.0" y="56" fill="white" font-family="Consolas, monospace" font-size="14" text-anchor="middle" font-weight="bold">80 kW</text>
    <text x="1200.0" y="70" fill="#78909C" font-family="Consolas, monospace" font-size="9" text-anchor="middle">SOC: 62%</text>
    <circle cx="1200.0" cy="130" r="5" fill="#76FF03" filter="url(#limeGlow)"/>
    <rect x="1190.0" y="95" width="20" height="20" fill="#00C853" rx="3" ry="3" opacity="0.85"/>
    <line x1="1195.0" y1="105" x2="1205.0" y2="105" stroke="white" stroke-width="2"/>
  </g>
  <g id="load_0">
    <line x1="150.0" y1="488" x2="150.0" y2="538" stroke="#FF6D00" stroke-width="2.5"/>
    <rect x="140.0" y="498" width="20" height="20" fill="#00C853" rx="3" ry="3"/>
    <line x1="145.0" y1="508" x2="155.0" y2="508" stroke="white" stroke-width="2"/>
    <rect x="85.0" y="543" width="130" height="55" fill="#0a1e30" rx="6" ry="6" stroke="#FF6D00" stroke-width="1"/>
    <text x="150.0" y="563" fill="#FF6D00" font-family="'Segoe UI', sans-serif" font-size="11" text-anchor="middle" font-weight="bold">DG SET 1</text>
    <text x="150.0" y="581" fill="white" font-family="Consolas, monospace" font-size="13" text-anchor="middle" font-weight="bold">402.5 kW</text>
    <text x="150.0" y="595" fill="#FF6D00" font-family="Consolas, monospace" font-size="9" text-anchor="middle">RUNNING</text>
  </g>
  <g id="load_1">
    <line x1="425.0" y1="488" x2="425.0" y2="538" stroke="#FF6D00" stroke-width="2.5"/>
    <rect x="415.0" y="498" width="20" height="20" fill="#00C853" rx="3" ry="3"/>
    <line x1="420.0" y1="508" x2="430.0" y2="508" stroke="white" stroke-width="2"/>
    <rect x="360.0" y="543" width="130" height="55" fill="#0a1e30" rx="6" ry="6" stroke="#FF6D00" stroke-width="1"/>
    <text x="425.0" y="563" fill="#FF6D00" font-family="'Segoe UI', sans-serif" font-size="11" text-anchor="middle" font-weight="bold">DG SET 2</text>
    <text x="425.0" y="581" fill="white" font-family="Consolas, monospace" font-size="13" text-anchor="middle" font-weight="bold">250.3 kW</text>
    <text x="425.0" y="595" fill="#FF6D00" font-family="Consolas, monospace" font-size="9" text-anchor="middle">RUNNING</text>
  </g>
  <g id="load_2">
    <line x1="700.0" y1="488" x2="700.0" y2="538" stroke="#78909C" stroke-width="2.5"/>
    <rect x="690.0" y="498" width="20" height="20" fill="#78909C" rx="3" ry="3"/>
    <line x1="695.0" y1="503" x2="705.0" y2="513" stroke="white" stroke-width="1.5"/>
    <line x1="705.0" y1="503" x2="695.0" y2="513" stroke="white" stroke-width="1.5"/>
    <rect x="635.0" y="543" width="130" height="55" fill="#0a1e30" rx="6" ry="6" stroke="#78909C" stroke-width="1"/>
    <text x="700.0" y="563" fill="#78909C" font-family="'Segoe UI', sans-serif" font-size="11" text-anchor="middle" font-weight="bold">DG SET 3</text>
    <text x="700.0" y="581" fill="white" font-family="Consolas, monospace" font-size="13" text-anchor="middle" font-weight="bold">0 kW</text>
    <text x="700.0" y="595" fill="#78909C" font-family="Consolas, monospace" font-size="9" text-anchor="middle">STANDBY</text>
  </g>
  <g id="load_3">
    <line x1="975.0" y1="488" x2="975.0" y2="538" stroke="#FF6D00" stroke-width="2.5"/>
    <rect x="965.0" y="498" width="20" height="20" fill="#00C853" rx="3" ry="3"/>
    <line x1="970.0" y1="508" x2="980.0" y2="508" stroke="white" stroke-width="2"/>
    <rect x="910.0" y="543" width="130" height="55" fill="#0a1e30" rx="6" ry="6" stroke="#FF6D00" stroke-width="1"/>
    <text x="975.0" y="563" fill="#FF6D00" font-family="'Segoe UI', sans-serif" font-size="11" text-anchor="middle" font-weight="bold">DG SET 4</text>
    <text x="975.0" y="581" fill="white" font-family="Consolas, monospace" font-size="13" text-anchor="middle" font-weight="bold">250.3 kW</text>
    <text x="975.0" y="595" fill="#FF6D00" font-family="Consolas, monospace" font-size="9" text-anchor="middle">RUNNING</text>
  </g>
  <g id="load_4">
    <line x1="1250.0" y1="488" x2="1250.0" y2="538" stroke="#78909C" stroke-width="2.5"/>
    <rect x="1240.0" y="498" width="20" height="20" fill="#78909C" rx="3" ry="3"/>
    <line x1="1245.0" y1="503" x2="1255.0" y2="513" stroke="white" stroke-width="1.5"/>
    <line x1="1255.0" y1="503" x2="1245.0" y2="513" stroke="white" stroke-width="1.5"/>
    <rect x="1185.0" y="543" width="130" height="55" fill="#0a1e30" rx="6" ry="6" stroke="#78909C" stroke-width="1"/>
    <text x="1250.0" y="563" fill="#78909C" font-family="'Segoe UI', sans-serif" font-size="11" text-anchor="middle" font-weight="bold">DG SET 5</text>
    <text x="1250.0" y="581" fill="white" font-family="Consolas, monospace" font-size="13" text-anchor="middle" font-weight="bold">0 kW</text>
    <text x="1250.0" y="595" fill="#78909C" font-family="Consolas, monospace" font-size="9" text-anchor="middle">STANDBY</text>
  </g>
  <g id="wind_zone">
    <line x1="100" y1="300" x2="30" y2="300" stroke="#00E5FF" stroke-width="2.5"/>
    <rect x="-100" y="265" width="130" height="70" fill="#0a1e30" rx="6" ry="6" stroke="#00E5FF" stroke-width="1"/>
    <text x="-35" y="288" fill="#00E5FF" font-family="'Segoe UI', sans-serif" font-size="12" text-anchor="middle" font-weight="bold">WIND FARM</text>
    <text x="-35" y="308" fill="white" font-family="Consolas, monospace" font-size="14" text-anchor="middle" font-weight="bold">402.5 kW</text>
    <text x="-35" y="324" fill="#4FC3F7" font-family="Consolas, monospace" font-size="10" text-anchor="middle">123.75 kVAr</text>
  </g>
  <g id="res_0">
    <line x1="1300" y1="200" x2="1370" y2="200" stroke="#FF8A65" stroke-width="2.5"/>
    <rect x="1375" y="170" width="120" height="60" fill="#0a1e30" rx="6" ry="6" stroke="#FF8A65" stroke-width="1"/>
    <text x="1435" y="190" fill="#FF8A65" font-family="'Segoe UI', sans-serif" font-size="10" text-anchor="middle" font-weight="bold">RESIDENTIAL</text>
    <text x="1435" y="205" fill="#FFAB91" font-family="Consolas, monospace" font-size="11" text-anchor="middle">ZONE 1</text>
    <text x="1435" y="222" fill="white" font-family="Consolas, monospace" font-size="12" text-anchor="middle" font-weight="bold">500 kW</text>
  </g>
  <g id="res_1">
    <line x1="1300" y1="310" x2="1370" y2="310" stroke="#FF8A65" stroke-width="2.5"/>
    <rect x="1375" y="280" width="120" height="60" fill="#0a1e30" rx="6" ry="6" stroke="#FF8A65" stroke-width="1"/>
    <text x="1435" y="300" fill="#FF8A65" font-family="'Segoe UI', sans-serif" font-size="10" text-anchor="middle" font-weight="bold">RESIDENTIAL</text>
    <text x="1435" y="315" fill="#FFAB91" font-family="Consolas, monospace" font-size="11" text-anchor="middle">ZONE 2</text>
    <text x="1435" y="332" fill="white" font-family="Consolas, monospace" font-size="12" text-anchor="middle" font-weight="bold">560 kW</text>
  </g>
  <g id="res_2">
    <line x1="1300" y1="420" x2="1370" y2="420" stroke="#FF8A65" stroke-width="2.5"/>
    <rect x="1375" y="390" width="120" height="60" fill="#0a1e30" rx="6" ry="6" stroke="#FF8A65" stroke-width="1"/>
    <text x="1435" y="410" fill="#FF8A65" font-family="'Segoe UI', sans-serif" font-size="10" text-anchor="middle" font-weight="bold">RESIDENTIAL</text>
    <text x="1435" y="425" fill="#FFAB91" font-family="Consolas, monospace" font-size="11" text-anchor="middle">ZONE 3</text>
    <text x="1435" y="442" fill="white" font-family="Consolas, monospace" font-size="12" text-anchor="middle" font-weight="bold">560 kW</text>
  </g>
  <g id="summary">
    <rect x="580" y="280" width="240" height="100" fill="#0a1e30" rx="8" ry="8" stroke="#00796B" stroke-width="1.2"/>
    <text x="700" y="305" fill="#4DD0E1" font-family="'Segoe UI', sans-serif" font-size="12" text-anchor="middle" font-weight="bold">SYSTEM TOTALS</text>
    <text x="620" y="325" fill="#78909C" font-family="Consolas, monospace" font-size="10">Generation</text>
    <text x="780" y="325" fill="#76FF03" font-family="Consolas, monospace" font-size="11" text-anchor="end" font-weight="bold">1153 kW</text>
    <text x="620" y="343" fill="#78909C" font-family="Consolas, monospace" font-size="10">Load</text>
    <text x="780" y="343" fill="#FF8A65" font-family="Consolas, monospace" font-size="11" text-anchor="end" font-weight="bold">1620 kW</text>
    <text x="620" y="361" fill="#78909C" font-family="Consolas, monospace" font-size="10">Net Import</text>
    <text x="780" y="361" fill="#FFD600" font-family="Consolas, monospace" font-size="11" text-anchor="end" font-weight="bold">467 kW</text>
  </g>
</svg>
