<svg width="16" height="16" viewBox="0 0 16 16" fill="none" xmlns="http://www.w3.org/2000/svg">
<g id="align-horizontal-baseline">
<g id=".arrange-align-baseline-horizontal">
<path id="Union" d="M7.60156 12.6963H7.65234L8.67871 9.09082H10.1201L8.21191 14.5303C8.1203 14.7945 7.99555 15.0247 7.83789 15.2207C7.68241 15.4188 7.48558 15.5712 7.24707 15.6777C7.00843 15.7864 6.72044 15.8408 6.38379 15.8408C6.2114 15.8408 6.04957 15.8274 5.89844 15.7998C5.74929 15.7742 5.62536 15.7407 5.52734 15.7002L5.83398 14.6836C5.99378 14.7326 6.13779 14.7594 6.26562 14.7637C6.3956 14.7679 6.50781 14.7387 6.60156 14.6748C6.69741 14.6109 6.77531 14.502 6.83496 14.3486L6.91406 14.1406L5.15332 9.09082H6.58496L7.60156 12.6963ZM11.5137 7H10.0303L9.5459 5.50781H7.18262L6.69727 7H5.21387L7.47363 0.454102H9.25684L11.5137 7ZM7.53418 4.42676H9.19434L8.39062 1.9502H8.33984L7.53418 4.42676Z" fill="black"/>
<rect class="warning" opacity="0.5" x="2" width="1" height="16" fill="black"/>
</g>
</g>
</svg>
