<svg width="16" height="16" viewBox="0 0 16 16" fill="none" xmlns="http://www.w3.org/2000/svg">
<g id="align-sel-as-group">
<g id=".arrange-align-group" clip-path="url(#clip0_3684_42485)">
<g id=".bounding-box-group">
<path id="Union" d="M2 16H0V14H2V16ZM16 16H14V14H16V16ZM2 2H0V0H2V2ZM16 2H14V0H16V2Z" fill="black"/>
<path id="Subtract" d="M15 15H1V1H15V15ZM2 14H14V2H2V14Z" fill="black"/>
</g>
<path id="Union_2" d="M12.8652 12.4053H7.4209L10.1436 7.69043L12.8652 12.4053ZM6.92773 11.9277H3V8H6.92773V11.9277ZM9.15332 11.4053H11.1328L10.1426 9.68945L9.15332 11.4053ZM4 10.9277H5.92773V9H4V10.9277ZM8.35742 3C9.65929 3 10.7158 4.05555 10.7158 5.35742L10.7031 5.59863C10.5822 6.7871 9.57779 7.71484 8.35742 7.71484L8.11621 7.70215C7.00709 7.58929 6.12456 6.70773 6.01172 5.59863L6 5.35742C6 4.05565 7.05568 3.00015 8.35742 3ZM8.35742 4C7.60771 4.00015 7 4.60818 7 5.35742C7.0001 6.10658 7.60777 6.71469 8.35742 6.71484C9.1072 6.71484 9.71572 6.10667 9.71582 5.35742C9.71582 4.60809 9.10726 4 8.35742 4Z" fill="black"/>
<path id="Union_3" opacity="0.3" d="M12.8652 12.4043H7.4209L10.1436 7.69043L12.8652 12.4043ZM6.92773 11.9277H3V8H6.92773V11.9277ZM8.35742 3C9.65929 3 10.7158 4.05555 10.7158 5.35742C10.7157 6.65921 9.65923 7.71484 8.35742 7.71484C7.05574 7.71469 6.0001 6.65911 6 5.35742C6 4.05565 7.05568 3.00015 8.35742 3Z" fill="black"/>
</g>
</g>
<defs>
<clipPath id="clip0_3684_42485">
<rect width="16" height="16" fill="white"/>
</clipPath>
</defs>
</svg>
