<svg width="16" height="16" viewBox="0 0 16 16" fill="none" xmlns="http://www.w3.org/2000/svg">
<g id="align-horizontal-node">
<g id=".arrange-align-node-horizontal">
<path class="warning" opacity="0.5" d="M8 16H7V14H8V16ZM8 9H7V7H8V9ZM8 2H7V0H8V2Z" fill="black"/>
<path id="Union" d="M10.5 11.5L7.5 14.5L4.5 11.5L7.5 8.5L10.5 11.5ZM5.91406 11.5L7.5 13.0859L9.08594 11.5L7.5 9.91406L5.91406 11.5ZM10.5 4.5L7.5 7.5L4.5 4.5L7.5 1.5L10.5 4.5ZM5.91406 4.5L7.5 6.08594L9.08594 4.5L7.5 2.91406L5.91406 4.5Z" fill="black"/>
</g>
</g>
</svg>
