<svg width="16" height="16" viewBox="0 0 16 16" fill="none" xmlns="http://www.w3.org/2000/svg">
<g id="align-vertical-baseline">
<g id=".arrange-align-baseline-vertical">
<path id="Union" d="M11.4736 8.69629H11.5244L12.5508 5.09082H13.9922L12.084 10.5303C11.9924 10.7944 11.8676 11.0247 11.71 11.2207C11.5545 11.4187 11.3576 11.5712 11.1191 11.6777C10.8805 11.7864 10.5925 11.8408 10.2559 11.8408C10.0833 11.8408 9.92081 11.8275 9.76953 11.7998C9.6206 11.7743 9.49733 11.7406 9.39941 11.7002L9.70605 10.6836C9.86586 10.7326 10.0099 10.7594 10.1377 10.7637C10.2674 10.7679 10.3791 10.7385 10.4727 10.6748C10.5685 10.6109 10.6464 10.5019 10.7061 10.3486L10.7861 10.1406L9.02539 5.09082H10.457L11.4736 8.69629ZM8.36816 10H6.88477L6.40039 8.50781H4.03711L3.55176 10H2.06836L4.32812 3.4541H6.11133L8.36816 10ZM4.38867 7.42676H6.0498L5.24609 4.9502H5.19434L4.38867 7.42676Z" fill="black"/>
<path class="warning" opacity="0.5" d="M8 13H0V12H8V13ZM16 13H13V12H16V13Z" fill="black"/>
</g>
</g>
</svg>
