<svg width="16" height="16" viewBox="0 0 16 16" fill="none" xmlns="http://www.w3.org/2000/svg">
<g id="align-vertical-node">
<g id=".arrange-align-node-vertical">
<path class="warning" opacity="0.5" d="M2 8H0V7H2V8ZM9 8H7V7H9V8ZM16 8H14V7H16V8Z" fill="black"/>
<path id="Union" d="M7.5 7.5L4.5 10.5L1.5 7.5L4.5 4.5L7.5 7.5ZM14.5 7.5L11.5 10.5L8.5 7.5L11.5 4.5L14.5 7.5ZM2.91406 7.5L4.5 9.08594L6.08594 7.5L4.5 5.91406L2.91406 7.5ZM9.91406 7.5L11.5 9.08594L13.0859 7.5L11.5 5.91406L9.91406 7.5Z" fill="black"/>
</g>
</g>
</svg>
