<svg width="16" height="16" viewBox="0 0 16 16" fill="none" xmlns="http://www.w3.org/2000/svg">
<g id="arrange-circular">
<g id=".arrange-distribute-circular">
<path id="Union" opacity="0.3" d="M10.0005 16H6.00049V12H10.0005V16ZM5.53564 11.7324L2.07178 13.7324L0.0717773 10.2676L3.53564 8.26855L5.53564 11.7324ZM15.9282 10.2676L13.9282 13.7314L10.4644 11.7324L12.4644 8.26758L15.9282 10.2676ZM15.9282 5.73242L12.4644 7.73242L10.4644 4.26758L13.9282 2.26855L15.9282 5.73242ZM5.53564 4.26758L3.53564 7.73145L0.0717773 5.73242L2.07178 2.26758L5.53564 4.26758ZM10.0005 4H6.00049V0H10.0005V4Z" fill="black"/>
<path id="Union_2" d="M10.0005 16H6.00049V12H10.0005V16ZM7.00049 15H9.00049V13H7.00049V15ZM5.53564 11.7324L2.07178 13.7324L0.0717773 10.2676L3.53564 8.26855L5.53564 11.7324ZM15.9282 10.2676L13.9282 13.7314L10.4644 11.7324L12.4644 8.26758L15.9282 10.2676ZM1.43799 10.6338L2.43799 12.3662L4.16943 11.3662L3.16943 9.63379L1.43799 10.6338ZM11.8306 11.3662L13.562 12.3662L14.562 10.6338L12.8306 9.63379L11.8306 11.3662ZM8.00049 7C8.55256 7.00026 9.00049 7.44787 9.00049 8C9.00049 8.55213 8.55256 8.99974 8.00049 9C7.4482 9 7.00049 8.55229 7.00049 8C7.00049 7.44772 7.4482 7 8.00049 7ZM15.9282 5.73242L12.4644 7.73242L10.4644 4.26758L13.9282 2.26855L15.9282 5.73242ZM5.53564 4.26758L3.53564 7.73145L0.0717773 5.73242L2.07178 2.26758L5.53564 4.26758ZM1.43799 5.36621L3.16943 6.36621L4.16943 4.63379L2.43799 3.63379L1.43799 5.36621ZM11.8306 4.63379L12.8306 6.36621L14.562 5.36621L13.562 3.63379L11.8306 4.63379ZM10.0005 4H6.00049V0H10.0005V4ZM7.00049 3H9.00049V1H7.00049V3Z" fill="black"/>
</g>
</g>
</svg>
