<svg width="16" height="16" viewBox="0 0 16 16" fill="none" xmlns="http://www.w3.org/2000/svg">
<g id="attach-path">
<g id=".path-attach" clip-path="url(#clip0_3684_42373)">
<path id="Union" opacity="0.8" d="M10 12C10.9317 12 11.7123 12.6377 11.9346 13.5H12C12.2667 13.5 12.5078 13.4802 12.7246 13.4434L12.8926 14.4297C12.6126 14.4773 12.3146 14.5 12 14.5H11.9346C11.7123 15.3623 10.9317 16 10 16H6C5.06829 16 4.28765 15.3623 4.06543 14.5H4C3.69648 14.5 3.39229 14.4643 3.09668 14.3926L3.21484 13.9062L3.33203 13.4209C3.54902 13.4736 3.77441 13.5 4 13.5H4.06543C4.28765 12.6377 5.06829 12 6 12H10ZM6 13C5.44772 13 5 13.4477 5 14C5 14.5523 5.44772 15 6 15H10C10.5523 15 11 14.5523 11 14C11 13.4477 10.5523 13 10 13H6ZM15.1611 12.791C14.877 13.4146 14.4146 13.877 13.791 14.1611L13.377 13.251C13.7808 13.0669 14.0669 12.7808 14.251 12.377L15.1611 12.791ZM1.80176 12.2881C2.01678 12.6826 2.33568 12.9814 2.71289 13.1846L2.23828 14.0654C1.70434 13.7778 1.23893 13.3448 0.923828 12.7666L1.36328 12.5273L1.80176 12.2881ZM1.58301 10.126C1.52956 10.448 1.50002 10.7388 1.5 11C1.50002 11.2467 1.52661 11.4721 1.57324 11.6758L1.08496 11.7871L0.597656 11.8984C0.533368 11.6176 0.50002 11.3174 0.5 11C0.500018 10.6672 0.537453 10.3188 0.59668 9.96191L1.58301 10.126ZM15.4033 9.96191C15.4626 10.3188 15.5 10.6672 15.5 11C15.5 11.3144 15.4773 11.6128 15.4297 11.8926L14.4434 11.7246C14.4802 11.5079 14.5 11.2665 14.5 11C14.5 10.7388 14.4704 10.448 14.417 10.126L15.4033 9.96191ZM1.76855 7.24023L2.25293 7.36621C2.07798 8.03994 1.90848 8.64705 1.77148 9.21875L1.28516 9.10156L0.798828 8.98535C0.938472 8.40261 1.11655 7.76358 1.28516 7.11426L1.76855 7.24023ZM14.7148 7.11426C14.8835 7.76359 15.0615 8.40261 15.2012 8.98535L14.7148 9.10156L14.2285 9.21875C14.0915 8.64705 13.922 8.03994 13.7471 7.36621L14.2314 7.24023L14.7148 7.11426ZM16 2.5L14.1357 4.36328C14.2239 4.99274 14.3484 5.6033 14.4863 6.19238L13.999 6.30664L13.5127 6.4209C13.3823 5.86412 13.2631 5.27905 13.1719 4.67188L11.5996 3.09961H4.40039L2.82617 4.67285C2.73497 5.27966 2.61759 5.86442 2.4873 6.4209L2.00098 6.30664L1.51367 6.19238C1.65156 5.60338 1.77421 4.99265 1.8623 4.36328L2.5 5L0 2.5L2.5 0L4.40039 1.90039H11.5996L13.5 0L16 2.5ZM1.3125 2.5L2.5 3.6875L3.6875 2.5L2.5 1.3125L1.3125 2.5ZM12.3125 2.5L13.5 3.6875L14.6875 2.5L13.5 1.3125L12.3125 2.5Z" fill="black"/>
</g>
</g>
<defs>
<clipPath id="clip0_3684_42373">
<rect width="16" height="16" fill="white"/>
</clipPath>
</defs>
</svg>
