<svg width="16" height="16" viewBox="0 0 16 16" fill="none" xmlns="http://www.w3.org/2000/svg">
<g id="bend-path">
<g id=".path-bend" clip-path="url(#clip0_3684_42586)">
<path id="shape" opacity="0.4" d="M8.00073 9.25C9.33259 9.25 10.8324 9.6064 12.0916 10.1602C12.1752 10.4663 12.3156 10.7479 12.5007 10.9951L11.0759 13.8477C10.1765 13.3095 9.12413 13 7.99976 13C6.87548 13.0001 5.82298 13.3086 4.92358 13.8467L3.49878 10.9971C3.68474 10.7493 3.82497 10.4671 3.90894 10.1602C5.16831 9.6061 6.66847 9.25006 8.00073 9.25ZM7.99976 2C10.8923 2 13.6162 2.72283 16.0007 3.99707V4L14.4998 7C14.2612 7.00012 14.0308 7.03511 13.8123 7.09766C12.0332 6.2604 9.92269 5.75 8.00073 5.75C6.07866 5.75006 3.9683 6.26029 2.18921 7.09766C1.97046 7.03512 1.73956 7 1.50073 7L0.000732422 4V3.99609C2.38481 2.72236 5.10791 2.00006 7.99976 2Z" fill="black"/>
<path id="Union" d="M8.00098 7C9.83443 7 11.8762 7.52401 13.5342 8.35352C13.7953 8.1331 14.1325 8 14.501 8C15.3294 8 16.001 8.67157 16.001 9.5C16.001 10.3284 15.3294 11 14.501 11C13.6725 11 13.001 10.3284 13.001 9.5C13.001 9.40354 13.0099 9.30917 13.0273 9.21777C11.5217 8.47623 9.65965 8 8.00098 8C6.34202 8 4.47945 8.47601 2.97363 9.21777C2.99105 9.30923 3.00098 9.40347 3.00098 9.5C3.00098 10.3284 2.3294 11 1.50098 11C0.672549 11 0.000976562 10.3284 0.000976562 9.5C0.000976562 8.67157 0.672549 8 1.50098 8C1.86917 8 2.20576 8.13339 2.4668 8.35352C4.12491 7.52379 6.16723 7 8.00098 7Z" fill="black"/>
</g>
</g>
<defs>
<clipPath id="clip0_3684_42586">
<rect width="16" height="16" fill="white"/>
</clipPath>
</defs>
</svg>
