<svg width="16" height="16" viewBox="0 0 16 16" fill="none" xmlns="http://www.w3.org/2000/svg">
<g id="boundingbox_bottom_left">
<g id=".pivot-corner-bottom-left">
<path id="Union" d="M8.5 5.04102C9.75626 5.25174 10.7472 6.24376 10.958 7.5H16V8.5H10.958C10.7199 9.91882 9.48647 11 8 11C6.34315 11 5 9.65685 5 8C5 6.51348 6.08111 5.27902 7.5 5.04102V0H8.5V5.04102ZM8 6C6.89543 6 6 6.89543 6 8C6 9.10457 6.89543 10 8 10C9.10457 10 10 9.10457 10 8C10 6.89543 9.10457 6 8 6Z" fill="black"/>
</g>
</g>
</svg>
