<svg width="16" height="16" viewBox="0 0 16 16" fill="none" xmlns="http://www.w3.org/2000/svg">
<g id="bounding-box">
<g id=".bounding-box-object" clip-path="url(#clip0_3684_42786)">
<rect id="rectangle" opacity="0.2" x="4" y="4" width="8" height="8" rx="4" fill="black"/>
<g id=".bounding-box">
<path id="Union" d="M2 16H0V14H2V16ZM16 16H14V14H16V16ZM7 15H4V14H7V15ZM12 15H9V14H12V15ZM2 12H1V9H2V12ZM15 12H14V9H15V12ZM2 7H1V4H2V7ZM15 7H14V4H15V7ZM2 2H0V0H2V2ZM7 2H4V1H7V2ZM12 2H9V1H12V2ZM16 2H14V0H16V2Z" fill="black"/>
</g>
<path id="Union_2" d="M8 4C10.2091 4 12 5.79086 12 8C12 10.2091 10.2091 12 8 12C5.79086 12 4 10.2091 4 8C4 5.79086 5.79086 4 8 4ZM8 5C6.34315 5 5 6.34315 5 8C5 9.65685 6.34315 11 8 11C9.65685 11 11 9.65685 11 8C11 6.34315 9.65685 5 8 5Z" fill="black"/>
</g>
</g>
<defs>
<clipPath id="clip0_3684_42786">
<rect width="16" height="16" fill="white"/>
</clipPath>
</defs>
</svg>
