<svg width="16" height="16" viewBox="0 0 16 16" fill="none" xmlns="http://www.w3.org/2000/svg">
<g id="boundingbox_bottom_right">
<g id=".pivot-corner-bottom-right">
<path id="Union" d="M8.5 5.04102C9.91889 5.27902 11 6.51348 11 8C11 9.65685 9.65685 11 8 11C6.51353 11 5.28007 9.91882 5.04199 8.5H0V7.5H5.04199C5.25279 6.24376 6.24374 5.25174 7.5 5.04102V0H8.5V5.04102ZM8 6C6.89543 6 6 6.89543 6 8C6 9.10457 6.89543 10 8 10C9.10457 10 10 9.10457 10 8C10 6.89543 9.10457 6 8 6Z" fill="black"/>
</g>
</g>
</svg>
