<svg width="16" height="16" viewBox="0 0 16 16" fill="none" xmlns="http://www.w3.org/2000/svg">
<g id="bug">
<g id=".bug" clip-path="url(#clip0_3684_42301)">
<path id="Ellipse 180" d="M11.5 3.50024C11.5 4.88096 9.65775 6.5 8.00089 6.5C6.34404 6.5 4.5 4.88096 4.5 3.50024C4.5 2.11953 6.34404 1 8.00089 1C9.65775 1 11.5 2.11953 11.5 3.50024Z" fill="black"/>
<path id="Vector 792" opacity="0.3" d="M6 6L4.5 4.5L3.5 5.5V8L4.5 11.5L5.5 13.5L7 14.5L8 13L9 14.5L10 13.5L11.5 11.5L12.5 8V5.5L11.5 4.5L10 6L8 6.5L6 6Z" fill="black"/>
<path id="Union" d="M10.373 1.14453C11.1114 -0.192437 13.0389 -0.242132 13.8359 1.08594L13.9297 1.24316L13.0723 1.75684L12.9785 1.60059C12.5725 0.924287 11.5795 0.962526 11.2266 1.66797L11.1846 1.75098C11.6617 2.21693 11.9999 2.81256 12 3.5C12 3.65149 11.9812 3.80193 11.9502 3.95117C12.1909 4.2012 12.4249 4.47188 12.625 4.79688L12.832 4.64941C14.2729 3.62025 16.2452 4.81852 15.9951 6.57129L15.0049 6.43066C15.1309 5.54868 14.1391 4.9453 13.4141 5.46289L13.0352 5.7334C13.1905 6.28191 13.2556 6.95906 13.1748 7.83203C14.4285 7.82074 15.514 9.00519 15.1719 10.375L14.9854 11.1211L14.0146 10.8789L14.2012 10.1328C14.3896 9.37837 13.73 8.73396 13.0293 8.84766C13.0199 8.89783 13.0112 8.94876 13.001 9L12.9492 9.23535C12.8067 9.84423 12.5802 10.4767 12.2988 11.0908L12.3594 11.1201C14.0233 11.9521 14.2647 14.2298 12.8125 15.3926L12.1875 14.6113C13.0701 13.9047 12.9232 12.5215 11.9121 12.0156L11.8447 11.9814C11.0121 13.4627 9.91388 14.695 9.00098 15L8.00195 13.501L7.00098 15L6.8584 14.9463C5.97399 14.5687 4.94509 13.3867 4.15527 11.9805L4.08789 12.0156C3.07714 12.521 2.93031 13.9032 3.8125 14.6094L3.5 15.001L3.1875 15.3906C1.73556 14.2286 1.97638 11.9529 3.63965 11.1211L3.70117 11.0898C3.42018 10.476 3.19416 9.84389 3.05176 9.23535L3.00098 9C2.99073 8.94877 2.98207 8.89784 2.97266 8.84766C2.27129 8.73259 1.61024 9.37775 1.79883 10.1328L1.98535 10.8789L1.01465 11.1211L0.828125 10.375C0.485779 9.00419 1.57325 7.81893 2.82812 7.83203C2.75195 6.97024 2.82136 6.29449 2.97949 5.74316L2.58691 5.46289C1.86186 4.9453 0.870095 5.54868 0.996094 6.43066L0.00585938 6.57129C-0.244202 4.81852 1.72811 3.62025 3.16895 4.64941L3.38867 4.80566C3.58524 4.48173 3.81399 4.20904 4.0498 3.95898C4.01778 3.80733 4 3.65402 4 3.5C4.00008 2.81242 4.33798 2.2159 4.81543 1.75L4.77539 1.66895C4.42247 0.963173 3.42938 0.92488 3.02344 1.60156L2.92969 1.75781L2.07227 1.24414L2.16602 1.08691C2.96277 -0.241087 4.88918 -0.191635 5.62793 1.14453C6.33027 0.741473 7.18144 0.500016 8.00098 0.5C8.82045 0.500016 9.67111 0.741517 10.373 1.14453ZM4.38672 5.10645C4.25219 5.29103 4.1376 5.48808 4.04395 5.7168C3.8043 6.3023 3.66378 7.21517 3.98145 8.80371C4.20054 9.89912 4.76308 11.1541 5.45703 12.1953C5.80121 12.7116 6.16291 13.1527 6.50586 13.4824C6.5715 13.5455 6.63693 13.6006 6.69727 13.6523L7.16992 12.9453L7.50098 12.4482V6.96875C6.23348 6.81079 5.28372 6.07782 4.67773 5.43848C4.57235 5.32727 4.47635 5.21454 4.38672 5.10645ZM11.623 5.09766C11.5315 5.20845 11.4333 5.32433 11.3252 5.43848C10.7192 6.07795 9.76875 6.80992 8.50098 6.96777V12.4463L8.83398 12.9463L9.30371 13.6514C9.36371 13.5999 9.42891 13.5451 9.49414 13.4824C9.83703 13.1526 10.1987 12.7116 10.543 12.1953C11.2372 11.154 11.8005 9.89891 12.0195 8.80371C12.3458 7.17206 12.2027 6.26313 11.9658 5.69336C11.8722 5.4682 11.7578 5.27735 11.623 5.09766ZM8.00098 1.5C7.27568 1.50002 6.49716 1.74828 5.90918 2.14648C5.3114 2.55143 5.00011 3.04316 5 3.5C5 3.98426 5.3415 4.60857 5.95605 5.13965C6.5604 5.66188 7.32416 5.99997 8.00098 6C8.03655 6 8.07238 5.99794 8.1084 5.99609C8.11688 5.99579 8.12533 5.99549 8.13379 5.99512C8.77617 5.95467 9.48024 5.62793 10.0449 5.13965C10.6589 4.60868 11 3.98442 11 3.5C10.9999 3.04287 10.6883 2.55136 10.0908 2.14648C9.50336 1.74845 8.72614 1.50002 8.00098 1.5Z" fill="black"/>
</g>
</g>
<defs>
<clipPath id="clip0_3684_42301">
<rect width="16" height="16" fill="white"/>
</clipPath>
</defs>
</svg>
