<svg width="16" height="16" viewBox="0 0 16 16" fill="none" xmlns="http://www.w3.org/2000/svg">
<g id="color-management-off">
<g id=".color-false">
<path id="Union" d="M8 2C9.933 2 11.5 3.567 11.5 5.5C11.5 6.24541 11.2653 6.93524 10.8682 7.50293C10.9119 7.50131 10.9559 7.5 11 7.5C12.933 7.5 14.5 9.067 14.5 11C14.5 12.933 12.933 14.5 11 14.5C9.72621 14.5 8.61226 13.819 8 12.8018C7.38774 13.819 6.27379 14.5 5 14.5C3.067 14.5 1.5 12.933 1.5 11C1.5 9.067 3.067 7.5 5 7.5C5.04382 7.5 5.08743 7.50133 5.13086 7.50293C4.73388 6.93533 4.5 6.24521 4.5 5.5C4.5 3.567 6.067 2 8 2ZM5 8.5C3.61929 8.5 2.5 9.61929 2.5 11C2.5 12.3807 3.61929 13.5 5 13.5C6.38071 13.5 7.5 12.3807 7.5 11C7.5 9.61929 6.38071 8.5 5 8.5ZM11 8.5C9.61929 8.5 8.5 9.61929 8.5 11C8.5 12.3807 9.61929 13.5 11 13.5C12.3807 13.5 13.5 12.3807 13.5 11C13.5 9.61929 12.3807 8.5 11 8.5ZM8 3C6.61929 3 5.5 4.11929 5.5 5.5C5.5 6.88071 6.61929 8 8 8C9.38071 8 10.5 6.88071 10.5 5.5C10.5 4.11929 9.38071 3 8 3Z" fill="black"/>
</g>
</g>
</svg>
