<svg width="16" height="16" viewBox="0 0 16 16" fill="none" xmlns="http://www.w3.org/2000/svg">
<g id="color-filters">
<g id=".color-filters" clip-path="url(#clip0_3684_42795)">
<circle id="Ellipse 298" opacity="0.6" cx="5.75" cy="4.1001" r="2" fill="black"/>
<circle id="Ellipse 300" opacity="0.2" cx="5.75" cy="11.8501" r="2" fill="black"/>
<circle id="Ellipse 303" opacity="0.1" cx="3.5" cy="8" r="2" fill="black"/>
<circle id="Ellipse 299" opacity="0.5" cx="10.25" cy="4.1001" r="2" fill="black"/>
<circle id="Ellipse 301" opacity="0.3" cx="10.25" cy="11.8501" r="2" fill="black"/>
<circle id="Ellipse 302" opacity="0.4" cx="12.5" cy="8" r="2" fill="black"/>
<path id="Union" fill-rule="evenodd" clip-rule="evenodd" d="M8.51603 12.8945L8.08302 13.1445L8.08303 13.1445L8.51603 12.8945ZM9.24746 10.1628L8.99747 9.72981L8.99744 9.72982L9.24746 10.1628ZM11.98 10.8947L12.4131 10.6448L12.413 10.6447L11.98 10.8947ZM11.2473 13.6268L11.4972 14.0598L11.4973 14.0598L11.2473 13.6268ZM10.4975 7.99775L9.99747 7.99776L9.99747 7.99779L10.4975 7.99775ZM12.498 5.99761L12.4981 5.49761L12.498 5.49761L12.498 5.99761ZM14.4973 7.99763L14.9973 7.99763L14.9973 7.99763L14.4973 7.99763ZM12.4981 9.99741L12.4981 10.4974L12.4982 10.4974L12.4981 9.99741ZM4.01543 10.8949L3.58242 10.6449L4.01543 10.8949ZM6.74749 10.1628L6.99749 9.72982L6.99747 9.72981L6.74749 10.1628ZM4.74749 13.6269L4.49747 14.0599L4.49749 14.0599L4.74749 13.6269ZM8.24717 4.10047L7.74716 4.10041L7.74716 4.10047L8.24717 4.10047ZM10.2477 2.10033L10.2477 1.60033L10.2477 1.60033L10.2477 2.10033ZM12.2478 4.10084L12.7478 4.10087L12.7478 4.10083L12.2478 4.10084ZM10.2473 6.10098L10.2472 6.60098L10.2473 6.60098L10.2473 6.10098ZM1.49771 7.9979L0.997709 7.9979L0.997709 7.99796L1.49771 7.9979ZM3.49737 5.99727L3.49737 5.49727L3.49733 5.49727L3.49737 5.99727ZM5.4975 7.99778L5.99751 7.99782L5.99751 7.99778L5.4975 7.99778ZM3.49749 9.99707L3.49747 10.4971L3.49749 10.4971L3.49749 9.99707ZM3.74771 4.10078L3.24771 4.10078L3.24771 4.10087L3.74771 4.10078ZM5.74737 2.10016L5.74737 1.60016L5.74733 1.60016L5.74737 2.10016ZM7.7475 4.10066L8.24751 4.10072L8.24751 4.10067L7.7475 4.10066ZM5.74749 6.09995L5.74747 6.59995L5.74749 6.59995L5.74749 6.09995ZM8.51603 12.8945L8.94904 12.6445C8.53475 11.9269 8.78028 11.0099 9.49748 10.5958L9.24746 10.1628L8.99744 9.72982C7.80165 10.4203 7.3928 11.949 8.08302 13.1445L8.51603 12.8945ZM9.24746 10.1628L9.49746 10.5958C10.215 10.1816 11.1328 10.4274 11.547 11.1447L11.98 10.8947L12.413 10.6447C11.7226 9.44889 10.1931 9.03951 8.99747 9.72981L9.24746 10.1628ZM11.98 10.8947L11.547 11.1447C11.961 11.8619 11.7148 12.7795 10.9973 13.1938L11.2473 13.6268L11.4973 14.0598C12.6927 13.3696 13.1033 11.8407 12.4131 10.6448L11.98 10.8947ZM11.2473 13.6268L10.9973 13.1938C10.28 13.6078 9.36331 13.362 8.94903 12.6445L8.51603 12.8945L8.08303 13.1445C8.77329 14.34 10.3014 14.75 11.4972 14.0598L11.2473 13.6268ZM10.4975 7.99775L10.9975 7.99775C10.9975 7.16945 11.6694 6.49761 12.498 6.49761L12.498 5.99761L12.498 5.49761C11.1174 5.49762 9.99747 6.61694 9.99747 7.99776L10.4975 7.99775ZM12.498 5.99761L12.4979 6.49761C13.326 6.49779 13.9973 7.16923 13.9973 7.99763L14.4973 7.99763L14.9973 7.99763C14.9973 6.61721 13.8786 5.4979 12.4981 5.49761L12.498 5.99761ZM14.4973 7.99763L13.9973 7.99763C13.9973 8.82593 13.3262 9.49719 12.4979 9.49741L12.4981 9.99741L12.4982 10.4974C13.8786 10.497 14.9973 9.37808 14.9973 7.99763L14.4973 7.99763ZM12.4981 9.99741L12.4981 9.49741C11.6694 9.49741 10.9975 8.82582 10.9975 7.99772L10.4975 7.99775L9.99747 7.99779C9.99754 9.37868 11.1177 10.4974 12.4981 10.4974L12.4981 9.99741ZM4.01543 10.8949L4.44845 11.1449C4.86263 10.4275 5.78006 10.1817 6.49751 10.5959L6.74749 10.1628L6.99747 9.72981C5.80179 9.03957 4.27277 9.44915 3.58242 10.6449L4.01543 10.8949ZM6.74749 10.1628L6.49749 10.5958C7.21492 11.0101 7.46074 11.9274 7.04653 12.6449L7.47954 12.8949L7.91254 13.1449C8.6029 11.9491 8.19321 10.4202 6.99749 9.72982L6.74749 10.1628ZM7.47954 12.8949L7.04653 12.6449C6.63231 13.3623 5.71492 13.6081 4.99749 13.1939L4.74749 13.6269L4.49749 14.0599C5.69321 14.7503 7.22218 14.3406 7.91254 13.1449L7.47954 12.8949ZM4.74749 13.6269L4.99751 13.1939C4.28011 12.7797 4.03427 11.8623 4.44845 11.1449L4.01543 10.8949L3.58242 10.6449C2.89207 11.8406 3.30187 13.3696 4.49747 14.0599L4.74749 13.6269ZM8.24717 4.10047L8.74717 4.10052C8.74725 3.27223 9.41925 2.60033 10.2477 2.60033L10.2477 2.10033L10.2477 1.60033C8.8671 1.60033 7.74731 2.71978 7.74716 4.10041L8.24717 4.10047ZM10.2477 2.10033L10.2477 2.60033C11.076 2.60036 11.7478 3.27234 11.7478 4.10084L12.2478 4.10084L12.7478 4.10083C12.7478 2.72027 11.6285 1.60038 10.2477 1.60033L10.2477 2.10033ZM12.2478 4.10084L11.7478 4.1008C11.7477 4.92909 11.0758 5.60098 10.2473 5.60098L10.2473 6.10098L10.2473 6.60098C11.6279 6.60097 12.7477 5.48155 12.7478 4.10087L12.2478 4.10084ZM10.2473 6.10098L10.2474 5.60098C9.41908 5.60086 8.74717 4.92884 8.74717 4.10047L8.24717 4.10047L7.74716 4.10047C7.74717 5.48102 8.86666 6.60078 10.2472 6.60098L10.2473 6.10098ZM1.49771 7.9979L1.99771 7.9979C1.99771 7.16926 2.66931 6.49734 3.49741 6.49727L3.49737 5.99727L3.49733 5.49727C2.11645 5.49739 0.99771 6.61753 0.997709 7.9979H1.49771ZM3.49737 5.99727L3.49737 6.49727C4.32568 6.49727 4.9975 7.16924 4.9975 7.99778L5.4975 7.99778L5.99751 7.99778C5.9975 6.6172 4.87821 5.49727 3.49737 5.49727L3.49737 5.99727ZM5.4975 7.99778L4.9975 7.99774C4.99745 8.82592 4.32606 9.49707 3.49749 9.49707L3.49749 9.99707L3.49749 10.4971C4.87795 10.4971 5.99741 9.37862 5.99751 7.99782L5.4975 7.99778ZM3.49749 9.99707L3.4975 9.49707C2.66903 9.49705 1.99782 8.82601 1.99771 7.99783L1.49771 7.9979L0.997709 7.99796C0.997888 9.37862 2.11703 10.497 3.49747 10.4971L3.49749 9.99707ZM3.74771 4.10078L4.24771 4.10078C4.24771 3.27215 4.91931 2.60023 5.74741 2.60016L5.74737 2.10016L5.74733 1.60016C4.36646 1.60028 3.24771 2.72041 3.24771 4.10078H3.74771ZM5.74737 2.10016L5.74737 2.60016C6.57568 2.60016 7.2475 3.27213 7.2475 4.10066L7.7475 4.10066L8.24751 4.10067C8.2475 2.72009 7.12821 1.60016 5.74737 1.60016L5.74737 2.10016ZM7.7475 4.10066L7.2475 4.1006C7.24741 4.92878 6.57601 5.59995 5.74749 5.59995L5.74749 6.09995L5.74749 6.59995C7.12795 6.59996 8.24735 5.48145 8.24751 4.10072L7.7475 4.10066ZM5.74749 6.09995L5.7475 5.59995C4.91908 5.59993 4.24785 4.92887 4.24771 4.1007L3.74771 4.10078L3.24771 4.10087C3.24795 5.48144 4.36704 6.59991 5.74747 6.59995L5.74749 6.09995Z" fill="black"/>
</g>
</g>
<defs>
<clipPath id="clip0_3684_42795">
<rect width="16" height="16" fill="white"/>
</clipPath>
</defs>
</svg>
