<svg width="16" height="16" viewBox="0 0 16 16" fill="none" xmlns="http://www.w3.org/2000/svg">
<g id="color-palette">
<g id=".color-palette" clip-path="url(#clip0_3684_42421)">
<path id="Union" d="M11.1919 1.38623C9.66163 0.568287 7.89463 0.306546 6.19287 0.64502C4.49158 0.983538 2.95876 1.90037 1.85791 3.2417C0.77528 4.56104 0.500516 5.94229 0.500488 7.12451C0.50066 8.63347 1.51398 9.90237 2.89502 10.2935C3.30517 10.4096 3.68263 10.3682 3.96924 10.3032C4.23634 10.2426 4.50645 10.1384 4.65576 10.0854C4.77208 10.0442 4.89582 10.0175 5.0249 10.0063L5.15576 10.0005C5.98419 10.0005 6.65576 10.6721 6.65576 11.5005C6.65564 11.9083 6.49271 12.2764 6.2251 12.5483C5.97849 12.7991 5.74393 13.1656 5.68311 13.6206L5.66748 13.8218L5.67432 14.0005C5.75302 14.8871 6.51335 15.626 7.47998 15.5601C8.92529 15.4613 10.4719 15.1383 11.8228 14.2358C13.2651 13.272 14.3297 11.8376 14.8335 10.1772C15.337 8.5171 15.2492 6.73317 14.5854 5.13037C13.9214 3.5274 12.7219 2.20414 11.1919 1.38623ZM6.38818 1.62549C7.86307 1.33214 9.394 1.55919 10.7202 2.26807C12.0464 2.97696 13.0862 4.12389 13.6616 5.51318C14.2369 6.90234 14.3129 8.44838 13.8765 9.88721C13.4399 11.3261 12.5174 12.5694 11.2671 13.4048C10.119 14.1718 8.76805 14.4694 7.41162 14.562C6.99921 14.59 6.66115 14.2507 6.66748 13.8374C6.67015 13.67 6.73339 13.5127 6.83057 13.3774L6.93799 13.2495C7.38116 12.7991 7.65564 12.1824 7.65576 11.5005C7.65576 10.1198 6.53647 9.00049 5.15576 9.00049C4.86333 9.00054 4.58252 9.05066 4.32178 9.14307C3.99176 9.26007 3.6501 9.40001 3.31201 9.35986L3.16748 9.33057C2.20537 9.05802 1.50066 8.17411 1.50049 7.12451C1.50051 6.10986 1.73141 4.9732 2.63135 3.87646C3.58531 2.71412 4.9134 1.91889 6.38818 1.62549ZM10.0005 10.0005C9.4482 10.0005 9.00049 10.4482 9.00049 11.0005C9.00074 11.5526 9.44836 12.0005 10.0005 12.0005C10.5525 12.0003 11.0002 11.5525 11.0005 11.0005C11.0005 10.4483 10.5526 10.0007 10.0005 10.0005ZM11.2505 6.50049C10.5601 6.50049 10.0005 7.06013 10.0005 7.75049C10.0007 8.44063 10.5603 9.00049 11.2505 9.00049C11.9405 9.00023 12.5002 8.44047 12.5005 7.75049C12.5005 7.06029 11.9406 6.50075 11.2505 6.50049ZM4.50049 5.00049C3.67206 5.00049 3.00049 5.67206 3.00049 6.50049C3.00074 7.3287 3.67222 8.00049 4.50049 8.00049C5.32862 8.00032 6.00023 7.3286 6.00049 6.50049C6.00049 5.67216 5.32877 5.00065 4.50049 5.00049ZM8.50049 3.00049C7.67206 3.00049 7.00049 3.67206 7.00049 4.50049C7.00074 5.3287 7.67222 6.00049 8.50049 6.00049C9.32862 6.00032 10.0002 5.3286 10.0005 4.50049C10.0005 3.67216 9.32877 3.00065 8.50049 3.00049Z" fill="black"/>
</g>
</g>
<defs>
<clipPath id="clip0_3684_42421">
<rect width="16" height="16" fill="white"/>
</clipPath>
</defs>
</svg>
