<svg width="16" height="16" viewBox="0 0 16 16" fill="none" xmlns="http://www.w3.org/2000/svg">
<g id="copy-rotate">
<g id=".rotate-copies">
<path id="Union" opacity="0.4" d="M10.0005 16H6.00049V12H10.0005V16ZM5.53564 11.7314L2.07178 13.7314L0.0717773 10.2676L3.53564 8.26758L5.53564 11.7314ZM15.9282 10.2676L13.9282 13.7314L10.4644 11.7314L12.4644 8.26758L15.9282 10.2676ZM5.53564 4.26758L3.53564 7.73145L0.0717773 5.73145L2.07178 2.26758L5.53564 4.26758ZM15.9282 5.73145L12.4644 7.73145L10.4644 4.26758L13.9282 2.26758L15.9282 5.73145Z" fill="black"/>
<path id="Union_2" d="M8 7C8.55228 7 9 7.44772 9 8C9 8.55229 8.55228 9 8 9C7.44772 8.99999 7 8.55228 7 8C7 7.44772 7.44772 7.00001 8 7ZM10 4H6V0H10V4ZM7 3H9V1H7V3Z" fill="black"/>
</g>
</g>
</svg>
