<svg width="16" height="16" viewBox="0 0 16 16" fill="none" xmlns="http://www.w3.org/2000/svg">
<g id="curvestitching">
<g id=".path-stitch">
<path id="Subtract" opacity="0.5" d="M13.2051 1.05469L12.8252 1.37988C11.197 2.77574 11.1718 5.28211 12.7871 6.66406C12.9752 6.82494 13.1553 6.9772 13.3213 7.11621C15.2112 8.69845 15.585 11.4647 14.1699 13.4863L13.1104 15H11.8896L12.0908 14.7129L13.3506 12.9121C14.4664 11.318 14.1729 9.13477 12.6787 7.88379C12.5093 7.74199 12.3268 7.58738 12.1367 7.4248C10.1819 5.75262 10.0976 2.83232 11.7822 1H13.1582L13.2051 1.05469ZM2 15H1V1H2V15Z" fill="black"/>
<path id="Union" d="M4 12H3V11H4V12ZM7 12H5V11H7V12ZM10 12H8V11H10V12ZM12 12H11V11H12V12ZM4 8H3V7H4V8ZM7 8H5V7H7V8ZM10 8H8V7H10V8ZM4 4H3V3H4V4ZM7 4H5V3H7V4ZM9 4H8V3H9V4Z" fill="black"/>
</g>
</g>
</svg>
