<svg width="16" height="16" viewBox="0 0 16 16" fill="none" xmlns="http://www.w3.org/2000/svg">
<g id="dialog-icon-preview">
<g id=".loupe">
<path id="Subtract" d="M8 1C11.0102 1 12.2309 1.67081 12.709 2.11523C12.9452 2.3348 13 2.66483 13 2.9873V5.83691C14.3989 7.39562 15 10.0254 15 12.5C15 12.5 12.8495 15 8 15L7.55371 14.9932C3.01829 14.8467 1 12.5 1 12.5C1.00001 10.0251 1.60077 7.39458 3 5.83594V2.98633C3.00006 2.66423 3.05532 2.33565 3.29102 2.11621C3.769 1.67178 4.98954 1 8 1ZM12.6133 6.96191C11.8949 7.44967 10.2224 8 8 8C5.77684 8 4.10355 7.4498 3.38574 6.96191C3.09986 7.37826 2.85173 7.87425 2.64648 8.44141C2.25231 9.53081 2.04419 10.8066 2.00684 12.0811C2.02324 12.0953 2.03959 12.1117 2.05762 12.127C2.28942 12.3228 2.65471 12.5954 3.16113 12.8721C4.16925 13.4229 5.75529 14 8 14C10.2447 14 11.8307 13.4229 12.8389 12.8721C13.3453 12.5954 13.7106 12.3228 13.9424 12.127C13.9602 12.1119 13.9759 12.0952 13.9922 12.0811C13.9548 10.8066 13.7477 9.5308 13.3535 8.44141C13.1482 7.87405 12.8993 7.37836 12.6133 6.96191ZM8 2C5.33268 2 4 2.60544 4 3C4 3.39456 5.33333 4 8 4C10.6667 4 12 3.39456 12 3C12 2.60544 10.666 2 8 2Z" fill="black"/>
</g>
</g>
</svg>
