<svg width="16" height="16" viewBox="0 0 16 16" fill="none" xmlns="http://www.w3.org/2000/svg">
<g id="dialog-geometry">
<g id=".drawing-compass" clip-path="url(#clip0_3684_42284)">
<path id="accent" opacity="0.3" d="M14 4.5L11.5 2L9.5 3.5V6.5H12.5L14 4.5Z" fill="black"/>
<path id="Subtract" d="M15.5605 1.5L13.8838 3.17676L15.1699 4.46289L14.8906 4.8125L12.8906 7.3125L12.7402 7.5H12.5L10.6328 13.1035L10.5576 13.2939C10.1765 14.1401 9.2588 14.6086 8.35254 14.4307L6 16L7 14L9.16699 7.5H8.5V7.11133L2 10L0 11L1.55664 8.66309C1.28759 7.7642 1.68076 6.80488 2.48828 6.34961L2.65918 6.26367L8.5 3.66699V3.25977L8.6875 3.10938L11.1875 1.10938L11.5371 0.830078L12.8232 2.11621L14.5 0.439453L15.5605 1.5ZM8.26367 13.3682L8.41895 13.4199C8.94254 13.5942 9.50869 13.3105 9.68359 12.7871L11.4453 7.5H10.2197L8.26367 13.3682ZM3.06543 7.17773C2.59529 7.38702 2.35984 7.91894 2.52246 8.40723L2.59961 8.63965L8.5 6.01562V4.76074L3.06543 7.17773ZM9.5 3.5V6.5H12.5L14 4.5L11.5 2L9.5 3.5Z" fill="black"/>
</g>
</g>
<defs>
<clipPath id="clip0_3684_42284">
<rect width="16" height="16" fill="white"/>
</clipPath>
</defs>
</svg>
