<svg width="16" height="16" viewBox="0 0 16 16" fill="none" xmlns="http://www.w3.org/2000/svg">
<g id="dialog-filters">
<g id=".color-filters-edit">
<circle id="Ellipse 298" opacity="0.6" cx="5.75" cy="4.1001" r="2" fill="black"/>
<circle id="Ellipse 300" opacity="0.2" cx="5.75" cy="11.8501" r="2" fill="black"/>
<circle id="Ellipse 299" opacity="0.5" cx="10.25" cy="4.1001" r="2" fill="black"/>
<path id="Subtract" opacity="0.3" d="M12.501 6C12.9251 6 13.318 6.13225 13.6416 6.35742L12 8L10.8594 9.13965C10.6342 8.81606 10.501 8.42311 10.501 7.99902C10.5012 6.89472 11.3966 6.00007 12.501 6Z" fill="black"/>
<ellipse id="Ellipse 176" opacity="0.1" cx="3.50098" cy="7.99949" rx="2" ry="1.99998" fill="black"/>
<path id="Subtract_2" d="M5.56738 9.4043C6.05035 9.36847 6.54897 9.47113 7 9.73145C8.19572 10.4218 8.6054 11.9508 7.91504 13.1465C7.22463 14.3421 5.69566 14.7518 4.5 14.0615C3.30463 13.3711 2.89478 11.8421 3.58496 10.6465C3.61631 10.5922 3.65085 10.5403 3.68555 10.4893C4.46781 10.4318 5.15013 10.0167 5.56738 9.4043ZM6.5 10.5977C5.78258 10.1836 4.86532 10.4292 4.45117 11.1465C4.03712 11.8637 4.2829 12.781 5 13.1953C5.71734 13.6095 6.63454 13.3637 7.04883 12.6465C7.46304 11.929 7.21743 11.0119 6.5 10.5977ZM3.68262 5.50879C4.09998 6.12097 4.78316 6.53554 5.56543 6.59277C5.79372 6.92741 5.9442 7.31995 5.9873 7.74414L6.00098 8C6.00082 8.52072 5.83988 9.00416 5.56738 9.4043C4.82841 9.45922 4.12662 9.84077 3.68555 10.4893C3.62435 10.4938 3.56234 10.498 3.5 10.498C2.11988 10.4978 1.0014 9.38032 1.00098 8L1.0127 7.74414C1.14062 6.48376 2.20555 5.49929 3.5 5.49902C3.56137 5.49903 3.62235 5.50444 3.68262 5.50879ZM3.5 6.49805C2.67202 6.49826 2.00098 7.17146 2.00098 8C2.0014 8.82779 2.6719 9.4988 3.5 9.49902C4.32853 9.49902 5.00084 8.82713 5.00098 7.99902C5.00074 7.1707 4.32814 6.49807 3.5 6.49805ZM12.5 5.49902C13.0626 5.49914 13.5823 5.68534 14 5.99902L13.2803 6.71875C13.053 6.57993 12.7867 6.49913 12.501 6.49902C11.6724 6.49902 11.001 7.1717 11.001 8C11.0011 8.28533 11.0821 8.55123 11.2207 8.77832L10.502 9.49707C10.1883 9.07954 10.0011 8.56153 10.001 7.99902L10.0127 7.74414C10.0557 7.3202 10.2055 6.92722 10.4336 6.59277C11.2161 6.53594 11.8976 6.12098 12.3154 5.50879C12.3764 5.50432 12.4379 5.49906 12.5 5.49902ZM10.25 1.60254C11.5444 1.60259 12.6092 2.58618 12.7373 3.84668L12.751 4.10254C12.7509 4.62437 12.589 5.10795 12.3154 5.50879C11.5334 5.56619 10.8511 5.98065 10.4336 6.59277C10.373 6.59718 10.3118 6.60254 10.25 6.60254C9.25838 6.60232 8.40309 6.02369 7.99902 5.18652C8.12253 4.93092 8.20734 4.65246 8.2373 4.35742L8.25098 4.10254L8.25 4.10156C8.24989 3.71285 8.15744 3.34673 7.99902 3.01855C8.40312 2.18138 9.25839 1.60274 10.25 1.60254ZM5.75 1.60156C6.74165 1.60161 7.59489 2.18158 7.99902 3.01855C7.8759 3.27378 7.79262 3.55226 7.7627 3.84668L7.75 4.10254C7.75008 4.49121 7.84064 4.85838 7.99902 5.18652C7.59475 6.02299 6.7413 6.60155 5.75 6.60156C5.68802 6.60154 5.62628 6.59722 5.56543 6.59277C5.14751 5.98023 4.46562 5.56534 3.68262 5.50879C3.40961 5.10833 3.25109 4.62386 3.25098 4.10254L3.2627 3.84668C3.39067 2.58635 4.45559 1.60184 5.75 1.60156ZM10.251 2.60156C9.4745 2.60156 8.83498 3.19218 8.75781 3.94824L8.75 4.10254C8.75027 4.93054 9.42206 5.60219 10.25 5.60254C11.0783 5.60243 11.7508 4.93069 11.751 4.10254C11.751 3.2742 11.0791 2.60185 10.251 2.60156ZM5.75 2.60156C4.92202 2.60178 4.25099 3.27401 4.25098 4.10254C4.25127 4.93046 4.92185 5.60134 5.75 5.60156C6.5784 5.60156 7.25069 4.93055 7.25098 4.10254C7.25098 3.27401 6.57829 2.60158 5.75 2.60156Z" fill="black"/>
<path id="Union" d="M16 10L11 15H9V13L14 8L16 10ZM9.875 13.3633V14.125H10.6367L14.7617 10L14 9.23828L9.875 13.3633Z" fill="black"/>
</g>
</g>
</svg>
