<svg width="16" height="16" viewBox="0 0 16 16" fill="none" xmlns="http://www.w3.org/2000/svg">
<g id="dialog-svg-font">
<g id=".text-path" clip-path="url(#clip0_3684_42781)">
<path id="Union" d="M5 13.5L2.5 16L0 13.5L2.5 11L5 13.5ZM1.41406 13.5L1.74512 13.8311L1.76758 13.7666L2.00098 14H1.91406L2.5 14.5859L3.58594 13.5L2.5 12.4141L1.41406 13.5ZM10.3301 2.66895L13.8398 12.6689L14.3076 14H9.86328L9.63867 13.3086L9.10938 11.6787H6.88574L6.58887 12.5889L5.79492 11.7949L6.15918 10.6787H9.83594L10.5898 13H12.8965L9.38672 3H6.6123L4.1123 10.1123L3.32812 9.32812L5.66895 2.66797L5.9043 2H10.0957L10.3301 2.66895ZM9.29004 8.99805H6.70605L7.95996 5.14551H8.03906L9.29004 8.99805Z" fill="black"/>
</g>
</g>
<defs>
<clipPath id="clip0_3684_42781">
<rect width="16" height="16" fill="white"/>
</clipPath>
</defs>
</svg>
