<svg width="16" height="16" viewBox="0 0 16 16" fill="none" xmlns="http://www.w3.org/2000/svg">
<g id="dialog-path-effects">
<g id=".effects">
<path id="Union" d="M0 5.67773C0.000538975 2.71009 3.41043 1.03758 5.75781 2.85352L7.5 4.20117L7.7793 3.98535L8.39062 4.77637L8 5.07812V12.2119L8.06152 12.166L8.3623 12.5664C8.53951 12.8026 8.73806 12.9813 8.94629 13.1113L8.68164 13.5352L8.41602 13.959C8.09991 13.7614 7.81018 13.4975 7.56152 13.166L7.49902 13.083L7.4375 13.166C5.49202 15.7596 1.37706 13.9623 1.95703 10.7725C2.07127 10.1449 2.37216 9.59175 2.79492 9.16406C1.19606 8.80904 0 7.38339 0 5.67773ZM11.8633 13.1299L12.2148 13.4854C11.6578 14.0372 10.8977 14.3687 10.1143 14.4023L10.0928 13.9033L10.0713 13.4033C10.606 13.3803 11.1305 13.152 11.5107 12.7754L11.8633 13.1299ZM4.97949 9.25C3.97818 9.25029 3.11965 9.96697 2.94043 10.9521C2.54962 13.1035 5.32542 14.3155 6.6377 12.5664L7 12.083V9.25H4.97949ZM12.5859 9.64062C12.8083 9.97526 12.9675 10.3588 13.043 10.7734C13.117 11.1809 13.1139 11.5725 13.0439 11.9385L12.0615 11.751C12.1076 11.5099 12.1114 11.2426 12.0586 10.9521C12.0083 10.6755 11.9024 10.4193 11.7529 10.1943L12.1699 9.91797L12.5859 9.64062ZM10.002 8.25C10.4195 8.25167 10.8234 8.33753 11.1924 8.49219L10.8057 9.41406C10.5546 9.30885 10.2806 9.25115 9.99805 9.25L9.49805 9.24805L9.50195 8.24805L10.002 8.25ZM13.7002 7.74609L14.0693 8.08203C13.8924 8.27634 13.6943 8.45199 13.4785 8.60352L13.2559 8.74707L12.8271 9.00391L12.3145 8.14453L12.7441 7.88867L12.9033 7.78516C13.0589 7.67593 13.2023 7.54948 13.3301 7.40918L13.7002 7.74609ZM5.14551 3.64355C3.45537 2.33652 1.00054 3.5412 1 5.67773C1 7.09817 2.15183 8.25 3.57227 8.25H7V5.07812L5.14551 3.64355ZM14.8262 4.55957C14.9389 4.90771 14.9999 5.28301 15 5.67773C15 6.03846 14.9458 6.3883 14.8457 6.71777L14.3682 6.57227L13.8896 6.42676C13.9613 6.19063 14 5.9387 14 5.67773C13.9999 5.38699 13.9553 5.11602 13.875 4.86816L14.8262 4.55957ZM10.4023 2.77637L10.5713 3.24707C10.3262 3.33524 10.0844 3.46581 9.85449 3.64355L9.26855 4.09668L8.65723 3.30566L9.24219 2.85352C9.55447 2.61199 9.88899 2.43051 10.2334 2.30664L10.4023 2.77637ZM11.9209 2.13672C12.6737 2.24528 13.3813 2.59204 13.9277 3.12109L13.5801 3.48047L13.2314 3.83984C12.8362 3.4573 12.3227 3.2055 11.7783 3.12695L11.9209 2.13672Z" fill="black"/>
</g>
</g>
</svg>
