<svg width="16" height="16" viewBox="0 0 16 16" fill="none" xmlns="http://www.w3.org/2000/svg">
<g id="dialog-selectors">
<g id=".bracket-curly" clip-path="url(#clip0_3684_42777)">
<path id="Union" d="M5 0.874512V2.12451H3.5C3.29294 2.12452 3.12506 2.29246 3.125 2.49951V5.9292C3.12496 6.74182 2.74869 7.50451 2.11328 7.99951C2.74869 8.49453 3.12497 9.25719 3.125 10.0698V13.4995C3.12506 13.7066 3.29295 13.8745 3.5 13.8745H5V15.1245H3.5C2.60261 15.1245 1.87506 14.3969 1.875 13.4995V10.0698C1.87497 9.61021 1.64506 9.18129 1.2627 8.92627L0.65332 8.52002V7.47998L1.2627 7.07373C1.64519 6.81874 1.87495 6.38889 1.875 5.9292V2.49951C1.87506 1.6021 2.6026 0.87452 3.5 0.874512H5ZM12.5 0.874512C13.3973 0.874509 14.1248 1.6022 14.125 2.49951V5.9292C14.1251 6.38876 14.355 6.81776 14.7373 7.07275L15.3467 7.479V8.51904L14.7373 8.92529C14.355 9.18028 14.1251 9.61026 14.125 10.0698V13.4995C14.125 14.397 13.3974 15.1245 12.5 15.1245H11V13.8745H12.5C12.7071 13.8745 12.875 13.7066 12.875 13.4995V10.0698C12.8751 9.25681 13.2517 8.49351 13.8877 7.99854C13.2523 7.50355 12.8751 6.74185 12.875 5.9292V2.49951C12.8748 2.29256 12.707 2.12451 12.5 2.12451H11V0.874512H12.5Z" fill="black"/>
<path id="Vector 707" d="M0.5 8H1" stroke="black"/>
<path id="Vector 708" d="M15 8H15.5" stroke="black"/>
</g>
</g>
<defs>
<clipPath id="clip0_3684_42777">
<rect width="16" height="16" fill="white"/>
</clipPath>
</defs>
</svg>
