<svg width="16" height="16" viewBox="0 0 16 16" fill="none" xmlns="http://www.w3.org/2000/svg">
<g id="dialog-extensions">
<g id=".puzzle-piece">
<path id="Union" d="M9 0.5C10.3807 0.5 11.5 1.61929 11.5 3H14C14.5523 3 15 3.44772 15 4V7H14.5C13.9477 7 13.5 7.44772 13.5 8C13.5 8.55229 13.9477 9 14.5 9H15V13L14.9951 13.1025C14.9438 13.6067 14.5177 14 14 14H10V13.5C10 12.9477 9.55229 12.5 9 12.5C8.44772 12.5 8 12.9477 8 13.5V14H4C3.44772 14 3 13.5523 3 13V10.5C1.61929 10.5 0.5 9.38071 0.5 8C0.5 6.61929 1.61929 5.5 3 5.5V4C3 3.44772 3.44772 3 4 3H6.5C6.5 1.61929 7.61929 0.5 9 0.5ZM9 1.5C8.17157 1.5 7.5 2.17157 7.5 3C7.5 3.12586 7.51782 3.25085 7.5498 3.375L7.71094 4H4V6.71094L3.375 6.5498C3.25085 6.51782 3.12586 6.5 3 6.5C2.17157 6.5 1.5 7.17157 1.5 8C1.5 8.82843 2.17157 9.5 3 9.5C3.12421 9.5 3.24884 9.48174 3.375 9.44922L4 9.28809V13H7.06543C7.28765 12.1377 8.06829 11.5 9 11.5C9.93171 11.5 10.7123 12.1377 10.9346 13H14V9.93359C13.1378 9.71129 12.5 8.93162 12.5 8C12.5 7.06829 13.1377 6.28765 14 6.06543V4H10.2891L10.4502 3.375C10.4822 3.25085 10.5 3.12586 10.5 3C10.5 2.17157 9.82843 1.5 9 1.5Z" fill="black"/>
</g>
</g>
</svg>
