<svg width="16" height="16" viewBox="0 0 16 16" fill="none" xmlns="http://www.w3.org/2000/svg">
<g id="display-outline-overlay">
<g id=".display-outline-overlay">
<path id="Union" d="M15.001 12H9.00098V13H12.001V14H4.00098V13H7.00098V12H1.00098V2H15.001V12ZM6.5 9.20703L5 7.70703L2.00098 10.7061V11H14.001V8.70801L10.5 5.20703L6.5 9.20703ZM2.00098 9.29199L5 6.29297L6.5 7.79297L10.5 3.79297L14.001 7.29395V3H2.00098V9.29199Z" fill="black"/>
<path id="Vector 672" opacity="0.1" d="M1.5 10.5V2.5H14.5V7.5L10.5 4.5L6.5 8.5L5 7L1.5 10.5Z" fill="black"/>
<path id="Vector 670" opacity="0.3" d="M6.5 8.5L5 7L1.5 10.5V11.5H14.5V8.5L10.5 4.5L6.5 8.5Z" fill="black"/>
</g>
</g>
</svg>
