<svg width="16" height="16" viewBox="0 0 16 16" fill="none" xmlns="http://www.w3.org/2000/svg">
<g id="distribute-vertical-baseline">
<g id=".arrange-distribute-baseline-vertical">
<path class="warning" opacity="0.5" d="M5 14H0V13H5V14ZM5 7H0V6H5V7Z" fill="black"/>
<path id="A y" d="M8.69709 7H7.21413L9.47372 0.454545H11.2571L13.5135 7H12.0305L10.391 1.95028H10.3398L8.69709 7ZM8.6044 4.4272H12.1072V5.50746H8.6044V4.4272ZM8.38388 15.8409C8.21129 15.8409 8.04936 15.8271 7.89808 15.7994C7.74893 15.7738 7.62536 15.7408 7.52734 15.7003L7.83416 14.6839C7.99396 14.733 8.13778 14.7596 8.26562 14.7638C8.3956 14.7681 8.50746 14.7383 8.60121 14.6744C8.69709 14.6104 8.77486 14.5018 8.83452 14.3484L8.91442 14.1406L7.15341 9.09091H8.58523L9.60156 12.696H9.6527L10.6786 9.09091H12.12L10.212 14.5305C10.1204 14.7947 9.99574 15.0249 9.83807 15.2209C9.68253 15.419 9.48544 15.5714 9.2468 15.6779C9.00817 15.7866 8.72053 15.8409 8.38388 15.8409Z" fill="black"/>
</g>
</g>
</svg>
