<svg width="16" height="16" viewBox="0 0 16 16" fill="none" xmlns="http://www.w3.org/2000/svg">
<g id="distribute-unclump">
<g id=".arrange-distribute-unclump">
<path id="Union" opacity="0.3" d="M14 15H10V11H14V15ZM5 10H1V6H5V10ZM14 5H10V1H14V5Z" fill="black"/>
<path id="Union_2" d="M14 15H10V11H14V15ZM11 14H13V12H11V14ZM8.1709 9.77637L6.22363 13.6709L5.3291 13.2236L7.27637 9.3291L8.1709 9.77637ZM5 10H1V6H5V10ZM2 9H4V7H2V9ZM14 8.5H10V7.5H14V8.5ZM8.1709 6.22363L7.27637 6.6709L5.3291 2.77637L6.22363 2.3291L8.1709 6.22363ZM14 5H10V1H14V5ZM11 4H13V2H11V4Z" fill="black"/>
</g>
</g>
</svg>
