<svg width="16" height="16" viewBox="0 0 16 16" fill="none" xmlns="http://www.w3.org/2000/svg">
<g id="distribute-horizontal-baseline">
<g id=".arrange-distribute-baseline-horizontal">
<path id="Union" d="M11.4648 10.6963H11.5156L12.542 7.09082H13.9834L12.0752 12.5303C11.9836 12.7945 11.8588 13.0247 11.7012 13.2207C11.5457 13.4188 11.3489 13.5712 11.1104 13.6777C10.8717 13.7864 10.5837 13.8408 10.2471 13.8408C10.0747 13.8408 9.91285 13.8274 9.76172 13.7998C9.61257 13.7742 9.48864 13.7407 9.39062 13.7002L9.69727 12.6836C9.85706 12.7326 10.0011 12.7594 10.1289 12.7637C10.2589 12.7679 10.3711 12.7387 10.4648 12.6748C10.5607 12.6109 10.6386 12.502 10.6982 12.3486L10.7773 12.1406L9.0166 7.09082H10.4482L11.4648 10.6963ZM7.64746 12H6.16406L5.67969 10.5078H3.31641L2.83105 12H1.34766L3.60742 5.4541H5.39062L7.64746 12ZM3.66797 9.42676H5.32812L4.52441 6.9502H4.47363L3.66797 9.42676Z" fill="black"/>
<path class="warning" opacity="0.5" d="M2 6H1V0H2V6ZM10 6H9V0H10V6Z" fill="black"/>
</g>
</g>
</svg>
