<svg width="16" height="16" viewBox="0 0 16 16" fill="none" xmlns="http://www.w3.org/2000/svg">
<g id="distribute-randomize">
<g id=".arrange-distribute-randomize">
<path id="Union" opacity="0.3" d="M9 16H5V12H9V16ZM16 14H12V10H16V14ZM4 11H0V7H4V11ZM10 10H6V6H10V10ZM15 6H11V2H15V6ZM7 4H3V0H7V4Z" fill="black"/>
<path id="Union_2" d="M9 16H5V12H9V16ZM6 15H8V13H6V15ZM16 14H12V10H16V14ZM13 13H15V11H13V13ZM4 11H0V7H4V11ZM1 10H3V8H1V10ZM10 10H6V6H10V10ZM7 9H9V7H7V9ZM15 6H11V2H15V6ZM12 5H14V3H12V5ZM7 4H3V0H7V4ZM4 3H6V1H4V3Z" fill="black"/>
</g>
</g>
</svg>
