<svg width="16" height="16" viewBox="0 0 16 16" fill="none" xmlns="http://www.w3.org/2000/svg">
<g id="document-metadata">
<g id=".document-angle-brackets">
<path id="Subtract" d="M9.93481 9.24805L8.07739 12.5L9.93481 15.752L10.0764 16H8.92407L7.06567 12.748L6.92407 12.5L7.06567 12.252L8.92407 9H10.0764L9.93481 9.24805ZM14.9348 12.252L15.0764 12.5L14.9348 12.748L13.0764 16H11.9241L12.0657 15.752L13.9231 12.5L12.0657 9.24805L11.9241 9H13.0764L14.9348 12.252Z" fill="black"/>
<path id="Vector 828" opacity="0.3" d="M9 5V2L12 5H9Z" fill="black"/>
<path id="Subtract_2" d="M13.0005 5.29297V7H12.0005V6H8.00049V2H4.00049L4.00146 14H6.00049V15H3.00146L3.00049 14.5V1H8.70752L13.0005 5.29297ZM9.00049 5H11.2935L9.00049 2.70703V5Z" fill="black"/>
</g>
</g>
</svg>
