<svg width="16" height="16" viewBox="0 0 16 16" fill="none" xmlns="http://www.w3.org/2000/svg">
<g id="document-print">
<g id=".device-printer">
<path id="Rectangle 710" opacity="0.3" d="M2 6H14V10H13V8H3V10H2V6Z" fill="black"/>
<path id="Union" d="M13.001 5H15.001V11H13.001V15H3.00098V11H1.00098V5H3.00098V1H13.001V5ZM4.00098 14H12.001V9H4.00098V14ZM11.001 13H5.00098V12H11.001V13ZM11.001 11H5.00098V10H11.001V11ZM2.00098 10H3.00098V8H13.001V10H14.001V6H2.00098V10ZM4.00098 5H12.001V2H4.00098V5Z" fill="black"/>
</g>
</g>
</svg>
