<svg width="16" height="16" viewBox="0 0 16 16" fill="none" xmlns="http://www.w3.org/2000/svg">
<g id="document-properties">
<g id=".document-gear">
<path id="Subtract" d="M12 8.54102C12.4555 8.61742 12.875 8.79855 13.2363 9.05566L14.3281 7.96484L15.0352 8.67188L13.9434 9.7627C14.2009 10.1242 14.3815 10.5441 14.458 11H16V12H14.458C14.3815 12.4557 14.2006 12.875 13.9434 13.2363L15.0352 14.3281L14.3281 15.0352L13.2363 13.9434C12.875 14.2006 12.4557 14.3816 12 14.458V16H11V14.458C10.5441 14.3815 10.1242 14.2009 9.7627 13.9434L8.67188 15.0352L7.96484 14.3281L9.05664 13.2363C8.79938 12.875 8.61845 12.4557 8.54199 12H7V11H8.54199C8.61845 10.5443 8.79938 10.125 9.05664 9.76367L7.96484 8.67188L8.67188 7.96484L9.7627 9.05566C10.1241 8.7983 10.5442 8.61747 11 8.54102V7H12V8.54102ZM11.5 9.5C10.3954 9.5 9.5 10.3954 9.5 11.5C9.5 12.6046 10.3954 13.5 11.5 13.5C12.6046 13.5 13.5 12.6046 13.5 11.5C13.5 10.3954 12.6046 9.5 11.5 9.5Z" fill="black"/>
<path id="Vector 828" opacity="0.3" d="M9 5V2L12 5H9Z" fill="black"/>
<path id="Subtract_2" d="M13.0005 5.29297V7H12.0005V6H8.00049V2H4.00049L4.00146 14H6.00049V15H3.00146L3.00049 14.5V1H8.70752L13.0005 5.29297ZM9.00049 5H11.2935L9.00049 2.70703V5Z" fill="black"/>
</g>
</g>
</svg>
