<svg width="16" height="16" viewBox="0 0 16 16" fill="none" xmlns="http://www.w3.org/2000/svg">
<g id="document-revert">
<g id=".document-arrow-revolve-left">
<path id="neutral" d="M10.707 9.5L9.20703 11H13.5C14.8807 11 16 12.1193 16 13.5C16 14.8807 14.8807 16 13.5 16H12V15H13.5C14.3284 15 15 14.3284 15 13.5C15 12.6716 14.3284 12 13.5 12H9.20703L10.707 13.5L10 14.207L7.29297 11.5L10 8.79297L10.707 9.5Z" fill="black"/>
<path id="Vector 828" opacity="0.3" d="M9 5V2L12 5H9Z" fill="black"/>
<path id="Subtract" d="M13.0005 5.29297V7H12.0005V6H8.00049V2H4.00049L4.00146 14H6.00049V15H3.00146L3.00049 14.5V1H8.70752L13.0005 5.29297ZM9.00049 5H11.2935L9.00049 2.70703V5Z" fill="black"/>
</g>
</g>
</svg>
