<svg width="16" height="16" viewBox="0 0 16 16" fill="none" xmlns="http://www.w3.org/2000/svg">
<g id="document-cleanup">
<g id=".document-broom">
<path id="Vector 828" opacity="0.3" d="M7 5V2L10 5H7Z" fill="black"/>
<path id="Subtract" d="M11.0005 5.29297V8H10.0005V6H6.00049V2H2.00049V14H6.00049V15H1.00146V14.5L1.00049 1.5V1H6.70752L11.0005 5.29297ZM7.00049 5H9.29346L7.00049 2.70703V5Z" fill="black"/>
<path id="neutral" d="M12.7629 3.88525C12.9693 3.06165 13.8046 2.56037 14.6282 2.76611C15.4439 2.97012 15.9444 3.79244 15.7522 4.61084L14.4924 9.95752C14.8598 10.3056 15.0002 10.8082 15.0002 11.2583V13.9995L14.9895 14.2026C14.8869 15.2048 14.035 16.0282 12.9631 15.9468C10.5498 15.7633 8.13587 15.0137 7.12915 12.4438C6.93904 11.9579 7.31835 11.5342 7.71899 11.4868L7.84595 11.4673C8.47489 11.3483 9.00496 10.9131 9.53345 10.3833C9.79228 10.1238 10.0838 9.80687 10.3372 9.57471C10.5886 9.34434 10.9076 9.09308 11.2825 9.02002C11.3524 9.00647 11.4201 9.00528 11.4817 9.00732L12.7629 3.88525ZM11.1672 10.1792C11.1209 10.2161 11.0697 10.26 11.0129 10.312C10.7776 10.5276 10.5508 10.7792 10.2415 11.0894C9.73754 11.5946 9.07511 12.1886 8.2063 12.4097C9.06394 14.1643 10.8593 14.783 13.0393 14.9487C13.5157 14.9848 13.9437 14.6161 13.9954 14.104L14.0002 13.9995V11.2583L13.9944 11.1343C13.9915 11.1051 13.9866 11.0772 13.9817 11.0503C13.3961 11.2616 12.7369 11.2322 12.1995 11.0308C11.79 10.8771 11.3859 10.5919 11.1672 10.1792ZM14.386 3.73682C14.0979 3.66481 13.806 3.83989 13.7336 4.12744L12.3381 9.7085L12.2766 9.95264C12.3511 10.0049 12.4416 10.0542 12.551 10.0952C12.819 10.1955 13.1303 10.2198 13.4163 10.1675L13.4446 10.0513L14.7795 4.38232C14.8466 4.09615 14.671 3.80827 14.386 3.73682Z" fill="black"/>
<path id="Subtract_2" d="M12.1553 12.9521C12.4748 13.0414 12.8132 13.0903 13.168 13.0967C13.1421 13.1656 13.1179 13.2379 13.0889 13.3105C12.8323 13.9519 12.4273 14.7797 11.8535 15.3535L11.5 15.707L10.793 15L11.1465 14.6465C11.5697 14.2233 11.9121 13.5574 12.1553 12.9521ZM10.5859 12.0391C10.8246 12.2777 11.0912 12.4775 11.3809 12.6377C10.8182 13.2861 10.1187 13.9997 9.22363 14.4473L8.77637 13.5527C9.48154 13.2002 10.0572 12.6297 10.5801 12.0332C10.582 12.0352 10.584 12.0371 10.5859 12.0391Z" fill="black"/>
</g>
</g>
</svg>
