<svg width="16" height="16" viewBox="0 0 16 16" fill="none" xmlns="http://www.w3.org/2000/svg">
<g id="document-import-web">
<g id=".document-globe">
<path id="neutral" d="M11.001 8C13.2101 8 15.001 9.79086 15.001 12C15.001 14.2091 13.2101 16 11.001 16C8.79184 16 7.00098 14.2091 7.00098 12C7.00098 9.79086 8.79184 8 11.001 8ZM13.3711 13.7354C12.8327 13.8699 12.042 14 11 14C9.95802 14 9.16734 13.8699 8.62891 13.7354C8.59721 13.7274 8.56706 13.7169 8.53711 13.709C9.0789 14.4886 9.97963 15 11.001 15C12.0223 15 12.9231 14.4886 13.4648 13.709C13.4343 13.7171 13.4034 13.7273 13.3711 13.7354ZM13.8594 11.0898C13.7304 11.1341 13.5679 11.1861 13.3711 11.2354C12.8327 11.3699 12.042 11.5 11 11.5C9.95802 11.5 9.16734 11.3699 8.62891 11.2354C8.43251 11.1863 8.27049 11.134 8.1416 11.0898C8.05031 11.3769 8.00098 11.6827 8.00098 12C8.00098 12.1557 8.01229 12.3087 8.03516 12.458L8.22168 12.5518H8.2207C8.22075 12.5518 8.22186 12.5519 8.22363 12.5527L8.24707 12.5635C8.27031 12.5736 8.30933 12.5901 8.36328 12.6104C8.47113 12.6508 8.64049 12.707 8.87109 12.7646C9.33266 12.88 10.0421 13 11 13C11.9579 13 12.6673 12.88 13.1289 12.7646C13.3595 12.707 13.5289 12.6508 13.6367 12.6104C13.6907 12.5901 13.7297 12.5736 13.7529 12.5635L13.7764 12.5527H13.7773L13.7783 12.5518L13.9658 12.457C13.9886 12.308 14.001 12.1554 14.001 12C14.001 11.6826 13.9507 11.377 13.8594 11.0898ZM11.001 9C10.024 9 9.15812 9.46848 8.61035 10.1914C8.6863 10.2143 8.77292 10.2401 8.87109 10.2646C9.33266 10.38 10.0421 10.5 11 10.5C11.9579 10.5 12.6673 10.38 13.1289 10.2646C13.2276 10.24 13.3144 10.2134 13.3906 10.1904C12.8428 9.46813 11.9774 9 11.001 9Z" fill="black"/>
<path id="Vector 828" opacity="0.3" d="M9 5V2L12 5H9Z" fill="black"/>
<path id="Subtract" d="M13.0005 5.29297V7H12.0005V6H8.00049V2H4.00049L4.00146 14H6.00049V15H3.00146L3.00049 14.5V1H8.70752L13.0005 5.29297ZM9.00049 5H11.2935L9.00049 2.70703V5Z" fill="black"/>
</g>
</g>
</svg>
