<svg width="16" height="16" viewBox="0 0 16 16" fill="none" xmlns="http://www.w3.org/2000/svg">
<g id="draw-ellipse-segment">
<g id=".circle-segment">
<path id="Subtract" opacity="0.1" d="M7.99951 8H14.9995C14.9995 9.79146 14.3165 11.5834 12.9497 12.9502C10.2161 15.6836 5.78391 15.6835 3.05029 12.9502C0.316623 10.2165 0.316623 5.78347 3.05029 3.0498C4.41698 1.68326 6.20832 1.00011 7.99951 1V8Z" fill="black"/>
<path id="Union" d="M7.99951 8H14.9995C14.9995 9.79146 14.3165 11.5834 12.9497 12.9502C10.2161 15.6836 5.78391 15.6835 3.05029 12.9502C0.316623 10.2165 0.316623 5.78347 3.05029 3.0498C4.41698 1.68326 6.20832 1.00011 7.99951 1V8ZM6.99951 2.08398C5.81179 2.28353 4.6737 2.84057 3.75732 3.75684C1.41418 6.09998 1.41418 9.90002 3.75732 12.2432C6.10043 14.586 9.89961 14.586 12.2427 12.2432C13.1591 11.3267 13.7151 10.1881 13.9146 9H6.99951V2.08398Z" fill="black"/>
</g>
</g>
</svg>
