<svg width="16" height="16" viewBox="0 0 16 16" fill="none" xmlns="http://www.w3.org/2000/svg">
<g id="draw-path">
<g id=".pen">
<path id="neutral" opacity="0.3" d="M16 4L12.5 7.5L8.5 3.5L12 -1.5299e-07L16 4Z" fill="black"/>
<path id="Union" d="M16 4L13 7L12.1016 9.69629L11.9609 10.0732C11.2029 11.9249 9.5652 13.2867 7.58594 13.6826L1 15L2.31738 8.41406C2.71334 6.4348 4.07506 4.79709 5.92676 4.03906L6.30371 3.89844L9 3L12 0L16 4ZM6.61914 4.84766C4.91713 5.41512 3.64975 6.85107 3.29785 8.61035L2.45117 12.8398L6.14648 9.14453C6.05327 8.94913 6 8.73092 6 8.5C6 7.67157 6.67157 7 7.5 7C8.32843 7 9 7.67157 9 8.5C9 9.32843 8.32843 10 7.5 10C7.26847 10 7.05028 9.94524 6.85449 9.85156L3.15918 13.5469L7.38965 12.7021C9.14893 12.3503 10.5849 11.0829 11.1523 9.38086L11.959 6.95898L9.04004 4.04004L6.61914 4.84766ZM9.95703 3.45703L12.543 6.04297L14.5859 4L12 1.41406L9.95703 3.45703Z" fill="black"/>
</g>
</g>
</svg>
