<svg width="16" height="16" viewBox="0 0 16 16" fill="none" xmlns="http://www.w3.org/2000/svg">
<g id="draw-use-tilt">
<g id=".draw-tilt">
<path id="Vector 793" opacity="0.3" d="M10 2L8.5 3.5L10.5 5.5L12 4L10 2Z" fill="black"/>
<path id="Union" d="M15 15H1V14H15V15ZM13.0518 3.75684L3.96387 12.8447H1V9.88086L10.0879 0.792969L13.0518 3.75684ZM11.6562 7.34375C12.8818 8.56931 13.7088 10.191 13.9346 12H12.9268C12.7073 10.4675 11.9933 9.09484 10.9492 8.05078L11.6562 7.34375ZM2 10.2949V11.8447H3.5498L9.84375 5.55078L8.29395 4.00098L2 10.2949ZM9.00098 3.29395L10.5508 4.84375L11.6377 3.75684L10.0879 2.20703L9.00098 3.29395Z" fill="black"/>
</g>
</g>
</svg>
