<svg width="16" height="16" viewBox="0 0 16 16" fill="none" xmlns="http://www.w3.org/2000/svg">
<g id="draw-geometry-angle-bisector">
<g id=".angle-bisect">
<path id="Union" d="M2.00098 5.55371C3.69733 5.73193 5.26014 6.35635 6.57129 7.30762L5.85449 8.02441C4.7362 7.24471 3.4225 6.72586 2.00098 6.55859V13.292L2.75 12.543L3.45703 13.25L2.70703 14H9.44141C9.27426 12.5781 8.75547 11.2641 7.97559 10.1455L8.69238 9.42871C9.64383 10.7401 10.2682 12.3033 10.4463 14H15.001V15H1.00098V6.5H1V5.5H1.00098V1H2.00098V5.55371ZM6.45703 10.25L4.25 12.457L3.54297 11.75L5.75 9.54297L6.45703 10.25ZM9.45703 7.25L7.25 9.45703L6.54297 8.75L8.75 6.54297L9.45703 7.25ZM12.457 4.25L10.25 6.45703L9.54297 5.75L11.75 3.54297L12.457 4.25ZM14.707 2L13.25 3.45703L12.543 2.75L14 1.29297L14.707 2Z" fill="black"/>
</g>
</g>
</svg>
