<svg width="16" height="16" viewBox="0 0 16 16" fill="none" xmlns="http://www.w3.org/2000/svg">
<g id="draw-ellipse-chord">
<g id=".circle-chord">
<path id="Subtract" opacity="0.1" d="M14.4795 8.47949C14.2339 11.8453 11.4285 14.5 8 14.5C4.41017 14.5 1.50003 11.5898 1.5 8C1.5 4.5718 4.15411 1.7655 7.51953 1.51953L14.4795 8.47949Z" fill="black"/>
<path id="Union" d="M14.9951 8.28833L14.9785 8.51587C14.714 12.1407 11.6927 15.0002 8 15.0002C4.25494 15.0002 1.19646 12.059 1.00879 8.3606L1 8.00024C1 4.30791 3.85882 1.28567 7.4834 1.02075L7.71094 1.00415L14.9951 8.28833ZM7.33203 2.03931C4.33282 2.3713 2 4.91264 2 8.00024L2.00781 8.30884C2.16856 11.479 4.78988 14.0002 8 14.0002C11.088 14.0002 13.6277 11.6663 13.959 8.66626L7.33203 2.03931Z" fill="black"/>
</g>
</g>
</svg>
