<svg width="16" height="16" viewBox="0 0 16 16" fill="none" xmlns="http://www.w3.org/2000/svg">
<g id="draw-geometry-circle-from-radius">
<g id=".circle-radius">
<path id="Union" d="M8 1C11.866 1 15 4.13401 15 8C15 11.866 11.866 15 8 15C4.13401 15 1 11.866 1 8C1 4.13401 4.13401 1 8 1ZM8 2C4.68629 2 2 4.68629 2 8C2 11.3137 4.68629 14 8 14C11.3137 14 14 11.3137 14 8C14 6.52319 13.4649 5.17228 12.5801 4.12695L8.96484 7.74219C8.9868 7.82456 9 7.91071 9 8C9 8.55228 8.55228 9 8 9C7.44772 9 7 8.55228 7 8C7 7.44772 7.44772 7 8 7C8.08953 7 8.17622 7.01211 8.25879 7.03418L11.873 3.41992C10.8277 2.53507 9.47681 2 8 2Z" fill="black"/>
</g>
</g>
</svg>
