<svg width="16" height="16" viewBox="0 0 16 16" fill="none" xmlns="http://www.w3.org/2000/svg">
<g id="draw-star-outline">
<g id=".star">
<path id="Star 12" opacity="0.3" d="M8 1.40991L9.65248 6.49571H15L10.6738 9.6389L12.3262 14.7247L8 11.5815L3.67376 14.7247L5.32624 9.6389L1 6.49571H6.34752L8 1.40991Z" fill="black"/>
<path id="Union" d="M10.0156 5.99585H15L15.2939 6.90015L11.2617 9.82983L12.8018 14.5701L12.0322 15.1296L8 12.199L3.96777 15.1296L3.19824 14.5701L4.7373 9.82983L0.706055 6.90015L1 5.99585H5.98438L7.52441 1.25562H8.47559L10.0156 5.99585ZM6.82324 6.65015L6.71094 6.99585H2.53906L5.62012 9.23413L5.91406 9.448L5.80176 9.7937L4.625 13.4148L7.70605 11.1765L8 10.9636L8.29395 11.1765L11.374 13.4148L10.1982 9.7937L10.0859 9.448L10.3799 9.23413L13.4609 6.99585H9.28906L9.17676 6.65015L8 3.0271L6.82324 6.65015Z" fill="black"/>
</g>
</g>
</svg>
