<svg width="16" height="16" viewBox="0 0 16 16" fill="none" xmlns="http://www.w3.org/2000/svg">
<g id="draw-geometry-show-measuring-info">
<g id=".measure" clip-path="url(#clip0_3684_42660)">
<path id="Union" d="M16.001 11H11.2422L7.3916 15.8135L6.61035 15.1885L9.96094 11H0.000976562V1H16.001V11ZM1.00098 10H15.001V2H1.00098V10ZM4.78711 3.57715C5.16776 3.57716 5.49593 3.66469 5.77148 3.84082C6.04834 4.01545 6.26102 4.27048 6.41016 4.60547C6.55927 4.94061 6.63322 5.3471 6.63184 5.82422C6.63184 6.30421 6.55727 6.71481 6.4082 7.05566C6.25908 7.39652 6.04699 7.6575 5.77148 7.83789C5.49735 8.01686 5.16918 8.10644 4.78711 8.10645C4.40645 8.10645 4.07829 8.01632 3.80273 7.83594C3.52717 7.65412 3.31516 7.3932 3.16602 7.05371C3.01689 6.71282 2.94292 6.30288 2.94434 5.82422C2.94579 5.34568 3.02028 4.93919 3.16797 4.60547C3.31711 4.27043 3.52869 4.01547 3.80273 3.84082C4.07828 3.66472 4.40647 3.57715 4.78711 3.57715ZM8.12305 6.95996C8.26793 6.95996 8.39604 7.01412 8.50684 7.12207C8.61905 7.2286 8.67534 7.35725 8.67676 7.50781C8.67534 7.61005 8.64921 7.70332 8.59668 7.78711C8.54554 7.87092 8.47736 7.93759 8.39355 7.9873C8.31123 8.03693 8.22097 8.06152 8.12305 8.06152C7.96972 8.06148 7.83882 8.00733 7.72949 7.89941C7.62154 7.79146 7.56792 7.66122 7.56934 7.50781C7.56792 7.35724 7.62154 7.2286 7.72949 7.12207C7.83877 7.01433 7.96984 6.96 8.12305 6.95996ZM11.3818 3.57715C11.7126 3.57717 11.9999 3.63247 12.2441 3.74316C12.4884 3.85393 12.678 4.00824 12.8115 4.20703C12.9465 4.40445 13.0137 4.63418 13.0137 4.89551C13.0137 5.06157 12.9807 5.22642 12.9141 5.38965C12.8473 5.5529 12.7268 5.73336 12.5537 5.93066C12.3818 6.12811 12.1371 6.36506 11.8203 6.64062L11.2988 7.12207V7.14941H13.0674V8H9.83691V7.24121L11.4287 5.84766C11.5479 5.7398 11.6497 5.64117 11.7334 5.55176C11.8171 5.46097 11.8808 5.37009 11.9248 5.2793C11.9688 5.18697 11.9912 5.08647 11.9912 4.97852C11.9912 4.8579 11.9646 4.75509 11.9121 4.66992C11.8596 4.58342 11.7874 4.51659 11.6953 4.46973C11.603 4.42285 11.4963 4.39941 11.377 4.39941C11.2564 4.39947 11.1504 4.42397 11.0596 4.47363C10.9688 4.52192 10.8978 4.59232 10.8467 4.68457C10.797 4.7769 10.7725 4.88938 10.7725 5.02148H9.77344C9.77344 4.72461 9.84011 4.46786 9.97363 4.25195C10.1071 4.03619 10.2948 3.87033 10.5361 3.75391C10.779 3.63606 11.0609 3.57715 11.3818 3.57715ZM4.78711 4.43359C4.56126 4.43359 4.37846 4.54767 4.23926 4.77637C4.10015 5.00359 4.02977 5.35291 4.02832 5.82422C4.0269 6.14373 4.05765 6.40894 4.12012 6.61914C4.18401 6.82928 4.27368 6.98615 4.38867 7.08984C4.50373 7.19212 4.63654 7.24316 4.78711 7.24316C5.01431 7.24314 5.19827 7.1279 5.33887 6.89648C5.47949 6.66353 5.54927 6.30575 5.54785 5.82422C5.54783 5.50917 5.51599 5.24935 5.45215 5.04492C5.38828 4.83911 5.29906 4.68582 5.18555 4.58496C5.07193 4.48412 4.93907 4.43361 4.78711 4.43359Z" fill="black"/>
</g>
</g>
<defs>
<clipPath id="clip0_3684_42660">
<rect width="16" height="16" fill="white"/>
</clipPath>
</defs>
</svg>
