<svg width="16" height="16" viewBox="0 0 16 16" fill="none" xmlns="http://www.w3.org/2000/svg">
<g id="draw-geometry-set-bounding-box">
<g id="draw-bounding-box" clip-path="url(#clip0_3684_42726)">
<g id=".bounding-box-selection" opacity="0.9" clip-path="url(#clip1_3684_42726)">
<path id="Union" d="M1 15H3V16H0V13H1V15ZM6 16H4V15H6V16ZM9 16H7V15H9V16ZM12 16H10V15H12V16ZM16 16H13V15H15V13H16V16ZM1 12H0V10H1V12ZM16 12H15V10H16V12ZM1 9H0V7H1V9ZM16 9H15V7H16V9ZM1 6H0V4H1V6ZM16 6H15V4H16V6ZM3 1H1V3H0V0H3V1ZM16 3H15V1H13V0H16V3ZM6 1H4V0H6V1ZM9 1H7V0H9V1ZM12 1H10V0H12V1Z" fill="black"/>
</g>
</g>
</g>
<defs>
<clipPath id="clip0_3684_42726">
<rect width="16" height="16" fill="white"/>
</clipPath>
<clipPath id="clip1_3684_42726">
<rect width="16" height="16" fill="white"/>
</clipPath>
</defs>
</svg>
