<svg width="16" height="16" viewBox="0 0 16 16" fill="none" xmlns="http://www.w3.org/2000/svg">
<g id="draw-ellipse-arc">
<g id=".circle-arc">
<path id="Subtract" opacity="0.1" d="M6.5 2.49951L13.5 9.50049L14.7334 9.91162C13.9014 12.8481 11.203 15.0005 8 15.0005C4.13417 15.0005 1.00026 11.8663 1 8.00049C1 4.79727 3.15209 2.09796 6.08887 1.26611L6.5 2.49951Z" fill="black"/>
<path id="Subtract_2" d="M6.40527 2.21533C3.86578 2.91385 2 5.23905 2 8.00049C2.00026 11.314 4.68645 14.0005 8 14.0005C10.7612 14.0005 13.0855 12.1344 13.7842 9.59521L14.7334 9.91162C13.9014 12.8481 11.203 15.0005 8 15.0005C4.13417 15.0005 1.00026 11.8663 1 8.00049C1 4.79727 3.15209 2.09796 6.08887 1.26611L6.40527 2.21533Z" fill="black"/>
</g>
</g>
</svg>
