<svg width="16" height="16" viewBox="0 0 16 16" fill="none" xmlns="http://www.w3.org/2000/svg">
<g id="draw-calligraphic">
<g id=".brush-calligraphy" clip-path="url(#clip0_3684_42474)">
<path id="neutral" opacity="0.3" d="M16 4L10.5 9L7 5.5L12 -2.18557e-07L16 4Z" fill="black"/>
<path id="Union" fill-rule="evenodd" clip-rule="evenodd" d="M16 4L12 0L7.14299 5.34271L6.18066 5.72754C4.20954 6.51607 2.81651 8.29067 2.38867 10.3701C2.01218 12.2001 1.50619 14.2407 1 15C1.66438 14.5571 3.3096 14.1138 4.93652 13.7578L5.62988 13.6113C7.5795 13.2102 9.26104 11.9606 10.1133 10.1816L10.2725 9.81934L10.6573 8.85701L16 4ZM7.69744 6.19744L9.80163 8.30163L9.34375 9.44727C8.68943 11.0831 7.20382 12.2664 5.42773 12.6318C4.53299 12.8159 3.57461 13.0337 2.72852 13.2705C2.9652 12.4246 3.18413 11.4668 3.36816 10.5723C3.73356 8.79618 4.91694 7.31057 6.55273 6.65625L7.69744 6.19744ZM10.5778 7.57775L14.5508 3.96582L12.0342 1.44922L8.42225 5.42225L10.5778 7.57775Z" fill="black"/>
</g>
</g>
<defs>
<clipPath id="clip0_3684_42474">
<rect width="16" height="16" fill="white"/>
</clipPath>
</defs>
</svg>
