<svg width="16" height="16" viewBox="0 0 16 16" fill="none" xmlns="http://www.w3.org/2000/svg">
<g id="edit-paste-size-separately">
<g id=".clipboard-multiple-arrow-diagonal" clip-path="url(#clip0_3684_42651)">
<path id="Union" fill-rule="evenodd" clip-rule="evenodd" d="M11.001 2H14.001V7H13.001V3H11.001V4H5.00098V3H3.00098V15H6V16H2.00098H0V2H2.00098H5.00098V0H11.001V2ZM2.00098 3H1V15H2.00098V3ZM6.00098 3H10.001V1H6.00098V3ZM10.708 10H13.0015V9H9.00049V9.5L9.00146 13H10.0005V10.7065L14.2942 15H12.001V16H16V15.5L16.001 12H15.001V14.2927L10.708 10Z" fill="black"/>
</g>
</g>
<defs>
<clipPath id="clip0_3684_42651">
<rect width="16" height="16" fill="white"/>
</clipPath>
</defs>
</svg>
