<svg width="16" height="16" viewBox="0 0 16 16" fill="none" xmlns="http://www.w3.org/2000/svg">
<g id="edit-paste-in-place">
<g id=".clipboard-cross">
<path id="Union" fill-rule="evenodd" clip-rule="evenodd" d="M11.001 2H14.001V2.5L14 7H13L13.001 3H11.001V4H5.00098V3H3.00098V15H6V16H2.00098V2H5.00098V0H11.001V2ZM6.00098 3H10.001V1H6.00098V3ZM11.001 7H10.001V8.03531C8.46828 8.2541 7.25571 9.46587 7.03571 10.9982L6.50098 10.998H6.00098V11.998H6.50098L7.03518 11.9982C7.25379 13.5322 8.46706 14.7457 10.001 14.9647V16H11.001V14.9644C12.5334 14.7448 13.7454 13.5325 13.9646 11.9999L14.501 12H15.001V11H14.501L13.9645 10.9999C13.7453 9.46741 12.5333 8.25521 11.001 8.03558V7ZM10.001 9.04981C9.02147 9.24823 8.24974 10.0193 8.05033 10.9984L10.001 10.9989V9.04981ZM8.04969 11.9984C8.24809 12.9791 9.02042 13.7516 10.001 13.9502V11.9989L8.04969 11.9984ZM11.001 13.9498C11.9802 13.7506 12.7514 12.979 12.9501 11.9996L11.001 11.9991V13.9498ZM12.9499 10.9996L11.001 10.9991V9.05021C11.98 9.24934 12.751 10.0206 12.9499 10.9996Z" fill="black"/>
</g>
</g>
</svg>
