<svg width="16" height="16" viewBox="0 0 16 16" fill="none" xmlns="http://www.w3.org/2000/svg">
<g id="edit-cut">
<g id=".scissors">
<path id="Union" d="M13.4473 1.27612L13.6602 1.70093C14.2613 2.90338 14.1203 4.34455 13.2979 5.40796L10.1113 9.52417L10.9404 10.5476C11.3681 10.2055 11.9097 9.99976 12.5 9.99976C13.8807 9.99976 14.9999 11.1191 15 12.4998C15 13.8805 13.8807 14.9998 12.5 14.9998C11.1193 14.9998 10 13.8805 10 12.4998C10 12.2827 10.03 12.0727 10.082 11.8718L7.99902 9.29858L5.91699 11.8718C5.96905 12.0727 5.99999 12.2826 6 12.4998C6 13.8805 4.88071 14.9998 3.5 14.9998C2.11929 14.9998 1 13.8805 1 12.4998C1.00007 11.1191 2.11933 9.99976 3.5 9.99976C4.08999 9.99976 4.63101 10.2058 5.05859 10.5476L5.88672 9.52417L2.70215 5.40796C1.87972 4.34455 1.73866 2.90338 2.33984 1.70093L2.55273 1.27612L2.9082 0.565186L3.39551 1.19312L7.99902 7.13647L12.6045 1.19312L13.0918 0.565186L13.4473 1.27612ZM3.5 11.4998C2.94776 11.4998 2.50007 11.9475 2.5 12.4998C2.5 13.052 2.94772 13.4998 3.5 13.4998C4.05228 13.4998 4.5 13.052 4.5 12.4998C4.49993 11.9475 4.05224 11.4998 3.5 11.4998ZM12.5 11.4998C11.9478 11.4998 11.5001 11.9475 11.5 12.4998C11.5 13.052 11.9477 13.4998 12.5 13.4998C13.0523 13.4998 13.5 13.052 13.5 12.4998C13.4999 11.9475 13.0522 11.4998 12.5 11.4998ZM8.73242 7.82104L9.46484 8.72632L12.5068 4.79565C13.0257 4.12452 13.1635 3.24335 12.8926 2.45483L8.73242 7.82104ZM3.10645 2.45483C2.83563 3.24329 2.97435 4.12459 3.49316 4.79565L6.5332 8.72534L7.26465 7.82202L3.10645 2.45483Z" fill="black"/>
</g>
</g>
</svg>
