<svg width="16" height="16" viewBox="0 0 16 16" fill="none" xmlns="http://www.w3.org/2000/svg">
<g id="edit-select-all-layers">
<g id=".select-all-layers" clip-path="url(#clip0_3684_42692)">
<g id=".bounding-box-selection" opacity="0.5" clip-path="url(#clip1_3684_42692)">
<path id="Union" d="M1 15H3V16H0V13H1V15ZM6 16H4V15H6V16ZM9 16H7V15H9V16ZM12 16H10V15H12V16ZM16 16H13V15H15V13H16V16ZM1 12H0V10H1V12ZM16 12H15V10H16V12ZM1 9H0V7H1V9ZM16 9H15V7H16V9ZM1 6H0V4H1V6ZM16 6H15V4H16V6ZM3 1H1V3H0V0H3V1ZM16 3H15V1H13V0H16V3ZM6 1H4V0H6V1ZM9 1H7V0H9V1ZM12 1H10V0H12V1Z" fill="black"/>
</g>
<path id="Union_2" d="M13 9.5L8 12.5L3 9.5L4.57324 8.55566L8 10.6113L11.4258 8.55566L13 9.5ZM13 6.5L8 9.5L3 6.5L8 3.5L13 6.5ZM4.94336 6.5L8 8.33301L11.0557 6.5L8 4.66602L4.94336 6.5Z" fill="black"/>
</g>
</g>
<defs>
<clipPath id="clip0_3684_42692">
<rect width="16" height="16" fill="white"/>
</clipPath>
<clipPath id="clip1_3684_42692">
<rect width="16" height="16" fill="white"/>
</clipPath>
</defs>
</svg>
