<svg width="16" height="16" viewBox="0 0 16 16" fill="none" xmlns="http://www.w3.org/2000/svg">
<g id="edit-paste-width-separately">
<g id=".clipboard-multiple-arrow-horizontal" clip-path="url(#clip0_3684_42708)">
<path id="Union" d="M11.001 2H14.001V6H13.001V3H11.001V4H5.00098V3H3.00098V15H6V16H0V2H5.00098V0H11.001V2ZM1 3V15H2.00098V3H1ZM15.707 11.5L13 14.207L12.293 13.5L13.7939 11.998L8.70312 11.9941L10.209 13.5L9.50195 14.207L6.79492 11.5L9.50195 8.79297L10.209 9.5L8.71387 10.9941L13.791 10.998L12.293 9.5L13 8.79297L15.707 11.5ZM6.00098 3H10.001V1H6.00098V3Z" fill="black"/>
</g>
</g>
<defs>
<clipPath id="clip0_3684_42708">
<rect width="16" height="16" fill="white"/>
</clipPath>
</defs>
</svg>
