<svg width="16" height="16" viewBox="0 0 16 16" fill="none" xmlns="http://www.w3.org/2000/svg">
<g id="edit-undo-history">
<g id=".arrow-revolve-left-clock">
<path id="Union" d="M11 1C13.2091 1.00003 15 2.79088 15 5C15 6.77856 13.8387 8.28463 12.2334 8.80469C13.0073 9.44669 13.5 10.4159 13.5 11.5C13.5 13.433 11.933 15 10 15H9V14H10C11.3807 14 12.5 12.8807 12.5 11.5C12.4999 10.1194 11.3807 9.00003 10 9H2.20703L4.35352 11.1465L3.64648 11.8535L0.292969 8.5L3.64648 5.14648L4.35352 5.85352L2.20703 8H8.35547C7.52461 7.26704 7 6.19506 7 5C7 2.79086 8.79086 1 11 1ZM11 2C9.34315 2 8 3.34315 8 5C8 6.65685 9.34315 8 11 8C12.6568 7.99997 14 6.65683 14 5C14 3.34317 12.6568 2.00003 11 2ZM12 6H9V5H11V3H12V6Z" fill="black"/>
</g>
</g>
</svg>
