<svg width="16" height="16" viewBox="0 0 16 16" fill="none" xmlns="http://www.w3.org/2000/svg">
<g id="edit-clone-link">
<g id=".clipboard - lock">
<path id="Union" d="M11.001 2H14.001V6H13.001V3H11.001V4H5.00098V3H3.00098V15H7V16H2.00098V2H5.00098V0H11.001V2ZM6.00098 3H10.001V1H6.00098V3Z" fill="black"/>
<path id="Union_2" d="M11.5 8C12.8807 8 14 9.11929 14 10.5V12H15V16H8V12H9V10.5C9 9.11929 10.1193 8 11.5 8ZM11.5 9C10.6716 9 10 9.67157 10 10.5V12H13V10.5C13 9.67157 12.3284 9 11.5 9Z" fill="black"/>
</g>
</g>
</svg>
