<svg width="16" height="16" viewBox="0 0 16 16" fill="none" xmlns="http://www.w3.org/2000/svg">
<g id="edit-paste-height-separately">
<g id=".clipboard-multiple-arrow-vertical" clip-path="url(#clip0_3684_42699)">
<path id="Union" d="M11.001 2H14.001V6H13.001V3H11.001V4H5.00098V3H3.00098V15H7V16H0V2H5.00098V0H11.001V2ZM15.209 9.5L14.502 10.207L13 8.70508V13.793L14.5 12.293L15.207 13L12.5 15.707L9.79297 13L10.5 12.293L12 13.793V8.70898L10.502 10.207L9.79492 9.5L12.502 6.79297L15.209 9.5ZM1 15H2.00098V3H1V15ZM6.00098 3H10.001V1H6.00098V3Z" fill="black"/>
</g>
</g>
<defs>
<clipPath id="clip0_3684_42699">
<rect width="16" height="16" fill="white"/>
</clipPath>
</defs>
</svg>
