<svg width="16" height="16" viewBox="0 0 16 16" fill="none" xmlns="http://www.w3.org/2000/svg">
<g id="edit-paste-style">
<g id=".clipboard-stroke">
<path id="neutral" opacity="0.3" d="M14.001 7C14.5533 7 15.001 7.44772 15.001 8V15C15.001 15.5523 14.5533 16 14.001 16H7.00098C6.44869 16 6.00098 15.5523 6.00098 15V8C6.00098 7.44772 6.44869 7 7.00098 7H14.001ZM9 10V13H12V10H9Z" fill="black"/>
<path id="Union" d="M11.001 2H14.001V6H13.001V3H11.001V4H5.00098V3H3.00098V15H5V16H2.00098V2H5.00098V0H11.001V2ZM15.001 16H6.00098V7H15.001V16ZM7.00098 15H14.001V8H7.00098V15ZM6.00098 3H10.001V1H6.00098V3Z" fill="black"/>
</g>
</g>
</svg>
