<svg width="16" height="16" viewBox="0 0 16 16" fill="none" xmlns="http://www.w3.org/2000/svg">
<g id="edit-select-all">
<g id=".select-all-objects" clip-path="url(#clip0_3684_42575)">
<path id="Union" d="M13.4453 12.9053H8.00098L10.7236 8.19043L13.4453 12.9053ZM6.92773 11.9277H3V8H6.92773V11.9277ZM9.7334 11.9053H11.7129L10.7227 10.1895L9.7334 11.9053ZM4 10.9277H5.92773V9H4V10.9277ZM8.35742 2.5C9.65929 2.5 10.7158 3.55555 10.7158 4.85742L10.7031 5.09863C10.5822 6.2871 9.57779 7.21484 8.35742 7.21484L8.11621 7.20215C7.00709 7.08929 6.12456 6.20773 6.01172 5.09863L6 4.85742C6 3.55565 7.05568 2.50015 8.35742 2.5ZM8.35742 3.5C7.60771 3.50015 7 4.10818 7 4.85742C7.0001 5.60658 7.60777 6.21469 8.35742 6.21484C9.1072 6.21484 9.71572 5.60667 9.71582 4.85742C9.71582 4.10809 9.10726 3.5 8.35742 3.5Z" fill="black"/>
<path id="Union_2" opacity="0.3" d="M13.4453 12.9043H8.00098L10.7227 8.19043L13.4453 12.9043ZM6.92773 11.9277H3V8H6.92773V11.9277ZM8.35742 2.5C9.65929 2.5 10.7158 3.55555 10.7158 4.85742C10.7157 6.15921 9.65923 7.21484 8.35742 7.21484C7.05574 7.21469 6.0001 6.15911 6 4.85742C6 3.55565 7.05568 2.50015 8.35742 2.5Z" fill="black"/>
<g id=".bounding-box-selection" opacity="0.5" clip-path="url(#clip1_3684_42575)">
<path id="Union_3" d="M1 15H3V16H0V13H1V15ZM6 16H4V15H6V16ZM9 16H7V15H9V16ZM12 16H10V15H12V16ZM16 16H13V15H15V13H16V16ZM1 12H0V10H1V12ZM16 12H15V10H16V12ZM1 9H0V7H1V9ZM16 9H15V7H16V9ZM1 6H0V4H1V6ZM16 6H15V4H16V6ZM3 1H1V3H0V0H3V1ZM16 3H15V1H13V0H16V3ZM6 1H4V0H6V1ZM9 1H7V0H9V1ZM12 1H10V0H12V1Z" fill="black"/>
</g>
</g>
</g>
<defs>
<clipPath id="clip0_3684_42575">
<rect width="16" height="16" fill="white"/>
</clipPath>
<clipPath id="clip1_3684_42575">
<rect width="16" height="16" fill="white"/>
</clipPath>
</defs>
</svg>
