<svg width="16" height="16" viewBox="0 0 16 16" fill="none" xmlns="http://www.w3.org/2000/svg">
<g id="ellipse-5pts">
<g id=".circle-points-five" clip-path="url(#clip0_3684_42434)">
<path id="Subtract" d="M3.38159 11.8291C3.12954 12.0975 2.97339 12.4573 2.97339 12.8545C2.97339 12.8594 2.97432 12.8643 2.97436 12.8691C1.75323 11.6092 0.999837 9.8932 0.999756 8C0.999756 7.66454 1.02542 7.33458 1.07104 7.01172C1.29124 7.3222 1.62528 7.54466 2.01343 7.61816C2.00551 7.74436 1.99976 7.87181 1.99976 8C1.99983 9.45587 2.51907 10.7901 3.38159 11.8291ZM6.79956 1.10352C6.61238 1.35379 6.49976 1.66343 6.49976 2C6.49977 2.06292 6.50589 2.12466 6.51343 2.18555C5.01323 2.56791 3.74047 3.51629 2.93237 4.78906C2.73855 4.69769 2.52219 4.64648 2.2937 4.64648C2.12513 4.64648 1.9635 4.67529 1.81226 4.72656C2.80793 2.84824 4.63258 1.47801 6.79956 1.10352ZM11.0808 14.2861C10.151 14.7427 9.10549 15 7.99976 15C6.89464 15 5.85003 14.7422 4.92065 14.2861C5.29305 14.1699 5.60281 13.9123 5.78784 13.5762C6.47255 13.848 7.21825 14 7.99976 14C8.78158 14 9.52771 13.8482 10.2126 13.5762C10.3981 13.9122 10.7079 14.1703 11.0808 14.2861ZM14.1873 4.72461C14.0361 4.6734 13.8743 4.64551 13.7058 4.64551C13.4776 4.64551 13.2617 4.69695 13.0681 4.78809C12.2602 3.5157 10.9868 2.56803 9.48706 2.18555C9.49459 2.1247 9.49974 2.06288 9.49976 2C9.49976 1.66364 9.38789 1.3537 9.20093 1.10352C11.3669 1.47814 13.1915 2.84735 14.1873 4.72461ZM14.9998 8C14.9997 9.89296 14.247 11.6092 13.0261 12.8691C13.0262 12.8639 13.0261 12.8587 13.0261 12.8535C13.0261 12.4568 12.8714 12.0964 12.6199 11.8281C13.4816 10.7893 13.9997 9.45516 13.9998 8C13.9998 7.8715 13.995 7.74368 13.9871 7.61719C14.3747 7.54352 14.7094 7.32185 14.9294 7.01172C14.9751 7.33454 14.9998 7.66459 14.9998 8Z" fill="black"/>
<path id="Union" d="M4.29395 6.14648C4.29368 7.25083 3.39835 8.14648 2.29394 8.14648C1.18954 8.14648 0.294209 7.25083 0.293945 6.14648C0.293945 5.04191 1.18938 4.14648 2.29395 4.14648C3.39851 4.14648 4.29395 5.04191 4.29395 6.14648ZM3.49414 6.14648C3.49414 5.48374 2.95669 4.94629 2.29395 4.94629C1.6312 4.94629 1.09375 5.48374 1.09375 6.14648C1.09401 6.809 1.63137 7.34668 2.29394 7.34668C2.95652 7.34668 3.49388 6.809 3.49414 6.14648ZM6.47363 12.8545C6.47337 13.9588 5.57804 14.8545 4.47363 14.8545C3.36922 14.8545 2.4739 13.9588 2.47363 12.8545C2.47363 11.7499 3.36906 10.8545 4.47363 10.8545C5.5782 10.8545 6.47363 11.7499 6.47363 12.8545ZM5.67383 12.8545C5.67383 12.1918 5.13637 11.6543 4.47363 11.6543C3.81089 11.6543 3.27344 12.1917 3.27344 12.8545C3.2737 13.517 3.81105 14.0547 4.47363 14.0547C5.13621 14.0547 5.67356 13.517 5.67383 12.8545ZM10 2C10 3.10457 9.10457 4 8 4C6.89543 4 6 3.10457 6 2C6 0.89543 6.89543 -3.85125e-07 8 -3.36842e-07C9.10457 -2.8856e-07 10 0.89543 10 2ZM9.2002 2C9.2002 1.33726 8.66274 0.799804 8 0.799804C7.33726 0.799804 6.7998 1.33726 6.7998 2C6.7998 2.66274 7.33726 3.20019 8 3.20019C8.66274 3.2002 9.2002 2.66274 9.2002 2ZM13.5264 12.8535C13.5264 13.9581 12.6309 14.8535 11.5264 14.8535C10.422 14.8533 9.52637 13.9579 9.52637 12.8535C9.52637 11.7491 10.422 10.8538 11.5264 10.8535C12.6309 10.8535 13.5264 11.7489 13.5264 12.8535ZM12.7266 12.8535C12.7266 12.1908 12.1891 11.6533 11.5264 11.6533C10.8638 11.6536 10.3262 12.1909 10.3262 12.8535C10.3262 13.5161 10.8638 14.0534 11.5264 14.0537C12.1891 14.0537 12.7266 13.5163 12.7266 12.8535ZM15.7061 6.14551C15.7058 7.24985 14.8105 8.14551 13.7061 8.14551C12.6016 8.14551 11.7063 7.24985 11.7061 6.14551C11.7061 5.04094 12.6015 4.14551 13.7061 4.14551C14.8106 4.14551 15.7061 5.04094 15.7061 6.14551ZM14.9062 6.14551C14.9062 5.48277 14.3688 4.94531 13.7061 4.94531C13.0433 4.94531 12.5059 5.48277 12.5059 6.14551C12.5061 6.80803 13.0435 7.3457 13.7061 7.3457C14.3686 7.3457 14.906 6.80803 14.9062 6.14551Z" fill="black"/>
</g>
</g>
<defs>
<clipPath id="clip0_3684_42434">
<rect width="16" height="16" fill="white"/>
</clipPath>
</defs>
</svg>
