<svg width="16" height="16" viewBox="0 0 16 16" fill="none" xmlns="http://www.w3.org/2000/svg">
<g id="ellipse-start-angle">
<g id=".ellipse-angle-start">
<path id="Union" d="M14.707 14L8 7.29297L7.29297 8L14 14.707L14.707 14Z" fill="black"/>
<path id="Subtract" opacity="0.4" d="M8 15C9.13154 15 10.1989 14.7289 11.1445 14.252L10.3936 13.502C9.66034 13.822 8.85125 14 8 14C4.68629 14 2 11.3137 2 8C2 4.68629 4.68629 2 8 2C9.47474 2 10.8237 2.53257 11.8691 3.41699L7.2959 7.99023L12.5889 13.2832C12.837 13.0674 13.0705 12.8352 13.2861 12.5869L8.7002 8L13.2861 3.41406C12.0027 1.93595 10.1112 1 8 1C4.13401 1 1 4.13401 1 8C1 11.866 4.13401 15 8 15Z" fill="black"/>
<path id="Subtract_2" opacity="0.1" d="M8 14C8.85096 14 9.65943 13.8206 10.3926 13.501L6.08887 9.19629L11.8682 3.41699C10.8237 2.53394 9.47488 2 8 2C4.68629 2 2 4.68629 2 8C2 11.3137 4.68629 14 8 14Z" fill="black"/>
</g>
</g>
</svg>
