<svg width="16" height="16" viewBox="0 0 16 16" fill="none" xmlns="http://www.w3.org/2000/svg">
<g id="ellipse-end-angle">
<g id=".ellipse-angle-end">
<path id="Union" d="M14.707 2L8 8.70703L7.29297 8L14 1.29297L14.707 2Z" fill="black"/>
<path id="Subtract" opacity="0.4" d="M8 1C9.13154 1 10.1989 1.27108 11.1445 1.74805L10.3936 2.49805C9.66034 2.17797 8.85125 2 8 2C4.68629 2 2 4.68629 2 8C2 11.3137 4.68629 14 8 14C9.47474 14 10.8237 13.4674 11.8691 12.583L7.2959 8.00977L12.5889 2.7168C12.837 2.9326 13.0705 3.16479 13.2861 3.41309L8.7002 8L13.2861 12.5859C12.0027 14.0641 10.1112 15 8 15C4.13401 15 1 11.866 1 8C1 4.13401 4.13401 1 8 1Z" fill="black"/>
<path id="Subtract_2" opacity="0.1" d="M8 2C8.85096 2 9.65943 2.17943 10.3926 2.49902L6.08887 6.80371L11.8682 12.583C10.8237 13.4661 9.47488 14 8 14C4.68629 14 2 11.3137 2 8C2 4.68629 4.68629 2 8 2Z" fill="black"/>
</g>
</g>
</svg>
