<svg width="16" height="16" viewBox="0 0 16 16" fill="none" xmlns="http://www.w3.org/2000/svg">
<g id="envelope">
<g id=".transform-envelope" clip-path="url(#clip0_3684_42582)">
<path id="Union" d="M14 7V6.59863C13.9924 6.58139 13.984 6.56132 13.9736 6.53906C13.9287 6.44231 13.8575 6.29956 13.7568 6.12695C13.5551 5.78099 13.2361 5.31716 12.7725 4.85352C11.8529 3.93395 10.3509 3 8.00098 3C5.65106 3 4.14901 3.93395 3.22949 4.85352C2.7659 5.31716 2.44686 5.78099 2.24512 6.12695C2.14447 6.29956 2.07322 6.44231 2.02832 6.53906C2.01759 6.56219 2.00874 6.58289 2.00098 6.60059V7H3.00098V10H2.00098V15H14.001V10H13.001V7H14ZM1.00098 9H2.00098V8H1.00098V9ZM14.001 9H15.001V8H14.001V9ZM1.50098 1C1.22483 1 1.00098 1.22386 1.00098 1.5C1.00098 1.77614 1.22483 2 1.50098 2C1.77712 2 2.00098 1.77614 2.00098 1.5C2.00098 1.22386 1.77712 1 1.50098 1ZM14.501 1C14.2248 1 14.001 1.22386 14.001 1.5C14.001 1.77614 14.2248 2 14.501 2C14.7771 2 15.001 1.77614 15.001 1.5C15.001 1.22386 14.7771 1 14.501 1ZM16.001 10H15.001V16H1.00098V10H0.000976562V7H1.00098V2.91211C0.418798 2.70597 0.000976562 2.15281 0.000976562 1.5C0.000976562 0.671573 0.672549 0 1.50098 0C2.3294 0 3.00098 0.671573 3.00098 1.5C3.00098 2.15281 2.58316 2.70597 2.00098 2.91211V4.72754C2.15375 4.53824 2.32677 4.3422 2.52246 4.14648C3.60273 3.06617 5.35022 2 8.00098 2C10.6517 2 12.3992 3.06617 13.4795 4.14648C13.6748 4.34183 13.8474 4.53759 14 4.72656V2.91211C13.4183 2.70572 13.001 2.15249 13.001 1.5C13.001 0.671573 13.6725 0 14.501 0C15.3294 0 16.001 0.671573 16.001 1.5C16.001 2.15325 15.5828 2.70727 15 2.91309V7H16.001V10Z" fill="black"/>
<path id="shape" opacity="0.4" d="M8.00076 4.00195L9.5 6.99988L12.5935 8.59557L10.5 9.97365L11.4999 13.9999L8.00076 11.8111L4.49994 13.9999L5.5 9.97365L3.40625 8.59557L6.5 6.99988L8.00076 4.00195Z" fill="black"/>
</g>
</g>
<defs>
<clipPath id="clip0_3684_42582">
<rect width="16" height="16" fill="white"/>
</clipPath>
</defs>
</svg>
