<svg width="16" height="16" viewBox="0 0 16 16" fill="none" xmlns="http://www.w3.org/2000/svg">
<g id="experimental">
<g id=".beaker">
<path id="accent" opacity="0.3" d="M4.11757 15H11.8841C13.3414 15 14.3094 13.4915 13.7023 12.1667L12 10H4L2.29946 12.1666C1.69224 13.4914 2.66027 15 4.11757 15Z" fill="black"/>
<path id="Union" d="M9.65443 1.00781C10.4108 1.08465 11.0011 1.72337 11.0011 2.5V3.62793L11.0001 3.63672V4H10.3361C10.159 4.00011 10.0523 4.20232 10.1261 4.36328L13.7023 12.167C14.3093 13.4917 13.3411 15 11.8839 15H4.11732C2.70567 14.9997 1.75312 13.5839 2.2472 12.291L2.29994 12.167L5.66517 4.82324L5.87611 4.36328C5.94982 4.20245 5.8421 4 5.66517 4H5.00013V3H5.00111V2.5C5.00111 1.72331 5.59134 1.08457 6.34779 1.00781L6.50111 1H9.50111L9.65443 1.00781ZM11.6036 9.98926C11.5705 9.99616 11.5363 10 11.5011 10H4.50111C4.46562 10 4.43099 9.99629 4.39759 9.98926L3.20912 12.583C2.90559 13.2453 3.38889 13.9997 4.11732 14H11.8839C12.6126 14 13.0967 13.2454 12.7931 12.583L11.6036 9.98926ZM6.50111 2C6.22497 2 6.00111 2.22386 6.00111 2.5V3.04688C6.33823 3.14295 6.59291 3.37568 6.73646 3.63086C6.91957 3.95644 6.96663 4.38475 6.78529 4.78027L4.8517 9H11.1505L9.21693 4.78027C9.03626 4.38622 9.08172 3.95834 9.26478 3.63184C9.40842 3.37581 9.66315 3.14298 10.0001 3.04688V3H10.0011V2.5C10.0011 2.22389 9.77721 2.00005 9.50111 2H6.50111Z" fill="black"/>
</g>
</g>
</svg>
