<svg width="16" height="16" viewBox="0 0 16 16" fill="none" xmlns="http://www.w3.org/2000/svg">
<g id="export-multi">
<g id=".image-stack" clip-path="url(#clip0_3684_42231)">
<path id="Union" d="M13 4V3H3V13H4V4H13ZM5 15H15V5H5V15ZM1 11H2V2H11V1H1V11ZM16 16H4V14H2V12H0V0H12V2H14V4H16V16Z" fill="black"/>
<path id="Union_2" opacity="0.5" d="M14 10V14H6V12L8 10L9 11L12 8L14 10ZM8 7C8.55228 7 9 7.44772 9 8C9 8.55228 8.55228 9 8 9C7.44772 9 7 8.55228 7 8C7 7.44772 7.44772 7 8 7Z" fill="black"/>
</g>
</g>
<defs>
<clipPath id="clip0_3684_42231">
<rect width="16" height="16" fill="white"/>
</clipPath>
</defs>
</svg>
