<svg width="16" height="16" viewBox="0 0 16 16" fill="none" xmlns="http://www.w3.org/2000/svg">
<g id="file-link">
<g id=".document-link">
<path id="neutral" fill-rule="evenodd" clip-rule="evenodd" d="M14.1814 11.9043C15.0862 12.8094 15.0862 14.2766 14.1814 15.1816C13.2763 16.0867 11.8091 16.0867 10.904 15.1816L10.0886 14.3662L10.7956 13.6592L11.611 14.4746C12.1256 14.9891 12.9598 14.9892 13.4743 14.4746C13.9887 13.9601 13.9887 13.1259 13.4743 12.6113L12.6589 11.7959L13.3659 11.0889L14.1814 11.9043ZM12.8532 13.1465L12.1462 13.8535L9.1462 10.8535L9.85323 10.1465L12.8532 13.1465ZM7.81905 8.81934C8.72405 7.91432 10.1913 7.91445 11.0964 8.81934L11.9118 9.63477L11.2048 10.3418L10.3894 9.52637C9.8748 9.01201 9.04056 9.01188 8.52608 9.52637C8.01161 10.0409 8.0118 10.875 8.52608 11.3897L9.34151 12.2051L8.63448 12.9121L7.81905 12.0967C6.91425 11.1916 6.91407 9.72435 7.81905 8.81934Z" fill="black"/>
<path id="Vector 828" opacity="0.3" d="M9 5V2L12 5H9Z" fill="black"/>
<path id="Subtract" d="M13.0005 5.29297V7H12.0005V6H8.00049V2H4.00049L4.00146 14H6.00049V15H3.00146L3.00049 14.5V1H8.70752L13.0005 5.29297ZM9.00049 5H11.2935L9.00049 2.70703V5Z" fill="black"/>
</g>
</g>
</svg>
