<svg width="16" height="16" viewBox="0 0 16 16" fill="none" xmlns="http://www.w3.org/2000/svg">
<g id="fill-between-many">
<g id=".strokes-fill-between-many" clip-path="url(#clip0_3684_42386)">
<path id="shape" opacity="0.3" d="M2.5 13.5L3.9306 13.0912C5.23426 12.7188 6.63711 12.9778 7.72176 13.7913C9.10468 14.8285 10.9717 14.9447 12.4726 14.0871C13.1289 13.712 13.6037 13.0853 13.787 12.352L14.4999 9.50014L13.5082 9.07512C12.0464 8.44861 11.2232 6.88375 11.5351 5.32419C11.8139 3.9304 11.1864 2.51184 9.96751 1.78057C9.6615 1.59698 9.31136 1.50001 8.95451 1.50003L5.50005 1.50021L5.59262 2.09611C5.81167 3.50623 5.00962 4.87614 3.67273 5.37529C2.64152 5.7603 1.90304 6.67792 1.74741 7.7676L1.5 9.49999L2.5 13.5Z" fill="black"/>
<path id="Union" d="M3.79272 12.6099C5.24661 12.1945 6.81151 12.484 8.02124 13.3911C9.2446 14.3086 10.8966 14.4115 12.2244 13.6528L13.2517 13.0649L13.6863 12.8169L14.1824 13.686L13.7478 13.9341L12.7205 14.521C11.0465 15.4775 8.96405 15.3477 7.42163 14.1909C6.46223 13.4715 5.22115 13.2424 4.06812 13.5718L2.63745 13.98L2.15601 14.1177L1.88159 13.1558L2.36206 13.019L3.79272 12.6099ZM9.75757 1.0708L10.2253 1.35205C11.625 2.19215 12.3453 3.82158 12.0251 5.42236C11.7597 6.74992 12.4605 8.08231 13.7048 8.61572L14.697 9.04053L15.157 9.23779L14.7625 10.1567L14.3025 9.95947L13.3113 9.53467C11.6323 8.81497 10.6865 7.01738 11.0447 5.22607C11.2819 4.03957 10.7473 2.83205 9.70972 2.20947L9.24292 1.9292L8.81421 1.67139L9.32886 0.813965L9.75757 1.0708ZM5.9939 1.42334L6.08667 2.01904C6.34209 3.66357 5.40654 5.26211 3.84741 5.84424C2.98807 6.16523 2.37193 6.92934 2.24194 7.8374L1.99487 9.5708L1.92456 10.0649L0.934326 9.92432L1.00562 9.4292L1.25269 7.69678C1.4343 6.4261 2.29529 5.35573 3.4978 4.90674C4.6124 4.49055 5.28102 3.34804 5.09839 2.17236L5.00562 1.57666L4.92847 1.08252L5.91772 0.929199L5.9939 1.42334Z" fill="black"/>
</g>
</g>
<defs>
<clipPath id="clip0_3684_42386">
<rect width="16" height="16" fill="white"/>
</clipPath>
</defs>
</svg>
