<svg width="16" height="16" viewBox="0 0 16 16" fill="none" xmlns="http://www.w3.org/2000/svg">
<g id="fill-between-strokes">
<g id=".strokes-fill-between" clip-path="url(#clip0_3684_42384)">
<path id="shape" opacity="0.3" d="M13.4518 15L12.6178 13.7484C11.2775 11.7371 11.3753 8.94691 12.8523 7.06017C14.1172 5.44434 14.3891 3.13159 13.541 1.20268C13.4868 1.07952 13.365 1 13.2304 1H4.02816C3.92383 1 3.85388 1.10717 3.89588 1.20268C4.74405 3.13159 4.47214 5.44434 3.20722 7.06017C1.73022 8.94691 1.63237 11.7371 2.97267 13.7484L3.80676 15H13.4518Z" fill="black"/>
<path id="Union" fill-rule="evenodd" clip-rule="evenodd" d="M3.86944 0.785156L3.97784 1.01465C4.97701 3.11652 4.65327 5.60836 3.14972 7.38477C1.68901 9.11059 1.59182 11.6098 2.91339 13.4443L3.82355 14.708L4.11554 15.1133L3.30401 15.6982L3.01202 15.292L2.10187 14.0293C0.511832 11.8222 0.629646 8.81561 2.38702 6.73926C3.6368 5.26267 3.90611 3.19046 3.0755 1.44336L2.96612 1.21484L2.75128 0.762695L3.6546 0.333984L3.86944 0.785156ZM14.3694 0.785156L14.4778 1.01465C15.477 3.11651 15.1533 5.60836 13.6497 7.38477C12.189 9.1106 12.0918 11.6098 13.4134 13.4443L14.3235 14.708L14.6155 15.1133L13.804 15.6982L13.512 15.292L12.6019 14.0293C11.0118 11.8222 11.1296 8.81562 12.887 6.73926C14.1368 5.26268 14.4061 3.19045 13.5755 1.44336L13.4661 1.21484L13.2513 0.762695L14.1546 0.333984L14.3694 0.785156Z" fill="black"/>
</g>
</g>
<defs>
<clipPath id="clip0_3684_42384">
<rect width="16" height="16" fill="white"/>
</clipPath>
</defs>
</svg>
