<svg width="16" height="16" viewBox="0 0 16 16" fill="none" xmlns="http://www.w3.org/2000/svg">
<g id="fill-rule-nonzero">
<g id=".fill-rule-nonzero" clip-path="url(#clip0_3684_42445)">
<path id="Vector" opacity="0.3" d="M8.00012 1C8.31073 1.51647 9.37831 3.34258 10.3151 5.55286C12.7067 5.76078 14.7732 6.21182 15.3602 6.34759C14.9652 6.80238 13.5584 8.38203 11.7457 9.95604C12.2871 12.2952 12.4967 14.4002 12.5489 15C11.9942 14.7648 10.0572 13.915 8.00004 12.6774C5.94291 13.915 4.00582 14.7648 3.4512 15C3.50347 14.3998 3.71312 12.2949 4.25443 9.95607C2.44174 8.38205 1.03492 6.80239 0.639893 6.3476C1.22679 6.21185 3.29345 5.76078 5.68513 5.55286C6.62204 3.34228 7.68977 1.51604 8.00012 1Z" fill="black"/>
<path id="Union" d="M8.42944 0.742188C8.73305 1.24704 9.73673 2.96839 10.656 5.08398C12.9526 5.30459 14.9001 5.72776 15.4734 5.86035L15.738 6.67578C15.3519 7.12034 14.0241 8.6064 12.2957 10.1348C12.7957 12.3878 12.9966 14.3712 13.0476 14.957L12.3542 15.46C11.8124 15.2302 9.9877 14.4275 7.99976 13.2559C6.01291 14.4268 4.18984 15.2299 3.64722 15.46L2.95386 14.957C3.00491 14.3708 3.20386 12.3874 3.70386 10.1348C1.97582 8.60664 0.648573 7.12031 0.262451 6.67578L0.528076 5.86035C1.10222 5.72758 3.04893 5.30451 5.34448 5.08398C6.26414 2.96753 7.26889 1.2462 7.57202 0.742188H8.42944ZM4.56616 10.8721C4.29342 12.1996 4.12913 13.3946 4.03687 14.1924C4.76701 13.8582 5.85333 13.3329 7.03198 12.6631C6.60865 12.3924 6.184 12.1075 5.77124 11.8076C5.35796 11.5073 4.95487 11.1915 4.56616 10.8721ZM11.4333 10.8721C11.045 11.1912 10.6431 11.5076 10.2302 11.8076C9.81727 12.1076 9.39204 12.3923 8.96851 12.6631C10.1467 13.3326 11.2325 13.8581 11.9626 14.1924C11.8704 13.3946 11.7061 12.1996 11.4333 10.8721ZM8.00073 5.94629C7.34112 5.94629 6.67635 5.97754 6.03003 6.02734C5.78296 6.62659 5.5483 7.2487 5.34448 7.87598C5.14078 8.50291 4.96454 9.14375 4.81226 9.77344C5.30608 10.1938 5.82523 10.6111 6.35913 10.999C6.89246 11.3865 7.44891 11.7504 8.00073 12.0898C8.55261 11.7504 9.10897 11.3856 9.64233 10.998C10.176 10.6103 10.6946 10.1937 11.1882 9.77344C11.036 9.14387 10.8606 8.50279 10.657 7.87598C10.4532 7.24877 10.2175 6.62653 9.97046 6.02734C9.32441 5.97756 8.66007 5.94631 8.00073 5.94629ZM4.90991 6.13184C3.56257 6.28277 2.37472 6.4965 1.58765 6.65527C2.13103 7.2463 2.96726 8.11626 3.96851 9.03027C4.09512 8.54397 4.23564 8.05266 4.39331 7.56738C4.55119 7.08147 4.72625 6.60027 4.90991 6.13184ZM11.0896 6.13184C11.2732 6.60023 11.4503 7.08055 11.6082 7.56641C11.7658 8.05175 11.9053 8.5439 12.032 9.03027C13.033 8.11647 13.8684 7.24633 14.4119 6.65527C13.6246 6.49648 12.4368 6.2827 11.0896 6.13184ZM8.00073 1.99609C7.60651 2.69556 7.03634 3.75913 6.47632 4.99414C6.97835 4.96425 7.49007 4.94629 8.00073 4.94629C8.51112 4.9463 9.02241 4.96427 9.52417 4.99414C8.96432 3.75948 8.39495 2.69559 8.00073 1.99609Z" fill="black"/>
</g>
</g>
<defs>
<clipPath id="clip0_3684_42445">
<rect width="16" height="16" fill="white"/>
</clipPath>
</defs>
</svg>
