<svg width="16" height="16" viewBox="0 0 16 16" fill="none" xmlns="http://www.w3.org/2000/svg">
<g id="filter-blur">
<g id=".blur">
<path id="Union" d="M6 13C6.55228 13 7 13.4477 7 14C7 14.5523 6.55228 15 6 15C5.44772 15 5 14.5523 5 14C5 13.4477 5.44772 13 6 13ZM10 13C10.5523 13 11 13.4477 11 14C11 14.5523 10.5523 15 10 15C9.44771 15 9 14.5523 9 14C9 13.4477 9.44771 13 10 13ZM2.5 13C2.77614 13 3 13.2239 3 13.5C3 13.7761 2.77614 14 2.5 14C2.22386 14 2 13.7761 2 13.5C2 13.2239 2.22386 13 2.5 13ZM13.5 13C13.7761 13 14 13.2239 14 13.5C14 13.7761 13.7761 14 13.5 14C13.2239 14 13 13.7761 13 13.5C13 13.2239 13.2239 13 13.5 13ZM6 8.25C6.9665 8.25 7.75 9.0335 7.75 10C7.75 10.9665 6.9665 11.75 6 11.75C5.0335 11.75 4.25 10.9665 4.25 10C4.25 9.0335 5.0335 8.25 6 8.25ZM10 8.25C10.9665 8.25 11.75 9.0335 11.75 10C11.75 10.9665 10.9665 11.75 10 11.75C9.0335 11.75 8.25 10.9665 8.25 10C8.25 9.0335 9.0335 8.25 10 8.25ZM2 9C2.55228 9 3 9.44771 3 10C3 10.5523 2.55228 11 2 11C1.44772 11 1 10.5523 1 10C1 9.44771 1.44772 9 2 9ZM14 9C14.5523 9 15 9.44771 15 10C15 10.5523 14.5523 11 14 11C13.4477 11 13 10.5523 13 10C13 9.44771 13.4477 9 14 9ZM6 4.25C6.9665 4.25 7.75 5.0335 7.75 6C7.75 6.9665 6.9665 7.75 6 7.75C5.0335 7.75 4.25 6.9665 4.25 6C4.25 5.0335 5.0335 4.25 6 4.25ZM10 4.25C10.9665 4.25 11.75 5.0335 11.75 6C11.75 6.9665 10.9665 7.75 10 7.75C9.0335 7.75 8.25 6.9665 8.25 6C8.25 5.0335 9.0335 4.25 10 4.25ZM2 5C2.55228 5 3 5.44772 3 6C3 6.55228 2.55228 7 2 7C1.44772 7 1 6.55228 1 6C1 5.44772 1.44772 5 2 5ZM14 5C14.5523 5 15 5.44772 15 6C15 6.55228 14.5523 7 14 7C13.4477 7 13 6.55228 13 6C13 5.44772 13.4477 5 14 5ZM2.5 2C2.77614 2 3 2.22386 3 2.5C3 2.77614 2.77614 3 2.5 3C2.22386 3 2 2.77614 2 2.5C2 2.22386 2.22386 2 2.5 2ZM6 1C6.55228 1 7 1.44772 7 2C7 2.55228 6.55228 3 6 3C5.44772 3 5 2.55228 5 2C5 1.44772 5.44772 1 6 1ZM10 1C10.5523 1 11 1.44772 11 2C11 2.55228 10.5523 3 10 3C9.44771 3 9 2.55228 9 2C9 1.44772 9.44771 1 10 1ZM13.5 2C13.7761 2 14 2.22386 14 2.5C14 2.77614 13.7761 3 13.5 3C13.2239 3 13 2.77614 13 2.5C13 2.22386 13.2239 2 13.5 2Z" fill="black"/>
</g>
</g>
</svg>
