<svg width="16" height="16" viewBox="0 0 16 16" fill="none" xmlns="http://www.w3.org/2000/svg">
<g id="gear">
<g id=".gear-alt">
<path id="Union" d="M8.65039 3.04297C9.54444 3.15913 10.3638 3.51129 11.0449 4.03516L12.4902 2.59082L13.4092 3.50977L11.9639 4.9541C12.4882 5.63543 12.8408 6.45509 12.957 7.34961H15V8.65039H12.957C12.8408 9.54465 12.4879 10.3637 11.9639 11.0449L13.4092 12.4902L12.4902 13.4092L11.0449 11.9639C10.3637 12.4879 9.5446 12.8399 8.65039 12.9561V15H7.34961V12.9561C6.4554 12.8399 5.63626 12.4879 4.95508 11.9639L3.50977 13.4102L2.59082 12.4902L4.03516 11.0449C3.51129 10.3638 3.15913 9.54444 3.04297 8.65039H1V7.34961H3.04297C3.15916 6.45529 3.51103 5.63534 4.03516 4.9541L2.59082 3.50977L3.50977 2.58984L4.95508 4.03516C5.63619 3.51129 6.45556 3.15913 7.34961 3.04297V1H8.65039V3.04297ZM8 4.2998C5.95655 4.2998 4.2998 5.95655 4.2998 8C4.2998 10.0435 5.95655 11.7002 8 11.7002C10.0435 11.7002 11.7002 10.0435 11.7002 8C11.7002 5.95655 10.0435 4.2998 8 4.2998Z" fill="black"/>
</g>
</g>
</svg>
