<svg width="16" height="16" viewBox="0 0 16 16" fill="none" xmlns="http://www.w3.org/2000/svg">
<g id="gears">
<g id=".gear" clip-path="url(#clip0_3684_42372)">
<path id="Union" d="M13.2988 1.82178L12.4795 4.00928C13.0185 4.6139 13.4361 5.32824 13.6963 6.11475L16 6.49951V9.49951L13.6963 9.8833C13.4362 10.6704 13.0179 11.3847 12.4785 11.9897L13.2988 14.1782L10.7012 15.6782L9.2168 13.8765C8.82387 13.9574 8.41689 13.9995 8 13.9995C7.58278 13.9995 7.17545 13.9575 6.78223 13.8765L5.29883 15.6782L2.70117 14.1782L3.52051 11.9897C2.98125 11.3847 2.56278 10.6703 2.30273 9.8833L0 9.49951V6.49951L2.30273 6.11475C2.5628 5.32834 2.98066 4.61387 3.51953 4.00928L2.70117 1.82178L5.29883 0.321777L6.78223 2.12256C7.1754 2.04152 7.58283 1.99951 8 1.99951C8.41684 1.99951 8.82391 2.04164 9.2168 2.12256L10.7012 0.321777L13.2988 1.82178ZM9.98828 2.7583L9.60547 3.22314L9.01465 3.10205C8.6885 3.03491 8.34919 2.99951 8 2.99951C7.65015 2.99951 7.3105 3.03485 6.98438 3.10205L6.39355 3.22412L6.01074 2.7583L5.06543 1.61084L3.93359 2.26416L4.45605 3.65869L4.66797 4.22412L4.26562 4.67432C3.8162 5.17856 3.4684 5.7747 3.25195 6.4292L3.0625 7.00146L2.46777 7.10107L1 7.34619V8.65186L2.4668 8.89697L3.0625 8.99658L3.25195 9.56982C3.46821 10.2243 3.81651 10.8197 4.2666 11.3247L4.66895 11.7749L4.45703 12.3403L3.93457 13.7349L5.06445 14.3882L6.00977 13.2407L6.39355 12.7749L6.98438 12.897C7.31052 12.9642 7.65008 12.9995 8 12.9995C8.34926 12.9995 8.68848 12.9641 9.01465 12.897L9.60547 12.7759L9.98828 13.2407L10.9336 14.3882L12.0645 13.7349L11.542 12.3403L11.3301 11.7749L11.7324 11.3247C12.1825 10.8198 12.5307 10.2245 12.7471 9.56982L12.9365 8.99658L13.5322 8.89697L15 8.65186V7.34619L13.5312 7.10107L12.9365 7.00146L12.7471 6.4292C12.5305 5.77446 12.1828 5.17847 11.7334 4.67432L11.3311 4.22412L11.543 3.65869L12.0645 2.26416L10.9336 1.61084L9.98828 2.7583ZM8 4.99951C9.65672 4.99951 10.9998 6.34284 11 7.99951C11 9.65637 9.65685 10.9995 8 10.9995C6.34315 10.9995 5 9.65637 5 7.99951C5.00021 6.34284 6.34328 4.99951 8 4.99951ZM8 5.99951C6.89556 5.99951 6.00021 6.89512 6 7.99951C6 9.10408 6.89543 9.99951 8 9.99951C9.10457 9.99951 10 9.10408 10 7.99951C9.99979 6.89512 9.10444 5.99951 8 5.99951Z" fill="black"/>
</g>
</g>
<defs>
<clipPath id="clip0_3684_42372">
<rect width="16" height="16" fill="white"/>
</clipPath>
</defs>
</svg>
