<svg width="16" height="16" viewBox="0 0 16 16" fill="none" xmlns="http://www.w3.org/2000/svg">
<g id="grid-axonometric">
<g id=".layout-grid-axonometric">
<path id="Intersect" opacity="0.3" d="M8.50024 10.0317V14.7114L8.00024 15.0005L7.50024 14.7114V10.0063L7.98071 9.72998L8.50024 10.0317ZM14.0618 4.50049V5.07764L9.99341 7.42627L9.50024 7.13818V6.55615L13.5608 4.21143L14.0618 4.50049ZM6.44653 6.5249V7.13818L5.97095 7.40576L1.93774 5.07666V4.50049L2.43774 4.21143L6.44653 6.5249Z" fill="black"/>
<path id="Intersect_2" d="M8.50024 1.28809V7.71094L14.0618 10.9219V11.5L13.5618 11.7881L8.00024 8.57617L2.43677 11.7881L1.93774 11.5V10.9229L7.50024 7.71094V1.28809L8.00024 1L8.50024 1.28809Z" fill="black"/>
</g>
</g>
</svg>
