<svg width="16" height="16" viewBox="0 0 16 16" fill="none" xmlns="http://www.w3.org/2000/svg">
<g id="hatches">
<g id=".transform-hatches">
<path id="Union" opacity="0.1" d="M8 1C11.866 1 15 4.13401 15 8C15 11.866 11.866 15 8 15C4.13401 15 1 11.866 1 8C1 4.13401 4.13401 1 8 1Z" fill="black"/>
<path id="Union_2" d="M7.10449 1.00586C7.6123 1.06121 7.88856 1.51544 8.03418 1.86719C8.20702 2.28483 8.321 2.84561 8.40234 3.46582C8.56626 4.71598 8.61652 6.36898 8.65332 7.98828C8.6905 9.62407 8.71451 11.2272 8.82129 12.4248C8.86921 12.9621 8.93392 13.3891 9.0127 13.6904C9.09715 13.4042 9.17177 12.9995 9.22949 12.4902C9.35925 11.3451 9.40619 9.80564 9.4375 8.24023C9.46855 6.68761 9.48456 5.1079 9.55566 3.92285C9.59105 3.33324 9.64155 2.81406 9.7207 2.43457C9.75933 2.24949 9.81135 2.06139 9.8916 1.9082C9.95766 1.78215 10.1402 1.5 10.5 1.5C10.8015 1.5 10.9936 1.70168 11.083 1.81738C11.1855 1.94996 11.2676 2.11619 11.3359 2.2832C11.4749 2.62282 11.6028 3.08525 11.7217 3.6084C11.961 4.66172 12.1822 6.05429 12.3701 7.43262C12.4844 8.27051 12.5843 9.1082 12.6719 9.86816C12.7102 9.718 12.7492 9.56648 12.79 9.41504C13.025 8.54375 13.3061 7.64829 13.6172 6.96289C13.7716 6.6228 13.9449 6.3074 14.1406 6.06934C14.3225 5.84818 14.6095 5.58984 15 5.58984H15.5V6.58984H15.0312C15.0157 6.59967 14.9757 6.62793 14.9131 6.7041C14.7982 6.84383 14.6669 7.06849 14.5273 7.37598C14.2504 7.98606 13.9867 8.81879 13.7559 9.6748C13.5263 10.5259 13.335 11.3801 13.2012 12.0225C13.1344 12.3431 13.0815 12.6103 13.0459 12.7969C13.0281 12.89 13.015 12.9632 13.0059 13.0127C13.0013 13.0375 12.9974 13.0567 12.9951 13.0693C12.994 13.0754 12.9937 13.08 12.9932 13.083L12.9922 13.0869C12.9484 13.3335 12.7288 13.5107 12.4785 13.5C12.2595 13.4906 12.0761 13.3402 12.0186 13.1357L12.002 13.0449V13.043C12.0018 13.0418 12.0012 13.0402 12.001 13.0381C12.0005 13.033 12 13.0248 11.999 13.0146C11.9971 12.9941 11.994 12.9629 11.9902 12.9229C11.9827 12.8429 11.9716 12.7255 11.957 12.5762C11.9279 12.2766 11.8856 11.848 11.8311 11.334C11.722 10.3055 11.5665 8.93569 11.3799 7.56738C11.1929 6.19592 10.9764 4.83821 10.7471 3.8291C10.7014 3.6281 10.6533 3.44511 10.6084 3.28027C10.5875 3.488 10.5693 3.72345 10.5537 3.9834C10.4842 5.14201 10.4689 6.68762 10.4375 8.25977C10.4063 9.81914 10.3595 11.405 10.2236 12.6035C10.1563 13.1979 10.0634 13.7306 9.92676 14.126C9.8591 14.3217 9.76922 14.5202 9.63965 14.6777C9.50473 14.8417 9.29119 15 9 15C8.69785 15 8.48356 14.8279 8.35352 14.6572C8.2289 14.4937 8.14553 14.289 8.08398 14.0879C7.95928 13.6803 7.88012 13.1287 7.8252 12.5127C7.71469 11.2729 7.69 9.62562 7.65332 8.01172C7.61627 6.38132 7.56676 4.78388 7.41113 3.59668C7.33269 2.9984 7.23166 2.54319 7.11035 2.25C7.08758 2.19497 7.06548 2.15179 7.04688 2.11719C7.03655 2.1423 7.0239 2.17007 7.0127 2.20215C6.91224 2.48969 6.82851 2.93279 6.7627 3.50977C6.6321 4.65459 6.58582 6.1942 6.55566 7.75977C6.52576 9.31214 6.51104 10.8913 6.44141 12.0762C6.40675 12.6659 6.35794 13.1849 6.2793 13.5645C6.24095 13.7495 6.18844 13.9375 6.1084 14.0908C6.04246 14.217 5.86012 14.5 5.5 14.5C5.19849 14.5 5.00644 14.2983 4.91699 14.1826C4.81455 14.05 4.73239 13.8838 4.66406 13.7168C4.52513 13.3772 4.39722 12.9147 4.27832 12.3916C4.03895 11.3383 3.81784 9.94571 3.62988 8.56738C3.52753 7.81678 3.43473 7.06656 3.35352 6.37207C3.33702 6.43976 3.32274 6.50834 3.30566 6.57617C3.08586 7.44902 2.81101 8.35 2.48438 9.04199C2.32194 9.38608 2.13344 9.70673 1.91309 9.94824C1.69652 10.1855 1.39106 10.4072 1 10.4072H0.5V9.40723H1.00098C1.00169 9.40712 1.00348 9.40692 1.00586 9.40625C1.01081 9.40483 1.02058 9.40167 1.03516 9.39355C1.06657 9.37604 1.11407 9.34 1.1748 9.27344C1.29898 9.13727 1.43699 8.91832 1.58008 8.61523C1.86475 8.01213 2.12089 7.18598 2.33594 6.33203C2.54952 5.48386 2.7167 4.63216 2.83105 3.99121C2.88812 3.67137 2.93165 3.40474 2.96094 3.21875C2.97555 3.1259 2.98679 3.05319 2.99414 3.00391C2.99778 2.97947 3.00014 2.96072 3.00195 2.94824C3.00286 2.942 3.00347 2.93663 3.00391 2.93359C3.0041 2.93225 3.00479 2.93131 3.00488 2.93066V2.92969C3.04056 2.67846 3.25902 2.49364 3.5127 2.5C3.76635 2.50644 3.97507 2.70237 3.99805 2.95508V2.95703C3.99816 2.95822 3.99883 2.95982 3.99902 2.96191C3.99949 2.96705 4.00004 2.97516 4.00098 2.98535C4.00288 3.00592 4.00601 3.03713 4.00977 3.07715C4.01728 3.15712 4.02842 3.27446 4.04297 3.42383C4.07215 3.72341 4.11443 4.15203 4.16895 4.66602C4.27802 5.69447 4.43353 7.06431 4.62012 8.43262C4.80714 9.80408 5.02359 11.1618 5.25293 12.1709C5.29824 12.3702 5.34514 12.552 5.38965 12.7158C5.41005 12.5092 5.42819 12.2757 5.44336 12.0176C5.51147 10.8587 5.52537 9.31282 5.55566 7.74023C5.5857 6.18087 5.6318 4.59537 5.76855 3.39648C5.83641 2.80167 5.92998 2.26812 6.06836 1.87207C6.13687 1.676 6.22828 1.47783 6.35938 1.32031C6.49618 1.15595 6.71014 1 7 1L7.10449 1.00586Z" fill="black"/>
</g>
</g>
</svg>
