<svg width="16" height="16" viewBox="0 0 16 16" fill="none" xmlns="http://www.w3.org/2000/svg">
<g id="help-contents">
<g id=".sign-question-circle" clip-path="url(#clip0_3684_42298)">
<path id="Union" d="M8 0.5C12.1421 0.5 15.5 3.85786 15.5 8C15.5 12.1421 12.1421 15.5 8 15.5C3.85786 15.5 0.5 12.1421 0.5 8C0.5 3.85786 3.85786 0.5 8 0.5ZM8 1.5C4.41015 1.5 1.5 4.41015 1.5 8C1.5 11.5899 4.41015 14.5 8 14.5C11.5899 14.5 14.5 11.5899 14.5 8C14.5 4.41015 11.5899 1.5 8 1.5ZM7.76758 10.375C7.99914 10.3751 8.19999 10.4585 8.36914 10.625C8.54085 10.7916 8.62695 10.9923 8.62695 11.2266C8.62695 11.3853 8.5865 11.53 8.50586 11.6602C8.42781 11.7902 8.3234 11.8946 8.19336 11.9727C8.06589 12.0481 7.92364 12.0859 7.76758 12.0859C7.53332 12.0859 7.33133 12.0024 7.16211 11.8359C6.99284 11.6693 6.9082 11.4661 6.9082 11.2266C6.9082 10.9922 6.99284 10.7917 7.16211 10.625C7.33133 10.4585 7.53332 10.375 7.76758 10.375ZM7.9502 3.89062C8.44759 3.89062 8.88607 3.97786 9.26367 4.15234C9.64369 4.32681 9.93953 4.57564 10.1504 4.89844C10.3638 5.2187 10.4707 5.59906 10.4707 6.03906C10.4707 6.33587 10.4225 6.6016 10.3262 6.83594C10.2325 7.07021 10.0982 7.2787 9.92383 7.46094C9.74944 7.64314 9.54216 7.80604 9.30273 7.94922C9.09192 8.07935 8.91858 8.21493 8.7832 8.35547C8.65043 8.49606 8.55143 8.66152 8.48633 8.85156C8.42383 9.03906 8.39128 9.27084 8.38867 9.54688V9.64844H7.08691V9.54688C7.08952 9.07552 7.13477 8.70052 7.2207 8.42188C7.30924 8.14329 7.43427 7.91924 7.5957 7.75C7.75712 7.57822 7.95389 7.42051 8.18555 7.27734C8.34426 7.17844 8.48642 7.07023 8.61133 6.95312C8.73881 6.8334 8.83924 6.70042 8.91211 6.55469C8.98496 6.4063 9.02148 6.24081 9.02148 6.05859C9.02148 5.85297 8.97321 5.67443 8.87695 5.52344C8.78067 5.37252 8.65021 5.2552 8.48633 5.17188C8.325 5.08861 8.14369 5.04694 7.94336 5.04688C7.75861 5.04688 7.58256 5.08737 7.41602 5.16797C7.25203 5.24606 7.11521 5.366 7.00586 5.52734C6.89909 5.68619 6.8392 5.88803 6.82617 6.13281H5.43555C5.44857 5.63803 5.56836 5.22396 5.79492 4.89062C6.02399 4.55753 6.32547 4.30725 6.7002 4.14062C7.07766 3.97402 7.49466 3.89068 7.9502 3.89062Z" fill="black"/>
</g>
</g>
<defs>
<clipPath id="clip0_3684_42298">
<rect width="16" height="16" fill="white"/>
</clipPath>
</defs>
</svg>
