<svg width="16" height="16" viewBox="0 0 16 16" fill="none" xmlns="http://www.w3.org/2000/svg">
<g id="info-outline">
<g id=".sign-info-circle" clip-path="url(#clip0_3684_42299)">
<path id="Union" d="M8 0.5C12.1421 0.5 15.5 3.85786 15.5 8C15.5 12.1421 12.1421 15.5 8 15.5C3.85786 15.5 0.5 12.1421 0.5 8C0.5 3.85786 3.85786 0.5 8 0.5ZM8 1.5C4.41015 1.5 1.5 4.41015 1.5 8C1.5 11.5899 4.41015 14.5 8 14.5C11.5899 14.5 14.5 11.5899 14.5 8C14.5 4.41015 11.5899 1.5 8 1.5ZM8.70801 12H7.29395V6H8.70801V12ZM8.00488 3.61328C8.23123 3.61339 8.42427 3.68891 8.58301 3.83984C8.74429 3.98824 8.8252 4.16939 8.8252 4.38281C8.8252 4.59364 8.74429 4.77479 8.58301 4.92578C8.42427 5.07411 8.23123 5.14833 8.00488 5.14844C7.78105 5.14844 7.58816 5.07406 7.42676 4.92578C7.2653 4.77474 7.18457 4.59375 7.18457 4.38281C7.18457 4.16927 7.2653 3.98828 7.42676 3.83984C7.58816 3.68896 7.78104 3.61328 8.00488 3.61328Z" fill="black"/>
</g>
</g>
<defs>
<clipPath id="clip0_3684_42299">
<rect width="16" height="16" fill="white"/>
</clipPath>
</defs>
</svg>
