<svg width="16" height="16" viewBox="0 0 16 16" fill="none" xmlns="http://www.w3.org/2000/svg">
<g id="info">
<path id="Subtract" d="M8.00098 1C11.867 1 15.001 4.13401 15.001 8C15.001 11.866 11.867 15 8.00098 15C4.13498 15 1.00098 11.866 1.00098 8C1.00098 4.13401 4.13498 1 8.00098 1ZM7.16699 6V12H8.83105V6H7.16699ZM8.00293 3.54297C7.75565 3.54297 7.54324 3.62646 7.36621 3.79297C7.19173 3.95703 7.10449 4.15365 7.10449 4.38281C7.10449 4.61458 7.19173 4.8138 7.36621 4.98047C7.54324 5.14437 7.75566 5.22656 8.00293 5.22656C8.25011 5.22645 8.46138 5.14442 8.63574 4.98047C8.81265 4.81385 8.90137 4.61447 8.90137 4.38281C8.90137 4.15376 8.81265 3.95698 8.63574 3.79297C8.46138 3.62641 8.25011 3.54308 8.00293 3.54297Z" fill="black"/>
</g>
</svg>
