<svg width="16" height="16" viewBox="0 0 16 16" fill="none" xmlns="http://www.w3.org/2000/svg">
<g id="interpolate-rotate-both">
<g id=".interpolate-tiling-rotation-x+y">
<path id="Union" d="M6.70874 9.61963L5.15503 15.4155L1.29175 14.3804L2.84448 8.58447L6.70874 9.61963ZM2.51636 13.6733L4.448 14.1909L5.48315 10.3267L3.55151 9.80908L2.51636 13.6733ZM14.9998 13.9995H8.99976V9.99951H14.9998V13.9995ZM9.99976 12.9995H13.9998V10.9995H9.99976V12.9995ZM15.2322 2.40186L12.2322 7.59814L8.76831 5.59814L11.7683 0.401855L15.2322 2.40186ZM10.1345 5.23193L11.866 6.23193L13.866 2.76807L12.1345 1.76807L10.1345 5.23193Z" fill="black"/>
<path id="Union_2" d="M6 7H2V1H6V7Z" fill="black"/>
</g>
</g>
</svg>
