<svg width="16" height="16" viewBox="0 0 16 16" fill="none" xmlns="http://www.w3.org/2000/svg">
<g id="interpolate">
<g id=".path-segments-interpolate">
<path id="Subtract" d="M13.2051 1.05469L12.8252 1.37988C11.197 2.77574 11.1718 5.28211 12.7871 6.66406C12.9752 6.82494 13.1553 6.9772 13.3213 7.11621C15.2112 8.69845 15.585 11.4647 14.1699 13.4863L13.1104 15H11.8896L12.0908 14.7129L13.3506 12.9121C14.4664 11.318 14.1729 9.13477 12.6787 7.88379C12.5093 7.74199 12.3268 7.58738 12.1367 7.4248C10.1819 5.75262 10.0976 2.83232 11.7822 1H13.1582L13.2051 1.05469ZM2 15H1V1H2V15Z" fill="black"/>
<path id="Subtract_2" opacity="0.4" d="M5.46313 1.19043C5.12227 2.0167 5.05658 3.06338 5.12134 4.18848C5.18622 5.31493 5.37369 6.43404 5.49731 7.43848C5.86399 10.4181 5.89614 12.6782 5.3811 15H4.35669L4.38208 14.8887L4.47095 14.4756C4.88325 12.415 4.84699 10.3477 4.50415 7.56152C4.3876 6.61445 4.19061 5.41452 4.12329 4.24512C4.06001 3.14526 4.10399 1.99485 4.46411 1H5.54126L5.46313 1.19043ZM8.92798 1.35156C8.20156 2.08745 7.9722 3.12619 8.10864 4.22461C8.24554 5.32606 8.74629 6.42189 9.38306 7.17773C10.4274 8.41757 10.6245 9.90841 10.4221 11.3291C10.235 12.6423 9.70165 13.9318 9.13794 15H8.0022L8.13403 14.7598C8.71601 13.6989 9.25453 12.433 9.43188 11.1885C9.60807 9.9519 9.42338 8.77901 8.61743 7.82227C7.85698 6.91955 7.27735 5.64262 7.11646 4.34766C6.97304 3.19302 7.16121 1.97292 7.91235 1H9.27466L8.92798 1.35156Z" fill="black"/>
</g>
</g>
</svg>
