<svg width="16" height="16" viewBox="0 0 16 16" fill="none" xmlns="http://www.w3.org/2000/svg">
<g id="interpolate-rotate-none">
<g id=".interpolate-tiling-rotation-all" clip-path="url(#clip0_3684_42516)">
<path id="Union" d="M7.53589 11.2925L3.29272 15.5356L0.4646 12.7065L4.70776 8.46436L7.53589 11.2925ZM15.5359 11.2925L11.2927 15.5356L8.4646 12.7065L12.7078 8.46436L15.5359 11.2925ZM1.87866 12.7065L3.29272 14.1216L6.12183 11.2925L4.70776 9.87842L1.87866 12.7065ZM9.87866 12.7065L11.2927 14.1216L14.1218 11.2925L12.7078 9.87842L9.87866 12.7065ZM15.5359 3.29248L11.2927 7.53564L8.4646 4.70654L12.7078 0.464355L15.5359 3.29248ZM9.87866 4.70654L11.2927 6.12158L14.1218 3.29248L12.7078 1.87842L9.87866 4.70654Z" fill="black"/>
<path id="Union_2" d="M7.53589 3.29248L3.29272 7.53564L0.4646 4.70654L4.70679 0.464355L7.53589 3.29248Z" fill="black"/>
</g>
</g>
<defs>
<clipPath id="clip0_3684_42516">
<rect width="16" height="16" fill="white"/>
</clipPath>
</defs>
</svg>
