<svg width="16" height="16" viewBox="0 0 16 16" fill="none" xmlns="http://www.w3.org/2000/svg">
<g id="interpolate-points">
<g id=".path-operation-interpolate" clip-path="url(#clip0_3684_42797)">
<path id="Union" d="M16 2.5L13.5 5L11.5 3H10.0146C7.57492 3.00004 6.46077 6.04223 8.32324 7.61816C10.8967 9.79586 9.35661 14 5.98535 14H4.5L2.5 16L0 13.5L2.5 11L4.5 13H5.98535C8.42508 13 9.53923 9.95777 7.67676 8.38184C5.10327 6.20414 6.6434 2.00004 10.0146 2H11.5L13.5 0L16 2.5ZM1.41406 13.5L2.5 14.5859L3.58594 13.5L2.5 12.4141L1.41406 13.5ZM12.5 2.41406V2.58594L13.5 3.58594L14.5859 2.5L13.5 1.41406L12.5 2.41406Z" fill="black"/>
<path id="Union_2" opacity="0.4" d="M14.1035 13.3965L14.5 13L16 14.5L14.5 16L13.5 15H9.92969C10.213 14.6915 10.464 14.3559 10.6807 14H13.293L11.4453 12.1523C11.5437 11.7474 11.6033 11.3326 11.6211 10.9141L14.1035 13.3965ZM2.5 1H6.07031C5.78703 1.30855 5.53601 1.64413 5.31934 2H2.70703L4.55371 3.84668C4.45529 4.25154 4.39579 4.66646 4.37793 5.08496L1.89648 2.60352L1.5 3L0 1.5L1.5 0L2.5 1Z" fill="black"/>
</g>
</g>
<defs>
<clipPath id="clip0_3684_42797">
<rect width="16" height="16" fill="white"/>
</clipPath>
</defs>
</svg>
