<svg width="16" height="16" viewBox="0 0 16 16" fill="none" xmlns="http://www.w3.org/2000/svg">
<g id="knot">
<g id=".knot">
<path id="shape" d="M10.9309 4.39893L13.4602 8.30615C14.7374 10.2804 14.1909 12.9148 12.2346 14.2192C11.7343 14.5527 11.1464 14.7309 10.5452 14.731H9.11157V13.6509H10.5452C10.9333 13.6508 11.3131 13.5361 11.636 13.3208C13.1008 12.344 13.5093 10.3713 12.553 8.89307L10.0247 4.98486L9.73071 4.53174L10.6379 3.94482L10.9309 4.39893ZM2.34497 10.5454C2.34507 10.9334 2.45983 11.3134 2.67505 11.6362C3.65175 13.1008 5.62466 13.5093 7.10278 12.5532L11.01 10.0249L11.4631 9.73096L12.05 10.6382L11.5959 10.9312L7.68872 13.4595C5.71447 14.7365 3.07991 14.1913 1.77563 12.2349C1.44224 11.7347 1.26402 11.1465 1.26392 10.5454V9.11182H2.34497V10.5454ZM6.88892 2.34912H5.45532C5.06729 2.34914 4.6874 2.46402 4.3645 2.6792C2.8995 3.6559 2.49114 5.62862 3.44751 7.10693L5.97583 11.0151L6.26978 11.4683L5.36255 12.0552L5.06958 11.6011L2.54028 7.69385C1.26305 5.71956 1.80937 3.08515 3.76587 1.78076C4.26615 1.44739 4.85414 1.26907 5.45532 1.26904H6.88892V2.34912ZM8.31079 2.54053C10.2851 1.26318 12.9195 1.80854 14.2239 3.76514C14.5572 4.2654 14.7356 4.85342 14.7356 5.45459V6.88818H13.6545V5.45459C13.6545 5.06657 13.5397 4.68665 13.3245 4.36377C12.3477 2.89904 10.3749 2.49037 8.89673 3.44678L4.9895 5.9751L4.53638 6.26904L3.94946 5.36182L4.40356 5.06885L8.31079 2.54053Z" fill="black"/>
</g>
</g>
</svg>
