<svg width="16" height="16" viewBox="0 0 16 16" fill="none" xmlns="http://www.w3.org/2000/svg">
<g id="lattice2">
<g id=".lattice">
<path id="Union" d="M7.78931 2.20361C9.01157 1.13421 10.6995 0.769162 12.2542 1.23877L14.635 1.9585L14.967 2.05811V15.0005H1.03345V1.71436L1.67407 1.97217L3.89087 2.86475C5.21092 3.39606 6.7183 3.14049 7.78931 2.20361ZM1.96704 14.0669H5.03345V11.48C4.60709 11.4609 4.18116 11.4173 3.75806 11.3472L1.96704 11.0503V14.0669ZM11.9602 10.4673C11.6282 10.4673 11.2966 10.4845 10.967 10.5181V14.0669H14.0334V10.4673H11.9602ZM10.0334 10.6597C9.76256 10.714 9.49364 10.7787 9.22778 10.856L8.50513 11.0659C7.67641 11.3067 6.82393 11.4437 5.96704 11.48V14.0669H10.0334V10.6597ZM1.96704 10.105L3.9104 10.4272C4.283 10.489 4.65802 10.5281 5.03345 10.5464V8.18311C4.46622 8.15292 3.8995 8.02611 3.35864 7.79639L1.96704 7.20459V10.105ZM10.0334 6.14697C9.49795 6.31149 8.99573 6.5864 8.56372 6.96436C7.81801 7.61681 6.91139 8.01435 5.96704 8.14307V10.5464C6.7359 10.5104 7.50063 10.3855 8.24438 10.1694L8.96802 9.95947C9.31905 9.85753 9.67467 9.77399 10.0334 9.7085V6.14697ZM11.8977 6.02588C11.5876 5.97257 11.2752 5.95603 10.967 5.9751V9.58057C11.2968 9.54991 11.6283 9.53371 11.9602 9.53369H14.0334V6.39209L11.8977 6.02588ZM1.96704 6.19092L3.7229 6.93799C4.14631 7.11784 4.58938 7.21848 5.03345 7.24756V4.06104C4.52976 4.03226 4.02639 3.92444 3.54321 3.72998L1.96704 3.09521V6.19092ZM10.0334 2.0708C9.4395 2.20942 8.87849 2.49112 8.40454 2.90576C7.70441 3.51838 6.85414 3.89456 5.96704 4.021V7.20166C6.68828 7.07999 7.37725 6.76288 7.94946 6.26221C8.55471 5.73268 9.27134 5.36642 10.0334 5.1792V2.0708ZM10.967 5.04053C11.3275 5.02241 11.6925 5.04369 12.0549 5.10596L14.0334 5.4458V2.75049L11.9836 2.13232C11.6494 2.03139 11.3072 1.97993 10.967 1.97314V5.04053Z" fill="black"/>
</g>
</g>
</svg>
