<svg width="16" height="16" viewBox="0 0 16 16" fill="none" xmlns="http://www.w3.org/2000/svg">
<g id="layer-top">
<g id=".layer-top" clip-path="url(#clip0_3684_42259)">
<path id="rectangle" opacity="0.3" d="M3 1L11 5L3 9L-5 5L3 1Z" fill="black"/>
<path id="Union" d="M15.707 3.5L15 4.20703L13.5 2.70703V6.5H12.5V2.70703L11 4.20703L10.293 3.5L13 0.792969L15.707 3.5Z" fill="black"/>
<path id="Union_2" d="M11 5L8 6.5L11 8L8 9.5L11 11L3 15L-5 11L-2 9.5L-5 8L-2 6.5L-5 5L3 1L11 5ZM-2.51465 11L3 13.7568L8.51465 11L6.75684 10.1211L3 12L-0.757812 10.1211L-2.51465 11ZM3 9L-0.757812 7.12109L-2.51465 8L3 10.7568L8.51465 8L6.75684 7.12109L3 9ZM-2.76367 5L3 7.88184L8.76367 5L3 2.11816L-2.76367 5Z" fill="black"/>
</g>
</g>
<defs>
<clipPath id="clip0_3684_42259">
<rect width="16" height="16" fill="white"/>
</clipPath>
</defs>
</svg>
