<svg width="16" height="16" viewBox="0 0 16 16" fill="none" xmlns="http://www.w3.org/2000/svg">
<g id="layer-rename">
<g id=".text-select">
<rect id="Rectangle 503" opacity="0.1" x="2" y="3" width="14" height="10" fill="black"/>
<path id="Union" d="M3 3H2V13H3V14H0V13H1V3H0V2H3V3ZM11.3564 7.38379H11.3857C11.4426 7.25121 11.5228 7.12311 11.627 7C11.733 6.87695 11.8675 6.77685 12.0303 6.69922C12.195 6.61967 12.3919 6.5791 12.6211 6.5791C12.9241 6.5791 13.2074 6.65927 13.4707 6.81836C13.7357 6.9774 13.9495 7.22252 14.1123 7.55371C14.2752 7.88515 14.3564 8.30803 14.3564 8.82129C14.3564 9.31549 14.2783 9.72923 14.1211 10.0625C13.9658 10.3958 13.7554 10.6458 13.4902 10.8125C13.227 10.9791 12.9342 11.0625 12.6123 11.0625C12.3928 11.0625 12.2029 11.026 12.042 10.9541C11.8812 10.8822 11.7455 10.7881 11.6357 10.6709C11.5279 10.5536 11.4444 10.4273 11.3857 10.293H11.3428V11H9.96777V5.18164H11.3564V7.38379ZM9.34082 11H7.83008L7.44629 9.77832H5.4375L5.05469 11H3.54297L5.50586 5.18164H7.37793L9.34082 11ZM12.1328 7.66504C11.9626 7.66504 11.8175 7.71112 11.6982 7.80371C11.5789 7.89651 11.4863 8.0298 11.4219 8.20215C11.3595 8.37439 11.3281 8.57996 11.3281 8.81836C11.3281 9.05301 11.3595 9.2575 11.4219 9.43164C11.4863 9.60588 11.5789 9.7413 11.6982 9.83789C11.8194 9.93249 11.9643 9.98047 12.1328 9.98047C12.3031 9.9804 12.4481 9.93252 12.5674 9.83789C12.6866 9.74131 12.7764 9.60576 12.8369 9.43164C12.8994 9.25747 12.9306 9.05308 12.9307 8.81836C12.9307 8.58351 12.8994 8.37938 12.8369 8.20703C12.7763 8.03489 12.6866 7.90127 12.5674 7.80664C12.45 7.71201 12.305 7.6651 12.1328 7.66504ZM5.77148 8.70996H7.11133L6.46387 6.64746H6.41797L5.77148 8.70996Z" fill="black"/>
</g>
</g>
</svg>
