<svg width="16" height="16" viewBox="0 0 16 16" fill="none" xmlns="http://www.w3.org/2000/svg">
<g id="matrix-2d">
<path id="Union" d="M3.05078 0.254883C3.16453 0.278326 3.25 0.379309 3.25 0.5C3.25 0.620691 3.16453 0.721674 3.05078 0.745117L3 0.75H0.75V15.25H3C3.13807 15.25 3.25 15.3619 3.25 15.5C3.25 15.6381 3.13807 15.75 3 15.75H0.25V0.25H3L3.05078 0.254883ZM15.75 15.75H13C12.8619 15.75 12.75 15.6381 12.75 15.5C12.75 15.3619 12.8619 15.25 13 15.25H15.25V0.75H13L12.9492 0.745117C12.8355 0.721674 12.75 0.620691 12.75 0.5C12.75 0.379309 12.8355 0.278326 12.9492 0.254883L13 0.25H15.75V15.75ZM4 11.0508C4.21205 11.0508 4.3934 11.1102 4.54395 11.2285C4.69546 11.3459 4.81108 11.5167 4.89062 11.7402C4.97108 11.9627 5.01172 12.2316 5.01172 12.5459C5.01168 12.862 4.97111 13.1321 4.8916 13.3555C4.81206 13.5778 4.69734 13.7479 4.54688 13.8652C4.39632 13.9817 4.21397 14.04 4 14.04C3.78603 14.04 3.60368 13.9817 3.45312 13.8652C3.30266 13.7479 3.18794 13.5778 3.1084 13.3555C3.02889 13.1321 2.98832 12.862 2.98828 12.5459C2.98828 12.2315 3.02886 11.9628 3.1084 11.7402C3.18886 11.5168 3.30363 11.3459 3.4541 11.2285C3.60562 11.1101 3.78788 11.0508 4 11.0508ZM8 11.0508C8.21206 11.0508 8.3934 11.1102 8.54395 11.2285C8.69546 11.3459 8.81108 11.5167 8.89062 11.7402C8.97108 11.9627 9.01172 12.2316 9.01172 12.5459C9.01168 12.862 8.97111 13.1321 8.8916 13.3555C8.81206 13.5778 8.69734 13.7479 8.54688 13.8652C8.39632 13.9817 8.21397 14.04 8 14.04C7.78603 14.04 7.60368 13.9817 7.45312 13.8652C7.30266 13.7479 7.18794 13.5778 7.1084 13.3555C7.02889 13.1321 6.98832 12.862 6.98828 12.5459C6.98828 12.2315 7.02886 11.9628 7.1084 11.7402C7.18886 11.5168 7.30363 11.3459 7.4541 11.2285C7.60562 11.1101 7.78788 11.0508 8 11.0508ZM12.3945 14H12.042V11.46H12.0244L11.3145 11.9316V11.5742L12.042 11.0908H12.3945V14ZM4 11.3584C3.78977 11.3584 3.62521 11.4616 3.50684 11.6689C3.38848 11.8754 3.3291 12.1681 3.3291 12.5459C3.32913 12.7976 3.35618 13.0115 3.40918 13.1875C3.46221 13.3636 3.53827 13.498 3.6377 13.5898C3.73805 13.6816 3.85896 13.7275 4 13.7275C4.21198 13.7275 4.37673 13.6252 4.49414 13.4209C4.61152 13.2164 4.67085 12.9245 4.6709 12.5459C4.6709 12.2942 4.64373 12.0793 4.58984 11.9023C4.53681 11.7253 4.45975 11.5899 4.35938 11.4971C4.25995 11.4043 4.14013 11.3584 4 11.3584ZM8 11.3584C7.78977 11.3584 7.62521 11.4616 7.50684 11.6689C7.38848 11.8754 7.3291 12.1681 7.3291 12.5459C7.32913 12.7976 7.35618 13.0115 7.40918 13.1875C7.46221 13.3636 7.53827 13.498 7.6377 13.5898C7.73805 13.6816 7.85896 13.7275 8 13.7275C8.21198 13.7275 8.37673 13.6252 8.49414 13.4209C8.61152 13.2164 8.67085 12.9245 8.6709 12.5459C8.6709 12.2942 8.64373 12.0793 8.58984 11.9023C8.53681 11.7253 8.45975 11.5899 8.35938 11.4971C8.25995 11.4043 8.14013 11.3584 8 11.3584ZM4.06836 6.59082C4.27101 6.59082 4.43868 6.62621 4.57031 6.69629C4.70171 6.76538 4.79993 6.85832 4.86426 6.97559C4.9286 7.09197 4.96088 7.22138 4.96094 7.36328C4.96094 7.48816 4.93798 7.59145 4.89355 7.67285C4.85004 7.7542 4.79256 7.81888 4.7207 7.86621C4.64974 7.91352 4.5725 7.94895 4.48926 7.97168V8C4.57819 8.00573 4.66794 8.03699 4.75781 8.09375C4.84764 8.15054 4.92286 8.23198 4.9834 8.33789C5.044 8.44395 5.07422 8.57413 5.07422 8.72754C5.07418 8.87327 5.04086 9.00469 4.97461 9.12109C4.90836 9.23732 4.80382 9.32936 4.66113 9.39746C4.51814 9.46564 4.33171 9.5 4.10254 9.5H3.05176V6.59082H4.06836ZM7.85254 6.59082C8.13462 6.59086 8.37645 6.64918 8.57715 6.76562C8.77774 6.88115 8.93114 7.04791 9.03809 7.26465C9.14501 7.48051 9.19922 7.73902 9.19922 8.04004C9.19919 8.34286 9.14496 8.60362 9.03711 8.82227C8.92917 9.04003 8.77182 9.20777 8.56543 9.3252C8.35899 9.44167 8.10795 9.5 7.8125 9.5H6.91504V6.59082H7.85254ZM12.9229 6.90332H11.5303V7.88672H12.792V8.19922H11.5303V9.5H11.1787V6.59082H12.9229V6.90332ZM3.40332 9.1875H4.10254C4.33265 9.1875 4.49618 9.14273 4.59277 9.05371C4.69012 8.96384 4.73919 8.85519 4.73926 8.72754C4.73926 8.62905 4.71425 8.53743 4.66406 8.4541C4.61388 8.36991 4.54194 8.30308 4.44922 8.25293C4.35652 8.20185 4.24682 8.17584 4.12012 8.17578H3.40332V9.1875ZM7.2666 9.1875H7.79004C8.03045 9.18747 8.22961 9.14062 8.3877 9.04785C8.54565 8.95512 8.66358 8.82351 8.74121 8.65234C8.81883 8.48101 8.85837 8.27667 8.8584 8.04004C8.8584 7.80537 8.81975 7.60302 8.74316 7.43359C8.66648 7.26318 8.55182 7.13192 8.39941 7.04102C8.24695 6.94916 8.05637 6.90332 7.8291 6.90332H7.2666V9.1875ZM3.40332 7.86914H4.05762C4.16341 7.86908 4.2587 7.84818 4.34375 7.80664C4.42991 7.76498 4.49864 7.7066 4.54883 7.63086C4.59996 7.5551 4.625 7.46555 4.625 7.36328C4.62492 7.23562 4.58109 7.12701 4.49219 7.03809C4.40317 6.94812 4.26154 6.90332 4.06836 6.90332H3.40332V7.86914ZM8.06738 2.05078C8.21416 2.05078 8.35266 2.07262 8.48145 2.11523C8.611 2.15784 8.72799 2.22044 8.83203 2.30273C8.936 2.38405 9.02278 2.48341 9.09277 2.60059C9.16285 2.71706 9.21177 2.85038 9.23828 3H8.88574C8.86493 2.8988 8.82835 2.81004 8.77637 2.7334C8.72525 2.65672 8.6627 2.59211 8.58887 2.54004C8.51595 2.48701 8.43472 2.44741 8.3457 2.4209C8.25675 2.39442 8.1639 2.38086 8.06738 2.38086C7.89135 2.3809 7.73179 2.42568 7.58887 2.51465C7.447 2.60363 7.33324 2.73413 7.24902 2.90723C7.16569 3.08052 7.12402 3.294 7.12402 3.5459C7.12407 3.7976 7.16574 4.0104 7.24902 4.18359C7.3333 4.35683 7.44685 4.48815 7.58887 4.57715C7.73175 4.66606 7.89141 4.70992 8.06738 4.70996C8.16381 4.70996 8.25682 4.69732 8.3457 4.6709C8.43466 4.6444 8.51599 4.60477 8.58887 4.55273C8.66262 4.49978 8.72527 4.43495 8.77637 4.3584C8.82845 4.28075 8.86491 4.1912 8.88574 4.09082H9.23828C9.21177 4.23949 9.16285 4.37281 9.09277 4.49023C9.02273 4.60752 8.9361 4.70773 8.83203 4.79004C8.728 4.87137 8.61098 4.93298 8.48145 4.97559C8.35266 5.0182 8.21416 5.04004 8.06738 5.04004C7.81939 5.04 7.59839 4.97957 7.40527 4.8584C7.21218 4.73721 7.06096 4.56421 6.9502 4.34082C6.83945 4.11744 6.78326 3.85253 6.7832 3.5459C6.7832 3.23908 6.8394 2.97348 6.9502 2.75C7.06088 2.5268 7.21239 2.35456 7.40527 2.2334C7.59839 2.11223 7.81939 2.05082 8.06738 2.05078ZM5.25098 5H4.88184L4.58887 4.17578H3.41309L3.12012 5H2.75098L3.81934 2.09082H4.18262L5.25098 5ZM12.9131 2.40332H11.5088V3.38672H12.8213V3.69922H11.5088V4.6875H12.9355V5H11.1572V2.09082H12.9131V2.40332ZM3.52344 3.86328H4.47754L4.01172 2.55078H3.98926L3.52344 3.86328Z" fill="black"/>
</g>
</svg>
