<svg width="16" height="16" viewBox="0 0 16 16" fill="none" xmlns="http://www.w3.org/2000/svg">
<g id="measure-segments">
<g id=".measure-segments">
<path id="Union" opacity="0.3" d="M1 14H0V9H1V14ZM16 14H15V9H16V14Z" fill="black"/>
<path id="Union_2" d="M15.707 11.5L12.8535 14.3535L12.1465 13.6465L13.793 12L2.20703 12L3.85352 13.6465L3.14648 14.3535L0.292969 11.5L3.14648 8.64648L3.85352 9.35352L2.20703 11L13.793 11L12.1465 9.35352L12.8535 8.64648L15.707 11.5Z" fill="black"/>
<path id="Union_3" d="M4.78613 2.57715C5.16679 2.57715 5.49495 2.66471 5.77051 2.84082C6.04746 3.01551 6.26101 3.27031 6.41016 3.60547C6.55927 3.94061 6.63224 4.3471 6.63086 4.82422C6.63086 5.30422 6.55631 5.7148 6.40723 6.05566C6.25809 6.39655 6.04605 6.65749 5.77051 6.83789C5.49636 7.01687 5.16824 7.10645 4.78613 7.10645C4.40546 7.10644 4.07732 7.01633 3.80176 6.83594C3.5262 6.65412 3.31418 6.39319 3.16504 6.05371C3.01592 5.71282 2.94194 5.30286 2.94336 4.82422C2.94482 4.34568 3.0193 3.93919 3.16699 3.60547C3.31613 3.27041 3.52771 3.01548 3.80176 2.84082C4.07731 2.6647 4.40547 2.57715 4.78613 2.57715ZM8.12207 5.95996C8.26694 5.95996 8.39507 6.01415 8.50586 6.12207C8.61808 6.2286 8.67534 6.35724 8.67676 6.50781C8.67534 6.61007 8.64825 6.70331 8.5957 6.78711C8.54457 6.87092 8.47639 6.93759 8.39258 6.9873C8.31027 7.0369 8.21996 7.06152 8.12207 7.06152C7.96878 7.06146 7.83783 7.0073 7.72852 6.89941C7.62059 6.79147 7.56694 6.6612 7.56836 6.50781C7.56694 6.35724 7.62056 6.2286 7.72852 6.12207C7.83778 6.01433 7.96888 5.96003 8.12207 5.95996ZM11.3809 2.57715C11.7118 2.57716 11.9998 2.63238 12.2441 2.74316C12.4881 2.85391 12.6771 3.00839 12.8105 3.20703C12.9455 3.40445 13.0127 3.63418 13.0127 3.89551C13.0127 4.06158 12.9797 4.22641 12.9131 4.38965C12.8464 4.55292 12.7259 4.73334 12.5527 4.93066C12.3809 5.12811 12.1361 5.36506 11.8193 5.64062L11.2979 6.12207V6.14941H13.0664V7H9.83594V6.24121L11.4277 4.84766C11.547 4.73978 11.6487 4.64119 11.7324 4.55176C11.8161 4.46096 11.8798 4.37009 11.9238 4.2793C11.9679 4.18697 11.9902 4.08647 11.9902 3.97852C11.9902 3.85788 11.9636 3.7551 11.9111 3.66992C11.8587 3.5834 11.7865 3.51659 11.6943 3.46973C11.6021 3.42291 11.4961 3.39947 11.377 3.39941C11.2562 3.39941 11.1495 3.42392 11.0586 3.47363C10.9678 3.52192 10.8968 3.59234 10.8457 3.68457C10.796 3.77689 10.7715 3.8894 10.7715 4.02148H9.77246C9.77246 3.72461 9.83913 3.46786 9.97266 3.25195C10.1062 3.03617 10.2938 2.87034 10.5352 2.75391C10.778 2.63604 11.0599 2.57715 11.3809 2.57715ZM4.78613 3.43359C4.5603 3.4336 4.37748 3.54768 4.23828 3.77637C4.09919 4.00359 4.0288 4.35294 4.02734 4.82422C4.02592 5.14372 4.05668 5.40894 4.11914 5.61914C4.18303 5.82925 4.27273 5.98615 4.3877 6.08984C4.50274 6.19211 4.63558 6.24316 4.78613 6.24316C5.01335 6.24316 5.19728 6.1279 5.33789 5.89648C5.47852 5.66353 5.5483 5.30575 5.54688 4.82422C5.54685 4.50916 5.51502 4.24936 5.45117 4.04492C5.38729 3.83908 5.29811 3.68582 5.18457 3.58496C5.07093 3.48411 4.93812 3.43359 4.78613 3.43359Z" fill="black"/>
</g>
</g>
</svg>
