<svg width="16" height="16" viewBox="0 0 16 16" fill="none" xmlns="http://www.w3.org/2000/svg">
<g id="node-type-symmetric">
<g id=".node-type-symmetric">
<path id="Subtract" fill-rule="evenodd" clip-rule="evenodd" d="M2.83165 7.7749C1.13933 9.5019 8.64754e-06 12.1495 0 15.5001V16.0001H1V15.5001C1.00001 12.4464 1.99757 10.1117 3.44015 8.58624L2.83165 7.7749ZM12.5598 8.58624C14.0024 10.1117 15 12.4464 15 15.5001V16.0001H16V15.5001C16 12.1495 14.8607 9.5019 13.1683 7.7749L12.5598 8.58624Z" fill="black"/>
<path id="neutral" d="M10.5 5.5H14.1348C14.3077 5.20133 14.63 5 15 5C15.5523 5 16 5.44772 16 6C16 6.55228 15.5523 7 15 7C14.63 7 14.3077 6.79867 14.1348 6.5H10.5V8.5H5.5V6.5H1.86523C1.69227 6.79867 1.36997 7 1 7C0.447715 7 0 6.55228 0 6C0 5.44772 0.447715 5 1 5C1.36997 5 1.69227 5.20133 1.86523 5.5H5.5V3.5H10.5V5.5ZM6.5 7.5H9.5V4.5H6.5V7.5Z" fill="black"/>
</g>
</g>
</svg>
