<svg width="16" height="16" viewBox="0 0 16 16" fill="none" xmlns="http://www.w3.org/2000/svg">
<g id="node-break">
<g id=".node-operation-break" clip-path="url(#clip0_3684_42484)">
<path id="Union" d="M6 3L1.74846e-07 3L2.62268e-07 2L6 2L8 -6.99382e-07L10 2L16 2L16 3L10 3L8 5L6 3ZM9.08594 2.5L8 1.41406L6.91406 2.5L8 3.58594L9.08594 2.5Z" fill="black"/>
<path id="neutral" d="M9.5 12.5L12 10L14 12L16 12L16 13L14 13L12 15L9.5 12.5ZM2 13L1.74846e-07 13L2.62268e-07 12L2 12L4 10L6.5 12.5L4 15L2 13Z" fill="black"/>
<path id="Subtract" opacity="0.6" d="M8 9L6 7H7L8 8L9 7H10L8 9Z" fill="black"/>
</g>
</g>
<defs>
<clipPath id="clip0_3684_42484">
<rect width="16" height="16" fill="white"/>
</clipPath>
</defs>
</svg>
