<svg width="16" height="16" viewBox="0 0 16 16" fill="none" xmlns="http://www.w3.org/2000/svg">
<g id="node-type-cusp">
<g id=".node-type-cusp">
<path id="Subtract" d="M5.57031 8.07007C2.97323 9.51888 1.00016 12.2968 1 15.4998V15.9998H0V15.4998C0.000153877 12.0065 2.06527 8.98762 4.83691 7.33765L5.57031 8.07007ZM9.94238 8.5564C9.98864 10.8447 10.4604 12.3516 11.208 13.3191C12.1363 14.5205 13.5762 14.9998 15.5 14.9998H16V15.9998H15.5C13.4238 15.9998 11.6137 15.479 10.417 13.9304C9.61574 12.8934 9.13398 11.4473 8.9873 9.51147L9.94238 8.5564Z" fill="black"/>
<path id="neutral" d="M11 6L8 9L5 6L8 3L11 6ZM6.41406 6L8 7.58594L9.58594 6L8 4.41406L6.41406 6Z" fill="black"/>
</g>
</g>
</svg>
