<svg width="16" height="16" viewBox="0 0 16 16" fill="none" xmlns="http://www.w3.org/2000/svg">
<g id="node-type-auto-smooth">
<g id=".node-type-auto-smooth">
<path id="Subtract" d="M4.5293 6.45386C4.57488 6.80605 4.6732 7.14159 4.81543 7.45288C2.67142 8.8006 1.00011 11.5478 1 15.4998V15.9998H0V15.4998C0.000115828 11.1216 1.9467 7.9458 4.5293 6.45386ZM11.4697 6.45386C14.0527 7.94562 15.9999 11.1212 16 15.4998V15.9998H15V15.4998C14.9999 11.5474 13.3279 8.80044 11.1836 7.45288C11.3259 7.14152 11.4241 6.80614 11.4697 6.45386Z" fill="black"/>
<path id="neutral" d="M8 3.5C9.38071 3.5 10.5 4.61929 10.5 6C10.5 7.38071 9.38071 8.5 8 8.5C6.61929 8.5 5.5 7.38071 5.5 6C5.5 4.61929 6.61929 3.5 8 3.5ZM8 4.5C7.17157 4.5 6.5 5.17157 6.5 6C6.5 6.82843 7.17157 7.5 8 7.5C8.82843 7.5 9.5 6.82843 9.5 6C9.5 5.17157 8.82843 4.5 8 4.5Z" fill="black"/>
</g>
</g>
</svg>
