<svg width="16" height="16" viewBox="0 0 16 16" fill="none" xmlns="http://www.w3.org/2000/svg">
<g id="object-transparent">
<g id=".blend-transparent">
<path id="Union" d="M9.07324 13.3955H9.07422L9.15625 13.8115L9.16992 13.8848C8.79145 13.9596 8.40042 14 8 14C7.59924 14 7.20786 13.9597 6.8291 13.8848L7.02344 12.9053C7.33846 12.9676 7.66494 13 8 13C8.33506 13 8.66154 12.9676 8.97656 12.9053L9.07324 13.3955ZM3.8418 10.7773C4.2071 11.323 4.67703 11.7929 5.22266 12.1582L4.94336 12.5732L4.94434 12.5742L4.69238 12.9502L4.66602 12.9883C4.01187 12.5502 3.44867 11.9873 3.01074 11.333L3.8418 10.7773ZM12.5732 11.0557H12.5742L12.6572 11.1113L12.9883 11.333C12.5502 11.9873 11.9873 12.5502 11.333 12.9883L11.3076 12.9502L11.0557 12.5742V12.5732L10.7773 12.1582C11.323 11.7929 11.7929 11.323 12.1582 10.7773L12.5732 11.0557ZM2.60449 6.92578H2.60352L3.09473 7.02344C3.03243 7.33846 3 7.66494 3 8C3 8.33506 3.03243 8.66154 3.09473 8.97656L2.60352 9.07324L2.60449 9.07422L2.11426 9.16992C2.03946 8.79151 2 8.40036 2 8C2 7.59931 2.03934 7.2078 2.11426 6.8291L2.60449 6.92578ZM13.8848 6.8291C13.9597 7.20786 14 7.59924 14 8C14 8.40042 13.9596 8.79145 13.8848 9.16992L13.3955 9.07422V9.07324L12.9053 8.97656C12.9676 8.66154 13 8.33506 13 8C13 7.66494 12.9676 7.33846 12.9053 7.02344L13.3955 6.92578L13.8848 6.8291ZM4.92871 3.40332L5.22266 3.8418C4.67703 4.2071 4.2071 4.67703 3.8418 5.22266L3.01074 4.66602C3.44871 4.01191 4.01191 3.44871 4.66602 3.01074L4.92871 3.40332ZM11.333 3.01074C11.9873 3.44867 12.5502 4.01187 12.9883 4.66602L12.1582 5.22266C11.7929 4.67703 11.323 4.2071 10.7773 3.8418L11.0713 3.40332L11.333 3.01074ZM8 2C8.40036 2 8.79151 2.03946 9.16992 2.11426L9.07617 2.59473L8.97656 3.09473C8.66154 3.03243 8.33506 3 8 3C7.66494 3 7.33846 3.03243 7.02344 3.09473L6.92383 2.59473L6.8291 2.11426C7.2078 2.03934 7.59931 2 8 2Z" fill="black"/>
</g>
</g>
</svg>
