<svg width="16" height="16" viewBox="0 0 16 16" fill="none" xmlns="http://www.w3.org/2000/svg">
<g id="object-select">
<g id=".select">
<path id="Union" d="M9 14.8286L9.00006 6.14627L15.2461 12.1778L11.9994 11.8007L13.3844 15.0636L12.3696 15.4943L10.9843 12.2309L9 14.8286Z" fill="black"/>
<path id="Union_2" opacity="0.5" d="M2 14H3V15H1V13H2V14ZM6 15H4V14H6V15ZM2 12H1V10H2V12ZM2 9H1V7H2V9ZM15 9H14V7H15V9ZM2 6H1V4H2V6ZM15 6H14V4H15V6ZM3 2H2V3H1V1H3V2ZM15 3H14V2H13V1H15V3ZM6 2H4V1H6V2ZM9 2H7V1H9V2ZM12 2H10V1H12V2Z" fill="black"/>
</g>
</g>
</svg>
