<?xml version="1.0" encoding="utf-8" ?>
<svg xmlns="http://www.w3.org/2000/svg" xmlns:xlink="http://www.w3.org/1999/xlink" width="20" height="19">
	<path fill="#F0EEEF" d="M5.41905 0L5.91155 0C7.79969 2.365 10.1342 4.60595 12.3594 6.65767C13.2768 7.5035 14.5365 8.33988 15.2907 9.31097C15.7127 9.85431 15.739 10.1742 15.8012 10.8346C15.0885 13.1821 10.2661 17.0452 8.42307 19L7.96579 19C6.1495 17.2104 1.01996 12.81 0.253331 10.6542C1.64427 8.49987 4.5913 6.11743 6.56917 4.4528C5.85795 3.62594 4.85368 2.67542 4.56496 1.60951C4.63519 0.798698 4.90881 0.601739 5.41905 0ZM2.77152 10.8182L7.9375 10.7884L13.3535 10.7969C12.3678 9.85619 9.04682 5.99969 7.90122 5.93096C6.25767 7.59193 4.63491 9.40634 2.77152 10.8182Z"/>
	<path fill="#F0EEEF" d="M17.4311 12.4649C18.2315 13.0965 19.195 13.8701 19.7026 14.7638C20.0366 15.7622 20.1761 16.6759 19.6842 17.6646L19.6746 17.6837C18.8659 18.1536 17.971 18.6917 17.0097 18.4795C16.5646 18.1917 16.2349 17.8915 16.1027 17.3608C15.6067 15.3701 16.4532 14.0796 17.4311 12.4649Z"/>
</svg>
