<svg width="16" height="16" viewBox="0 0 16 16" fill="none" xmlns="http://www.w3.org/2000/svg">
<g id="object-hidden">
<g id=".eye-closed">
<path id="Union" d="M15.3821 7.64258C15.4054 7.68827 15.4235 7.72519 15.4358 7.75098C15.4419 7.76368 15.447 7.77385 15.4504 7.78125C15.4521 7.78476 15.4533 7.78778 15.4543 7.79004C15.4548 7.79099 15.455 7.79227 15.4553 7.79297L15.4563 7.79492C15.4601 7.80342 15.4618 7.8127 15.4651 7.82129C15.4713 7.83739 15.4772 7.85345 15.4817 7.87012C15.4857 7.88506 15.4889 7.89999 15.4915 7.91504C15.494 7.92993 15.4961 7.94483 15.4973 7.95996C15.4986 7.97566 15.4985 7.99122 15.4983 8.00684C15.498 8.02578 15.4959 8.04447 15.4934 8.06348C15.4922 8.0726 15.4922 8.08179 15.4905 8.09082C15.4894 8.09659 15.4898 8.10265 15.4885 8.1084L15.4739 8.15039C15.4699 8.16292 15.4661 8.17533 15.4612 8.1875L15.4563 8.20508V8.20605L15.4553 8.20703C15.4549 8.20805 15.4541 8.20945 15.4534 8.21094C15.4519 8.2142 15.45 8.21924 15.4475 8.22461C15.4425 8.23532 15.435 8.24997 15.426 8.26855C15.4077 8.30626 15.3811 8.36008 15.3459 8.42676C15.2756 8.56011 15.1708 8.74755 15.0295 8.9707C14.7474 9.41629 14.3164 10.0093 13.7209 10.6035C12.5272 11.7947 10.6571 12.9999 8.00024 13C5.34336 13 3.4733 11.7947 2.27954 10.6035C1.68408 10.0093 1.25313 9.41631 0.970947 8.9707C0.829645 8.74756 0.724934 8.56012 0.654541 8.42676C0.619349 8.36008 0.592782 8.30627 0.574463 8.26855C0.565444 8.24998 0.557985 8.23533 0.552979 8.22461C0.550478 8.21925 0.548614 8.21422 0.547119 8.21094C0.54644 8.20945 0.545639 8.20806 0.545166 8.20703L0.544189 8.20605V8.20508C0.542338 8.20095 0.541037 8.19653 0.539307 8.19238C0.531882 8.17458 0.526089 8.15625 0.520752 8.1377C0.516897 8.1243 0.512702 8.11115 0.51001 8.09766C0.506538 8.08031 0.505774 8.06262 0.50415 8.04492C0.503146 8.03378 0.500495 8.02283 0.500244 8.01172V7.98828C0.500502 7.97684 0.503094 7.96557 0.50415 7.9541C0.505808 7.93642 0.506506 7.9187 0.51001 7.90137C0.510727 7.89781 0.511165 7.89418 0.511963 7.89062L0.532471 7.82227C0.535156 7.81519 0.539234 7.8087 0.542236 7.80176C0.543157 7.79963 0.543236 7.79705 0.544189 7.79492L0.545166 7.79297C0.545474 7.79224 0.54572 7.79097 0.546143 7.79004C0.547172 7.78778 0.548424 7.78476 0.550049 7.78125C0.553485 7.77384 0.558624 7.76368 0.564697 7.75098C0.577039 7.72518 0.595052 7.68826 0.618408 7.64258C0.66513 7.5512 0.734864 7.42254 0.827393 7.26562L1.68872 7.77344C1.63737 7.86052 1.59598 7.93765 1.56177 8.00098C1.62088 8.11098 1.70461 8.26014 1.81567 8.43555C2.06777 8.83364 2.45376 9.3658 2.9856 9.89648C4.04671 10.9552 5.67684 12 8.00024 12C10.3236 11.9999 11.9538 10.9552 13.0149 9.89648C13.5467 9.36579 13.9327 8.83363 14.1848 8.43555C14.2958 8.26031 14.3786 8.11094 14.4377 8.00098C14.4036 7.93772 14.363 7.86037 14.3118 7.77344L15.1731 7.26562C15.2656 7.42255 15.3354 7.55122 15.3821 7.64258ZM2.95142 6.13867C2.68856 6.40413 2.46155 6.66985 2.26978 6.91797L1.87427 6.61133L1.47876 6.30566C1.69248 6.02917 1.94591 5.73306 2.24048 5.43555L2.95142 6.13867ZM13.76 5.43555C14.0546 5.73306 14.308 6.02917 14.5217 6.30566L14.1262 6.61133L13.7307 6.91797C13.5389 6.66985 13.3119 6.40413 13.0491 6.13867L13.76 5.43555ZM4.57349 4.88672C4.2658 5.06136 3.98203 5.25377 3.72192 5.45508L3.41528 5.06055L3.10962 4.66504C3.40444 4.43682 3.72724 4.21745 4.07935 4.01758L4.57349 4.88672ZM11.9211 4.01758C12.2732 4.21746 12.5961 4.43681 12.8909 4.66504L12.5852 5.06055L12.2786 5.45508C12.0185 5.25376 11.7347 5.06136 11.427 4.88672L11.9211 4.01758ZM6.36646 3.67188L6.4729 4.16016C6.12745 4.23513 5.80145 4.33397 5.49536 4.45117L5.13794 3.51758C5.48999 3.38278 5.86459 3.26864 6.26099 3.18262L6.36646 3.67188ZM9.7395 3.18262C10.1359 3.26865 10.5105 3.38277 10.8625 3.51758L10.5051 4.45117C10.199 4.33397 9.87303 4.23513 9.52759 4.16016L9.63403 3.67188L9.7395 3.18262ZM8.00024 3C8.19863 3 8.39309 3.00653 8.58325 3.01953L8.51489 4.01758C8.34758 4.00614 8.17594 4 8.00024 4C7.82455 4 7.65291 4.00614 7.4856 4.01758L7.41724 3.01953C7.6074 3.00653 7.80186 3 8.00024 3Z" fill="black"/>
</g>
</g>
</svg>
