<svg width="16" height="16" viewBox="0 0 16 16" fill="none" xmlns="http://www.w3.org/2000/svg">
<g id="object-ungroup-pop-selection">
<g id=".group-false-pop-selection" clip-path="url(#clip0_3684_42597)">
<path id="Union" d="M16 16H11V11H16V16ZM2 13H0V11H2V13ZM6 12H3V11H6V12ZM9 12H7V11H9V12ZM2 10H1V7H2V10ZM9 9H4V4H9V9ZM12 9H11V7H12V9ZM5 8H8V5H5V8ZM2 6H1V3H2V6ZM12 6H11V3H12V6ZM2 2H0V0H2V2ZM6 2H3V1H6V2ZM10 2H7V1H10V2ZM13 2H11V0H13V2Z" fill="black"/>
</g>
</g>
<defs>
<clipPath id="clip0_3684_42597">
<rect width="16" height="16" fill="white"/>
</clipPath>
</defs>
</svg>
