<svg width="16" height="16" viewBox="0 0 16 16" fill="none" xmlns="http://www.w3.org/2000/svg">
<g id="object-tweak-randomize">
<g id=".arrows-random">
<path id="Union" d="M2.07227 3C3.12606 3.00005 4.12351 3.47516 4.78809 4.29297L9.4873 10.0762C9.96199 10.6604 10.675 10.9999 11.4277 11H13.293L11.6465 9.35352L12.3535 8.64648L15.207 11.5L12.3535 14.3535L11.6465 13.6465L13.293 12H11.4277C10.3739 11.9999 9.37649 11.5249 8.71191 10.707L4.0127 4.92383C3.53801 4.33963 2.825 4.00005 2.07227 4H1V3H2.07227ZM5.86719 10.3779L4.78809 11.707C4.12351 12.5249 3.12608 12.9999 2.07227 13H1V12H2.07227C2.82502 11.9999 3.53801 11.6604 4.0127 11.0762L5.22363 9.58496L5.86719 10.3779ZM15.207 4.5L12.3535 7.35352L11.6465 6.64648L13.293 5H11.4277C10.675 5.00005 9.96199 5.33964 9.4873 5.92383L9.08887 6.41406L8.44434 5.62109L8.71191 5.29297C9.37649 4.47518 10.374 4.00005 11.4277 4H13.293L11.6465 2.35352L12.3535 1.64648L15.207 4.5Z" fill="black"/>
</g>
</g>
</svg>
