<svg width="16" height="16" viewBox="0 0 16 16" fill="none" xmlns="http://www.w3.org/2000/svg">
<g id="object-to-path">
<path id="Vector 678" opacity="0.3" d="M2.5 11.5V4.5L4.5 2.5H11.5L13.5 4.5V11.5L11.5 13.5H4.5L2.5 11.5Z" fill="black"/>
<g id=".bounding-box-node" clip-path="url(#clip0_3684_42615)">
<path id="Subtract" d="M16 2.5L14 4.5V11.5L16 13.5L13.5 16L11.5 14H4.5L2.5 16L0 13.5L2 11.5V4.5L0 2.5L2.5 0L4.5 2H11.5L13.5 0L16 2.5ZM1.41406 13.5L2.5 14.5859L3.58594 13.5L2.5 12.4141L1.41406 13.5ZM12.4141 13.5L13.5 14.5859L14.5859 13.5L13.5 12.4141L12.4141 13.5ZM3 4.5V11.5L4.5 13H11.5L13 11.5V4.5L11.5 3H4.5L3 4.5ZM1.41406 2.5L2.5 3.58594L3.58594 2.5L2.5 1.41406L1.41406 2.5ZM12.4141 2.5L13.5 3.58594L14.5859 2.5L13.5 1.41406L12.4141 2.5Z" fill="black"/>
</g>
</g>
<defs>
<clipPath id="clip0_3684_42615">
<rect width="16" height="16" fill="white"/>
</clipPath>
</defs>
</svg>
