<svg width="16" height="16" viewBox="0 0 16 16" fill="none" xmlns="http://www.w3.org/2000/svg">
<g id="object-visible">
<g id=".eye-open">
<path id="Union" d="M7.99976 3C10.6566 3 12.5267 4.20536 13.7205 5.39648C14.3159 5.99065 14.7469 6.5837 15.0291 7.0293C15.1703 7.25241 15.2751 7.43989 15.3455 7.57324C15.3806 7.63989 15.4072 7.69373 15.4255 7.73145C15.4345 7.74999 15.442 7.76468 15.447 7.77539C15.4495 7.78072 15.4514 7.78578 15.4529 7.78906C15.4535 7.79052 15.4544 7.79195 15.4548 7.79297L15.4558 7.79395V7.79492L15.4578 7.80176C15.4688 7.82736 15.4774 7.85374 15.4841 7.88086L15.488 7.8916C15.4892 7.89671 15.489 7.90211 15.49 7.90723C15.4933 7.92469 15.4964 7.94215 15.4978 7.95996C15.4989 7.97335 15.4988 7.98666 15.4988 8C15.4988 8.01304 15.4979 8.02597 15.4968 8.03906C15.4954 8.05685 15.4933 8.07435 15.49 8.0918C15.489 8.09723 15.4892 8.10298 15.488 8.1084L15.4841 8.11816C15.4783 8.14189 15.4708 8.1649 15.4617 8.1875L15.4558 8.20508V8.20605L15.4548 8.20703C15.4544 8.20805 15.4535 8.20948 15.4529 8.21094C15.4514 8.21422 15.4495 8.21928 15.447 8.22461C15.442 8.23532 15.4345 8.25001 15.4255 8.26855C15.4072 8.30627 15.3806 8.36011 15.3455 8.42676C15.2751 8.56011 15.1703 8.74759 15.0291 8.9707C14.7469 9.4163 14.3159 10.0093 13.7205 10.6035C12.5267 11.7946 10.6566 13 7.99976 13C5.34297 12.9999 3.47276 11.7946 2.27905 10.6035C1.68364 10.0093 1.25261 9.41628 0.970459 8.9707C0.829176 8.74758 0.724431 8.56009 0.654053 8.42676C0.618872 8.3601 0.592283 8.30625 0.573975 8.26855C0.564963 8.25 0.557485 8.23531 0.55249 8.22461C0.55 8.21926 0.548121 8.21419 0.546631 8.21094C0.54595 8.20947 0.545135 8.20804 0.544678 8.20703L0.543701 8.20605V8.20508C0.541294 8.19971 0.540045 8.19388 0.537842 8.18848C0.531768 8.17356 0.527813 8.15801 0.523193 8.14258C0.518587 8.1272 0.513565 8.11219 0.510498 8.09668C0.506794 8.07801 0.505222 8.05911 0.503662 8.04004C0.502587 8.02662 0.500719 8.01337 0.500732 8C0.500716 7.98305 0.502901 7.96624 0.504639 7.94922C0.50627 7.93348 0.507402 7.9178 0.510498 7.90234C0.513594 7.88684 0.51856 7.87181 0.523193 7.85645C0.527838 7.84103 0.531746 7.82544 0.537842 7.81055C0.539941 7.80542 0.541419 7.80001 0.543701 7.79492V7.79395L0.544678 7.79297C0.545135 7.79196 0.54595 7.79053 0.546631 7.78906C0.548121 7.78581 0.55 7.78074 0.55249 7.77539C0.557485 7.76469 0.564963 7.75 0.573975 7.73145C0.592283 7.69375 0.618872 7.6399 0.654053 7.57324C0.724431 7.43991 0.829176 7.25242 0.970459 7.0293C1.25261 6.58372 1.68364 5.99066 2.27905 5.39648C3.47276 4.20536 5.34297 3.0001 7.99976 3ZM7.99976 4C5.67645 4.0001 4.04617 5.04479 2.98511 6.10352C2.45332 6.63419 2.06725 7.16639 1.81519 7.56445C1.7037 7.74053 1.61944 7.8899 1.5603 8C1.61944 8.1101 1.7037 8.25947 1.81519 8.43555C2.06725 8.83361 2.45332 9.36581 2.98511 9.89648C4.04617 10.9552 5.67645 11.9999 7.99976 12C10.3231 12 11.9533 10.9552 13.0144 9.89648C13.5462 9.36583 13.9322 8.83364 14.1843 8.43555C14.2956 8.25977 14.3791 8.11007 14.4382 8C14.3791 7.88993 14.2956 7.74023 14.1843 7.56445C13.9322 7.16636 13.5462 6.63417 13.0144 6.10352C11.9533 5.0448 10.3231 4 7.99976 4ZM7.99976 6C9.10433 6 9.99976 6.89543 9.99976 8C9.99976 9.10457 9.10433 10 7.99976 10C6.89534 9.99982 5.99976 9.10446 5.99976 8C5.99976 6.89554 6.89534 6.00018 7.99976 6Z" fill="black"/>
</g>
</g>
</svg>
