<svg width="16" height="16" viewBox="0 0 16 16" fill="none" xmlns="http://www.w3.org/2000/svg">
<g id="object-tweak-paint">
<g id=".brush-roller">
<path id="Rectangle 1042" opacity="0.3" d="M6 10L7.5 9L9 10V16H6V10Z" fill="black"/>
<path id="Union" d="M13 2H13.5C14.3284 2 15 2.67157 15 3.5V5.63281C14.9999 6.37924 14.4509 7.01163 13.7119 7.11719L8.42969 7.87207C8.1834 7.90725 8.00005 8.11841 8 8.36719V9L9 10V16H6V10L7 9V8.36719C7.00005 7.62076 7.54915 6.98838 8.28809 6.88281L13.5703 6.12793C13.8166 6.09275 13.9999 5.88159 14 5.63281V3.5C14 3.22386 13.7761 3 13.5 3H13V5H0V0H13V2ZM7 10.4141V15H8V10.4141L7.58594 10H7.41406L7 10.4141ZM1 4H12V1H1V4Z" fill="black"/>
</g>
</g>
</svg>
