<svg width="16" height="16" viewBox="0 0 16 16" fill="none" xmlns="http://www.w3.org/2000/svg">
<g id="object-blend-mode">
<g id=".blend-on">
<path id="Union" d="M8 2C11.3137 2 14 4.68629 14 8C14 11.3137 11.3137 14 8 14C4.68629 14 2 11.3137 2 8C2 4.68629 4.68629 2 8 2ZM6.05371 12.6074V12.6064V12.6074ZM8 3C5.23858 3 3 5.23858 3 8C3 9.46717 3.63214 10.7865 4.63867 11.7012C4.57936 11.6473 4.5215 11.5918 4.46484 11.5352L11.5352 4.46484C11.5918 4.5215 11.6473 4.57936 11.7012 4.63867C11.9162 4.87525 12.1085 5.13261 12.2754 5.40723H12.2764C11.3994 3.96396 9.8122 3 8 3Z" fill="black"/>
</g>
</g>
</svg>
