<svg width="16" height="16" viewBox="0 0 16 16" fill="none" xmlns="http://www.w3.org/2000/svg">
<g id="object-level">
<g id=".transform-level" clip-path="url(#clip0_3684_42677)">
<path id="Union" d="M16 16H0V15H16V16ZM9.80664 6.01074L13.7236 6.14648L14.0137 7.04004L10.9248 9.44922L12.0068 13.2158L11.2471 13.7686L8 11.5752L4.75293 13.7686L3.99316 13.2158L5.07422 9.44922L1.98633 7.04004L2.27637 6.14648L6.19238 6.01074L7.53027 2.3291H8.46973L9.80664 6.01074ZM7.0166 6.6709L6.90137 6.98828L6.56445 7L3.68555 7.09766L5.95703 8.87012L6.22266 9.07715L6.12988 9.40234L5.33398 12.168L7.71973 10.5576L8 10.3682L8.28027 10.5576L10.665 12.168L9.87012 9.40234L9.77734 9.07715L10.043 8.87012L12.3135 7.09766L9.43555 7L9.09863 6.98828L8.9834 6.6709L8 3.96387L7.0166 6.6709ZM16 1H0V0H16V1Z" fill="black"/>
</g>
</g>
<defs>
<clipPath id="clip0_3684_42677">
<rect width="16" height="16" fill="white"/>
</clipPath>
</defs>
</svg>
