<svg width="16" height="16" viewBox="0 0 16 16" fill="none" xmlns="http://www.w3.org/2000/svg">
<g id="object-tweak-push">
<g id=".hand-smear">
<path id="Union" fill-rule="evenodd" clip-rule="evenodd" d="M10.2806 0.744141L9.92611 1.09766L8.77474 2.24902C8.41832 2.60545 7.95063 2.83007 7.44955 2.88477L5.88021 3.05566C5.60561 3.08559 5.34905 3.20808 5.15365 3.40332L2.58139 5.97559C2.48082 6.0762 2.33264 6.2741 2.2474 6.50293C2.16405 6.72695 2.15735 6.93221 2.2474 7.1123C2.26608 7.14971 2.2826 7.19217 2.30111 7.2373L4.8558 4.42871C5.04149 4.22462 5.35855 4.20911 5.56283 4.39453C5.76694 4.58022 5.78147 4.8963 5.59603 5.10059L2.6351 8.35645C2.71035 8.65122 2.79195 8.97665 2.87338 9.30859L5.71127 6.14453C5.89567 5.93922 6.21184 5.92217 6.41732 6.10645C6.62253 6.29086 6.63965 6.60705 6.45541 6.8125L3.17025 10.4736C3.25708 10.7992 3.34321 11.1056 3.43002 11.375L6.56674 7.8584C6.75059 7.65265 7.06683 7.63466 7.27279 7.81836C7.47871 8.00207 7.4963 8.31834 7.31283 8.52441L3.65267 12.6279L3.63705 12.6465L2.38803 14.0791C2.33141 14.144 2.30016 14.2273 2.30014 14.3135V14.6172C2.3002 14.8141 2.45962 14.9736 2.65658 14.9736H3.23178C3.55338 14.9735 3.86273 14.8465 4.09017 14.6191L5.72982 12.9785L6.83627 11.8223L6.80404 11.8242L9.34115 9.18945C9.76296 8.75134 10.4757 8.78842 10.849 9.26855C11.1466 9.65158 11.1253 10.1936 10.7992 10.5527L10.141 11.2783C9.89176 11.5527 9.54255 11.7157 9.17221 11.7305L8.27474 11.7656L7.25424 12.832H10.0179C10.3676 12.8318 10.7007 12.6811 10.931 12.418L12.5697 10.5449C13.0362 10.0115 13.2932 9.3268 13.2933 8.61816V6.17676C13.2933 5.59868 13.5202 5.04338 13.9242 4.62988L13.9495 4.60352L14.2992 4.24609L15.015 4.94434L14.6654 5.30176L14.639 5.3291C14.4177 5.55576 14.2933 5.85995 14.2933 6.17676V8.61816C14.2932 9.56917 13.9478 10.4884 13.3216 11.2041L11.6829 13.0762C11.2628 13.5563 10.6559 13.8318 10.0179 13.832H6.29037L4.79721 15.3262C4.38223 15.7411 3.81859 15.9735 3.23178 15.9736H2.65658C1.90734 15.9736 1.3002 15.3664 1.30014 14.6172V14.3135C1.30016 13.9857 1.41871 13.6689 1.63412 13.4219L2.67416 12.2275C2.4115 11.5735 2.16834 10.6228 1.95932 9.77539C1.83259 9.26157 1.71565 8.7747 1.60873 8.37012C1.49773 7.95012 1.41129 7.67683 1.35287 7.55957C1.10024 7.05431 1.1648 6.54425 1.3099 6.1543C1.45307 5.76967 1.68948 5.45347 1.87435 5.26855L4.44662 2.69629C4.80308 2.33999 5.27078 2.11614 5.77182 2.06152L7.34115 1.89062C7.6158 1.86062 7.87235 1.73736 8.06771 1.54199L9.5726 0.0371094L10.2806 0.744141Z" fill="black"/>
</g>
</g>
</svg>
