<svg width="16" height="16" viewBox="0 0 16 16" fill="none" xmlns="http://www.w3.org/2000/svg">
<g id="object-tweak-jitter-color">
<g id=".color-circle" clip-path="url(#clip0_3684_42518)">
<g id="Group 311">
<path id="neutral" opacity="0.3" d="M11.266 13.6563C10.273 14.2296 9.14663 14.5314 8.00006 14.5314C6.85349 14.5314 5.72712 14.2296 4.73416 13.6563L6.53041 10.5451C6.97724 10.8031 7.4841 10.9389 8.00006 10.9389C8.51602 10.9389 9.02289 10.8031 9.46972 10.5451L11.266 13.6563Z" fill="black"/>
<path id="neutral_2" opacity="0.1" d="M14.5318 7.99958C14.5318 9.14615 14.23 10.2725 13.6567 11.2655C13.0834 12.2584 12.2589 13.083 11.2659 13.6563L9.46965 10.5451C9.91649 10.2871 10.2875 9.91606 10.5455 9.46923C10.8035 9.0224 10.9393 8.51553 10.9393 7.99958L14.5318 7.99958Z" fill="black"/>
<path id="neutral_3" opacity="0.5" d="M4.73416 13.6562C3.7412 13.0829 2.91664 12.2584 2.34336 11.2654C1.77007 10.2724 1.46826 9.14608 1.46826 7.99951L5.06075 7.99951C5.06075 8.51547 5.19657 9.02233 5.45455 9.46916C5.71252 9.916 6.08358 10.287 6.53041 10.545L4.73416 13.6562Z" fill="black"/>
<path id="neutral_4" opacity="0.5" d="M4.73428 2.34299C5.72724 1.7697 6.85361 1.46789 8.00019 1.46789C9.14676 1.46789 10.2731 1.7697 11.2661 2.34299L9.46984 5.45417C9.02301 5.1962 8.51614 5.06038 8.00018 5.06038C7.48423 5.06038 6.97736 5.1962 6.53053 5.45417L4.73428 2.34299Z" fill="black"/>
<path id="neutral_5" opacity="0.3" d="M1.46844 7.99969C1.46844 6.85312 1.77026 5.72675 2.34354 4.73379C2.91683 3.74083 3.74139 2.91627 4.73435 2.34298L6.53059 5.45417C6.08376 5.71215 5.71271 6.0832 5.45473 6.53004C5.19675 6.97687 5.06093 7.48373 5.06093 7.99969L1.46844 7.99969Z" fill="black"/>
<path id="neutral_6" opacity="0.3" d="M11.2658 2.34305C12.2588 2.91634 13.0834 3.7409 13.6566 4.73386C14.2299 5.72682 14.5317 6.85319 14.5317 7.99976L10.9392 7.99976C10.9392 7.4838 10.8034 6.97694 10.5455 6.5301C10.2875 6.08327 9.91642 5.71222 9.46959 5.45424L11.2658 2.34305Z" fill="black"/>
</g>
<path id="Union" d="M8 0.967773C9.06672 0.967837 10.1175 1.21141 11.0732 1.67578L11.083 1.66016L11.4912 1.89551C11.4996 1.90032 11.5082 1.90531 11.5166 1.91016L11.9492 2.16016L11.9385 2.17578C12.8189 2.77119 13.5552 3.55929 14.0889 4.4834C14.6224 5.40753 14.9381 6.43977 15.0137 7.5H15.0312V8.5H15.0137C14.9381 9.55967 14.6231 10.5909 14.0898 11.5146C13.5562 12.439 12.8191 13.2276 11.9385 13.8232L11.9482 13.8389L11.5156 14.0889L11.082 14.3389L11.0723 14.3232C10.1168 14.7874 9.06649 15.0312 8 15.0312C6.93281 15.0312 5.88182 14.787 4.92578 14.3223L4.91699 14.3389L4.50781 14.1025C4.49982 14.098 4.49137 14.0935 4.4834 14.0889L4.05078 13.8389L4.05957 13.8223C3.17991 13.227 2.44443 12.4391 1.91113 11.5156C1.37754 10.5914 1.06191 9.55934 0.986328 8.49902L0.96875 8.5V7.49902H0.986328C1.06197 6.43937 1.37692 5.40814 1.91016 4.48438C2.4437 3.56025 3.18018 2.77138 4.06055 2.17578L4.05176 2.16016L4.48438 1.91016L4.91797 1.66016L4.92676 1.67578C5.88237 1.21138 6.93325 0.967837 8 0.967773ZM9.2666 11.1953C8.86477 11.3546 8.43524 11.4384 8 11.4385C7.56428 11.4384 7.13366 11.3549 6.73145 11.1953L5.44238 13.4277C6.21837 13.794 7.08499 14 8 14C8.91469 14 9.78086 13.7938 10.5566 13.4277L9.2666 11.1953ZM2.02246 8.49902C2.17351 10.333 3.14823 11.9322 4.57715 12.9268L5.86523 10.6934C5.52687 10.4252 5.23993 10.0962 5.02246 9.71973C4.80453 9.34225 4.66154 8.92729 4.59863 8.49902H2.02246ZM11.4014 8.5L11.374 8.66016C11.3017 9.03098 11.1689 9.38888 10.9785 9.71875C10.7607 10.0961 10.4731 10.4268 10.1338 10.6953L10.3184 11.0146L11.4219 12.9268C12.8509 11.9324 13.8252 10.3338 13.9766 8.5H11.4014ZM8 5.56055C7.57194 5.56062 7.15099 5.67366 6.78027 5.8877C6.40968 6.10174 6.10172 6.40967 5.8877 6.78027C5.67389 7.15073 5.56072 7.5713 5.56055 7.99902V8C5.56063 8.42803 5.67368 8.84903 5.8877 9.21973C6.10174 9.59026 6.40971 9.8983 6.78027 10.1123L6.92188 10.1875C7.25659 10.3523 7.62552 10.4384 8 10.4385C8.37466 10.4384 8.74425 10.3524 9.0791 10.1875L9.21973 10.1123C9.59038 9.89822 9.89827 9.58944 10.1123 9.21875C10.3263 8.84801 10.4395 8.42708 10.4395 7.99902C10.4393 7.57124 10.3261 7.15079 10.1123 6.78027C9.89824 6.40965 9.59038 6.10075 9.21973 5.88672L9.21777 5.88574C8.84756 5.67248 8.42727 5.56062 8 5.56055ZM10.1914 5.2041L10.1338 5.30469C10.4728 5.5731 10.7598 5.90325 10.9775 6.28027C11.1953 6.65739 11.3384 7.07118 11.4014 7.49902H13.9766C13.8249 5.66541 12.8509 4.06645 11.4219 3.07227L10.1914 5.2041ZM4.57812 3.07129C3.14885 4.06546 2.1741 5.66518 2.02246 7.49902H4.59863C4.6616 7.07126 4.80385 6.65734 5.02148 6.28027C5.23935 5.90297 5.52694 5.57225 5.86621 5.30371L4.57812 3.07129ZM8 2C7.08545 2 6.21904 2.20534 5.44336 2.57129L6.7334 4.80371C7.13521 4.64447 7.56479 4.5606 8 4.56055C8.4354 4.5606 8.86562 4.64336 9.26758 4.80273L10.541 2.59863L10.5566 2.57129C9.78096 2.20534 8.91455 2 8 2Z" fill="black"/>
</g>
</g>
<defs>
<clipPath id="clip0_3684_42518">
<rect width="16" height="16" fill="white"/>
</clipPath>
</defs>
</svg>
