<svg width="16" height="16" viewBox="0 0 16 16" fill="none" xmlns="http://www.w3.org/2000/svg">
<g id="off">
<g id=".clear-circle">
<path id="Union" d="M8 1C11.866 1 15 4.13401 15 8C15 11.866 11.866 15 8 15C4.13401 15 1 11.866 1 8C1 4.13401 4.13401 1 8 1ZM8 2C4.68629 2 2 4.68629 2 8C2 11.3137 4.68629 14 8 14C11.3137 14 14 11.3137 14 8C14 4.68629 11.3137 2 8 2ZM11.207 5.5L8.70703 8L11.207 10.5L10.5 11.207L8 8.70703L5.5 11.207L4.79297 10.5L7.29297 8L4.79297 5.5L5.5 4.79297L8 7.29297L10.5 4.79297L11.207 5.5Z" fill="black"/>
</g>
</g>
</svg>
