<svg width="16" height="16" viewBox="0 0 16 16" fill="none" xmlns="http://www.w3.org/2000/svg">
<g id="overlay-clip" clip-path="url(#clip0_3684_42751)">
<path id="Union" d="M14.793 8.85578C14.8942 8.73434 15.0777 8.72643 15.1895 8.83821C15.5558 9.20459 15.5827 9.78979 15.251 10.1878L13.3311 12.4896L13.8604 13.1439C14.0547 13.0519 14.2717 13.0003 14.501 13.0003C15.3294 13.0003 16.001 13.6719 16.001 14.5003C16.0008 15.3286 15.3293 16.0003 14.501 16.0003C13.6727 16.0003 13.0012 15.3286 13.001 14.5003C13.001 14.1732 13.1065 13.8708 13.2842 13.6243L12.5 12.6556L11.7168 13.6243C11.8947 13.8709 12.001 14.173 12.001 14.5003C12.0008 15.3286 11.3293 16.0003 10.501 16.0003C9.67268 16.0003 9.00119 15.3286 9.00098 14.5003C9.00098 13.6719 9.67255 13.0003 10.501 13.0003C10.7296 13.0003 10.9457 13.0524 11.1396 13.1439L11.668 12.4905L9.74805 10.1878C9.41638 9.78984 9.44335 9.2046 9.80957 8.83821C9.92132 8.72645 10.1048 8.73441 10.2061 8.85578L12.5 11.6077L14.793 8.85578ZM10.501 13.8001C10.1144 13.8001 9.80078 14.1137 9.80078 14.5003C9.801 14.8867 10.1145 15.2005 10.501 15.2005C10.8874 15.2005 11.201 14.8867 11.2012 14.5003C11.2012 14.1137 10.8876 13.8001 10.501 13.8001ZM14.501 13.8001C14.1144 13.8001 13.8008 14.1137 13.8008 14.5003C13.801 14.8867 14.1145 15.2005 14.501 15.2005C14.8874 15.2005 15.201 14.8867 15.2012 14.5003C15.2012 14.1137 14.8876 13.8001 14.501 13.8001Z" fill="black"/>
</g>
<defs>
<clipPath id="clip0_3684_42751">
<rect width="16" height="16" fill="white"/>
</clipPath>
</defs>
</svg>
