<svg width="16" height="16" viewBox="0 0 16 16" fill="none" xmlns="http://www.w3.org/2000/svg">
<g id="overlay-clipmask" clip-path="url(#clip0_3684_42403)">
<path id="Union" d="M14.793 8.8553C14.8942 8.73385 15.0777 8.72594 15.1895 8.83772C15.5558 9.2041 15.5827 9.7893 15.251 10.1873L13.3311 12.4891L13.8604 13.1434C14.0547 13.0514 14.2717 12.9998 14.501 12.9998C15.3294 12.9998 16.001 13.6714 16.001 14.4998C16.0008 15.3281 15.3293 15.9998 14.501 15.9998C13.6727 15.9998 13.0012 15.3281 13.001 14.4998C13.001 14.1728 13.1065 13.8703 13.2842 13.6239L12.5 12.6551L11.7168 13.6239C11.8947 13.8704 12.001 14.1726 12.001 14.4998C12.0008 15.3281 11.3293 15.9998 10.501 15.9998C9.67268 15.9998 9.00119 15.3281 9.00098 14.4998C9.00098 13.6714 9.67255 12.9998 10.501 12.9998C10.7296 12.9998 10.9457 13.0519 11.1396 13.1434L11.668 12.4901L9.74805 10.1873C9.41638 9.78935 9.44335 9.20411 9.80957 8.83772C9.92132 8.72596 10.1048 8.73393 10.2061 8.8553L12.5 11.6072L14.793 8.8553ZM10.501 13.7996C10.1144 13.7996 9.80078 14.1132 9.80078 14.4998C9.801 14.8862 10.1145 15.2 10.501 15.2C10.8874 15.2 11.201 14.8862 11.2012 14.4998C11.2012 14.1132 10.8876 13.7996 10.501 13.7996ZM14.501 13.7996C14.1144 13.7996 13.8008 14.1132 13.8008 14.4998C13.801 14.8862 14.1145 15.2 14.501 15.2C14.8874 15.2 15.201 14.8862 15.2012 14.4998C15.2012 14.1132 14.8876 13.7996 14.501 13.7996Z" fill="black"/>
<path id="Subtract" d="M8 16H0V8H8V16ZM4 10C2.89543 10 2 10.8954 2 12C2 13.1046 2.89543 14 4 14C5.10457 14 6 13.1046 6 12C6 10.8954 5.10457 10 4 10Z" fill="black"/>
</g>
<defs>
<clipPath id="clip0_3684_42403">
<rect width="16" height="16" fill="white"/>
</clipPath>
</defs>
</svg>
