<svg width="16" height="16" viewBox="0 0 16 16" fill="none" xmlns="http://www.w3.org/2000/svg">
<g id="pack-more">
<g id=".layout-grid-3x3">
<path id="Union" d="M15 15H0V0H15V15ZM1 10.3398V14H4.66016V10.3398H1ZM5.66016 10.3398V14H9.33984V10.3398H5.66016ZM10.3398 10.3398V14H14V10.3398H10.3398ZM1 9.33984H4.66016V5.66016H1V9.33984ZM5.66016 9.33984H9.33984V5.66016H5.66016V9.33984ZM10.3398 9.33984H14V5.66016H10.3398V9.33984ZM1 4.66016H4.66016V1H1V4.66016ZM5.66016 4.66016H9.33984V1H5.66016V4.66016ZM10.3398 4.66016H14V1H10.3398V4.66016Z" fill="black"/>
</g>
</g>
</svg>
