<svg width="16" height="16" viewBox="0 0 16 16" fill="none" xmlns="http://www.w3.org/2000/svg">
<g id="pages-remove">
<g id=".trash-clear">
<path id="Union" d="M10 2H15V3H13.4619L13.0742 13.0771L13.0566 13.2754C12.9217 14.2536 12.0827 15 11.0752 15H4.9248L4.72559 14.9902C3.80841 14.8995 3.06928 14.1884 2.94336 13.2754L2.92578 13.0771L2.53809 3H1V2H6V1H10V2ZM3.92578 13.0381C3.94643 13.575 4.38747 14 4.9248 14H11.0752C11.6125 14 12.0536 13.575 12.0742 13.0381L12.4609 3H3.53906L3.92578 13.0381ZM10.8535 6.35352L8.70703 8.5L10.8535 10.6465L10.1465 11.3535L8 9.20703L5.85352 11.3535L5.14648 10.6465L7.29297 8.5L5.14648 6.35352L5.85352 5.64648L8 7.79297L10.1465 5.64648L10.8535 6.35352Z" fill="black"/>
</g>
</g>
</svg>
