<?xml version="1.0" encoding="UTF-8" standalone="no"?>
<svg width="16" height="16" viewBox="0 0 16 16" fill="none" version="1.1" id="svg1" sodipodi:docname="paint-order-markers-symbolic.svg" xmlns:inkscape="http://www.inkscape.org/namespaces/inkscape" xmlns:sodipodi="http://sodipodi.sourceforge.net/DTD/sodipodi-0.dtd" xmlns="http://www.w3.org/2000/svg" xmlns:svg="http://www.w3.org/2000/svg">
  <defs id="defs1" />
  <sodipodi:namedview id="namedview1" pagecolor="#ffffff" bordercolor="#000000" borderopacity="0.25" inkscape:showpageshadow="2" inkscape:pageopacity="0.0" inkscape:pagecheckerboard="0" inkscape:deskcolor="#d1d1d1" showgrid="true" inkscape:zoom="80.75" inkscape:cx="7.7956656" inkscape:cy="7.4055728" inkscape:current-layer="svg1">
    <inkscape:grid type="xygrid" id="grid1" units="px" originx="0" originy="0" spacingx="1" spacingy="1" empcolor="#0099e5" empopacity="0.30196078" color="#0099e5" opacity="0.14901961" empspacing="5" enabled="true" visible="true" />
  </sodipodi:namedview>
  <rect style="opacity:0.35;fill:#000000;stroke-width:1" id="rect1" width="4.5" height="2" x="0" y="7" />
  <rect style="opacity:0.35;fill:#000000;stroke-width:1" id="rect3" width="4.5" height="2" x="11.5" y="7" />
  <path style="baseline-shift:baseline;display:inline;overflow:visible;opacity:0.5;vector-effect:none;fill:#000000;stroke-linejoin:round;paint-order:markers fill stroke;enable-background:accumulate" d="M 11.5,8 A 3.5,3.5 0 0 1 8,11.5 3.5,3.5 0 0 1 4.5,8 3.5,3.5 0 0 1 8,4.5 3.5,3.5 0 0 1 11.5,8 Z" id="path4" />
  <path style="baseline-shift:baseline;display:inline;overflow:visible;vector-effect:none;fill:#000000;stroke-linejoin:round;paint-order:markers fill stroke;enable-background:accumulate" d="M 8,4 C 5.7967833,4 4,5.7967833 4,8 c 0,2.203217 1.7967833,4 4,4 2.203217,0 4,-1.796783 4,-4 C 12,5.7967833 10.203217,4 8,4 Z m 0,1 c 1.6627766,0 3,1.3372234 3,3 0,1.6627766 -1.3372234,3 -3,3 C 6.3372234,11 5,9.6627766 5,8 5,6.3372234 6.3372234,5 8,5 Z" id="path5" />
</svg>
