<svg width="16" height="16" viewBox="0 0 16 16" fill="none" xmlns="http://www.w3.org/2000/svg">
<g id="paint-gradient-radial">
<g id=".paint-gradient-radial">
<g id="Group 300">
<path id="Subtract" opacity="0.66" d="M2 11.6055C2.59031 12.5857 3.41338 13.4096 4.39355 14H2V11.6055ZM14 14H11.6064C12.5866 13.4096 13.4097 12.5857 14 11.6055V14ZM4.39355 2C3.41362 2.59028 2.59028 3.41362 2 4.39355V2H4.39355ZM14 4.39355C13.4097 3.41362 12.5864 2.59028 11.6064 2H14V4.39355Z" fill="black"/>
<path id="Subtract_2" opacity="0.6" d="M8 1C11.866 1 15 4.13401 15 8C15 11.866 11.866 15 8 15C4.13401 15 1 11.866 1 8C1 4.13401 4.13401 1 8 1ZM8 2C4.68629 2 2 4.68629 2 8C2 11.3137 4.68629 14 8 14C11.3137 14 14 11.3137 14 8C14 4.68629 11.3137 2 8 2Z" fill="black"/>
<path id="Subtract_3" opacity="0.5" d="M8 2C11.3137 2 14 4.68629 14 8C14 11.3137 11.3137 14 8 14C4.68629 14 2 11.3137 2 8C2 4.68629 4.68629 2 8 2ZM8 3C5.23858 3 3 5.23858 3 8C3 10.7614 5.23858 13 8 13C10.7614 13 13 10.7614 13 8C13 5.23858 10.7614 3 8 3Z" fill="black"/>
<path id="Subtract_4" opacity="0.4" d="M8 3C10.7614 3 13 5.23858 13 8C13 10.7614 10.7614 13 8 13C5.23858 13 3 10.7614 3 8C3 5.23858 5.23858 3 8 3ZM8 4C5.79086 4 4 5.79086 4 8C4 10.2091 5.79086 12 8 12C10.2091 12 12 10.2091 12 8C12 5.79086 10.2091 4 8 4Z" fill="black"/>
<path id="Subtract_5" opacity="0.25" d="M8 4C10.2091 4 12 5.79086 12 8C12 10.2091 10.2091 12 8 12C5.79086 12 4 10.2091 4 8C4 5.79086 5.79086 4 8 4ZM8 5C6.34315 5 5 6.34315 5 8C5 9.65685 6.34315 11 8 11C9.65685 11 11 9.65685 11 8C11 6.34315 9.65685 5 8 5Z" fill="black"/>
<path id="Subtract_6" opacity="0.15" d="M8 5C9.65685 5 11 6.34315 11 8C11 9.65685 9.65685 11 8 11C6.34315 11 5 9.65685 5 8C5 6.34315 6.34315 5 8 5ZM8 6C6.89543 6 6 6.89543 6 8C6 9.10457 6.89543 10 8 10C9.10457 10 10 9.10457 10 8C10 6.89543 9.10457 6 8 6Z" fill="black"/>
<path id="Subtract_7" opacity="0.1" d="M8 6C9.10457 6 10 6.89543 10 8C10 9.10457 9.10457 10 8 10C6.89543 10 6 9.10457 6 8C6 6.89543 6.89543 6 8 6ZM8 7C7.44772 7 7 7.44772 7 8C7 8.55228 7.44772 9 8 9C8.55228 9 9 8.55228 9 8C9 7.44772 8.55228 7 8 7Z" fill="black"/>
</g>
<path id="Union" d="M15 15H1V1H15V15ZM2 14H14V2H2V14Z" fill="black"/>
</g>
</g>
</svg>
