<svg width="16" height="16" viewBox="0 0 16 16" fill="none" xmlns="http://www.w3.org/2000/svg">
<g id="paint-unknown">
<g id=".square-question-mark">
<path id="Union" d="M15 15H1V1H15V15ZM2 14H14V2H2V14ZM7.77344 10.2344C8.02083 10.2344 8.23828 10.3255 8.42578 10.5078C8.61328 10.6901 8.70833 10.9089 8.71094 11.1641C8.70833 11.3359 8.66276 11.4935 8.57422 11.6367C8.48828 11.7773 8.375 11.8906 8.23438 11.9766C8.09375 12.0599 7.9401 12.1016 7.77344 12.1016C7.51302 12.1016 7.29036 12.0104 7.10547 11.8281C6.92318 11.6432 6.83333 11.4219 6.83594 11.1641C6.83333 10.9089 6.92318 10.6901 7.10547 10.5078C7.29036 10.3255 7.51302 10.2344 7.77344 10.2344ZM7.93359 3.89062C8.45182 3.89062 8.91016 3.97656 9.30859 4.14844C9.70703 4.31771 10.0195 4.5638 10.2461 4.88672C10.4727 5.20964 10.5859 5.59896 10.5859 6.05469C10.5859 6.35938 10.5352 6.63021 10.4336 6.86719C10.3346 7.10156 10.1953 7.3099 10.0156 7.49219C9.83594 7.67188 9.6237 7.83464 9.37891 7.98047C9.17318 8.10286 9.00391 8.23047 8.87109 8.36328C8.74089 8.49609 8.64323 8.64974 8.57812 8.82422C8.51562 8.9987 8.48307 9.21354 8.48047 9.46875V9.60156H7V9.46875C7.0026 9.01302 7.04297 8.64974 7.12109 8.37891C7.20182 8.10807 7.31901 7.88932 7.47266 7.72266C7.6263 7.55599 7.8112 7.40495 8.02734 7.26953C8.1888 7.16536 8.33333 7.05729 8.46094 6.94531C8.58854 6.83333 8.6901 6.70964 8.76562 6.57422C8.84115 6.4362 8.87891 6.28255 8.87891 6.11328C8.87891 5.93359 8.83594 5.77604 8.75 5.64062C8.66406 5.50521 8.54818 5.40104 8.40234 5.32812C8.25911 5.25521 8.10026 5.21875 7.92578 5.21875C7.75651 5.21875 7.59635 5.25651 7.44531 5.33203C7.29427 5.40495 7.17057 5.51432 7.07422 5.66016C6.97786 5.80339 6.92578 5.98177 6.91797 6.19531H5.32422C5.33724 5.67448 5.46224 5.24479 5.69922 4.90625C5.9362 4.5651 6.25 4.3112 6.64062 4.14453C7.03125 3.97526 7.46224 3.89062 7.93359 3.89062Z" fill="black"/>
</g>
</g>
</svg>
