<svg width="16" height="16" viewBox="0 0 16 16" fill="none" xmlns="http://www.w3.org/2000/svg">
<g id="path-split">
<g id=".boolean-split" clip-path="url(#clip0_3684_42659)">
<path id="Union" opacity="0.3" d="M11.5 7C13.9853 7 16 9.01472 16 11.5C16 13.9853 13.9853 16 11.5 16C9.01472 16 7 13.9853 7 11.5C7 9.01472 9.01472 7 11.5 7ZM8 8H0V0H8V8Z" fill="black"/>
<path id="Union_2" d="M11.5 7C13.9853 7 16 9.01472 16 11.5C16 13.9853 13.9853 16 11.5 16C9.01472 16 7 13.9853 7 11.5C7 9.01472 9.01472 7 11.5 7ZM11.5 8C9.567 8 8 9.567 8 11.5C8 13.433 9.567 15 11.5 15C13.433 15 15 13.433 15 11.5C15 9.567 13.433 8 11.5 8ZM8 8H0V0H8V8ZM1 7H7V1H1V7Z" fill="black"/>
</g>
</g>
<defs>
<clipPath id="clip0_3684_42659">
<rect width="16" height="16" fill="white"/>
</clipPath>
</defs>
</svg>
