<svg width="16" height="16" viewBox="0 0 16 16" fill="none" xmlns="http://www.w3.org/2000/svg">
<g id="path-tweak-push">
<g id=".path-tweak-push">
<path id="Subtract" fill-rule="evenodd" clip-rule="evenodd" d="M5.13867 6.26659C5.9172 4.02833 9.0828 4.02832 9.86133 6.26659L11.0381 9.6494C11.5275 11.0565 12.854 12 14.3438 12H15.001V13H14.3438C12.4284 13 10.7231 11.7875 10.0938 9.9785L8.91699 6.59471C8.44975 5.25212 6.55026 5.25212 6.08301 6.59471L4.90625 9.9785C4.27692 11.7875 2.57161 13 0.65625 13H0V12H0.65625C2.14604 12 3.47248 11.0565 3.96191 9.6494L5.13867 6.26659Z" fill="black"/>
<path id="Vector" opacity="0.3" d="M0.656245 12.5H0V16H15.001V12.5H14.3438C12.6411 12.5 11.1251 11.4222 10.5658 9.81408L9.38899 6.43086C8.76617 4.64024 6.23383 4.64025 5.611 6.43086L4.43423 9.81408C3.87489 11.4222 2.35887 12.5 0.656245 12.5Z" fill="black"/>
</g>
</g>
</svg>
