<svg width="16" height="16" viewBox="0 0 16 16" fill="none" xmlns="http://www.w3.org/2000/svg">
<g id="path-reverse">
<g id=".path-operation-reverse" clip-path="url(#clip0_3684_42843)">
<path id="Union" d="M3.70703 1L2.20703 2.5H13C14.6569 2.5 16 3.84315 16 5.5C16 7.15685 14.6569 8.5 13 8.5H10.5L8 11L5.49902 8.5H3C1.89543 8.5 1 9.39543 1 10.5C1 11.6046 1.89543 12.5 3 12.5H13.793L12.293 11L13 10.293L15.707 13L13 15.707L12.293 15L13.793 13.5H3C1.34315 13.5 0 12.1569 0 10.5C0 8.84315 1.34315 7.5 3 7.5H5.5L5 8L8 5.00098L11 8L10.5 7.5H13C14.1046 7.5 15 6.60457 15 5.5C15 4.39543 14.1046 3.5 13 3.5H2.20703L3.70703 5L3 5.70703L0.292969 3L3 0.292969L3.70703 1ZM6.41406 8L7.99902 9.58594L9.58496 8L8 6.41406L6.41406 8Z" fill="black"/>
</g>
</g>
<defs>
<clipPath id="clip0_3684_42843">
<rect width="16" height="16" fill="white"/>
</clipPath>
</defs>
</svg>
