<svg width="16" height="16" viewBox="0 0 16 16" fill="none" xmlns="http://www.w3.org/2000/svg">
<g id="path-simplify">
<g id=".path-operation-simplify">
<path id="Union" d="M5.14844 1C6.70132 1.00024 7.90977 2.35015 7.73828 3.89355L7.21191 8.62207C7.13016 9.3571 7.70575 10 8.44531 10C9.21179 9.99987 9.79472 9.31172 9.66895 8.55566L9.25391 6.06641C9.07369 4.98471 9.90826 4 11.0049 4C11.8192 4.00006 12.5291 4.55473 12.7266 5.34473L12.7354 5.37891C12.8267 5.74391 13.155 6 13.5312 6H16V7H13.5312C12.696 7 11.9672 6.43138 11.7646 5.62109L11.7559 5.58691C11.6696 5.24209 11.3603 5.00006 11.0049 5C10.5262 5 10.1615 5.43014 10.2402 5.90234L10.6553 8.39062C10.8829 9.75637 9.82986 10.9999 8.44531 11C7.10976 11 6.07026 9.83906 6.21777 8.51172L6.74414 3.7832C6.84987 2.83211 6.10534 2.00024 5.14844 2C4.11583 2 3.35089 2.96064 3.58301 3.9668L5.4668 12.126C5.80603 13.596 4.68924 14.9998 3.18066 15C1.73101 15 0.628119 13.6985 0.866211 12.2686L1.48242 8.56934C1.49466 8.49591 1.50101 8.42112 1.50098 8.34668V8C1.50058 7.44761 1.05242 7 0.5 7H0V6H0.5C1.60459 6 2.50044 6.89541 2.50098 8V8.34668C2.50102 8.47626 2.49005 8.60558 2.46875 8.7334L1.85254 12.4326C1.71582 13.2531 2.34884 14 3.18066 14C4.04601 13.9998 4.6865 13.1948 4.49219 12.3516L2.60938 4.19141C2.23271 2.55866 3.47278 1 5.14844 1Z" fill="black"/>
</g>
</g>
</svg>
