<svg width="16" height="16" viewBox="0 0 16 16" fill="none" xmlns="http://www.w3.org/2000/svg">
<g id="path-exclusion">
<g id=".boolean-exclusion">
<path id="Union" opacity="0.3" d="M10.5 4.52344C13.3032 4.77607 15.5 7.13101 15.5 10C15.5 13.0376 13.0376 15.5 10 15.5C7.13101 15.5 4.77607 13.3032 4.52344 10.5H10.5V4.52344ZM10.5 4.52344C10.3353 4.50859 10.1686 4.5 10 4.5C6.96243 4.5 4.5 6.96243 4.5 10C4.5 10.1686 4.50859 10.3353 4.52344 10.5H1.5V1.5H10.5V4.52344Z" fill="black"/>
<path id="Union_2" d="M11 4.08398C13.8376 4.56013 16 7.02706 16 10C16 13.3137 13.3137 16 10 16C7.02712 16 4.56117 13.8376 4.08496 11H1V1H11V4.08398ZM11 11H5.10059C5.5639 13.2822 7.58108 15 10 15C12.7614 15 15 12.7614 15 10C15 7.58101 13.2823 5.56285 11 5.09961V11ZM10 5C7.23858 5 5 7.23858 5 10H10V5ZM2 10H4C4 6.68629 6.68629 4 10 4V2H2V10Z" fill="black"/>
</g>
</g>
</svg>
