<svg width="16" height="16" viewBox="0 0 16 16" fill="none" xmlns="http://www.w3.org/2000/svg">
<g id="path-offset-linked">
<g id=".stroke-lock" clip-path="url(#clip0_3684_42605)">
<path id="Union" d="M0 8C4.41828 8 8 11.5817 8 16H7C7 12.134 3.86599 9 0 9V8ZM11.5342 10C12.4699 11.7952 13 13.8355 13 16H12C12 13.8136 11.4123 11.7654 10.3906 10H11.5342ZM12.5 0C13.8807 8.66537e-07 15 1.11929 15 2.5V3.88867H16V8.88867H9V3.88867H10V2.5C10 1.11929 11.1193 0 12.5 0ZM0 3C3.01806 3 5.79371 4.03126 8 5.75684V7.05762C5.87685 5.15692 3.07391 4 0 4V3ZM12.5 1C11.6716 1 11 1.67157 11 2.5V3.88867H14V2.5C14 1.67157 13.3284 1 12.5 1Z" fill="black"/>
<path id="Subtract" opacity="0.2" d="M0.000976562 3C3.01854 3 5.79388 4.0308 8 5.75586V10H11.5352C12.4709 11.7952 13.001 13.8355 13.001 16H8C8 11.5817 4.41828 8 0 8V3H0.000976562Z" fill="black"/>
</g>
</g>
<defs>
<clipPath id="clip0_3684_42605">
<rect width="16" height="16" fill="white"/>
</clipPath>
</defs>
</svg>
