<svg width="16" height="16" viewBox="0 0 16 16" fill="none" xmlns="http://www.w3.org/2000/svg">
<g id="path-difference">
<g id=".boolean-difference" clip-path="url(#clip0_3684_42614)">
<path id="neutral" opacity="0.3" d="M10.5 4.52344C13.3032 4.77607 15.5 7.13101 15.5 10C15.5 13.0376 13.0376 15.5 10 15.5C7.13101 15.5 4.77607 13.3032 4.52344 10.5H10.5V4.52344Z" fill="black"/>
<path id="Union" d="M11 11H1V1H11V11ZM2 10H10V2H2V10Z" fill="black"/>
<path id="Union_2" d="M10.5693 4.0498C13.6277 4.32546 16.0243 6.89433 16.0244 10.0244C16.0244 13.3381 13.3381 16.0244 10.0244 16.0244C6.89433 16.0243 4.32546 13.6277 4.0498 10.5693L4.00098 10.0244H10.0244V4.00098L10.5693 4.0498ZM11.0244 11.0244H5.12695C5.59005 13.3063 7.60588 15.0243 10.0244 15.0244C12.7858 15.0244 15.0244 12.7858 15.0244 10.0244C15.0243 7.60581 13.3064 5.589 11.0244 5.12598V11.0244Z" fill="black"/>
</g>
</g>
<defs>
<clipPath id="clip0_3684_42614">
<rect width="16" height="16" fill="white"/>
</clipPath>
</defs>
</svg>
