<svg width="16" height="16" viewBox="0 0 16 16" fill="none" xmlns="http://www.w3.org/2000/svg">
<g id="path-effect-parameter-next">
<g id=".effect-next" clip-path="url(#clip0_3684_42723)">
<path id="Subtract" d="M0 3.67798C0.000452031 0.710244 3.4104 -0.962273 5.75781 0.85376L7.5 2.20142L7.7793 1.9856L8.39062 2.77661L8 3.07837V10.1428L8.34082 10.5413L8.35156 10.553L8.3623 10.5667C8.47988 10.7233 8.60818 10.8534 8.74121 10.9622L8.05566 11.6897C7.88735 11.5453 7.72744 11.3813 7.58301 11.1926L7.49414 11.0891L7.4375 11.1663C5.49199 13.7593 1.37741 11.9622 1.95703 8.77271C2.07128 8.14505 2.37203 7.59106 2.79492 7.16333C1.19621 6.80828 0.00013195 5.38347 0 3.67798ZM4.97949 7.25024C3.97816 7.25053 3.11963 7.96718 2.94043 8.95239C2.54997 11.1034 5.32539 12.3152 6.6377 10.5667L7 10.0833V7.25024H4.97949ZM10.002 6.25024C10.4194 6.25191 10.8234 6.33779 11.1924 6.49243L10.8057 7.41431C10.5546 7.3091 10.2806 7.25139 9.99805 7.25024L9.49805 7.24829L9.50195 6.24829L10.002 6.25024ZM13.7002 5.74634L14.0693 6.08228C13.8924 6.27664 13.6944 6.4522 13.4785 6.60376L13.2559 6.74731L12.8271 7.00415L12.3145 6.14478L12.7441 5.88892L12.9033 5.7854C13.059 5.67615 13.2023 5.54978 13.3301 5.40942L13.7002 5.74634ZM5.14551 1.6438C3.45533 0.336672 1.00045 1.54135 1 3.67798C1.00015 5.09829 2.15192 6.25024 3.57227 6.25024H7V3.07837L5.14551 1.6438ZM14.8262 2.55981C14.9389 2.9079 14.9999 3.28333 15 3.67798C15 4.03873 14.9458 4.38853 14.8457 4.71802L14.3682 4.57251L13.8896 4.427C13.9613 4.19087 14 3.93897 14 3.67798C13.9999 3.38732 13.9552 3.11621 13.875 2.86841L14.8262 2.55981ZM10.4023 0.776611L10.5713 1.24731C10.3262 1.33551 10.0845 1.46597 9.85449 1.6438L9.26855 2.09692L8.65723 1.30591L9.24219 0.85376C9.55453 0.612153 9.88892 0.430777 10.2334 0.306885L10.4023 0.776611ZM11.9209 0.136963C12.6736 0.245529 13.3813 0.592338 13.9277 1.12134L13.5801 1.48071L13.2314 1.84009C12.8363 1.4576 12.3227 1.20576 11.7783 1.1272L11.9209 0.136963Z" fill="black"/>
<path id="neutral" d="M14.999 12.2925V10.0005H15.999L16 12.4995V12.5005L15.999 15.0005H14.999V12.7075L12.3535 15.354L11.6465 14.647L13.2939 12.9995H9V11.9995H13.292L11.6465 10.354L12.3535 9.646L14.999 12.2925Z" fill="black"/>
</g>
</g>
<defs>
<clipPath id="clip0_3684_42723">
<rect width="16" height="16" fill="white"/>
</clipPath>
</defs>
</svg>
