<svg width="16" height="16" viewBox="0 0 16 16" fill="none" xmlns="http://www.w3.org/2000/svg">
<g id="path-tweak-attract">
<g id=".path-tweak-attract" clip-path="url(#clip0_3684_42521)">
<path id="Vector 441" opacity="0.3" d="M0.423841 12.5H0V16H15V12.5H14.5762C10.8797 12.5 7.82037 9.62589 7.58979 5.93665L7.5 4.5L7.41021 5.93665C7.17963 9.62589 4.12028 12.5 0.423841 12.5Z" fill="black"/>
<path id="Union" d="M7.5 3.99976C7.76396 3.99976 7.98245 4.20509 7.99902 4.46851L8.08887 5.90503C8.30297 9.33075 11.1438 11.9997 14.5762 11.9998H15V12.9998H14.5762C11.3214 12.9997 8.52936 10.9193 7.5 7.98413C6.47064 10.9193 3.67865 12.9998 0.423828 12.9998H0V11.9998H0.423828C3.85624 11.9998 6.69702 9.33076 6.91113 5.90503L7.00098 4.46851C7.01755 4.2051 7.23605 3.99977 7.5 3.99976Z" fill="black"/>
</g>
</g>
<defs>
<clipPath id="clip0_3684_42521">
<rect width="16" height="16" fill="white"/>
</clipPath>
</defs>
</svg>
