<svg width="16" height="16" viewBox="0 0 16 16" fill="none" xmlns="http://www.w3.org/2000/svg">
<g id="path-mode-spiro">
<g id=".path-mode-spiro" clip-path="url(#clip0_3684_42581)">
<path id="Union" d="M1.61255 1.61157C3.76043 -0.536311 7.24201 -0.536312 9.38989 1.61157C11.4967 3.71862 11.688 7.15523 9.42212 9.42114C8.18795 10.6554 8.19111 12.7858 9.45337 14.0481C10.7226 15.3171 12.7799 15.3172 14.0491 14.0481C15.2786 12.8186 15.3169 10.8493 14.1643 9.57349L14.0491 9.45239L13.6956 9.09888L14.4026 8.39185L14.7561 8.74536L14.9075 8.90356C16.4145 10.5719 16.3638 13.1474 14.7561 14.7551C13.0964 16.4147 10.4061 16.4146 8.74634 14.7551C7.10076 13.1096 7.08323 10.346 8.71509 8.71411C10.5651 6.86407 10.425 4.06095 8.68286 2.3186C6.9255 0.561244 4.07694 0.561244 2.31958 2.3186C0.617291 4.02094 0.563712 6.74744 2.15942 8.51392L2.31958 8.68188L2.6731 9.0354L1.96606 9.74243L1.61255 9.38892L1.41724 9.18384C-0.533391 7.02481 -0.468144 3.69231 1.61255 1.61157Z" fill="black"/>
</g>
</g>
<defs>
<clipPath id="clip0_3684_42581">
<rect width="16" height="16" fill="white"/>
</clipPath>
</defs>
</svg>
