<svg width="16" height="16" viewBox="0 0 16 16" fill="none" xmlns="http://www.w3.org/2000/svg">
<g id="path-intersection">
<g id=".boolean-intersection">
<path id="neutral" opacity="0.3" d="M10 4C10.3408 4 10.6747 4.02941 11 4.08398V11H4.08496C4.03037 10.6747 4 10.3408 4 10C4 6.68629 6.68629 4 10 4Z" fill="black"/>
<path id="Union" d="M11 4.08398C13.8376 4.56013 16 7.02706 16 10C16 13.3137 13.3137 16 10 16C7.02712 16 4.56117 13.8376 4.08496 11H1V1H11V4.08398ZM11 11H5.10059C5.5639 13.2822 7.58108 15 10 15C12.7614 15 15 12.7614 15 10C15 7.58101 13.2823 5.56285 11 5.09961V11ZM10 5C7.23858 5 5 7.23858 5 10H10V5ZM2 10H4C4 6.68629 6.68629 4 10 4V2H2V10Z" fill="black"/>
</g>
</g>
</svg>
