<svg width="16" height="16" viewBox="0 0 16 16" fill="none" xmlns="http://www.w3.org/2000/svg">
<g id="path-inset">
<g id=".stroke-arrow-in" clip-path="url(#clip0_3684_42602)">
<path id="Union" d="M0 8C4.41826 8 7.99997 11.5817 8 16H7C6.99997 12.134 3.86597 9 0 9V8ZM0 3C7.17968 3 13 8.82033 13 16H12C12 9.37261 6.6274 4 0 4V3ZM15.707 1L11.707 5H15V6H10V1H11V4.29297L15 0.292969L15.707 1Z" fill="black"/>
<path id="Intersect" opacity="0.2" d="M0.000976562 3C7.18068 3 13.001 8.8203 13.001 16H8C8 11.5817 4.41828 8 0 8V3H0.000976562Z" fill="black"/>
</g>
</g>
<defs>
<clipPath id="clip0_3684_42602">
<rect width="16" height="16" fill="white"/>
</clipPath>
</defs>
</svg>
