<svg width="16" height="16" viewBox="0 0 16 16" fill="none" xmlns="http://www.w3.org/2000/svg">
<g id="path-union">
<g id=".boolean-union">
<path id="neutral" opacity="0.3" d="M10.5 4.52344C13.3032 4.77609 15.5 7.13101 15.5 10C15.5 13.0376 13.0376 15.5 10 15.5C7.13101 15.5 4.77609 13.3032 4.52344 10.5H1.5V1.5H10.5V4.52344Z" fill="black"/>
<path id="Union" d="M11 4.08496C13.8377 4.56126 16 7.02689 16 10C16 13.3137 13.3137 16 10 16C7.02689 16 4.56126 13.8377 4.08496 11H1V1H11V4.08496ZM2 10H4.98047L5.02148 10.4551C5.25114 13.003 7.39223 15 10 15C12.7614 15 15 12.7614 15 10C15 7.39223 13.003 5.25114 10.4551 5.02148L10 4.98047V2H2V10Z" fill="black"/>
</g>
</g>
</svg>
