<svg width="16" height="16" viewBox="0 0 16 16" fill="none" xmlns="http://www.w3.org/2000/svg">
<g id="path-tweak-shrink">
<g id=".path-tweak-shrink" clip-path="url(#clip0_3684_42522)">
<path id="Vector" opacity="0.3" d="M0.621453 4H0.000976562L0 13H0.620596C1.19932 13 1.77115 12.8744 2.29662 12.6319L5.48577 11.1602C7.08107 10.4241 8.9189 10.4241 10.5142 11.1604L13.7023 12.6318C14.2278 12.8744 14.7997 13 15.3785 13H16L16.001 4H15.3794C14.8007 4 14.2288 4.12558 13.7034 4.36807L10.5142 5.83976C8.91892 6.57595 7.0811 6.57589 5.48584 5.83962L2.29769 4.36816C1.77216 4.12561 1.20025 4 0.621453 4Z" fill="black"/>
<path id="Subtract" d="M5.27734 11.2061C7.00549 10.4086 8.9965 10.4085 10.7246 11.2061L13.9131 12.6777C14.3729 12.8899 14.8735 13 15.3799 13H16.001C16.2771 13 16.501 13.2239 16.501 13.5C16.501 13.7761 16.2771 14 16.001 14H15.3799C14.7289 14 14.0853 13.8587 13.4941 13.5859L10.3057 12.1143C8.84335 11.4393 7.15865 11.4394 5.69629 12.1143L2.50684 13.5859C1.91574 13.8587 1.27208 14 0.621094 14H0.000976562C-0.275166 14 -0.499023 13.7761 -0.499023 13.5C-0.499023 13.2239 -0.275166 13 0.000976562 13H0.621094C1.12744 13 1.62813 12.8899 2.08789 12.6777L5.27734 11.2061ZM0.620117 3C1.27114 3 1.91474 3.1413 2.50586 3.41406L5.69434 4.88574C7.15665 5.56066 8.84135 5.56057 10.3037 4.88574L13.4932 3.41406C14.0843 3.14133 14.7279 3 15.3789 3H16C16.2761 3 16.5 3.22386 16.5 3.5C16.5 3.77614 16.2761 4 16 4H15.3789C14.8726 4 14.3719 4.11012 13.9121 4.32227L10.7227 5.79395C8.99451 6.59138 7.0035 6.59147 5.27539 5.79395L2.08691 4.32227C1.62713 4.11009 1.1265 4 0.620117 4H0C-0.276142 4 -0.5 3.77614 -0.5 3.5C-0.5 3.22386 -0.276142 3 0 3H0.620117Z" fill="black"/>
</g>
</g>
<defs>
<clipPath id="clip0_3684_42522">
<rect width="16" height="16" fill="white"/>
</clipPath>
</defs>
</svg>
