<svg width="16" height="16" viewBox="0 0 16 16" fill="none" xmlns="http://www.w3.org/2000/svg">
<g id="path-tweak-roughen">
<g id=".path-tweak-roughen" clip-path="url(#clip0_3684_42520)">
<path id="Union" opacity="0.3" d="M13.001 7.99976L16.5 3.49976V8.49976L13.001 11.9998L8.00098 6.99976L5 12.9998L2.00098 8.99976L-0.5 12.4998V8.49976L2.00098 4.99976L5 8.99976L8.00098 2.49976L13.001 7.99976Z" fill="black"/>
<path id="Union_2" d="M12.9707 7.22339L16.1055 3.19312L17 2.04175V8.70679L16.8535 8.85327L13.3545 12.3533L13.001 12.7068L8.1377 7.84351L5.44727 13.2234L5.08496 13.947L4.59961 13.2996L2.01074 9.84644L-0.0927734 12.7908L-1 14.0593V8.3396L-0.907227 8.20874L1.59375 4.70874L1.99121 4.15308L2.40137 4.69995L4.89648 8.02808L7.54688 2.28979L7.86328 1.60522L12.9707 7.22339ZM5.4541 9.20972L5.10254 9.97046L4.59961 9.29956L2.01074 5.84644L0 8.66089V10.9382L1.59375 8.70874L1.99121 8.15308L2.40137 8.69995L4.91406 12.0515L7.55371 6.77612L7.86426 6.15601L13 11.2917L16 8.29272V4.95679L13.3955 8.3064L13.0312 8.77612L8.13867 3.39429L5.4541 9.20972Z" fill="black"/>
</g>
</g>
<defs>
<clipPath id="clip0_3684_42520">
<rect width="16" height="16" fill="white"/>
</clipPath>
</defs>
</svg>
