<svg width="16" height="16" viewBox="0 0 16 16" fill="none" xmlns="http://www.w3.org/2000/svg">
<g id="path-cut">
<g id=".boolean-cut" clip-path="url(#clip0_3684_42696)">
<path id="Subtract" d="M12 4.3418C14.3303 5.16548 16 7.38761 16 10C16 13.3137 13.3137 16 10 16C7.38772 16 5.16655 14.3302 4.34277 12H5.41699C6.18861 13.7657 7.94981 15 10 15C12.7614 15 15 12.7614 15 10C15 7.94967 13.7659 6.18755 12 5.41602V4.3418ZM9 5.09961C7.0409 5.49727 5.49832 7.04093 5.10059 9H4.08496C4.5066 6.48774 6.48772 4.50556 9 4.08398V5.09961Z" fill="black"/>
<path id="Union" opacity="0.3" d="M11.0803 11.0803H0.968994V0.968994H11.0803V11.0803ZM2.08032 9.96899H9.96899V2.08032H2.08032V9.96899Z" fill="black"/>
</g>
</g>
<defs>
<clipPath id="clip0_3684_42696">
<rect width="16" height="16" fill="white"/>
</clipPath>
</defs>
</svg>
