<svg width="16" height="16" viewBox="0 0 16 16" fill="none" xmlns="http://www.w3.org/2000/svg">
<g id="path-break-apart">
<g id=".boolean-break-apart">
<path id="Union" d="M12 4.3418C14.3303 5.1655 16 7.38763 16 10C16 13.3137 13.3137 16 10 16C7.38774 16 5.16656 14.3301 4.34277 12H5.41699C6.18862 13.7657 7.94984 15 10 15C12.7614 15 15 12.7614 15 10C15 7.9497 13.7659 6.18756 12 5.41602V4.3418ZM11 11H1V1H11V11ZM2 10H10V2H2V10ZM9 5.09961C7.0409 5.49727 5.49832 7.04093 5.10059 9H4.08496C4.5066 6.48774 6.48772 4.50556 9 4.08398V5.09961Z" fill="black"/>
</g>
</g>
</svg>
