<svg width="16" height="16" viewBox="0 0 16 16" fill="none" xmlns="http://www.w3.org/2000/svg">
<g id="powerstroke">
<g id=".stroke-powerstroke" clip-path="url(#clip0_3684_42537)">
<path id="Subtract" opacity="0.25" d="M3.99902 0C7.99902 0 11.001 2.5 11.001 6V10C11.001 12.5 12.5 15 15 15V16H12C8 16 5.00098 13.5 5.00098 10V6C5.00098 3.5 3.5 1 1 1V0H3.99902ZM8 7C7.44772 7 7 7.44772 7 8C7 8.55228 7.44772 9 8 9C8.55228 9 9 8.55228 9 8C9 7.44772 8.55228 7 8 7Z" fill="black"/>
<path id="Union" d="M3.00098 0C6.03854 0 8.50098 2.46243 8.50098 5.5V6.06543C8.49937 6.06502 8.4977 6.06486 8.49609 6.06445C9.36086 6.285 10.001 7.06656 10.001 8C10.001 8.93162 9.36317 9.71129 8.50098 9.93359V10.5C8.50098 12.9853 10.5157 15 13.001 15H15.001V16H13.001C9.96341 16 7.50098 13.5376 7.50098 10.5V9.93359C6.63878 9.71129 6.00098 8.93162 6.00098 8C6.00098 7.06689 6.64059 6.28532 7.50488 6.06445C7.50358 6.06479 7.50228 6.06509 7.50098 6.06543V5.5C7.50098 3.01472 5.48626 1 3.00098 1H1.00098V0H3.00098ZM2.00098 10L0.000976562 8L2.00098 6V10ZM16.001 8L14.001 10V6L16.001 8ZM8.00098 7C7.44869 7 7.00098 7.44772 7.00098 8C7.00098 8.55229 7.44869 9 8.00098 9C8.55326 9 9.00098 8.55229 9.00098 8C9.00098 7.44772 8.55326 7 8.00098 7Z" fill="black"/>
</g>
</g>
<defs>
<clipPath id="clip0_3684_42537">
<rect width="16" height="16" fill="white"/>
</clipPath>
</defs>
</svg>
