<svg width="16" height="16" viewBox="0 0 16 16" fill="none" xmlns="http://www.w3.org/2000/svg">
<g id="powerclip">
<g id=".scissors-clip">
<path id="Subtract" d="M2.55273 1.27637L2.33984 1.70117C1.73874 2.9036 1.87974 4.34483 2.70215 5.4082L5.88867 9.52441L5.05957 10.5479C4.63189 10.2058 4.09026 10 3.5 10C2.11933 10 1.00007 11.1193 1 12.5C1.00008 13.8806 2.11934 15 3.5 15C4.88066 15 5.99992 13.8806 6 12.5C5.99999 12.283 5.96996 12.0729 5.91797 11.8721L8 9.2998V7.13477L3.39551 1.19336L2.9082 0.56543L2.55273 1.27637ZM3.5 11.5C4.05224 11.5 4.49993 11.9478 4.5 12.5C4.49992 13.0522 4.05224 13.5 3.5 13.5C2.94776 13.5 2.50008 13.0522 2.5 12.5C2.50007 11.9478 2.94776 11.5 3.5 11.5ZM7.26758 7.82129L6.53516 8.72656L3.49316 4.7959C2.97432 4.1248 2.83657 3.24356 3.10742 2.45508L7.26758 7.82129Z" fill="black"/>
<rect id="rectangle" opacity="0.2" width="5" height="12" transform="matrix(-1 0 0 1 15 2)" fill="black"/>
<path id="shape" d="M8 15H9V1H8V15Z" fill="black"/>
</g>
</g>
</svg>
