<svg width="16" height="16" viewBox="0 0 16 16" fill="none" xmlns="http://www.w3.org/2000/svg">
<g id="preferences-system">
<g id=".wrench">
<path id="Union" d="M6.5 1.5C9.26142 1.5 11.5 3.73858 11.5 6.5C11.5 7.14414 11.3757 7.75942 11.1533 8.3252L14.4141 11.5859C15.1951 12.367 15.1951 13.633 14.4141 14.4141C13.633 15.1951 12.367 15.1951 11.5859 14.4141L8.3252 11.1533C7.75942 11.3757 7.14414 11.5 6.5 11.5C3.73858 11.5 1.5 9.26142 1.5 6.5C1.5 5.94194 1.593 5.40545 1.76172 4.9043L2.01855 4.13965L5.58594 7.70703L7.70703 5.58594L4.13965 2.01855L4.9043 1.76172C5.40545 1.593 5.94194 1.5 6.5 1.5ZM6.5 2.5C6.35168 2.5 6.20557 2.51051 6.06152 2.52637L9.12109 5.58594L5.58594 9.12109L2.52637 6.06152C2.51051 6.20557 2.5 6.35168 2.5 6.5C2.5 8.70914 4.29086 10.5 6.5 10.5C7.11783 10.5 7.70167 10.3591 8.22363 10.1094L8.54297 9.95703L12.293 13.707C12.6835 14.0976 13.3165 14.0976 13.707 13.707C14.0976 13.3165 14.0976 12.6835 13.707 12.293L9.95703 8.54297L10.1094 8.22363C10.3591 7.70167 10.5 7.11783 10.5 6.5C10.5 4.29086 8.70914 2.5 6.5 2.5Z" fill="black"/>
</g>
</g>
</svg>
