<svg width="16" height="16" viewBox="0 0 16 16" fill="none" xmlns="http://www.w3.org/2000/svg">
<g id="pts2ellipse">
<g id=".circle-points-three">
<path id="shape" d="M6.79956 1.104C6.61239 1.35427 6.49976 1.66393 6.49976 2.00049C6.49977 2.06341 6.50589 2.12515 6.51343 2.18603C3.9187 2.84736 1.99976 5.19984 1.99976 8.00049C1.99979 8.67081 2.11234 9.31458 2.31519 9.9165C1.96754 10.0953 1.69969 10.4053 1.57593 10.7817C1.20621 9.92908 0.999801 8.98903 0.999756 8.00049C0.999756 4.54379 3.50552 1.67327 6.79956 1.104ZM13.1472 12.7427C11.8681 14.1303 10.0358 15.0005 7.99976 15.0005C5.96397 15.0005 4.13236 14.13 2.85327 12.7427C2.90148 12.7473 2.95032 12.7505 2.99976 12.7505C3.35641 12.7505 3.68372 12.6254 3.94116 12.4175C5.00952 13.3996 6.43418 14.0005 7.99976 14.0005C9.56559 14.0005 10.9909 13.3999 12.0593 12.4175C12.3167 12.6251 12.6434 12.7505 12.9998 12.7505C13.0495 12.7505 13.0987 12.7474 13.1472 12.7427ZM14.9998 8.00049C14.9997 8.9889 14.7942 9.92918 14.4246 10.7817C14.3009 10.4055 14.0327 10.0954 13.6853 9.9165C13.8881 9.31466 13.9997 8.6707 13.9998 8.00049C13.9998 5.20017 12.0813 2.84768 9.48706 2.18603C9.49459 2.12519 9.49974 2.06337 9.49976 2.00049C9.49976 1.66414 9.38789 1.35419 9.20093 1.104C12.4945 1.67366 14.9998 4.54412 14.9998 8.00049Z" fill="black"/>
<path id="Union" d="M4.99976 11.25C4.99976 12.3546 4.10432 13.25 2.99976 13.25C1.89519 13.25 0.999755 12.3546 0.999755 11.25C0.999755 10.1454 1.89519 9.25 2.99976 9.25C4.10432 9.25 4.99976 10.1454 4.99976 11.25ZM3.99976 11.25C3.99976 10.6977 3.55204 10.25 2.99976 10.25C2.44747 10.25 1.99976 10.6977 1.99976 11.25C1.99976 11.8023 2.44747 12.25 2.99976 12.25C3.55204 12.25 3.99976 11.8023 3.99976 11.25ZM9.99976 2C9.99976 3.10457 9.10433 4 7.99976 4C6.89519 4 5.99976 3.10457 5.99976 2C5.99976 0.89543 6.89519 -3.54262e-07 7.99976 -3.0598e-07C9.10433 -2.57697e-07 9.99976 0.89543 9.99976 2ZM8.99976 2C8.99976 1.44772 8.55204 1 7.99976 1C7.44747 1 6.99976 1.44771 6.99976 2C6.99976 2.55228 7.44747 3 7.99976 3C8.55204 3 8.99976 2.55228 8.99976 2ZM14.9998 11.25C14.9998 12.3546 14.1043 13.25 12.9998 13.25C11.8952 13.25 10.9998 12.3546 10.9998 11.25C10.9998 10.1454 11.8952 9.25 12.9998 9.25C14.1043 9.25 14.9998 10.1454 14.9998 11.25ZM13.9998 11.25C13.9998 10.6977 13.552 10.25 12.9998 10.25C12.4475 10.25 11.9998 10.6977 11.9998 11.25C11.9998 11.8023 12.4475 12.25 12.9998 12.25C13.552 12.25 13.9998 11.8023 13.9998 11.25Z" fill="black"/>
</g>
</g>
</svg>
