<svg width="16" height="16" viewBox="0 0 16 16" fill="none" xmlns="http://www.w3.org/2000/svg">
<g id="rectangle-make-corners-sharp">
<g id=".path-corner-sharp" clip-path="url(#clip0_3684_42703)">
<path id="Union" d="M13.5 0C14.8807 0 16 1.11929 16 2.5C16 3.70943 15.141 4.71753 14 4.94922V16H13V4.94922C12.0205 4.75033 11.2486 3.97953 11.0498 3H0V2H11.0498C11.2814 0.85886 12.2905 0 13.5 0ZM13.5 1C12.8471 1 12.293 1.41766 12.0869 2C12.0746 2.03491 12.0636 2.07044 12.0537 2.10645C12.0196 2.23198 12 2.36367 12 2.5C12 3.15281 12.4178 3.70597 13 3.91211C13.1148 3.95277 13.2358 3.97999 13.3613 3.99219C13.407 3.99638 13.4532 4 13.5 4C13.5465 4 13.5923 3.99632 13.6377 3.99219C13.7636 3.98004 13.8849 3.95288 14 3.91211C14.5822 3.70597 15 3.15281 15 2.5C15 1.67157 14.3284 1 13.5 1Z" fill="black"/>
</g>
</g>
<defs>
<clipPath id="clip0_3684_42703">
<rect width="16" height="16" fill="white"/>
</clipPath>
</defs>
</svg>
