<svg width="16" height="16" viewBox="0 0 16 16" fill="none" xmlns="http://www.w3.org/2000/svg">
<g id="rectangle-make-corners-round">
<g id=".path-corner-radius" clip-path="url(#clip0_3684_42596)">
<path id="Union" d="M6.5 0C7.76803 0 8.81305 0.944379 8.97559 2.16797C11.38 2.72609 13.2716 4.61908 13.8301 7.02344C15.0547 7.18508 16 8.23127 16 9.5C16 10.7094 15.141 11.7175 14 11.9492V16H13V11.9492C11.859 11.7175 11 10.7094 11 9.5C11 8.3565 11.7683 7.39423 12.8164 7.09668C12.3139 5.18727 10.8127 3.68409 8.90332 3.18164C8.60637 4.2307 7.64416 5 6.5 5C5.29051 5 4.28142 4.14114 4.0498 3H0V2H4.0498C4.28142 0.85886 5.29051 0 6.5 0ZM13.5 8C12.6716 8 12 8.67157 12 9.5C12 10.3284 12.6716 11 13.5 11C14.3284 11 15 10.3284 15 9.5C15 8.67157 14.3284 8 13.5 8ZM6.5 1C5.67157 1 5 1.67157 5 2.5C5 3.32843 5.67157 4 6.5 4C7.32843 4 8 3.32843 8 2.5C8 1.67157 7.32843 1 6.5 1Z" fill="black"/>
</g>
</g>
<defs>
<clipPath id="clip0_3684_42596">
<rect width="16" height="16" fill="white"/>
</clipPath>
</defs>
</svg>
