<svg width="16" height="16" viewBox="0 0 16 16" fill="none" xmlns="http://www.w3.org/2000/svg">
<g id="reset">
<g id=".power">
<path id="Union" d="M11.7695 2.10059C13.7111 3.34363 14.9999 5.5214 15 8C14.9998 11.8658 11.8659 15 8 15C4.13412 15 1.00018 11.8658 1 8C1.00012 5.5214 2.28893 3.34363 4.23047 2.10059L4.76953 2.94238C3.10296 4.00937 2.00012 5.87648 2 8C2.00018 11.3136 4.6864 14 8 14C11.3136 14 13.9998 11.3136 14 8C13.9999 5.87648 12.897 4.00937 11.2305 2.94238L11.7695 2.10059ZM8.5 8H7.5V1H8.5V8Z" fill="black"/>
</g>
</g>
</svg>
