<svg width="16" height="16" viewBox="0 0 16 16" fill="none" xmlns="http://www.w3.org/2000/svg">
<g id="reset-settings">
<g id=".arrow-circle-counterclockwise">
<path id="Union" d="M8 2C4.68629 2 2 4.68629 2 8V9.29297L0.853516 8.14648L0.146484 8.85352L2.5 11.207L4.85352 8.85352L4.14648 8.14648L3 9.29297V8C3 5.23858 5.23858 3 8 3C10.7614 3 13 5.23858 13 8C13 10.7614 10.7614 13 8 13C6.98057 13 6.03525 12.6921 5.24512 12.1689L4.56836 12.8457L4.53223 12.8965C5.51153 13.5911 6.70882 14 8 14C11.3137 14 14 11.3137 14 8C14 4.68629 11.3137 2 8 2Z" fill="black"/>
</g>
</g>
</svg>
