<svg width="16" height="16" viewBox="0 0 16 16" fill="none" xmlns="http://www.w3.org/2000/svg">
<g id="rotate-canvas">
<g id=".arrows-rotate-counterclockwise">
<path id="Union" d="M15.8535 8.64648L15.1465 9.35352L14 8.20703V9.5C14 11.9853 11.9853 14 9.5 14H6V13H9.5C11.433 13 13 11.433 13 9.5V8.20703L11.8535 9.35352L11.1465 8.64648L13.5 6.29297L15.8535 8.64648ZM10 3H6.5C4.56702 3.00002 3 4.56702 3 6.5V7.79297L4.14648 6.64648L4.85352 7.35352L2.5 9.70703L0.146484 7.35352L0.853516 6.64648L2 7.79297V6.5C2 4.01473 4.01474 2.00002 6.5 2H10V3ZM8 7C8.55229 7 9 7.44772 9 8C9 8.55228 8.55229 9 8 9C7.44773 8.99998 7 8.55227 7 8C7 7.44773 7.44773 7.00002 8 7Z" fill="black"/>
</g>
</g>
</svg>
