<svg width="16" height="16" viewBox="0 0 16 16" fill="none" xmlns="http://www.w3.org/2000/svg">
<g id="roughen">
<g id=".path-tweak-roughen" clip-path="url(#clip0_3684_42524)">
<path id="Union" opacity="0.3" d="M13.001 8L16.5 3.5V8.5L13.001 12L8.00098 7L5 13L2.00098 9L-0.5 12.5V8.5L2.00098 5L5 9L8.00098 2.5L13.001 8Z" fill="black"/>
<path id="Union_2" d="M12.9707 7.22363L16.1055 3.19336L17 2.04199V8.70703L16.8535 8.85352L13.3545 12.3535L13.001 12.707L8.1377 7.84375L5.44727 13.2236L5.08496 13.9473L4.59961 13.2998L2.01074 9.84668L-0.0927734 12.791L-1 14.0596V8.33984L-0.907227 8.20898L1.59375 4.70898L1.99121 4.15332L2.40137 4.7002L4.89648 8.02832L7.54688 2.29004L7.86328 1.60547L12.9707 7.22363ZM5.4541 9.20996L5.10254 9.9707L4.59961 9.2998L2.01074 5.84668L0 8.66113V10.9385L1.59375 8.70898L1.99121 8.15332L2.40137 8.7002L4.91406 12.0518L7.55371 6.77637L7.86426 6.15625L13 11.292L16 8.29297V4.95703L13.3955 8.30664L13.0312 8.77637L8.13867 3.39453L5.4541 9.20996Z" fill="black"/>
</g>
</g>
<defs>
<clipPath id="clip0_3684_42524">
<rect width="16" height="16" fill="white"/>
</clipPath>
</defs>
</svg>
