<svg width="16" height="16" viewBox="0 0 16 16" fill="none" xmlns="http://www.w3.org/2000/svg">
<g id="rounding">
<g id=".math-rounding">
<path id="Union" d="M12 11H13.0869C13.1429 10.8415 13.225 10.6898 13.3359 10.5537L13.4395 10.4395C14.0252 9.8538 14.9748 9.8538 15.5605 10.4395C16.1463 11.0252 16.1462 11.9748 15.5605 12.5605C15.0115 13.1096 14.1429 13.1442 13.5537 12.6641L13.4395 12.5605C13.2758 12.3969 13.1582 12.2046 13.0859 12H12V13.0869C12.2045 13.1591 12.397 13.2759 12.5605 13.4395C13.1463 14.0252 13.1462 14.9748 12.5605 15.5605C12.0115 16.1096 11.1429 16.1442 10.5537 15.6641L10.4395 15.5605C9.89052 15.0115 9.85585 14.1428 10.3359 13.5537L10.4395 13.4395C10.603 13.2759 10.7955 13.1591 11 13.0869V12H8V11H11V8H12V11ZM11.9951 14.0049C11.7218 13.7316 11.2782 13.7316 11.0049 14.0049C10.7316 14.2782 10.7316 14.7217 11.0049 14.9951C11.2782 15.2685 11.7218 15.2685 11.9951 14.9951C12.2684 14.7217 12.2685 14.2782 11.9951 14.0049ZM14.9951 11.0049C14.7218 10.7316 14.2782 10.7316 14.0049 11.0049C13.7316 11.2782 13.7316 11.7217 14.0049 11.9951C14.2782 12.2685 14.7218 12.2685 14.9951 11.9951C15.2684 11.7217 15.2685 11.2782 14.9951 11.0049ZM3.37793 9H1.99414V3.76855H1.95605L0.457031 4.70801V3.48047L2.07715 2.45508H3.37793V9ZM7.18359 2.36523C7.65234 2.36523 8.0609 2.44806 8.4082 2.61426C8.75758 2.77832 9.02879 3.00696 9.22266 3.29883C9.41645 3.59063 9.51363 3.92479 9.51367 4.30176C9.51367 4.54892 9.4652 4.79341 9.36719 5.03418C9.27133 5.27485 9.09955 5.54204 8.85254 5.83594C8.60538 6.12784 8.25621 6.4786 7.80664 6.8877L6.85156 7.82422V7.86914H9.59961V9H4.93359V8.00293L7.26367 5.8457C7.46183 5.65394 7.62846 5.48153 7.7627 5.32812C7.89902 5.17474 8.00197 5.02395 8.07227 4.87695C8.1425 4.72788 8.17773 4.56702 8.17773 4.39453C8.17771 4.20289 8.13416 4.03784 8.04688 3.89941C7.95952 3.75879 7.83976 3.65075 7.68848 3.57617C7.5373 3.49961 7.36541 3.46191 7.17383 3.46191C6.97381 3.46197 6.79939 3.50216 6.65039 3.58301C6.50124 3.66397 6.38565 3.78036 6.30469 3.93164C6.22386 4.08284 6.18359 4.26305 6.18359 4.47168H4.87012C4.87012 4.04349 4.96731 3.67175 5.16113 3.35645C5.355 3.04114 5.62621 2.79661 5.97559 2.62402C6.32495 2.45147 6.72774 2.36527 7.18359 2.36523Z" fill="black"/>
</g>
</g>
</svg>
