<svg width="16" height="16" viewBox="0 0 16 16" fill="none" xmlns="http://www.w3.org/2000/svg">
<g id="ruler">
<g id=".path-to-ruler">
<path id="Union" d="M11.6592 1.12695L10.9717 2.78809C11.321 2.98769 11.6484 3.2211 11.9492 3.48438L12.9492 2.48438L13.5156 3.05078L12.5156 4.05078C12.7791 4.35171 13.0132 4.67882 13.2129 5.02832L14.873 4.34082L15.4473 5.72754L13.7881 6.41504C13.8922 6.7961 13.9585 7.19232 13.9854 7.59961H15.4004V8.40039H13.9854C13.9586 8.80738 13.892 9.20317 13.7881 9.58398L15.4473 10.2725L14.873 11.6592L13.2129 10.9707C13.0131 11.3205 12.7792 11.648 12.5156 11.9492L13.5156 12.9502L12.9492 13.5156L11.9502 12.5146C11.6491 12.7784 11.3215 13.012 10.9717 13.2119L11.6592 14.873L10.2725 15.4473L9.58594 13.7871C9.20446 13.8914 8.80816 13.9595 8.40039 13.9863V15.4004H7.59961V13.9863C7.39675 13.973 7.19674 13.9493 7 13.916V13.915C4.16248 13.4388 2.00005 10.9728 2 8C2.00002 5.02709 4.16239 2.56013 7 2.08398V2.08496C7.19679 2.05192 7.39676 2.02802 7.59961 2.01465V0.599609H8.40039V2.01465C8.80774 2.04148 9.20384 2.10877 9.58496 2.21289L10.2725 0.552734L11.6592 1.12695ZM8 3C7.6575 3 7.32314 3.03498 7 3.10059V3.09961C4.71774 3.56285 3.00002 5.58104 3 8C3.00005 10.4189 4.71785 12.4361 7 12.8994L7.24414 12.9424C7.49066 12.9799 7.74301 13 8 13C10.7614 13 13 10.7614 13 8C13 5.23858 10.7614 3 8 3Z" fill="black"/>
</g>
</g>
</svg>
