<svg width="16" height="16" viewBox="0 0 16 16" fill="none" xmlns="http://www.w3.org/2000/svg">
<g id="selection-move-to-layer-above">
<g id=".layer-move-above">
<path id="Subtract" d="M3.33203 5.78027L2.16309 5L7.5 1.44336L12.8359 5L11.668 5.7793L12.75 6.5L15 5L7.5 0L0 5L2.25 6.50098L3.33203 5.78027Z" fill="black"/>
<path id="Union" d="M4.00098 15.0005H5.00098V16.0005H3.00098V14.0005H4.00098V15.0005ZM7.00098 16.0005H6.00098V15.0005H7.00098V16.0005ZM9.00098 16.0005H8.00098V15.0005H9.00098V16.0005ZM12.001 16.0005H10.001V15.0005H11.001V14.0005H12.001V16.0005ZM4.00098 13.0005H3.00098V12.0005H4.00098V13.0005ZM12.001 13.0005H11.001V12.0005H12.001V13.0005ZM10.208 6.49854L9.50098 7.20557L8.00098 5.70557V11.9985H7.00098V5.70557L5.50098 7.20557L4.79395 6.49854L7.50098 3.7915L10.208 6.49854ZM5.00098 10.0005H4.00098V11.0005H3.00098V9.00049H5.00098V10.0005ZM12.001 11.0005H11.001V10.0005H10.001V9.00049H12.001V11.0005Z" fill="black"/>
</g>
</g>
</svg>
