<svg width="16" height="16" viewBox="0 0 16 16" fill="none" xmlns="http://www.w3.org/2000/svg">
<g id="selection-move-to-layer-below">
<g id=".layer-move-below">
<path id="Subtract" d="M11.668 10.2202L12.8369 11.0005L7.5 14.5571L2.16406 11.0005L3.33203 10.2212L2.25 9.50049L-1.3122e-07 11.0005L7.5 16.0005L15 11.0005L12.75 9.49951L11.668 10.2202Z" fill="black"/>
<path id="Union" d="M10.999 1L9.99902 1L9.99902 -1.74846e-07L11.999 0L11.999 2L10.999 2L10.999 1ZM7.99902 -3.49691e-07L8.99902 -2.62268e-07L8.99902 1L7.99902 1L7.99902 -3.49691e-07ZM5.99902 -5.24537e-07L6.99902 -4.37114e-07L6.99902 1L5.99902 0.999999L5.99902 -5.24537e-07ZM2.99902 -7.86805e-07L4.99902 -6.11959e-07L4.99902 0.999999L3.99902 0.999999L3.99902 2L2.99902 2L2.99902 -7.86805e-07ZM10.999 3L11.999 3L11.999 4L10.999 4L10.999 3ZM2.99902 3L3.99902 3L3.99902 4L2.99902 4L2.99902 3ZM4.79199 9.50195L5.49902 8.79492L6.99902 10.2949L6.99902 4.00195L7.99902 4.00195L7.99902 10.2949L9.49902 8.79492L10.2061 9.50195L7.49902 12.209L4.79199 9.50195ZM9.99902 6L10.999 6L10.999 5L11.999 5L11.999 7L9.99902 7L9.99902 6ZM2.99902 5L3.99902 5L3.99902 6L4.99902 6L4.99902 7L2.99902 7L2.99902 5Z" fill="black"/>
</g>
</g>
</svg>
