<svg width="16" height="16" viewBox="0 0 16 16" fill="none" xmlns="http://www.w3.org/2000/svg">
<g id="selection-move-to-layer">
<g id=".layer-move-right">
<path id="Union" d="M15.207 7.5L12.5 10.207L11.793 9.5L13.293 8H7V7H13.293L11.793 5.5L12.5 4.79297L15.207 7.5Z" fill="black"/>
<path id="Union_2" d="M2 12H3V13H1V11H2V12ZM5 13H4V12H5V13ZM7 13H6V12H7V13ZM10 13H8V12H9V11H10V13ZM2 10H1V9H2V10ZM2 8H1V7H2V8ZM2 6H1V5H2V6ZM3 3H2V4H1V2H3V3ZM10 4H9V3H8V2H10V4ZM5 3H4V2H5V3ZM7 3H6V2H7V3Z" fill="black"/>
</g>
</g>
</svg>
