<svg width="16" height="16" viewBox="0 0 16 16" fill="none" xmlns="http://www.w3.org/2000/svg">
<g id="shapebuilder-tool-union">
<g id=".boolean-add">
<path id="Union" d="M10.5 4.52344H10V4.9804L10.4551 5.02142L10.5 4.52344ZM4.52344 10.5L5.02142 10.4551L4.9804 10H4.52344V10.5ZM1.5 10.5H1V11H1.5V10.5ZM1.5 1.5V1H1V1.5H1.5ZM10.5 1.5H11V1H10.5V1.5ZM10.5 4.52344L10.4551 5.02142C13.0031 5.25107 15 7.39223 15 10H15.5H16C16 6.86979 13.6033 4.30112 10.5449 4.02546L10.5 4.52344ZM15.5 10H15C15 12.7614 12.7614 15 10 15V15.5V16C13.3137 16 16 13.3137 16 10H15.5ZM10 15.5V15C7.39223 15 5.25107 13.0031 5.02142 10.4551L4.52344 10.5L4.02546 10.5449C4.30112 13.6033 6.86979 16 10 16V15.5ZM4.52344 10.5V10H1.5V10.5V11H4.52344V10.5ZM1.5 10.5H2V1.5H1.5H1V10.5H1.5ZM1.5 1.5V2H10.5V1.5V1H1.5V1.5ZM10.5 1.5H10V4.52344H10.5H11V1.5H10.5Z" fill="black"/>
<g id=".math-sign-plus">
<path id="Union_2" d="M10.5 9.5H12.75V10.5H10.5V12.75H9.5V10.5H7.25V9.5H9.5V7.25H10.5V9.5Z" fill="black"/>
</g>
</g>
</g>
</svg>
