<svg width="16" height="16" viewBox="0 0 16 16" fill="none" xmlns="http://www.w3.org/2000/svg">
<g id="shapebuilder-tool-difference">
<g id=".boolean-subtract">
<path id="Union" d="M11 4.08398C10.9922 4.08267 10.9844 4.08136 10.9766 4.08008C13.8257 4.54653 16 7.01888 16 10C16 13.3137 13.3137 16 10 16C7.02712 16 4.56117 13.8376 4.08496 11H1V1H11V4.08398ZM10 5C7.23858 5 5 7.23858 5 10C5 12.7614 7.23858 15 10 15C12.7614 15 15 12.7614 15 10C15 7.23858 12.7614 5 10 5ZM12.75 10.5H7.25V9.5H12.75V10.5ZM2 10H4C4 6.68629 6.68629 4 10 4V2H2V10Z" fill="black"/>
</g>
</g>
</svg>
