<svg width="16" height="16" viewBox="0 0 16 16" fill="none" xmlns="http://www.w3.org/2000/svg">
<g id="shape-star">
<g id=".star">
<path id="Union" d="M10.0156 5.99561H15L15.2939 6.8999L11.2617 9.82959L12.8018 14.5698L12.0322 15.1294L8 12.1987L3.96777 15.1294L3.19824 14.5698L4.7373 9.82959L0.706055 6.8999L1 5.99561H5.98438L7.52441 1.25537H8.47559L10.0156 5.99561ZM6.82324 6.6499L6.71094 6.99561H2.53906L5.62012 9.23389L5.91406 9.44775L5.80176 9.79346L4.625 13.4146L7.70605 11.1763L8 10.9634L8.29395 11.1763L11.374 13.4146L10.1982 9.79346L10.0859 9.44775L10.3799 9.23389L13.4609 6.99561H9.28906L9.17676 6.6499L8 3.02686L6.82324 6.6499Z" fill="black"/>
</g>
</g>
</svg>
