<svg width="16" height="16" viewBox="0 0 16 16" fill="none" xmlns="http://www.w3.org/2000/svg">
<g id="shape-link">
<g id=".link-diagonal" clip-path="url(#clip0_3684_42405)">
<path id="Union" d="M9.20689 12.7927C10.197 13.7828 11.8026 13.7833 12.7928 12.7934C13.783 11.8032 13.783 10.1969 12.7928 9.20673L11.293 7.70689L12.0001 6.99979L13.4999 8.49963L13.6256 8.63221C14.8793 10.0201 14.8374 12.163 13.4999 13.5005L13.368 13.6255C11.9802 14.8794 9.83733 14.8373 8.49978 13.4998L6.99994 11.9999L7.70705 11.2928L9.20689 12.7927ZM10.7074 10.0008L10.0003 10.708L5.29294 6.00058L6.00005 5.29348L10.7074 10.0008ZM2.49973 2.50027C3.88036 1.11965 6.11916 1.11913 7.49989 2.49958L9.00042 4.00011L8.29331 4.70721L6.79278 3.20668C5.80257 2.21677 4.19694 2.21728 3.20684 3.20737C2.21701 4.19749 2.21701 5.8025 3.20684 6.79263L4.70737 8.29316L4.00026 9.00026L2.49973 7.49973C1.11938 6.11909 1.11938 3.88091 2.49973 2.50027Z" fill="black"/>
</g>
</g>
<defs>
<clipPath id="clip0_3684_42405">
<rect width="16" height="16" fill="white"/>
</clipPath>
</defs>
</svg>
