<svg width="16" height="16" viewBox="0 0 16 16" fill="none" xmlns="http://www.w3.org/2000/svg">
<g id="shape-spiral">
<g id=".spiral">
<path id="Union" d="M3.34717 3.48096C6.43691 0.972836 10.996 1.80125 13.3569 4.81689C15.1526 7.11101 15.4734 10.2746 14.3296 12.9155L14.1313 13.3745L13.2134 12.9771L13.4126 12.5181L13.5034 12.2993C14.3998 10.0223 14.0785 7.36055 12.5698 5.43311C10.5127 2.80549 6.58283 2.14198 3.97705 4.25732C1.81286 6.01429 1.28897 9.3209 3.09326 11.4634C4.5394 13.1798 7.20074 13.5646 8.86182 12.0659C10.1281 10.9232 10.3712 8.88489 9.19092 7.69775C8.79432 7.29912 8.22973 7.05132 7.67432 7.02393C7.12698 6.99712 6.61543 7.18271 6.26221 7.61377C6.07862 7.83811 5.95994 8.18362 5.97314 8.49854C5.98431 8.7609 6.07992 8.95288 6.25635 9.06689L6.33643 9.11084L6.7915 9.31885L6.37451 10.228L5.91943 10.019C5.26594 9.71871 4.99835 9.11286 4.97412 8.54053C4.95066 7.98336 5.1475 7.39673 5.48877 6.97998C6.07523 6.26427 6.9146 5.98509 7.72412 6.0249C8.5255 6.06448 9.32661 6.41528 9.90088 6.99268C11.57 8.67193 11.125 11.3702 9.53174 12.8081C7.38072 14.7488 4.07541 14.1806 2.32861 12.1069C0.115961 9.4796 0.808772 5.5416 3.34717 3.48096Z" fill="black"/>
</g>
</g>
</svg>
