<svg width="16" height="16" viewBox="0 0 16 16" fill="none" xmlns="http://www.w3.org/2000/svg">
<g id="shape-ellipse">
<g id=".ellipse">
<path id="Union" d="M1.92236 1.92236C3.84002 0.00470918 8.11619 1.17116 11.4722 4.52686C14.8282 7.8829 15.9944 12.1589 14.0767 14.0767L13.8892 14.2466C11.9561 15.8645 8.04137 14.797 4.84424 11.7798L4.52686 11.4722C1.17116 8.11619 0.00470918 3.84002 1.92236 1.92236ZM5.89502 2.2124C4.33232 1.78634 3.22591 2.03483 2.63037 2.63037C2.03483 3.22591 1.78634 4.33232 2.2124 5.89502C2.63009 7.42638 3.65645 9.18756 5.23389 10.7651C6.8114 12.3426 8.57262 13.3688 10.104 13.7866C11.667 14.2129 12.773 13.9643 13.3687 13.3687C13.9643 12.773 14.2129 11.667 13.7866 10.104C13.3688 8.57262 12.3426 6.8114 10.7651 5.23389C9.18756 3.65645 7.42638 2.63009 5.89502 2.2124Z" fill="black"/>
</g>
</g>
</svg>
