<svg width="16" height="16" viewBox="0 0 16 16" fill="none" xmlns="http://www.w3.org/2000/svg">
<g id="shape-path">
<g id=".path-mode-bezier">
<g id=".path-mode-bezier_2">
<path id="Union" d="M16 3.5L12.5 7L9.80469 4.30469C5.07013 5.40556 2.00114 9.41315 2.00098 14.5V15H1.00098V14.5C1.00112 9.70787 3.52908 5.76419 7.55859 4H3.91309C3.70703 4.58234 3.15293 5 2.5 5C1.67157 5 1 4.32843 1 3.5C1 2.67157 1.67157 2 2.5 2C3.15293 2 3.70703 2.41766 3.91309 3H9.49902L12.5 0L16 3.5ZM10.4141 3.5L12.5 5.58594L14.5859 3.5L12.5 1.41406L10.4141 3.5Z" fill="black"/>
</g>
</g>
</g>
</svg>
