<svg width="16" height="16" viewBox="0 0 16 16" fill="none" xmlns="http://www.w3.org/2000/svg">
<g id="show-node-handles">
<g id=".path-mode-bezier-eye">
<path id="Union" d="M16 3.5L12.5 7L9.80469 4.30469C5.07013 5.40556 2.00114 9.41315 2.00098 14.5V15H1.00098V14.5C1.00112 9.70787 3.52908 5.76419 7.55859 4H3.91309C3.70703 4.58234 3.15293 5 2.5 5C1.67157 5 1 4.32843 1 3.5C1 2.67157 1.67157 2 2.5 2C3.15293 2 3.70703 2.41766 3.91309 3H9.49902L12.5 0L16 3.5ZM10.4141 3.5L12.5 5.58594L14.5859 3.5L12.5 1.41406L10.4141 3.5Z" fill="black"/>
<path id="neutral" d="M11 12.998C11.8282 12.9982 12.4997 13.6696 12.5 14.498C12.5 15.3267 11.8283 15.9989 11 15.999C10.1716 15.999 9.5 15.3267 9.5 14.498C9.50026 13.6696 10.1717 12.998 11 12.998ZM11 10.5C12.5422 10.5001 13.7747 11.1911 14.6035 11.8545C15.0198 12.1877 15.3428 12.5212 15.5625 12.7715C15.6725 12.8969 15.7581 13.0026 15.8164 13.0781C15.8455 13.1158 15.868 13.1463 15.8838 13.168C15.8917 13.1788 15.8978 13.188 15.9023 13.1943C15.9045 13.1974 15.9068 13.2002 15.9082 13.2021L15.9102 13.2041V13.2061C15.9054 13.2096 15.8633 13.239 15.5 13.4902L15.0889 13.7754C15.0885 13.7749 15.0878 13.7738 15.0869 13.7725C15.0847 13.7694 15.0804 13.764 15.0752 13.7568C15.0644 13.7421 15.0476 13.7185 15.0244 13.6885C14.9777 13.6279 14.9062 13.5385 14.8115 13.4307C14.6215 13.2141 14.3396 12.9248 13.9785 12.6357C13.2519 12.0542 12.2347 11.5001 11 11.5C9.76432 11.5001 8.73427 12.0546 7.99512 12.6377C7.62812 12.9273 7.34088 13.2176 7.14648 13.4346C7.04958 13.5428 6.97573 13.6326 6.92773 13.6934C6.90385 13.7236 6.88606 13.7469 6.875 13.7617C6.86956 13.769 6.8655 13.7743 6.86328 13.7773L6.86133 13.7803C6.85828 13.7779 6.82425 13.753 6.4541 13.4902C6.08648 13.2293 6.05028 13.2038 6.04688 13.2012V13.2002L6.0498 13.1973C6.05117 13.1954 6.05255 13.1924 6.05469 13.1895C6.05929 13.1831 6.06618 13.1738 6.07422 13.1631C6.09035 13.1415 6.11296 13.1108 6.14258 13.0732C6.20207 12.9979 6.28928 12.8927 6.40137 12.7676C6.62517 12.5177 6.95427 12.1853 7.37598 11.8525C8.21503 11.1906 9.4585 10.5001 11 10.5Z" fill="black"/>
</g>
</g>
</svg>
