<svg width="16" height="16" viewBox="0 0 16 16" fill="none" xmlns="http://www.w3.org/2000/svg">
<g id="show-grid">
<g id=".layout-grid-eye" clip-path="url(#clip0_3684_42332)">
<path id="Subtract" d="M15 10H14V8H8V10H7V8H1V14H5.00098V15H0V0H15V10ZM1 7H7V1H1V7ZM8 7H14V1H8V7Z" fill="black"/>
<path id="neutral" d="M11.0002 12.998C11.8284 12.9982 12.5 13.6697 12.5002 14.498C12.5002 15.3267 11.8286 15.9989 11.0002 15.999C10.1718 15.999 9.50024 15.3267 9.50024 14.498C9.50051 13.6696 10.172 12.998 11.0002 12.998ZM11.0002 10.4648C12.5438 10.465 13.7876 11.1661 14.6262 11.8369C15.0479 12.1743 15.3772 12.5114 15.6008 12.7646C15.7128 12.8914 15.7992 12.9989 15.8586 13.0752C15.8882 13.1132 15.9109 13.1442 15.927 13.166C15.9349 13.1768 15.942 13.185 15.9465 13.1914C15.9486 13.1943 15.9501 13.1973 15.9514 13.1992C15.9521 13.2001 15.9529 13.2014 15.9534 13.2021L15.9543 13.2031L15.136 13.7773C15.1356 13.7768 15.1349 13.7756 15.134 13.7744C15.1318 13.7713 15.1277 13.766 15.1223 13.7588C15.1112 13.7437 15.0934 13.7201 15.0696 13.6895C15.0215 13.6277 14.9478 13.5366 14.8508 13.4268C14.6563 13.2065 14.3693 12.9119 14.0022 12.6182C13.2627 12.0265 12.2337 11.465 11.0002 11.4648C9.76664 11.4649 8.73687 12.0264 7.99731 12.6182C7.6302 12.912 7.34317 13.2065 7.14868 13.4268C7.0517 13.5366 6.978 13.6277 6.92993 13.6895C6.90611 13.7201 6.88826 13.7438 6.8772 13.7588C6.87183 13.7661 6.86771 13.7713 6.86548 13.7744C6.86457 13.7757 6.86387 13.7769 6.86353 13.7773L6.04517 13.2031L6.04614 13.2021C6.0466 13.2015 6.04744 13.2002 6.0481 13.1992C6.04946 13.1973 6.05088 13.1943 6.05298 13.1914C6.05754 13.1851 6.06457 13.1768 6.07251 13.166C6.08857 13.1442 6.11132 13.1132 6.14087 13.0752C6.20029 12.9989 6.28762 12.8915 6.39966 12.7646C6.6233 12.5115 6.95178 12.1742 7.37329 11.8369C8.21191 11.166 9.45651 10.4649 11.0002 10.4648Z" fill="black"/>
</g>
</g>
<defs>
<clipPath id="clip0_3684_42332">
<rect width="16" height="16" fill="white"/>
</clipPath>
</defs>
</svg>
