<svg width="16" height="16" viewBox="0 0 16 16" fill="none" xmlns="http://www.w3.org/2000/svg">
<g id="show-path-outline">
<g id=".bounding-box-node-eye" clip-path="url(#clip0_3684_42329)">
<path id="Subtract" d="M16 2.5L14 4.5V9H13V4.5L11.5 3H4.5L3 4.5V11.5L4.5 13H5V14H4.5L2.5 16L0 13.5L2 11.5V4.5L0 2.5L2.5 0L4.5 2H11.5L13.5 0L16 2.5ZM1.41406 13.5L2.5 14.5859L3.58594 13.5L2.5 12.4141L1.41406 13.5ZM1.41406 2.5L2.5 3.58594L3.58594 2.5L2.5 1.41406L1.41406 2.5ZM12.4141 2.5L13.5 3.58594L14.5859 2.5L13.5 1.41406L12.4141 2.5Z" fill="black"/>
<path id="neutral" d="M11 12.998C11.8283 12.9981 12.4999 13.6694 12.5 14.498C12.5 15.3267 11.8284 15.999 11 15.999C10.1716 15.999 9.5 15.3267 9.5 14.498C9.50005 13.6694 10.1716 12.998 11 12.998ZM11 10.5645C12.5126 10.5646 13.7348 11.2521 14.5635 11.915C14.9798 12.2482 15.3046 12.5811 15.5254 12.8311C15.6359 12.9562 15.721 13.0619 15.7793 13.1367C15.8083 13.1739 15.8311 13.2035 15.8467 13.2246C15.8545 13.2352 15.8609 13.2439 15.8652 13.25C15.8673 13.2529 15.8688 13.256 15.8701 13.2578L15.8721 13.2598V13.2607L15.2178 13.7197C15.2174 13.7192 15.216 13.7183 15.2148 13.7168C15.2124 13.7133 15.2079 13.7071 15.2021 13.6992C15.1905 13.6834 15.1719 13.6594 15.1475 13.6279C15.0982 13.5647 15.0243 13.4719 14.9258 13.3604C14.7284 13.1368 14.4371 12.8382 14.0645 12.54C13.315 11.9404 12.2645 11.3654 11 11.3652C9.73543 11.3653 8.68401 11.9404 7.93457 12.54C7.56214 12.8381 7.27059 13.1369 7.07324 13.3604C6.97491 13.4717 6.90072 13.5648 6.85156 13.6279C6.82722 13.6592 6.80845 13.6835 6.79688 13.6992C6.79122 13.7069 6.78662 13.7134 6.78418 13.7168C6.78342 13.7179 6.78261 13.7192 6.78223 13.7197H6.78125L6.12695 13.2607V13.2598L6.12891 13.2578C6.13016 13.256 6.13267 13.2529 6.13477 13.25C6.13906 13.244 6.1448 13.2349 6.15234 13.2246C6.16786 13.2035 6.19089 13.1738 6.21973 13.1367C6.27795 13.0619 6.36328 12.956 6.47363 12.8311C6.69432 12.5812 7.01941 12.2481 7.43555 11.915C8.26423 11.2521 9.48736 10.5646 11 10.5645Z" fill="black"/>
</g>
</g>
<defs>
<clipPath id="clip0_3684_42329">
<rect width="16" height="16" fill="white"/>
</clipPath>
</defs>
</svg>
