<svg width="16" height="16" viewBox="0 0 16 16" fill="none" xmlns="http://www.w3.org/2000/svg">
<g id="show-bounding-box">
<g id=".bounding-box-eye" clip-path="url(#clip0_3684_42333)">
<path id="neutral" d="M11.0002 12.998C11.8283 12.9983 12.5 13.6697 12.5002 14.498C12.5002 15.3266 11.8285 15.9988 11.0002 15.999C10.1718 15.999 9.50024 15.3267 9.50024 14.498C9.50051 13.6696 10.172 12.998 11.0002 12.998ZM11.0002 10.5C12.5425 10.5001 13.7749 11.1911 14.6038 11.8545C15.0201 12.1878 15.3431 12.5212 15.5627 12.7715C15.6728 12.8969 15.7584 13.0025 15.8167 13.0781C15.8457 13.1159 15.8682 13.1463 15.884 13.168C15.8919 13.1788 15.8981 13.1879 15.9026 13.1943C15.9048 13.1974 15.9071 13.2002 15.9084 13.2021C15.909 13.203 15.91 13.2035 15.9104 13.2041V13.2061C15.9064 13.209 15.8678 13.2361 15.5002 13.4902L15.0891 13.7754C15.0888 13.775 15.0882 13.7739 15.0872 13.7725C15.085 13.7694 15.0807 13.7641 15.0754 13.7568C15.0647 13.7421 15.0479 13.7186 15.0247 13.6885C14.9779 13.6279 14.9065 13.5386 14.8118 13.4307C14.6217 13.2141 14.3399 12.9249 13.9788 12.6357C13.2522 12.0541 12.235 11.5001 11.0002 11.5C9.76446 11.5 8.73456 12.0545 7.99536 12.6377C7.62829 12.9273 7.34115 13.2175 7.14673 13.4346C7.04977 13.5428 6.97599 13.6325 6.92798 13.6934C6.90405 13.7237 6.88632 13.7469 6.87524 13.7617C6.86976 13.7691 6.86576 13.7743 6.86353 13.7773L6.86157 13.7803C6.85957 13.7787 6.83178 13.7581 6.45435 13.4902C6.08658 13.2292 6.05052 13.2038 6.04712 13.2012V13.2002L6.05005 13.1973C6.05143 13.1953 6.05275 13.1925 6.05493 13.1895C6.05955 13.1831 6.06639 13.1739 6.07446 13.1631C6.09061 13.1415 6.11315 13.1108 6.14282 13.0732C6.20233 12.9979 6.28947 12.8928 6.40161 12.7676C6.62544 12.5177 6.95444 12.1853 7.37622 11.8525C8.21531 11.1906 9.45864 10.5 11.0002 10.5Z" fill="black"/>
<path id="Subtract" d="M2 16H0V14H2V16ZM5 15H4V14H5V15ZM2 12H1V9H2V12ZM2 7H1V4H2V7ZM15 7H14V4H15V7ZM2 2H0V0H2V2ZM7 2H4V1H7V2ZM12 2H9V1H12V2ZM16 2H14V0H16V2Z" fill="black"/>
</g>
</g>
<defs>
<clipPath id="clip0_3684_42333">
<rect width="16" height="16" fill="white"/>
</clipPath>
</defs>
</svg>
