<svg width="16" height="16" viewBox="0 0 16 16" fill="none" xmlns="http://www.w3.org/2000/svg">
<g id="show-sources">
<g id=".square-arrow-in-eye">
<path id="Union" d="M2.00098 14H4V15H1.00098V14.5L1 9H2L2.00098 14ZM15.001 8L15 9H14L14.001 8V2H12V1H15.001V8ZM11.708 4.5L8.85449 7.35352L8.14746 6.64648L9.79395 5H4.95117C4.71952 6.14109 3.71044 7 2.50098 7C1.12031 7 0.00104975 5.88065 0.000976562 4.5C0.000996969 3.11931 1.12028 2 2.50098 2C3.71046 2 4.71954 2.85888 4.95117 4H9.79395L8.14746 2.35352L8.85449 1.64648L11.708 4.5Z" fill="black"/>
<path id="neutral" d="M10.9995 12.998C11.8279 12.998 12.4995 13.6694 12.4995 14.498C12.4995 15.3267 11.8279 15.998 10.9995 15.998C10.1712 15.9979 9.49951 15.3266 9.49951 14.498C9.49951 13.6694 10.1712 12.9982 10.9995 12.998ZM10.9995 10.5C12.5426 10.5 13.7752 11.1945 14.604 11.8604C15.0202 12.1948 15.3434 12.5291 15.563 12.7803C15.673 12.9061 15.7586 13.0121 15.8169 13.0879C15.8458 13.1255 15.8685 13.156 15.8843 13.1777C15.8921 13.1885 15.8983 13.1977 15.9028 13.2041C15.905 13.2072 15.9073 13.2099 15.9087 13.2119C15.9093 13.2128 15.9093 13.2141 15.9097 13.2148L15.9106 13.2158L15.0884 13.7842C15.0881 13.7837 15.0874 13.7826 15.0864 13.7812C15.0842 13.7782 15.08 13.7729 15.0747 13.7656C15.064 13.7508 15.0471 13.7274 15.0239 13.6973C14.9772 13.6364 14.9056 13.5467 14.811 13.4385C14.6209 13.221 14.3392 12.9299 13.978 12.6396C13.2513 12.0557 12.2338 11.5 10.9995 11.5C9.76525 11.5001 8.74771 12.0557 8.021 12.6396C7.65983 12.9299 7.37805 13.221 7.18799 13.4385C7.09338 13.5467 7.0218 13.6365 6.9751 13.6973C6.95194 13.7274 6.93504 13.7509 6.92432 13.7656C6.919 13.7729 6.91474 13.7782 6.9126 13.7812L6.91064 13.7842L6.08838 13.2158L6.08936 13.2148C6.0898 13.2142 6.0898 13.2128 6.09033 13.2119C6.09172 13.2099 6.09397 13.2072 6.09619 13.2041C6.10069 13.1977 6.10693 13.1885 6.11475 13.1777C6.13052 13.156 6.15319 13.1256 6.18213 13.0879C6.24036 13.0121 6.32606 12.9061 6.43604 12.7803C6.65561 12.5291 6.97878 12.1949 7.39502 11.8604C8.22372 11.1945 9.45649 10.5001 10.9995 10.5Z" fill="black"/>
</g>
</g>
</svg>
