<svg width="16" height="16" viewBox="0 0 16 16" fill="none" xmlns="http://www.w3.org/2000/svg">
<g id="show-handles">
<g id=".handles" clip-path="url(#clip0_3684_42504)">
<path id="shape" d="M2 0C3.10457 0 4 0.895431 4 2C4 2.37063 3.8964 2.71606 3.7207 3.01367L6.35352 5.64648L8 4L12 8L10.3535 9.64648L12.9854 12.2783C13.283 12.1025 13.6293 12 14 12C15.1046 12 16 12.8954 16 14C16 15.1046 15.1046 16 14 16C12.8954 16 12 15.1046 12 14C12 13.6293 12.1025 13.283 12.2783 12.9854L9.64648 10.3535L8 12.001L4 8L5.64648 6.35352L3.01367 3.7207C2.71606 3.8964 2.37063 4 2 4C0.895431 4 0 3.10457 0 2C0 0.895431 0.895431 0 2 0ZM14 13C13.4477 13 13 13.4477 13 14C13 14.5523 13.4477 15 14 15C14.5523 15 15 14.5523 15 14C15 13.4477 14.5523 13 14 13ZM5.41406 8L8 10.5859L10.5859 8L8 5.41406L5.41406 8ZM2 1C1.44772 1 1 1.44772 1 2C1 2.55228 1.44772 3 2 3C2.55228 3 3 2.55228 3 2C3 1.44772 2.55228 1 2 1Z" fill="black"/>
</g>
</g>
<defs>
<clipPath id="clip0_3684_42504">
<rect width="16" height="16" fill="white"/>
</clipPath>
</defs>
</svg>
