<svg width="16" height="16" viewBox="0 0 16 16" fill="none" xmlns="http://www.w3.org/2000/svg">
<g id="show-dialogs">
<g id=".window-eye">
<path id="Union" d="M15.001 7H14.001V5H2.00098V14H4.50098V15H1.00098V1H15.001V7ZM2.00098 4H14.001V2H2.00098V4Z" fill="black"/>
<path id="Union_2" d="M10.0049 10.6621C10.9253 10.6621 11.6719 11.4085 11.6719 12.3291C11.6718 13.2496 10.9253 13.9961 10.0049 13.9961C9.08446 13.9961 8.33797 13.2496 8.33789 12.3291C8.33789 11.4085 9.08441 10.6621 10.0049 10.6621ZM10.0049 7.94336C11.6878 7.94336 13.0453 8.70824 13.9629 9.44238C14.4241 9.81136 14.7838 10.1792 15.0283 10.4561C15.1508 10.5947 15.2448 10.7117 15.3096 10.7949C15.3419 10.8365 15.3673 10.8698 15.3848 10.8936C15.3935 10.9053 15.4003 10.915 15.4053 10.9219C15.4077 10.9253 15.4096 10.9285 15.4111 10.9307L15.4141 10.9336V10.9346L14.5957 11.5088C14.5953 11.5082 14.5941 11.5067 14.5928 11.5049C14.5902 11.5012 14.5862 11.4946 14.5801 11.4863C14.5676 11.4694 14.5471 11.4434 14.5205 11.4092C14.467 11.3405 14.3857 11.2398 14.2783 11.1182C14.0628 10.8742 13.7446 10.548 13.3379 10.2227C12.5194 9.56788 11.3773 8.94336 10.0049 8.94336C8.63249 8.94337 7.49037 9.56788 6.67188 10.2227C6.2652 10.548 5.94692 10.8742 5.73145 11.1182C5.62405 11.2398 5.54271 11.3405 5.48926 11.4092C5.46262 11.4434 5.44218 11.4694 5.42969 11.4863C5.42356 11.4947 5.4196 11.5012 5.41699 11.5049C5.4157 11.5067 5.41444 11.5083 5.41406 11.5088L4.5957 10.9346V10.9336L4.59863 10.9307C4.60014 10.9285 4.60203 10.9253 4.60449 10.9219C4.60943 10.915 4.61631 10.9054 4.625 10.8936C4.64248 10.8698 4.66785 10.8365 4.7002 10.7949C4.765 10.7117 4.85899 10.5947 4.98145 10.4561C5.22601 10.1792 5.58571 9.81136 6.04688 9.44238C6.96445 8.70824 8.32196 7.94337 10.0049 7.94336Z" fill="black"/>
<rect id="Rectangle 778" opacity="0.2" x="2" y="2" width="12" height="2" fill="black"/>
</g>
</g>
</svg>
