<svg width="16" height="16" viewBox="0 0 16 16" fill="none" xmlns="http://www.w3.org/2000/svg">
<g id="skeletal">
<g id=".stroke-skeletal" clip-path="url(#clip0_3684_42388)">
<path id="Union" opacity="0.3" d="M3.52246 2.02051C5.89465 1.08838 8.7098 1.78111 10.5 4.74609C12.3478 7.80676 11.1916 9.40955 12.4824 10.7539C12.5253 10.7985 12.5664 10.845 12.6074 10.8916L11.001 12.499L12.4482 13.9463C10.0819 14.8193 7.28239 14.0717 5.5 11.2607C3.64579 8.33631 4.81761 6.65057 3.50684 5.25195C3.465 5.20731 3.4249 5.16079 3.38477 5.11426L5.00098 3.49902L3.52246 2.02051Z" fill="black"/>
<path id="Union_2" d="M5.21558 3.00879C6.52628 3.10273 7.63389 4.04548 7.92261 5.34473L9.05444 10.4395C9.24275 11.2866 9.95442 11.9056 10.8035 11.9893L13.0007 9.79297L15.7078 12.5L13.0007 15.207L10.7839 12.9902C9.474 12.8961 8.36641 11.9548 8.07788 10.6562L6.94604 5.56152C6.75755 4.71368 6.04587 4.09323 5.19604 4.00977L2.99976 6.20703L0.292725 3.5L2.99976 0.792969L5.21558 3.00879ZM11.7078 12.5L13.0007 13.793L14.2937 12.5L13.0007 11.207L11.7078 12.5ZM1.70679 3.5L2.99976 4.79297L4.29272 3.5L2.99976 2.20703L1.70679 3.5Z" fill="black"/>
</g>
</g>
<defs>
<clipPath id="clip0_3684_42388">
<rect width="16" height="16" fill="white"/>
</clipPath>
</defs>
</svg>
