<svg width="16" height="16" viewBox="0 0 16 16" fill="none" xmlns="http://www.w3.org/2000/svg">
<g id="sketch">
<g id=".transform-sketch">
<path id="Union" d="M5.97461 11.4946C6.11594 11.0721 6.6525 10.9454 6.96777 11.2603L8.36328 12.6558L8.97559 11.4302C9.18172 11.0185 9.75616 10.9828 10.0117 11.3657L11.916 14.2222C12.0691 14.4519 12.0069 14.7623 11.7773 14.9155C11.5476 15.0687 11.2372 15.0066 11.084 14.7769L9.5625 12.4937L9.00879 13.5991L8.97168 13.6646C8.76617 13.9738 8.32034 14.0263 8.04883 13.7554L6.71875 12.4253L6.04297 14.4517L6.00684 14.5376C5.81386 14.9173 5.28458 14.9756 5.01367 14.647L4.95898 14.5708L4 12.9722L2.92871 14.7563C2.78669 14.993 2.47992 15.0701 2.24316 14.9282C2.00656 14.7862 1.92947 14.4794 2.07129 14.2427L3.48535 11.8853C3.71846 11.4972 4.28158 11.4972 4.51465 11.8853L5.37012 13.311L5.97461 11.4946ZM13.7432 3.5708C13.9798 3.4292 14.2867 3.50625 14.4287 3.74268C14.5705 3.97935 14.4934 4.28615 14.2568 4.42822L12.3955 5.54541L13.6934 6.51904C13.9932 6.74396 14.0122 7.18072 13.75 7.43213L13.6934 7.47998L12.3662 8.4751L14.6074 9.97021L14.6797 10.0259C14.9885 10.3043 14.9198 10.8159 14.5488 11.0034L14.4639 11.0386L12.4258 11.7173L13.8535 13.146C14.0487 13.3412 14.0485 13.6577 13.8535 13.853C13.6583 14.0483 13.3417 14.0483 13.1465 13.853L11.2607 11.9673C10.9458 11.6519 11.0723 11.1153 11.4951 10.9741L13.3721 10.3481L11.3398 8.99365C10.9959 8.76386 10.9825 8.26339 11.3135 8.01514L12.667 6.99951L11.3193 5.98877C10.9787 5.73313 11.0051 5.21393 11.3701 4.99463L13.7432 3.5708ZM1.58398 3.22217C1.7372 2.99269 2.04769 2.93049 2.27734 3.0835L3.64551 3.99561C4.01181 4.23981 3.99919 4.78245 3.62207 5.00928L2.0957 5.92529L4.51758 6.96338C4.96683 7.15636 5.00889 7.77689 4.58984 8.02881L2.97168 8.99951L4.57129 9.9585C5.01051 10.2222 4.93795 10.8801 4.45215 11.0425L1.6582 11.9741C1.39623 12.0614 1.11271 11.9197 1.02539 11.6577C0.938292 11.3958 1.07993 11.1122 1.3418 11.0249L3.31055 10.3696L1.88574 9.51416L1.81738 9.46631C1.52036 9.22855 1.52026 8.77041 1.81738 8.53271L1.88574 8.48486L3.40332 7.57471L0.982422 6.53564L0.90332 6.49561C0.554455 6.28289 0.520365 5.78014 0.836914 5.52197L0.910156 5.47021L2.56445 4.47803L1.72266 3.91553C1.493 3.76232 1.43084 3.45189 1.58398 3.22217ZM9.45508 1.00049C9.64383 0.560892 10.2347 0.516208 10.4961 0.888184L10.5439 0.969238L11.499 2.88135L12.0527 1.77588C12.1763 1.52917 12.4768 1.42888 12.7236 1.55225C12.9705 1.67568 13.0705 1.97622 12.9473 2.22314L12.0371 4.04443C11.816 4.48666 11.184 4.48666 10.9629 4.04443L10.0342 2.18701L9.03613 4.51709C8.84312 4.96642 8.22253 5.00864 7.9707 4.58936L6.99902 2.97119L6.01465 4.61377C5.78161 5.00217 5.21839 5.00217 4.98535 4.61377L3.57129 2.25635C3.42965 2.01963 3.50655 1.71277 3.74316 1.5708C3.9798 1.4292 4.28667 1.50625 4.42871 1.74268L5.49902 3.52686L6.48535 1.88525L6.5332 1.81689C6.77094 1.52007 7.22909 1.52002 7.4668 1.81689L7.51465 1.88525L8.4248 3.40283L9.45508 1.00049Z" fill="black"/>
</g>
</g>
</svg>
