<svg width="16" height="16" viewBox="0 0 16 16" fill="none" xmlns="http://www.w3.org/2000/svg">
<g id="slice">
<g id=".transform-slice" clip-path="url(#clip0_3684_42377)">
<path id="shape" opacity="0.4" d="M12.9958 15.3774L8.81909 13.1812L12.0623 9.93701L12.9958 15.3774Z" fill="black"/>
<path id="Union" d="M5.05078 14.625L4.70508 14.9863L4.36133 15.3457L4.01562 15.707L3.29297 15.0156L3.63867 14.6543L3.98242 14.2949L4.32812 13.9336L5.05078 14.625ZM7.80078 11.75L7.45508 12.1113L6.76758 12.8301L6.42188 13.1914L5.69922 12.5L6.04492 12.1387L6.73242 11.4199L7.07812 11.0586L7.80078 11.75ZM10.4775 5.02148L9.68457 5.81445L9.54492 5.53223L8 2.40137L6.45508 5.53223L6.20703 6.0332L5.6543 6.11328L2.19824 6.61523L4.69922 9.05273L5.18555 9.52539L4.96094 10.165L4.75781 10.7412L3.02148 12.4775L3.95801 9.81348L0 5.9541V5.86035L5.50195 5.06152L8 0L10.4775 5.02148ZM10.5508 8.875L10.2051 9.23633L9.51758 9.95508L9.17188 10.3164L8.44922 9.625L8.79492 9.26367L9.48242 8.54492L9.82812 8.18359L10.5508 8.875ZM13.3008 6L12.9551 6.36133L12.2676 7.08008L11.9219 7.44141L11.1992 6.75L11.5449 6.38867L12.2324 5.66992L12.5781 5.30859L13.3008 6ZM15.707 3.48438L15.3613 3.8457L15.0176 4.20508L14.6719 4.56641L13.9492 3.875L14.2949 3.51367L14.6387 3.1543L14.9844 2.79297L15.707 3.48438Z" fill="black"/>
</g>
</g>
<defs>
<clipPath id="clip0_3684_42377">
<rect width="16" height="16" fill="white"/>
</clipPath>
</defs>
</svg>
