<svg width="16" height="16" viewBox="0 0 16 16" fill="none" xmlns="http://www.w3.org/2000/svg">
<g id="spiro">
<g id=".path-mode-spiro" clip-path="url(#clip0_3684_42728)">
<path id="Union" d="M1.61255 1.61182C3.76043 -0.536067 7.24201 -0.536067 9.38989 1.61182C11.4967 3.71886 11.688 7.15548 9.42212 9.42139C8.18795 10.6556 8.19111 12.7861 9.45337 14.0483C10.7226 15.3173 12.7799 15.3174 14.0491 14.0483C15.2786 12.8188 15.3169 10.8495 14.1643 9.57373L14.0491 9.45264L13.6956 9.09912L14.4026 8.39209L14.7561 8.74561L14.9075 8.90381C16.4145 10.5722 16.3638 13.1476 14.7561 14.7554C13.0964 16.415 10.4061 16.4149 8.74634 14.7554C7.10076 13.1098 7.08323 10.3463 8.71509 8.71436C10.5651 6.86431 10.425 4.06119 8.68286 2.31885C6.9255 0.561488 4.07694 0.561488 2.31958 2.31885C0.617291 4.02118 0.563712 6.74768 2.15942 8.51416L2.31958 8.68213L2.6731 9.03564L1.96606 9.74268L1.61255 9.38916L1.41724 9.18408C-0.533391 7.02506 -0.468144 3.69256 1.61255 1.61182Z" fill="black"/>
</g>
</g>
<defs>
<clipPath id="clip0_3684_42728">
<rect width="16" height="16" fill="white"/>
</clipPath>
</defs>
</svg>
