<svg width="16" height="16" viewBox="0 0 16 16" fill="none" xmlns="http://www.w3.org/2000/svg">
<g id="stroke-to-path">
<g id=".path-operation-expand-stroke" clip-path="url(#clip0_3684_42772)">
<path id="neutral" d="M9 17H2V15.5L2.5 16L3 15.5V16H8V15.5L8.5 16L9 15.5V17ZM11 8.5L11.5352 9.03516C10.2505 9.23495 9.23495 10.2505 9.03516 11.5352L8.5 11L8.03613 11.4629C8.27497 9.68345 9.68345 8.27497 11.4629 8.03613L11 8.5ZM11 2.5L11.5 3H11.3105C6.72087 3 3 6.72087 3 11.3105V11.5L2.5 11L2 11.5V11.3105C2 6.16859 6.16859 2 11.3105 2H11.5L11 2.5ZM17 9H15.5L16 8.5L15.5 8H16V3H15.5L16 2.5L15.5 2H17V9Z" fill="black"/>
<path id="Union" d="M5 13.5L2.5 16L0 13.5L2.5 11L5 13.5ZM11 13.5L8.5 16L6 13.5L8.5 11L11 13.5ZM1.41406 13.5L2.5 14.5859L3.58594 13.5L2.5 12.4141L1.41406 13.5ZM7.41406 13.5L8.5 14.5859L9.58594 13.5L8.5 12.4141L7.41406 13.5ZM16 8.5L13.5 11L11 8.5L13.5 6L16 8.5ZM12.4141 8.5L13.5 9.58594L14.5859 8.5L13.5 7.41406L12.4141 8.5ZM16 2.5L13.5 5L11 2.5L13.5 0L16 2.5ZM12.4141 2.5L13.5 3.58594L14.5859 2.5L13.5 1.41406L12.4141 2.5Z" fill="black"/>
<path id="Subtract" opacity="0.3" d="M17 9H15.5L16 8.5L13.5 6L11 8.5L11.5352 9.03516C10.2505 9.23495 9.23495 10.2505 9.03516 11.5352L8.5 11L6 13.5L8.5 16L9 15.5V17H2V15.5L2.5 16L5 13.5L2.5 11L2 11.5V11.3105C2 6.16859 6.16859 2 11.3105 2H11.5L11 2.5L13.5 5L16 2.5L15.5 2H17V9Z" fill="black"/>
</g>
</g>
<defs>
<clipPath id="clip0_3684_42772">
<rect width="16" height="16" fill="white"/>
</clipPath>
</defs>
</svg>
