<svg width="16" height="16" viewBox="0 0 16 16" fill="none" xmlns="http://www.w3.org/2000/svg">
<g id="symbol-bigger">
<rect id="neutral" opacity="0.2" y="8" width="6" height="6" rx="1" fill="black"/>
<rect id="neutral_2" opacity="0.3" x="9" y="9" width="6" height="6" rx="1" fill="black"/>
<rect id="neutral_3" opacity="0.1" x="5" y="1" width="6" height="6" rx="1" fill="black"/>
<path id="Union" d="M14.1025 9.00488C14.6067 9.05621 15 9.48232 15 10V14L14.9951 14.1025C14.9472 14.573 14.573 14.9472 14.1025 14.9951L14 15H10C9.48232 15 9.05621 14.6067 9.00488 14.1025L9 14V10C9 9.44772 9.44772 9 10 9H14L14.1025 9.00488ZM5.10254 8.00488C5.60667 8.05621 6 8.48232 6 9V13L5.99512 13.1025C5.94722 13.573 5.57297 13.9472 5.10254 13.9951L5 14H1C0.482323 14 0.0562145 13.6067 0.00488281 13.1025L0 13V9C6.4426e-08 8.44772 0.447715 8 1 8H5L5.10254 8.00488ZM10 14H14V10H10V14ZM1 13H5V9H1V13ZM10.1025 1.00488C10.6067 1.05621 11 1.48232 11 2V6L10.9951 6.10254C10.9472 6.57297 10.573 6.94722 10.1025 6.99512L10 7H6C5.48232 7 5.05621 6.60667 5.00488 6.10254L5 6V2C5 1.44772 5.44772 1 6 1H10L10.1025 1.00488ZM6 6H10V2H6V6Z" fill="black"/>
</g>
</svg>
