<svg width="16" height="16" viewBox="0 0 16 16" fill="none" xmlns="http://www.w3.org/2000/svg">
<g id="symbols">
<g id=".square-heart" clip-path="url(#clip0_3684_42787)">
<g id=".symbol">
<path id="Union" d="M14.9634 14.9634H1.03564V1.03564H14.9634V14.9634ZM1.96338 14.0356H14.0356V1.96338H1.96338V14.0356ZM8.6665 5.1665C9.55567 4.27734 10.998 4.27734 11.8872 5.1665C12.7763 6.05567 12.6299 7.37252 11.8872 8.38721C10.7325 9.96477 9.36551 10.7321 7.99951 12.0981C6.63345 10.7323 5.2672 9.9646 4.11279 8.38721C3.37018 7.37244 3.22363 6.05567 4.11279 5.1665C5.00196 4.27735 6.44433 4.27734 7.3335 5.1665C7.77803 5.61108 7.99951 6.19419 7.99951 6.77686C7.99951 6.19416 8.22192 5.61109 8.6665 5.1665Z" fill="black"/>
</g>
</g>
</g>
<defs>
<clipPath id="clip0_3684_42787">
<rect width="16" height="16" fill="white"/>
</clipPath>
</defs>
</svg>
