<svg width="16" height="16" viewBox="0 0 16 16" fill="none" xmlns="http://www.w3.org/2000/svg">
<g id="taper-stroke">
<g id=".stroke-taper">
<path id="shape" opacity="0.25" d="M10.1318 3C8.77046 3.00006 7.47261 3.55862 6.4873 4.49805C5.1423 5.78044 3.20773 7.49719 2.00098 8C3.20773 8.50281 5.1423 10.2196 6.4873 11.502C7.47261 12.4414 8.77046 12.9999 10.1318 13H0V3H10.1318Z" fill="black"/>
<path id="Union" d="M11.001 6.5C11.6539 6.5 12.208 6.91766 12.4141 7.5H15.001V8.5H12.4141C12.208 9.08234 11.6539 9.5 11.001 9.5C10.1725 9.5 9.50098 8.82843 9.50098 8C9.50098 7.17157 10.1725 6.5 11.001 6.5Z" fill="black"/>
<path id="Subtract" d="M15 3H13.001C10.7114 3 8.50446 3.92357 6.7793 5.49707C6.03865 6.17261 5.23776 6.87715 4.49414 7.47754C4.26924 7.65912 4.04194 7.8336 3.82031 8C4.04194 8.1664 4.26924 8.34088 4.49414 8.52246C5.23776 9.12285 6.03865 9.82739 6.7793 10.5029C8.50446 12.0764 10.7114 13 13.001 13H15V14H13.001C10.6001 14 8.3036 13.0929 6.4668 11.5576L6.10547 11.2422C4.6392 9.90481 2.96877 8.4839 2.00098 8C2.84781 7.57658 4.23262 6.43619 5.54785 5.26172L6.10547 4.75781C7.9977 3.03204 10.4399 2 13.001 2H15V3Z" fill="black"/>
</g>
</g>
</svg>
