<svg width="16" height="16" viewBox="0 0 16 16" fill="none" xmlns="http://www.w3.org/2000/svg">
<g id="text-unflow">
<g id=".text-frame-false">
<path id="Union" d="M2 14H3.62598V15H1V12.375H2V14ZM8.50195 15H5.87695V14H8.50195V15ZM10.7979 11H9.47949L9.04883 9.67285H6.94824L6.5166 11H5.19824L7.20703 5.18164H8.79199L10.7979 11ZM2 10.125H1V5.875H2V10.125ZM7.26074 8.71289H8.7373L8.02246 6.51172H7.97656L7.26074 8.71289ZM15.001 6.375L15.002 8V8.5H14.002V8L14.001 6.375V5.875H15.001V6.375ZM3.625 2H2V3.625H1V1H3.625V2ZM15 1.5V3.625H14V2H12.375V1H14.999L15 1.5ZM10.125 2H5.875V1H10.125V2Z" fill="black"/>
<path class="error" d="M15.8535 11.8535L14.207 13.499L15.8545 15.1465L15.502 15.5L15.1484 15.8535L13.5 14.2061L11.8535 15.8535L11.1465 15.1465L12.793 13.499L11.1465 11.8535L11.8535 11.1465L13.5 12.792L15.1465 11.1465L15.8535 11.8535Z" fill="#F73664"/>
</g>
</g>
</svg>
