<svg width="16" height="16" viewBox="0 0 16 16" fill="none" xmlns="http://www.w3.org/2000/svg">
<g id="text-orientation-sideways">
<g id=".text-orientation-sideways">
<path id="Union" d="M13.8191 11.207V12.792L8.00073 14.7979V13.4795L9.32788 13.0479V10.9473L8.00073 10.5166V9.19824L13.8191 11.207ZM10.2878 12.7363L12.49 12.0225V11.9766L10.2878 11.2598V12.7363ZM7.97729 1.16797C8.23322 1.47185 8.51573 1.71173 8.82495 1.8877C9.13949 2.06895 9.46468 2.20275 9.80054 2.28809C10.1365 2.37875 10.4733 2.43472 10.8093 2.45605C11.1452 2.4827 11.4679 2.49609 11.7771 2.49609H14.4167V7.72754H8.50464C8.21682 7.72751 7.99518 7.68836 7.84058 7.6084C7.686 7.53372 7.56898 7.40241 7.48901 7.21582C7.40372 7.02386 7.35267 6.78399 7.33667 6.49609C7.31534 6.2082 7.30543 5.85623 7.30542 5.44043C7.40126 5.41912 7.51016 5.38632 7.63257 5.34375C7.75513 5.30112 7.87817 5.25347 8.00073 5.2002C8.1234 5.14686 8.2279 5.09337 8.31323 5.04004C8.30257 5.22669 8.29415 5.41642 8.28882 5.6084V6.45605C8.28883 6.54668 8.30468 6.61112 8.33667 6.64844C8.37401 6.68573 8.43596 6.7041 8.52124 6.7041H9.6814V3.2666C9.59906 3.24792 9.51612 3.2295 9.43335 3.20801C9.02285 3.10138 8.63325 2.94421 8.26538 2.73633C7.89741 2.52834 7.56899 2.2534 7.28101 1.91211C7.35034 1.86411 7.43057 1.79477 7.52124 1.7041C7.61189 1.61878 7.6996 1.52514 7.78491 1.42383C7.87023 1.32784 7.93463 1.24263 7.97729 1.16797ZM12.5046 3.48828V6.7041H13.4812V3.48828H12.5046ZM10.6169 6.7041H11.5925V3.48535C11.2966 3.4794 10.9821 3.45934 10.6492 3.42383C10.6385 3.42283 10.6277 3.42097 10.6169 3.41992V6.7041Z" fill="black"/>
<path id="neutral" opacity="0.5" d="M3.99951 12.7925L5.49951 11.2925L6.20654 11.9995L3.49951 14.7065L0.79248 11.9995L1.49951 11.2925L2.99951 12.7925V1.49951H3.99951V12.7925Z" fill="black"/>
</g>
</g>
</svg>
