<svg width="16" height="16" viewBox="0 0 16 16" fill="none" xmlns="http://www.w3.org/2000/svg">
<g id="text_subscript">
<g id=".text-subscript">
<path id="neutral" d="M13.4399 10.5767C13.7891 10.5767 14.0916 10.6325 14.3472 10.7446C14.6042 10.8554 14.8027 11.0118 14.9419 11.2134C15.0825 11.4151 15.1528 11.652 15.1528 11.9233C15.1528 12.0909 15.1179 12.2582 15.0483 12.4243C14.9787 12.589 14.8536 12.7711 14.6733 12.9712C14.493 13.1714 14.2369 13.4102 13.9048 13.687L13.4956 14.0288V14.0542H15.1997V14.9995H11.8501V14.1479L13.478 12.8013C13.586 12.7118 13.6787 12.6274 13.7554 12.5493C13.8334 12.4699 13.8929 12.3879 13.9341 12.3042C13.9765 12.2206 13.9985 12.1279 13.9985 12.0259C13.9985 11.9137 13.9736 11.8173 13.9253 11.7378C13.8784 11.6584 13.8137 11.5968 13.73 11.5542C13.6462 11.5102 13.5493 11.4888 13.4399 11.4888C13.3306 11.4888 13.2337 11.5102 13.1499 11.5542C13.0675 11.5982 13.0039 11.6633 12.9585 11.7485C12.913 11.8338 12.8901 11.9379 12.8901 12.0601H11.7651C11.7651 11.7532 11.8344 11.4887 11.9722 11.2671C12.1099 11.0456 12.3039 10.8747 12.5552 10.7554C12.8066 10.6361 13.1019 10.5767 13.4399 10.5767Z" fill="black"/>
<path id="Union" d="M10.8904 13.0005H9.06226L8.27905 10.6685H4.72534L3.94312 13.0005H2.11499L5.44312 3.54541H7.55737L10.8904 13.0005ZM5.18628 9.29346H7.81714L6.53784 5.48486H6.46362L5.18628 9.29346Z" fill="black"/>
</g>
</g>
</svg>
