<svg width="16" height="16" viewBox="0 0 16 16" fill="none" xmlns="http://www.w3.org/2000/svg">
<g id="text_superscript">
<g id=".text-superscript">
<path id="neutral" d="M12.4395 1.57666C12.7889 1.57666 13.092 1.63241 13.3477 1.74463C13.6047 1.85542 13.8032 2.0117 13.9424 2.21338C14.083 2.41508 14.1533 2.65203 14.1533 2.92334C14.1533 3.09092 14.1184 3.25815 14.0488 3.42432C13.9793 3.58894 13.854 3.77112 13.6738 3.97119C13.4935 4.17143 13.2366 4.4101 12.9043 4.68701L12.4951 5.02881V5.0542H14.2002V5.99951H10.8506V5.14795L12.4785 3.80127C12.5864 3.71182 12.6782 3.62741 12.7549 3.54932C12.833 3.46979 12.8934 3.38799 12.9346 3.3042C12.977 3.22063 12.998 3.1278 12.998 3.02588C12.998 2.91367 12.9741 2.81734 12.9258 2.73779C12.8789 2.65825 12.8133 2.59681 12.7295 2.5542C12.6457 2.51025 12.5487 2.48877 12.4395 2.48877C12.3304 2.48882 12.234 2.51037 12.1504 2.5542C12.068 2.59823 12.0035 2.66331 11.958 2.74854C11.9126 2.83374 11.8896 2.93795 11.8896 3.06006H10.7646C10.7646 2.75329 10.8339 2.48866 10.9717 2.26709C11.1095 2.0455 11.3042 1.87469 11.5557 1.75537C11.807 1.63615 12.1016 1.5767 12.4395 1.57666Z" fill="black"/>
<path id="Union" d="M11.8914 12.9995H10.0632L9.28003 10.6685H5.72534L4.94312 12.9995H3.11499L6.44312 3.54541H8.55737L11.8914 12.9995ZM6.18628 9.29248H8.81714L7.53784 5.48389H7.46362L6.18628 9.29248Z" fill="black"/>
</g>
</g>
</svg>
