<svg width="16" height="16" viewBox="0 0 16 16" fill="none" xmlns="http://www.w3.org/2000/svg">
<g id="text-orientation-auto">
<g id=".text-orientation-auto">
<path id="Union" d="M13.8193 11.207V12.792L8.00098 14.7979V13.4795L9.32812 13.0479V10.9482L8.00098 10.5166V9.19824L13.8193 11.207ZM10.2881 12.7363L12.4893 12.0225V11.9766L10.2881 11.2598V12.7363ZM14.2285 1.08398V6.99609C14.2285 7.28402 14.1894 7.50551 14.1094 7.66016C14.0347 7.81482 13.9035 7.93172 13.7168 8.01172C13.5248 8.09703 13.285 8.14806 12.9971 8.16406C12.7092 8.18539 12.3572 8.19628 11.9414 8.19629C11.9201 8.10031 11.8874 7.99079 11.8447 7.86816C11.8021 7.74553 11.7545 7.62263 11.7012 7.5C11.6478 7.37733 11.5943 7.27283 11.541 7.1875C11.7277 7.19817 11.9174 7.20658 12.1094 7.21191H12.957C13.0477 7.2119 13.1121 7.19605 13.1494 7.16406C13.1865 7.12678 13.205 7.0654 13.2051 6.98047V5.82031H9.76758C9.74892 5.90254 9.73045 5.9857 9.70898 6.06836C9.60232 6.4789 9.44525 6.86843 9.2373 7.23633C9.02935 7.60421 8.75429 7.9318 8.41309 8.21973C8.36514 8.1505 8.29555 8.07096 8.20508 7.98047C8.11974 7.8898 8.02614 7.80115 7.9248 7.71582C7.82895 7.63063 7.74353 7.56706 7.66895 7.52441C7.97295 7.26841 8.21267 6.98511 8.38867 6.67578C8.56996 6.36118 8.70373 6.03612 8.78906 5.7002C8.87969 5.36433 8.93568 5.02825 8.95703 4.69238C8.9837 4.35638 8.99707 4.03297 8.99707 3.72363V1.08398H14.2285ZM9.98633 3.9082C9.98039 4.20418 9.96031 4.51863 9.9248 4.85156C9.92381 4.86219 9.92194 4.87315 9.9209 4.88379H13.2051V3.9082H9.98633ZM9.98926 2.01953V2.99609H13.2051V2.01953H9.98926Z" fill="black"/>
<path id="neutral" opacity="0.5" d="M3.99951 12.7925L5.49951 11.2925L6.20654 11.9995L3.49951 14.7065L0.79248 11.9995L1.49951 11.2925L2.99951 12.7925V1.49951H3.99951V12.7925Z" fill="black"/>
</g>
</g>
</svg>
