<svg width="16" height="16" viewBox="0 0 16 16" fill="none" xmlns="http://www.w3.org/2000/svg">
<g id="text-put-on-path">
<g id=".text-path-true" clip-path="url(#clip0_3684_42566)">
<path id="neutral" d="M16 6.5C10.7533 6.5 6.5 10.7533 6.5 16H5.5C5.5 10.201 10.201 5.5 16 5.5V6.5Z" fill="black"/>
<path id="Union" d="M7.81567 7.46118L7.11646 8.57837L5.76294 8.23853L4.64868 10.0198L5.54419 11.0901L4.84497 12.2073L0.97876 7.41821L1.81958 6.07446L7.81567 7.46118ZM2.51392 7.47095L4.00024 9.24536L4.78345 7.99341L2.53833 7.43188L2.51392 7.47095ZM9.47876 2.11646L9.03638 5.35474L9.052 5.3811L10.8518 4.33813L11.3362 5.17407L8.16235 7.01294L7.80103 6.38892L8.32349 3.02954L8.30786 3.0022L6.52271 4.03638L6.03833 3.20044L9.08423 1.43579L9.47876 2.11646Z" fill="black"/>
</g>
</g>
<defs>
<clipPath id="clip0_3684_42566">
<rect width="16" height="16" fill="white"/>
</clipPath>
</defs>
</svg>
