<svg width="16" height="16" viewBox="0 0 16 16" fill="none" xmlns="http://www.w3.org/2000/svg">
<g id="text_rotation">
<g id=".text-rotation">
<path id="Union" d="M10.05 4.97217L9.93188 11.894L8.53833 11.3872L8.59302 9.81787L6.37134 9.01025L5.40552 10.2466L4.01196 9.73975L8.37427 4.36182L10.05 4.97217ZM7.07153 8.11475L8.63208 8.68311L8.72388 6.08154L8.67603 6.06396L7.07153 8.11475Z" fill="black"/>
<path id="neutral" d="M3.85352 11.6465L3.14648 12.3535L2.5 11.707V12.5C2.5 13.3284 3.17161 14 4 14H6V15H4C2.61932 15 1.5 13.8807 1.5 12.5V11.707L0.853516 12.3535L0.146484 11.6465L2 9.79297L3.85352 11.6465ZM12 1C13.3807 1 14.5 2.11929 14.5 3.5V4.79297L15.1465 4.14648L15.8535 4.85352L14 6.70703L12.1465 4.85352L12.8535 4.14648L13.5 4.79297V3.5C13.5 2.67157 12.8284 2 12 2H10V1H12Z" fill="black"/>
</g>
</g>
</svg>
