<svg width="16" height="16" viewBox="0 0 16 16" fill="none" xmlns="http://www.w3.org/2000/svg">
<g id="text-unkern">
<g id=".text-kern-false" clip-path="url(#clip0_3684_42691)">
<path id="Union" d="M7 0.573975L9.98828 8.54272L9.05176 8.89331L8.87695 8.42554L5.88867 0.456787L6.8252 0.106201L7 0.573975ZM6.14941 7.99976H4.66602L4.18164 6.50757H1.81836L1.33301 7.99976H-0.150391L2.10938 1.45483H3.89258L6.14941 7.99976ZM12.9688 6.42749H13.0293L14.6152 1.45483H16.1494L13.8926 7.99976H12.1094L9.84961 1.45483H11.3867L12.9688 6.42749ZM2.16992 5.42749H3.83105L3.02637 2.94995H2.97559L2.16992 5.42749Z" fill="black"/>
<path class="error" d="M15.8535 11.8535L14.207 13.499L15.8545 15.1465L15.502 15.5L15.1484 15.8535L13.5 14.2061L11.8535 15.8535L11.1465 15.1465L12.793 13.499L11.1465 11.8535L11.8535 11.1465L13.5 12.792L15.1465 11.1465L15.8535 11.8535Z" fill="#F73664"/>
</g>
</g>
<defs>
<clipPath id="clip0_3684_42691">
<rect width="16" height="16" fill="white"/>
</clipPath>
</defs>
</svg>
