<svg width="16" height="16" viewBox="0 0 16 16" fill="none" xmlns="http://www.w3.org/2000/svg">
<g id="text-convert-to-regular">
<g id=".text-frame-to-regular" clip-path="url(#clip0_3684_42796)">
<path id="Union" d="M8.00098 15H9.33398V16H7.00098V13.667H8.00098V15ZM16.001 16H13.668V15H15.001V13.667H16.001V16ZM13.9492 14H12.7959L12.4189 12.8389H10.5811L10.2031 14H9.0498L10.8066 8.90918H12.1943L13.9492 14ZM10.8535 11.999H12.1465L11.5205 10.0723H11.4805L10.8535 11.999ZM9.00098 7H9.33398V8H8.00098V9.33301H7.00098V9H0.000976562V0H9.00098V7ZM16.001 9.33301H15.001V8H13.668V7H16.001V9.33301ZM1.00098 8H7.00098V7H8.00098V1H1.00098V8ZM6.94922 7H5.7959L5.41895 5.83887H3.58105L3.20312 7H2.0498L3.80664 1.90918H5.19434L6.94922 7ZM3.85352 4.99902H5.14648L4.52051 3.07227H4.48047L3.85352 4.99902Z" fill="black"/>
</g>
</g>
<defs>
<clipPath id="clip0_3684_42796">
<rect width="16" height="16" fill="white"/>
</clipPath>
</defs>
</svg>
