<svg width="16" height="16" viewBox="0 0 16 16" fill="none" xmlns="http://www.w3.org/2000/svg">
<g id="text_word_spacing">
<g id=".text-spacing-word">
<path id="neutral" opacity="0.5" d="M13.707 12L11 14.707L10.293 14L11.793 12.5H4.20703L5.70703 14L5 14.707L2.29297 12L5 9.29297L5.70703 10L4.20703 11.5H11.793L10.293 10L11 9.29297L13.707 12Z" fill="black"/>
<path id="Union" d="M4.22363 6.2146L5.58496 4.55835V4.53687H4.12109V3.72729H6.82715V4.37964L5.4209 6.1687V6.19019H6.87793V6.99976H3.35547L3.06836 6.08374H1.56152L1.27441 6.99976H0.140625L1.61328 2.63647H3.0166L4.22363 6.2146ZM13.0029 6.2146L14.3633 4.55835V4.53687H12.8994V3.72729H15.6055V4.37964L14.1992 6.1687V6.19019H15.6572V6.99976H12.1348L11.8477 6.08374H10.3398L10.0527 6.99976H8.91992L10.3916 2.63647H11.7959L13.0029 6.2146ZM10.5908 5.28296H11.5957L11.1104 3.73608H11.0762L10.5908 5.28296ZM1.8125 5.28296H2.81641L2.33105 3.73608H2.29688L1.8125 5.28296Z" fill="black"/>
</g>
</g>
</svg>
