<svg width="16" height="16" viewBox="0 0 16 16" fill="none" xmlns="http://www.w3.org/2000/svg">
<g id="too-much-ink-icon">
<g id=".ink-splash">
<path id="Union" d="M13.1338 8.4668C13.1338 7.95142 13.5511 7.53334 14.0664 7.5332C14.5819 7.5332 15 7.95133 15 8.4668C14.9999 8.9822 14.5818 9.40039 14.0664 9.40039C13.5511 9.40025 13.1339 8.98212 13.1338 8.4668ZM1 10.333C1.00013 9.56348 1.46587 8.90268 2.13086 8.61719L3.22569 8.14817C3.46355 8.04628 3.57202 7.76946 3.46671 7.53309C3.4179 7.42352 3.32753 7.339 3.22035 7.28513C2.45732 6.90163 1.93367 6.11243 1.93359 5.2002C1.93359 3.91155 2.97797 2.86625 4.2666 2.86621C5.11219 2.86621 5.8511 3.31645 6.25943 3.99008C6.51846 4.41741 7.0335 4.73342 7.5332 4.7334C7.80899 4.7334 8.08747 4.70329 8.33411 4.57989L8.48534 4.50422C9.06135 4.21603 9.4007 3.61785 9.73263 3.06589C10.1406 2.38742 10.8839 1.93359 11.7334 1.93359C13.022 1.93363 14.0664 2.97799 14.0664 4.2666C14.0664 5.07309 13.6571 5.78282 13.0349 6.20128C12.5983 6.49494 12.1267 6.76909 11.8272 7.20174L11.1 8.2524C10.6696 8.87414 10.9392 9.73481 11.6474 9.99991L12.8544 10.4518C12.855 10.452 12.8552 10.4526 12.855 10.4531C12.8547 10.4536 12.855 10.4543 12.8555 10.4545C13.5626 10.7201 14.0664 11.4003 14.0664 12.2002C14.0663 13.231 13.231 14.0663 12.2002 14.0664C11.9698 14.0664 11.7496 14.023 11.5458 13.9466C11.5454 13.9465 11.5449 13.9468 11.5449 13.9473C11.5449 13.9477 11.5444 13.9481 11.544 13.9479L9.32748 13.1169C8.57093 12.8333 7.73011 13.2345 7.47461 14.001C7.30219 14.5786 6.76739 14.9998 6.13379 15C5.36059 15 4.7334 14.3728 4.7334 13.5996C4.73344 13.4455 4.75851 13.2973 4.80453 13.1587C4.80464 13.1584 4.80469 13.158 4.80469 13.1577C4.80469 13.1574 4.80474 13.1571 4.80484 13.1568L5.01498 12.5254C5.1249 12.1951 4.93041 11.8411 4.59267 11.7568C4.46602 11.7251 4.3325 11.7358 4.21251 11.7872L3.61328 12.0439C3.38457 12.1439 3.13178 12.2002 2.86621 12.2002C1.83549 12.1999 1 11.3638 1 10.333ZM6.59961 1.93359C6.59961 1.41817 7.0178 1.00007 7.5332 1C8.04867 1 8.4668 1.41813 8.4668 1.93359C8.46666 2.44894 8.04858 2.86621 7.5332 2.86621C7.01788 2.86614 6.59975 2.4489 6.59961 1.93359ZM1 14.0664C1.00014 13.5511 1.41821 13.1338 1.93359 13.1338C2.44885 13.1339 2.86607 13.5511 2.86621 14.0664C2.86621 14.5818 2.44894 14.9999 1.93359 15C1.41813 15 1 14.5819 1 14.0664Z" fill="black"/>
</g>
</g>
</svg>
