<svg width="16" height="16" viewBox="0 0 16 16" fill="none" xmlns="http://www.w3.org/2000/svg">
<g id="tool-measure">
<g id=".ruler">
<path id="Union" fill-rule="evenodd" clip-rule="evenodd" d="M5 16L16 5L12.707 1.70703L11.293 0.292969L11 0L0 11L0.292969 11.293L1.70703 12.707L5 16ZM5 14.5859L1.41406 11L2.54004 9.87402L3.54004 10.874L4.27344 10.1406L3.27344 9.14062L4.74023 7.67383L5.74023 8.67383L6.47363 7.94043L5.47363 6.94043L6.94043 5.47363L7.94043 6.47363L8.67383 5.74023L7.67383 4.74023L9.14062 3.27344L10.1406 4.27344L10.874 3.54004L9.87402 2.54004L11 1.41406L14.5859 5L5 14.5859Z" fill="black"/>
<path id="Vector 867" opacity="0.3" d="M3.5 14L5 15.5L15.5 5L14 3.5L3.5 14Z" fill="black"/>
</g>
</g>
</svg>
