<svg width="16" height="16" viewBox="0 0 16 16" fill="none" xmlns="http://www.w3.org/2000/svg">
<g id="tools-check-spelling">
<g id=".text-check">
<path id="Union" d="M13.708 12.0005L11.501 14.2075L10.001 12.7075L8.50098 14.2075L7.00098 12.7075L5.50098 14.2075L4.00098 12.7075L2.50098 14.2075L1.79395 13.5005L4.00098 11.2935L5.50098 12.7935L7.00098 11.2935L8.50098 12.7935L10.001 11.2935L11.501 12.7935L13.001 11.2935L13.708 12.0005ZM10.6523 4.93115H10.6846C10.7484 4.78223 10.8391 4.63879 10.9561 4.50049C11.0754 4.362 11.2269 4.24898 11.4102 4.16162C11.5955 4.07213 11.8174 4.02686 12.0752 4.02686C12.4159 4.02693 12.7343 4.11655 13.0303 4.29541C13.3286 4.47439 13.5697 4.75067 13.7529 5.12354C13.936 5.49629 14.0273 5.97124 14.0273 6.54834C14.0273 7.10445 13.9395 7.5708 13.7627 7.9458C13.588 8.32068 13.351 8.60209 13.0527 8.78955C12.7567 8.97691 12.4275 9.07076 12.0654 9.0708C11.8183 9.0708 11.604 9.0297 11.4229 8.94873C11.2418 8.86778 11.0894 8.76145 10.9658 8.62939C10.8445 8.4974 10.7506 8.35573 10.6846 8.20459H10.6367V9.00049H9.08984V2.45459H10.6523V4.93115ZM8.38477 9.00049H6.68457L6.25293 7.62549H3.99316L3.5625 9.00049H1.8623L4.07031 2.45459H6.17676L8.38477 9.00049ZM11.5254 5.24756C11.3336 5.24756 11.1704 5.30038 11.0361 5.40479C10.902 5.50918 10.798 5.65821 10.7256 5.85205C10.6553 6.04588 10.6201 6.27709 10.6201 6.54541C10.6201 6.80956 10.6553 7.03984 10.7256 7.23584C10.798 7.43186 10.9019 7.58421 11.0361 7.69287C11.1725 7.79938 11.3358 7.85303 11.5254 7.85303C11.7169 7.85297 11.8796 7.79921 12.0137 7.69287C12.1479 7.58423 12.2492 7.4318 12.3174 7.23584C12.3877 7.03982 12.4229 6.80961 12.4229 6.54541C12.4228 6.28122 12.3877 6.05179 12.3174 5.85791C12.2492 5.66424 12.1478 5.51417 12.0137 5.40771C11.8817 5.30135 11.719 5.24762 11.5254 5.24756ZM4.37012 6.42432H5.87598L5.14746 4.104H5.09668L4.37012 6.42432Z" fill="black"/>
</g>
</g>
</svg>
