<svg width="16" height="16" viewBox="0 0 16 16" fill="none" xmlns="http://www.w3.org/2000/svg">
<g id="tool-spray">
<g id=".spray" clip-path="url(#clip0_3684_42694)">
<rect id="Rectangle 690" opacity="0.3" x="6" y="12" width="9" height="3" fill="black"/>
<path id="Union" d="M13 7H13.7998L16 11V16H5V11L7.2002 7H8V3H13V7ZM6 15H15V12H6V15ZM6.14062 11H14.8594L13.209 8H7.79102L6.14062 11ZM1 8C1.55228 8 2 8.44771 2 9C2 9.55229 1.55228 10 1 10C0.447715 10 0 9.55229 0 9C0 8.44771 0.447715 8 1 8ZM3 6C3.55228 6 4 6.44772 4 7C4 7.55228 3.55228 8 3 8C2.44772 8 2 7.55228 2 7C2 6.44772 2.44772 6 3 6ZM9 7H12V4H9V7ZM1 4C1.55228 4 2 4.44772 2 5C2 5.55228 1.55228 6 1 6C0.447715 6 0 5.55228 0 5C0 4.44772 0.447715 4 1 4ZM5 4C5.55228 4 6 4.44772 6 5C6 5.55228 5.55228 6 5 6C4.44772 6 4 5.55228 4 5C4 4.44772 4.44772 4 5 4ZM3 2C3.55228 2 4 2.44772 4 3C4 3.55228 3.55228 4 3 4C2.44772 4 2 3.55228 2 3C2 2.44772 2.44772 2 3 2ZM1 0C1.55228 0 2 0.447715 2 1C2 1.55228 1.55228 2 1 2C0.447715 2 0 1.55228 0 1C0 0.447715 0.447715 0 1 0Z" fill="black"/>
</g>
</g>
<defs>
<clipPath id="clip0_3684_42694">
<rect width="16" height="16" fill="white"/>
</clipPath>
</defs>
</svg>
