<svg width="16" height="16" viewBox="0 0 16 16" fill="none" xmlns="http://www.w3.org/2000/svg">
<g id="transform-scale-vertical">
<g id=".transform-scale-vertical">
<path id="Union" d="M8.5 11L8.5 13.793L10 12.293L10.707 13L8 15.707L5.29297 13L6 12.293L7.5 13.792L7.5 11L2 11L2 5L7.5 5L7.5 2.20703L6 3.70703L5.29297 3L8 0.292968L10.707 3L10 3.70703L8.5 2.20703L8.5 5L14 5L14 11L8.5 11ZM3 6L3 10L13 10L13 6L3 6Z" fill="black"/>
<rect id="Rectangle 823" opacity="0.2" x="3" y="6" width="10" height="4" fill="black"/>
</g>
</g>
</svg>
