<svg width="16" height="16" viewBox="0 0 16 16" fill="none" xmlns="http://www.w3.org/2000/svg">
<g id="transform-affect-pattern">
<g id=".transform-property-pattern" clip-path="url(#clip0_3684_42558)">
<path id="Union" d="M2 16H0V14H2V16ZM6 16H4V14H6V16ZM11 5.5V16H8V14H10V12H8V10H10V8H8V6H6V8H4V6H2V8H0V5H10.5L11 5.5ZM4 14H2V12H4V14ZM8 14H6V12H8V14ZM2 12H0V10H2V12ZM6 12H4V10H6V12ZM4 10H2V8H4V10ZM8 10H6V8H8V10Z" fill="black"/>
<path id="neutral" opacity="0.5" d="M16 4H15V1.70703L12 4.70703L11.293 4L14.293 1H12V0H16V4Z" fill="black"/>
</g>
</g>
<defs>
<clipPath id="clip0_3684_42558">
<rect width="16" height="16" fill="white"/>
</clipPath>
</defs>
</svg>
