<svg width="16" height="16" viewBox="0 0 16 16" fill="none" xmlns="http://www.w3.org/2000/svg">
<g id="transform-2pts">
<g id=".transform-points-two" clip-path="url(#clip0_3684_42774)">
<path id="Union" d="M5.70679 3.5L4.73022 4.47559L11.9763 10.8164L13.0007 9.79297L15.7078 12.5L13.0007 15.207L10.2937 12.5L11.2683 11.5244L4.02222 5.18359L2.99976 6.20703L0.292725 3.5L2.99976 0.792969L5.70679 3.5ZM11.7078 12.5L13.0007 13.793L14.2937 12.5L13.0007 11.207L11.7078 12.5ZM1.70679 3.5L2.99976 4.79297L4.29272 3.5L2.99976 2.20703L1.70679 3.5Z" fill="black"/>
<path id="shape" opacity="0.4" d="M9.72241 12.1577L8.19995 16.0132L6.18237 10.1665L0.0749512 9.19482L3.78198 6.9165L9.72241 12.1577ZM9.60132 3.34229L13.8494 1.02979L12.3093 5.61572L16.1453 9.29541L12.2849 9.0835L6.11108 3.63623L5.31128 0.20459L9.60132 3.34229Z" fill="black"/>
</g>
</g>
<defs>
<clipPath id="clip0_3684_42774">
<rect width="16" height="16" fill="white"/>
</clipPath>
</defs>
</svg>
