<svg width="16" height="16" viewBox="0 0 16 16" fill="none" xmlns="http://www.w3.org/2000/svg">
<g id="trim">
<g id=".path-operation-trim">
<path id="Subtract" opacity="0.3" d="M13.1543 2.00391C14.7394 2.08421 16 3.39489 16 5C16 6.65685 14.6569 8 13 8H3C1.89543 8 1 8.89543 1 10C1 11.1046 1.89543 12 3 12H4L3.5 12.5L4 13H3C1.34315 13 0 11.6569 0 10C0 8.34315 1.34315 7 3 7H13C14.1046 7 15 6.10457 15 5C15 3.96435 14.2128 3.113 13.2041 3.01074L13 3H12L12.5 2.5L12 2H13L13.1543 2.00391ZM16 12V13H6L6.5 12.5L6 12H16ZM9.5 2.5L10 3H0V2H10L9.5 2.5Z" fill="black"/>
<path id="Union" d="M13 2C14.6569 2 16 3.34315 16 5C16 6.65685 14.6569 8 13 8H3C1.89543 8 1 8.89543 1 10C1 11.1046 1.89543 12 3 12L5 10L7.5 12.5L5 15L3 13C1.34315 13 0 11.6569 0 10C0 8.34315 1.34315 7 3 7H13C14.1046 7 15 6.10457 15 5C15 3.89543 14.1046 3 13 3L11 5L8.5 2.5L11 0L13 2ZM3.91406 12.5L5 13.5859L6.08594 12.5L5 11.4141L3.91406 12.5ZM9.91406 2.5L11 3.58594L12.0859 2.5L11 1.41406L9.91406 2.5Z" fill="black"/>
</g>
</g>
</svg>
