<svg width="16" height="16" viewBox="0 0 16 16" fill="none" xmlns="http://www.w3.org/2000/svg">
<g id="vonkoch">
<g id=".snow-flake">
<path id="shape" d="M8.5 2.69043L9.77637 2.05273L10.2236 1.8291L10.6709 2.72363L8.5 3.80859V7.13379L11.3799 5.47168L11.2344 3.04883L12.2324 2.98926L12.2617 3.48828L12.3477 4.91211L13.8125 4.06738L14.3125 4.93262L12.8477 5.77832L14.0381 6.56445L14.4561 6.83984L13.9053 7.6748L11.8799 6.33691L8.99902 7.99902L11.8789 9.66211L13.9053 8.3252L14.4561 9.16016L14.0391 9.43555L12.8477 10.2217L14.3125 11.0674L13.8125 11.9326L12.3477 11.0869L12.2627 12.5117L12.2324 13.0107L11.2344 12.9512L11.3789 10.5283L8.5 8.86523V12.1904L10.6709 13.2764L10.2236 14.1709L9.77637 13.9473L8.5 13.3086V15H7.5V13.3086L6.22363 13.9473L5.77637 14.1709L5.3291 13.2764L7.5 12.1904V8.86523L4.62109 10.5283L4.76562 12.9512L3.76758 13.0107L3.7373 12.5117L3.65234 11.0869L2.1875 11.9326L1.6875 11.0674L3.15234 10.2217L1.96094 9.43555L1.54395 9.16016L2.09473 8.3252L4.12109 9.66211L6.99902 7.99902L4.12012 6.33691L2.09473 7.6748L1.54395 6.83984L1.96094 6.56445L3.15137 5.77832L1.6875 4.93262L2.1875 4.06738L3.65137 4.91211L3.7373 3.48828L3.76758 2.98926L4.76562 3.04883L4.62012 5.47168L7.5 7.13379V3.80859L5.3291 2.72363L5.77637 1.8291L6.22363 2.05273L7.5 2.69043V1H8.5V2.69043Z" fill="black"/>
</g>
</g>
</svg>
