<svg width="16" height="16" viewBox="0 0 16 16" fill="none" xmlns="http://www.w3.org/2000/svg">
<g id="y-axis-down">
<g id=".axis-y-top" clip-path="url(#clip0_3684_42242)">
<path id="Subtract" opacity="0.2" d="M16 16H3V4.91211C3.15662 4.96757 3.32438 5 3.5 5C4.32843 5 5 4.32843 5 3.5C5 3.3245 4.96847 3.15653 4.91309 3H16V16Z" fill="black"/>
<path id="Union" d="M14.207 3.5L11.3535 6.35352L10.6465 5.64648L12.293 4H5.9502C5.75138 4.97953 4.97951 5.75033 4 5.94922V12.293L5.64648 10.6465L6.35352 11.3535L3.5 14.207L0.646484 11.3535L1.35352 10.6465L3 12.293V5.94922C1.85895 5.71753 1 4.70943 1 3.5C1 2.11929 2.11929 1 3.5 1C4.70949 1 5.71858 1.85886 5.9502 3H12.293L10.6465 1.35352L11.3535 0.646484L14.207 3.5ZM3.5 2C2.67157 2 2 2.67157 2 3.5C2 4.32843 2.67157 5 3.5 5C4.32843 5 5 4.32843 5 3.5C5 2.67157 4.32843 2 3.5 2Z" fill="black"/>
</g>
</g>
<defs>
<clipPath id="clip0_3684_42242">
<rect width="16" height="16" fill="white"/>
</clipPath>
</defs>
</svg>
