<svg width="16" height="16" viewBox="0 0 16 16" fill="none" xmlns="http://www.w3.org/2000/svg">
<g id="y-axis-up">
<g id=".axis-y-bottom" clip-path="url(#clip0_3684_42241)">
<path id="Subtract" opacity="0.2" d="M16 0H3V11.0879C3.15662 11.0324 3.32438 11 3.5 11C4.32843 11 5 11.6716 5 12.5C5 12.6755 4.96847 12.8435 4.91309 13H16V0Z" fill="black"/>
<path id="Union" d="M14.207 12.5L11.3535 9.64648L10.6465 10.3535L12.293 12H5.9502C5.75138 11.0205 4.97951 10.2497 4 10.0508V3.70703L5.64648 5.35352L6.35352 4.64648L3.5 1.79297L0.646484 4.64648L1.35352 5.35352L3 3.70703V10.0508C1.85895 10.2825 1 11.2906 1 12.5C1 13.8807 2.11929 15 3.5 15C4.70949 15 5.71858 14.1411 5.9502 13H12.293L10.6465 14.6465L11.3535 15.3535L14.207 12.5ZM3.5 14C2.67157 14 2 13.3284 2 12.5C2 11.6716 2.67157 11 3.5 11C4.32843 11 5 11.6716 5 12.5C5 13.3284 4.32843 14 3.5 14Z" fill="black"/>
</g>
</g>
<defs>
<clipPath id="clip0_3684_42241">
<rect width="16" height="16" fill="white"/>
</clipPath>
</defs>
</svg>
