<svg width="16" height="16" viewBox="0 0 16 16" fill="none" xmlns="http://www.w3.org/2000/svg">
<g id="zoom-original">
<g id=".frame-fraction-1-1" clip-path="url(#clip0_3684_42732)">
<g id=".frame" clip-path="url(#clip1_3684_42732)">
<path id="Union" opacity="0.5" d="M1 15H3.5V16H0V12.5H1V15ZM16 16H12.5V15H15V12.5H16V16ZM3.5 1H1V3.5H0V0H3.5V1ZM16 3.5H15V1H12.5V0H16V3.5Z" fill="black"/>
</g>
<path id="Union_2" d="M5.0459 11H3.81543V6.34961H3.78125L2.44922 7.18457V6.09375L3.88965 5.18164H5.0459V11ZM13.0459 11H11.8154V6.34961H11.7812L10.4492 7.18457V6.09375L11.8896 5.18164H13.0459V11ZM7.99902 8.96582C8.36462 8.96587 8.6804 9.27485 8.68066 9.6416C8.68066 10.0103 8.37302 10.3242 7.99902 10.3242C7.6245 10.3242 7.31738 10.0159 7.31738 9.6416C7.31764 9.26974 7.62871 8.96582 7.99902 8.96582ZM7.99902 6.11328C8.36328 6.11333 8.68066 6.42099 8.68066 6.78711C8.68057 7.16229 8.37093 7.4687 7.99902 7.46875C7.62455 7.46875 7.31747 7.16128 7.31738 6.78711C7.31738 6.4159 7.63006 6.11328 7.99902 6.11328Z" fill="black"/>
</g>
</g>
<defs>
<clipPath id="clip0_3684_42732">
<rect width="16" height="16" fill="white"/>
</clipPath>
<clipPath id="clip1_3684_42732">
<rect width="16" height="16" fill="white"/>
</clipPath>
</defs>
</svg>
