<svg width="16" height="16" viewBox="0 0 16 16" fill="none" xmlns="http://www.w3.org/2000/svg">
<g id="zoom-fit-drawing">
<g id=".frame-drawing" clip-path="url(#clip0_3684_42497)">
<g id=".frame" clip-path="url(#clip1_3684_42497)">
<path id="Union" opacity="0.5" d="M1 15H3.5V16H0V12.5H1V15ZM16 16H12.5V15H15V12.5H16V16ZM3.5 1H1V3.5H0V0H3.5V1ZM16 3.5H15V1H12.5V0H16V3.5Z" fill="black"/>
</g>
<path id="Union_2" opacity="0.2" d="M13.4453 13.0044H8.00098L10.7227 8.29053L13.4453 13.0044ZM6.92773 12.0278H3V8.1001H6.92773V12.0278ZM8.35742 2.6001C9.65929 2.6001 10.7158 3.65565 10.7158 4.95752C10.7157 6.2593 9.65923 7.31494 8.35742 7.31494C7.05574 7.31479 6.0001 6.25921 6 4.95752C6 3.65574 7.05568 2.60025 8.35742 2.6001Z" fill="black"/>
<path id="Union_3" d="M13.4453 13.0054H8.00098L10.7236 8.29053L13.4453 13.0054ZM6.92773 12.0278H3V8.1001H6.92773V12.0278ZM9.7334 12.0054H11.7129L10.7227 10.2896L9.7334 12.0054ZM4 11.0278H5.92773V9.1001H4V11.0278ZM8.35742 2.6001C9.65929 2.6001 10.7158 3.65565 10.7158 4.95752L10.7031 5.19873C10.5822 6.3872 9.57779 7.31494 8.35742 7.31494L8.11621 7.30225C7.00709 7.18939 6.12456 6.30782 6.01172 5.19873L6 4.95752C6 3.65574 7.05568 2.60025 8.35742 2.6001ZM8.35742 3.6001C7.60771 3.60025 7 4.20828 7 4.95752C7.0001 5.70667 7.60777 6.31479 8.35742 6.31494C9.1072 6.31494 9.71572 5.70677 9.71582 4.95752C9.71582 4.20819 9.10726 3.6001 8.35742 3.6001Z" fill="black"/>
</g>
</g>
<defs>
<clipPath id="clip0_3684_42497">
<rect width="16" height="16" fill="white"/>
</clipPath>
<clipPath id="clip1_3684_42497">
<rect width="16" height="16" fill="white"/>
</clipPath>
</defs>
</svg>
