<svg width="16" height="16" viewBox="0 0 16 16" fill="none" xmlns="http://www.w3.org/2000/svg">
<g id="zoom-out">
<g id=".magnifying-glass-minus" clip-path="url(#clip0_3684_42818)">
<g id=".magnifying-glass">
<path id="Union" d="M6.5 1C9.53757 1 12 3.46243 12 6.5C12 7.83872 11.5206 9.06482 10.7256 10.0186L14.707 14L14 14.707L10.0186 10.7256C9.06482 11.5206 7.83872 12 6.5 12C3.46243 12 1 9.53757 1 6.5C1 3.46243 3.46243 1 6.5 1ZM6.5 2C4.01472 2 2 4.01472 2 6.5C2 8.98528 4.01472 11 6.5 11C8.98528 11 11 8.98528 11 6.5C11 4.01472 8.98528 2 6.5 2Z" fill="black"/>
</g>
<g id=".math-sign-minus">
<path id="Union_2" d="M9.0625 7H3.9375V6H9.0625V7Z" fill="black"/>
</g>
</g>
</g>
<defs>
<clipPath id="clip0_3684_42818">
<rect width="16" height="16" fill="white"/>
</clipPath>
</defs>
</svg>
