<svg width="16" height="16" viewBox="0 0 16 16" fill="none" xmlns="http://www.w3.org/2000/svg">
<g id="zoom-double-size">
<g id=".frame-fraction-2-1" clip-path="url(#clip0_3684_42667)">
<g id=".frame" clip-path="url(#clip1_3684_42667)">
<path id="Union" opacity="0.5" d="M1 15H3.5V16H0V12.5H1V15ZM16 16H12.5V15H15V12.5H16V16ZM3.5 1H1V3.5H0V0H3.5V1ZM16 3.5H15V1H12.5V0H16V3.5Z" fill="black"/>
</g>
<path id="Union_2" d="M3.95215 5.10254C4.36878 5.10255 4.73135 5.1765 5.04004 5.32422C5.35058 5.47003 5.59232 5.67223 5.76465 5.93164C5.937 6.19111 6.02344 6.48899 6.02344 6.82422C6.02339 7.04379 5.97965 7.26071 5.89258 7.47461C5.80734 7.6886 5.65424 7.92617 5.43457 8.1875C5.21488 8.44693 4.90537 8.75854 4.50586 9.12207L3.65625 9.9541V9.99414H6.09961V11H1.95215V10.1133L4.02344 8.19629C4.19955 8.02585 4.34651 7.8717 4.46582 7.73535C4.58702 7.599 4.67969 7.46563 4.74219 7.33496C4.80458 7.20248 4.83594 7.05952 4.83594 6.90625C4.83594 6.7358 4.7964 6.58893 4.71875 6.46582C4.64116 6.34101 4.53564 6.24495 4.40137 6.17871C4.2669 6.11053 4.11381 6.07715 3.94336 6.07715C3.7654 6.07717 3.61007 6.11262 3.47754 6.18457C3.34504 6.25651 3.24286 6.35977 3.1709 6.49414C3.09893 6.62861 3.0625 6.789 3.0625 6.97461H1.89551C1.89551 6.59416 1.98118 6.26359 2.15332 5.9834C2.32566 5.70312 2.56736 5.48544 2.87793 5.33203C3.18854 5.17862 3.54685 5.10254 3.95215 5.10254ZM13.0459 11H11.8154V6.34961H11.7812L10.4492 7.18457V6.09375L11.8896 5.18164H13.0459V11ZM7.99902 8.96582C8.36462 8.96587 8.6804 9.27485 8.68066 9.6416C8.68066 10.0103 8.37302 10.3242 7.99902 10.3242C7.6245 10.3242 7.31738 10.0159 7.31738 9.6416C7.31764 9.26974 7.62871 8.96582 7.99902 8.96582ZM7.99902 6.11328C8.36328 6.11333 8.68066 6.42099 8.68066 6.78711C8.68057 7.16229 8.37093 7.4687 7.99902 7.46875C7.62455 7.46875 7.31747 7.16128 7.31738 6.78711C7.31738 6.4159 7.63006 6.11328 7.99902 6.11328Z" fill="black"/>
</g>
</g>
<defs>
<clipPath id="clip0_3684_42667">
<rect width="16" height="16" fill="white"/>
</clipPath>
<clipPath id="clip1_3684_42667">
<rect width="16" height="16" fill="white"/>
</clipPath>
</defs>
</svg>
