<svg width="16" height="16" viewBox="0 0 16 16" fill="none" xmlns="http://www.w3.org/2000/svg">
<g id="zoom-half-size">
<g id=".frame-fraction-1-2" clip-path="url(#clip0_3684_42725)">
<g id=".frame" clip-path="url(#clip1_3684_42725)">
<path id="Union" opacity="0.5" d="M1 15H3.5V16H0V12.5H1V15ZM16 16H12.5V15H15V12.5H16V16ZM3.5 1H1V3.5H0V0H3.5V1ZM16 3.5H15V1H12.5V0H16V3.5Z" fill="black"/>
</g>
<path id="Union_2" d="M5.0459 11H3.81543V6.34961H3.78125L2.44922 7.18457V6.09375L3.88965 5.18164H5.0459V11ZM11.9521 5.10254C12.3688 5.10255 12.7313 5.1765 13.04 5.32422C13.3506 5.47003 13.5923 5.67223 13.7646 5.93164C13.937 6.19111 14.0234 6.48899 14.0234 6.82422C14.0234 7.04379 13.9797 7.26071 13.8926 7.47461C13.8073 7.6886 13.6542 7.92617 13.4346 8.1875C13.2149 8.44693 12.9054 8.75854 12.5059 9.12207L11.6562 9.9541V9.99414H14.0996V11H9.95215V10.1133L12.0234 8.19629C12.1996 8.02585 12.3465 7.8717 12.4658 7.73535C12.587 7.599 12.6797 7.46563 12.7422 7.33496C12.8046 7.20248 12.8359 7.05952 12.8359 6.90625C12.8359 6.7358 12.7964 6.58893 12.7188 6.46582C12.6412 6.34101 12.5356 6.24495 12.4014 6.17871C12.2669 6.11053 12.1138 6.07715 11.9434 6.07715C11.7654 6.07717 11.6101 6.11262 11.4775 6.18457C11.345 6.25651 11.2429 6.35977 11.1709 6.49414C11.0989 6.62861 11.0625 6.789 11.0625 6.97461H9.89551C9.89551 6.59416 9.98118 6.26359 10.1533 5.9834C10.3257 5.70312 10.5674 5.48544 10.8779 5.33203C11.1885 5.17862 11.5468 5.10254 11.9521 5.10254ZM7.99902 8.96582C8.36462 8.96587 8.6804 9.27485 8.68066 9.6416C8.68066 10.0103 8.37302 10.3242 7.99902 10.3242C7.6245 10.3242 7.31738 10.0159 7.31738 9.6416C7.31764 9.26974 7.62871 8.96582 7.99902 8.96582ZM7.99902 6.11328C8.36328 6.11333 8.68066 6.42099 8.68066 6.78711C8.68057 7.16229 8.37093 7.4687 7.99902 7.46875C7.62455 7.46875 7.31747 7.16128 7.31738 6.78711C7.31738 6.4159 7.63006 6.11328 7.99902 6.11328Z" fill="black"/>
</g>
</g>
<defs>
<clipPath id="clip0_3684_42725">
<rect width="16" height="16" fill="white"/>
</clipPath>
<clipPath id="clip1_3684_42725">
<rect width="16" height="16" fill="white"/>
</clipPath>
</defs>
</svg>
