<svg width="16" height="16" viewBox="0 0 16 16" fill="none" xmlns="http://www.w3.org/2000/svg">
<g id="color-picker-shape-below">
<g id=".dropper-layer" clip-path="url(#clip0_4053_55640)">
<path id="Union" opacity="0.3" d="M13.5 13.0078C13.5 13.9998 13 14.6821 12.5 15.5H11.5C11 14.6821 10.5 14 10.5 13V11H13.5V13.0078ZM7 10.375V14.375L0 10L3.19922 8L7 10.375Z" fill="black"/>
<path id="Union_2" opacity="0.3" d="M9.99995 2.00005C9.99995 0.895516 10.8952 0.000322927 11.9997 0.000261714C13.1043 0.000261714 13.9995 0.895479 13.9995 2.00005V3.99983C15.1041 3.99983 15.9993 4.89509 15.9993 5.99962C15.9993 7.10419 15.1041 7.99941 13.9995 7.99941H9.99995C8.89538 7.99941 8.00017 7.10419 8.00017 5.99962C8.00022 4.89509 8.89541 3.99983 9.99995 3.99983V2.00005Z" fill="black"/>
<path id="Vector 8" d="M13.5 7V13.008C13.5 14 13 14.6821 12.5 15.5H11.5C11 14.6821 10.5 14 10.5 13L10.5 7" stroke="black"/>
<g id="Union_3">
<mask id="path-4-inside-1_4053_55640" fill="white">
<path d="M9.99995 2.00005C9.99995 0.895516 10.8952 0.000322927 11.9997 0.000261714C13.1043 0.000261714 13.9995 0.895479 13.9995 2.00005V3.99983C15.1041 3.99983 15.9993 4.89509 15.9993 5.99962C15.9993 7.10419 15.1041 7.99941 13.9995 7.99941H9.99995C8.89538 7.99941 8.00017 7.10419 8.00017 5.99962C8.00022 4.89509 8.89541 3.99983 9.99995 3.99983V2.00005Z"/>
</mask>
<path d="M11.9997 0.000261714L11.9997 -0.999738L11.9997 -0.999738L11.9997 0.000261714ZM13.9995 3.99983L12.9995 3.99983L12.9995 4.99983L13.9995 4.99983V3.99983ZM15.9993 5.99962L16.9993 5.99962L16.9993 5.99958L15.9993 5.99962ZM8.00017 5.99962L7.00017 5.99958V5.99962H8.00017ZM9.99995 3.99983V4.99983H11V3.99983H9.99995ZM9.99995 2.00005L11 2.00005C11 1.44786 11.4475 1.00029 11.9998 1.00026L11.9997 0.000261714L11.9997 -0.999738C10.343 -0.999646 8.99995 0.343176 8.99995 2.00005H9.99995ZM11.9997 0.000261714V1.00026C12.552 1.00026 12.9995 1.44776 12.9995 2.00005H13.9995H14.9995C14.9995 0.343194 13.6566 -0.999738 11.9997 -0.999738V0.000261714ZM13.9995 2.00005H12.9995V3.99983L13.9995 3.99983H14.9995V2.00005H13.9995ZM13.9995 3.99983V4.99983C14.5517 4.99983 14.9993 5.44734 14.9993 5.99967L15.9993 5.99962L16.9993 5.99958C16.9992 4.34284 15.6564 2.99983 13.9995 2.99983V3.99983ZM15.9993 5.99962H14.9993C14.9993 6.55191 14.5518 6.99941 13.9995 6.99941V7.99941L13.9995 8.99941C15.6564 8.99941 16.9993 7.65647 16.9993 5.99962L15.9993 5.99962ZM13.9995 7.99941V6.99941L9.99995 6.99941V7.99941V8.99941H13.9995L13.9995 7.99941ZM9.99995 7.99941V6.99941C9.44767 6.99941 9.00017 6.55191 9.00017 5.99962H8.00017H7.00017C7.00017 7.65647 8.3431 8.99941 9.99995 8.99941V7.99941ZM8.00017 5.99962L9.00017 5.99967C9.00019 5.44734 9.44774 4.99983 9.99995 4.99983V3.99983V2.99983C8.34308 2.99983 7.00024 4.34284 7.00017 5.99958L8.00017 5.99962ZM9.99995 3.99983H11V2.00005L9.99995 2.00005H8.99995L8.99995 3.99983H9.99995Z" fill="black" mask="url(#path-4-inside-1_4053_55640)"/>
</g>
<path id="Subtract" d="M7 2.80273L1.88574 6L7 9.19531V10.374L4.24707 8.6543L2.09668 10L7 13.0645V14.375L0 10L3.19922 8L3.61816 8.26172L0 6L7 1.625V2.80273Z" fill="black"/>
</g>
</g>
<defs>
<clipPath id="clip0_4053_55640">
<rect width="16" height="16" fill="white"/>
</clipPath>
</defs>
</svg>
