<svg width="16" height="16" viewBox="0 0 16 16" fill="none" xmlns="http://www.w3.org/2000/svg">
<g id="dialog-warning">
<g id="sign-exclamation-triangle">
<path id="Union" d="M15.5 14.4956H0.5L8 1.50537L15.5 14.4956ZM2.23242 13.4956H13.7676L8 3.50537L2.23242 13.4956ZM7.99902 11.0112C8.20717 11.0113 8.39083 11.0884 8.5498 11.2417C8.71067 11.3951 8.79204 11.5796 8.79395 11.7954C8.79205 11.9431 8.75342 12.0776 8.67773 12.1987C8.60387 12.318 8.50701 12.4139 8.3877 12.4858C8.26853 12.5558 8.13897 12.5912 7.99902 12.5913C7.77942 12.5913 7.59075 12.5141 7.43359 12.3608C7.27829 12.2055 7.20123 12.017 7.20312 11.7954C7.20124 11.5795 7.2783 11.3951 7.43359 11.2417C7.59078 11.0883 7.77936 11.0112 7.99902 11.0112ZM8.64648 10.4126H7.35059L7.20312 6.4126H8.79395L8.64648 10.4126Z" fill="black"/>
</g>
</g>
</svg>
