<svg width="16" height="16" viewBox="0 0 16 16" fill="none" xmlns="http://www.w3.org/2000/svg">
<g id="document-save-as">
<g id=".diskette-dots">
<path id="Union" d="M9 14C9.55229 14 10 14.4477 10 15C10 15.5523 9.55229 16 9 16C8.44772 16 8 15.5523 8 15C8 14.4477 8.44772 14 9 14ZM12 14C12.5523 14 13 14.4477 13 15C13 15.5523 12.5523 16 12 16C11.4477 16 11 15.5523 11 15C11 14.4477 11.4477 14 12 14ZM15 14C15.5523 14 16 14.4477 16 15C16 15.5523 15.5523 16 15 16C14.4477 16 14 15.5523 14 15C14 14.4477 14.4477 14 15 14ZM15 4V11H12V9.41406L11.5859 9H4.41406L4 9.41406V14H5V15H1V1H12L15 4ZM2 14H3V9L4 8H12L13 9V10H14V4.41406L12 2.41406V6H4V2H2V14ZM5 5H11V2H10V4H8V2H5V5Z" fill="black"/>
<path id="Vector 827" opacity="0.3" d="M4 2H2V14H3V9L4 8H12L13 9V11H14V4L12 2V6H4V2Z" fill="black"/>
</g>
</g>
</svg>
