<svg version="1.1" id="Layer_1" xmlns="http://www.w3.org/2000/svg" xmlns:xlink="http://www.w3.org/1999/xlink" x="0px" y="0px"
	 width="100%" viewBox="0 0 512 512" enable-background="new 0 0 512 512" xml:space="preserve">
<path fill="#000000" opacity="1.000000" stroke="none" 
	d="
M249.466858,513.000000 
	C241.514297,507.411377 241.387436,499.524384 241.548294,491.150330 
	C241.887375,473.497009 242.102768,455.816345 241.463196,438.179718 
	C241.138412,429.223083 247.862976,421.800201 257.666168,422.506104 
	C267.254791,423.196564 272.339966,427.928131 272.339386,437.965668 
	C272.338226,457.124878 272.094055,476.288910 272.468719,495.440826 
	C272.606171,502.467133 271.033295,508.148956 265.158508,512.702759 
	C259.977905,513.000000 254.955811,513.000000 249.466858,513.000000 
z"/>
<path fill="#000000" opacity="1.000000" stroke="none" 
	d="
M513.000000,263.535339 
	C508.940918,270.650391 503.045319,272.668304 495.334137,272.497040 
	C476.041046,272.068512 456.731995,272.368958 437.429413,272.346802 
	C427.631134,272.335571 422.636322,266.967743 422.652863,256.560059 
	C422.667938,247.067261 427.973816,241.645874 437.252838,241.646606 
	C457.054657,241.648163 476.860474,241.878143 496.656189,241.532532 
	C503.699890,241.409561 508.900940,243.540161 512.749634,249.773407 
	C513.000000,254.356903 513.000000,258.713806 513.000000,263.535339 
z"/>
<path fill="#000000" opacity="1.000000" stroke="none" 
	d="
M263.535339,1.000000 
	C271.069702,5.317152 272.670441,11.732130 272.483582,19.696209 
	C272.035065,38.816795 272.359711,57.955040 272.328156,77.086090 
	C272.313232,86.143562 266.669861,91.375443 257.067657,91.359032 
	C247.432831,91.342552 241.670776,86.086098 241.659531,77.203560 
	C241.634674,57.573414 241.911270,37.937992 241.516830,18.315741 
	C241.369720,10.997560 243.087860,5.301097 249.771210,1.242523 
	C254.356903,1.000000 258.713806,1.000000 263.535339,1.000000 
z"/>
<path fill="#000000" opacity="1.000000" stroke="none" 
	d="
M1.000000,249.466125 
	C6.445367,242.232239 13.689378,241.310577 21.896723,241.508728 
	C40.374630,241.954834 58.870697,241.626617 77.359276,241.662628 
	C86.211571,241.679855 91.361916,247.472931 91.348495,257.249359 
	C91.335732,266.545929 86.032005,272.326813 77.356468,272.344147 
	C57.701942,272.383423 38.042408,272.113037 18.395233,272.496887 
	C11.069624,272.639984 5.393571,270.789429 1.242605,264.229980 
	C1.000000,259.310730 1.000000,254.621490 1.000000,249.466125 
z"/>
<path fill="#000000" opacity="1.000000" stroke="none" 
	d="
M132.546768,199.719849 
	C147.066605,169.754944 168.940262,147.534576 198.615921,133.283035 
	C216.331696,124.775139 235.076797,120.775574 254.876450,120.494141 
	C277.466614,120.173042 298.802521,124.659554 318.725220,134.960617 
	C348.882904,150.553711 370.680359,174.040741 383.836945,205.566986 
	C392.639893,226.660919 395.178223,248.727417 393.063080,271.021515 
	C390.486206,298.182831 380.303528,322.627594 362.503326,343.793121 
	C341.884888,368.309692 316.243378,384.505188 284.906738,390.842560 
	C257.840179,396.316376 231.145401,394.326691 205.358017,383.640991 
	C176.584595,371.717987 154.549728,352.222076 138.660385,325.470001 
	C123.505157,299.953888 118.643730,272.200897 120.844040,243.122711 
	C121.973038,228.202423 126.154839,213.781540 132.546768,199.719849 
M306.259613,348.741577 
	C349.003601,325.698303 370.837006,276.464294 358.599396,230.947357 
	C346.684479,186.630600 306.495331,157.038498 272.788452,154.568375 
	C272.788452,222.774673 272.788452,290.978271 272.788452,359.692963 
	C284.958984,358.793793 295.396393,354.305786 306.259613,348.741577 
z"/>
<path fill="#000000" opacity="1.000000" stroke="none" 
	d="
M415.006042,438.135254 
	C401.902435,425.076263 389.043030,412.286133 376.260956,399.419220 
	C370.932922,394.055878 367.950958,387.871918 370.331177,380.080780 
	C372.928589,371.578857 382.243134,367.142334 390.726135,370.430664 
	C393.857178,371.644409 396.665039,373.404572 399.047638,375.793182 
	C411.738312,388.515991 424.471130,401.197418 437.080811,414.000061 
	C440.737701,417.712982 443.531982,421.935364 443.387451,427.586182 
	C443.241913,433.277405 441.570557,438.234741 436.475708,441.092163 
	C430.955963,444.187897 425.104706,444.566956 419.426788,441.118256 
	C418.011383,440.258575 416.661438,439.291107 415.006042,438.135254 
z"/>
<path fill="#000000" opacity="1.000000" stroke="none" 
	d="
M121.674072,142.803665 
	C118.343391,141.062958 115.794731,138.964142 113.431122,136.589050 
	C101.322578,124.421700 89.167885,112.300232 77.070099,100.122223 
	C72.974060,95.999023 70.210434,91.389267 70.609016,85.134178 
	C71.287697,74.483482 81.736176,67.570190 91.748901,71.489426 
	C95.197594,72.839325 98.164474,74.941788 100.785522,77.563560 
	C113.156364,89.937828 125.599525,102.240501 137.890915,114.693047 
	C141.286102,118.132744 144.183762,122.007973 144.341629,127.237778 
	C144.741913,140.497589 134.475906,147.764984 121.674072,142.803665 
z"/>
<path fill="#000000" opacity="1.000000" stroke="none" 
	d="
M144.326263,385.890076 
	C144.433929,391.403564 141.600510,395.250122 138.392761,398.532104 
	C125.605568,411.614990 112.666069,424.552673 99.606979,437.364746 
	C91.362465,445.453308 79.828804,445.450897 73.754776,437.715912 
	C68.685394,431.260284 69.643921,421.247101 76.504494,414.256226 
	C89.199844,401.319794 102.062950,388.545776 114.988152,375.838348 
	C119.373047,371.527283 124.517952,368.792236 131.095993,369.662689 
	C139.515213,370.776825 144.010330,375.982574 144.326263,385.890076 
z"/>
<path fill="#000000" opacity="1.000000" stroke="none" 
	d="
M419.908875,72.519470 
	C426.135864,68.693092 436.290894,70.899422 440.244843,76.003288 
	C444.333344,81.280815 444.453247,89.619186 440.140076,95.942764 
	C439.117371,97.442200 438.043640,98.947960 436.770111,100.228836 
	C424.105835,112.966484 411.437042,125.700233 398.680176,138.345001 
	C391.514221,145.448044 381.281219,146.461411 374.875275,140.916580 
	C367.957428,134.928665 367.326477,124.024345 374.554382,116.431740 
	C387.735748,102.585342 401.492676,89.285774 415.070282,75.819405 
	C416.344360,74.555786 418.051788,73.729118 419.908875,72.519470 
z"/>
</svg>