<?xml version="1.0" encoding="UTF-8" standalone="no"?>
<svg
   width="16"
   height="16"
   viewBox="0 0 16 16"
   fill="none"
   version="1.1"
   id="svg1"
   sodipodi:docname="paint-order-markers-symbolic.svg"
   inkscape:version="1.4.2 (ebf0e940d0, 2025-05-08)"
   xmlns:inkscape="http://www.inkscape.org/namespaces/inkscape"
   xmlns:sodipodi="http://sodipodi.sourceforge.net/DTD/sodipodi-0.dtd"
   xmlns="http://www.w3.org/2000/svg"
   xmlns:svg="http://www.w3.org/2000/svg">
  <defs
     id="defs1" />
  <sodipodi:namedview
     id="namedview1"
     pagecolor="#ffffff"
     bordercolor="#000000"
     borderopacity="0.25"
     inkscape:showpageshadow="2"
     inkscape:pageopacity="0.0"
     inkscape:pagecheckerboard="0"
     inkscape:deskcolor="#d1d1d1"
     showgrid="true"
     inkscape:zoom="34.9375"
     inkscape:cx="7.5420394"
     inkscape:cy="8.6726297"
     inkscape:window-width="2560"
     inkscape:window-height="1371"
     inkscape:window-x="0"
     inkscape:window-y="0"
     inkscape:window-maximized="1"
     inkscape:current-layer="svg1">
    <inkscape:grid
       id="grid1"
       units="px"
       originx="0"
       originy="0"
       spacingx="1"
       spacingy="1"
       empcolor="#0099e5"
       empopacity="0.30196078"
       color="#0099e5"
       opacity="0.14901961"
       empspacing="5"
       enabled="true"
       visible="true" />
  </sodipodi:namedview>
  <g
     id="g6"
     transform="matrix(0.37546231,0,0,0.3344337,9.3682343,5.8502005)"
     style="fill:#000000;stroke-width:1.0003;stroke-dasharray:none">
    <path
       id="path6"
       fill-rule="evenodd"
       clip-rule="evenodd"
       d="m 7.75453,3.3829677 c 0.15017,-0.09384 0.3407,-0.09384 0.49087,0 l 6.5365,4.08481 c 0.2902,0.18139 0.2902,0.6041 0,0.78548 L 8.2454,12.338087 c -0.15017,0.0938 -0.3407,0.0938 -0.49087,0 L 1.21804,8.2532577 c -0.290256,-0.18138 -0.290256,-0.60409 0,-0.78548 z"
       fill="#000000"
       sodipodi:nodetypes="ccccccccc"
       style="fill:#000000;stroke-width:1.0003;stroke-dasharray:none" />
  </g>
  <g
     id="g7"
     transform="matrix(0.37546231,0,0,0.3344337,5.0407131,8.892159)"
     style="fill:#000000;stroke-width:1.0003;stroke-dasharray:none">
    <path
       id="path7"
       fill-rule="evenodd"
       clip-rule="evenodd"
       d="m 7.75453,3.3829677 c 0.15017,-0.09384 0.3407,-0.09384 0.49087,0 l 6.5365,4.08481 c 0.2902,0.18139 0.2902,0.6041 0,0.78548 L 8.2454,12.338087 c -0.15017,0.0938 -0.3407,0.0938 -0.49087,0 L 1.21804,8.2532577 c -0.290256,-0.18138 -0.290256,-0.60409 0,-0.78548 z"
       fill="#000000"
       sodipodi:nodetypes="ccccccccc"
       style="fill:#000000;stroke-width:1.0003;stroke-dasharray:none" />
  </g>
  <g
     id="g5"
     transform="matrix(0.37546231,0,0,0.3344337,5.3682343,2.892159)"
     style="fill:#000000;stroke-width:1.0003;stroke-dasharray:none">
    <path
       id="path5"
       fill-rule="evenodd"
       clip-rule="evenodd"
       d="m 7.75453,3.3829677 c 0.15017,-0.09384 0.3407,-0.09384 0.49087,0 l 6.5365,4.08481 c 0.2902,0.18139 0.2902,0.6041 0,0.78548 L 8.2454,12.338087 c -0.15017,0.0938 -0.3407,0.0938 -0.49087,0 L 1.21804,8.2532577 c -0.290256,-0.18138 -0.290256,-0.60409 0,-0.78548 z"
       fill="#000000"
       sodipodi:nodetypes="ccccccccc"
       style="fill:#000000;stroke-width:1.0003;stroke-dasharray:none" />
  </g>
  <g
     id="g4"
     transform="matrix(0.37546231,0,0,0.3344337,0.62440703,5.8502005)"
     style="fill:#000000;stroke-width:1.0003;stroke-dasharray:none">
    <path
       id="path4"
       fill-rule="evenodd"
       clip-rule="evenodd"
       d="m 7.75453,3.3829677 c 0.15017,-0.09384 0.3407,-0.09384 0.49087,0 l 6.5365,4.08481 c 0.2902,0.18139 0.2902,0.6041 0,0.78548 L 8.2454,12.338087 c -0.15017,0.0938 -0.3407,0.0938 -0.49087,0 L 1.21804,8.2532577 c -0.290256,-0.18138 -0.290256,-0.60409 0,-0.78548 z"
       fill="#000000"
       sodipodi:nodetypes="ccccccccc"
       style="fill:#000000;stroke-width:1.0003;stroke-dasharray:none" />
  </g>
  <g
     id="dialog-objects"
     transform="matrix(0.64946307,0,0,0.57849305,2.8990931,3.9799909)"
     style="opacity:0.3;fill:none;stroke:#000000;stroke-width:1.0003;stroke-dasharray:none">
    <path
       style="baseline-shift:baseline;clip-rule:evenodd;display:inline;overflow:visible;opacity:1;vector-effect:none;fill:#000000;fill-rule:evenodd;stroke:none;enable-background:accumulate;stop-color:#000000;stop-opacity:1"
       d="M 7.4902344,2.9589844 0.953125,7.0429687 c -0.58639503,0.3664565 -0.58640879,1.2683208 0,1.6347657 l 6.5371094,4.0839846 c 0.3113878,0.194501 0.7081434,0.194501 1.0195312,0 L 15.046875,8.6777344 c 0.586362,-0.3664862 0.586348,-1.2682678 0,-1.6347657 L 8.5097656,2.9589844 c -0.3113987,-0.1945905 -0.7081325,-0.1945905 -1.0195312,0 z M 8,3.8183594 14.466797,7.8613281 8,11.902344 1.5332031,7.8613281 Z"
       id="Union" />
  </g>
</svg>
