<?xml version="1.0" encoding="utf-8" ?><svg xmlns="http://www.w3.org/2000/svg" xmlns:xlink="http://www.w3.org/1999/xlink" width="512" height="512" viewBox="0 0 512 512"><path d="M252.294 0L259.441 0L259.834 0.213644C261.633 1.16784 265.074 2.1325 266.683 3.60161C270.124 6.74375 273.711 10.9142 276.884 14.3714C284.776 22.9395 292.581 31.5866 300.299 40.3115C343.304 89.2293 383.797 140.954 417.798 196.579C428.977 215.163 439.708 233.126 446.502 253.809C483.137 365.341 395.328 489.988 283.405 509.725C279.548 510.405 270.045 510.723 266.934 512L244.576 512C241.478 510.857 232.025 510.453 228.276 509.799C116.505 490.281 28.4213 365.263 65.459 253.806C70.9387 237.316 79.5012 221.824 87.9866 206.772C103.957 178.792 121.516 151.751 140.58 125.78C164.172 93.2574 189.686 62.1736 216.987 32.6947C226.158 22.8341 235.669 12.5933 245.505 3.33521C246.744 2.16963 250.447 0.966494 252.108 0.0987527L252.294 0ZM255.395 463.895C295.813 463.224 330.868 444.601 359.02 416.334C361.906 413.283 364.832 410.24 367.56 407.045C391.618 378.865 407.607 342.026 406.95 304.583C406.69 289.809 403.249 274.135 397.878 260.39C396.028 255.794 392.51 249.201 390.169 244.846C385.396 236.035 380.38 227.358 375.125 218.825C347.755 174.303 313.221 129.042 279.162 89.3542C274.153 83.46 269.092 77.6098 263.98 71.8042C262.679 70.3209 256.85 63.3943 255.49 62.6554L255.475 335.915L255.474 421.025L255.479 448.441C255.482 453.193 255.643 459.235 255.395 463.895Z"/></svg>