<?xml version="1.0" encoding="UTF-8" standalone="no"?>
<svg width="100" height="100" viewBox="0 0 26.458334 26.458334" version="1.1" id="svg10012" inkscape:version="1.4 (e7c3feb1, 2024-10-09)" sodipodi:docname="custom.svg" xml:space="preserve" xmlns:inkscape="http://www.inkscape.org/namespaces/inkscape" xmlns:sodipodi="http://sodipodi.sourceforge.net/DTD/sodipodi-0.dtd" xmlns="http://www.w3.org/2000/svg" xmlns:svg="http://www.w3.org/2000/svg" xmlns:rdf="http://www.w3.org/1999/02/22-rdf-syntax-ns#" xmlns:cc="http://creativecommons.org/ns#" xmlns:dc="http://purl.org/dc/elements/1.1/"><defs id="defs10006" /><sodipodi:namedview id="base" pagecolor="#ffffff" bordercolor="#666666" borderopacity="1.0" inkscape:pageopacity="0.0" inkscape:pageshadow="2" inkscape:zoom="6.81" inkscape:cx="50" inkscape:cy="50" inkscape:document-units="px" inkscape:current-layer="g19" inkscape:document-rotation="0" showgrid="false" units="px" inkscape:window-width="1456" inkscape:window-height="829" inkscape:window-x="0" inkscape:window-y="38" inkscape:window-maximized="0" inkscape:showpageshadow="2" inkscape:pagecheckerboard="0" inkscape:deskcolor="#d1d1d1" /><metadata id="metadata10009"><rdf:RDF><cc:Work rdf:about=""><dc:format>image/svg+xml</dc:format><dc:type rdf:resource="http://purl.org/dc/dcmitype/StillImage" /><dc:title /></cc:Work></rdf:RDF></metadata><g inkscape:label="Layer 1" inkscape:groupmode="layer" id="layer1" transform="translate(-70.005836,-46.768833)"><g id="g2969" transform="matrix(2.5155261,0,0,2.5155261,-852.83529,-1171.156)" style="display:inline;stroke-width:0.397531"><g id="g2960" transform="matrix(0,1,1,0,-57.10174,41.93237)" style="stroke-width:0.397531"><g id="g19" transform="matrix(0.20316495,0,0,0.20316495,352.16806,337.56285)"><g id="g1" transform="translate(2.58854,0.51770801)"><path id="path2948" style="font-variation-settings:normal;opacity:0.2;vector-effect:none;fill:#000000;fill-opacity:1;stroke:none;stroke-width:0.150919px;stroke-linecap:butt;stroke-linejoin:miter;stroke-miterlimit:4;stroke-dasharray:none;stroke-dashoffset:0;stroke-opacity:1;paint-order:stroke markers fill;stop-color:#000000" d="m 449.12986,468.61946 0.003,-1.44763 h 32.9812 v -0.92553 -30.20974 h 1.38647 v 32.5829 z" sodipodi:nodetypes="cccccccc" /><path id="path2950" style="color:#000000;font-style:normal;font-variant:normal;font-weight:normal;font-stretch:normal;font-size:medium;line-height:normal;font-family:sans-serif;font-variant-ligatures:normal;font-variant-position:normal;font-variant-caps:normal;font-variant-numeric:normal;font-variant-alternates:normal;font-variant-east-asian:normal;font-feature-settings:normal;font-variation-settings:normal;text-indent:0;text-align:start;text-decoration:none;text-decoration-line:none;text-decoration-style:solid;text-decoration-color:#000000;letter-spacing:normal;word-spacing:normal;text-transform:none;writing-mode:lr-tb;direction:ltr;text-orientation:mixed;dominant-baseline:auto;baseline-shift:baseline;text-anchor:start;white-space:normal;shape-padding:0;shape-margin:0;inline-size:0;clip-rule:nonzero;display:inline;overflow:visible;visibility:visible;opacity:0.4;isolation:auto;mix-blend-mode:normal;color-interpolation:sRGB;color-interpolation-filters:linearRGB;solid-color:#000000;solid-opacity:1;vector-effect:none;fill:#000000;fill-opacity:1;fill-rule:nonzero;stroke:none;stroke-width:0.675803;stroke-linecap:butt;stroke-linejoin:miter;stroke-miterlimit:4;stroke-dasharray:none;stroke-dashoffset:0;stroke-opacity:1;paint-order:stroke markers fill;color-rendering:auto;image-rendering:auto;shape-rendering:auto;text-rendering:auto;enable-background:accumulate;stop-color:#000000" d="m 448.47519,433.44944 h 0.71288 32.93814 v 0.92112 31.91283 0.92061 h -33.65102 z m 0.71288,0.84659 v 32.0619 h 32.22525 v -0.074 -31.91335 -0.0745 z" sodipodi:nodetypes="ccccccccccccccc" /><path style="color:#000000;font-style:normal;font-variant:normal;font-weight:normal;font-stretch:normal;font-size:medium;line-height:normal;font-family:sans-serif;font-variant-ligatures:normal;font-variant-position:normal;font-variant-caps:normal;font-variant-numeric:normal;font-variant-alternates:normal;font-variant-east-asian:normal;font-feature-settings:normal;font-variation-settings:normal;text-indent:0;text-align:start;text-decoration:none;text-decoration-line:none;text-decoration-style:solid;text-decoration-color:#000000;letter-spacing:normal;word-spacing:normal;text-transform:none;writing-mode:lr-tb;direction:ltr;text-orientation:mixed;dominant-baseline:auto;baseline-shift:baseline;text-anchor:start;white-space:normal;shape-padding:0;shape-margin:0;inline-size:0;clip-rule:nonzero;display:inline;overflow:visible;visibility:visible;opacity:0.7;isolation:auto;mix-blend-mode:normal;color-interpolation:sRGB;color-interpolation-filters:linearRGB;solid-color:#000000;solid-opacity:1;vector-effect:none;fill:#ffffff;fill-opacity:1;fill-rule:nonzero;stroke:none;stroke-width:0.675803;stroke-linecap:butt;stroke-linejoin:miter;stroke-miterlimit:4;stroke-dasharray:none;stroke-dashoffset:0;stroke-opacity:1;paint-order:stroke markers fill;color-rendering:auto;image-rendering:auto;shape-rendering:auto;text-rendering:auto;enable-background:accumulate;stop-color:#000000" d="m 449.20806,434.30041 h 32.0979 v 0.0746 31.94922 0.0741 h -32.0979 z" id="path2952" sodipodi:nodetypes="ccccccc" /><path id="path2954" style="color:#000000;font-style:normal;font-variant:normal;font-weight:normal;font-stretch:normal;font-size:medium;line-height:normal;font-family:sans-serif;font-variant-ligatures:normal;font-variant-position:normal;font-variant-caps:normal;font-variant-numeric:normal;font-variant-alternates:normal;font-variant-east-asian:normal;font-feature-settings:normal;font-variation-settings:normal;text-indent:0;text-align:start;text-decoration:none;text-decoration-line:none;text-decoration-style:solid;text-decoration-color:#000000;letter-spacing:normal;word-spacing:normal;text-transform:none;writing-mode:lr-tb;direction:ltr;text-orientation:mixed;dominant-baseline:auto;baseline-shift:baseline;text-anchor:start;white-space:normal;shape-padding:0;shape-margin:0;inline-size:0;clip-rule:nonzero;display:inline;overflow:visible;visibility:visible;opacity:0.4;isolation:auto;mix-blend-mode:normal;color-interpolation:sRGB;color-interpolation-filters:linearRGB;solid-color:#000000;solid-opacity:1;vector-effect:none;fill:#000000;fill-opacity:1;fill-rule:nonzero;stroke:none;stroke-width:0.397531;stroke-linecap:butt;stroke-linejoin:miter;stroke-miterlimit:4;stroke-dasharray:none;stroke-dashoffset:0;stroke-opacity:1;paint-order:stroke markers fill;color-rendering:auto;image-rendering:auto;shape-rendering:auto;text-rendering:auto;enable-background:accumulate;stop-color:#000000" d="m 450.67665,435.80485 h 0.41809 28.83397 v 0.56638 28.09152 0.56637 h -29.25206 z m 0.41898,0.50075 v 28.22278 h 28.41538 v -0.0651 -28.09204 -0.0656 z" sodipodi:nodetypes="ccccccccccccccc" /><path id="path2956" style="color:#000000;font-style:normal;font-variant:normal;font-weight:normal;font-stretch:normal;font-size:medium;line-height:normal;font-family:sans-serif;font-variant-ligatures:normal;font-variant-position:normal;font-variant-caps:normal;font-variant-numeric:normal;font-variant-alternates:normal;font-variant-east-asian:normal;font-feature-settings:normal;font-variation-settings:normal;text-indent:0;text-align:start;text-decoration:none;text-decoration-line:none;text-decoration-style:solid;text-decoration-color:#000000;letter-spacing:normal;word-spacing:normal;text-transform:none;writing-mode:lr-tb;direction:ltr;text-orientation:mixed;dominant-baseline:auto;baseline-shift:baseline;text-anchor:start;white-space:normal;shape-padding:0;shape-margin:0;inline-size:0;clip-rule:nonzero;display:inline;overflow:visible;visibility:visible;opacity:0.2;isolation:auto;mix-blend-mode:normal;color-interpolation:sRGB;color-interpolation-filters:linearRGB;solid-color:#000000;solid-opacity:1;fill:#000000;fill-opacity:1;fill-rule:evenodd;stroke:none;stroke-width:0.397531;stroke-linecap:butt;stroke-linejoin:miter;stroke-miterlimit:4;stroke-dasharray:none;stroke-dashoffset:0;stroke-opacity:1;paint-order:stroke markers fill;color-rendering:auto;image-rendering:auto;shape-rendering:auto;text-rendering:auto;enable-background:accumulate;stop-color:#000000" d="m 451.06372,436.30577 h 28.47394 v 0.0657 28.09172 0.0651 h -28.47394 z m 4.40667,4.70424 c 10e-4,-0.22621 0.18587,-0.40843 0.41207,-0.40634 l 16.38156,-6.4e-4 c 0.10069,-3.1e-4 0.19797,0.0365 0.27314,0.1035 l 2.39534,2.15296 c 0.0853,0.0778 0.13367,0.18811 0.13312,0.30358 v 16.62974 c -0.001,0.22399 -0.1824,0.4053 -0.40639,0.40635 h -18.77689 c -0.22622,0.002 -0.41103,-0.18012 -0.41211,-0.40635 z m 0.81846,0.40635 v 1.07297 h 10.11022 c 0.22646,-0.002 0.41165,0.17987 0.41272,0.40634 v 15.01134 c -10e-4,0.22645 -0.18627,0.40875 -0.41272,0.4063 h -10.11022 v 1.06725 h 17.9642 v -1.07934 h -6.34978 c -0.22397,-10e-4 -0.40528,-0.18237 -0.40635,-0.40635 v -13.19775 c 8.4e-4,-0.0225 0.004,-0.0449 0.008,-0.067 0.003,-0.007 0.005,-0.0136 0.008,-0.0203 0.003,-0.0137 0.007,-0.0273 0.0122,-0.0406 0.004,-0.01 0.008,-0.0191 0.0122,-0.0284 0.005,-0.0111 0.0104,-0.0219 0.0162,-0.0325 0.006,-0.0111 0.013,-0.022 0.0203,-0.0325 0.006,-0.008 0.0132,-0.0165 0.0203,-0.0244 0.007,-0.007 0.0133,-0.0138 0.0203,-0.0203 0.009,-0.01 0.0185,-0.0194 0.0284,-0.0284 0.008,-0.007 0.016,-0.0138 0.0244,-0.0203 0.009,-0.007 0.0186,-0.0139 0.0284,-0.0203 0.0105,-0.007 0.0213,-0.014 0.0325,-0.0203 0.009,-0.004 0.0188,-0.008 0.0284,-0.0122 0.0106,-0.005 0.0215,-0.009 0.0325,-0.0122 0.0133,-0.005 0.0268,-0.009 0.0406,-0.0122 0.007,-0.003 0.0135,-0.006 0.0203,-0.008 0.0221,-0.005 0.0445,-0.007 0.067,-0.008 h 6.34978 v -0.94601 l -2.14654,-1.9284 z m 0,1.88566 v 14.19864 h 9.70388 v -14.19864 z m 12.02714,1.80144 v 9.40667 h 5.93706 v -9.40667 z m 0,10.22574 v 2.15933 h 5.93706 v -2.15933 z m 0.36364,-9.20058 c 0.001,-0.22397 0.18238,-0.40527 0.40635,-0.40635 h 4.37861 c 0.22397,0.001 0.40527,0.18238 0.40634,0.40635 v 2.28052 c -10e-4,0.22397 -0.18237,0.40528 -0.40634,0.40635 h -4.37861 c -0.22397,-0.001 -0.40527,-0.18238 -0.40635,-0.40635 z m 0.81907,0.41272 v 1.45508 h 3.55378 v -1.45508 z" sodipodi:nodetypes="ccccccccccccccccccccccccccccccccccccccccccccccccccccccccccccccccccccccccccccccccc" /></g></g></g></g></g></svg>
