<svg xmlns="http://www.w3.org/2000/svg" width="128" height="78" viewBox="0 0 128 78">
  <defs>
    <filter id="dotGlow" x="-50%" y="-50%" width="200%" height="200%">
      <feGaussianBlur in="SourceGraphic" stdDeviation="1.5" result="b"/>
      <feMerge>
        <feMergeNode in="b"/>
        <feMergeNode in="SourceGraphic"/>
      </feMerge>
    </filter>
  </defs>
  <circle cx="8" cy="8" r="3" fill="#0d1b2a" opacity="0.5"/>
  <circle cx="8" cy="18" r="3" fill="#0d1b2a" opacity="0.5"/>
  <circle cx="8" cy="28" r="3" fill="#0d1b2a" opacity="0.5"/>
  <circle cx="8" cy="38" r="3" fill="#0d1b2a" opacity="0.5"/>
  <circle cx="8" cy="48" r="3" fill="#00b4d8" opacity="0.9" filter="url(#dotGlow)"/>
  <circle cx="8" cy="58" r="3" fill="#00b4d8" opacity="0.9" filter="url(#dotGlow)"/>
  <circle cx="8" cy="68" r="3" fill="#00b4d8" opacity="0.9" filter="url(#dotGlow)"/>
  <circle cx="18" cy="8" r="3" fill="#0d1b2a" opacity="0.5"/>
  <circle cx="18" cy="18" r="3" fill="#0d1b2a" opacity="0.5"/>
  <circle cx="18" cy="28" r="3" fill="#00b4d8" opacity="0.9" filter="url(#dotGlow)"/>
  <circle cx="18" cy="38" r="3" fill="#00b4d8" opacity="0.9" filter="url(#dotGlow)"/>
  <circle cx="18" cy="48" r="3" fill="#00b4d8" opacity="0.9" filter="url(#dotGlow)"/>
  <circle cx="18" cy="58" r="3" fill="#00b4d8" opacity="0.9" filter="url(#dotGlow)"/>
  <circle cx="18" cy="68" r="3" fill="#00b4d8" opacity="0.9" filter="url(#dotGlow)"/>
  <circle cx="28" cy="8" r="3" fill="#00b4d8" opacity="0.9" filter="url(#dotGlow)"/>
  <circle cx="28" cy="18" r="3" fill="#00b4d8" opacity="0.9" filter="url(#dotGlow)"/>
  <circle cx="28" cy="28" r="3" fill="#00b4d8" opacity="0.9" filter="url(#dotGlow)"/>
  <circle cx="28" cy="38" r="3" fill="#00b4d8" opacity="0.9" filter="url(#dotGlow)"/>
  <circle cx="28" cy="48" r="3" fill="#00b4d8" opacity="0.9" filter="url(#dotGlow)"/>
  <circle cx="28" cy="58" r="3" fill="#00b4d8" opacity="0.9" filter="url(#dotGlow)"/>
  <circle cx="28" cy="68" r="3" fill="#00b4d8" opacity="0.9" filter="url(#dotGlow)"/>
  <circle cx="38" cy="8" r="3" fill="#0d1b2a" opacity="0.5"/>
  <circle cx="38" cy="18" r="3" fill="#00b4d8" opacity="0.9" filter="url(#dotGlow)"/>
  <circle cx="38" cy="28" r="3" fill="#00b4d8" opacity="0.9" filter="url(#dotGlow)"/>
  <circle cx="38" cy="38" r="3" fill="#00b4d8" opacity="0.9" filter="url(#dotGlow)"/>
  <circle cx="38" cy="48" r="3" fill="#00b4d8" opacity="0.9" filter="url(#dotGlow)"/>
  <circle cx="38" cy="58" r="3" fill="#00b4d8" opacity="0.9" filter="url(#dotGlow)"/>
  <circle cx="38" cy="68" r="3" fill="#00b4d8" opacity="0.9" filter="url(#dotGlow)"/>
  <circle cx="48" cy="8" r="3" fill="#0d1b2a" opacity="0.5"/>
  <circle cx="48" cy="18" r="3" fill="#0d1b2a" opacity="0.5"/>
  <circle cx="48" cy="28" r="3" fill="#0d1b2a" opacity="0.5"/>
  <circle cx="48" cy="38" r="3" fill="#00b4d8" opacity="0.9" filter="url(#dotGlow)"/>
  <circle cx="48" cy="48" r="3" fill="#00b4d8" opacity="0.9" filter="url(#dotGlow)"/>
  <circle cx="48" cy="58" r="3" fill="#00b4d8" opacity="0.9" filter="url(#dotGlow)"/>
  <circle cx="48" cy="68" r="3" fill="#00b4d8" opacity="0.9" filter="url(#dotGlow)"/>
  <circle cx="58" cy="8" r="3" fill="#0d1b2a" opacity="0.5"/>
  <circle cx="58" cy="18" r="3" fill="#0d1b2a" opacity="0.5"/>
  <circle cx="58" cy="28" r="3" fill="#00b4d8" opacity="0.9" filter="url(#dotGlow)"/>
  <circle cx="58" cy="38" r="3" fill="#00b4d8" opacity="0.9" filter="url(#dotGlow)"/>
  <circle cx="58" cy="48" r="3" fill="#00b4d8" opacity="0.9" filter="url(#dotGlow)"/>
  <circle cx="58" cy="58" r="3" fill="#00b4d8" opacity="0.9" filter="url(#dotGlow)"/>
  <circle cx="58" cy="68" r="3" fill="#00b4d8" opacity="0.9" filter="url(#dotGlow)"/>
  <circle cx="68" cy="8" r="3" fill="#00b4d8" opacity="0.9" filter="url(#dotGlow)"/>
  <circle cx="68" cy="18" r="3" fill="#00b4d8" opacity="0.9" filter="url(#dotGlow)"/>
  <circle cx="68" cy="28" r="3" fill="#00b4d8" opacity="0.9" filter="url(#dotGlow)"/>
  <circle cx="68" cy="38" r="3" fill="#00b4d8" opacity="0.9" filter="url(#dotGlow)"/>
  <circle cx="68" cy="48" r="3" fill="#00b4d8" opacity="0.9" filter="url(#dotGlow)"/>
  <circle cx="68" cy="58" r="3" fill="#00b4d8" opacity="0.9" filter="url(#dotGlow)"/>
  <circle cx="68" cy="68" r="3" fill="#00b4d8" opacity="0.9" filter="url(#dotGlow)"/>
  <circle cx="78" cy="8" r="3" fill="#0d1b2a" opacity="0.5"/>
  <circle cx="78" cy="18" r="3" fill="#00b4d8" opacity="0.9" filter="url(#dotGlow)"/>
  <circle cx="78" cy="28" r="3" fill="#00b4d8" opacity="0.9" filter="url(#dotGlow)"/>
  <circle cx="78" cy="38" r="3" fill="#00b4d8" opacity="0.9" filter="url(#dotGlow)"/>
  <circle cx="78" cy="48" r="3" fill="#00b4d8" opacity="0.9" filter="url(#dotGlow)"/>
  <circle cx="78" cy="58" r="3" fill="#00b4d8" opacity="0.9" filter="url(#dotGlow)"/>
  <circle cx="78" cy="68" r="3" fill="#00b4d8" opacity="0.9" filter="url(#dotGlow)"/>
  <circle cx="88" cy="8" r="3" fill="#0d1b2a" opacity="0.5"/>
  <circle cx="88" cy="18" r="3" fill="#0d1b2a" opacity="0.5"/>
  <circle cx="88" cy="28" r="3" fill="#0d1b2a" opacity="0.5"/>
  <circle cx="88" cy="38" r="3" fill="#0d1b2a" opacity="0.5"/>
  <circle cx="88" cy="48" r="3" fill="#00b4d8" opacity="0.9" filter="url(#dotGlow)"/>
  <circle cx="88" cy="58" r="3" fill="#00b4d8" opacity="0.9" filter="url(#dotGlow)"/>
  <circle cx="88" cy="68" r="3" fill="#00b4d8" opacity="0.9" filter="url(#dotGlow)"/>
  <circle cx="98" cy="8" r="3" fill="#0d1b2a" opacity="0.5"/>
  <circle cx="98" cy="18" r="3" fill="#0d1b2a" opacity="0.5"/>
  <circle cx="98" cy="28" r="3" fill="#0d1b2a" opacity="0.5"/>
  <circle cx="98" cy="38" r="3" fill="#00b4d8" opacity="0.9" filter="url(#dotGlow)"/>
  <circle cx="98" cy="48" r="3" fill="#00b4d8" opacity="0.9" filter="url(#dotGlow)"/>
  <circle cx="98" cy="58" r="3" fill="#00b4d8" opacity="0.9" filter="url(#dotGlow)"/>
  <circle cx="98" cy="68" r="3" fill="#00b4d8" opacity="0.9" filter="url(#dotGlow)"/>
  <circle cx="108" cy="8" r="3" fill="#0d1b2a" opacity="0.5"/>
  <circle cx="108" cy="18" r="3" fill="#00b4d8" opacity="0.9" filter="url(#dotGlow)"/>
  <circle cx="108" cy="28" r="3" fill="#00b4d8" opacity="0.9" filter="url(#dotGlow)"/>
  <circle cx="108" cy="38" r="3" fill="#00b4d8" opacity="0.9" filter="url(#dotGlow)"/>
  <circle cx="108" cy="48" r="3" fill="#00b4d8" opacity="0.9" filter="url(#dotGlow)"/>
  <circle cx="108" cy="58" r="3" fill="#00b4d8" opacity="0.9" filter="url(#dotGlow)"/>
  <circle cx="108" cy="68" r="3" fill="#00b4d8" opacity="0.9" filter="url(#dotGlow)"/>
  <circle cx="118" cy="8" r="3" fill="#0d1b2a" opacity="0.5"/>
  <circle cx="118" cy="18" r="3" fill="#0d1b2a" opacity="0.5"/>
  <circle cx="118" cy="28" r="3" fill="#00b4d8" opacity="0.9" filter="url(#dotGlow)"/>
  <circle cx="118" cy="38" r="3" fill="#00b4d8" opacity="0.9" filter="url(#dotGlow)"/>
  <circle cx="118" cy="48" r="3" fill="#00b4d8" opacity="0.9" filter="url(#dotGlow)"/>
  <circle cx="118" cy="58" r="3" fill="#00b4d8" opacity="0.9" filter="url(#dotGlow)"/>
  <circle cx="118" cy="68" r="3" fill="#00b4d8" opacity="0.9" filter="url(#dotGlow)"/>
</svg>
