<svg xmlns="http://www.w3.org/2000/svg" width="160" height="160" viewBox="0 0 160 160">
  <defs>
    <filter id="glow2" x="-50%" y="-50%" width="200%" height="200%">
      <feGaussianBlur in="SourceGraphic" stdDeviation="2.5" result="b"/>
      <feMerge>
        <feMergeNode in="b"/>
        <feMergeNode in="SourceGraphic"/>
      </feMerge>
    </filter>
  </defs>
  <line x1="44.6" y1="115.4" x2="34.0" y2="126.0" stroke="#00b4d8" opacity="0.95" stroke-width="2.5" stroke-linecap="round" filter="url(#glow2)"/>
  <line x1="40.6" y1="110.8" x2="28.8" y2="120.1" stroke="#01b2d9" opacity="0.95" stroke-width="2.5" stroke-linecap="round" filter="url(#glow2)"/>
  <line x1="37.2" y1="105.9" x2="24.4" y2="113.6" stroke="#03b1da" opacity="0.95" stroke-width="2.5" stroke-linecap="round" filter="url(#glow2)"/>
  <line x1="34.4" y1="100.5" x2="20.7" y2="106.7" stroke="#04b0db" opacity="0.95" stroke-width="2.5" stroke-linecap="round" filter="url(#glow2)"/>
  <line x1="32.3" y1="94.9" x2="17.9" y2="99.3" stroke="#06afdc" opacity="0.95" stroke-width="2.5" stroke-linecap="round" filter="url(#glow2)"/>
  <line x1="30.8" y1="89.0" x2="16.1" y2="91.7" stroke="#07aedd" opacity="0.95" stroke-width="2.5" stroke-linecap="round" filter="url(#glow2)"/>
  <line x1="30.1" y1="83.0" x2="15.1" y2="83.9" stroke="#09adde" opacity="0.95" stroke-width="2.5" stroke-linecap="round" filter="url(#glow2)"/>
  <line x1="30.1" y1="77.0" x2="15.1" y2="76.1" stroke="#0aacdf" opacity="0.95" stroke-width="2.5" stroke-linecap="round" filter="url(#glow2)"/>
  <line x1="30.8" y1="71.0" x2="16.1" y2="68.3" stroke="#0cabe0" opacity="0.95" stroke-width="2.5" stroke-linecap="round" filter="url(#glow2)"/>
  <line x1="32.3" y1="65.1" x2="17.9" y2="60.7" stroke="#0daae1" opacity="0.95" stroke-width="2.5" stroke-linecap="round" filter="url(#glow2)"/>
  <line x1="34.4" y1="59.5" x2="20.7" y2="53.3" stroke="#0fa9e2" opacity="0.95" stroke-width="2.5" stroke-linecap="round" filter="url(#glow2)"/>
  <line x1="37.2" y1="54.1" x2="24.4" y2="46.4" stroke="#10a8e3" opacity="0.95" stroke-width="2.5" stroke-linecap="round" filter="url(#glow2)"/>
  <line x1="40.6" y1="49.2" x2="28.8" y2="39.9" stroke="#12a7e4" opacity="0.95" stroke-width="2.5" stroke-linecap="round" filter="url(#glow2)"/>
  <line x1="44.6" y1="44.6" x2="34.0" y2="34.0" stroke="#14a6e5" opacity="0.95" stroke-width="2.5" stroke-linecap="round" filter="url(#glow2)"/>
  <line x1="49.2" y1="40.6" x2="39.9" y2="28.8" stroke="#15a5e6" opacity="0.95" stroke-width="2.5" stroke-linecap="round" filter="url(#glow2)"/>
  <line x1="54.1" y1="37.2" x2="46.4" y2="24.4" stroke="#17a4e7" opacity="0.95" stroke-width="2.5" stroke-linecap="round" filter="url(#glow2)"/>
  <line x1="59.5" y1="34.4" x2="53.3" y2="20.7" stroke="#18a3e8" opacity="0.95" stroke-width="2.5" stroke-linecap="round" filter="url(#glow2)"/>
  <line x1="65.1" y1="32.3" x2="60.7" y2="17.9" stroke="#1aa2e9" opacity="0.95" stroke-width="2.5" stroke-linecap="round" filter="url(#glow2)"/>
  <line x1="71.0" y1="30.8" x2="68.3" y2="16.1" stroke="#1ba1ea" opacity="0.95" stroke-width="2.5" stroke-linecap="round" filter="url(#glow2)"/>
  <line x1="77.0" y1="30.1" x2="76.1" y2="15.1" stroke="#1da0eb" opacity="0.95" stroke-width="2.5" stroke-linecap="round" filter="url(#glow2)"/>
  <line x1="83.0" y1="30.1" x2="83.9" y2="15.1" stroke="#1e9fec" opacity="0.95" stroke-width="2.5" stroke-linecap="round" filter="url(#glow2)"/>
  <line x1="89.0" y1="30.8" x2="91.7" y2="16.1" stroke="#209eed" opacity="0.95" stroke-width="2.5" stroke-linecap="round" filter="url(#glow2)"/>
  <line x1="94.9" y1="32.3" x2="99.3" y2="17.9" stroke="#219dee" opacity="0.95" stroke-width="2.5" stroke-linecap="round" filter="url(#glow2)"/>
  <line x1="100.5" y1="34.4" x2="106.7" y2="20.7" stroke="#239cef" opacity="0.95" stroke-width="2.5" stroke-linecap="round" filter="url(#glow2)"/>
  <line x1="105.9" y1="37.2" x2="113.6" y2="24.4" stroke="#249bf0" opacity="0.95" stroke-width="2.5" stroke-linecap="round" filter="url(#glow2)"/>
  <line x1="110.8" y1="40.6" x2="120.1" y2="28.8" stroke="#269af1" opacity="0.95" stroke-width="2.5" stroke-linecap="round" filter="url(#glow2)"/>
  <line x1="115.4" y1="44.6" x2="126.0" y2="34.0" stroke="#2899f2" opacity="0.95" stroke-width="2.5" stroke-linecap="round" filter="url(#glow2)"/>
  <line x1="119.4" y1="49.2" x2="131.2" y2="39.9" stroke="#2998f3" opacity="0.95" stroke-width="2.5" stroke-linecap="round" filter="url(#glow2)"/>
  <line x1="122.8" y1="54.1" x2="135.6" y2="46.4" stroke="#2b97f4" opacity="0.95" stroke-width="2.5" stroke-linecap="round" filter="url(#glow2)"/>
  <line x1="125.6" y1="59.5" x2="139.3" y2="53.3" stroke="#2c96f5" opacity="0.95" stroke-width="2.5" stroke-linecap="round" filter="url(#glow2)"/>
  <line x1="127.7" y1="65.1" x2="142.1" y2="60.7" stroke="#2e95f6" opacity="0.95" stroke-width="2.5" stroke-linecap="round" filter="url(#glow2)"/>
  <line x1="129.2" y1="71.0" x2="143.9" y2="68.3" stroke="#2f94f7" opacity="0.95" stroke-width="2.5" stroke-linecap="round" filter="url(#glow2)"/>
  <line x1="129.9" y1="77.0" x2="144.9" y2="76.1" stroke="#3193f8" opacity="0.95" stroke-width="2.5" stroke-linecap="round" filter="url(#glow2)"/>
  <line x1="129.9" y1="83.0" x2="144.9" y2="83.9" stroke="#3292f9" opacity="0.95" stroke-width="2.5" stroke-linecap="round" filter="url(#glow2)"/>
  <line x1="129.2" y1="89.0" x2="143.9" y2="91.7" stroke="#3491fa" opacity="0.95" stroke-width="2.5" stroke-linecap="round" filter="url(#glow2)"/>
  <line x1="127.7" y1="94.9" x2="142.1" y2="99.3" stroke="#3590fb" opacity="0.95" stroke-width="2.5" stroke-linecap="round" filter="url(#glow2)"/>
  <line x1="125.6" y1="100.5" x2="139.3" y2="106.7" stroke="#378ffc" opacity="0.95" stroke-width="2.5" stroke-linecap="round" filter="url(#glow2)"/>
  <line x1="122.8" y1="105.9" x2="135.6" y2="113.6" stroke="#388efd" opacity="0.95" stroke-width="2.5" stroke-linecap="round" filter="url(#glow2)"/>
  <line x1="119.4" y1="110.8" x2="131.2" y2="120.1" stroke="#3a8dfe" opacity="0.95" stroke-width="2.5" stroke-linecap="round" filter="url(#glow2)"/>
  <line x1="115.4" y1="115.4" x2="126.0" y2="126.0" stroke="#3c8cff" opacity="0.95" stroke-width="2.5" stroke-linecap="round" filter="url(#glow2)"/>
  <text x="80" y="84" fill="#e0f7fa" font-family="'Segoe UI', sans-serif" font-size="24" font-weight="bold" text-anchor="middle" dominant-baseline="middle">100%</text>
</svg>
