<svg xmlns="http://www.w3.org/2000/svg" xmlns:xlink="http://www.w3.org/1999/xlink" width="1200" height="500" viewBox="0 0 1200 500">
  <defs>
    <linearGradient id="busbarGrad" x1="0%" y1="0%" x2="0%" y2="100%">
      <stop offset="0%" style="stop-color:#FF8C00;stop-opacity:1"/>
      <stop offset="100%" style="stop-color:#CC6600;stop-opacity:1"/>
    </linearGradient>
    <linearGradient id="bgGrad" x1="0%" y1="0%" x2="0%" y2="100%">
      <stop offset="0%" style="stop-color:#0a1628;stop-opacity:1"/>
      <stop offset="100%" style="stop-color:#0d2137;stop-opacity:1"/>
    </linearGradient>
    <linearGradient id="panelGrad" x1="0%" y1="0%" x2="0%" y2="100%">
      <stop offset="0%" style="stop-color:#142640;stop-opacity:1"/>
      <stop offset="100%" style="stop-color:#0d1f35;stop-opacity:1"/>
    </linearGradient>
    <filter id="orangeGlow" x="-50%" y="-50%" width="200%" height="200%">
      <feGaussianBlur in="SourceGraphic" stdDeviation="6" result="blur"/>
      <feFlood flood-color="#FF8C00" flood-opacity="0.6" result="color"/>
      <feComposite in="color" in2="blur" operator="in" result="shadow"/>
      <feMerge>
        <feMergeNode in="shadow"/>
        <feMergeNode in="SourceGraphic"/>
      </feMerge>
    </filter>
    <filter id="greenGlow" x="-50%" y="-50%" width="200%" height="200%">
      <feGaussianBlur in="SourceGraphic" stdDeviation="4" result="blur"/>
      <feFlood flood-color="#00FF88" flood-opacity="0.6" result="color"/>
      <feComposite in="color" in2="blur" operator="in" result="shadow"/>
      <feMerge>
        <feMergeNode in="shadow"/>
        <feMergeNode in="SourceGraphic"/>
      </feMerge>
    </filter>
    <filter id="redGlow" x="-50%" y="-50%" width="200%" height="200%">
      <feGaussianBlur in="SourceGraphic" stdDeviation="4" result="blur"/>
      <feFlood flood-color="#FF3333" flood-opacity="0.6" result="color"/>
      <feComposite in="color" in2="blur" operator="in" result="shadow"/>
      <feMerge>
        <feMergeNode in="shadow"/>
        <feMergeNode in="SourceGraphic"/>
      </feMerge>
    </filter>
  </defs>
  <rect x="0" y="0" width="1200" height="500" fill="url(#bgGrad)" rx="8" ry="8"/>
  <rect x="0" y="0" width="1200" height="36" fill="#0a3d62" opacity="0.8"/>
  <text x="600" y="24" fill="#4FC3F7" font-family="Consolas, monospace" font-size="14" font-weight="bold" text-anchor="middle">MAIN BUSBAR - SINGLE LINE DIAGRAM</text>
  <rect x="60" y="102" width="1080" height="12" fill="black" opacity="0.3" rx="2" ry="2" filter="url(#orangeGlow)"/>
  <rect x="60" y="100" width="1080" height="12" fill="url(#busbarGrad)" rx="2" ry="2" filter="url(#orangeGlow)" stroke="#FFB74D" stroke-width="0.5"/>
  <text x="30" y="110" fill="#FFB74D" font-family="Consolas, monospace" font-size="11" font-weight="bold">BUS</text>
  <g id="feeder_471">
    <line x1="110.0" y1="112" x2="110.0" y2="172" stroke="#4FC3F7" stroke-width="3" stroke-linecap="round"/>
    <rect x="96.0" y="172" width="28" height="28" fill="#00E676" rx="4" ry="4" filter="url(#greenGlow)" stroke="#00E676" stroke-width="1" opacity="0.9"/>
    <line x1="102.0" y1="186.0" x2="118.0" y2="186.0" stroke="white" stroke-width="2"/>
    <text x="110.0" y="166" fill="#B0BEC5" font-family="Consolas, monospace" font-size="10" text-anchor="middle">CB1</text>
    <line x1="110.0" y1="200" x2="110.0" y2="350" stroke="#4FC3F7" stroke-width="3" stroke-linecap="round"/>
    <rect x="88.0" y="355" width="44" height="22" fill="#1A237E" rx="4" ry="4" stroke="#3F51B5" stroke-width="1"/>
    <text x="110.0" y="370" fill="#E8EAF6" font-family="Consolas, monospace" font-size="13" font-weight="bold" text-anchor="middle">471</text>
    <rect x="65.0" y="385" width="90" height="52" fill="url(#panelGrad)" rx="4" ry="4" stroke="#1E88E5" stroke-width="0.5"/>
    <text x="110.0" y="400" fill="#4FC3F7" font-family="Consolas, monospace" font-size="10" text-anchor="middle">24.1 kW</text>
    <text x="110.0" y="415" fill="#81C784" font-family="Consolas, monospace" font-size="10" text-anchor="middle">62.3 kVAr</text>
    <text x="110.0" y="430" fill="#FFB74D" font-family="Consolas, monospace" font-size="10" text-anchor="middle">PF 75.7%</text>
  </g>
  <g id="feeder_431">
    <line x1="355.0" y1="112" x2="355.0" y2="172" stroke="#4FC3F7" stroke-width="3" stroke-linecap="round"/>
    <rect x="341.0" y="172" width="28" height="28" fill="#00E676" rx="4" ry="4" filter="url(#greenGlow)" stroke="#00E676" stroke-width="1" opacity="0.9"/>
    <line x1="347.0" y1="186.0" x2="363.0" y2="186.0" stroke="white" stroke-width="2"/>
    <text x="355.0" y="166" fill="#B0BEC5" font-family="Consolas, monospace" font-size="10" text-anchor="middle">CB2</text>
    <line x1="355.0" y1="200" x2="355.0" y2="350" stroke="#4FC3F7" stroke-width="3" stroke-linecap="round"/>
    <rect x="333.0" y="355" width="44" height="22" fill="#1A237E" rx="4" ry="4" stroke="#3F51B5" stroke-width="1"/>
    <text x="355.0" y="370" fill="#E8EAF6" font-family="Consolas, monospace" font-size="13" font-weight="bold" text-anchor="middle">431</text>
    <rect x="310.0" y="385" width="90" height="52" fill="url(#panelGrad)" rx="4" ry="4" stroke="#1E88E5" stroke-width="0.5"/>
    <text x="355.0" y="400" fill="#4FC3F7" font-family="Consolas, monospace" font-size="10" text-anchor="middle">24.1 kW</text>
    <text x="355.0" y="415" fill="#81C784" font-family="Consolas, monospace" font-size="10" text-anchor="middle">62.3 kVAr</text>
    <text x="355.0" y="430" fill="#FFB74D" font-family="Consolas, monospace" font-size="10" text-anchor="middle">PF 75.7%</text>
  </g>
  <g id="feeder_432">
    <line x1="600.0" y1="112" x2="600.0" y2="172" stroke="#4FC3F7" stroke-width="3" stroke-linecap="round"/>
    <rect x="586.0" y="172" width="28" height="28" fill="#00E676" rx="4" ry="4" filter="url(#greenGlow)" stroke="#00E676" stroke-width="1" opacity="0.9"/>
    <line x1="592.0" y1="186.0" x2="608.0" y2="186.0" stroke="white" stroke-width="2"/>
    <text x="600.0" y="166" fill="#B0BEC5" font-family="Consolas, monospace" font-size="10" text-anchor="middle">CB3</text>
    <line x1="600.0" y1="200" x2="600.0" y2="350" stroke="#4FC3F7" stroke-width="3" stroke-linecap="round"/>
    <rect x="578.0" y="355" width="44" height="22" fill="#1A237E" rx="4" ry="4" stroke="#3F51B5" stroke-width="1"/>
    <text x="600.0" y="370" fill="#E8EAF6" font-family="Consolas, monospace" font-size="13" font-weight="bold" text-anchor="middle">432</text>
    <rect x="555.0" y="385" width="90" height="52" fill="url(#panelGrad)" rx="4" ry="4" stroke="#1E88E5" stroke-width="0.5"/>
    <text x="600.0" y="400" fill="#4FC3F7" font-family="Consolas, monospace" font-size="10" text-anchor="middle">24.1 kW</text>
    <text x="600.0" y="415" fill="#81C784" font-family="Consolas, monospace" font-size="10" text-anchor="middle">62.3 kVAr</text>
    <text x="600.0" y="430" fill="#FFB74D" font-family="Consolas, monospace" font-size="10" text-anchor="middle">PF 75.7%</text>
  </g>
  <g id="feeder_433">
    <line x1="845.0" y1="112" x2="845.0" y2="172" stroke="#4FC3F7" stroke-width="3" stroke-linecap="round"/>
    <rect x="831.0" y="172" width="28" height="28" fill="#00E676" rx="4" ry="4" filter="url(#greenGlow)" stroke="#00E676" stroke-width="1" opacity="0.9"/>
    <line x1="837.0" y1="186.0" x2="853.0" y2="186.0" stroke="white" stroke-width="2"/>
    <text x="845.0" y="166" fill="#B0BEC5" font-family="Consolas, monospace" font-size="10" text-anchor="middle">CB4</text>
    <line x1="845.0" y1="200" x2="845.0" y2="350" stroke="#4FC3F7" stroke-width="3" stroke-linecap="round"/>
    <rect x="823.0" y="355" width="44" height="22" fill="#1A237E" rx="4" ry="4" stroke="#3F51B5" stroke-width="1"/>
    <text x="845.0" y="370" fill="#E8EAF6" font-family="Consolas, monospace" font-size="13" font-weight="bold" text-anchor="middle">433</text>
    <rect x="800.0" y="385" width="90" height="52" fill="url(#panelGrad)" rx="4" ry="4" stroke="#1E88E5" stroke-width="0.5"/>
    <text x="845.0" y="400" fill="#4FC3F7" font-family="Consolas, monospace" font-size="10" text-anchor="middle">24.1 kW</text>
    <text x="845.0" y="415" fill="#81C784" font-family="Consolas, monospace" font-size="10" text-anchor="middle">62.3 kVAr</text>
    <text x="845.0" y="430" fill="#FFB74D" font-family="Consolas, monospace" font-size="10" text-anchor="middle">PF 75.7%</text>
  </g>
  <g id="feeder_434">
    <line x1="1090.0" y1="112" x2="1090.0" y2="172" stroke="#4FC3F7" stroke-width="3" stroke-linecap="round"/>
    <rect x="1076.0" y="172" width="28" height="28" fill="#FF1744" rx="4" ry="4" filter="url(#redGlow)" stroke="#FF1744" stroke-width="1" opacity="0.9"/>
    <line x1="1083.0" y1="179" x2="1097.0" y2="193" stroke="white" stroke-width="2"/>
    <line x1="1097.0" y1="179" x2="1083.0" y2="193" stroke="white" stroke-width="2"/>
    <text x="1090.0" y="166" fill="#B0BEC5" font-family="Consolas, monospace" font-size="10" text-anchor="middle">CB5</text>
    <line x1="1090.0" y1="200" x2="1090.0" y2="350" stroke="#4FC3F7" stroke-width="3" stroke-linecap="round"/>
    <rect x="1068.0" y="355" width="44" height="22" fill="#1A237E" rx="4" ry="4" stroke="#3F51B5" stroke-width="1"/>
    <text x="1090.0" y="370" fill="#E8EAF6" font-family="Consolas, monospace" font-size="13" font-weight="bold" text-anchor="middle">434</text>
    <rect x="1045.0" y="385" width="90" height="52" fill="url(#panelGrad)" rx="4" ry="4" stroke="#1E88E5" stroke-width="0.5"/>
    <text x="1090.0" y="400" fill="#4FC3F7" font-family="Consolas, monospace" font-size="10" text-anchor="middle">0.0 kW</text>
    <text x="1090.0" y="415" fill="#81C784" font-family="Consolas, monospace" font-size="10" text-anchor="middle">0.0 kVAr</text>
    <text x="1090.0" y="430" fill="#FFB74D" font-family="Consolas, monospace" font-size="10" text-anchor="middle">PF 0.0%</text>
  </g>
  <g id="legend">
    <rect x="1000" y="430" width="180" height="55" fill="#0d1f35" rx="4" ry="4" stroke="#1E88E5" stroke-width="0.5"/>
    <circle cx="1020" cy="454" r="6" fill="#00E676"/>
    <text x="1032" y="458" fill="#B0BEC5" font-family="Consolas, monospace" font-size="11">Closed</text>
    <circle cx="1020" cy="472" r="6" fill="#FF1744"/>
    <text x="1032" y="476" fill="#B0BEC5" font-family="Consolas, monospace" font-size="11">Open</text>
  </g>
</svg>
