<?xml version="1.0" encoding="UTF-8" standalone="no"?>
<svg width="16" height="16" viewBox="0 0 16 16" fill="none" version="1.1" id="svg1" sodipodi:docname="charmap-symbolic.svg" xml:space="preserve" inkscape:version="1.3.2 (091e20e, 2023-11-25)" xmlns:inkscape="http://www.inkscape.org/namespaces/inkscape" xmlns:sodipodi="http://sodipodi.sourceforge.net/DTD/sodipodi-0.dtd" xmlns="http://www.w3.org/2000/svg" xmlns:svg="http://www.w3.org/2000/svg"><defs id="defs1" /><sodipodi:namedview id="namedview1" pagecolor="#ffffff" bordercolor="#000000" borderopacity="0.25" inkscape:showpageshadow="2" inkscape:pageopacity="0.0" inkscape:pagecheckerboard="0" inkscape:deskcolor="#d1d1d1" showgrid="true" inkscape:zoom="256" inkscape:cx="14.611328" inkscape:cy="14.867188" inkscape:window-width="1320" inkscape:window-height="922" inkscape:window-x="148" inkscape:window-y="139" inkscape:window-maximized="0" inkscape:current-layer="svg1"><inkscape:grid id="grid1" units="px" originx="0" originy="0" spacingx="1" spacingy="1" empcolor="#0099e5" empopacity="0.30196078" color="#0099e5" opacity="0.14901961" empspacing="5" dotted="false" gridanglex="30" gridanglez="30" visible="true" /></sodipodi:namedview><path d="m 6.2187426,10.100638 c -0.3882232,0 -0.732078,-0.07395 -1.0315644,-0.2218423 C 4.8913891,9.7272038 4.6603039,9.5183028 4.4939226,9.2520926 4.3312386,8.9821851 4.2498966,8.6734553 4.2498966,8.3259031 V 8.314811 c 0,-0.3512495 0.086888,-0.6507359 0.2606641,-0.8984593 C 4.6880342,7.164931 4.9431522,6.9671221 5.2759149,6.8229249 5.6086776,6.6750304 6.0116902,6.5862937 6.4849527,6.5567148 L 8.0212072,6.467761 v 0.9091289 l -1.3421429,0.08383 C 6.3389069,7.4829041 6.0782428,7.5642461 5.897072,7.7047461 5.7159012,7.8452459 5.6253158,8.0319627 5.6253158,8.2648966 v 0.00555 c 0,0.2403286 0.090585,0.4307428 0.2717562,0.5712426 0.1848681,0.1368025 0.4288941,0.2052037 0.7320779,0.2052037 0.2662101,0 0.5028414,-0.053612 0.7098938,-0.1608353 C 7.5497934,8.7788315 7.7161747,8.6327843 7.8381877,8.4479161 7.9602007,8.263048 8.0212072,8.0541469 8.0212072,7.821213 V 6.0575707 c 0,-0.2957891 -0.094283,-0.528723 -0.2828483,-0.6988017 C 7.5534908,5.1849929 7.2854319,5.0981049 6.9341824,5.0981049 c -0.325368,0 -0.5860321,0.07025 -0.7819924,0.2107497 C 5.9562297,5.4456571 5.8342168,5.6231305 5.7861511,5.8412749 l -0.011092,0.049914 H 4.4994686 l 0.00555,-0.066553 C 4.5345946,5.4770844 4.6510602,5.1665061 4.8544155,4.8929012 5.0577705,4.615599 5.3387701,4.3974546 5.6974143,4.2384679 6.059756,4.0794813 6.4886501,3.999988 6.9840968,3.999988 c 0.4917493,0 0.9169461,0.081342 1.2755903,0.244026 0.3623417,0.162684 0.6414926,0.3900718 0.8374528,0.6821635 0.1996577,0.2920917 0.2994865,0.6359465 0.2994865,1.0315644 V 10.000809 H 8.0212072 V 9.0968034 H 7.9879312 C 7.8770103,9.3001584 7.7328132,9.4776318 7.5553397,9.6292237 7.3778663,9.7808156 7.1745113,9.8972825 6.9452748,9.9786245 6.7197356,10.059967 6.4775582,10.100638 6.2187426,10.100638 Z" id="text1" style="fill:#000000;stroke:none" aria-label="a" sodipodi:nodetypes="sccssccccccssscscssscscccccccsccsccccscs" /><path id="path1" style="color:#000000;fill:#000000;stroke-linecap:round;-inkscape-stroke:none" d="M 7,0.94921875 C 3.6651984,0.94921875 0.94921875,3.6651984 0.94921875,7 c 0,3.334802 2.71597965,6.050781 6.05078125,6.050781 3.334802,0 6.050781,-2.715979 6.050781,-6.050781 C 13.050781,3.6651984 10.334802,0.94921875 7,0.94921875 Z M 7,2.0507812 c 2.7403186,0 4.949219,2.2089002 4.949219,4.9492188 0,2.7403186 -2.2089004,4.949219 -4.949219,4.949219 C 4.2596814,11.949219 2.0507812,9.7403186 2.0507812,7 2.0507812,4.2596814 4.2596814,2.0507812 7,2.0507812 Z m 5.652344,9.3300778 -1.271485,1.271485 2.355718,2.355718 1.271485,-1.271485 z" sodipodi:nodetypes="ssssssssssccccc" /></svg>
