<svg width="16" height="16" viewBox="0 0 16 16" fill="none" xmlns="http://www.w3.org/2000/svg">
<g id="ellipse-radius-y">
<g id="ellipse-radius-y_2" clip-path="url(#clip0_3822_24540)">
<path id="Subtract" opacity="0.4" d="M2 8C2 4.33858 3.69196 1.25386 6 0.303711L6 1.41309C5.43621 1.73095 4.90177 2.23059 4.43457 2.91016C3.56801 4.17087 3 5.96733 3 8C3 10.0327 3.56801 11.8291 4.43457 13.0898C5.30437 14.355 6.40532 15 7.5 15C8.59468 15 9.69563 14.355 10.5654 13.0898C11.432 11.8291 12 10.0327 12 8C12 5.96733 11.432 4.17087 10.5654 2.91016C10.0982 2.23059 9.56378 1.73095 9 1.41309L9 0.303711C11.308 1.25386 13 4.33858 13 8L12.9932 8.41211C12.8457 12.6389 10.4425 16 7.5 16L7.2168 15.9893C4.40469 15.7818 2.14953 12.5024 2.00684 8.41211L2 8ZM7 0.0341795C7.16475 0.0125759 7.33139 -2.33042e-07 7.5 -2.40413e-07C7.66861 -2.47783e-07 7.83525 0.0125758 8 0.0341794L8 1.04687C7.83363 1.01697 7.66692 1 7.5 1C7.33308 1 7.16637 1.01697 7 1.04687L7 0.0341795Z" fill="black"/>
<path id="Subtract_2" opacity="0.1" d="M3 8C3 4.95267 4.25267 2.36173 6 1.40039L6 8L7 8L7 1.04395C7.16423 1.01569 7.33092 1 7.5 1C7.66907 1 7.83577 1.01569 8 1.04395L8 8L9 8L9 1.40039C10.7473 2.36173 12 4.95267 12 8C12 11.866 9.98528 15 7.5 15C5.01472 15 3 11.866 3 8Z" fill="black"/>
<path id="Vector 905" d="M7.5 8L7.5 0" stroke="black"/>
</g>
</g>
<defs>
<clipPath id="clip0_3822_24540">
<rect width="16" height="16" fill="white"/>
</clipPath>
</defs>
</svg>
