<svg width="16" height="16" viewBox="0 0 16 16" fill="none" xmlns="http://www.w3.org/2000/svg">
<g id="ellipse-radius-x">
<g id="ellipse-radius-x_2">
<path id="Subtract" opacity="0.4" d="M8 2C11.6614 2 14.7461 3.69196 15.6963 6H14.5869C14.2691 5.43622 13.7694 4.90177 13.0898 4.43457C11.8291 3.56801 10.0327 3 8 3C5.96733 3 4.17087 3.56801 2.91016 4.43457C1.64499 5.30437 1 6.40532 1 7.5C1 8.59468 1.64499 9.69563 2.91016 10.5654C4.17087 11.432 5.96733 12 8 12C10.0327 12 11.8291 11.432 13.0898 10.5654C13.7694 10.0982 14.2691 9.56379 14.5869 9H15.6963C14.7461 11.308 11.6614 13 8 13L7.58789 12.9932C3.36113 12.8457 4.03976e-07 10.4425 0 7.5L0.0107422 7.2168C0.218228 4.40469 3.49758 2.14953 7.58789 2.00684L8 2ZM15.9658 7C15.9874 7.16475 16 7.33139 16 7.5C16 7.66861 15.9874 7.83525 15.9658 8H14.9531C14.983 7.83363 15 7.66692 15 7.5C15 7.33308 14.983 7.16637 14.9531 7H15.9658Z" fill="black"/>
<path id="Subtract_2" opacity="0.1" d="M8 3C11.0473 3 13.6383 4.25267 14.5996 6H8V7H14.9561C14.9843 7.16423 15 7.33093 15 7.5C15 7.66907 14.9843 7.83577 14.9561 8H8V9H14.5996C13.6383 10.7473 11.0473 12 8 12C4.13401 12 1 9.98528 1 7.5C1 5.01472 4.13401 3 8 3Z" fill="black"/>
<path id="Vector 905" d="M8 7.5H16" stroke="black"/>
</g>
</g>
</svg>
