<?xml version="1.0" encoding="utf-8" ?><svg xmlns="http://www.w3.org/2000/svg" xmlns:xlink="http://www.w3.org/1999/xlink" width="512" height="512" viewBox="0 0 512 512"><path fill="#FEFEFE" d="M282.806 115.074C295.492 114.321 300.998 122.029 309.154 130.213L326.246 147.342L382.747 203.832L409.865 230.966C413.882 234.95 421.605 241.194 424.15 245.636C427.118 250.779 427.909 256.895 426.344 262.623C424.386 269.721 418.735 274.379 413.703 279.399L400.629 292.442L360.188 332.874L320.208 372.873L308.58 384.518C305.395 387.706 300.253 393.224 296.52 395.333C291.579 398.186 285.691 398.907 280.207 397.331C267.608 393.739 260.795 379.772 266.456 367.732C268.981 362.361 275.176 357.029 279.486 352.802L290.684 341.811L341.809 291.225C343.312 289.743 355.539 277.898 355.679 277.421C355.273 277.26 352.962 277.464 352.312 277.469C334.293 277.691 315.767 277.482 297.711 277.481L190.336 277.479L133.525 277.471L116.211 277.5C112.66 277.512 109.224 277.606 105.626 277.37C86.0688 276.146 78.0363 252.03 93.0236 239.41C100.504 233.111 111.534 234.544 120.787 234.555L148.587 234.565L237.986 234.567L315.414 234.565L338.953 234.547C343.578 234.545 349.789 234.383 354.279 234.867C350.32 231.639 342.596 223.549 338.746 219.74L308.693 190.036L281.89 163.544C277.511 159.215 272.582 154.528 268.456 149.994C266.353 147.095 264.369 143.473 263.862 139.873C262.001 126.658 270.38 117.234 282.806 115.074Z"/></svg>