<?xml version="1.0" encoding="UTF-8" standalone="no"?>
<svg width="16" height="16" viewBox="0 0 16 16" version="1.1" id="svg1" sodipodi:docname="rotate-canvas-symbolic.svg" xmlns:inkscape="http://www.inkscape.org/namespaces/inkscape" xmlns:sodipodi="http://sodipodi.sourceforge.net/DTD/sodipodi-0.dtd" xmlns="http://www.w3.org/2000/svg" xmlns:svg="http://www.w3.org/2000/svg">
  <defs id="defs1" />
  <sodipodi:namedview id="namedview1" pagecolor="#ffffff" bordercolor="#000000" borderopacity="0.25" inkscape:showpageshadow="2" inkscape:pageopacity="0.0" inkscape:pagecheckerboard="0" inkscape:deskcolor="#d1d1d1" showgrid="true" inkscape:zoom="55.949824" inkscape:cx="7.9982378" inkscape:cy="8.0071744" inkscape:current-layer="svg1">
    <inkscape:grid type="xygrid" id="grid2" units="px" originx="0" originy="0" spacingx="1" spacingy="1" empcolor="#0099e5" empopacity="0.30196078" color="#0099e5" opacity="0.14901961" empspacing="5" enabled="true" visible="true" />
  </sodipodi:namedview>
  <path d="m 8.50004,12 h -0.5 v 1 h 0.5 C 10.9853,13 13,10.9853 13,8.5 V 7.20711 l 1.1465,1.14644 0.7071,-0.7071 -2,-2 -0.3536,-0.35356 -0.3535,0.35356 -2,2 0.7071,0.7071 L 12,7.20711 V 8.5 C 12,10.433 10.433,12 8.50004,12 Z" id="path1" />
  <path d="M 7.50004,4 H 8 V 3 H 7.50004 c -2.48528,0 -4.5,2.01472 -4.5,4.5 v 1.29289 l -1.146449,-1.14644 -0.707107,0.7071 1.999996,2 0.35356,0.35356 0.35355,-0.35356 2,-2 L 5.14648,7.64645 4.00004,8.79289 V 7.5 c 0,-1.933 1.567,-3.5 3.5,-3.5 z" id="path2" />
</svg>
