<?xml version="1.0" encoding="UTF-8" standalone="no"?>
<!-- Created with Inkscape (http://www.inkscape.org/) -->

<svg width="16" height="16" viewBox="0 0 16 16" version="1.1" id="svg689" sodipodi:docname="sort-by-family-symbolic.svg" inkscape:version="1.3-dev (30e2387025, 2022-06-25, custom)" xmlns:inkscape="http://www.inkscape.org/namespaces/inkscape" xmlns:sodipodi="http://sodipodi.sourceforge.net/DTD/sodipodi-0.dtd" xmlns="http://www.w3.org/2000/svg" xmlns:svg="http://www.w3.org/2000/svg">
  <sodipodi:namedview id="namedview1" pagecolor="#ffffff" bordercolor="#000000" borderopacity="0.25" inkscape:showpageshadow="2" inkscape:pageopacity="0.0" inkscape:pagecheckerboard="0" inkscape:deskcolor="#d1d1d1" showgrid="false" inkscape:zoom="90.509668" inkscape:cx="9.8221552" inkscape:cy="9.899495" inkscape:window-width="1453" inkscape:window-height="916" inkscape:window-x="0" inkscape:window-y="38" inkscape:window-maximized="1" inkscape:current-layer="svg689">
    <inkscape:grid type="xygrid" id="grid1" originx="0.000000" originy="0.000000" spacingy="1.000000" spacingx="1.000000" units="px" visible="false" />
  </sodipodi:namedview>
  <defs id="defs686" />
  <path id="path2" style="fill:#000000;stroke-width:1" d="M 5.1484375 2 L 2.6015625 8.6679688 C 2.423597 9.1324154 2.2558718 9.4919501 2.0996094 9.7480469 C 1.9476876 9.999803 1.788425 10.170565 1.6191406 10.261719 C 1.4498564 10.352871 1.2430749 10.398438 1 10.398438 L 1 10.998047 L 4.0410156 10.998047 L 4.0410156 10.398438 C 3.771897 10.398437 3.5340873 10.364372 3.3300781 10.294922 C 3.1304095 10.225473 3.03125 10.061219 3.03125 9.8007812 C 3.03125 9.6575407 3.0913532 9.4247217 3.2128906 9.1035156 L 3.4277344 8.53125 L 6.2929688 8.53125 L 6.7109375 9.5722656 C 6.7630248 9.706825 6.7890625 9.8385313 6.7890625 9.96875 C 6.7890625 10.155397 6.7074781 10.276038 6.546875 10.328125 C 6.3862719 10.375872 6.1308873 10.398438 5.7792969 10.398438 L 5.7792969 10.998047 L 7.5097656 10.998047 L 8.6679688 9.390625 C 8.6057554 9.2445916 8.534526 9.0727368 8.4550781 8.875 L 5.765625 2 L 5.1484375 2 z M 4.8417969 4.8125 L 6.0585938 7.8925781 L 3.6816406 7.8925781 L 4.8417969 4.8125 z " />
  <path id="text4" style="fill:#000000;stroke-width:1" d="M 12.376506,6.7869565 9.969985,10.25 h 2.341304 z m 2.660871,6.6130445 -0.176088,0.6 h -4.017391 l 0.182608,-0.6 q 0.502174,0 0.776087,-0.117392 0.273914,-0.117391 0.391305,-0.423913 0.117391,-0.313044 0.117391,-0.899999 V 10.850001 H 9.533028 l -0.9521739,1.38913 q -0.3456522,0.515216 -0.3456522,0.743478 0,0.417392 0.8021731,0.417392 h 0.371739 l -0.182608,0.6 H 6.056941 l 0.1891303,-0.6 q 0.4500001,-0.03261 0.8934784,-0.443479 0.4500001,-0.417391 0.9782609,-1.160869 L 12.911289,5 h 1.134782 l -0.0913,7.369565 q 0,0.436956 0.09783,0.652174 0.09783,0.208696 0.326086,0.293479 0.228261,0.08478 0.658697,0.08478 z" />
</svg>
