<svg xmlns="http://www.w3.org/2000/svg" width="1050" height="780" viewBox="0 0 1050 780">
  <defs/>
  <rect x="0" y="0" width="1050" height="780" fill="#0f172a" rx="0" ry="0"/>
  <g id="base">
    <polygon points="500.0,402.0 829.1,592.0 664.5,687.0 335.5,497.0" fill="#64748b" stroke="#475569" stroke-width="1"/>
    <polygon points="500.0,402.0 829.1,592.0 829.1,610.0 500.0,420.0" fill="#475569" stroke="#475569" stroke-width="1"/>
    <polygon points="500.0,402.0 335.5,497.0 335.5,515.0 500.0,420.0" fill="#5a6a7e" stroke="#475569" stroke-width="1"/>
    <polygon points="487.0,412.5 816.1,602.5 816.1,608.5 487.0,418.5" fill="#2d3748" stroke="#475569" stroke-width="0.4"/>
    <polygon points="348.4,492.5 677.5,682.5 677.5,688.5 348.4,498.5" fill="#2d3748" stroke="#475569" stroke-width="0.4"/>
  </g>
  <g id="lower_section">
    <polygon points="335.5,367.0 664.5,557.0 664.5,687.0 335.5,497.0" fill="#94a3b8" stroke="#475569" stroke-width="1"/>
    <polygon points="500.0,272.0 335.5,367.0 335.5,497.0 500.0,402.0" fill="#d0d8e2" stroke="#475569" stroke-width="1"/>
    <line x1="493.1" y1="286.0" x2="342.4" y2="373.0" stroke="#8896a5" stroke-width="1.2"/>
    <line x1="493.1" y1="283.5" x2="342.4" y2="370.5" stroke="#eef1f5" stroke-width="0.5"/>
    <line x1="493.1" y1="296.0" x2="342.4" y2="383.0" stroke="#8896a5" stroke-width="1.2"/>
    <line x1="493.1" y1="293.5" x2="342.4" y2="380.5" stroke="#eef1f5" stroke-width="0.5"/>
    <line x1="493.1" y1="306.0" x2="342.4" y2="393.0" stroke="#8896a5" stroke-width="1.2"/>
    <line x1="493.1" y1="303.5" x2="342.4" y2="390.5" stroke="#eef1f5" stroke-width="0.5"/>
    <line x1="493.1" y1="316.0" x2="342.4" y2="403.0" stroke="#8896a5" stroke-width="1.2"/>
    <line x1="493.1" y1="313.5" x2="342.4" y2="400.5" stroke="#eef1f5" stroke-width="0.5"/>
    <line x1="493.1" y1="326.0" x2="342.4" y2="413.0" stroke="#8896a5" stroke-width="1.2"/>
    <line x1="493.1" y1="323.5" x2="342.4" y2="410.5" stroke="#eef1f5" stroke-width="0.5"/>
    <line x1="493.1" y1="336.0" x2="342.4" y2="423.0" stroke="#8896a5" stroke-width="1.2"/>
    <line x1="493.1" y1="333.5" x2="342.4" y2="420.5" stroke="#eef1f5" stroke-width="0.5"/>
    <line x1="493.1" y1="346.0" x2="342.4" y2="433.0" stroke="#8896a5" stroke-width="1.2"/>
    <line x1="493.1" y1="343.5" x2="342.4" y2="430.5" stroke="#eef1f5" stroke-width="0.5"/>
    <line x1="493.1" y1="356.0" x2="342.4" y2="443.0" stroke="#8896a5" stroke-width="1.2"/>
    <line x1="493.1" y1="353.5" x2="342.4" y2="440.5" stroke="#eef1f5" stroke-width="0.5"/>
    <line x1="493.1" y1="366.0" x2="342.4" y2="453.0" stroke="#8896a5" stroke-width="1.2"/>
    <line x1="493.1" y1="363.5" x2="342.4" y2="450.5" stroke="#eef1f5" stroke-width="0.5"/>
    <line x1="493.1" y1="376.0" x2="342.4" y2="463.0" stroke="#8896a5" stroke-width="1.2"/>
    <line x1="493.1" y1="373.5" x2="342.4" y2="460.5" stroke="#eef1f5" stroke-width="0.5"/>
    <line x1="493.1" y1="386.0" x2="342.4" y2="473.0" stroke="#8896a5" stroke-width="1.2"/>
    <line x1="493.1" y1="383.5" x2="342.4" y2="470.5" stroke="#eef1f5" stroke-width="0.5"/>
    <line x1="493.1" y1="396.0" x2="342.4" y2="483.0" stroke="#8896a5" stroke-width="1.2"/>
    <line x1="493.1" y1="393.5" x2="342.4" y2="480.5" stroke="#eef1f5" stroke-width="0.5"/>
    <g id="bay_0">
      <polygon points="502.6,273.5 579.7,318.0 579.7,448.0 502.6,403.5" fill="#c0c9d4" stroke="#475569" stroke-width="1"/>
      <line x1="506.9" y1="286.0" x2="575.3" y2="325.5" stroke="#8896a5" stroke-width="1.3"/>
      <line x1="506.9" y1="283.5" x2="575.3" y2="323.0" stroke="#eef1f5" stroke-width="0.6"/>
      <line x1="506.9" y1="296.0" x2="575.3" y2="335.5" stroke="#8896a5" stroke-width="1.3"/>
      <line x1="506.9" y1="293.5" x2="575.3" y2="333.0" stroke="#eef1f5" stroke-width="0.6"/>
      <line x1="506.9" y1="306.0" x2="575.3" y2="345.5" stroke="#8896a5" stroke-width="1.3"/>
      <line x1="506.9" y1="303.5" x2="575.3" y2="343.0" stroke="#eef1f5" stroke-width="0.6"/>
      <line x1="506.9" y1="316.0" x2="575.3" y2="355.5" stroke="#8896a5" stroke-width="1.3"/>
      <line x1="506.9" y1="313.5" x2="575.3" y2="353.0" stroke="#eef1f5" stroke-width="0.6"/>
      <line x1="506.9" y1="326.0" x2="575.3" y2="365.5" stroke="#8896a5" stroke-width="1.3"/>
      <line x1="506.9" y1="323.5" x2="575.3" y2="363.0" stroke="#eef1f5" stroke-width="0.6"/>
      <line x1="506.9" y1="336.0" x2="575.3" y2="375.5" stroke="#8896a5" stroke-width="1.3"/>
      <line x1="506.9" y1="333.5" x2="575.3" y2="373.0" stroke="#eef1f5" stroke-width="0.6"/>
      <line x1="506.9" y1="346.0" x2="575.3" y2="385.5" stroke="#8896a5" stroke-width="1.3"/>
      <line x1="506.9" y1="343.5" x2="575.3" y2="383.0" stroke="#eef1f5" stroke-width="0.6"/>
      <line x1="506.9" y1="356.0" x2="575.3" y2="395.5" stroke="#8896a5" stroke-width="1.3"/>
      <line x1="506.9" y1="353.5" x2="575.3" y2="393.0" stroke="#eef1f5" stroke-width="0.6"/>
      <line x1="506.9" y1="366.0" x2="575.3" y2="405.5" stroke="#8896a5" stroke-width="1.3"/>
      <line x1="506.9" y1="363.5" x2="575.3" y2="403.0" stroke="#eef1f5" stroke-width="0.6"/>
      <line x1="506.9" y1="376.0" x2="575.3" y2="415.5" stroke="#8896a5" stroke-width="1.3"/>
      <line x1="506.9" y1="373.5" x2="575.3" y2="413.0" stroke="#eef1f5" stroke-width="0.6"/>
      <line x1="506.9" y1="386.0" x2="575.3" y2="425.5" stroke="#8896a5" stroke-width="1.3"/>
      <line x1="506.9" y1="383.5" x2="575.3" y2="423.0" stroke="#eef1f5" stroke-width="0.6"/>
      <line x1="506.9" y1="396.0" x2="575.3" y2="435.5" stroke="#8896a5" stroke-width="1.3"/>
      <line x1="506.9" y1="393.5" x2="575.3" y2="433.0" stroke="#eef1f5" stroke-width="0.6"/>
    </g>
    <g id="bay_1">
      <polygon points="584.9,321.0 661.9,365.5 661.9,495.5 584.9,451.0" fill="#c0c9d4" stroke="#475569" stroke-width="1"/>
      <line x1="589.2" y1="333.5" x2="657.6" y2="373.0" stroke="#8896a5" stroke-width="1.3"/>
      <line x1="589.2" y1="331.0" x2="657.6" y2="370.5" stroke="#eef1f5" stroke-width="0.6"/>
      <line x1="589.2" y1="343.5" x2="657.6" y2="383.0" stroke="#8896a5" stroke-width="1.3"/>
      <line x1="589.2" y1="341.0" x2="657.6" y2="380.5" stroke="#eef1f5" stroke-width="0.6"/>
      <line x1="589.2" y1="353.5" x2="657.6" y2="393.0" stroke="#8896a5" stroke-width="1.3"/>
      <line x1="589.2" y1="351.0" x2="657.6" y2="390.5" stroke="#eef1f5" stroke-width="0.6"/>
      <line x1="589.2" y1="363.5" x2="657.6" y2="403.0" stroke="#8896a5" stroke-width="1.3"/>
      <line x1="589.2" y1="361.0" x2="657.6" y2="400.5" stroke="#eef1f5" stroke-width="0.6"/>
      <line x1="589.2" y1="373.5" x2="657.6" y2="413.0" stroke="#8896a5" stroke-width="1.3"/>
      <line x1="589.2" y1="371.0" x2="657.6" y2="410.5" stroke="#eef1f5" stroke-width="0.6"/>
      <line x1="589.2" y1="383.5" x2="657.6" y2="423.0" stroke="#8896a5" stroke-width="1.3"/>
      <line x1="589.2" y1="381.0" x2="657.6" y2="420.5" stroke="#eef1f5" stroke-width="0.6"/>
      <line x1="589.2" y1="393.5" x2="657.6" y2="433.0" stroke="#8896a5" stroke-width="1.3"/>
      <line x1="589.2" y1="391.0" x2="657.6" y2="430.5" stroke="#eef1f5" stroke-width="0.6"/>
      <line x1="589.2" y1="403.5" x2="657.6" y2="443.0" stroke="#8896a5" stroke-width="1.3"/>
      <line x1="589.2" y1="401.0" x2="657.6" y2="440.5" stroke="#eef1f5" stroke-width="0.6"/>
      <line x1="589.2" y1="413.5" x2="657.6" y2="453.0" stroke="#8896a5" stroke-width="1.3"/>
      <line x1="589.2" y1="411.0" x2="657.6" y2="450.5" stroke="#eef1f5" stroke-width="0.6"/>
      <line x1="589.2" y1="423.5" x2="657.6" y2="463.0" stroke="#8896a5" stroke-width="1.3"/>
      <line x1="589.2" y1="421.0" x2="657.6" y2="460.5" stroke="#eef1f5" stroke-width="0.6"/>
      <line x1="589.2" y1="433.5" x2="657.6" y2="473.0" stroke="#8896a5" stroke-width="1.3"/>
      <line x1="589.2" y1="431.0" x2="657.6" y2="470.5" stroke="#eef1f5" stroke-width="0.6"/>
      <line x1="589.2" y1="443.5" x2="657.6" y2="483.0" stroke="#8896a5" stroke-width="1.3"/>
      <line x1="589.2" y1="441.0" x2="657.6" y2="480.5" stroke="#eef1f5" stroke-width="0.6"/>
      <polygon points="579.7,318.0 584.9,321.0 584.9,451.0 579.7,448.0" fill="#f1f5f9" stroke="#475569" stroke-width="0.4"/>
    </g>
    <g id="bay_2">
      <polygon points="667.1,368.5 744.2,413.0 744.2,543.0 667.1,498.5" fill="#c0c9d4" stroke="#475569" stroke-width="1"/>
      <line x1="671.5" y1="381.0" x2="739.9" y2="420.5" stroke="#8896a5" stroke-width="1.3"/>
      <line x1="671.5" y1="378.5" x2="739.9" y2="418.0" stroke="#eef1f5" stroke-width="0.6"/>
      <line x1="671.5" y1="391.0" x2="739.9" y2="430.5" stroke="#8896a5" stroke-width="1.3"/>
      <line x1="671.5" y1="388.5" x2="739.9" y2="428.0" stroke="#eef1f5" stroke-width="0.6"/>
      <line x1="671.5" y1="401.0" x2="739.9" y2="440.5" stroke="#8896a5" stroke-width="1.3"/>
      <line x1="671.5" y1="398.5" x2="739.9" y2="438.0" stroke="#eef1f5" stroke-width="0.6"/>
      <line x1="671.5" y1="411.0" x2="739.9" y2="450.5" stroke="#8896a5" stroke-width="1.3"/>
      <line x1="671.5" y1="408.5" x2="739.9" y2="448.0" stroke="#eef1f5" stroke-width="0.6"/>
      <line x1="671.5" y1="421.0" x2="739.9" y2="460.5" stroke="#8896a5" stroke-width="1.3"/>
      <line x1="671.5" y1="418.5" x2="739.9" y2="458.0" stroke="#eef1f5" stroke-width="0.6"/>
      <line x1="671.5" y1="431.0" x2="739.9" y2="470.5" stroke="#8896a5" stroke-width="1.3"/>
      <line x1="671.5" y1="428.5" x2="739.9" y2="468.0" stroke="#eef1f5" stroke-width="0.6"/>
      <line x1="671.5" y1="441.0" x2="739.9" y2="480.5" stroke="#8896a5" stroke-width="1.3"/>
      <line x1="671.5" y1="438.5" x2="739.9" y2="478.0" stroke="#eef1f5" stroke-width="0.6"/>
      <line x1="671.5" y1="451.0" x2="739.9" y2="490.5" stroke="#8896a5" stroke-width="1.3"/>
      <line x1="671.5" y1="448.5" x2="739.9" y2="488.0" stroke="#eef1f5" stroke-width="0.6"/>
      <line x1="671.5" y1="461.0" x2="739.9" y2="500.5" stroke="#8896a5" stroke-width="1.3"/>
      <line x1="671.5" y1="458.5" x2="739.9" y2="498.0" stroke="#eef1f5" stroke-width="0.6"/>
      <line x1="671.5" y1="471.0" x2="739.9" y2="510.5" stroke="#8896a5" stroke-width="1.3"/>
      <line x1="671.5" y1="468.5" x2="739.9" y2="508.0" stroke="#eef1f5" stroke-width="0.6"/>
      <line x1="671.5" y1="481.0" x2="739.9" y2="520.5" stroke="#8896a5" stroke-width="1.3"/>
      <line x1="671.5" y1="478.5" x2="739.9" y2="518.0" stroke="#eef1f5" stroke-width="0.6"/>
      <line x1="671.5" y1="491.0" x2="739.9" y2="530.5" stroke="#8896a5" stroke-width="1.3"/>
      <line x1="671.5" y1="488.5" x2="739.9" y2="528.0" stroke="#eef1f5" stroke-width="0.6"/>
      <polygon points="661.9,365.5 667.1,368.5 667.1,498.5 661.9,495.5" fill="#f1f5f9" stroke="#475569" stroke-width="0.4"/>
    </g>
    <g id="bay_3">
      <polygon points="749.4,416.0 826.5,460.5 826.5,590.5 749.4,546.0" fill="#c0c9d4" stroke="#475569" stroke-width="1"/>
      <line x1="753.7" y1="428.5" x2="822.2" y2="468.0" stroke="#8896a5" stroke-width="1.3"/>
      <line x1="753.7" y1="426.0" x2="822.2" y2="465.5" stroke="#eef1f5" stroke-width="0.6"/>
      <line x1="753.7" y1="438.5" x2="822.2" y2="478.0" stroke="#8896a5" stroke-width="1.3"/>
      <line x1="753.7" y1="436.0" x2="822.2" y2="475.5" stroke="#eef1f5" stroke-width="0.6"/>
      <line x1="753.7" y1="448.5" x2="822.2" y2="488.0" stroke="#8896a5" stroke-width="1.3"/>
      <line x1="753.7" y1="446.0" x2="822.2" y2="485.5" stroke="#eef1f5" stroke-width="0.6"/>
      <line x1="753.7" y1="458.5" x2="822.2" y2="498.0" stroke="#8896a5" stroke-width="1.3"/>
      <line x1="753.7" y1="456.0" x2="822.2" y2="495.5" stroke="#eef1f5" stroke-width="0.6"/>
      <line x1="753.7" y1="468.5" x2="822.2" y2="508.0" stroke="#8896a5" stroke-width="1.3"/>
      <line x1="753.7" y1="466.0" x2="822.2" y2="505.5" stroke="#eef1f5" stroke-width="0.6"/>
      <line x1="753.7" y1="478.5" x2="822.2" y2="518.0" stroke="#8896a5" stroke-width="1.3"/>
      <line x1="753.7" y1="476.0" x2="822.2" y2="515.5" stroke="#eef1f5" stroke-width="0.6"/>
      <line x1="753.7" y1="488.5" x2="822.2" y2="528.0" stroke="#8896a5" stroke-width="1.3"/>
      <line x1="753.7" y1="486.0" x2="822.2" y2="525.5" stroke="#eef1f5" stroke-width="0.6"/>
      <line x1="753.7" y1="498.5" x2="822.2" y2="538.0" stroke="#8896a5" stroke-width="1.3"/>
      <line x1="753.7" y1="496.0" x2="822.2" y2="535.5" stroke="#eef1f5" stroke-width="0.6"/>
      <line x1="753.7" y1="508.5" x2="822.2" y2="548.0" stroke="#8896a5" stroke-width="1.3"/>
      <line x1="753.7" y1="506.0" x2="822.2" y2="545.5" stroke="#eef1f5" stroke-width="0.6"/>
      <line x1="753.7" y1="518.5" x2="822.2" y2="558.0" stroke="#8896a5" stroke-width="1.3"/>
      <line x1="753.7" y1="516.0" x2="822.2" y2="555.5" stroke="#eef1f5" stroke-width="0.6"/>
      <line x1="753.7" y1="528.5" x2="822.2" y2="568.0" stroke="#8896a5" stroke-width="1.3"/>
      <line x1="753.7" y1="526.0" x2="822.2" y2="565.5" stroke="#eef1f5" stroke-width="0.6"/>
      <line x1="753.7" y1="538.5" x2="822.2" y2="578.0" stroke="#8896a5" stroke-width="1.3"/>
      <line x1="753.7" y1="536.0" x2="822.2" y2="575.5" stroke="#eef1f5" stroke-width="0.6"/>
      <polygon points="744.2,413.0 749.4,416.0 749.4,546.0 744.2,543.0" fill="#f1f5f9" stroke="#475569" stroke-width="0.4"/>
    </g>
    <polygon points="500.0,272.0 506.9,276.0 506.9,406.0 500.0,402.0" fill="#f1f5f9" stroke="#475569" stroke-width="0.4"/>
    <polygon points="822.2,458.0 829.1,462.0 829.1,592.0 822.2,588.0" fill="#f1f5f9" stroke="#475569" stroke-width="0.4"/>
    <polygon points="500.0,272.0 829.1,462.0 829.1,467.0 500.0,277.0" fill="#f1f5f9" stroke="#475569" stroke-width="0.4"/>
    <polygon points="500.0,272.0 335.5,367.0 335.5,372.0 500.0,277.0" fill="#e2e8f0" stroke="#475569" stroke-width="0.4"/>
    <polygon points="500.0,272.0 829.1,462.0 664.5,557.0 335.5,367.0" fill="#94a3b8" stroke="#475569" stroke-width="1"/>
  </g>
  <g id="upper_frame">
    <polygon points="340.7,259.0 345.8,262.0 345.8,367.0 340.7,364.0" fill="#94a3b8" stroke="#475569" stroke-width="0.6"/>
    <polygon points="664.5,446.0 669.7,449.0 669.7,554.0 664.5,551.0" fill="#94a3b8" stroke="#475569" stroke-width="0.6"/>
    <polygon points="420.3,305.0 425.5,308.0 425.5,413.0 420.3,410.0" fill="#94a3b8" stroke="#475569" stroke-width="0.6"/>
    <polygon points="502.6,352.5 507.8,355.5 507.8,460.5 502.6,457.5" fill="#94a3b8" stroke="#475569" stroke-width="0.6"/>
    <polygon points="584.9,400.0 590.1,403.0 590.1,508.0 584.9,505.0" fill="#94a3b8" stroke="#475569" stroke-width="0.6"/>
    <polygon points="340.7,259.0 669.7,449.0 669.7,455.0 340.7,265.0" fill="#94a3b8" stroke="#475569" stroke-width="0.5"/>
    <polygon points="340.7,316.8 669.7,506.8 669.7,512.8 340.7,322.8" fill="#94a3b8" stroke="#475569" stroke-width="0.5"/>
    <polygon points="500.0,167.0 494.8,170.0 494.8,275.0 500.0,272.0" fill="#e2e8f0" stroke="#475569" stroke-width="0.6"/>
    <polygon points="340.7,259.0 335.5,262.0 335.5,367.0 340.7,364.0" fill="#94a3b8" stroke="#475569" stroke-width="0.6"/>
    <polygon points="500.0,167.0 335.5,262.0 335.5,268.0 500.0,173.0" fill="#e2e8f0" stroke="#475569" stroke-width="0.6"/>
    <polygon points="500.0,224.8 335.5,319.8 335.5,325.8 500.0,230.8" fill="#e2e8f0" stroke="#475569" stroke-width="0.6"/>
    <line x1="491.3" y1="182.0" x2="344.1" y2="352.0" stroke="#94a3b8" stroke-width="1.5"/>
    <line x1="491.3" y1="267.0" x2="344.1" y2="267.0" stroke="#94a3b8" stroke-width="1.5"/>
    <polygon points="500.0,167.0 505.2,170.0 505.2,275.0 500.0,272.0" fill="#f1f5f9" stroke="#475569" stroke-width="0.5"/>
    <polygon points="500.0,167.0 494.8,170.0 494.8,275.0 500.0,272.0" fill="#e2e8f0" stroke="#475569" stroke-width="0.4"/>
    <polygon points="823.9,354.0 829.1,357.0 829.1,462.0 823.9,459.0" fill="#f1f5f9" stroke="#475569" stroke-width="0.5"/>
    <polygon points="823.9,354.0 818.7,357.0 818.7,462.0 823.9,459.0" fill="#e2e8f0" stroke="#475569" stroke-width="0.4"/>
    <polygon points="579.7,213.0 584.9,216.0 584.9,321.0 579.7,318.0" fill="#f1f5f9" stroke="#475569" stroke-width="0.5"/>
    <polygon points="661.9,260.5 667.1,263.5 667.1,368.5 661.9,365.5" fill="#f1f5f9" stroke="#475569" stroke-width="0.5"/>
    <polygon points="744.2,308.0 749.4,311.0 749.4,416.0 744.2,413.0" fill="#f1f5f9" stroke="#475569" stroke-width="0.5"/>
    <polygon points="500.0,167.0 829.1,357.0 829.1,363.0 500.0,173.0" fill="#f1f5f9" stroke="#475569" stroke-width="0.5"/>
    <polygon points="500.0,224.8 829.1,414.8 829.1,420.8 500.0,230.8" fill="#f1f5f9" stroke="#475569" stroke-width="0.5"/>
    <line x1="508.7" y1="182.0" x2="573.6" y2="304.5" stroke="#94a3b8" stroke-width="1.2"/>
    <line x1="508.7" y1="267.0" x2="573.6" y2="219.5" stroke="#94a3b8" stroke-width="1.2"/>
    <line x1="590.9" y1="229.5" x2="655.9" y2="352.0" stroke="#94a3b8" stroke-width="1.2"/>
    <line x1="590.9" y1="314.5" x2="655.9" y2="267.0" stroke="#94a3b8" stroke-width="1.2"/>
    <line x1="673.2" y1="277.0" x2="738.2" y2="399.5" stroke="#94a3b8" stroke-width="1.2"/>
    <line x1="673.2" y1="362.0" x2="738.2" y2="314.5" stroke="#94a3b8" stroke-width="1.2"/>
    <line x1="755.5" y1="324.5" x2="820.4" y2="447.0" stroke="#94a3b8" stroke-width="1.2"/>
    <line x1="755.5" y1="409.5" x2="820.4" y2="362.0" stroke="#94a3b8" stroke-width="1.2"/>
    <polygon points="823.9,354.0 829.1,357.0 829.1,462.0 823.9,459.0" fill="#f1f5f9" stroke="#475569" stroke-width="0.4"/>
  </g>
  <g id="exhaust_ducts">
    <polygon points="458.0,277.2 743.8,442.2 743.8,466.2 458.0,301.2" fill="#eab308" stroke="#a16207" stroke-width="0.8"/>
    <polygon points="458.0,277.2 743.8,442.2 723.0,454.2 437.2,289.2" fill="#fde047" stroke="#a16207" stroke-width="0.5"/>
    <polygon points="460.6,278.8 741.2,440.8 741.2,443.8 460.6,281.8" fill="#fef9c3" stroke="none"/>
    <polygon points="456.3,211.2 484.0,227.2 484.0,288.2 456.3,272.2" fill="#eab308" stroke="#a16207" stroke-width="0.7"/>
    <polygon points="456.3,211.2 428.6,227.2 428.6,288.2 456.3,272.2" fill="#f5d44e" stroke="#a16207" stroke-width="0.7"/>
    <polygon points="523.4,250.0 551.1,266.0 551.1,327.0 523.4,311.0" fill="#eab308" stroke="#a16207" stroke-width="0.7"/>
    <polygon points="523.4,250.0 495.7,266.0 495.7,327.0 523.4,311.0" fill="#f5d44e" stroke="#a16207" stroke-width="0.7"/>
    <polygon points="590.5,288.8 618.2,304.8 618.2,365.8 590.5,349.8" fill="#eab308" stroke="#a16207" stroke-width="0.7"/>
    <polygon points="590.5,288.8 562.8,304.8 562.8,365.8 590.5,349.8" fill="#f5d44e" stroke="#a16207" stroke-width="0.7"/>
    <polygon points="657.6,327.5 685.3,343.5 685.3,404.5 657.6,388.5" fill="#eab308" stroke="#a16207" stroke-width="0.7"/>
    <polygon points="657.6,327.5 629.9,343.5 629.9,404.5 657.6,388.5" fill="#f5d44e" stroke="#a16207" stroke-width="0.7"/>
    <polygon points="724.7,366.2 752.4,382.2 752.4,443.2 724.7,427.2" fill="#eab308" stroke="#a16207" stroke-width="0.7"/>
    <polygon points="724.7,366.2 697.0,382.2 697.0,443.2 724.7,427.2" fill="#f5d44e" stroke="#a16207" stroke-width="0.7"/>
  </g>
  <g id="roof">
    <polygon points="500.0,135.0 867.2,347.0 664.5,464.0 297.4,252.0" fill="#d6dce6" stroke="#475569" stroke-width="1"/>
    <line x1="490.8" y1="145.3" x2="849.4" y2="352.3" stroke="#475569" stroke-width="0.5"/>
    <line x1="477.3" y1="153.1" x2="835.8" y2="360.1" stroke="#475569" stroke-width="0.5"/>
    <line x1="463.8" y1="160.9" x2="822.3" y2="367.9" stroke="#475569" stroke-width="0.5"/>
    <line x1="450.3" y1="168.7" x2="808.8" y2="375.7" stroke="#475569" stroke-width="0.5"/>
    <line x1="436.8" y1="176.5" x2="795.3" y2="383.5" stroke="#475569" stroke-width="0.5"/>
    <line x1="423.3" y1="184.3" x2="781.8" y2="391.3" stroke="#475569" stroke-width="0.5"/>
    <line x1="409.8" y1="192.1" x2="768.3" y2="399.1" stroke="#475569" stroke-width="0.5"/>
    <line x1="396.3" y1="199.9" x2="754.8" y2="406.9" stroke="#475569" stroke-width="0.5"/>
    <line x1="382.7" y1="207.7" x2="741.3" y2="414.7" stroke="#475569" stroke-width="0.5"/>
    <line x1="369.2" y1="215.5" x2="727.8" y2="422.5" stroke="#475569" stroke-width="0.5"/>
    <line x1="355.7" y1="223.3" x2="714.3" y2="430.3" stroke="#475569" stroke-width="0.5"/>
    <line x1="342.2" y1="231.1" x2="700.7" y2="438.1" stroke="#475569" stroke-width="0.5"/>
    <line x1="328.7" y1="238.9" x2="687.2" y2="445.9" stroke="#475569" stroke-width="0.5"/>
    <line x1="315.2" y1="246.7" x2="673.7" y2="453.7" stroke="#475569" stroke-width="0.5"/>
    <polygon points="500.0,135.0 867.2,347.0 867.2,357.0 500.0,145.0" fill="#94a3b8" stroke="#475569" stroke-width="1"/>
    <polygon points="500.0,135.0 297.4,252.0 297.4,262.0 500.0,145.0" fill="#aab5c2" stroke="#475569" stroke-width="1"/>
    <line x1="538.1" y1="167.0" x2="519.1" y2="178.0" stroke="#f1f5f9" stroke-width="1.5"/>
    <line x1="519.1" y1="178.0" x2="528.6" y2="164.5" stroke="#f1f5f9" stroke-width="1"/>
    <line x1="603.9" y1="205.0" x2="584.9" y2="216.0" stroke="#f1f5f9" stroke-width="1.5"/>
    <line x1="584.9" y1="216.0" x2="594.4" y2="202.5" stroke="#f1f5f9" stroke-width="1"/>
    <line x1="669.7" y1="243.0" x2="650.7" y2="254.0" stroke="#f1f5f9" stroke-width="1.5"/>
    <line x1="650.7" y1="254.0" x2="660.2" y2="240.5" stroke="#f1f5f9" stroke-width="1"/>
    <line x1="735.6" y1="281.0" x2="716.5" y2="292.0" stroke="#f1f5f9" stroke-width="1.5"/>
    <line x1="716.5" y1="292.0" x2="726.0" y2="278.5" stroke="#f1f5f9" stroke-width="1"/>
    <line x1="801.4" y1="319.0" x2="782.3" y2="330.0" stroke="#f1f5f9" stroke-width="1.5"/>
    <line x1="782.3" y1="330.0" x2="791.9" y2="316.5" stroke="#f1f5f9" stroke-width="1"/>
    <line x1="867.2" y1="357.0" x2="848.1" y2="368.0" stroke="#f1f5f9" stroke-width="1.5"/>
    <line x1="848.1" y1="368.0" x2="857.7" y2="354.5" stroke="#f1f5f9" stroke-width="1"/>
    <line x1="480.9" y1="178.0" x2="461.9" y2="167.0" stroke="#e2e8f0" stroke-width="1.2"/>
    <line x1="426.1" y1="209.7" x2="407.0" y2="198.7" stroke="#e2e8f0" stroke-width="1.2"/>
    <line x1="371.3" y1="241.3" x2="352.2" y2="230.3" stroke="#e2e8f0" stroke-width="1.2"/>
    <line x1="316.4" y1="273.0" x2="297.4" y2="262.0" stroke="#e2e8f0" stroke-width="1.2"/>
  </g>
  <g id="exhaust_above_roof">
    <polygon points="456.3,171.2 484.0,187.2 484.0,217.2 456.3,201.2" fill="#eab308" stroke="#a16207" stroke-width="0.8"/>
    <polygon points="456.3,171.2 428.6,187.2 428.6,217.2 456.3,201.2" fill="#f5d44e" stroke="#a16207" stroke-width="0.8"/>
    <polygon points="456.3,171.2 484.0,187.2 456.3,203.2 428.6,187.2" fill="#fde047" stroke="#a16207" stroke-width="0.6"/>
    <polygon points="456.3,143.2 494.4,165.2 494.4,187.2 456.3,165.2" fill="#b0bcc8" stroke="#475569" stroke-width="0.6"/>
    <polygon points="456.3,143.2 418.2,165.2 418.2,187.2 456.3,165.2" fill="#b8c4d0" stroke="#475569" stroke-width="0.6"/>
    <polygon points="456.3,145.2 490.9,165.2 456.3,185.2 421.6,165.2" fill="#e2e8f0" stroke="#475569" stroke-width="0.6"/>
    <polygon points="523.4,210.0 551.1,226.0 551.1,256.0 523.4,240.0" fill="#eab308" stroke="#a16207" stroke-width="0.8"/>
    <polygon points="523.4,210.0 495.7,226.0 495.7,256.0 523.4,240.0" fill="#f5d44e" stroke="#a16207" stroke-width="0.8"/>
    <polygon points="523.4,210.0 551.1,226.0 523.4,242.0 495.7,226.0" fill="#fde047" stroke="#a16207" stroke-width="0.6"/>
    <polygon points="523.4,182.0 561.5,204.0 561.5,226.0 523.4,204.0" fill="#b0bcc8" stroke="#475569" stroke-width="0.6"/>
    <polygon points="523.4,182.0 485.3,204.0 485.3,226.0 523.4,204.0" fill="#b8c4d0" stroke="#475569" stroke-width="0.6"/>
    <polygon points="523.4,184.0 558.0,204.0 523.4,224.0 488.7,204.0" fill="#e2e8f0" stroke="#475569" stroke-width="0.6"/>
    <polygon points="590.5,248.8 618.2,264.8 618.2,294.8 590.5,278.8" fill="#eab308" stroke="#a16207" stroke-width="0.8"/>
    <polygon points="590.5,248.8 562.8,264.8 562.8,294.8 590.5,278.8" fill="#f5d44e" stroke="#a16207" stroke-width="0.8"/>
    <polygon points="590.5,248.8 618.2,264.8 590.5,280.8 562.8,264.8" fill="#fde047" stroke="#a16207" stroke-width="0.6"/>
    <polygon points="590.5,220.8 628.6,242.8 628.6,264.8 590.5,242.8" fill="#b0bcc8" stroke="#475569" stroke-width="0.6"/>
    <polygon points="590.5,220.8 552.4,242.8 552.4,264.8 590.5,242.8" fill="#b8c4d0" stroke="#475569" stroke-width="0.6"/>
    <polygon points="590.5,222.8 625.1,242.8 590.5,262.8 555.9,242.8" fill="#e2e8f0" stroke="#475569" stroke-width="0.6"/>
    <polygon points="657.6,287.5 685.3,303.5 685.3,333.5 657.6,317.5" fill="#eab308" stroke="#a16207" stroke-width="0.8"/>
    <polygon points="657.6,287.5 629.9,303.5 629.9,333.5 657.6,317.5" fill="#f5d44e" stroke="#a16207" stroke-width="0.8"/>
    <polygon points="657.6,287.5 685.3,303.5 657.6,319.5 629.9,303.5" fill="#fde047" stroke="#a16207" stroke-width="0.6"/>
    <polygon points="657.6,259.5 695.7,281.5 695.7,303.5 657.6,281.5" fill="#b0bcc8" stroke="#475569" stroke-width="0.6"/>
    <polygon points="657.6,259.5 619.5,281.5 619.5,303.5 657.6,281.5" fill="#b8c4d0" stroke="#475569" stroke-width="0.6"/>
    <polygon points="657.6,261.5 692.3,281.5 657.6,301.5 623.0,281.5" fill="#e2e8f0" stroke="#475569" stroke-width="0.6"/>
    <polygon points="724.7,326.2 752.4,342.2 752.4,372.2 724.7,356.2" fill="#eab308" stroke="#a16207" stroke-width="0.8"/>
    <polygon points="724.7,326.2 697.0,342.2 697.0,372.2 724.7,356.2" fill="#f5d44e" stroke="#a16207" stroke-width="0.8"/>
    <polygon points="724.7,326.2 752.4,342.2 724.7,358.2 697.0,342.2" fill="#fde047" stroke="#a16207" stroke-width="0.6"/>
    <polygon points="724.7,298.2 762.8,320.2 762.8,342.2 724.7,320.2" fill="#b0bcc8" stroke="#475569" stroke-width="0.6"/>
    <polygon points="724.7,298.2 686.6,320.2 686.6,342.2 724.7,320.2" fill="#b8c4d0" stroke="#475569" stroke-width="0.6"/>
    <polygon points="724.7,300.2 759.4,320.2 724.7,340.2 690.1,320.2" fill="#e2e8f0" stroke="#475569" stroke-width="0.6"/>
  </g>
  <g id="stairs">
    <polygon points="480.9,261.0 500.0,272.0 335.5,367.0 316.4,356.0" fill="#e2e8f0" stroke="#475569" stroke-width="0.8"/>
    <polygon points="480.9,261.0 316.4,356.0 316.4,360.0 480.9,265.0" fill="#e2e8f0" stroke="#475569" stroke-width="0.4"/>
    <line x1="480.9" y1="223.0" x2="316.4" y2="318.0" stroke="#f1f5f9" stroke-width="1.3"/>
    <line x1="480.9" y1="261.0" x2="480.9" y2="223.0" stroke="#f1f5f9" stroke-width="1"/>
    <line x1="439.8" y1="284.8" x2="439.8" y2="246.8" stroke="#f1f5f9" stroke-width="1"/>
    <line x1="398.7" y1="308.5" x2="398.7" y2="270.5" stroke="#f1f5f9" stroke-width="1"/>
    <line x1="357.5" y1="332.2" x2="357.5" y2="294.2" stroke="#f1f5f9" stroke-width="1"/>
    <line x1="316.4" y1="356.0" x2="316.4" y2="318.0" stroke="#f1f5f9" stroke-width="1"/>
    <polygon points="429.0,401.6 444.6,410.6 418.6,425.6 403.0,416.6" fill="#e2e8f0" stroke="#475569" stroke-width="0.4"/>
    <polygon points="429.0,401.6 403.0,416.6 403.0,431.0 429.0,416.0" fill="#d6dce4" stroke="#475569" stroke-width="0.4"/>
    <polygon points="429.0,387.1 444.6,396.1 418.6,411.1 403.0,402.1" fill="#e2e8f0" stroke="#475569" stroke-width="0.4"/>
    <polygon points="429.0,387.1 403.0,402.1 403.0,416.6 429.0,401.6" fill="#d6dce4" stroke="#475569" stroke-width="0.4"/>
    <polygon points="429.0,372.7 444.6,381.7 418.6,396.7 403.0,387.7" fill="#e2e8f0" stroke="#475569" stroke-width="0.4"/>
    <polygon points="429.0,372.7 403.0,387.7 403.0,402.1 429.0,387.1" fill="#d6dce4" stroke="#475569" stroke-width="0.4"/>
    <polygon points="429.0,358.2 444.6,367.2 418.6,382.2 403.0,373.2" fill="#e2e8f0" stroke="#475569" stroke-width="0.4"/>
    <polygon points="429.0,358.2 403.0,373.2 403.0,387.7 429.0,372.7" fill="#d6dce4" stroke="#475569" stroke-width="0.4"/>
    <polygon points="429.0,343.8 444.6,352.8 418.6,367.8 403.0,358.8" fill="#e2e8f0" stroke="#475569" stroke-width="0.4"/>
    <polygon points="429.0,343.8 403.0,358.8 403.0,373.2 429.0,358.2" fill="#d6dce4" stroke="#475569" stroke-width="0.4"/>
    <polygon points="429.0,329.3 444.6,338.3 418.6,353.3 403.0,344.3" fill="#e2e8f0" stroke="#475569" stroke-width="0.4"/>
    <polygon points="429.0,329.3 403.0,344.3 403.0,358.8 429.0,343.8" fill="#d6dce4" stroke="#475569" stroke-width="0.4"/>
    <polygon points="429.0,314.9 444.6,323.9 418.6,338.9 403.0,329.9" fill="#e2e8f0" stroke="#475569" stroke-width="0.4"/>
    <polygon points="429.0,314.9 403.0,329.9 403.0,344.3 429.0,329.3" fill="#d6dce4" stroke="#475569" stroke-width="0.4"/>
    <polygon points="429.0,300.4 444.6,309.4 418.6,324.4 403.0,315.4" fill="#e2e8f0" stroke="#475569" stroke-width="0.4"/>
    <polygon points="429.0,300.4 403.0,315.4 403.0,329.9 429.0,314.9" fill="#d6dce4" stroke="#475569" stroke-width="0.4"/>
    <polygon points="429.0,286.0 444.6,295.0 418.6,310.0 403.0,301.0" fill="#e2e8f0" stroke="#475569" stroke-width="0.4"/>
    <polygon points="429.0,286.0 403.0,301.0 403.0,315.4 429.0,300.4" fill="#d6dce4" stroke="#475569" stroke-width="0.4"/>
    <line x1="429.0" y1="248.0" x2="429.0" y2="396.0" stroke="#f1f5f9" stroke-width="1.3"/>
    <line x1="403.0" y1="263.0" x2="403.0" y2="411.0" stroke="#f1f5f9" stroke-width="1.3"/>
    <line x1="429.0" y1="248.0" x2="403.0" y2="263.0" stroke="#f1f5f9" stroke-width="1.3"/>
  </g>
</svg>
