<svg xmlns="http://www.w3.org/2000/svg" width="1200" height="900" viewBox="0 0 1200 900" style="background-color:#1e1e1e">
    <rect width="1200" height="900" fill="#1e1e1e" /><polygon points="586.69,562.69 429.79,900.78 429.79,921.03 586.69,582.94" fill="#5e7a5e" stroke="#3e523e" stroke-width="0.5" stroke-linejoin="round" /><polygon points="443.10,902.84 429.79,900.78 429.79,921.03 443.10,923.09" fill="#7da37d" stroke="#3e523e" stroke-width="0.5" stroke-linejoin="round" /><polygon points="600.00,564.75 443.10,902.84 429.79,900.78 586.69,562.69" fill="#9cb89c" stroke="#3e523e" stroke-width="0.5" stroke-linejoin="round" /><polygon points="472.24,544.98 315.33,883.08 315.33,903.33 472.24,565.23" fill="#5e7a5e" stroke="#3e523e" stroke-width="0.5" stroke-linejoin="round" /><polygon points="328.64,885.13 315.33,883.08 315.33,903.33 328.64,905.38" fill="#7da37d" stroke="#3e523e" stroke-width="0.5" stroke-linejoin="round" /><polygon points="485.55,547.04 328.64,885.13 315.33,883.08 472.24,544.98" fill="#9cb89c" stroke="#3e523e" stroke-width="0.5" stroke-linejoin="round" /><ellipse cx="586.27" cy="605.69" rx="6.00" ry="4.00" fill="#2a352a" stroke="none" /><ellipse cx="554.89" cy="673.31" rx="6.00" ry="4.00" fill="#2a352a" stroke="none" /><ellipse cx="523.51" cy="740.93" rx="6.00" ry="4.00" fill="#2a352a" stroke="none" /><ellipse cx="492.13" cy="808.55" rx="6.00" ry="4.00" fill="#2a352a" stroke="none" /><ellipse cx="460.75" cy="876.17" rx="6.00" ry="4.00" fill="#2a352a" stroke="none" /><polygon points="374.86,677.10 346.33,738.58 346.33,828.58 374.86,767.10" fill="#5e7a5e" stroke="#3e523e" stroke-width="0.5" stroke-linejoin="round" /><polygon points="463.45,756.69 346.33,738.58 346.33,828.58 463.45,846.69" fill="#7da37d" stroke="#3e523e" stroke-width="0.5" stroke-linejoin="round" /><polygon points="491.98,695.22 463.45,756.69 346.33,738.58 374.86,677.10" fill="#9cb89c" stroke="#3e523e" stroke-width="0.5" stroke-linejoin="round" /><polygon points="356.98,749.22 339.86,786.11 339.86,858.11 356.98,821.22" fill="#5e7a5e" stroke="#3e523e" stroke-width="0.5" stroke-linejoin="round" /><polygon points="435.68,800.93 339.86,786.11 339.86,858.11 435.68,872.93" fill="#7da37d" stroke="#3e523e" stroke-width="0.5" stroke-linejoin="round" /><polygon points="452.80,764.05 435.68,800.93 339.86,786.11 356.98,749.22" fill="#9cb89c" stroke="#3e523e" stroke-width="0.5" stroke-linejoin="round" /><polygon points="386.36,668.35 369.24,705.24 369.24,732.24 386.36,695.35" fill="#5e7a5e" stroke="#3e523e" stroke-width="0.5" stroke-linejoin="round" /><polygon points="449.10,717.59 369.24,705.24 369.24,732.24 449.10,744.59" fill="#7da37d" stroke="#3e523e" stroke-width="0.5" stroke-linejoin="round" /><polygon points="466.21,680.71 449.10,717.59 369.24,705.24 386.36,668.35" fill="#9cb89c" stroke="#3e523e" stroke-width="0.5" stroke-linejoin="round" /><polygon points="348.70,839.94 351.13,829.99 358.06,822.30 368.42,818.05 380.64,817.89 392.86,821.83 403.23,829.29 410.15,839.12 412.58,849.83 410.15,859.78 403.23,867.47 392.86,871.72 380.64,871.89 368.42,867.94 358.06,860.48 351.13,850.65" fill="#5e7a5e" stroke="#3e523e" stroke-width="0.5" stroke-linejoin="round" /><polygon points="355.83,824.58 348.70,839.94 351.13,829.99 358.26,814.62" fill="#7da37d" stroke="#3e523e" stroke-width="0.5" stroke-linejoin="round" /><polygon points="358.26,814.62 351.13,829.99 358.06,822.30 365.19,806.93" fill="#7da37d" stroke="#3e523e" stroke-width="0.5" stroke-linejoin="round" /><polygon points="365.19,806.93 358.06,822.30 368.42,818.05 375.55,802.68" fill="#7da37d" stroke="#3e523e" stroke-width="0.5" stroke-linejoin="round" /><polygon points="375.55,802.68 368.42,818.05 380.64,817.89 387.77,802.52" fill="#7da37d" stroke="#3e523e" stroke-width="0.5" stroke-linejoin="round" /><polygon points="387.77,802.52 380.64,817.89 392.86,821.83 400.00,806.46" fill="#7da37d" stroke="#3e523e" stroke-width="0.5" stroke-linejoin="round" /><polygon points="400.00,806.46 392.86,821.83 403.23,829.29 410.36,813.92" fill="#7da37d" stroke="#3e523e" stroke-width="0.5" stroke-linejoin="round" /><polygon points="410.36,813.92 403.23,829.29 410.15,839.12 417.28,823.75" fill="#7da37d" stroke="#3e523e" stroke-width="0.5" stroke-linejoin="round" /><polygon points="417.28,823.75 410.15,839.12 412.58,849.83 419.71,834.46" fill="#7da37d" stroke="#3e523e" stroke-width="0.5" stroke-linejoin="round" /><polygon points="419.71,834.46 412.58,849.83 410.15,859.78 417.28,844.41" fill="#7da37d" stroke="#3e523e" stroke-width="0.5" stroke-linejoin="round" /><polygon points="417.28,844.41 410.15,859.78 403.23,867.47 410.36,852.10" fill="#7da37d" stroke="#3e523e" stroke-width="0.5" stroke-linejoin="round" /><polygon points="410.36,852.10 403.23,867.47 392.86,871.72 400.00,856.35" fill="#7da37d" stroke="#3e523e" stroke-width="0.5" stroke-linejoin="round" /><polygon points="400.00,856.35 392.86,871.72 380.64,871.89 387.77,856.52" fill="#7da37d" stroke="#3e523e" stroke-width="0.5" stroke-linejoin="round" /><polygon points="387.77,856.52 380.64,871.89 368.42,867.94 375.55,852.57" fill="#7da37d" stroke="#3e523e" stroke-width="0.5" stroke-linejoin="round" /><polygon points="375.55,852.57 368.42,867.94 358.06,860.48 365.19,845.12" fill="#7da37d" stroke="#3e523e" stroke-width="0.5" stroke-linejoin="round" /><polygon points="365.19,845.12 358.06,860.48 351.13,850.65 358.26,835.28" fill="#7da37d" stroke="#3e523e" stroke-width="0.5" stroke-linejoin="round" /><polygon points="358.26,835.28 351.13,850.65 348.70,839.94 355.83,824.58" fill="#7da37d" stroke="#3e523e" stroke-width="0.5" stroke-linejoin="round" /><polygon points="355.83,824.58 358.26,814.62 365.19,806.93 375.55,802.68 387.77,802.52 400.00,806.46 410.36,813.92 417.28,823.75 419.71,834.46 417.28,844.41 410.36,852.10 400.00,856.35 387.77,856.52 375.55,852.57 365.19,845.12 358.26,835.28" fill="#5e7a5e" stroke="#3e523e" stroke-width="0.5" stroke-linejoin="round" /><polygon points="481.74,531.99 399.01,710.25 399.01,764.25 481.74,585.99" fill="#5e7a5e" stroke="#3e523e" stroke-width="0.5" stroke-linejoin="round" /><polygon points="473.53,721.78 399.01,710.25 399.01,764.25 473.53,775.78" fill="#7da37d" stroke="#3e523e" stroke-width="0.5" stroke-linejoin="round" /><polygon points="556.27,543.51 473.53,721.78 399.01,710.25 481.74,531.99" fill="#9cb89c" stroke="#3e523e" stroke-width="0.5" stroke-linejoin="round" /><polygon points="532.12,528.37 525.57,542.48 525.57,560.48 532.12,546.37" fill="#5e7a5e" stroke="#3e523e" stroke-width="0.5" stroke-linejoin="round" /><polygon points="552.19,546.59 525.57,542.48 525.57,560.48 552.19,564.59" fill="#7da37d" stroke="#3e523e" stroke-width="0.5" stroke-linejoin="round" /><polygon points="558.74,532.49 552.19,546.59 525.57,542.48 532.12,528.37" fill="#9cb89c" stroke="#3e523e" stroke-width="0.5" stroke-linejoin="round" /><polygon points="534.07,523.57 529.45,533.52 529.45,540.27 534.07,530.32" fill="#5e7a5e" stroke="#3e523e" stroke-width="0.5" stroke-linejoin="round" /><polygon points="550.74,536.82 529.45,533.52 529.45,540.27 550.74,543.57" fill="#7da37d" stroke="#3e523e" stroke-width="0.5" stroke-linejoin="round" /><polygon points="555.36,526.86 550.74,536.82 529.45,533.52 534.07,523.57" fill="#9cb89c" stroke="#3e523e" stroke-width="0.5" stroke-linejoin="round" /><polygon points="473.56,519.31 467.02,533.42 467.02,551.42 473.56,537.31" fill="#5e7a5e" stroke="#3e523e" stroke-width="0.5" stroke-linejoin="round" /><polygon points="493.63,537.53 467.02,533.42 467.02,551.42 493.63,555.53" fill="#7da37d" stroke="#3e523e" stroke-width="0.5" stroke-linejoin="round" /><polygon points="500.18,523.43 493.63,537.53 467.02,533.42 473.56,519.31" fill="#9cb89c" stroke="#3e523e" stroke-width="0.5" stroke-linejoin="round" /><polygon points="475.51,514.51 470.89,524.47 470.89,531.22 475.51,521.26" fill="#5e7a5e" stroke="#3e523e" stroke-width="0.5" stroke-linejoin="round" /><polygon points="492.18,527.76 470.89,524.47 470.89,531.22 492.18,534.51" fill="#7da37d" stroke="#3e523e" stroke-width="0.5" stroke-linejoin="round" /><polygon points="496.80,517.80 492.18,527.76 470.89,524.47 475.51,514.51" fill="#9cb89c" stroke="#3e523e" stroke-width="0.5" stroke-linejoin="round" /><polygon points="524.42,544.96 517.87,559.07 517.87,577.07 524.42,562.96" fill="#5e7a5e" stroke="#3e523e" stroke-width="0.5" stroke-linejoin="round" /><polygon points="544.49,563.19 517.87,559.07 517.87,577.07 544.49,581.19" fill="#7da37d" stroke="#3e523e" stroke-width="0.5" stroke-linejoin="round" /><polygon points="551.03,549.08 544.49,563.19 517.87,559.07 524.42,544.96" fill="#9cb89c" stroke="#3e523e" stroke-width="0.5" stroke-linejoin="round" /><polygon points="526.37,540.16 521.74,550.12 521.74,556.87 526.37,546.91" fill="#5e7a5e" stroke="#3e523e" stroke-width="0.5" stroke-linejoin="round" /><polygon points="543.04,553.42 521.74,550.12 521.74,556.87 543.04,560.17" fill="#7da37d" stroke="#3e523e" stroke-width="0.5" stroke-linejoin="round" /><polygon points="547.66,543.46 543.04,553.42 521.74,550.12 526.37,540.16" fill="#9cb89c" stroke="#3e523e" stroke-width="0.5" stroke-linejoin="round" /><polygon points="465.86,535.91 459.31,550.01 459.31,568.01 465.86,553.91" fill="#5e7a5e" stroke="#3e523e" stroke-width="0.5" stroke-linejoin="round" /><polygon points="485.93,554.13 459.31,550.01 459.31,568.01 485.93,572.13" fill="#7da37d" stroke="#3e523e" stroke-width="0.5" stroke-linejoin="round" /><polygon points="492.48,540.02 485.93,554.13 459.31,550.01 465.86,535.91" fill="#9cb89c" stroke="#3e523e" stroke-width="0.5" stroke-linejoin="round" /><polygon points="467.81,531.10 463.19,541.06 463.19,547.81 467.81,537.85" fill="#5e7a5e" stroke="#3e523e" stroke-width="0.5" stroke-linejoin="round" /><polygon points="484.48,544.36 463.19,541.06 463.19,547.81 484.48,551.11" fill="#7da37d" stroke="#3e523e" stroke-width="0.5" stroke-linejoin="round" /><polygon points="489.10,534.40 484.48,544.36 463.19,541.06 467.81,531.10" fill="#9cb89c" stroke="#3e523e" stroke-width="0.5" stroke-linejoin="round" /><polygon points="516.71,561.56 510.17,575.67 510.17,593.67 516.71,579.56" fill="#5e7a5e" stroke="#3e523e" stroke-width="0.5" stroke-linejoin="round" /><polygon points="536.78,579.79 510.17,575.67 510.17,593.67 536.78,597.79" fill="#7da37d" stroke="#3e523e" stroke-width="0.5" stroke-linejoin="round" /><polygon points="543.33,565.68 536.78,579.79 510.17,575.67 516.71,561.56" fill="#9cb89c" stroke="#3e523e" stroke-width="0.5" stroke-linejoin="round" /><polygon points="518.66,556.76 514.04,566.72 514.04,573.47 518.66,563.51" fill="#5e7a5e" stroke="#3e523e" stroke-width="0.5" stroke-linejoin="round" /><polygon points="535.34,570.01 514.04,566.72 514.04,573.47 535.34,576.76" fill="#7da37d" stroke="#3e523e" stroke-width="0.5" stroke-linejoin="round" /><polygon points="539.96,560.05 535.34,570.01 514.04,566.72 518.66,556.76" fill="#9cb89c" stroke="#3e523e" stroke-width="0.5" stroke-linejoin="round" /><polygon points="458.16,552.50 451.61,566.61 451.61,584.61 458.16,570.50" fill="#5e7a5e" stroke="#3e523e" stroke-width="0.5" stroke-linejoin="round" /><polygon points="478.23,570.73 451.61,566.61 451.61,584.61 478.23,588.73" fill="#7da37d" stroke="#3e523e" stroke-width="0.5" stroke-linejoin="round" /><polygon points="484.77,556.62 478.23,570.73 451.61,566.61 458.16,552.50" fill="#9cb89c" stroke="#3e523e" stroke-width="0.5" stroke-linejoin="round" /><polygon points="460.11,547.70 455.48,557.66 455.48,564.41 460.11,554.45" fill="#5e7a5e" stroke="#3e523e" stroke-width="0.5" stroke-linejoin="round" /><polygon points="476.78,560.95 455.48,557.66 455.48,564.41 476.78,567.70" fill="#7da37d" stroke="#3e523e" stroke-width="0.5" stroke-linejoin="round" /><polygon points="481.40,551.00 476.78,560.95 455.48,557.66 460.11,547.70" fill="#9cb89c" stroke="#3e523e" stroke-width="0.5" stroke-linejoin="round" /><polygon points="509.01,578.16 502.46,592.27 502.46,610.27 509.01,596.16" fill="#5e7a5e" stroke="#3e523e" stroke-width="0.5" stroke-linejoin="round" /><polygon points="529.08,596.38 502.46,592.27 502.46,610.27 529.08,614.38" fill="#7da37d" stroke="#3e523e" stroke-width="0.5" stroke-linejoin="round" /><polygon points="535.63,582.28 529.08,596.38 502.46,592.27 509.01,578.16" fill="#9cb89c" stroke="#3e523e" stroke-width="0.5" stroke-linejoin="round" /><polygon points="510.96,573.36 506.34,583.32 506.34,590.07 510.96,580.11" fill="#5e7a5e" stroke="#3e523e" stroke-width="0.5" stroke-linejoin="round" /><polygon points="527.63,586.61 506.34,583.32 506.34,590.07 527.63,593.36" fill="#7da37d" stroke="#3e523e" stroke-width="0.5" stroke-linejoin="round" /><polygon points="532.25,576.65 527.63,586.61 506.34,583.32 510.96,573.36" fill="#9cb89c" stroke="#3e523e" stroke-width="0.5" stroke-linejoin="round" /><polygon points="450.45,569.10 443.91,583.21 443.91,601.21 450.45,587.10" fill="#5e7a5e" stroke="#3e523e" stroke-width="0.5" stroke-linejoin="round" /><polygon points="470.52,587.33 443.91,583.21 443.91,601.21 470.52,605.33" fill="#7da37d" stroke="#3e523e" stroke-width="0.5" stroke-linejoin="round" /><polygon points="477.07,573.22 470.52,587.33 443.91,583.21 450.45,569.10" fill="#9cb89c" stroke="#3e523e" stroke-width="0.5" stroke-linejoin="round" /><polygon points="452.40,564.30 447.78,574.26 447.78,581.01 452.40,571.05" fill="#5e7a5e" stroke="#3e523e" stroke-width="0.5" stroke-linejoin="round" /><polygon points="469.08,577.55 447.78,574.26 447.78,581.01 469.08,584.30" fill="#7da37d" stroke="#3e523e" stroke-width="0.5" stroke-linejoin="round" /><polygon points="473.70,567.59 469.08,577.55 447.78,574.26 452.40,564.30" fill="#9cb89c" stroke="#3e523e" stroke-width="0.5" stroke-linejoin="round" /><polygon points="501.31,594.76 494.76,608.86 494.76,626.86 501.31,612.76" fill="#5e7a5e" stroke="#3e523e" stroke-width="0.5" stroke-linejoin="round" /><polygon points="521.38,612.98 494.76,608.86 494.76,626.86 521.38,630.98" fill="#7da37d" stroke="#3e523e" stroke-width="0.5" stroke-linejoin="round" /><polygon points="527.93,598.87 521.38,612.98 494.76,608.86 501.31,594.76" fill="#9cb89c" stroke="#3e523e" stroke-width="0.5" stroke-linejoin="round" /><polygon points="503.26,589.96 498.64,599.91 498.64,606.66 503.26,596.71" fill="#5e7a5e" stroke="#3e523e" stroke-width="0.5" stroke-linejoin="round" /><polygon points="519.93,603.21 498.64,599.91 498.64,606.66 519.93,609.96" fill="#7da37d" stroke="#3e523e" stroke-width="0.5" stroke-linejoin="round" /><polygon points="524.55,593.25 519.93,603.21 498.64,599.91 503.26,589.96" fill="#9cb89c" stroke="#3e523e" stroke-width="0.5" stroke-linejoin="round" /><polygon points="442.75,585.70 436.20,599.81 436.20,617.81 442.75,603.70" fill="#5e7a5e" stroke="#3e523e" stroke-width="0.5" stroke-linejoin="round" /><polygon points="462.82,603.92 436.20,599.81 436.20,617.81 462.82,621.92" fill="#7da37d" stroke="#3e523e" stroke-width="0.5" stroke-linejoin="round" /><polygon points="469.37,589.82 462.82,603.92 436.20,599.81 442.75,585.70" fill="#9cb89c" stroke="#3e523e" stroke-width="0.5" stroke-linejoin="round" /><polygon points="444.70,580.90 440.08,590.85 440.08,597.60 444.70,587.65" fill="#5e7a5e" stroke="#3e523e" stroke-width="0.5" stroke-linejoin="round" /><polygon points="461.37,594.15 440.08,590.85 440.08,597.60 461.37,600.90" fill="#7da37d" stroke="#3e523e" stroke-width="0.5" stroke-linejoin="round" /><polygon points="465.99,584.19 461.37,594.15 440.08,590.85 444.70,580.90" fill="#9cb89c" stroke="#3e523e" stroke-width="0.5" stroke-linejoin="round" /><polygon points="493.61,611.35 487.06,625.46 487.06,643.46 493.61,629.35" fill="#5e7a5e" stroke="#3e523e" stroke-width="0.5" stroke-linejoin="round" /><polygon points="513.68,629.58 487.06,625.46 487.06,643.46 513.68,647.58" fill="#7da37d" stroke="#3e523e" stroke-width="0.5" stroke-linejoin="round" /><polygon points="520.22,615.47 513.68,629.58 487.06,625.46 493.61,611.35" fill="#9cb89c" stroke="#3e523e" stroke-width="0.5" stroke-linejoin="round" /><polygon points="495.56,606.55 490.93,616.51 490.93,623.26 495.56,613.30" fill="#5e7a5e" stroke="#3e523e" stroke-width="0.5" stroke-linejoin="round" /><polygon points="512.23,619.80 490.93,616.51 490.93,623.26 512.23,626.55" fill="#7da37d" stroke="#3e523e" stroke-width="0.5" stroke-linejoin="round" /><polygon points="516.85,609.85 512.23,619.80 490.93,616.51 495.56,606.55" fill="#9cb89c" stroke="#3e523e" stroke-width="0.5" stroke-linejoin="round" /><polygon points="435.05,602.29 428.50,616.40 428.50,634.40 435.05,620.29" fill="#5e7a5e" stroke="#3e523e" stroke-width="0.5" stroke-linejoin="round" /><polygon points="455.12,620.52 428.50,616.40 428.50,634.40 455.12,638.52" fill="#7da37d" stroke="#3e523e" stroke-width="0.5" stroke-linejoin="round" /><polygon points="461.67,606.41 455.12,620.52 428.50,616.40 435.05,602.29" fill="#9cb89c" stroke="#3e523e" stroke-width="0.5" stroke-linejoin="round" /><polygon points="437.00,597.49 432.38,607.45 432.38,614.20 437.00,604.24" fill="#5e7a5e" stroke="#3e523e" stroke-width="0.5" stroke-linejoin="round" /><polygon points="453.67,610.75 432.38,607.45 432.38,614.20 453.67,617.50" fill="#7da37d" stroke="#3e523e" stroke-width="0.5" stroke-linejoin="round" /><polygon points="458.29,600.79 453.67,610.75 432.38,607.45 437.00,597.49" fill="#9cb89c" stroke="#3e523e" stroke-width="0.5" stroke-linejoin="round" /><polygon points="485.90,627.95 479.36,642.06 479.36,660.06 485.90,645.95" fill="#5e7a5e" stroke="#3e523e" stroke-width="0.5" stroke-linejoin="round" /><polygon points="505.97,646.18 479.36,642.06 479.36,660.06 505.97,664.18" fill="#7da37d" stroke="#3e523e" stroke-width="0.5" stroke-linejoin="round" /><polygon points="512.52,632.07 505.97,646.18 479.36,642.06 485.90,627.95" fill="#9cb89c" stroke="#3e523e" stroke-width="0.5" stroke-linejoin="round" /><polygon points="487.85,623.15 483.23,633.11 483.23,639.86 487.85,629.90" fill="#5e7a5e" stroke="#3e523e" stroke-width="0.5" stroke-linejoin="round" /><polygon points="504.52,636.40 483.23,633.11 483.23,639.86 504.52,643.15" fill="#7da37d" stroke="#3e523e" stroke-width="0.5" stroke-linejoin="round" /><polygon points="509.15,626.44 504.52,636.40 483.23,633.11 487.85,623.15" fill="#9cb89c" stroke="#3e523e" stroke-width="0.5" stroke-linejoin="round" /><polygon points="427.35,618.89 420.80,633.00 420.80,651.00 427.35,636.89" fill="#5e7a5e" stroke="#3e523e" stroke-width="0.5" stroke-linejoin="round" /><polygon points="447.42,637.12 420.80,633.00 420.80,651.00 447.42,655.12" fill="#7da37d" stroke="#3e523e" stroke-width="0.5" stroke-linejoin="round" /><polygon points="453.96,623.01 447.42,637.12 420.80,633.00 427.35,618.89" fill="#9cb89c" stroke="#3e523e" stroke-width="0.5" stroke-linejoin="round" /><polygon points="429.30,614.09 424.67,624.05 424.67,630.80 429.30,620.84" fill="#5e7a5e" stroke="#3e523e" stroke-width="0.5" stroke-linejoin="round" /><polygon points="445.97,627.34 424.67,624.05 424.67,630.80 445.97,634.09" fill="#7da37d" stroke="#3e523e" stroke-width="0.5" stroke-linejoin="round" /><polygon points="450.59,617.38 445.97,627.34 424.67,624.05 429.30,614.09" fill="#9cb89c" stroke="#3e523e" stroke-width="0.5" stroke-linejoin="round" /><polygon points="478.20,644.55 471.65,658.66 471.65,676.66 478.20,662.55" fill="#5e7a5e" stroke="#3e523e" stroke-width="0.5" stroke-linejoin="round" /><polygon points="498.27,662.77 471.65,658.66 471.65,676.66 498.27,680.77" fill="#7da37d" stroke="#3e523e" stroke-width="0.5" stroke-linejoin="round" /><polygon points="504.82,648.67 498.27,662.77 471.65,658.66 478.20,644.55" fill="#9cb89c" stroke="#3e523e" stroke-width="0.5" stroke-linejoin="round" /><polygon points="480.15,639.75 475.53,649.71 475.53,656.46 480.15,646.50" fill="#5e7a5e" stroke="#3e523e" stroke-width="0.5" stroke-linejoin="round" /><polygon points="496.82,653.00 475.53,649.71 475.53,656.46 496.82,659.75" fill="#7da37d" stroke="#3e523e" stroke-width="0.5" stroke-linejoin="round" /><polygon points="501.44,643.04 496.82,653.00 475.53,649.71 480.15,639.75" fill="#9cb89c" stroke="#3e523e" stroke-width="0.5" stroke-linejoin="round" /><polygon points="419.64,635.49 413.10,649.60 413.10,667.60 419.64,653.49" fill="#5e7a5e" stroke="#3e523e" stroke-width="0.5" stroke-linejoin="round" /><polygon points="439.71,653.71 413.10,649.60 413.10,667.60 439.71,671.71" fill="#7da37d" stroke="#3e523e" stroke-width="0.5" stroke-linejoin="round" /><polygon points="446.26,639.61 439.71,653.71 413.10,649.60 419.64,635.49" fill="#9cb89c" stroke="#3e523e" stroke-width="0.5" stroke-linejoin="round" /><polygon points="421.59,630.69 416.97,640.65 416.97,647.40 421.59,637.44" fill="#5e7a5e" stroke="#3e523e" stroke-width="0.5" stroke-linejoin="round" /><polygon points="438.26,643.94 416.97,640.65 416.97,647.40 438.26,650.69" fill="#7da37d" stroke="#3e523e" stroke-width="0.5" stroke-linejoin="round" /><polygon points="442.89,633.98 438.26,643.94 416.97,640.65 421.59,630.69" fill="#9cb89c" stroke="#3e523e" stroke-width="0.5" stroke-linejoin="round" /><polygon points="470.50,661.15 463.95,675.25 463.95,693.25 470.50,679.15" fill="#5e7a5e" stroke="#3e523e" stroke-width="0.5" stroke-linejoin="round" /><polygon points="490.57,679.37 463.95,675.25 463.95,693.25 490.57,697.37" fill="#7da37d" stroke="#3e523e" stroke-width="0.5" stroke-linejoin="round" /><polygon points="497.12,665.26 490.57,679.37 463.95,675.25 470.50,661.15" fill="#9cb89c" stroke="#3e523e" stroke-width="0.5" stroke-linejoin="round" /><polygon points="472.45,656.34 467.83,666.30 467.83,673.05 472.45,663.09" fill="#5e7a5e" stroke="#3e523e" stroke-width="0.5" stroke-linejoin="round" /><polygon points="489.12,669.60 467.83,666.30 467.83,673.05 489.12,676.35" fill="#7da37d" stroke="#3e523e" stroke-width="0.5" stroke-linejoin="round" /><polygon points="493.74,659.64 489.12,669.60 467.83,666.30 472.45,656.34" fill="#9cb89c" stroke="#3e523e" stroke-width="0.5" stroke-linejoin="round" /><polygon points="411.94,652.09 405.39,666.19 405.39,684.19 411.94,670.09" fill="#5e7a5e" stroke="#3e523e" stroke-width="0.5" stroke-linejoin="round" /><polygon points="432.01,670.31 405.39,666.19 405.39,684.19 432.01,688.31" fill="#7da37d" stroke="#3e523e" stroke-width="0.5" stroke-linejoin="round" /><polygon points="438.56,656.20 432.01,670.31 405.39,666.19 411.94,652.09" fill="#9cb89c" stroke="#3e523e" stroke-width="0.5" stroke-linejoin="round" /><polygon points="413.89,647.28 409.27,657.24 409.27,663.99 413.89,654.03" fill="#5e7a5e" stroke="#3e523e" stroke-width="0.5" stroke-linejoin="round" /><polygon points="430.56,660.54 409.27,657.24 409.27,663.99 430.56,667.29" fill="#7da37d" stroke="#3e523e" stroke-width="0.5" stroke-linejoin="round" /><polygon points="435.18,650.58 430.56,660.54 409.27,657.24 413.89,647.28" fill="#9cb89c" stroke="#3e523e" stroke-width="0.5" stroke-linejoin="round" /><polygon points="462.80,677.74 456.25,691.85 456.25,709.85 462.80,695.74" fill="#5e7a5e" stroke="#3e523e" stroke-width="0.5" stroke-linejoin="round" /><polygon points="482.87,695.97 456.25,691.85 456.25,709.85 482.87,713.97" fill="#7da37d" stroke="#3e523e" stroke-width="0.5" stroke-linejoin="round" /><polygon points="489.41,681.86 482.87,695.97 456.25,691.85 462.80,677.74" fill="#9cb89c" stroke="#3e523e" stroke-width="0.5" stroke-linejoin="round" /><polygon points="464.75,672.94 460.12,682.90 460.12,689.65 464.75,679.69" fill="#5e7a5e" stroke="#3e523e" stroke-width="0.5" stroke-linejoin="round" /><polygon points="481.42,686.19 460.12,682.90 460.12,689.65 481.42,692.94" fill="#7da37d" stroke="#3e523e" stroke-width="0.5" stroke-linejoin="round" /><polygon points="486.04,676.24 481.42,686.19 460.12,682.90 464.75,672.94" fill="#9cb89c" stroke="#3e523e" stroke-width="0.5" stroke-linejoin="round" /><polygon points="404.24,668.68 397.69,682.79 397.69,700.79 404.24,686.68" fill="#5e7a5e" stroke="#3e523e" stroke-width="0.5" stroke-linejoin="round" /><polygon points="424.31,686.91 397.69,682.79 397.69,700.79 424.31,704.91" fill="#7da37d" stroke="#3e523e" stroke-width="0.5" stroke-linejoin="round" /><polygon points="430.86,672.80 424.31,686.91 397.69,682.79 404.24,668.68" fill="#9cb89c" stroke="#3e523e" stroke-width="0.5" stroke-linejoin="round" /><polygon points="406.19,663.88 401.57,673.84 401.57,680.59 406.19,670.63" fill="#5e7a5e" stroke="#3e523e" stroke-width="0.5" stroke-linejoin="round" /><polygon points="422.86,677.13 401.57,673.84 401.57,680.59 422.86,683.88" fill="#7da37d" stroke="#3e523e" stroke-width="0.5" stroke-linejoin="round" /><polygon points="427.48,667.18 422.86,677.13 401.57,673.84 406.19,663.88" fill="#9cb89c" stroke="#3e523e" stroke-width="0.5" stroke-linejoin="round" /><polygon points="444.26,685.75 445.27,681.60 448.15,678.40 452.47,676.63 457.56,676.56 462.66,678.20 466.98,681.31 469.86,685.41 470.87,689.87 469.86,694.02 466.98,697.22 462.66,698.99 457.56,699.06 452.47,697.42 448.15,694.31 445.27,690.21" fill="#5e7a5e" stroke="#3e523e" stroke-width="0.5" stroke-linejoin="round" /><polygon points="526.99,507.49 444.26,685.75 445.27,681.60 528.00,503.34" fill="#8bad8b" stroke="#3e523e" stroke-width="0.5" stroke-linejoin="round" /><polygon points="528.00,503.34 445.27,681.60 448.15,678.40 530.89,500.13" fill="#8bad8b" stroke="#3e523e" stroke-width="0.5" stroke-linejoin="round" /><polygon points="530.89,500.13 448.15,678.40 452.47,676.63 535.20,498.36" fill="#8bad8b" stroke="#3e523e" stroke-width="0.5" stroke-linejoin="round" /><polygon points="535.20,498.36 452.47,676.63 457.56,676.56 540.30,498.29" fill="#8bad8b" stroke="#3e523e" stroke-width="0.5" stroke-linejoin="round" /><polygon points="540.30,498.29 457.56,676.56 462.66,678.20 545.39,499.94" fill="#8bad8b" stroke="#3e523e" stroke-width="0.5" stroke-linejoin="round" /><polygon points="545.39,499.94 462.66,678.20 466.98,681.31 549.71,503.05" fill="#8bad8b" stroke="#3e523e" stroke-width="0.5" stroke-linejoin="round" /><polygon points="549.71,503.05 466.98,681.31 469.86,685.41 552.59,507.14" fill="#8bad8b" stroke="#3e523e" stroke-width="0.5" stroke-linejoin="round" /><polygon points="552.59,507.14 469.86,685.41 470.87,689.87 553.60,511.60" fill="#8bad8b" stroke="#3e523e" stroke-width="0.5" stroke-linejoin="round" /><polygon points="553.60,511.60 470.87,689.87 469.86,694.02 552.59,515.75" fill="#8bad8b" stroke="#3e523e" stroke-width="0.5" stroke-linejoin="round" /><polygon points="552.59,515.75 469.86,694.02 466.98,697.22 549.71,518.96" fill="#8bad8b" stroke="#3e523e" stroke-width="0.5" stroke-linejoin="round" /><polygon points="549.71,518.96 466.98,697.22 462.66,698.99 545.39,520.73" fill="#8bad8b" stroke="#3e523e" stroke-width="0.5" stroke-linejoin="round" /><polygon points="545.39,520.73 462.66,698.99 457.56,699.06 540.30,520.79" fill="#8bad8b" stroke="#3e523e" stroke-width="0.5" stroke-linejoin="round" /><polygon points="540.30,520.79 457.56,699.06 452.47,697.42 535.20,519.15" fill="#8bad8b" stroke="#3e523e" stroke-width="0.5" stroke-linejoin="round" /><polygon points="535.20,519.15 452.47,697.42 448.15,694.31 530.89,516.04" fill="#8bad8b" stroke="#3e523e" stroke-width="0.5" stroke-linejoin="round" /><polygon points="530.89,516.04 448.15,694.31 445.27,690.21 528.00,511.95" fill="#8bad8b" stroke="#3e523e" stroke-width="0.5" stroke-linejoin="round" /><polygon points="528.00,511.95 445.27,690.21 444.26,685.75 526.99,507.49" fill="#8bad8b" stroke="#3e523e" stroke-width="0.5" stroke-linejoin="round" /><polygon points="526.99,507.49 528.00,503.34 530.89,500.13 535.20,498.36 540.30,498.29 545.39,499.94 549.71,503.05 552.59,507.14 553.60,511.60 552.59,515.75 549.71,518.96 545.39,520.73 540.30,520.79 535.20,519.15 530.89,516.04 528.00,511.95" fill="#5e7a5e" stroke="#3e523e" stroke-width="0.5" stroke-linejoin="round" /><polygon points="401.67,679.16 402.68,675.01 405.57,671.81 409.88,670.04 414.98,669.97 420.07,671.62 424.39,674.72 427.27,678.82 428.29,683.28 427.27,687.43 424.39,690.63 420.07,692.40 414.98,692.47 409.88,690.83 405.57,687.72 402.68,683.63" fill="#5e7a5e" stroke="#3e523e" stroke-width="0.5" stroke-linejoin="round" /><polygon points="484.40,500.90 401.67,679.16 402.68,675.01 485.41,496.75" fill="#8bad8b" stroke="#3e523e" stroke-width="0.5" stroke-linejoin="round" /><polygon points="485.41,496.75 402.68,675.01 405.57,671.81 488.30,493.54" fill="#8bad8b" stroke="#3e523e" stroke-width="0.5" stroke-linejoin="round" /><polygon points="488.30,493.54 405.57,671.81 409.88,670.04 492.62,491.77" fill="#8bad8b" stroke="#3e523e" stroke-width="0.5" stroke-linejoin="round" /><polygon points="492.62,491.77 409.88,670.04 414.98,669.97 497.71,491.71" fill="#8bad8b" stroke="#3e523e" stroke-width="0.5" stroke-linejoin="round" /><polygon points="497.71,491.71 414.98,669.97 420.07,671.62 502.80,493.35" fill="#8bad8b" stroke="#3e523e" stroke-width="0.5" stroke-linejoin="round" /><polygon points="502.80,493.35 420.07,671.62 424.39,674.72 507.12,496.46" fill="#8bad8b" stroke="#3e523e" stroke-width="0.5" stroke-linejoin="round" /><polygon points="507.12,496.46 424.39,674.72 427.27,678.82 510.00,500.55" fill="#8bad8b" stroke="#3e523e" stroke-width="0.5" stroke-linejoin="round" /><polygon points="510.00,500.55 427.27,678.82 428.29,683.28 511.02,505.01" fill="#8bad8b" stroke="#3e523e" stroke-width="0.5" stroke-linejoin="round" /><polygon points="511.02,505.01 428.29,683.28 427.27,687.43 510.00,509.16" fill="#8bad8b" stroke="#3e523e" stroke-width="0.5" stroke-linejoin="round" /><polygon points="510.00,509.16 427.27,687.43 424.39,690.63 507.12,512.37" fill="#8bad8b" stroke="#3e523e" stroke-width="0.5" stroke-linejoin="round" /><polygon points="507.12,512.37 424.39,690.63 420.07,692.40 502.80,514.14" fill="#8bad8b" stroke="#3e523e" stroke-width="0.5" stroke-linejoin="round" /><polygon points="502.80,514.14 420.07,692.40 414.98,692.47 497.71,514.21" fill="#8bad8b" stroke="#3e523e" stroke-width="0.5" stroke-linejoin="round" /><polygon points="497.71,514.21 414.98,692.47 409.88,690.83 492.62,512.56" fill="#8bad8b" stroke="#3e523e" stroke-width="0.5" stroke-linejoin="round" /><polygon points="492.62,512.56 409.88,690.83 405.57,687.72 488.30,509.45" fill="#8bad8b" stroke="#3e523e" stroke-width="0.5" stroke-linejoin="round" /><polygon points="488.30,509.45 405.57,687.72 402.68,683.63 485.41,505.36" fill="#8bad8b" stroke="#3e523e" stroke-width="0.5" stroke-linejoin="round" /><polygon points="485.41,505.36 402.68,683.63 401.67,679.16 484.40,500.90" fill="#8bad8b" stroke="#3e523e" stroke-width="0.5" stroke-linejoin="round" /><polygon points="484.40,500.90 485.41,496.75 488.30,493.54 492.62,491.77 497.71,491.71 502.80,493.35 507.12,496.46 510.00,500.55 511.02,505.01 510.00,509.16 507.12,512.37 502.80,514.14 497.71,514.21 492.62,512.56 488.30,509.45 485.41,505.36" fill="#5e7a5e" stroke="#3e523e" stroke-width="0.5" stroke-linejoin="round" /><polygon points="453.86,654.85 455.28,649.05 459.32,644.56 465.36,642.08 472.49,641.99 479.62,644.29 485.67,648.64 489.70,654.37 491.12,660.62 489.70,666.43 485.67,670.91 479.62,673.39 472.49,673.49 465.36,671.19 459.32,666.84 455.28,661.10" fill="#5e7a5e" stroke="#3e523e" stroke-width="0.5" stroke-linejoin="round" /><polygon points="489.52,578.02 453.86,654.85 455.28,649.05 490.94,572.21" fill="#7da37d" stroke="#3e523e" stroke-width="0.5" stroke-linejoin="round" /><polygon points="490.94,572.21 455.28,649.05 459.32,644.56 494.98,567.72" fill="#7da37d" stroke="#3e523e" stroke-width="0.5" stroke-linejoin="round" /><polygon points="494.98,567.72 459.32,644.56 465.36,642.08 501.02,565.24" fill="#7da37d" stroke="#3e523e" stroke-width="0.5" stroke-linejoin="round" /><polygon points="501.02,565.24 465.36,642.08 472.49,641.99 508.15,565.15" fill="#7da37d" stroke="#3e523e" stroke-width="0.5" stroke-linejoin="round" /><polygon points="508.15,565.15 472.49,641.99 479.62,644.29 515.28,567.45" fill="#7da37d" stroke="#3e523e" stroke-width="0.5" stroke-linejoin="round" /><polygon points="515.28,567.45 479.62,644.29 485.67,648.64 521.33,571.80" fill="#7da37d" stroke="#3e523e" stroke-width="0.5" stroke-linejoin="round" /><polygon points="521.33,571.80 485.67,648.64 489.70,654.37 525.36,577.53" fill="#7da37d" stroke="#3e523e" stroke-width="0.5" stroke-linejoin="round" /><polygon points="525.36,577.53 489.70,654.37 491.12,660.62 526.78,583.78" fill="#7da37d" stroke="#3e523e" stroke-width="0.5" stroke-linejoin="round" /><polygon points="526.78,583.78 491.12,660.62 489.70,666.43 525.36,589.59" fill="#7da37d" stroke="#3e523e" stroke-width="0.5" stroke-linejoin="round" /><polygon points="525.36,589.59 489.70,666.43 485.67,670.91 521.33,594.07" fill="#7da37d" stroke="#3e523e" stroke-width="0.5" stroke-linejoin="round" /><polygon points="521.33,594.07 485.67,670.91 479.62,673.39 515.28,596.55" fill="#7da37d" stroke="#3e523e" stroke-width="0.5" stroke-linejoin="round" /><polygon points="515.28,596.55 479.62,673.39 472.49,673.49 508.15,596.65" fill="#7da37d" stroke="#3e523e" stroke-width="0.5" stroke-linejoin="round" /><polygon points="508.15,596.65 472.49,673.49 465.36,671.19 501.02,594.35" fill="#7da37d" stroke="#3e523e" stroke-width="0.5" stroke-linejoin="round" /><polygon points="501.02,594.35 465.36,671.19 459.32,666.84 494.98,590.00" fill="#7da37d" stroke="#3e523e" stroke-width="0.5" stroke-linejoin="round" /><polygon points="494.98,590.00 459.32,666.84 455.28,661.10 490.94,584.26" fill="#7da37d" stroke="#3e523e" stroke-width="0.5" stroke-linejoin="round" /><polygon points="490.94,584.26 455.28,661.10 453.86,654.85 489.52,578.02" fill="#7da37d" stroke="#3e523e" stroke-width="0.5" stroke-linejoin="round" /><polygon points="489.52,578.02 490.94,572.21 494.98,567.72 501.02,565.24 508.15,565.15 515.28,567.45 521.33,571.80 525.36,577.53 526.78,583.78 525.36,589.59 521.33,594.07 515.28,596.55 508.15,596.65 501.02,594.35 494.98,590.00 490.94,584.26" fill="#5e7a5e" stroke="#3e523e" stroke-width="0.5" stroke-linejoin="round" /><polygon points="389.98,644.97 391.40,639.16 395.44,634.68 401.48,632.20 408.61,632.10 415.74,634.41 421.78,638.76 425.82,644.49 427.24,650.74 425.82,656.54 421.78,661.03 415.74,663.51 408.61,663.60 401.48,661.30 395.44,656.95 391.40,651.22" fill="#5e7a5e" stroke="#3e523e" stroke-width="0.5" stroke-linejoin="round" /><polygon points="425.64,568.13 389.98,644.97 391.40,639.16 427.06,562.33" fill="#7da37d" stroke="#3e523e" stroke-width="0.5" stroke-linejoin="round" /><polygon points="427.06,562.33 391.40,639.16 395.44,634.68 431.10,557.84" fill="#7da37d" stroke="#3e523e" stroke-width="0.5" stroke-linejoin="round" /><polygon points="431.10,557.84 395.44,634.68 401.48,632.20 437.14,555.36" fill="#7da37d" stroke="#3e523e" stroke-width="0.5" stroke-linejoin="round" /><polygon points="437.14,555.36 401.48,632.20 408.61,632.10 444.27,555.27" fill="#7da37d" stroke="#3e523e" stroke-width="0.5" stroke-linejoin="round" /><polygon points="444.27,555.27 408.61,632.10 415.74,634.41 451.40,557.57" fill="#7da37d" stroke="#3e523e" stroke-width="0.5" stroke-linejoin="round" /><polygon points="451.40,557.57 415.74,634.41 421.78,638.76 457.44,561.92" fill="#7da37d" stroke="#3e523e" stroke-width="0.5" stroke-linejoin="round" /><polygon points="457.44,561.92 421.78,638.76 425.82,644.49 461.48,567.65" fill="#7da37d" stroke="#3e523e" stroke-width="0.5" stroke-linejoin="round" /><polygon points="461.48,567.65 425.82,644.49 427.24,650.74 462.90,573.90" fill="#7da37d" stroke="#3e523e" stroke-width="0.5" stroke-linejoin="round" /><polygon points="462.90,573.90 427.24,650.74 425.82,656.54 461.48,579.71" fill="#7da37d" stroke="#3e523e" stroke-width="0.5" stroke-linejoin="round" /><polygon points="461.48,579.71 425.82,656.54 421.78,661.03 457.44,584.19" fill="#7da37d" stroke="#3e523e" stroke-width="0.5" stroke-linejoin="round" /><polygon points="457.44,584.19 421.78,661.03 415.74,663.51 451.40,586.67" fill="#7da37d" stroke="#3e523e" stroke-width="0.5" stroke-linejoin="round" /><polygon points="451.40,586.67 415.74,663.51 408.61,663.60 444.27,586.77" fill="#7da37d" stroke="#3e523e" stroke-width="0.5" stroke-linejoin="round" /><polygon points="444.27,586.77 408.61,663.60 401.48,661.30 437.14,584.46" fill="#7da37d" stroke="#3e523e" stroke-width="0.5" stroke-linejoin="round" /><polygon points="437.14,584.46 401.48,661.30 395.44,656.95 431.10,580.11" fill="#7da37d" stroke="#3e523e" stroke-width="0.5" stroke-linejoin="round" /><polygon points="431.10,580.11 395.44,656.95 391.40,651.22 427.06,574.38" fill="#7da37d" stroke="#3e523e" stroke-width="0.5" stroke-linejoin="round" /><polygon points="427.06,574.38 391.40,651.22 389.98,644.97 425.64,568.13" fill="#7da37d" stroke="#3e523e" stroke-width="0.5" stroke-linejoin="round" /><polygon points="425.64,568.13 427.06,562.33 431.10,557.84 437.14,555.36 444.27,555.27 451.40,557.57 457.44,561.92 461.48,567.65 462.90,573.90 461.48,579.71 457.44,584.19 451.40,586.67 444.27,586.77 437.14,584.46 431.10,580.11 427.06,574.38" fill="#5e7a5e" stroke="#3e523e" stroke-width="0.5" stroke-linejoin="round" /><polygon points="393.68,664.43 382.27,689.02 382.27,743.02 393.68,718.43" fill="#666666" stroke="#3e523e" stroke-width="0.5" stroke-linejoin="round" /><polygon points="467.45,702.19 382.27,689.02 382.27,743.02 467.45,756.19" fill="#888888" stroke="#3e523e" stroke-width="0.5" stroke-linejoin="round" /><polygon points="478.86,677.60 467.45,702.19 382.27,689.02 393.68,664.43" fill="#aaaaaa" stroke="#3e523e" stroke-width="0.5" stroke-linejoin="round" /><polygon points="455.76,654.50 449.97,652.85 445.72,650.05 443.64,646.53 444.07,642.81 446.92,639.47 451.77,637.01 457.88,635.82 464.31,636.06 470.10,637.71 474.35,640.51 476.43,644.04 476.01,647.75 473.15,651.09 468.30,653.55 462.19,654.75" fill="#5e7a5e" stroke="#3e523e" stroke-width="0.5" stroke-linejoin="round" /><polygon points="455.76,690.50 455.76,654.50 449.97,652.85 449.97,688.85" fill="#888888" stroke="#3e523e" stroke-width="0.5" stroke-linejoin="round" /><polygon points="449.97,688.85 449.97,652.85 445.72,650.05 445.72,686.05" fill="#888888" stroke="#3e523e" stroke-width="0.5" stroke-linejoin="round" /><polygon points="445.72,686.05 445.72,650.05 443.64,646.53 443.64,682.53" fill="#888888" stroke="#3e523e" stroke-width="0.5" stroke-linejoin="round" /><polygon points="443.64,682.53 443.64,646.53 444.07,642.81 444.07,678.81" fill="#888888" stroke="#3e523e" stroke-width="0.5" stroke-linejoin="round" /><polygon points="444.07,678.81 444.07,642.81 446.92,639.47 446.92,675.47" fill="#888888" stroke="#3e523e" stroke-width="0.5" stroke-linejoin="round" /><polygon points="446.92,675.47 446.92,639.47 451.77,637.01 451.77,673.01" fill="#888888" stroke="#3e523e" stroke-width="0.5" stroke-linejoin="round" /><polygon points="451.77,673.01 451.77,637.01 457.88,635.82 457.88,671.82" fill="#888888" stroke="#3e523e" stroke-width="0.5" stroke-linejoin="round" /><polygon points="457.88,671.82 457.88,635.82 464.31,636.06 464.31,672.06" fill="#888888" stroke="#3e523e" stroke-width="0.5" stroke-linejoin="round" /><polygon points="464.31,672.06 464.31,636.06 470.10,637.71 470.10,673.71" fill="#888888" stroke="#3e523e" stroke-width="0.5" stroke-linejoin="round" /><polygon points="470.10,673.71 470.10,637.71 474.35,640.51 474.35,676.51" fill="#888888" stroke="#3e523e" stroke-width="0.5" stroke-linejoin="round" /><polygon points="474.35,676.51 474.35,640.51 476.43,644.04 476.43,680.04" fill="#888888" stroke="#3e523e" stroke-width="0.5" stroke-linejoin="round" /><polygon points="476.43,680.04 476.43,644.04 476.01,647.75 476.01,683.75" fill="#888888" stroke="#3e523e" stroke-width="0.5" stroke-linejoin="round" /><polygon points="476.01,683.75 476.01,647.75 473.15,651.09 473.15,687.09" fill="#888888" stroke="#3e523e" stroke-width="0.5" stroke-linejoin="round" /><polygon points="473.15,687.09 473.15,651.09 468.30,653.55 468.30,689.55" fill="#888888" stroke="#3e523e" stroke-width="0.5" stroke-linejoin="round" /><polygon points="468.30,689.55 468.30,653.55 462.19,654.75 462.19,690.75" fill="#888888" stroke="#3e523e" stroke-width="0.5" stroke-linejoin="round" /><polygon points="462.19,690.75 462.19,654.75 455.76,654.50 455.76,690.50" fill="#888888" stroke="#3e523e" stroke-width="0.5" stroke-linejoin="round" /><polygon points="455.76,690.50 449.97,688.85 445.72,686.05 443.64,682.53 444.07,678.81 446.92,675.47 451.77,673.01 457.88,671.82 464.31,672.06 470.10,673.71 474.35,676.51 476.43,680.04 476.01,683.75 473.15,687.09 468.30,689.55 462.19,690.75" fill="#5e7a5e" stroke="#3e523e" stroke-width="0.5" stroke-linejoin="round" /><polygon points="402.52,646.27 396.74,644.62 392.48,641.82 390.41,638.29 390.83,634.57 393.68,631.23 398.53,628.78 404.64,627.58 411.08,627.82 416.87,629.47 421.12,632.27 423.19,635.80 422.77,639.52 419.92,642.86 415.07,645.31 408.96,646.51" fill="#5e7a5e" stroke="#3e523e" stroke-width="0.5" stroke-linejoin="round" /><polygon points="402.52,682.27 402.52,646.27 396.74,644.62 396.74,680.62" fill="#888888" stroke="#3e523e" stroke-width="0.5" stroke-linejoin="round" /><polygon points="396.74,680.62 396.74,644.62 392.48,641.82 392.48,677.82" fill="#888888" stroke="#3e523e" stroke-width="0.5" stroke-linejoin="round" /><polygon points="392.48,677.82 392.48,641.82 390.41,638.29 390.41,674.29" fill="#888888" stroke="#3e523e" stroke-width="0.5" stroke-linejoin="round" /><polygon points="390.41,674.29 390.41,638.29 390.83,634.57 390.83,670.57" fill="#888888" stroke="#3e523e" stroke-width="0.5" stroke-linejoin="round" /><polygon points="390.83,670.57 390.83,634.57 393.68,631.23 393.68,667.23" fill="#888888" stroke="#3e523e" stroke-width="0.5" stroke-linejoin="round" /><polygon points="393.68,667.23 393.68,631.23 398.53,628.78 398.53,664.78" fill="#888888" stroke="#3e523e" stroke-width="0.5" stroke-linejoin="round" /><polygon points="398.53,664.78 398.53,628.78 404.64,627.58 404.64,663.58" fill="#888888" stroke="#3e523e" stroke-width="0.5" stroke-linejoin="round" /><polygon points="404.64,663.58 404.64,627.58 411.08,627.82 411.08,663.82" fill="#888888" stroke="#3e523e" stroke-width="0.5" stroke-linejoin="round" /><polygon points="411.08,663.82 411.08,627.82 416.87,629.47 416.87,665.47" fill="#888888" stroke="#3e523e" stroke-width="0.5" stroke-linejoin="round" /><polygon points="416.87,665.47 416.87,629.47 421.12,632.27 421.12,668.27" fill="#888888" stroke="#3e523e" stroke-width="0.5" stroke-linejoin="round" /><polygon points="421.12,668.27 421.12,632.27 423.19,635.80 423.19,671.80" fill="#888888" stroke="#3e523e" stroke-width="0.5" stroke-linejoin="round" /><polygon points="423.19,671.80 423.19,635.80 422.77,639.52 422.77,675.52" fill="#888888" stroke="#3e523e" stroke-width="0.5" stroke-linejoin="round" /><polygon points="422.77,675.52 422.77,639.52 419.92,642.86 419.92,678.86" fill="#888888" stroke="#3e523e" stroke-width="0.5" stroke-linejoin="round" /><polygon points="419.92,678.86 419.92,642.86 415.07,645.31 415.07,681.31" fill="#888888" stroke="#3e523e" stroke-width="0.5" stroke-linejoin="round" /><polygon points="415.07,681.31 415.07,645.31 408.96,646.51 408.96,682.51" fill="#888888" stroke="#3e523e" stroke-width="0.5" stroke-linejoin="round" /><polygon points="408.96,682.51 408.96,646.51 402.52,646.27 402.52,682.27" fill="#888888" stroke="#3e523e" stroke-width="0.5" stroke-linejoin="round" /><polygon points="402.52,682.27 396.74,680.62 392.48,677.82 390.41,674.29 390.83,670.57 393.68,667.23 398.53,664.78 404.64,663.58 411.08,663.82 416.87,665.47 421.12,668.27 423.19,671.80 422.77,675.52 419.92,678.86 415.07,681.31 408.96,682.51" fill="#5e7a5e" stroke="#3e523e" stroke-width="0.5" stroke-linejoin="round" /><polygon points="479.37,412.62 462.25,449.50 462.25,566.50 479.37,529.62" fill="#5e7a5e" stroke="#3e523e" stroke-width="0.5" stroke-linejoin="round" /><polygon points="590.02,469.26 462.25,449.50 462.25,566.50 590.02,586.26" fill="#7da37d" stroke="#3e523e" stroke-width="0.5" stroke-linejoin="round" /><polygon points="607.13,432.38 590.02,469.26 462.25,449.50 479.37,412.62" fill="#9cb89c" stroke="#3e523e" stroke-width="0.5" stroke-linejoin="round" /><ellipse cx="543.25" cy="481.00" rx="25.00" ry="35.00" fill="#2a352a" stroke="none" /><polygon points="492.74,727.04 493.35,724.55 495.08,722.63 497.67,721.57 500.73,721.53 503.78,722.51 506.37,724.38 508.11,726.83 508.71,729.51 508.11,732.00 506.37,733.92 503.78,734.98 500.73,735.03 497.67,734.04 495.08,732.17 493.35,729.72" fill="#5e7a5e" stroke="#3e523e" stroke-width="0.5" stroke-linejoin="round" /><polygon points="558.93,584.43 492.74,727.04 493.35,724.55 559.54,581.94" fill="#8bad8b" stroke="#3e523e" stroke-width="0.5" stroke-linejoin="round" /><polygon points="559.54,581.94 493.35,724.55 495.08,722.63 561.27,580.02" fill="#8bad8b" stroke="#3e523e" stroke-width="0.5" stroke-linejoin="round" /><polygon points="561.27,580.02 495.08,722.63 497.67,721.57 563.86,578.95" fill="#8bad8b" stroke="#3e523e" stroke-width="0.5" stroke-linejoin="round" /><polygon points="563.86,578.95 497.67,721.57 500.73,721.53 566.91,578.91" fill="#8bad8b" stroke="#3e523e" stroke-width="0.5" stroke-linejoin="round" /><polygon points="566.91,578.91 500.73,721.53 503.78,722.51 569.97,579.90" fill="#8bad8b" stroke="#3e523e" stroke-width="0.5" stroke-linejoin="round" /><polygon points="569.97,579.90 503.78,722.51 506.37,724.38 572.56,581.76" fill="#8bad8b" stroke="#3e523e" stroke-width="0.5" stroke-linejoin="round" /><polygon points="572.56,581.76 506.37,724.38 508.11,726.83 574.29,584.22" fill="#8bad8b" stroke="#3e523e" stroke-width="0.5" stroke-linejoin="round" /><polygon points="574.29,584.22 508.11,726.83 508.71,729.51 574.90,586.90" fill="#8bad8b" stroke="#3e523e" stroke-width="0.5" stroke-linejoin="round" /><polygon points="574.90,586.90 508.71,729.51 508.11,732.00 574.29,589.39" fill="#8bad8b" stroke="#3e523e" stroke-width="0.5" stroke-linejoin="round" /><polygon points="574.29,589.39 508.11,732.00 506.37,733.92 572.56,591.31" fill="#8bad8b" stroke="#3e523e" stroke-width="0.5" stroke-linejoin="round" /><polygon points="572.56,591.31 506.37,733.92 503.78,734.98 569.97,592.37" fill="#8bad8b" stroke="#3e523e" stroke-width="0.5" stroke-linejoin="round" /><polygon points="569.97,592.37 503.78,734.98 500.73,735.03 566.91,592.41" fill="#8bad8b" stroke="#3e523e" stroke-width="0.5" stroke-linejoin="round" /><polygon points="566.91,592.41 500.73,735.03 497.67,734.04 563.86,591.43" fill="#8bad8b" stroke="#3e523e" stroke-width="0.5" stroke-linejoin="round" /><polygon points="563.86,591.43 497.67,734.04 495.08,732.17 561.27,589.56" fill="#8bad8b" stroke="#3e523e" stroke-width="0.5" stroke-linejoin="round" /><polygon points="561.27,589.56 495.08,732.17 493.35,729.72 559.54,587.10" fill="#8bad8b" stroke="#3e523e" stroke-width="0.5" stroke-linejoin="round" /><polygon points="559.54,587.10 493.35,729.72 492.74,727.04 558.93,584.43" fill="#8bad8b" stroke="#3e523e" stroke-width="0.5" stroke-linejoin="round" /><polygon points="558.93,584.43 559.54,581.94 561.27,580.02 563.86,578.95 566.91,578.91 569.97,579.90 572.56,581.76 574.29,584.22 574.90,586.90 574.29,589.39 572.56,591.31 569.97,592.37 566.91,592.41 563.86,591.43 561.27,589.56 559.54,587.10" fill="#5e7a5e" stroke="#3e523e" stroke-width="0.5" stroke-linejoin="round" /><polygon points="556.65,561.90 550.94,574.19 550.94,592.19 556.65,579.90" fill="#5e7a5e" stroke="#3e523e" stroke-width="0.5" stroke-linejoin="round" /><polygon points="572.24,577.49 550.94,574.19 550.94,592.19 572.24,595.49" fill="#7da37d" stroke="#3e523e" stroke-width="0.5" stroke-linejoin="round" /><polygon points="577.94,565.19 572.24,577.49 550.94,574.19 556.65,561.90" fill="#9cb89c" stroke="#3e523e" stroke-width="0.5" stroke-linejoin="round" />
    </svg>