<svg xmlns="http://www.w3.org/2000/svg" width="1200" height="800" viewBox="0 0 1200 800" style="background-color:#1e1e1e">
    <rect width="1200" height="800" fill="#1e1e1e" /><polygon points="588.31,384.25 978.01,609.25 978.01,631.75 588.31,406.75" fill="green" stroke="#1b6e1b" stroke-width="0.5" stroke-linejoin="round" /><polygon points="588.31,384.25 978.01,609.25 978.01,631.75 588.31,406.75" fill="green" stroke="#1b6e1b" stroke-width="0.5" stroke-linejoin="round" /><polygon points="989.70,602.50 978.01,609.25 978.01,631.75 989.70,625.00" fill="green" stroke="#1b6e1b" stroke-width="0.5" stroke-linejoin="round" /><polygon points="600.00,377.50 989.70,602.50 978.01,609.25 588.31,384.25" fill="green" stroke="#1b6e1b" stroke-width="0.5" stroke-linejoin="round" /><polygon points="502.57,433.75 892.27,658.75 892.27,681.25 502.57,456.25" fill="green" stroke="#1b6e1b" stroke-width="0.5" stroke-linejoin="round" /><polygon points="502.57,433.75 892.27,658.75 892.27,681.25 502.57,456.25" fill="green" stroke="#1b6e1b" stroke-width="0.5" stroke-linejoin="round" /><polygon points="903.97,652.00 892.27,658.75 892.27,681.25 903.97,674.50" fill="green" stroke="#1b6e1b" stroke-width="0.5" stroke-linejoin="round" /><polygon points="514.27,427.00 903.97,652.00 892.27,658.75 502.57,433.75" fill="green" stroke="#1b6e1b" stroke-width="0.5" stroke-linejoin="round" /><polygon points="553.24,458.50 572.72,469.75 572.72,478.75 553.24,467.50" fill="green" stroke="#1b6e1b" stroke-width="0.5" stroke-linejoin="round" /><polygon points="553.24,458.50 572.72,469.75 572.72,478.75 553.24,467.50" fill="green" stroke="#1b6e1b" stroke-width="0.5" stroke-linejoin="round" /><polygon points="646.76,427.00 572.72,469.75 572.72,478.75 646.76,436.00" fill="green" stroke="#1b6e1b" stroke-width="0.5" stroke-linejoin="round" /><polygon points="627.28,415.75 646.76,427.00 572.72,469.75 553.24,458.50" fill="green" stroke="#1b6e1b" stroke-width="0.5" stroke-linejoin="round" /><polygon points="826.03,616.00 845.51,627.25 845.51,636.25 826.03,625.00" fill="green" stroke="#1b6e1b" stroke-width="0.5" stroke-linejoin="round" /><polygon points="826.03,616.00 845.51,627.25 845.51,636.25 826.03,625.00" fill="green" stroke="#1b6e1b" stroke-width="0.5" stroke-linejoin="round" /><polygon points="919.55,584.50 845.51,627.25 845.51,636.25 919.55,593.50" fill="green" stroke="#1b6e1b" stroke-width="0.5" stroke-linejoin="round" /><polygon points="900.07,573.25 919.55,584.50 845.51,627.25 826.03,616.00" fill="green" stroke="#1b6e1b" stroke-width="0.5" stroke-linejoin="round" /><ellipse cx="658.84" cy="422.27" rx="8.00" ry="5.00" fill="#1a4d1a" stroke="none" /><ellipse cx="756.27" cy="478.52" rx="8.00" ry="5.00" fill="#1a4d1a" stroke="none" /><ellipse cx="853.69" cy="534.77" rx="8.00" ry="5.00" fill="#1a4d1a" stroke="none" /><ellipse cx="951.12" cy="591.02" rx="8.00" ry="5.00" fill="#1a4d1a" stroke="none" /><polygon points="512.32,338.12 629.23,405.62 629.23,504.62 512.32,437.12" fill="green" stroke="#1b6e1b" stroke-width="0.5" stroke-linejoin="round" /><polygon points="512.32,338.12 629.23,405.62 629.23,504.62 512.32,437.12" fill="green" stroke="#1b6e1b" stroke-width="0.5" stroke-linejoin="round" /><polygon points="722.76,351.62 629.23,405.62 629.23,504.62 722.76,450.62" fill="green" stroke="#1b6e1b" stroke-width="0.5" stroke-linejoin="round" /><polygon points="605.85,284.12 722.76,351.62 629.23,405.62 512.32,338.12" fill="green" stroke="#1b6e1b" stroke-width="0.5" stroke-linejoin="round" /><polygon points="549.34,312.25 607.79,346.00 607.79,373.00 549.34,339.25" fill="green" stroke="#1b6e1b" stroke-width="0.5" stroke-linejoin="round" /><polygon points="549.34,312.25 607.79,346.00 607.79,373.00 549.34,339.25" fill="green" stroke="#1b6e1b" stroke-width="0.5" stroke-linejoin="round" /><polygon points="666.25,312.25 607.79,346.00 607.79,373.00 666.25,339.25" fill="green" stroke="#1b6e1b" stroke-width="0.5" stroke-linejoin="round" /><polygon points="607.79,278.50 666.25,312.25 607.79,346.00 549.34,312.25" fill="green" stroke="#1b6e1b" stroke-width="0.5" stroke-linejoin="round" /><polygon points="625.33,317.88 640.92,326.88 640.92,380.88 625.33,371.88" fill="#2ea32e" stroke="#1b6e1b" stroke-width="0.5" stroke-linejoin="round" /><polygon points="625.33,317.88 640.92,326.88 640.92,380.88 625.33,371.88" fill="#2ea32e" stroke="#1b6e1b" stroke-width="0.5" stroke-linejoin="round" /><polygon points="644.82,324.62 640.92,326.88 640.92,380.88 644.82,378.62" fill="#1b6e1b" stroke="#1b6e1b" stroke-width="0.5" stroke-linejoin="round" /><polygon points="629.23,315.62 644.82,324.62 640.92,326.88 625.33,317.88" fill="#66d466" stroke="#1b6e1b" stroke-width="0.5" stroke-linejoin="round" /><polygon points="656.51,335.88 672.09,344.88 672.09,398.88 656.51,389.88" fill="#2ea32e" stroke="#1b6e1b" stroke-width="0.5" stroke-linejoin="round" /><polygon points="656.51,335.88 672.09,344.88 672.09,398.88 656.51,389.88" fill="#2ea32e" stroke="#1b6e1b" stroke-width="0.5" stroke-linejoin="round" /><polygon points="675.99,342.62 672.09,344.88 672.09,398.88 675.99,396.62" fill="#1b6e1b" stroke="#1b6e1b" stroke-width="0.5" stroke-linejoin="round" /><polygon points="660.40,333.62 675.99,342.62 672.09,344.88 656.51,335.88" fill="#66d466" stroke="#1b6e1b" stroke-width="0.5" stroke-linejoin="round" /><polygon points="687.68,353.88 703.27,362.88 703.27,416.88 687.68,407.88" fill="#2ea32e" stroke="#1b6e1b" stroke-width="0.5" stroke-linejoin="round" /><polygon points="687.68,353.88 703.27,362.88 703.27,416.88 687.68,407.88" fill="#2ea32e" stroke="#1b6e1b" stroke-width="0.5" stroke-linejoin="round" /><polygon points="707.17,360.62 703.27,362.88 703.27,416.88 707.17,414.62" fill="#1b6e1b" stroke="#1b6e1b" stroke-width="0.5" stroke-linejoin="round" /><polygon points="691.58,351.62 707.17,360.62 703.27,362.88 687.68,353.88" fill="#66d466" stroke="#1b6e1b" stroke-width="0.5" stroke-linejoin="round" /><polygon points="656.51,439.38 890.33,574.38 890.33,637.38 656.51,502.38" fill="green" stroke="#1b6e1b" stroke-width="0.5" stroke-linejoin="round" /><polygon points="656.51,439.38 890.33,574.38 890.33,637.38 656.51,502.38" fill="green" stroke="#1b6e1b" stroke-width="0.5" stroke-linejoin="round" /><polygon points="952.68,538.38 890.33,574.38 890.33,637.38 952.68,601.38" fill="green" stroke="#1b6e1b" stroke-width="0.5" stroke-linejoin="round" /><polygon points="718.86,403.38 952.68,538.38 890.33,574.38 656.51,439.38" fill="green" stroke="#1b6e1b" stroke-width="0.5" stroke-linejoin="round" /><polygon points="699.37,392.12 720.42,404.27 720.42,426.77 699.37,414.62" fill="green" stroke="#1b6e1b" stroke-width="0.5" stroke-linejoin="round" /><polygon points="699.37,392.12 720.42,404.27 720.42,426.77 699.37,414.62" fill="green" stroke="#1b6e1b" stroke-width="0.5" stroke-linejoin="round" /><polygon points="743.80,390.77 720.42,404.27 720.42,426.77 743.80,413.27" fill="green" stroke="#1b6e1b" stroke-width="0.5" stroke-linejoin="round" /><polygon points="722.76,378.62 743.80,390.77 720.42,404.27 699.37,392.12" fill="green" stroke="#1b6e1b" stroke-width="0.5" stroke-linejoin="round" /><polygon points="652.61,419.12 673.65,431.27 673.65,453.77 652.61,441.62" fill="green" stroke="#1b6e1b" stroke-width="0.5" stroke-linejoin="round" /><polygon points="652.61,419.12 673.65,431.27 673.65,453.77 652.61,441.62" fill="green" stroke="#1b6e1b" stroke-width="0.5" stroke-linejoin="round" /><polygon points="697.04,417.77 673.65,431.27 673.65,453.77 697.04,440.27" fill="green" stroke="#1b6e1b" stroke-width="0.5" stroke-linejoin="round" /><polygon points="675.99,405.62 697.04,417.77 673.65,431.27 652.61,419.12" fill="green" stroke="#1b6e1b" stroke-width="0.5" stroke-linejoin="round" /><polygon points="722.76,405.62 743.80,417.77 743.80,440.27 722.76,428.12" fill="green" stroke="#1b6e1b" stroke-width="0.5" stroke-linejoin="round" /><polygon points="722.76,405.62 743.80,417.77 743.80,440.27 722.76,428.12" fill="green" stroke="#1b6e1b" stroke-width="0.5" stroke-linejoin="round" /><polygon points="767.18,404.27 743.80,417.77 743.80,440.27 767.18,426.77" fill="green" stroke="#1b6e1b" stroke-width="0.5" stroke-linejoin="round" /><polygon points="746.14,392.12 767.18,404.27 743.80,417.77 722.76,405.62" fill="green" stroke="#1b6e1b" stroke-width="0.5" stroke-linejoin="round" /><polygon points="675.99,432.62 697.04,444.77 697.04,467.27 675.99,455.12" fill="green" stroke="#1b6e1b" stroke-width="0.5" stroke-linejoin="round" /><polygon points="675.99,432.62 697.04,444.77 697.04,467.27 675.99,455.12" fill="green" stroke="#1b6e1b" stroke-width="0.5" stroke-linejoin="round" /><polygon points="720.42,431.27 697.04,444.77 697.04,467.27 720.42,453.77" fill="green" stroke="#1b6e1b" stroke-width="0.5" stroke-linejoin="round" /><polygon points="699.37,419.12 720.42,431.27 697.04,444.77 675.99,432.62" fill="green" stroke="#1b6e1b" stroke-width="0.5" stroke-linejoin="round" /><polygon points="746.14,419.12 767.18,431.27 767.18,453.77 746.14,441.62" fill="green" stroke="#1b6e1b" stroke-width="0.5" stroke-linejoin="round" /><polygon points="746.14,419.12 767.18,431.27 767.18,453.77 746.14,441.62" fill="green" stroke="#1b6e1b" stroke-width="0.5" stroke-linejoin="round" /><polygon points="790.56,417.77 767.18,431.27 767.18,453.77 790.56,440.27" fill="green" stroke="#1b6e1b" stroke-width="0.5" stroke-linejoin="round" /><polygon points="769.52,405.62 790.56,417.77 767.18,431.27 746.14,419.12" fill="green" stroke="#1b6e1b" stroke-width="0.5" stroke-linejoin="round" /><polygon points="699.37,446.12 720.42,458.27 720.42,480.77 699.37,468.62" fill="green" stroke="#1b6e1b" stroke-width="0.5" stroke-linejoin="round" /><polygon points="699.37,446.12 720.42,458.27 720.42,480.77 699.37,468.62" fill="green" stroke="#1b6e1b" stroke-width="0.5" stroke-linejoin="round" /><polygon points="743.80,444.77 720.42,458.27 720.42,480.77 743.80,467.27" fill="green" stroke="#1b6e1b" stroke-width="0.5" stroke-linejoin="round" /><polygon points="722.76,432.62 743.80,444.77 720.42,458.27 699.37,446.12" fill="green" stroke="#1b6e1b" stroke-width="0.5" stroke-linejoin="round" /><polygon points="769.52,432.62 790.56,444.78 790.56,467.28 769.52,455.12" fill="green" stroke="#1b6e1b" stroke-width="0.5" stroke-linejoin="round" /><polygon points="769.52,432.62 790.56,444.78 790.56,467.28 769.52,455.12" fill="green" stroke="#1b6e1b" stroke-width="0.5" stroke-linejoin="round" /><polygon points="813.95,431.27 790.56,444.78 790.56,467.28 813.95,453.77" fill="green" stroke="#1b6e1b" stroke-width="0.5" stroke-linejoin="round" /><polygon points="792.90,419.12 813.95,431.27 790.56,444.78 769.52,432.62" fill="green" stroke="#1b6e1b" stroke-width="0.5" stroke-linejoin="round" /><polygon points="722.76,459.62 743.80,471.77 743.80,494.27 722.76,482.12" fill="green" stroke="#1b6e1b" stroke-width="0.5" stroke-linejoin="round" /><polygon points="722.76,459.62 743.80,471.77 743.80,494.27 722.76,482.12" fill="green" stroke="#1b6e1b" stroke-width="0.5" stroke-linejoin="round" /><polygon points="767.18,458.27 743.80,471.77 743.80,494.27 767.18,480.77" fill="green" stroke="#1b6e1b" stroke-width="0.5" stroke-linejoin="round" /><polygon points="746.14,446.12 767.18,458.27 743.80,471.77 722.76,459.62" fill="green" stroke="#1b6e1b" stroke-width="0.5" stroke-linejoin="round" /><polygon points="792.90,446.12 813.95,458.27 813.95,480.77 792.90,468.62" fill="green" stroke="#1b6e1b" stroke-width="0.5" stroke-linejoin="round" /><polygon points="792.90,446.12 813.95,458.27 813.95,480.77 792.90,468.62" fill="green" stroke="#1b6e1b" stroke-width="0.5" stroke-linejoin="round" /><polygon points="837.33,444.77 813.95,458.27 813.95,480.77 837.33,467.27" fill="green" stroke="#1b6e1b" stroke-width="0.5" stroke-linejoin="round" /><polygon points="816.28,432.62 837.33,444.77 813.95,458.27 792.90,446.12" fill="green" stroke="#1b6e1b" stroke-width="0.5" stroke-linejoin="round" /><polygon points="746.14,473.12 767.18,485.27 767.18,507.77 746.14,495.62" fill="green" stroke="#1b6e1b" stroke-width="0.5" stroke-linejoin="round" /><polygon points="746.14,473.12 767.18,485.27 767.18,507.77 746.14,495.62" fill="green" stroke="#1b6e1b" stroke-width="0.5" stroke-linejoin="round" /><polygon points="790.56,471.77 767.18,485.27 767.18,507.77 790.56,494.27" fill="green" stroke="#1b6e1b" stroke-width="0.5" stroke-linejoin="round" /><polygon points="769.52,459.62 790.56,471.77 767.18,485.27 746.14,473.12" fill="green" stroke="#1b6e1b" stroke-width="0.5" stroke-linejoin="round" /><polygon points="816.28,459.62 837.33,471.77 837.33,494.27 816.28,482.12" fill="green" stroke="#1b6e1b" stroke-width="0.5" stroke-linejoin="round" /><polygon points="816.28,459.62 837.33,471.77 837.33,494.27 816.28,482.12" fill="green" stroke="#1b6e1b" stroke-width="0.5" stroke-linejoin="round" /><polygon points="860.71,458.27 837.33,471.77 837.33,494.27 860.71,480.77" fill="green" stroke="#1b6e1b" stroke-width="0.5" stroke-linejoin="round" /><polygon points="839.67,446.12 860.71,458.27 837.33,471.77 816.28,459.62" fill="green" stroke="#1b6e1b" stroke-width="0.5" stroke-linejoin="round" /><polygon points="769.52,486.62 790.56,498.77 790.56,521.27 769.52,509.12" fill="green" stroke="#1b6e1b" stroke-width="0.5" stroke-linejoin="round" /><polygon points="769.52,486.62 790.56,498.77 790.56,521.27 769.52,509.12" fill="green" stroke="#1b6e1b" stroke-width="0.5" stroke-linejoin="round" /><polygon points="813.95,485.27 790.56,498.77 790.56,521.27 813.95,507.77" fill="green" stroke="#1b6e1b" stroke-width="0.5" stroke-linejoin="round" /><polygon points="792.90,473.12 813.95,485.27 790.56,498.77 769.52,486.62" fill="green" stroke="#1b6e1b" stroke-width="0.5" stroke-linejoin="round" /><polygon points="839.67,473.12 860.71,485.27 860.71,507.77 839.67,495.62" fill="green" stroke="#1b6e1b" stroke-width="0.5" stroke-linejoin="round" /><polygon points="839.67,473.12 860.71,485.27 860.71,507.77 839.67,495.62" fill="green" stroke="#1b6e1b" stroke-width="0.5" stroke-linejoin="round" /><polygon points="884.09,471.77 860.71,485.27 860.71,507.77 884.09,494.27" fill="green" stroke="#1b6e1b" stroke-width="0.5" stroke-linejoin="round" /><polygon points="863.05,459.62 884.09,471.77 860.71,485.27 839.67,473.12" fill="green" stroke="#1b6e1b" stroke-width="0.5" stroke-linejoin="round" /><polygon points="792.90,500.12 813.95,512.28 813.95,534.78 792.90,522.62" fill="green" stroke="#1b6e1b" stroke-width="0.5" stroke-linejoin="round" /><polygon points="792.90,500.12 813.95,512.28 813.95,534.78 792.90,522.62" fill="green" stroke="#1b6e1b" stroke-width="0.5" stroke-linejoin="round" /><polygon points="837.33,498.78 813.95,512.28 813.95,534.78 837.33,521.28" fill="green" stroke="#1b6e1b" stroke-width="0.5" stroke-linejoin="round" /><polygon points="816.28,486.62 837.33,498.78 813.95,512.28 792.90,500.12" fill="green" stroke="#1b6e1b" stroke-width="0.5" stroke-linejoin="round" /><polygon points="863.05,486.62 884.09,498.78 884.09,521.28 863.05,509.12" fill="green" stroke="#1b6e1b" stroke-width="0.5" stroke-linejoin="round" /><polygon points="863.05,486.62 884.09,498.78 884.09,521.28 863.05,509.12" fill="green" stroke="#1b6e1b" stroke-width="0.5" stroke-linejoin="round" /><polygon points="907.47,485.28 884.09,498.78 884.09,521.28 907.47,507.78" fill="green" stroke="#1b6e1b" stroke-width="0.5" stroke-linejoin="round" /><polygon points="886.43,473.12 907.47,485.28 884.09,498.78 863.05,486.62" fill="green" stroke="#1b6e1b" stroke-width="0.5" stroke-linejoin="round" /><polygon points="816.28,513.62 837.33,525.78 837.33,548.28 816.28,536.12" fill="green" stroke="#1b6e1b" stroke-width="0.5" stroke-linejoin="round" /><polygon points="816.28,513.62 837.33,525.78 837.33,548.28 816.28,536.12" fill="green" stroke="#1b6e1b" stroke-width="0.5" stroke-linejoin="round" /><polygon points="860.71,512.28 837.33,525.78 837.33,548.28 860.71,534.78" fill="green" stroke="#1b6e1b" stroke-width="0.5" stroke-linejoin="round" /><polygon points="839.67,500.12 860.71,512.28 837.33,525.78 816.28,513.62" fill="green" stroke="#1b6e1b" stroke-width="0.5" stroke-linejoin="round" /><polygon points="886.43,500.12 907.47,512.27 907.47,534.77 886.43,522.62" fill="green" stroke="#1b6e1b" stroke-width="0.5" stroke-linejoin="round" /><polygon points="886.43,500.12 907.47,512.27 907.47,534.77 886.43,522.62" fill="green" stroke="#1b6e1b" stroke-width="0.5" stroke-linejoin="round" /><polygon points="930.86,498.77 907.47,512.27 907.47,534.77 930.86,521.27" fill="green" stroke="#1b6e1b" stroke-width="0.5" stroke-linejoin="round" /><polygon points="909.81,486.62 930.86,498.77 907.47,512.27 886.43,500.12" fill="green" stroke="#1b6e1b" stroke-width="0.5" stroke-linejoin="round" /><polygon points="839.67,527.12 860.71,539.27 860.71,561.77 839.67,549.62" fill="green" stroke="#1b6e1b" stroke-width="0.5" stroke-linejoin="round" /><polygon points="839.67,527.12 860.71,539.27 860.71,561.77 839.67,549.62" fill="green" stroke="#1b6e1b" stroke-width="0.5" stroke-linejoin="round" /><polygon points="884.09,525.77 860.71,539.27 860.71,561.77 884.09,548.27" fill="green" stroke="#1b6e1b" stroke-width="0.5" stroke-linejoin="round" /><polygon points="863.05,513.62 884.09,525.77 860.71,539.27 839.67,527.12" fill="green" stroke="#1b6e1b" stroke-width="0.5" stroke-linejoin="round" /><polygon points="909.81,513.62 930.86,525.77 930.86,548.27 909.81,536.12" fill="green" stroke="#1b6e1b" stroke-width="0.5" stroke-linejoin="round" /><polygon points="909.81,513.62 930.86,525.77 930.86,548.27 909.81,536.12" fill="green" stroke="#1b6e1b" stroke-width="0.5" stroke-linejoin="round" /><polygon points="954.24,512.28 930.86,525.77 930.86,548.27 954.24,534.78" fill="green" stroke="#1b6e1b" stroke-width="0.5" stroke-linejoin="round" /><polygon points="933.19,500.12 954.24,512.28 930.86,525.77 909.81,513.62" fill="green" stroke="#1b6e1b" stroke-width="0.5" stroke-linejoin="round" /><polygon points="863.05,540.62 884.09,552.78 884.09,575.28 863.05,563.12" fill="green" stroke="#1b6e1b" stroke-width="0.5" stroke-linejoin="round" /><polygon points="863.05,540.62 884.09,552.78 884.09,575.28 863.05,563.12" fill="green" stroke="#1b6e1b" stroke-width="0.5" stroke-linejoin="round" /><polygon points="907.47,539.28 884.09,552.78 884.09,575.28 907.47,561.78" fill="green" stroke="#1b6e1b" stroke-width="0.5" stroke-linejoin="round" /><polygon points="886.43,527.12 907.47,539.28 884.09,552.78 863.05,540.62" fill="green" stroke="#1b6e1b" stroke-width="0.5" stroke-linejoin="round" /><polygon points="927.35,517.00 928.39,510.37 931.34,503.56 935.77,497.59 940.99,493.38 946.21,491.56 950.63,492.42 953.59,495.82 954.63,501.25 953.59,507.88 950.63,514.69 946.21,520.66 940.99,524.88 935.77,526.69 931.34,525.83 928.39,522.43" fill="#a6a6a6" stroke="#1b6e1b" stroke-width="0.5" stroke-linejoin="round" /><polygon points="674.04,370.75 927.35,517.00 928.39,510.37 675.08,364.12" fill="#d9d9d9" stroke="#1b6e1b" stroke-width="0.5" stroke-linejoin="round" /><polygon points="675.08,364.12 928.39,510.37 931.34,503.56 678.04,357.31" fill="#d9d9d9" stroke="#1b6e1b" stroke-width="0.5" stroke-linejoin="round" /><polygon points="678.04,357.31 931.34,503.56 935.77,497.59 682.46,351.34" fill="#d9d9d9" stroke="#1b6e1b" stroke-width="0.5" stroke-linejoin="round" /><polygon points="682.46,351.34 935.77,497.59 940.99,493.38 687.68,347.12" fill="#d9d9d9" stroke="#1b6e1b" stroke-width="0.5" stroke-linejoin="round" /><polygon points="687.68,347.12 940.99,493.38 946.21,491.56 692.90,345.31" fill="#d9d9d9" stroke="#1b6e1b" stroke-width="0.5" stroke-linejoin="round" /><polygon points="692.90,345.31 946.21,491.56 950.63,492.42 697.33,346.17" fill="#d9d9d9" stroke="#1b6e1b" stroke-width="0.5" stroke-linejoin="round" /><polygon points="697.33,346.17 950.63,492.42 953.59,495.82 700.28,349.57" fill="#d9d9d9" stroke="#1b6e1b" stroke-width="0.5" stroke-linejoin="round" /><polygon points="700.28,349.57 953.59,495.82 954.63,501.25 701.32,355.00" fill="#d9d9d9" stroke="#1b6e1b" stroke-width="0.5" stroke-linejoin="round" /><polygon points="701.32,355.00 954.63,501.25 953.59,507.88 700.28,361.63" fill="#d9d9d9" stroke="#1b6e1b" stroke-width="0.5" stroke-linejoin="round" /><polygon points="700.28,361.63 953.59,507.88 950.63,514.69 697.33,368.44" fill="#d9d9d9" stroke="#1b6e1b" stroke-width="0.5" stroke-linejoin="round" /><polygon points="697.33,368.44 950.63,514.69 946.21,520.66 692.90,374.41" fill="#d9d9d9" stroke="#1b6e1b" stroke-width="0.5" stroke-linejoin="round" /><polygon points="692.90,374.41 946.21,520.66 940.99,524.88 687.68,378.62" fill="#d9d9d9" stroke="#1b6e1b" stroke-width="0.5" stroke-linejoin="round" /><polygon points="687.68,378.62 940.99,524.88 935.77,526.69 682.46,380.44" fill="#d9d9d9" stroke="#1b6e1b" stroke-width="0.5" stroke-linejoin="round" /><polygon points="682.46,380.44 935.77,526.69 931.34,525.83 678.04,379.58" fill="#d9d9d9" stroke="#1b6e1b" stroke-width="0.5" stroke-linejoin="round" /><polygon points="678.04,379.58 931.34,525.83 928.39,522.43 675.08,376.18" fill="#d9d9d9" stroke="#1b6e1b" stroke-width="0.5" stroke-linejoin="round" /><polygon points="675.08,376.18 928.39,522.43 927.35,517.00 674.04,370.75" fill="#d9d9d9" stroke="#1b6e1b" stroke-width="0.5" stroke-linejoin="round" /><polygon points="674.04,370.75 675.08,364.12 678.04,357.31 682.46,351.34 687.68,347.12 692.90,345.31 697.33,346.17 700.28,349.57 701.32,355.00 700.28,361.63 697.33,368.44 692.90,374.41 687.68,378.62 682.46,380.44 678.04,379.58 675.08,376.18" fill="#a6a6a6" stroke="#1b6e1b" stroke-width="0.5" stroke-linejoin="round" /><polygon points="888.38,539.50 889.42,532.87 892.37,526.06 896.80,520.09 902.02,515.88 907.24,514.06 911.66,514.92 914.62,518.32 915.66,523.75 914.62,530.38 911.66,537.19 907.24,543.16 902.02,547.38 896.80,549.19 892.37,548.33 889.42,544.93" fill="#a6a6a6" stroke="#1b6e1b" stroke-width="0.5" stroke-linejoin="round" /><polygon points="635.07,393.25 888.38,539.50 889.42,532.87 636.11,386.62" fill="#d9d9d9" stroke="#1b6e1b" stroke-width="0.5" stroke-linejoin="round" /><polygon points="636.11,386.62 889.42,532.87 892.37,526.06 639.07,379.81" fill="#d9d9d9" stroke="#1b6e1b" stroke-width="0.5" stroke-linejoin="round" /><polygon points="639.07,379.81 892.37,526.06 896.80,520.09 643.49,373.84" fill="#d9d9d9" stroke="#1b6e1b" stroke-width="0.5" stroke-linejoin="round" /><polygon points="643.49,373.84 896.80,520.09 902.02,515.88 648.71,369.62" fill="#d9d9d9" stroke="#1b6e1b" stroke-width="0.5" stroke-linejoin="round" /><polygon points="648.71,369.62 902.02,515.88 907.24,514.06 653.93,367.81" fill="#d9d9d9" stroke="#1b6e1b" stroke-width="0.5" stroke-linejoin="round" /><polygon points="653.93,367.81 907.24,514.06 911.66,514.92 658.36,368.67" fill="#d9d9d9" stroke="#1b6e1b" stroke-width="0.5" stroke-linejoin="round" /><polygon points="658.36,368.67 911.66,514.92 914.62,518.32 661.31,372.07" fill="#d9d9d9" stroke="#1b6e1b" stroke-width="0.5" stroke-linejoin="round" /><polygon points="661.31,372.07 914.62,518.32 915.66,523.75 662.35,377.50" fill="#d9d9d9" stroke="#1b6e1b" stroke-width="0.5" stroke-linejoin="round" /><polygon points="662.35,377.50 915.66,523.75 914.62,530.38 661.31,384.13" fill="#d9d9d9" stroke="#1b6e1b" stroke-width="0.5" stroke-linejoin="round" /><polygon points="661.31,384.13 914.62,530.38 911.66,537.19 658.36,390.94" fill="#d9d9d9" stroke="#1b6e1b" stroke-width="0.5" stroke-linejoin="round" /><polygon points="658.36,390.94 911.66,537.19 907.24,543.16 653.93,396.91" fill="#d9d9d9" stroke="#1b6e1b" stroke-width="0.5" stroke-linejoin="round" /><polygon points="653.93,396.91 907.24,543.16 902.02,547.38 648.71,401.12" fill="#d9d9d9" stroke="#1b6e1b" stroke-width="0.5" stroke-linejoin="round" /><polygon points="648.71,401.12 902.02,547.38 896.80,549.19 643.49,402.94" fill="#d9d9d9" stroke="#1b6e1b" stroke-width="0.5" stroke-linejoin="round" /><polygon points="643.49,402.94 896.80,549.19 892.37,548.33 639.07,402.08" fill="#d9d9d9" stroke="#1b6e1b" stroke-width="0.5" stroke-linejoin="round" /><polygon points="639.07,402.08 892.37,548.33 889.42,544.93 636.11,398.68" fill="#d9d9d9" stroke="#1b6e1b" stroke-width="0.5" stroke-linejoin="round" /><polygon points="636.11,398.68 889.42,544.93 888.38,539.50 635.07,393.25" fill="#d9d9d9" stroke="#1b6e1b" stroke-width="0.5" stroke-linejoin="round" /><polygon points="635.07,393.25 636.11,386.62 639.07,379.81 643.49,373.84 648.71,369.62 653.93,367.81 658.36,368.67 661.31,372.07 662.35,377.50 661.31,384.13 658.36,390.94 653.93,396.91 648.71,401.12 643.49,402.94 639.07,402.08 636.11,398.68" fill="#a6a6a6" stroke="#1b6e1b" stroke-width="0.5" stroke-linejoin="round" /><polygon points="664.30,407.88 898.12,542.88 898.12,569.88 664.30,434.88" fill="#a6a6a6" stroke="#1b6e1b" stroke-width="0.5" stroke-linejoin="round" /><polygon points="664.30,407.88 898.12,542.88 898.12,569.88 664.30,434.88" fill="#a6a6a6" stroke="#1b6e1b" stroke-width="0.5" stroke-linejoin="round" /><polygon points="944.88,515.88 898.12,542.88 898.12,569.88 944.88,542.88" fill="#d9d9d9" stroke="#1b6e1b" stroke-width="0.5" stroke-linejoin="round" /><polygon points="711.06,380.88 944.88,515.88 898.12,542.88 664.30,407.88" fill="#66d466" stroke="#1b6e1b" stroke-width="0.5" stroke-linejoin="round" /><polygon points="738.34,365.12 796.80,398.88 796.80,416.88 738.34,383.12" fill="#2ea32e" stroke="#1b6e1b" stroke-width="0.5" stroke-linejoin="round" /><polygon points="738.34,365.12 796.80,398.88 796.80,416.88 738.34,383.12" fill="#2ea32e" stroke="#1b6e1b" stroke-width="0.5" stroke-linejoin="round" /><polygon points="800.70,396.62 796.80,398.88 796.80,416.88 800.70,414.62" fill="#222222" stroke="#1b6e1b" stroke-width="0.5" stroke-linejoin="round" /><polygon points="742.24,362.88 800.70,396.62 796.80,398.88 738.34,365.12" fill="#66d466" stroke="#1b6e1b" stroke-width="0.5" stroke-linejoin="round" /><polygon points="890.33,547.38 929.30,569.88 929.30,637.38 890.33,614.88" fill="#2ea32e" stroke="#1b6e1b" stroke-width="0.5" stroke-linejoin="round" /><polygon points="890.33,547.38 929.30,569.88 929.30,637.38 890.33,614.88" fill="#2ea32e" stroke="#1b6e1b" stroke-width="0.5" stroke-linejoin="round" /><polygon points="991.65,533.88 929.30,569.88 929.30,637.38 991.65,601.38" fill="#444444" stroke="#1b6e1b" stroke-width="0.5" stroke-linejoin="round" /><polygon points="952.68,511.38 991.65,533.88 929.30,569.88 890.33,547.38" fill="#66d466" stroke="#1b6e1b" stroke-width="0.5" stroke-linejoin="round" /><polygon points="956.58,513.62 949.42,516.38 940.99,517.35 932.55,516.38 925.40,513.62 920.62,509.50 918.94,504.62 920.62,499.75 925.40,495.62 932.55,492.87 940.99,491.90 949.42,492.87 956.58,495.62 961.35,499.75 963.03,504.62 961.35,509.50" fill="#2ea32e" stroke="#1b6e1b" stroke-width="0.5" stroke-linejoin="round" /><polygon points="956.58,549.62 956.58,513.62 949.42,516.38 949.42,552.38" fill="#444444" stroke="#1b6e1b" stroke-width="0.5" stroke-linejoin="round" /><polygon points="949.42,552.38 949.42,516.38 940.99,517.35 940.99,553.35" fill="#444444" stroke="#1b6e1b" stroke-width="0.5" stroke-linejoin="round" /><polygon points="940.99,553.35 940.99,517.35 932.55,516.38 932.55,552.38" fill="#444444" stroke="#1b6e1b" stroke-width="0.5" stroke-linejoin="round" /><polygon points="932.55,552.38 932.55,516.38 925.40,513.62 925.40,549.62" fill="#444444" stroke="#1b6e1b" stroke-width="0.5" stroke-linejoin="round" /><polygon points="925.40,549.62 925.40,513.62 920.62,509.50 920.62,545.50" fill="#444444" stroke="#1b6e1b" stroke-width="0.5" stroke-linejoin="round" /><polygon points="920.62,545.50 920.62,509.50 918.94,504.62 918.94,540.62" fill="#444444" stroke="#1b6e1b" stroke-width="0.5" stroke-linejoin="round" /><polygon points="918.94,540.62 918.94,504.62 920.62,499.75 920.62,535.75" fill="#444444" stroke="#1b6e1b" stroke-width="0.5" stroke-linejoin="round" /><polygon points="920.62,535.75 920.62,499.75 925.40,495.62 925.40,531.62" fill="#444444" stroke="#1b6e1b" stroke-width="0.5" stroke-linejoin="round" /><polygon points="925.40,531.62 925.40,495.62 932.55,492.87 932.55,528.87" fill="#444444" stroke="#1b6e1b" stroke-width="0.5" stroke-linejoin="round" /><polygon points="932.55,528.87 932.55,492.87 940.99,491.90 940.99,527.90" fill="#444444" stroke="#1b6e1b" stroke-width="0.5" stroke-linejoin="round" /><polygon points="940.99,527.90 940.99,491.90 949.42,492.87 949.42,528.87" fill="#444444" stroke="#1b6e1b" stroke-width="0.5" stroke-linejoin="round" /><polygon points="949.42,528.87 949.42,492.87 956.58,495.62 956.58,531.62" fill="#444444" stroke="#1b6e1b" stroke-width="0.5" stroke-linejoin="round" /><polygon points="956.58,531.62 956.58,495.62 961.35,499.75 961.35,535.75" fill="#444444" stroke="#1b6e1b" stroke-width="0.5" stroke-linejoin="round" /><polygon points="961.35,535.75 961.35,499.75 963.03,504.62 963.03,540.62" fill="#444444" stroke="#1b6e1b" stroke-width="0.5" stroke-linejoin="round" /><polygon points="963.03,540.62 963.03,504.62 961.35,509.50 961.35,545.50" fill="#444444" stroke="#1b6e1b" stroke-width="0.5" stroke-linejoin="round" /><polygon points="961.35,545.50 961.35,509.50 956.58,513.62 956.58,549.62" fill="#444444" stroke="#1b6e1b" stroke-width="0.5" stroke-linejoin="round" /><polygon points="956.58,549.62 949.42,552.38 940.99,553.35 932.55,552.38 925.40,549.62 920.62,545.50 918.94,540.62 920.62,535.75 925.40,531.62 932.55,528.87 940.99,527.90 949.42,528.87 956.58,531.62 961.35,535.75 963.03,540.62 961.35,545.50" fill="#2ea32e" stroke="#1b6e1b" stroke-width="0.5" stroke-linejoin="round" /><polygon points="962.42,573.25 962.87,570.41 964.13,567.49 966.03,564.93 968.27,563.12 970.50,562.35 972.40,562.72 973.67,564.17 974.11,566.50 973.67,569.34 972.40,572.26 970.50,574.82 968.27,576.62 966.03,577.40 964.13,577.03 962.87,575.58" fill="#2ea32e" stroke="#1b6e1b" stroke-width="0.5" stroke-linejoin="round" /><polygon points="728.60,438.25 962.42,573.25 962.87,570.41 729.05,435.41" fill="#44c244" stroke="#1b6e1b" stroke-width="0.5" stroke-linejoin="round" /><polygon points="729.05,435.41 962.87,570.41 964.13,567.49 730.31,432.49" fill="#44c244" stroke="#1b6e1b" stroke-width="0.5" stroke-linejoin="round" /><polygon points="730.31,432.49 964.13,567.49 966.03,564.93 732.21,429.93" fill="#44c244" stroke="#1b6e1b" stroke-width="0.5" stroke-linejoin="round" /><polygon points="732.21,429.93 966.03,564.93 968.27,563.12 734.45,428.12" fill="#44c244" stroke="#1b6e1b" stroke-width="0.5" stroke-linejoin="round" /><polygon points="734.45,428.12 968.27,563.12 970.50,562.35 736.68,427.35" fill="#44c244" stroke="#1b6e1b" stroke-width="0.5" stroke-linejoin="round" /><polygon points="736.68,427.35 970.50,562.35 972.40,562.72 738.58,427.72" fill="#44c244" stroke="#1b6e1b" stroke-width="0.5" stroke-linejoin="round" /><polygon points="738.58,427.72 972.40,562.72 973.67,564.17 739.85,429.17" fill="#44c244" stroke="#1b6e1b" stroke-width="0.5" stroke-linejoin="round" /><polygon points="739.85,429.17 973.67,564.17 974.11,566.50 740.29,431.50" fill="#44c244" stroke="#1b6e1b" stroke-width="0.5" stroke-linejoin="round" /><polygon points="740.29,431.50 974.11,566.50 973.67,569.34 739.85,434.34" fill="#44c244" stroke="#1b6e1b" stroke-width="0.5" stroke-linejoin="round" /><polygon points="739.85,434.34 973.67,569.34 972.40,572.26 738.58,437.26" fill="#44c244" stroke="#1b6e1b" stroke-width="0.5" stroke-linejoin="round" /><polygon points="738.58,437.26 972.40,572.26 970.50,574.82 736.68,439.82" fill="#44c244" stroke="#1b6e1b" stroke-width="0.5" stroke-linejoin="round" /><polygon points="736.68,439.82 970.50,574.82 968.27,576.62 734.45,441.62" fill="#44c244" stroke="#1b6e1b" stroke-width="0.5" stroke-linejoin="round" /><polygon points="734.45,441.62 968.27,576.62 966.03,577.40 732.21,442.40" fill="#44c244" stroke="#1b6e1b" stroke-width="0.5" stroke-linejoin="round" /><polygon points="732.21,442.40 966.03,577.40 964.13,577.03 730.31,442.03" fill="#44c244" stroke="#1b6e1b" stroke-width="0.5" stroke-linejoin="round" /><polygon points="730.31,442.03 964.13,577.03 962.87,575.58 729.05,440.58" fill="#44c244" stroke="#1b6e1b" stroke-width="0.5" stroke-linejoin="round" /><polygon points="729.05,440.58 962.87,575.58 962.42,573.25 728.60,438.25" fill="#44c244" stroke="#1b6e1b" stroke-width="0.5" stroke-linejoin="round" /><polygon points="728.60,438.25 729.05,435.41 730.31,432.49 732.21,429.93 734.45,428.12 736.68,427.35 738.58,427.72 739.85,429.17 740.29,431.50 739.85,434.34 738.58,437.26 736.68,439.82 734.45,441.62 732.21,442.40 730.31,442.03 729.05,440.58" fill="#2ea32e" stroke="#1b6e1b" stroke-width="0.5" stroke-linejoin="round" /><polygon points="935.14,521.50 935.88,516.77 938.00,511.90 941.16,507.63 944.88,504.62 948.61,503.33 951.77,503.94 953.89,506.37 954.63,510.25 953.89,514.98 951.77,519.85 948.61,524.12 944.88,527.12 941.16,528.42 938.00,527.81 935.88,525.38" fill="#a6a6a6" stroke="#1b6e1b" stroke-width="0.5" stroke-linejoin="round" /><polygon points="896.17,499.00 935.14,521.50 935.88,516.77 896.91,494.27" fill="#d9d9d9" stroke="#1b6e1b" stroke-width="0.5" stroke-linejoin="round" /><polygon points="896.91,494.27 935.88,516.77 938.00,511.90 899.03,489.40" fill="#d9d9d9" stroke="#1b6e1b" stroke-width="0.5" stroke-linejoin="round" /><polygon points="899.03,489.40 938.00,511.90 941.16,507.63 902.19,485.13" fill="#d9d9d9" stroke="#1b6e1b" stroke-width="0.5" stroke-linejoin="round" /><polygon points="902.19,485.13 941.16,507.63 944.88,504.62 905.91,482.12" fill="#d9d9d9" stroke="#1b6e1b" stroke-width="0.5" stroke-linejoin="round" /><polygon points="905.91,482.12 944.88,504.62 948.61,503.33 909.64,480.83" fill="#d9d9d9" stroke="#1b6e1b" stroke-width="0.5" stroke-linejoin="round" /><polygon points="909.64,480.83 948.61,503.33 951.77,503.94 912.80,481.44" fill="#d9d9d9" stroke="#1b6e1b" stroke-width="0.5" stroke-linejoin="round" /><polygon points="912.80,481.44 951.77,503.94 953.89,506.37 914.92,483.87" fill="#d9d9d9" stroke="#1b6e1b" stroke-width="0.5" stroke-linejoin="round" /><polygon points="914.92,483.87 953.89,506.37 954.63,510.25 915.66,487.75" fill="#d9d9d9" stroke="#1b6e1b" stroke-width="0.5" stroke-linejoin="round" /><polygon points="915.66,487.75 954.63,510.25 953.89,514.98 914.92,492.48" fill="#d9d9d9" stroke="#1b6e1b" stroke-width="0.5" stroke-linejoin="round" /><polygon points="914.92,492.48 953.89,514.98 951.77,519.85 912.80,497.35" fill="#d9d9d9" stroke="#1b6e1b" stroke-width="0.5" stroke-linejoin="round" /><polygon points="912.80,497.35 951.77,519.85 948.61,524.12 909.64,501.62" fill="#d9d9d9" stroke="#1b6e1b" stroke-width="0.5" stroke-linejoin="round" /><polygon points="909.64,501.62 948.61,524.12 944.88,527.12 905.91,504.62" fill="#d9d9d9" stroke="#1b6e1b" stroke-width="0.5" stroke-linejoin="round" /><polygon points="905.91,504.62 944.88,527.12 941.16,528.42 902.19,505.92" fill="#d9d9d9" stroke="#1b6e1b" stroke-width="0.5" stroke-linejoin="round" /><polygon points="902.19,505.92 941.16,528.42 938.00,527.81 899.03,505.31" fill="#d9d9d9" stroke="#1b6e1b" stroke-width="0.5" stroke-linejoin="round" /><polygon points="899.03,505.31 938.00,527.81 935.88,525.38 896.91,502.88" fill="#d9d9d9" stroke="#1b6e1b" stroke-width="0.5" stroke-linejoin="round" /><polygon points="896.91,502.88 935.88,525.38 935.14,521.50 896.17,499.00" fill="#d9d9d9" stroke="#1b6e1b" stroke-width="0.5" stroke-linejoin="round" /><polygon points="896.17,499.00 896.91,494.27 899.03,489.40 902.19,485.13 905.91,482.12 909.64,480.83 912.80,481.44 914.92,483.87 915.66,487.75 914.92,492.48 912.80,497.35 909.64,501.62 905.91,504.62 902.19,505.92 899.03,505.31 896.91,502.88" fill="#a6a6a6" stroke="#1b6e1b" stroke-width="0.5" stroke-linejoin="round" /><polygon points="888.38,548.50 889.12,543.77 891.23,538.90 894.39,534.63 898.12,531.62 901.85,530.33 905.01,530.94 907.12,533.37 907.86,537.25 907.12,541.98 905.01,546.85 901.85,551.12 898.12,554.12 894.39,555.42 891.23,554.81 889.12,552.38" fill="#a6a6a6" stroke="#1b6e1b" stroke-width="0.5" stroke-linejoin="round" /><polygon points="849.41,526.00 888.38,548.50 889.12,543.77 850.15,521.27" fill="#d9d9d9" stroke="#1b6e1b" stroke-width="0.5" stroke-linejoin="round" /><polygon points="850.15,521.27 889.12,543.77 891.23,538.90 852.26,516.40" fill="#d9d9d9" stroke="#1b6e1b" stroke-width="0.5" stroke-linejoin="round" /><polygon points="852.26,516.40 891.23,538.90 894.39,534.63 855.42,512.13" fill="#d9d9d9" stroke="#1b6e1b" stroke-width="0.5" stroke-linejoin="round" /><polygon points="855.42,512.13 894.39,534.63 898.12,531.62 859.15,509.12" fill="#d9d9d9" stroke="#1b6e1b" stroke-width="0.5" stroke-linejoin="round" /><polygon points="859.15,509.12 898.12,531.62 901.85,530.33 862.88,507.83" fill="#d9d9d9" stroke="#1b6e1b" stroke-width="0.5" stroke-linejoin="round" /><polygon points="862.88,507.83 901.85,530.33 905.01,530.94 866.04,508.44" fill="#d9d9d9" stroke="#1b6e1b" stroke-width="0.5" stroke-linejoin="round" /><polygon points="866.04,508.44 905.01,530.94 907.12,533.37 868.15,510.87" fill="#d9d9d9" stroke="#1b6e1b" stroke-width="0.5" stroke-linejoin="round" /><polygon points="868.15,510.87 907.12,533.37 907.86,537.25 868.89,514.75" fill="#d9d9d9" stroke="#1b6e1b" stroke-width="0.5" stroke-linejoin="round" /><polygon points="868.89,514.75 907.86,537.25 907.12,541.98 868.15,519.48" fill="#d9d9d9" stroke="#1b6e1b" stroke-width="0.5" stroke-linejoin="round" /><polygon points="868.15,519.48 907.12,541.98 905.01,546.85 866.04,524.35" fill="#d9d9d9" stroke="#1b6e1b" stroke-width="0.5" stroke-linejoin="round" /><polygon points="866.04,524.35 905.01,546.85 901.85,551.12 862.88,528.62" fill="#d9d9d9" stroke="#1b6e1b" stroke-width="0.5" stroke-linejoin="round" /><polygon points="862.88,528.62 901.85,551.12 898.12,554.12 859.15,531.62" fill="#d9d9d9" stroke="#1b6e1b" stroke-width="0.5" stroke-linejoin="round" /><polygon points="859.15,531.62 898.12,554.12 894.39,555.42 855.42,532.92" fill="#d9d9d9" stroke="#1b6e1b" stroke-width="0.5" stroke-linejoin="round" /><polygon points="855.42,532.92 894.39,555.42 891.23,554.81 852.26,532.31" fill="#d9d9d9" stroke="#1b6e1b" stroke-width="0.5" stroke-linejoin="round" /><polygon points="852.26,532.31 891.23,554.81 889.12,552.38 850.15,529.88" fill="#d9d9d9" stroke="#1b6e1b" stroke-width="0.5" stroke-linejoin="round" /><polygon points="850.15,529.88 889.12,552.38 888.38,548.50 849.41,526.00" fill="#d9d9d9" stroke="#1b6e1b" stroke-width="0.5" stroke-linejoin="round" /><polygon points="849.41,526.00 850.15,521.27 852.26,516.40 855.42,512.13 859.15,509.12 862.88,507.83 866.04,508.44 868.15,510.87 868.89,514.75 868.15,519.48 866.04,524.35 862.88,528.62 859.15,531.62 855.42,532.92 852.26,532.31 850.15,529.88" fill="#a6a6a6" stroke="#1b6e1b" stroke-width="0.5" stroke-linejoin="round" />
    </svg>