<svg xmlns="http://www.w3.org/2000/svg" width="1000" height="800" viewBox="0 0 1000 800" style="background-color:#1e1e1e">
    <rect width="1000" height="800" fill="#1e1e1e" /><polygon points="814.89,680.67 803.63,686.12 803.63,702.12 814.89,696.67" fill="#4a634a" stroke="#2a352a" stroke-width="0.5" stroke-linejoin="round" /><polygon points="488.74,469.45 803.63,686.12 803.63,702.12 488.74,485.45" fill="#6b8c6b" stroke="#2a352a" stroke-width="0.5" stroke-linejoin="round" /><polygon points="500.00,464.00 814.89,680.67 803.63,686.12 488.74,469.45" fill="#8cae8c" stroke="#2a352a" stroke-width="0.5" stroke-linejoin="round" /><polygon points="736.08,718.85 724.83,724.30 724.83,740.30 736.08,734.85" fill="#4a634a" stroke="#2a352a" stroke-width="0.5" stroke-linejoin="round" /><polygon points="409.93,507.63 724.83,724.30 724.83,740.30 409.93,523.63" fill="#6b8c6b" stroke="#2a352a" stroke-width="0.5" stroke-linejoin="round" /><polygon points="421.19,502.18 736.08,718.85 724.83,724.30 409.93,507.63" fill="#8cae8c" stroke="#2a352a" stroke-width="0.5" stroke-linejoin="round" /><polygon points="535.98,505.95 468.43,538.68 468.43,546.68 535.98,513.95" fill="#4a634a" stroke="#2a352a" stroke-width="0.5" stroke-linejoin="round" /><polygon points="452.68,527.85 468.43,538.68 468.43,546.68 452.68,535.85" fill="#6b8c6b" stroke="#2a352a" stroke-width="0.5" stroke-linejoin="round" /><polygon points="520.23,495.12 535.98,505.95 468.43,538.68 452.68,527.85" fill="#8cae8c" stroke="#2a352a" stroke-width="0.5" stroke-linejoin="round" /><polygon points="756.40,657.62 688.85,690.35 688.85,698.35 756.40,665.62" fill="#4a634a" stroke="#2a352a" stroke-width="0.5" stroke-linejoin="round" /><polygon points="673.11,679.52 688.85,690.35 688.85,698.35 673.11,687.52" fill="#6b8c6b" stroke="#2a352a" stroke-width="0.5" stroke-linejoin="round" /><polygon points="740.65,646.79 756.40,657.62 688.85,690.35 673.11,679.52" fill="#8cae8c" stroke="#2a352a" stroke-width="0.5" stroke-linejoin="round" /><polygon points="791.64,593.47 716.59,629.83 716.59,709.83 791.64,673.47" fill="#4a634a" stroke="#2a352a" stroke-width="0.5" stroke-linejoin="round" /><polygon points="622.12,564.83 716.59,629.83 716.59,709.83 622.12,644.83" fill="#6b8c6b" stroke="#2a352a" stroke-width="0.5" stroke-linejoin="round" /><polygon points="697.17,528.47 791.64,593.47 716.59,629.83 622.12,564.83" fill="#8cae8c" stroke="#2a352a" stroke-width="0.5" stroke-linejoin="round" /><polygon points="745.14,555.08 700.11,576.89 700.11,600.89 745.14,579.08" fill="#4a634a" stroke="#2a352a" stroke-width="0.5" stroke-linejoin="round" /><polygon points="652.87,544.39 700.11,576.89 700.11,600.89 652.87,568.39" fill="#6b8c6b" stroke="#2a352a" stroke-width="0.5" stroke-linejoin="round" /><polygon points="697.91,522.58 745.14,555.08 700.11,576.89 652.87,544.39" fill="#8cae8c" stroke="#2a352a" stroke-width="0.5" stroke-linejoin="round" /><polygon points="670.17,543.09 617.63,568.55 617.63,628.55 670.17,603.09" fill="#4a634a" stroke="#2a352a" stroke-width="0.5" stroke-linejoin="round" /><polygon points="460.19,460.21 617.63,568.55 617.63,628.55 460.19,520.21" fill="#6b8c6b" stroke="#2a352a" stroke-width="0.5" stroke-linejoin="round" /><polygon points="512.73,434.76 670.17,543.09 617.63,568.55 460.19,460.21" fill="#8cae8c" stroke="#2a352a" stroke-width="0.5" stroke-linejoin="round" /><polygon points="673.92,517.27 651.41,528.18 651.41,552.18 673.92,541.27" fill="#4a634a" stroke="#2a352a" stroke-width="0.5" stroke-linejoin="round" /><polygon points="493.96,419.85 651.41,528.18 651.41,552.18 493.96,443.85" fill="#6b8c6b" stroke="#2a352a" stroke-width="0.5" stroke-linejoin="round" /><polygon points="516.48,408.94 673.92,517.27 651.41,528.18 493.96,419.85" fill="#8cae8c" stroke="#2a352a" stroke-width="0.5" stroke-linejoin="round" /><polygon points="636.40,535.46 613.88,546.36 613.88,570.36 636.40,559.46" fill="#4a634a" stroke="#2a352a" stroke-width="0.5" stroke-linejoin="round" /><polygon points="456.43,438.03 613.88,546.36 613.88,570.36 456.43,462.03" fill="#6b8c6b" stroke="#2a352a" stroke-width="0.5" stroke-linejoin="round" /><polygon points="478.95,427.12 636.40,535.46 613.88,546.36 456.43,438.03" fill="#8cae8c" stroke="#2a352a" stroke-width="0.5" stroke-linejoin="round" /><polygon points="515.74,374.83 425.68,418.47 425.68,518.47 515.74,474.83" fill="#4a634a" stroke="#2a352a" stroke-width="0.5" stroke-linejoin="round" /><polygon points="394.19,396.80 425.68,418.47 425.68,518.47 394.19,496.80" fill="#6b8c6b" stroke="#2a352a" stroke-width="0.5" stroke-linejoin="round" /><polygon points="484.26,353.17 515.74,374.83 425.68,418.47 394.19,396.80" fill="#8cae8c" stroke="#2a352a" stroke-width="0.5" stroke-linejoin="round" /><polygon points="618.78,533.53 620.03,527.92 623.47,522.60 628.16,518.99 632.85,518.05 636.28,520.05 637.54,524.44 636.28,530.05 632.85,535.37 628.16,538.99 623.47,539.92 620.03,537.92" fill="#7a997a" stroke="#2a352a" stroke-width="0.5" stroke-linejoin="round" /><polygon points="492.82,446.86 618.78,533.53 620.03,527.92 494.08,441.25" fill="#7a997a" stroke="none" stroke-width="0" stroke-linejoin="round" /><polygon points="494.08,441.25 620.03,527.92 623.47,522.60 497.51,435.93" fill="#7a997a" stroke="none" stroke-width="0" stroke-linejoin="round" /><polygon points="497.51,435.93 623.47,522.60 628.16,518.99 502.20,432.32" fill="#7a997a" stroke="none" stroke-width="0" stroke-linejoin="round" /><polygon points="502.20,432.32 628.16,518.99 632.85,518.05 506.89,431.38" fill="#7a997a" stroke="none" stroke-width="0" stroke-linejoin="round" /><polygon points="506.89,431.38 632.85,518.05 636.28,520.05 510.33,433.38" fill="#7a997a" stroke="none" stroke-width="0" stroke-linejoin="round" /><polygon points="510.33,433.38 636.28,520.05 637.54,524.44 511.58,437.77" fill="#7a997a" stroke="none" stroke-width="0" stroke-linejoin="round" /><polygon points="511.58,437.77 637.54,524.44 636.28,530.05 510.33,443.38" fill="#7a997a" stroke="none" stroke-width="0" stroke-linejoin="round" /><polygon points="510.33,443.38 636.28,530.05 632.85,535.37 506.89,448.71" fill="#7a997a" stroke="none" stroke-width="0" stroke-linejoin="round" /><polygon points="506.89,448.71 632.85,535.37 628.16,538.99 502.20,452.32" fill="#7a997a" stroke="none" stroke-width="0" stroke-linejoin="round" /><polygon points="502.20,452.32 628.16,538.99 623.47,539.92 497.51,453.25" fill="#7a997a" stroke="none" stroke-width="0" stroke-linejoin="round" /><polygon points="497.51,453.25 623.47,539.92 620.03,537.92 494.08,451.25" fill="#7a997a" stroke="none" stroke-width="0" stroke-linejoin="round" /><polygon points="494.08,451.25 620.03,537.92 618.78,533.53 492.82,446.86" fill="#7a997a" stroke="none" stroke-width="0" stroke-linejoin="round" /><polygon points="492.82,446.86 494.08,441.25 497.51,435.93 502.20,432.32 506.89,431.38 510.33,433.38 511.58,437.77 510.33,443.38 506.89,448.71 502.20,452.32 497.51,453.25 494.08,451.25" fill="#7a997a" stroke="#2a352a" stroke-width="0.5" stroke-linejoin="round" /><polygon points="687.86,532.06 650.33,550.24 650.33,582.24 687.86,564.06" fill="#4a634a" stroke="#2a352a" stroke-width="0.5" stroke-linejoin="round" /><polygon points="625.14,532.91 650.33,550.24 650.33,582.24 625.14,564.91" fill="#6b8c6b" stroke="#2a352a" stroke-width="0.5" stroke-linejoin="round" /><polygon points="662.67,514.73 687.86,532.06 650.33,550.24 625.14,532.91" fill="#8cae8c" stroke="#2a352a" stroke-width="0.5" stroke-linejoin="round" /><polygon points="569.67,477.94 571.17,471.21 575.29,464.82 580.92,460.48 586.55,459.37 590.67,461.76 592.18,467.03 590.67,473.76 586.55,480.15 580.92,484.48 575.29,485.60 571.17,483.21" fill="#222222" stroke="#2a352a" stroke-width="0.5" stroke-linejoin="round" /><polygon points="506.69,434.61 569.67,477.94 571.17,471.21 508.20,427.87" fill="#222222" stroke="none" stroke-width="0" stroke-linejoin="round" /><polygon points="508.20,427.87 571.17,471.21 575.29,464.82 512.32,421.49" fill="#222222" stroke="none" stroke-width="0" stroke-linejoin="round" /><polygon points="512.32,421.49 575.29,464.82 580.92,460.48 517.95,417.15" fill="#222222" stroke="none" stroke-width="0" stroke-linejoin="round" /><polygon points="517.95,417.15 580.92,460.48 586.55,459.37 523.57,416.03" fill="#222222" stroke="none" stroke-width="0" stroke-linejoin="round" /><polygon points="523.57,416.03 586.55,459.37 590.67,461.76 527.70,418.43" fill="#222222" stroke="none" stroke-width="0" stroke-linejoin="round" /><polygon points="527.70,418.43 590.67,461.76 592.18,467.03 529.20,423.70" fill="#222222" stroke="none" stroke-width="0" stroke-linejoin="round" /><polygon points="529.20,423.70 592.18,467.03 590.67,473.76 527.70,430.43" fill="#222222" stroke="none" stroke-width="0" stroke-linejoin="round" /><polygon points="527.70,430.43 590.67,473.76 586.55,480.15 523.57,436.82" fill="#222222" stroke="none" stroke-width="0" stroke-linejoin="round" /><polygon points="523.57,436.82 586.55,480.15 580.92,484.48 517.95,441.15" fill="#222222" stroke="none" stroke-width="0" stroke-linejoin="round" /><polygon points="517.95,441.15 580.92,484.48 575.29,485.60 512.32,442.27" fill="#222222" stroke="none" stroke-width="0" stroke-linejoin="round" /><polygon points="512.32,442.27 575.29,485.60 571.17,483.21 508.20,439.87" fill="#222222" stroke="none" stroke-width="0" stroke-linejoin="round" /><polygon points="508.20,439.87 571.17,483.21 569.67,477.94 506.69,434.61" fill="#222222" stroke="none" stroke-width="0" stroke-linejoin="round" /><polygon points="506.69,434.61 508.20,427.87 512.32,421.49 517.95,417.15 523.57,416.03 527.70,418.43 529.20,423.70 527.70,430.43 523.57,436.82 517.95,441.15 512.32,442.27 508.20,439.87" fill="#222222" stroke="#2a352a" stroke-width="0.5" stroke-linejoin="round" />
    </svg>