<svg version="1.1" id="Layer_1" xmlns="http://www.w3.org/2000/svg" xmlns:xlink="http://www.w3.org/1999/xlink" x="0px" y="0px" viewBox="0 0 100 100" xml:space="preserve"><desc>Copyright Opto 22</desc> 
<g>
<g id="shape">
	<path fill="#009cff" d="M94.671,79.83l2.264-6.108v-4.181l-1.065-1.921V52.708l-14.354-7.463l-10.811,5.846v-4.354l-7.673-4.08
		c-1.386-0.423-2.929-0.49-4.568-0.197c-0.349-0.669-0.757-1.309-1.215-1.9l2.091-0.874l1.03-0.547l-1.156-0.614l0.92-0.489
		c0.716-0.384,1.233-1.156,1.424-2.277c0.211-1.247-0.025-2.71-0.577-4.112c1.197-0.652,1.272-1.532,1.247-1.882
		c-0.025-0.354-0.225-1.228-1.535-1.702l-11.461-4.146c-1.364-0.494-3.369-0.371-4.664,0.286l-1.632,0.828
		c-0.266,0.135-0.611,0.217-0.977,0.25V17.41c1.064-0.249,1.869-0.732,2.203-1.35c0.108-0.2,0.162-0.406,0.162-0.614
		c0-0.273-0.046-0.546-0.139-0.813c-0.556-1.597-2.714-2.57-4.811-2.169c-1.374,0.263-2.431,1.042-2.827,2.086
		c-0.109,0.286-0.163,0.582-0.162,0.878v0.005c0.001,0.19,0.047,0.382,0.139,0.568c0.297,0.599,1.021,1.066,1.947,1.336v6.757
		l-0.698-0.371v-0.757c0-1.526-1.055-3.282-2.403-3.999l-0.466-0.248v-4.083l-6.791-3.611L0.391,25.946v31.216v0.959L1.78,58.86
		L0,59.806v2.18L71.494,100L100,84.843v-2.18L94.671,79.83z M35.683,28.043l-0.776-0.412v-3.062l0.776,0.412V28.043z M43.885,26.898
		l1.632-0.828c0.766-0.388,2.197-0.476,3.005-0.184l4.118,1.49l-8.683,4.617l-2.948-1.568c0.522-0.971,0.86-2.029,0.934-3.047
		C42.641,27.338,43.323,27.184,43.885,26.898z M38.473,26.464v0.494c0,0.614-0.239,1.327-0.61,1.969
		c-0.029-0.005-0.058-0.005-0.087-0.009v-2.825L38.473,26.464z M35.633,22.584l-0.726-0.386V21.23
		C35.254,21.602,35.529,22.11,35.633,22.584z"></path>
</g>
<g id="dark">
	<path fill="#0071ba" d="M36.381,37.542c0.187-1.106,0.694-1.867,1.394-2.257V22.966c0-1.526-1.055-3.282-2.403-3.999l-3.035-1.614
		c-0.51-0.272-1.144-0.078-1.415,0.433c-0.271,0.51-0.078,1.144,0.433,1.415l3.035,1.614c0.676,0.36,1.293,1.386,1.293,2.152v14.663
		c0,0.427,0.256,0.793,0.623,0.955C36.301,38.225,36.325,37.875,36.381,37.542z"></path>
	<polygon fill="#0071ba" points="18.051,54.432 18.051,50.575 17.278,50.163 17.278,54.843 20.395,56.5 20.395,55.678 	"></polygon>
	<polygon fill="#0071ba" points="22.633,56.868 22.633,53.011 21.86,52.6 21.86,57.279 24.977,58.936 24.977,58.114 	"></polygon>
	<polygon fill="#0071ba" points="27.215,59.304 27.215,55.447 26.442,55.036 26.442,59.715 29.559,61.373 29.559,60.55 	"></polygon>
	<polygon fill="#0071ba" points="31.797,61.74 31.797,57.883 31.024,57.472 31.024,62.152 34.141,63.809 34.141,62.986 	"></polygon>
	<polygon fill="#0071ba" points="36.379,64.177 36.379,60.32 35.606,59.908 35.606,64.588 38.722,66.245 38.722,65.423 	"></polygon>
	<polygon fill="#0071ba" points="40.961,66.613 40.961,62.756 40.188,62.345 40.188,67.024 43.304,68.681 43.304,67.859 	"></polygon>
	<path fill="#0071ba" d="M12.848,41.924c-0.002,0.227,0.014,0.449,0.05,0.66c0.125,0.734,0.463,1.239,0.932,1.49l9.631,5.121
		c0.664,0.357,1.59,0.206,2.537-0.52c1.422-1.091,2.419-3.115,2.432-4.795V41.73c0.002-0.227-0.014-0.449-0.05-0.66
		c-0.127-0.747-0.474-1.256-0.955-1.503l-9.631-5.121c-0.663-0.34-1.577-0.185-2.513,0.533c-1.423,1.09-2.419,3.115-2.433,4.794
		V41.924z"></path>
	<path fill="#0071ba" d="M28.429,41.73c0.002-0.227-0.014-0.449-0.05-0.66c-0.127-0.747-0.474-1.256-0.955-1.503
		c-0.663-0.34-1.577-0.185-2.513,0.533c-1.423,1.09-2.419,3.115-2.433,4.794"></path>
	<path fill="#0071ba" d="M56.1,74.708l-3.141-5.667v-4.18l3.46-9.334l10.839-5.763l3.448,1.886v-4.912
		c-3.375-1.031-7.675,0.014-12.062,3.379c-2.22,1.702-4.238,3.837-5.994,6.221v18.89c1.427,0.436,3.021,0.496,4.716,0.171
		L56.1,74.708z"></path>
	<polygon fill="#0071ba" points="64.078,75.122 67.219,80.789 56.1,74.708 52.959,69.041 	"></polygon>
	<polygon fill="#0071ba" points="81.573,88.252 78.432,82.585 64.078,75.122 67.219,80.789 	"></polygon>
	<path fill="#0071ba" d="M37.482,33.888v-2.616c0-0.153,0.025-0.24,0.043-0.281c0.044,0.004,0.132,0.022,0.268,0.094l3.936,2.093
		l2.229-1.185l-5.182-2.756c-0.817-0.434-1.668-0.453-2.335-0.052c-0.667,0.401-1.05,1.161-1.05,2.086v2.616
		c0,0.578,0.468,1.046,1.046,1.046S37.482,34.466,37.482,33.888z"></path>
	<path fill="#0071ba" d="M62.229,29.766c-0.025-0.354-0.225-1.228-1.535-1.702l-11.461-4.146c-1.364-0.494-3.369-0.371-4.664,0.286
		l-1.632,0.828c-0.723,0.367-2.033,0.355-2.749-0.026l-11.26-5.987c-0.51-0.272-1.144-0.078-1.415,0.433
		c-0.271,0.51-0.078,1.144,0.433,1.415l11.26,5.987c1.327,0.705,3.339,0.725,4.679,0.044l1.632-0.828
		c0.766-0.388,2.197-0.476,3.005-0.184l4.118,1.49l1.439-0.765c1.012-0.52,2.41-0.282,3.839,0.815
		c1.332,1.021,2.416,2.579,3.064,4.222C62.179,30.996,62.254,30.116,62.229,29.766z"></path>
	<path fill="#0071ba" d="M28.13,61.83l1.109,0.629c0.325,0.177,0.655,0.392,0.986,0.646c1.902,1.458,3.386,3.835,4.046,6.204
		c0.237,0.851,5.88,3.207,7.051,3.99l4.318-2.159L28.13,61.83z"></path>
	<path fill="#0071ba" d="M22.403,49.438l-1.802,0.958c-0.106,0.057-0.179,0.076-0.221,0.082c-0.018-0.045-0.044-0.136-0.044-0.293
		v-2.651l-2.093-1.113v3.763c0,0.935,0.384,1.701,1.053,2.103c0.316,0.19,0.673,0.285,1.047,0.285c0.403,0,0.826-0.11,1.239-0.329
		l1.802-0.958c0.51-0.271,0.704-0.905,0.433-1.415C23.547,49.361,22.914,49.166,22.403,49.438z"></path>
	<path fill="#0071ba" d="M24.454,40.498l2.63-1.053c-0.619-0.15-1.387,0.052-2.172,0.654C24.753,40.221,24.601,40.356,24.454,40.498
		z"></path>
	<path fill="#0071ba" d="M28.429,41.73c0.002-0.227-0.014-0.449-0.05-0.66c-0.127-0.747-0.474-1.256-0.955-1.503
		c-0.663-0.34-1.577-0.185-2.513,0.533c-1.423,1.09-2.419,3.115-2.433,4.794"></path>
	<polygon fill="#0071ba" points="93.795,63.874 82.956,69.637 79.497,78.971 79.497,83.151 82.638,88.818 93.476,83.055 
		96.935,73.721 96.935,69.541 	"></polygon>
</g>
<g id="light">
	<path fill="#3bbeff" d="M94.671,79.83l-1.196,3.226l-10.838,5.763l-1.065-0.566l-1.037-0.539l-12.469,6.63l-3.712-1.974V91.41
		l11.515-6.123l-8.652-4.498l-4.273-2.337l-12.382,6.584l-3.712-1.974v-0.959l11.545-6.139L57.365,75.4
		c-1.695,0.325-3.289,0.265-4.716-0.171l-2.904-1.544l-4.158,2.211l0.338,0.18v4.472L43,82.104l-2.925-1.555v-4.472l1.345-0.715
		v-2.11l-0.099,0.049c-1.171-0.783-6.814-3.14-7.051-3.99c-0.66-2.37-2.143-4.746-4.046-6.204c-0.331-0.254-0.661-0.468-0.986-0.646
		L28.13,61.83l-7.752-4.122L15.88,60.1l0.512,0.272v4.472L13.467,66.4l-2.925-1.555v-4.472l1.172-0.623v-1.415l-4.531,2.439
		l-4.5-2.393L0,59.806L71.494,97.82L100,82.663L94.671,79.83z"></path>
	<path fill="#3bbeff" d="M31.752,42.084c-0.79,0.106-1.397,0.422-1.625,0.844c-0.063,0.116-0.094,0.235-0.093,0.355
		c0,0.109,0.027,0.219,0.08,0.327c0.325,0.657,1.54,1.042,2.766,0.877c0.79-0.106,1.397-0.422,1.626-0.844
		c0.062-0.115,0.093-0.234,0.093-0.353c0-0.11-0.027-0.221-0.08-0.329C34.198,42.316,32.957,41.922,31.752,42.084z"></path>
	<path fill="#3bbeff" d="M35.158,43.896c-0.971,0.131-1.719,0.519-1.999,1.038c-0.077,0.142-0.115,0.289-0.115,0.437
		c0,0.135,0.033,0.27,0.098,0.402c0.4,0.808,1.894,1.282,3.402,1.079c0.971-0.131,1.719-0.519,1.999-1.038
		c0.077-0.142,0.115-0.287,0.115-0.434c0-0.136-0.033-0.272-0.098-0.404C38.166,44.18,36.64,43.696,35.158,43.896z"></path>
	<path fill="#3bbeff" d="M24.24,49.377c-0.284,0.002-0.549-0.057-0.78-0.181l-1.347-0.716c-0.11,0.13-0.193,0.302-0.23,0.525
		c-0.037,0.218-0.028,0.458,0.015,0.703l0.505-0.268c0.511-0.272,1.144-0.078,1.415,0.433c0.271,0.51,0.078,1.144-0.433,1.415
		l-0.445,0.237c0.024,0.02,0.045,0.044,0.07,0.062c0.448,0.343,0.886,0.415,1.2,0.246c0.222-0.119,0.382-0.358,0.441-0.705
		C24.741,50.594,24.57,49.937,24.24,49.377z"></path>
	<path fill="#3bbeff" d="M41.363,50.67l-1.507,0.801v5.702l3.738,1.987l1.507-0.801v-5.702L41.363,50.67z M42.902,55.816
		c-0.05,0.297-0.187,0.501-0.377,0.603c-0.269,0.144-0.643,0.083-1.026-0.21c-0.653-0.501-1.085-1.489-0.964-2.206
		c0.051-0.302,0.192-0.508,0.386-0.608c0.268-0.138,0.638-0.075,1.016,0.216C42.591,54.11,43.023,55.098,42.902,55.816z"></path>
	<polyline fill="#3bbeff" points="88.195,68.161 88.533,68.812 83.934,71.257 83.596,70.932 83.596,70.606 	"></polyline>
	<polyline fill="#3bbeff" points="93.601,65.283 93.939,65.934 89.34,68.38 89.002,68.054 89.002,67.729 	"></polyline>
	<polyline fill="#3bbeff" points="88.195,70.036 88.533,70.687 83.934,73.132 83.596,72.806 83.596,72.481 	"></polyline>
	<polyline fill="#3bbeff" points="93.601,67.158 93.939,67.809 89.34,70.254 89.002,69.929 89.002,69.603 	"></polyline>
	<polyline fill="#3bbeff" points="88.195,71.91 88.533,72.561 83.934,75.006 83.596,74.681 83.596,74.355 	"></polyline>
	<polyline fill="#3bbeff" points="93.601,69.033 93.939,69.684 89.34,72.129 89.002,71.803 89.002,71.478 	"></polyline>
	<polyline fill="#3bbeff" points="88.195,73.785 88.533,74.436 83.934,76.881 83.596,76.556 83.596,76.23 	"></polyline>
	<polyline fill="#3bbeff" points="93.601,70.907 93.939,71.559 89.34,74.004 89.002,73.678 89.002,73.353 	"></polyline>
	<polyline fill="#3bbeff" points="88.195,75.66 88.533,76.311 83.934,78.756 83.596,78.43 83.596,78.105 	"></polyline>
	<polyline fill="#3bbeff" points="93.601,72.782 93.939,73.433 89.34,75.878 89.002,75.553 89.002,75.227 	"></polyline>
	<polyline fill="#3bbeff" points="88.195,77.534 88.533,78.185 83.934,80.63 83.596,80.305 83.596,79.979 	"></polyline>
	<polyline fill="#3bbeff" points="93.601,74.657 93.939,75.308 89.34,77.753 89.002,77.428 89.002,77.102 	"></polyline>
	<polyline fill="#3bbeff" points="88.195,79.409 88.533,80.06 83.934,82.505 83.596,82.18 83.596,81.854 	"></polyline>
	<polyline fill="#3bbeff" points="93.601,76.532 93.939,77.183 89.34,79.628 89.002,79.302 89.002,78.977 	"></polyline>
	<polyline fill="#3bbeff" points="88.195,81.284 88.533,81.935 83.934,84.38 83.596,84.054 83.596,83.729 	"></polyline>
	<polyline fill="#3bbeff" points="93.601,78.406 93.939,79.057 89.34,81.502 89.002,81.177 89.002,80.851 	"></polyline>
	<polyline fill="#3bbeff" points="88.195,83.158 88.533,83.809 83.934,86.254 83.596,85.929 83.596,85.603 	"></polyline>
	<polyline fill="#3bbeff" points="93.601,80.281 93.939,80.932 89.34,83.377 89.002,83.052 89.002,82.726 	"></polyline>
	<path fill="#3bbeff" d="M95.871,52.708l-14.354-7.463l-11.324,6.124l-2.935-1.605l-10.839,5.763l-3.46,9.334l11.119,6.081
		l3.46-9.334l4.882-2.596l6.012,3.126L95.871,52.708z M62.793,66.64l-6.823-3.732l1.809-4.88l6.823,3.732L62.793,66.64z"></path>
	<polygon fill="#3bbeff" points="0.391,25.946 7.182,29.557 34.907,14.636 28.116,11.025 	"></polygon>
	<path fill="#3bbeff" d="M52.649,56.339c1.756-2.384,3.774-4.52,5.994-6.221l-7.673-4.08c-2.22,1.702-4.238,3.837-5.994,6.221
		L52.649,56.339z"></path>
	<path fill="#3bbeff" d="M57.918,27.426c-1.429-1.097-2.827-1.335-3.839-0.815l-16.238,8.634c1.012-0.52,2.41-0.282,3.839,0.815
		c0.833,0.638,1.567,1.489,2.161,2.437l16.238-8.634C59.485,28.915,58.751,28.064,57.918,27.426z"></path>
	<rect x="7.008" y="29.557" fill="#3bbeff" width="0.349" height="28.396"></rect>
	<polyline fill="#3bbeff" points="46.718,55.837 46.405,56.439 50.657,58.7 50.97,58.399 50.97,58.098 	"></polyline>
	<polyline fill="#3bbeff" points="46.718,57.378 46.405,57.98 50.657,60.241 50.97,59.94 50.97,59.639 	"></polyline>
	<polyline fill="#3bbeff" points="46.718,58.919 46.405,59.521 50.657,61.782 50.97,61.481 50.97,61.18 	"></polyline>
	<polyline fill="#3bbeff" points="46.718,60.46 46.405,61.062 50.657,63.323 50.97,63.022 50.97,62.721 	"></polyline>
	<polyline fill="#3bbeff" points="46.718,62 46.405,62.602 50.657,64.863 50.97,64.562 50.97,64.261 	"></polyline>
	<polyline fill="#3bbeff" points="46.718,63.541 46.405,64.143 50.657,66.404 50.97,66.103 50.97,65.802 	"></polyline>
	<polyline fill="#3bbeff" points="46.718,65.082 46.405,65.684 50.657,67.945 50.97,67.644 50.97,67.343 	"></polyline>
	<polyline fill="#3bbeff" points="46.718,66.623 46.405,67.225 50.657,69.486 50.97,69.185 50.97,68.884 	"></polyline>
	<polyline fill="#3bbeff" points="46.718,68.164 46.405,68.766 50.657,71.026 50.97,70.725 50.97,70.424 	"></polyline>
	<polyline fill="#3bbeff" points="46.718,69.704 46.405,70.306 50.657,72.567 50.97,72.266 50.97,71.965 	"></polyline>
	<path fill="#3bbeff" d="M20.697,34.067c-0.282-0.216-0.557-0.263-0.757-0.161L13.99,37.07c-0.145,0.075-0.249,0.228-0.288,0.453
		c-0.011,0.064-0.016,0.13-0.015,0.199v2.528l1.792,0.953v-2.528l0.823-0.344c0.417-0.752,0.969-1.432,1.609-1.922
		c0.936-0.718,1.851-0.873,2.513-0.533l0.772,0.41l0.233-0.097V35.51C21.426,35.005,21.125,34.395,20.697,34.067z"></path>
	<path fill="#3bbeff" d="M23.601,35.573c-0.282-0.216-0.557-0.263-0.757-0.161l-5.951,3.164c-0.145,0.075-0.25,0.228-0.288,0.453
		c-0.011,0.064-0.015,0.13-0.015,0.199v2.528l1.792,0.953V40.18l0,0l0.815-0.328c0.418-0.758,0.973-1.444,1.618-1.938
		c0.936-0.718,1.851-0.873,2.513-0.533l0.864,0.459l0.141-0.057v-0.767C24.33,36.51,24.029,35.901,23.601,35.573z"></path>
	<path fill="#3bbeff" d="M26.541,37.144c-0.282-0.216-0.557-0.263-0.757-0.161l-5.951,3.164c-0.145,0.075-0.25,0.228-0.288,0.453
		c-0.011,0.064-0.016,0.13-0.015,0.199v2.528l1.792,0.953v-2.528l0,0l0.813-0.326c0.418-0.759,0.974-1.446,1.619-1.941
		c0.936-0.718,1.851-0.873,2.513-0.533l0.88,0.468l0.125-0.05v-0.782C27.27,38.082,26.969,37.472,26.541,37.144z"></path>
</g>
<g id="shadow">

		<path fill="#003e66" d="M36.381,37.542c0.019-0.114,0.044-0.221,0.07-0.328c-2.427,0.126-4.686-0.691-5.335-2.002
			c-0.042-0.084-0.073-0.169-0.1-0.255c0,0,0,0,0,0c-0.05,0.156-0.077,0.314-0.077,0.473c0.001,0.241,0.06,0.484,0.176,0.72
			c0.637,1.287,2.825,2.097,5.2,2.008C36.328,37.948,36.347,37.742,36.381,37.542z"></path>
		<path d="M30.983,34.844c-0.028-0.117-0.043-0.235-0.043-0.352c-0.001-0.186,0.035-0.372,0.103-0.555l-2.443-1.299
			c-2.665,0.326-5.281-0.519-5.988-1.948c-0.117-0.237-0.176-0.479-0.176-0.72c0,0.156-0.001,0.78,0,0.939
			c0.001,0.241,0.06,0.484,0.176,0.72c0.707,1.428,3.323,2.274,5.988,1.948L30.983,34.844
			C30.983,34.844,30.983,34.844,30.983,34.844z" fill="#003e66"></path>

	<path d="M37.008,41.778l-7.998-4.253c-0.565-0.3-1.448-0.3-2.011,0l0.163,0.308c0.456-0.242,1.228-0.243,1.684,0l8.388,4.46
		C37.155,42.123,37.079,41.951,37.008,41.778z" fill="#003e66"></path>
	<path d="M32.166,37.771c-0.364,0-0.728-0.074-1.005-0.221l-4.058-2.158c-0.457-0.243-1.228-0.242-1.684,0l-1.201,0.639
		l-0.163-0.308l1.201-0.639c0.564-0.3,1.447-0.3,2.011,0l4.058,2.158c0.456,0.243,1.228,0.243,1.684,0l0.588-0.313l0.164,0.308
		l-0.588,0.313C32.894,37.697,32.53,37.771,32.166,37.771z" fill="#003e66"></path>
	<path d="M40.188,25.006c0.453,0.241,1.143,0.333,1.772,0.277V17.41c-0.2,0.047-0.407,0.088-0.624,0.118
		c-1.014,0.136-2.022,0.054-2.863-0.191v6.757L40.188,25.006z" fill="#003e66"></path>
	<g fill="#003e66">
		<path d="M38.775,29.237l2.232,1.187c0.522-0.971,0.861-2.029,0.936-3.046c-0.966,0.055-1.966-0.115-2.737-0.525l-0.733-0.39v0.494
			c0,0.614-0.239,1.327-0.61,1.969C38.164,28.973,38.472,29.076,38.775,29.237z" fill="#003e66"></path>
	</g>
	<path d="M33.044,50.79v-0.583c-0.43-0.269-0.801-0.802-0.905-1.279c-0.25-0.01-0.49-0.042-0.715-0.093
		c0.07,0.782,0.646,1.654,1.377,2.043l0.28,0.149C33.059,50.947,33.044,50.868,33.044,50.79z" fill="#003e66"></path>
	<path d="M38.088,53.983l-1.205,0.641c-0.201,0.106-0.382,0.127-0.5,0.058c-0.123-0.074-0.194-0.258-0.194-0.504v-0.503
		c-0.017,0.003-0.031,0.008-0.048,0.01c-0.224,0.03-0.447,0.023-0.65-0.012v0.505c0,0.497,0.194,0.898,0.532,1.102
		c0.155,0.093,0.333,0.14,0.521,0.14c0.214,0,0.441-0.06,0.666-0.179l1.206-0.641c0.17-0.09,0.235-0.301,0.144-0.472
		C38.469,53.957,38.258,53.892,38.088,53.983z" fill="#003e66"></path>
	<g fill="#003e66">
		<g fill="#003e66">
			<polygon fill="#003e66" points="88.533,69.047 88.533,68.812 83.934,71.257 83.596,70.932 83.596,71.672 			"></polygon>
			<polygon fill="#003e66" points="93.939,66.169 93.939,65.934 89.34,68.38 89.002,68.054 89.002,68.794 			"></polygon>
		</g>
		<g fill="#003e66">
			<polygon fill="#003e66" points="88.533,70.921 88.533,70.687 83.934,73.132 83.596,72.806 83.596,73.547 			"></polygon>
			<polygon fill="#003e66" points="93.939,68.044 93.939,67.809 89.34,70.254 89.002,69.929 89.002,70.669 			"></polygon>
		</g>
		<g fill="#003e66">
			<polygon fill="#003e66" points="88.533,72.796 88.533,72.561 83.934,75.006 83.596,74.681 83.596,75.421 			"></polygon>
			<polygon fill="#003e66" points="93.939,69.919 93.939,69.684 89.34,72.129 89.002,71.803 89.002,72.544 			"></polygon>
		</g>
		<g fill="#003e66">
			<polygon fill="#003e66" points="88.533,74.671 88.533,74.436 83.934,76.881 83.596,76.556 83.596,77.296 			"></polygon>
			<polygon fill="#003e66" points="93.939,71.793 93.939,71.559 89.34,74.004 89.002,73.678 89.002,74.418 			"></polygon>
		</g>
		<g fill="#003e66">
			<polygon fill="#003e66" points="88.533,76.545 88.533,76.311 83.934,78.756 83.596,78.43 83.596,79.171 			"></polygon>
			<polygon fill="#003e66" points="93.939,73.668 93.939,73.433 89.34,75.878 89.002,75.553 89.002,76.293 			"></polygon>
		</g>
		<g fill="#003e66">
			<polygon fill="#003e66" points="88.533,78.42 88.533,78.185 83.934,80.63 83.596,80.305 83.596,81.045 			"></polygon>
			<polygon fill="#003e66" points="93.939,75.543 93.939,75.308 89.34,77.753 89.002,77.428 89.002,78.168 			"></polygon>
		</g>
		<g fill="#003e66">
			<polygon fill="#003e66" points="88.533,80.295 88.533,80.06 83.934,82.505 83.596,82.18 83.596,82.92 			"></polygon>
			<polygon fill="#003e66" points="93.939,77.417 93.939,77.183 89.34,79.628 89.002,79.302 89.002,80.043 			"></polygon>
		</g>
		<g fill="#003e66">
			<polygon fill="#003e66" points="88.533,82.169 88.533,81.935 83.934,84.38 83.596,84.054 83.596,84.795 			"></polygon>
			<polygon fill="#003e66" points="93.939,79.292 93.939,79.057 89.34,81.502 89.002,81.177 89.002,81.917 			"></polygon>
		</g>
		<g fill="#003e66">
			<polygon fill="#003e66" points="88.533,84.044 88.533,83.809 83.934,86.254 83.596,85.929 83.596,86.669 			"></polygon>
			<polygon fill="#003e66" points="93.939,81.167 93.939,80.932 89.34,83.377 89.002,83.052 89.002,83.792 			"></polygon>
		</g>
	</g>
	<polygon fill="#003e66" points="46.405,56.656 46.405,56.439 50.657,58.7 50.97,58.399 50.97,59.084 	"></polygon>
	<polygon fill="#003e66" points="46.405,58.197 46.405,57.98 50.657,60.241 50.97,59.94 50.97,60.625 	"></polygon>
	<polygon fill="#003e66" points="46.405,59.738 46.405,59.521 50.657,61.782 50.97,61.481 50.97,62.165 	"></polygon>
	<polygon fill="#003e66" points="46.405,61.279 46.405,61.062 50.657,63.323 50.97,63.022 50.97,63.706 	"></polygon>
	<polygon fill="#003e66" points="46.405,62.82 46.405,62.602 50.657,64.863 50.97,64.562 50.97,65.247 	"></polygon>
	<polygon fill="#003e66" points="46.405,64.36 46.405,64.143 50.657,66.404 50.97,66.103 50.97,66.788 	"></polygon>
	<polygon fill="#003e66" points="46.405,65.901 46.405,65.684 50.657,67.945 50.97,67.644 50.97,68.328 	"></polygon>
	<polygon fill="#003e66" points="46.405,67.442 46.405,67.225 50.657,69.486 50.97,69.185 50.97,69.869 	"></polygon>
	<polygon fill="#003e66" points="46.405,68.983 46.405,68.766 50.657,71.026 50.97,70.725 50.97,71.41 	"></polygon>
	<polygon fill="#003e66" points="46.405,70.523 46.405,70.306 50.657,72.567 50.97,72.266 50.97,72.951 	"></polygon>
	<path d="M21.115,34.554l3.751-1.995l-0.163-0.308l-3.8,2.02C20.982,34.358,21.051,34.452,21.115,34.554z" fill="#003e66"></path>
</g>
<g id="hlight">
	<path fill="#a3daff" d="M38.543,45.814c-0.281,0.519-1.028,0.907-1.999,1.038c-1.508,0.203-3.002-0.271-3.402-1.079
		c-0.065-0.132-0.098-0.267-0.098-0.402c0-0.147,0.038-0.295,0.115-0.437c0.223-0.414,0.746-0.741,1.44-0.925c0,0,0,0,0,0v-0.718
		c0,0.119-0.031,0.238-0.093,0.353c-0.228,0.422-0.836,0.737-1.626,0.844c-1.226,0.165-2.441-0.221-2.766-0.877
		c-0.053-0.107-0.08-0.217-0.08-0.327v4.406c0,0.11,0.027,0.219,0.08,0.327c0.325,0.657,1.54,1.042,2.766,0.877
		c0.057-0.008,0.11-0.019,0.165-0.028v1.924c0,0.135,0.033,0.27,0.098,0.402c0.226,0.457,0.803,0.807,1.533,0.988v0.886
		c0,0.056,0.014,0.113,0.041,0.168c0.167,0.338,0.793,0.537,1.424,0.452c0.407-0.055,0.72-0.217,0.837-0.434
		c0.032-0.059,0.048-0.12,0.048-0.182v-0.892c0.732-0.179,1.285-0.516,1.517-0.944c0.077-0.142,0.115-0.287,0.115-0.434v-5.419
		C38.658,45.526,38.62,45.672,38.543,45.814z"></path>
	<path fill="#a3daff" d="M16.06,49.436c-0.241-0.079-0.476-0.171-0.699-0.29c-1.401-0.752-2.327-2.239-2.676-4.3
		c-0.248-1.467-0.175-3.093,0.163-4.752v-0.32c0.009-1.15,0.479-2.461,1.232-3.524c0.54-1.236,1.209-2.436,1.981-3.548v-0.162
		l0.184-0.098c1.002-1.395,2.167-2.641,3.451-3.625c1.756-1.347,3.536-2.059,5.149-2.059c0.565,0,1.098,0.09,1.592,0.265
		l0.398-0.212c-0.61-0.262-1.276-0.402-1.991-0.402c-1.69,0-3.543,0.737-5.361,2.131c-4.836,3.705-8.039,11.046-7.142,16.363
		c0.369,2.171,1.356,3.744,2.856,4.549c0.273,0.147,0.564,0.257,0.863,0.348V49.436z"></path>
	<g fill="#a3daff">
		<path fill="#a3daff" d="M16.06,33.156c-0.501,0.743-0.952,1.525-1.347,2.331c0.18-0.185,0.369-0.356,0.567-0.508
			c0.042-0.032,0.083-0.056,0.125-0.085c0.205-0.377,0.425-0.746,0.655-1.108V33.156z"></path>
		<path fill="#a3daff" d="M17.57,31.736c0.692-0.809,1.447-1.539,2.254-2.157c1.613-1.238,3.248-1.892,4.729-1.892
			c0.045,0,0.088,0.006,0.133,0.007c0.276-0.098,0.572-0.18,0.886-0.248c-0.327-0.069-0.666-0.108-1.019-0.108
			c-1.558,0-3.266,0.679-4.941,1.964c-1.033,0.791-1.983,1.764-2.826,2.851L17.57,31.736z"></path>
		<path fill="#a3daff" d="M16.06,48.362c-0.075-0.034-0.152-0.064-0.225-0.103c-1.285-0.69-2.134-2.055-2.455-3.947
			c-0.04-0.238-0.069-0.481-0.091-0.727c-0.185-0.26-0.321-0.592-0.39-0.995c-0.003,0.613,0.04,1.209,0.137,1.78
			c0.34,2.002,1.251,3.453,2.635,4.196c0.126,0.068,0.258,0.123,0.39,0.178V48.362z"></path>
	</g>
	<g fill="#a3daff">
		<path fill="#a3daff" d="M19.524,30.697c0.142-0.12,0.283-0.244,0.429-0.356c0.998-0.766,2.004-1.28,2.97-1.535
			c0.141-0.165,0.309-0.319,0.503-0.463c-1.19,0.191-2.447,0.772-3.685,1.721c-0.5,0.383-0.979,0.813-1.433,1.279L19.524,30.697z"></path>
		<path fill="#a3daff" d="M15.847,34.621c0.071-0.038,0.143-0.08,0.213-0.111v-0.246C15.988,34.382,15.916,34.501,15.847,34.621z"></path>
		<path fill="#a3daff" d="M16.06,47.217c-0.922-0.596-1.566-1.606-1.885-2.958l-0.346-0.184c-0.019-0.01-0.037-0.024-0.056-0.035
			c0.329,1.685,1.115,2.921,2.287,3.589V47.217z"></path>
	</g>
	<path fill="#a3daff" d="M16.06,46.071c-0.37-0.342-0.674-0.776-0.908-1.293l-0.485-0.258c0.308,0.853,0.78,1.527,1.393,2.005
		V46.071z"></path>
	<polygon fill="#a3daff" points="41.363,50.67 39.856,51.472 43.593,53.459 45.1,52.657 	"></polygon>
</g>
</g>
</svg>