<svg xmlns="http://www.w3.org/2000/svg" width="1600" height="900" viewBox="0 0 1600 900"><defs><linearGradient id="greenTop" x1="0%" x2="0%" y1="0%" y2="100%"><stop offset="0%" stop-color="#80df55"/><stop offset="55%" stop-color="#58bf3d"/><stop offset="100%" stop-color="#3ea533"/></linearGradient><linearGradient id="greenSide" x1="0%" x2="0%" y1="0%" y2="100%"><stop offset="0%" stop-color="#54bc3d"/><stop offset="100%" stop-color="#2f8f30"/></linearGradient><linearGradient id="greenDark" x1="0%" x2="100%" y1="0%" y2="0%"><stop offset="0%" stop-color="#2d8030"/><stop offset="55%" stop-color="#46a436"/><stop offset="100%" stop-color="#2a7b2f"/></linearGradient><linearGradient id="skidTop" x1="0%" x2="0%" y1="0%" y2="100%"><stop offset="0%" stop-color="#69cd4a"/><stop offset="100%" stop-color="#42a634"/></linearGradient><linearGradient id="skidFront" x1="0%" x2="0%" y1="0%" y2="100%"><stop offset="0%" stop-color="#3a9b32"/><stop offset="100%" stop-color="#2b7d2d"/></linearGradient><linearGradient id="chrome" x1="0%" x2="100%" y1="0%" y2="0%"><stop offset="0%" stop-color="#8f979f"/><stop offset="18%" stop-color="#f5f8fc"/><stop offset="38%" stop-color="#b7c1cb"/><stop offset="56%" stop-color="#f8fafc"/><stop offset="77%" stop-color="#8c949d"/><stop offset="100%" stop-color="#dce3e9"/></linearGradient><linearGradient id="chromeCap" x1="0%" x2="100%" y1="0%" y2="100%"><stop offset="0%" stop-color="#f5f7fb"/><stop offset="100%" stop-color="#8d98a3"/></linearGradient><linearGradient id="pipeGreen" x1="0%" x2="100%" y1="0%" y2="100%"><stop offset="0%" stop-color="#76d551"/><stop offset="100%" stop-color="#3ea235"/></linearGradient><linearGradient id="insWrap" x1="0%" x2="100%" y1="0%" y2="0%"><stop offset="0%" stop-color="#b8bcc2"/><stop offset="45%" stop-color="#f3f4f6"/><stop offset="100%" stop-color="#a8afb8"/></linearGradient><linearGradient id="fanRing" x1="0%" x2="100%" y1="0%" y2="100%"><stop offset="0%" stop-color="#505860"/><stop offset="100%" stop-color="#20252b"/></linearGradient><linearGradient id="badgeRing" x1="0%" x2="100%" y1="0%" y2="100%"><stop offset="0%" stop-color="#e8f8df"/><stop offset="100%" stop-color="#98d27d"/></linearGradient><filter id="dropShadow" width="130%" height="150%" x="-12%" y="-16%"><feGaussianBlur in="SourceAlpha" result="b" stdDeviation="7"/><feOffset dy="8" in="b" result="o"/><feColorMatrix in="o" values="0 0 0 0 0 0 0 0 0 0 0 0 0 0 0 0 0 0 0.35 0"/><feMerge><feMergeNode/><feMergeNode in="SourceGraphic"/></feMerge></filter><filter id="matteNoise" width="120%" height="120%" x="-10%" y="-10%"><feTurbulence baseFrequency=".7" numOctaves="2" result="n" seed="7" type="fractalNoise"/><feColorMatrix in="n" type="saturate" values="0"/><feComponentTransfer><feFuncA tableValues="0 0 0.04 0.08" type="table"/></feComponentTransfer><feBlend in2="SourceGraphic" mode="multiply"/></filter></defs><ellipse cx="780" cy="760" fill="#0000002d" rx="650" ry="70"/><g filter="url(#dropShadow)"><g filter="url(#matteNoise)"><path fill="url(#skidTop)" stroke="#2f8831" stroke-linejoin="round" stroke-width="2" d="m150 648 1088-63 252 57-1090 66z"/><path fill="url(#skidFront)" stroke="#2a732b" stroke-linejoin="round" stroke-width="1.8" d="m400 708 1090-66v110L400 830z"/><path fill="#348f33" stroke="#276f28" stroke-linejoin="round" stroke-width="1.6" d="m150 648 250 60v122l-250-70z"/><path fill="#61c747" stroke="#2e7e31" stroke-linejoin="round" stroke-width="1.2" d="m102 651 48-3 78 19-48 4z"/><path fill="#3f9937" stroke="#2b722d" stroke-linejoin="round" stroke-width="1.1" d="m180 671 48-4v72l-48 13z"/><path fill="#3a8f34" stroke="#2a6c2b" stroke-linejoin="round" stroke-width="1.1" d="m102 651 78 20v81l-78-20z"/><path fill="#2a6d2c" stroke="#2c7a2f" stroke-linejoin="round" stroke-width=".9" d="m205 686 18-2v38l-18 4z"/><path fill="#334139" stroke="#3f4d46" stroke-linejoin="round" d="m430 688 180-10 2 21-180 10zm330-19 194-11 2 20-194 11zm328-18 202-12 2 20-202 12z" opacity=".9"/><path stroke="#3f9438" stroke-linecap="round" stroke-width="3" d="M468 707.9v111.2" opacity=".78"/><path stroke="#8ce06f" stroke-linecap="round" d="M471 709.9v105.2" opacity=".35"/><path stroke="#3f9438" stroke-linecap="round" stroke-width="3" d="M560 702.3v110.3" opacity=".78"/><path stroke="#8ce06f" stroke-linecap="round" d="M563 704.3v104.3" opacity=".35"/><path stroke="#3f9438" stroke-linecap="round" stroke-width="3" d="M670 695.7v109" opacity=".78"/><path stroke="#8ce06f" stroke-linecap="round" d="M673 697.7v103" opacity=".35"/><path stroke="#3f9438" stroke-linecap="round" stroke-width="3" d="M778 689.1V797" opacity=".78"/><path stroke="#8ce06f" stroke-linecap="round" d="M781 691.1V793" opacity=".35"/><path stroke="#3f9438" stroke-linecap="round" stroke-width="3" d="M890 682.3v106.6" opacity=".78"/><path stroke="#8ce06f" stroke-linecap="round" d="M893 684.3v100.6" opacity=".35"/><path stroke="#3f9438" stroke-linecap="round" stroke-width="3" d="M1006 675.3v105.3" opacity=".78"/><path stroke="#8ce06f" stroke-linecap="round" d="M1009 677.3v99.3" opacity=".35"/><path stroke="#3f9438" stroke-linecap="round" stroke-width="3" d="M1122 668.3v104" opacity=".78"/><path stroke="#8ce06f" stroke-linecap="round" d="M1125 670.3v98" opacity=".35"/><path stroke="#3f9438" stroke-linecap="round" stroke-width="3" d="M1238 661.3V764" opacity=".78"/><path stroke="#8ce06f" stroke-linecap="round" d="M1241 663.3V760" opacity=".35"/><path stroke="#3f9438" stroke-linecap="round" stroke-width="3" d="M1352 654.4v101.5" opacity=".78"/><path stroke="#8ce06f" stroke-linecap="round" d="M1355 656.4v95.5" opacity=".35"/><path stroke="#3f9438" stroke-linecap="round" stroke-width="3" d="M1452 648.3v100.4" opacity=".78"/><path stroke="#8ce06f" stroke-linecap="round" d="M1455 650.3v94.4" opacity=".35"/><path stroke="#2b7e31" stroke-linecap="round" stroke-width="5.5" d="M520 702.7v114.7m300-132.8v111.3m268-127.6v108.5m232-122.5v105.9" opacity=".55"/><path fill="#101c14" stroke="#265f2e" stroke-linejoin="round" stroke-width="1.2" d="m642 771 68-4v36l-68 4zm446-28 66-4v36l-66 4z"/><path stroke="#2f6f36" stroke-linecap="round" stroke-width="1.2" d="m646 776 60-4m386-24 58-4" opacity=".4"/><path fill="#4cac3d" stroke="#2d7f31" stroke-width="1.1" d="M760 740c18 19 21 49 13 76l28-2c9-31 5-63-13-81Zm286-18c18 20 22 48 15 74l28-2c8-28 4-60-13-79Z"/><path fill="none" stroke="#1f5d24" stroke-width="5" d="M404 820c318-22 682-43 1082-72" opacity=".45"/><path fill="url(#greenTop)" stroke="#44a33a" stroke-linejoin="round" stroke-width="1.8" d="m160 445 460-15 170 42-460 18z"/><path fill="url(#greenSide)" stroke="#2d8530" stroke-linejoin="round" stroke-width="1.6" d="m330 490 460-18v148l-460 30z"/><path fill="url(#greenDark)" stroke="#2d7d2f" stroke-linejoin="round" stroke-width="1.3" d="m160 445 170 45v160l-170-35z"/><path fill="#69d04b" stroke="#4ba43f" stroke-linejoin="round" stroke-width="1.4" d="m200 382 412-12 180 35-412 13z"/><path fill="#4cae3d" stroke="#358735" stroke-linejoin="round" stroke-width="1.2" d="m380 418 412-13v65l-412 16z"/><path fill="#54b845" stroke="#38873a" stroke-linejoin="round" stroke-width="1.1" d="m200 382 180 36v68l-180-34z"/><ellipse cx="160" cy="560" fill="url(#greenDark)" stroke="#2f7d30" stroke-width="1.4" rx="88" ry="96"/><ellipse cx="148" cy="560" fill="#46a337" stroke="#2d7e2d" rx="62" ry="68"/><ellipse cx="120" cy="560" fill="url(#greenSide)" stroke="#337f31" rx="20" ry="62"/><circle cx="108" cy="560" r="11" fill="#87d563" stroke="#2f7d30"/><path fill="#338e35" stroke="#2a7030" stroke-linejoin="round" d="m300 505 122-5 4 98-122 7z"/><path stroke="#195a22" stroke-linecap="round" stroke-width="2.4" d="m303 505 116-5m-115.6 14.1 116-5.2m-115.7 14.3 116-5.4m-115.6 14.5 116-5.6m-115.6 14.7 116-5.8m-115.7 14.9 116-6m-115.6 15 116-6m-115.7 15.1 116-6.2m-115.6 15.3 116-6.4m-115.6 15.5 116-6.6m-115.7 15.7 116-6.8M307 605l116-7" opacity=".8"/><path fill="#55b648" stroke="#2b7f32" stroke-linejoin="round" d="m640 430 150-5v27l-150 6z"/><circle cx="657" cy="441" r="8" fill="#e7edf6" stroke="#6f7f8f"/><circle cx="657" cy="441" r="4" fill="#1675bf"/><circle cx="690" cy="440.2" r="8" fill="#e7edf6" stroke="#6f7f8f"/><circle cx="690" cy="440.2" r="4" fill="#1675bf"/><circle cx="723" cy="439.4" r="8" fill="#e7edf6" stroke="#6f7f8f"/><circle cx="723" cy="439.4" r="4" fill="#1675bf"/><circle cx="756" cy="438.6" r="8" fill="#e7edf6" stroke="#6f7f8f"/><circle cx="756" cy="438.6" r="4" fill="#1675bf"/><path fill="url(#greenTop)" stroke="#4da640" stroke-linejoin="round" stroke-width="1.6" d="m790 472 675-38 80 28-675 38z"/><path fill="url(#greenSide)" stroke="#2d8030" stroke-linejoin="round" stroke-width="1.4" d="m870 500 675-38v128l-675 30z"/><path fill="url(#greenDark)" stroke="#266b29" stroke-linejoin="round" stroke-width="1.3" d="m860 620 650-35v88l-650 39z"/><path fill="#5fc548" stroke="#368637" stroke-linejoin="round" d="m900 508 30-1.8V610l-30 2z"/><path stroke="#87df68" stroke-linecap="round" stroke-width="1.5" d="m904 520 22-2" opacity=".8"/><path fill="#5fc548" stroke="#368637" stroke-linejoin="round" d="m943 506 30-1.8V608l-30 2z"/><path stroke="#87df68" stroke-linecap="round" stroke-width="1.5" d="m947 518 22-2" opacity=".8"/><path fill="#5fc548" stroke="#368637" stroke-linejoin="round" d="m986 504 30-1.8V606l-30 2z"/><path stroke="#87df68" stroke-linecap="round" stroke-width="1.5" d="m990 516 22-2" opacity=".8"/><path fill="#5fc548" stroke="#368637" stroke-linejoin="round" d="m1029 502 30-1.8V604l-30 2z"/><path stroke="#87df68" stroke-linecap="round" stroke-width="1.5" d="m1033 514 22-2" opacity=".8"/><path fill="#5fc548" stroke="#368637" stroke-linejoin="round" d="m1072 500 30-1.8V602l-30 2z"/><path stroke="#87df68" stroke-linecap="round" stroke-width="1.5" d="m1076 512 22-2" opacity=".8"/><path fill="#5fc548" stroke="#368637" stroke-linejoin="round" d="m1115 498 30-1.8V600l-30 2z"/><path stroke="#87df68" stroke-linecap="round" stroke-width="1.5" d="m1119 510 22-2" opacity=".8"/><path fill="#5fc548" stroke="#368637" stroke-linejoin="round" d="m1158 496 30-1.8V598l-30 2z"/><path stroke="#87df68" stroke-linecap="round" stroke-width="1.5" d="m1162 508 22-2" opacity=".8"/><path fill="#5fc548" stroke="#368637" stroke-linejoin="round" d="m1201 494 30-1.8V596l-30 2z"/><path stroke="#87df68" stroke-linecap="round" stroke-width="1.5" d="m1205 506 22-2" opacity=".8"/><path fill="#5fc548" stroke="#368637" stroke-linejoin="round" d="m1244 492 30-1.8V594l-30 2z"/><path stroke="#87df68" stroke-linecap="round" stroke-width="1.5" d="m1248 504 22-2" opacity=".8"/><path fill="#5fc548" stroke="#368637" stroke-linejoin="round" d="m1287 490 30-1.8V592l-30 2z"/><path stroke="#87df68" stroke-linecap="round" stroke-width="1.5" d="m1291 502 22-2" opacity=".8"/><path fill="#5fc548" stroke="#368637" stroke-linejoin="round" d="m1330 488 30-1.8V590l-30 2z"/><path stroke="#87df68" stroke-linecap="round" stroke-width="1.5" d="m1334 500 22-2" opacity=".8"/><path fill="#5fc548" stroke="#368637" stroke-linejoin="round" d="m1373 486 30-1.8V588l-30 2z"/><path stroke="#87df68" stroke-linecap="round" stroke-width="1.5" d="m1377 498 22-2" opacity=".8"/><path fill="#5fc548" stroke="#368637" stroke-linejoin="round" d="m1416 484 30-1.8V586l-30 2z"/><path stroke="#87df68" stroke-linecap="round" stroke-width="1.5" d="m1420 496 22-2" opacity=".8"/><path fill="none" stroke="#1a63b5" stroke-linecap="round" stroke-width="6" d="M878 470c162-8 302-16 452-24"/><circle cx="892" cy="470" r="5" fill="#6db7ff" stroke="#1f5ea7" stroke-width=".8"/><circle cx="929" cy="468" r="5" fill="#6db7ff" stroke="#1f5ea7" stroke-width=".8"/><circle cx="966" cy="466" r="5" fill="#6db7ff" stroke="#1f5ea7" stroke-width=".8"/><circle cx="1003" cy="464" r="5" fill="#6db7ff" stroke="#1f5ea7" stroke-width=".8"/><circle cx="1040" cy="462" r="5" fill="#6db7ff" stroke="#1f5ea7" stroke-width=".8"/><circle cx="1077" cy="460" r="5" fill="#6db7ff" stroke="#1f5ea7" stroke-width=".8"/><circle cx="1114" cy="458" r="5" fill="#6db7ff" stroke="#1f5ea7" stroke-width=".8"/><circle cx="1151" cy="456" r="5" fill="#6db7ff" stroke="#1f5ea7" stroke-width=".8"/><circle cx="1188" cy="454" r="5" fill="#6db7ff" stroke="#1f5ea7" stroke-width=".8"/><circle cx="1225" cy="452" r="5" fill="#6db7ff" stroke="#1f5ea7" stroke-width=".8"/><circle cx="1262" cy="450" r="5" fill="#6db7ff" stroke="#1f5ea7" stroke-width=".8"/><circle cx="1299" cy="448" r="5" fill="#6db7ff" stroke="#1f5ea7" stroke-width=".8"/></g><rect width="304" height="58" x="872" y="348" fill="url(#chrome)" stroke="#7d8488" stroke-width="1.2" rx="29"/><circle cx="872" cy="377" r="29" fill="url(#chromeCap)" stroke="#7d8488" stroke-width="1.1"/><circle cx="1176" cy="377" r="29" fill="url(#chromeCap)" stroke="#7d8488" stroke-width="1.1"/><rect width="56" height="42" x="822" y="355" fill="url(#chromeCap)" stroke="#8c959e" rx="21"/><rect width="34" height="34" x="790" y="360" fill="#7f8790" stroke="#6e7781" rx="16"/><circle cx="756" cy="377" r="29" fill="url(#fanRing)" stroke="#7a8389"/><circle cx="756" cy="377" r="20.9" fill="#d8dde1" stroke="#8a929a"/><circle cx="756" cy="377" r="4.6" fill="#97a0a8" stroke="#6d757f" stroke-width=".8"/><path fill="#f1f4f7" d="m756 377 19.1-1.4a17.4 17.4 0 0 0-11-10.2Zm0 0 10.762 15.841a17.4 17.4 0 0 0 3.334-14.626Zm0 0-8.338 17.241a17.4 17.4 0 0 0 14.334-4.426Zm0 0-19.1 1.4a17.4 17.4 0 0 0 11 10.2Zm0 0-10.762-15.841a17.4 17.4 0 0 0-3.334 14.626Zm0 0 8.338-17.241a17.4 17.4 0 0 0-14.334 4.426Z" opacity=".9"/><circle cx="812" cy="377" r="29" fill="url(#fanRing)" stroke="#7a8389"/><circle cx="812" cy="377" r="20.9" fill="#d8dde1" stroke="#8a929a"/><circle cx="812" cy="377" r="4.6" fill="#97a0a8" stroke="#6d757f" stroke-width=".8"/><path fill="#f1f4f7" d="m812 377 19.1-1.4a17.4 17.4 0 0 0-11-10.2Zm0 0 10.762 15.841a17.4 17.4 0 0 0 3.334-14.626Zm0 0-8.338 17.241a17.4 17.4 0 0 0 14.334-4.426Zm0 0-19.1 1.4a17.4 17.4 0 0 0 11 10.2Zm0 0-10.762-15.841a17.4 17.4 0 0 0-3.334 14.626Zm0 0 8.338-17.241a17.4 17.4 0 0 0-14.334 4.426Z" opacity=".9"/><path fill="none" stroke="#ffffff9a" stroke-width="2.4" d="M896 364c84-6 170-4 270 4"/><path stroke="#8d97a2" stroke-linecap="round" d="m916 354 4 46m10-46 4 46m10-46 4 46m10-46 4 46m10-46 4 46m10-46 4 46m10-46 4 46m10-46 4 46m10-46 4 46m10-46 4 46m10-46 4 46m10-46 4 46" opacity=".34"/><text x="1032" y="381" fill="#1b1f24" font-family="Segoe UI, Arial, sans-serif" font-size="34" font-weight="700" letter-spacing="1" text-anchor="middle">JENBACHER</text><text x="1032" y="399" fill="#313742" font-family="Segoe UI, Arial, sans-serif" font-size="12" font-weight="700" text-anchor="middle">H2 READY</text><path fill="#d7dce2" stroke="#9ea7b0" stroke-linejoin="round" d="m866 422 44-2 8 128-44 6z"/><path stroke="#b0b7c0" stroke-linecap="round" stroke-width="1.2" d="m866 422 44-2m-42.9 20.9 44-2.6m-42.8 21.4 44-3.1m-42.9 22 44-3.7m-42.8 22.5 44-4.3m-42.9 23.2 44-4.9m-42.8 23.7 44-5.4M874 554l44-6" opacity=".62"/><path fill="#c3cad3" stroke="#919aa4" stroke-linejoin="round" d="m910 420 16 6 8 126-16-4z"/><path fill="#d6dce3" stroke="#9ba5af" stroke-linejoin="round" d="m938 424 14-1 2 125-14 2z"/><path fill="none" stroke="url(#pipeGreen)" stroke-linecap="round" stroke-width="38" d="M1168 409c74 2 140 8 204 15"/><path fill="none" stroke="#b7f69a" stroke-width="3.2" d="M1172 397c73 3 135 9 193 15" opacity=".45"/><circle cx="1168" cy="409" r="25" fill="url(#chromeCap)" stroke="#7f8892" stroke-width="1.2"/><circle cx="1168" cy="409" r="17" fill="url(#pipeGreen)" stroke="#3e9838"/><circle cx="1372" cy="424" r="29" fill="url(#chromeCap)" stroke="#7f8892" stroke-width="1.2"/><circle cx="1372" cy="424" r="20" fill="#50b441" stroke="#3c9637"/><path fill="none" stroke="url(#chromeCap)" stroke-linecap="round" stroke-width="18" d="M1402 422c48-12 80-23 106-31"/><circle cx="1496" cy="394" r="14" fill="#727a84" stroke="#5e6670"/><path fill="none" stroke="#2f343a" stroke-linecap="round" stroke-width="15" d="M1502 391c28-10 43-11 60-7"/><path fill="none" stroke="url(#insWrap)" stroke-linecap="round" stroke-width="36" d="M920 526c160-8 290-16 418-23"/><path stroke="#8c939b" stroke-linecap="round" stroke-width="2" d="m952 509 7 28m33-29.2 7 28m33-29.3 7 28m33-29.3 7 28m33-29.2 7 28m33-29.2 7 28m33-29.3 7 28m33-29.3 7 28m33-29.2 7 28m33-29.2 7 28" opacity=".42"/><path fill="none" stroke="url(#insWrap)" stroke-linecap="round" stroke-width="24" d="M1338 503c30-14 50-35 66-59"/><circle cx="700" cy="504" r="36" fill="none" stroke="url(#badgeRing)" stroke-width="4.2"/><circle cx="700" cy="504" r="24" fill="none" stroke="#d8f2ca" stroke-width="2"/><text x="700" y="513" fill="#eaf9e1" font-family="Segoe UI, Arial, sans-serif" font-size="34" font-weight="800" text-anchor="middle">H2</text><text x="700" y="473" fill="#d8f4c9" font-family="Segoe UI, Arial, sans-serif" font-size="15" font-weight="600" text-anchor="middle">ready for</text><path fill="#5bbd48" stroke="#327f34" stroke-linejoin="round" stroke-width="1.2" d="m1450 476 66-6v210l-66 8z"/><path fill="#2f8a30" stroke="#286f2b" stroke-linejoin="round" d="m1516 470 32 12v206l-32-8z"/><path stroke="#2d7f30" stroke-linecap="round" stroke-width="2" d="m1458 488 52-2m-52 18 52-2m-52 18 52-2m-52 18 52-2m-52 18 52-2m-52 18 52-2m-52 18 52-2m-52 18 52-2m-52 18 52-2m-52 18 52-2m-52 18 52-2m-52 18 52-2" opacity=".65"/><path fill="none" stroke="#1f232a" stroke-linecap="round" stroke-width="7" d="M1076 590c14 32 12 56 22 76"/><path fill="none" stroke="#171c22" stroke-linecap="round" stroke-width="6" d="M1126 588c14 32 4 50 22 76"/><path fill="none" stroke="#14191f" stroke-linecap="round" stroke-width="7" d="M1322 602c38-2 68 0 106 10"/><path fill="none" stroke="#0f141a" stroke-linecap="round" stroke-width="6" d="M1400 602c12 18 28 38 58 46"/><text x="1300" y="640" fill="#e1f6d6" font-family="Segoe UI, Arial, sans-serif" font-size="17" font-weight="700" opacity=".9" text-anchor="middle">HYDROGEN</text><circle cx="1258" cy="635" r="9" fill="none" stroke="#d4efc7" stroke-width="2"/><circle cx="1262" cy="635" r="4" fill="#d4efc7"/><path fill="none" stroke="#b6f58f" stroke-width="4" d="M170 456c250-26 452-24 612 16" opacity=".35"/><path fill="none" stroke="#baf798" stroke-width="3.2" d="M875 510c170-12 355-23 565-40" opacity=".28"/><path fill="none" stroke="#173f1f" stroke-width="4" d="M382 700c378-22 743-45 1096-64" opacity=".45"/></g></svg>