<svg xmlns="http://www.w3.org/2000/svg" width="1400" height="900" viewBox="0 0 1400 900" shape-rendering="geometricPrecision">
<defs>
  <linearGradient id="bgGradient" x1="0%" y1="0%" x2="0%" y2="100%">
    <stop offset="0%" stop-color="#0B1018"/>
    <stop offset="100%" stop-color="#182433"/>
  </linearGradient>
  <filter id="softShadow" x="-50%" y="-50%" width="200%" height="200%">
    <feGaussianBlur in="SourceAlpha" stdDeviation="2.2" result="blur"/>
    <feOffset dx="1.6" dy="2.2" result="offset"/>
    <feMerge>
      <feMergeNode in="offset"/>
      <feMergeNode in="SourceGraphic"/>
    </feMerge>
  </filter>
</defs>
<rect x="0.00" y="0.00" width="1400.00" height="900.00" fill="url(#bgGradient)" fill-opacity="1.000" stroke="none" stroke-width="0.00" />
<line x1="509.70" y1="-18.00" x2="-519.13" y2="576.00" stroke="#27415A" stroke-opacity="0.220" stroke-width="0.70" />
<line x1="556.47" y1="9.00" x2="-472.37" y2="603.00" stroke="#35506B" stroke-opacity="0.400" stroke-width="1.10" />
<line x1="603.23" y1="36.00" x2="-425.60" y2="630.00" stroke="#27415A" stroke-opacity="0.220" stroke-width="0.70" />
<line x1="650.00" y1="63.00" x2="-378.84" y2="657.00" stroke="#27415A" stroke-opacity="0.220" stroke-width="0.70" />
<line x1="696.77" y1="90.00" x2="-332.07" y2="684.00" stroke="#27415A" stroke-opacity="0.220" stroke-width="0.70" />
<line x1="743.53" y1="117.00" x2="-285.31" y2="711.00" stroke="#27415A" stroke-opacity="0.220" stroke-width="0.70" />
<line x1="790.30" y1="144.00" x2="-238.54" y2="738.00" stroke="#35506B" stroke-opacity="0.400" stroke-width="1.10" />
<line x1="837.06" y1="171.00" x2="-191.78" y2="765.00" stroke="#27415A" stroke-opacity="0.220" stroke-width="0.70" />
<line x1="883.83" y1="198.00" x2="-145.01" y2="792.00" stroke="#27415A" stroke-opacity="0.220" stroke-width="0.70" />
<line x1="930.59" y1="225.00" x2="-98.25" y2="819.00" stroke="#27415A" stroke-opacity="0.220" stroke-width="0.70" />
<line x1="977.36" y1="252.00" x2="-51.48" y2="846.00" stroke="#27415A" stroke-opacity="0.220" stroke-width="0.70" />
<line x1="1024.12" y1="279.00" x2="-4.72" y2="873.00" stroke="#35506B" stroke-opacity="0.400" stroke-width="1.10" />
<line x1="1070.89" y1="306.00" x2="42.05" y2="900.00" stroke="#27415A" stroke-opacity="0.220" stroke-width="0.70" />
<line x1="1117.65" y1="333.00" x2="88.82" y2="927.00" stroke="#27415A" stroke-opacity="0.220" stroke-width="0.70" />
<line x1="1164.42" y1="360.00" x2="135.58" y2="954.00" stroke="#27415A" stroke-opacity="0.220" stroke-width="0.70" />
<line x1="1211.18" y1="387.00" x2="182.35" y2="981.00" stroke="#27415A" stroke-opacity="0.220" stroke-width="0.70" />
<line x1="1257.95" y1="414.00" x2="229.11" y2="1008.00" stroke="#35506B" stroke-opacity="0.400" stroke-width="1.10" />
<line x1="1304.72" y1="441.00" x2="275.88" y2="1035.00" stroke="#27415A" stroke-opacity="0.220" stroke-width="0.70" />
<line x1="1351.48" y1="468.00" x2="322.64" y2="1062.00" stroke="#27415A" stroke-opacity="0.220" stroke-width="0.70" />
<line x1="1398.25" y1="495.00" x2="369.41" y2="1089.00" stroke="#27415A" stroke-opacity="0.220" stroke-width="0.70" />
<line x1="1445.01" y1="522.00" x2="416.17" y2="1116.00" stroke="#27415A" stroke-opacity="0.220" stroke-width="0.70" />
<line x1="1491.78" y1="549.00" x2="462.94" y2="1143.00" stroke="#35506B" stroke-opacity="0.400" stroke-width="1.10" />
<line x1="1538.54" y1="576.00" x2="509.70" y2="1170.00" stroke="#27415A" stroke-opacity="0.220" stroke-width="0.70" />
<line x1="1585.31" y1="603.00" x2="556.47" y2="1197.00" stroke="#27415A" stroke-opacity="0.220" stroke-width="0.70" />
<line x1="1632.07" y1="630.00" x2="603.23" y2="1224.00" stroke="#27415A" stroke-opacity="0.220" stroke-width="0.70" />
<line x1="509.70" y1="-18.00" x2="1632.07" y2="630.00" stroke="#27415A" stroke-opacity="0.220" stroke-width="0.70" />
<line x1="462.94" y1="9.00" x2="1585.31" y2="657.00" stroke="#27415A" stroke-opacity="0.220" stroke-width="0.70" />
<line x1="416.17" y1="36.00" x2="1538.54" y2="684.00" stroke="#27415A" stroke-opacity="0.220" stroke-width="0.70" />
<line x1="369.41" y1="63.00" x2="1491.78" y2="711.00" stroke="#35506B" stroke-opacity="0.400" stroke-width="1.10" />
<line x1="322.64" y1="90.00" x2="1445.01" y2="738.00" stroke="#27415A" stroke-opacity="0.220" stroke-width="0.70" />
<line x1="275.88" y1="117.00" x2="1398.25" y2="765.00" stroke="#27415A" stroke-opacity="0.220" stroke-width="0.70" />
<line x1="229.11" y1="144.00" x2="1351.48" y2="792.00" stroke="#27415A" stroke-opacity="0.220" stroke-width="0.70" />
<line x1="182.35" y1="171.00" x2="1304.72" y2="819.00" stroke="#27415A" stroke-opacity="0.220" stroke-width="0.70" />
<line x1="135.58" y1="198.00" x2="1257.95" y2="846.00" stroke="#35506B" stroke-opacity="0.400" stroke-width="1.10" />
<line x1="88.82" y1="225.00" x2="1211.18" y2="873.00" stroke="#27415A" stroke-opacity="0.220" stroke-width="0.70" />
<line x1="42.05" y1="252.00" x2="1164.42" y2="900.00" stroke="#27415A" stroke-opacity="0.220" stroke-width="0.70" />
<line x1="-4.72" y1="279.00" x2="1117.65" y2="927.00" stroke="#27415A" stroke-opacity="0.220" stroke-width="0.70" />
<line x1="-51.48" y1="306.00" x2="1070.89" y2="954.00" stroke="#27415A" stroke-opacity="0.220" stroke-width="0.70" />
<line x1="-98.25" y1="333.00" x2="1024.12" y2="981.00" stroke="#35506B" stroke-opacity="0.400" stroke-width="1.10" />
<line x1="-145.01" y1="360.00" x2="977.36" y2="1008.00" stroke="#27415A" stroke-opacity="0.220" stroke-width="0.70" />
<line x1="-191.78" y1="387.00" x2="930.59" y2="1035.00" stroke="#27415A" stroke-opacity="0.220" stroke-width="0.70" />
<line x1="-238.54" y1="414.00" x2="883.83" y2="1062.00" stroke="#27415A" stroke-opacity="0.220" stroke-width="0.70" />
<line x1="-285.31" y1="441.00" x2="837.06" y2="1089.00" stroke="#27415A" stroke-opacity="0.220" stroke-width="0.70" />
<line x1="-332.07" y1="468.00" x2="790.30" y2="1116.00" stroke="#35506B" stroke-opacity="0.400" stroke-width="1.10" />
<line x1="-378.84" y1="495.00" x2="743.53" y2="1143.00" stroke="#27415A" stroke-opacity="0.220" stroke-width="0.70" />
<line x1="-425.60" y1="522.00" x2="696.77" y2="1170.00" stroke="#27415A" stroke-opacity="0.220" stroke-width="0.70" />
<line x1="-472.37" y1="549.00" x2="650.00" y2="1197.00" stroke="#27415A" stroke-opacity="0.220" stroke-width="0.70" />
<line x1="-519.13" y1="576.00" x2="603.23" y2="1224.00" stroke="#27415A" stroke-opacity="0.220" stroke-width="0.70" />
<polygon points="285.23,403.20 809.00,705.60 809.00,644.40 285.23,342.00" fill="#6483A1" fill-opacity="1.000" stroke="#BDD2ED" stroke-opacity="1.000" stroke-width="1.10" />
<polygon points="809.00,705.60 547.12,856.80 547.12,795.60 809.00,644.40" fill="#4D6984" fill-opacity="1.000" stroke="#BDD2ED" stroke-opacity="1.000" stroke-width="1.10" />
<polygon points="285.23,342.00 809.00,644.40 547.12,795.60 23.34,493.20" fill="#93B6D8" fill-opacity="1.000" stroke="#BDD2ED" stroke-opacity="1.000" stroke-width="1.10" />
<line x1="285.23" y1="403.20" x2="809.00" y2="705.60" stroke="#BBD0EB" stroke-opacity="0.700" stroke-width="1.20" />
<line x1="809.00" y1="705.60" x2="547.12" y2="856.80" stroke="#BBD0EB" stroke-opacity="0.700" stroke-width="1.20" />
<line x1="547.12" y1="856.80" x2="23.34" y2="554.40" stroke="#BBD0EB" stroke-opacity="0.700" stroke-width="1.20" />
<line x1="23.34" y1="554.40" x2="285.23" y2="403.20" stroke="#BBD0EB" stroke-opacity="0.700" stroke-width="1.20" />
<line x1="285.23" y1="342.00" x2="809.00" y2="644.40" stroke="#BBD0EB" stroke-opacity="0.700" stroke-width="1.20" />
<line x1="809.00" y1="644.40" x2="547.12" y2="795.60" stroke="#BBD0EB" stroke-opacity="0.700" stroke-width="1.20" />
<line x1="547.12" y1="795.60" x2="23.34" y2="493.20" stroke="#BBD0EB" stroke-opacity="0.700" stroke-width="1.20" />
<line x1="23.34" y1="493.20" x2="285.23" y2="342.00" stroke="#BBD0EB" stroke-opacity="0.700" stroke-width="1.20" />
<line x1="285.23" y1="403.20" x2="285.23" y2="342.00" stroke="#BBD0EB" stroke-opacity="0.700" stroke-width="1.20" />
<line x1="809.00" y1="705.60" x2="809.00" y2="644.40" stroke="#BBD0EB" stroke-opacity="0.700" stroke-width="1.20" />
<line x1="547.12" y1="856.80" x2="547.12" y2="795.60" stroke="#BBD0EB" stroke-opacity="0.700" stroke-width="1.20" />
<line x1="23.34" y1="554.40" x2="23.34" y2="493.20" stroke="#BBD0EB" stroke-opacity="0.700" stroke-width="1.20" />
<polygon points="312.35,413.82 396.53,462.42 396.53,422.64 312.35,374.04" fill="#5F7D99" fill-opacity="1.000" stroke="#B3C7E0" stroke-opacity="1.000" stroke-width="0.80" />
<polygon points="433.94,484.02 518.12,532.62 518.12,492.84 433.94,444.24" fill="#5F7D99" fill-opacity="1.000" stroke="#B3C7E0" stroke-opacity="1.000" stroke-width="0.80" />
<polygon points="555.53,554.22 639.71,602.82 639.71,563.04 555.53,514.44" fill="#5F7D99" fill-opacity="1.000" stroke="#B3C7E0" stroke-opacity="1.000" stroke-width="0.80" />
<polygon points="677.12,624.42 761.30,673.02 761.30,633.24 677.12,584.64" fill="#5F7D99" fill-opacity="1.000" stroke="#B3C7E0" stroke-opacity="1.000" stroke-width="0.80" />
<polygon points="396.53,462.42 391.86,465.12 391.86,425.34 396.53,422.64" fill="#4B6680" fill-opacity="1.000" stroke="#B3C7E0" stroke-opacity="1.000" stroke-width="0.80" />
<polygon points="518.12,532.62 513.45,535.32 513.45,495.54 518.12,492.84" fill="#4B6680" fill-opacity="1.000" stroke="#B3C7E0" stroke-opacity="1.000" stroke-width="0.80" />
<polygon points="639.71,602.82 635.04,605.52 635.04,565.74 639.71,563.04" fill="#4B6680" fill-opacity="1.000" stroke="#B3C7E0" stroke-opacity="1.000" stroke-width="0.80" />
<polygon points="761.30,673.02 756.63,675.72 756.63,635.94 761.30,633.24" fill="#4B6680" fill-opacity="1.000" stroke="#B3C7E0" stroke-opacity="1.000" stroke-width="0.80" />
<polygon points="312.35,374.04 396.53,422.64 391.86,425.34 307.68,376.74" fill="#8BACCC" fill-opacity="1.000" stroke="#B3C7E0" stroke-opacity="1.000" stroke-width="0.80" />
<polygon points="433.94,444.24 518.12,492.84 513.45,495.54 429.27,446.94" fill="#8BACCC" fill-opacity="1.000" stroke="#B3C7E0" stroke-opacity="1.000" stroke-width="0.80" />
<polygon points="555.53,514.44 639.71,563.04 635.04,565.74 550.86,517.14" fill="#8BACCC" fill-opacity="1.000" stroke="#B3C7E0" stroke-opacity="1.000" stroke-width="0.80" />
<polygon points="677.12,584.64 761.30,633.24 756.63,635.94 672.45,587.34" fill="#8BACCC" fill-opacity="1.000" stroke="#B3C7E0" stroke-opacity="1.000" stroke-width="0.80" />
<polygon points="322.64,342.00 809.00,622.80 809.00,612.60 322.64,331.80" fill="#698AA9" fill-opacity="1.000" stroke="#CBE2FF" stroke-opacity="1.000" stroke-width="1.00" />
<polygon points="809.00,622.80 584.53,752.40 584.53,742.20 809.00,612.60" fill="#516F8B" fill-opacity="1.000" stroke="#CBE2FF" stroke-opacity="1.000" stroke-width="1.00" />
<polygon points="322.64,331.80 809.00,612.60 584.53,742.20 98.17,461.40" fill="#9BC0E3" fill-opacity="1.000" stroke="#CBE2FF" stroke-opacity="1.000" stroke-width="1.00" />
<line x1="322.64" y1="331.80" x2="809.00" y2="612.60" stroke="#CBE2FF" stroke-opacity="0.820" stroke-width="1.50" />
<line x1="809.00" y1="612.60" x2="584.53" y2="742.20" stroke="#CBE2FF" stroke-opacity="0.820" stroke-width="1.50" />
<line x1="584.53" y1="742.20" x2="98.17" y2="461.40" stroke="#CBE2FF" stroke-opacity="0.820" stroke-width="1.50" />
<line x1="98.17" y1="461.40" x2="322.64" y2="331.80" stroke="#CBE2FF" stroke-opacity="0.820" stroke-width="1.50" />
<line x1="322.64" y1="250.20" x2="809.00" y2="531.00" stroke="#CBE2FF" stroke-opacity="0.820" stroke-width="1.50" />
<line x1="809.00" y1="531.00" x2="584.53" y2="660.60" stroke="#CBE2FF" stroke-opacity="0.820" stroke-width="1.50" />
<line x1="584.53" y1="660.60" x2="98.17" y2="379.80" stroke="#CBE2FF" stroke-opacity="0.820" stroke-width="1.50" />
<line x1="98.17" y1="379.80" x2="322.64" y2="250.20" stroke="#CBE2FF" stroke-opacity="0.820" stroke-width="1.50" />
<line x1="322.64" y1="331.80" x2="322.64" y2="250.20" stroke="#CBE2FF" stroke-opacity="0.820" stroke-width="1.50" />
<line x1="809.00" y1="612.60" x2="809.00" y2="531.00" stroke="#CBE2FF" stroke-opacity="0.820" stroke-width="1.50" />
<line x1="584.53" y1="742.20" x2="584.53" y2="660.60" stroke="#CBE2FF" stroke-opacity="0.820" stroke-width="1.50" />
<line x1="98.17" y1="461.40" x2="98.17" y2="379.80" stroke="#CBE2FF" stroke-opacity="0.820" stroke-width="1.50" />
<polygon points="332.00,347.49 338.07,351.00 338.07,269.40 332.00,265.89" fill="#698AA9" fill-opacity="1.000" stroke="#B7CBE6" stroke-opacity="1.000" stroke-width="0.70" />
<polygon points="229.11,406.89 235.19,410.40 235.19,328.80 229.11,325.29" fill="#698AA9" fill-opacity="1.000" stroke="#B7CBE6" stroke-opacity="1.000" stroke-width="0.70" />
<polygon points="135.58,460.89 141.66,464.40 141.66,382.80 135.58,379.29" fill="#698AA9" fill-opacity="1.000" stroke="#B7CBE6" stroke-opacity="1.000" stroke-width="0.70" />
<polygon points="397.47,385.29 403.55,388.80 403.55,307.20 397.47,303.69" fill="#698AA9" fill-opacity="1.000" stroke="#B7CBE6" stroke-opacity="1.000" stroke-width="0.70" />
<polygon points="294.58,444.69 300.66,448.20 300.66,366.60 294.58,363.09" fill="#698AA9" fill-opacity="1.000" stroke="#B7CBE6" stroke-opacity="1.000" stroke-width="0.70" />
<polygon points="201.05,498.69 207.13,502.20 207.13,420.60 201.05,417.09" fill="#698AA9" fill-opacity="1.000" stroke="#B7CBE6" stroke-opacity="1.000" stroke-width="0.70" />
<polygon points="462.94,423.09 469.02,426.60 469.02,345.00 462.94,341.49" fill="#698AA9" fill-opacity="1.000" stroke="#B7CBE6" stroke-opacity="1.000" stroke-width="0.70" />
<polygon points="360.05,482.49 366.13,486.00 366.13,404.40 360.05,400.89" fill="#698AA9" fill-opacity="1.000" stroke="#B7CBE6" stroke-opacity="1.000" stroke-width="0.70" />
<polygon points="266.52,536.49 272.60,540.00 272.60,458.40 266.52,454.89" fill="#698AA9" fill-opacity="1.000" stroke="#B7CBE6" stroke-opacity="1.000" stroke-width="0.70" />
<polygon points="528.41,460.89 534.49,464.40 534.49,382.80 528.41,379.29" fill="#698AA9" fill-opacity="1.000" stroke="#B7CBE6" stroke-opacity="1.000" stroke-width="0.70" />
<polygon points="425.53,520.29 431.61,523.80 431.61,442.20 425.53,438.69" fill="#698AA9" fill-opacity="1.000" stroke="#B7CBE6" stroke-opacity="1.000" stroke-width="0.70" />
<polygon points="332.00,574.29 338.07,577.80 338.07,496.20 332.00,492.69" fill="#698AA9" fill-opacity="1.000" stroke="#B7CBE6" stroke-opacity="1.000" stroke-width="0.70" />
<polygon points="593.88,498.69 599.96,502.20 599.96,420.60 593.88,417.09" fill="#698AA9" fill-opacity="1.000" stroke="#B7CBE6" stroke-opacity="1.000" stroke-width="0.70" />
<polygon points="491.00,558.09 497.08,561.60 497.08,480.00 491.00,476.49" fill="#698AA9" fill-opacity="1.000" stroke="#B7CBE6" stroke-opacity="1.000" stroke-width="0.70" />
<polygon points="397.47,612.09 403.55,615.60 403.55,534.00 397.47,530.49" fill="#698AA9" fill-opacity="1.000" stroke="#B7CBE6" stroke-opacity="1.000" stroke-width="0.70" />
<polygon points="659.35,536.49 665.43,540.00 665.43,458.40 659.35,454.89" fill="#698AA9" fill-opacity="1.000" stroke="#B7CBE6" stroke-opacity="1.000" stroke-width="0.70" />
<polygon points="556.47,595.89 562.55,599.40 562.55,517.80 556.47,514.29" fill="#698AA9" fill-opacity="1.000" stroke="#B7CBE6" stroke-opacity="1.000" stroke-width="0.70" />
<polygon points="462.94,649.89 469.02,653.40 469.02,571.80 462.94,568.29" fill="#698AA9" fill-opacity="1.000" stroke="#B7CBE6" stroke-opacity="1.000" stroke-width="0.70" />
<polygon points="724.82,574.29 730.90,577.80 730.90,496.20 724.82,492.69" fill="#698AA9" fill-opacity="1.000" stroke="#B7CBE6" stroke-opacity="1.000" stroke-width="0.70" />
<polygon points="621.94,633.69 628.02,637.20 628.02,555.60 621.94,552.09" fill="#698AA9" fill-opacity="1.000" stroke="#B7CBE6" stroke-opacity="1.000" stroke-width="0.70" />
<polygon points="528.41,687.69 534.49,691.20 534.49,609.60 528.41,606.09" fill="#698AA9" fill-opacity="1.000" stroke="#B7CBE6" stroke-opacity="1.000" stroke-width="0.70" />
<polygon points="790.30,612.09 796.38,615.60 796.38,534.00 790.30,530.49" fill="#698AA9" fill-opacity="1.000" stroke="#B7CBE6" stroke-opacity="1.000" stroke-width="0.70" />
<polygon points="687.41,671.49 693.49,675.00 693.49,593.40 687.41,589.89" fill="#698AA9" fill-opacity="1.000" stroke="#B7CBE6" stroke-opacity="1.000" stroke-width="0.70" />
<polygon points="593.88,725.49 599.96,729.00 599.96,647.40 593.88,643.89" fill="#698AA9" fill-opacity="1.000" stroke="#B7CBE6" stroke-opacity="1.000" stroke-width="0.70" />
<polygon points="338.07,351.00 332.00,354.51 332.00,272.91 338.07,269.40" fill="#52708D" fill-opacity="1.000" stroke="#B7CBE6" stroke-opacity="1.000" stroke-width="0.70" />
<polygon points="235.19,410.40 229.11,413.91 229.11,332.31 235.19,328.80" fill="#52708D" fill-opacity="1.000" stroke="#B7CBE6" stroke-opacity="1.000" stroke-width="0.70" />
<polygon points="141.66,464.40 135.58,467.91 135.58,386.31 141.66,382.80" fill="#52708D" fill-opacity="1.000" stroke="#B7CBE6" stroke-opacity="1.000" stroke-width="0.70" />
<polygon points="403.55,388.80 397.47,392.31 397.47,310.71 403.55,307.20" fill="#52708D" fill-opacity="1.000" stroke="#B7CBE6" stroke-opacity="1.000" stroke-width="0.70" />
<polygon points="300.66,448.20 294.58,451.71 294.58,370.11 300.66,366.60" fill="#52708D" fill-opacity="1.000" stroke="#B7CBE6" stroke-opacity="1.000" stroke-width="0.70" />
<polygon points="207.13,502.20 201.05,505.71 201.05,424.11 207.13,420.60" fill="#52708D" fill-opacity="1.000" stroke="#B7CBE6" stroke-opacity="1.000" stroke-width="0.70" />
<polygon points="469.02,426.60 462.94,430.11 462.94,348.51 469.02,345.00" fill="#52708D" fill-opacity="1.000" stroke="#B7CBE6" stroke-opacity="1.000" stroke-width="0.70" />
<polygon points="366.13,486.00 360.05,489.51 360.05,407.91 366.13,404.40" fill="#52708D" fill-opacity="1.000" stroke="#B7CBE6" stroke-opacity="1.000" stroke-width="0.70" />
<polygon points="272.60,540.00 266.52,543.51 266.52,461.91 272.60,458.40" fill="#52708D" fill-opacity="1.000" stroke="#B7CBE6" stroke-opacity="1.000" stroke-width="0.70" />
<polygon points="534.49,464.40 528.41,467.91 528.41,386.31 534.49,382.80" fill="#52708D" fill-opacity="1.000" stroke="#B7CBE6" stroke-opacity="1.000" stroke-width="0.70" />
<polygon points="431.61,523.80 425.53,527.31 425.53,445.71 431.61,442.20" fill="#52708D" fill-opacity="1.000" stroke="#B7CBE6" stroke-opacity="1.000" stroke-width="0.70" />
<polygon points="338.07,577.80 332.00,581.31 332.00,499.71 338.07,496.20" fill="#52708D" fill-opacity="1.000" stroke="#B7CBE6" stroke-opacity="1.000" stroke-width="0.70" />
<polygon points="599.96,502.20 593.88,505.71 593.88,424.11 599.96,420.60" fill="#52708D" fill-opacity="1.000" stroke="#B7CBE6" stroke-opacity="1.000" stroke-width="0.70" />
<polygon points="497.08,561.60 491.00,565.11 491.00,483.51 497.08,480.00" fill="#52708D" fill-opacity="1.000" stroke="#B7CBE6" stroke-opacity="1.000" stroke-width="0.70" />
<polygon points="403.55,615.60 397.47,619.11 397.47,537.51 403.55,534.00" fill="#52708D" fill-opacity="1.000" stroke="#B7CBE6" stroke-opacity="1.000" stroke-width="0.70" />
<polygon points="665.43,540.00 659.35,543.51 659.35,461.91 665.43,458.40" fill="#52708D" fill-opacity="1.000" stroke="#B7CBE6" stroke-opacity="1.000" stroke-width="0.70" />
<polygon points="562.55,599.40 556.47,602.91 556.47,521.31 562.55,517.80" fill="#52708D" fill-opacity="1.000" stroke="#B7CBE6" stroke-opacity="1.000" stroke-width="0.70" />
<polygon points="469.02,653.40 462.94,656.91 462.94,575.31 469.02,571.80" fill="#52708D" fill-opacity="1.000" stroke="#B7CBE6" stroke-opacity="1.000" stroke-width="0.70" />
<polygon points="730.90,577.80 724.82,581.31 724.82,499.71 730.90,496.20" fill="#52708D" fill-opacity="1.000" stroke="#B7CBE6" stroke-opacity="1.000" stroke-width="0.70" />
<polygon points="628.02,637.20 621.94,640.71 621.94,559.11 628.02,555.60" fill="#52708D" fill-opacity="1.000" stroke="#B7CBE6" stroke-opacity="1.000" stroke-width="0.70" />
<polygon points="534.49,691.20 528.41,694.71 528.41,613.11 534.49,609.60" fill="#52708D" fill-opacity="1.000" stroke="#B7CBE6" stroke-opacity="1.000" stroke-width="0.70" />
<polygon points="796.38,615.60 790.30,619.11 790.30,537.51 796.38,534.00" fill="#52708D" fill-opacity="1.000" stroke="#B7CBE6" stroke-opacity="1.000" stroke-width="0.70" />
<polygon points="693.49,675.00 687.41,678.51 687.41,596.91 693.49,593.40" fill="#52708D" fill-opacity="1.000" stroke="#B7CBE6" stroke-opacity="1.000" stroke-width="0.70" />
<polygon points="599.96,729.00 593.88,732.51 593.88,650.91 599.96,647.40" fill="#52708D" fill-opacity="1.000" stroke="#B7CBE6" stroke-opacity="1.000" stroke-width="0.70" />
<polygon points="332.00,265.89 338.07,269.40 332.00,272.91 325.92,269.40" fill="#99BEE1" fill-opacity="1.000" stroke="#B7CBE6" stroke-opacity="1.000" stroke-width="0.70" />
<polygon points="229.11,325.29 235.19,328.80 229.11,332.31 223.03,328.80" fill="#99BEE1" fill-opacity="1.000" stroke="#B7CBE6" stroke-opacity="1.000" stroke-width="0.70" />
<polygon points="135.58,379.29 141.66,382.80 135.58,386.31 129.50,382.80" fill="#99BEE1" fill-opacity="1.000" stroke="#B7CBE6" stroke-opacity="1.000" stroke-width="0.70" />
<polygon points="397.47,303.69 403.55,307.20 397.47,310.71 391.39,307.20" fill="#99BEE1" fill-opacity="1.000" stroke="#B7CBE6" stroke-opacity="1.000" stroke-width="0.70" />
<polygon points="294.58,363.09 300.66,366.60 294.58,370.11 288.50,366.60" fill="#99BEE1" fill-opacity="1.000" stroke="#B7CBE6" stroke-opacity="1.000" stroke-width="0.70" />
<polygon points="201.05,417.09 207.13,420.60 201.05,424.11 194.97,420.60" fill="#99BEE1" fill-opacity="1.000" stroke="#B7CBE6" stroke-opacity="1.000" stroke-width="0.70" />
<polygon points="462.94,341.49 469.02,345.00 462.94,348.51 456.86,345.00" fill="#99BEE1" fill-opacity="1.000" stroke="#B7CBE6" stroke-opacity="1.000" stroke-width="0.70" />
<polygon points="360.05,400.89 366.13,404.40 360.05,407.91 353.98,404.40" fill="#99BEE1" fill-opacity="1.000" stroke="#B7CBE6" stroke-opacity="1.000" stroke-width="0.70" />
<polygon points="266.52,454.89 272.60,458.40 266.52,461.91 260.44,458.40" fill="#99BEE1" fill-opacity="1.000" stroke="#B7CBE6" stroke-opacity="1.000" stroke-width="0.70" />
<polygon points="528.41,379.29 534.49,382.80 528.41,386.31 522.33,382.80" fill="#99BEE1" fill-opacity="1.000" stroke="#B7CBE6" stroke-opacity="1.000" stroke-width="0.70" />
<polygon points="425.53,438.69 431.61,442.20 425.53,445.71 419.45,442.20" fill="#99BEE1" fill-opacity="1.000" stroke="#B7CBE6" stroke-opacity="1.000" stroke-width="0.70" />
<polygon points="332.00,492.69 338.07,496.20 332.00,499.71 325.92,496.20" fill="#99BEE1" fill-opacity="1.000" stroke="#B7CBE6" stroke-opacity="1.000" stroke-width="0.70" />
<polygon points="593.88,417.09 599.96,420.60 593.88,424.11 587.80,420.60" fill="#99BEE1" fill-opacity="1.000" stroke="#B7CBE6" stroke-opacity="1.000" stroke-width="0.70" />
<polygon points="491.00,476.49 497.08,480.00 491.00,483.51 484.92,480.00" fill="#99BEE1" fill-opacity="1.000" stroke="#B7CBE6" stroke-opacity="1.000" stroke-width="0.70" />
<polygon points="397.47,530.49 403.55,534.00 397.47,537.51 391.39,534.00" fill="#99BEE1" fill-opacity="1.000" stroke="#B7CBE6" stroke-opacity="1.000" stroke-width="0.70" />
<polygon points="659.35,454.89 665.43,458.40 659.35,461.91 653.27,458.40" fill="#99BEE1" fill-opacity="1.000" stroke="#B7CBE6" stroke-opacity="1.000" stroke-width="0.70" />
<polygon points="556.47,514.29 562.55,517.80 556.47,521.31 550.39,517.80" fill="#99BEE1" fill-opacity="1.000" stroke="#B7CBE6" stroke-opacity="1.000" stroke-width="0.70" />
<polygon points="462.94,568.29 469.02,571.80 462.94,575.31 456.86,571.80" fill="#99BEE1" fill-opacity="1.000" stroke="#B7CBE6" stroke-opacity="1.000" stroke-width="0.70" />
<polygon points="724.82,492.69 730.90,496.20 724.82,499.71 718.75,496.20" fill="#99BEE1" fill-opacity="1.000" stroke="#B7CBE6" stroke-opacity="1.000" stroke-width="0.70" />
<polygon points="621.94,552.09 628.02,555.60 621.94,559.11 615.86,555.60" fill="#99BEE1" fill-opacity="1.000" stroke="#B7CBE6" stroke-opacity="1.000" stroke-width="0.70" />
<polygon points="528.41,606.09 534.49,609.60 528.41,613.11 522.33,609.60" fill="#99BEE1" fill-opacity="1.000" stroke="#B7CBE6" stroke-opacity="1.000" stroke-width="0.70" />
<polygon points="790.30,530.49 796.38,534.00 790.30,537.51 784.22,534.00" fill="#99BEE1" fill-opacity="1.000" stroke="#B7CBE6" stroke-opacity="1.000" stroke-width="0.70" />
<polygon points="687.41,589.89 693.49,593.40 687.41,596.91 681.33,593.40" fill="#99BEE1" fill-opacity="1.000" stroke="#B7CBE6" stroke-opacity="1.000" stroke-width="0.70" />
<polygon points="593.88,643.89 599.96,647.40 593.88,650.91 587.80,647.40" fill="#99BEE1" fill-opacity="1.000" stroke="#B7CBE6" stroke-opacity="1.000" stroke-width="0.70" />
<line x1="327.32" y1="170.88" x2="252.49" y2="316.95" stroke="#CFE7FF" stroke-opacity="0.800" stroke-width="1.30" />
<line x1="252.49" y1="316.95" x2="346.03" y2="281.70" stroke="#CDE4FF" stroke-opacity="0.760" stroke-width="1.10" />
<line x1="383.44" y1="203.28" x2="308.61" y2="349.35" stroke="#CFE7FF" stroke-opacity="0.800" stroke-width="1.30" />
<line x1="308.61" y1="349.35" x2="402.14" y2="314.10" stroke="#CDE4FF" stroke-opacity="0.760" stroke-width="1.10" />
<line x1="439.56" y1="235.68" x2="364.73" y2="381.75" stroke="#CFE7FF" stroke-opacity="0.800" stroke-width="1.30" />
<line x1="364.73" y1="381.75" x2="458.26" y2="346.50" stroke="#CDE4FF" stroke-opacity="0.760" stroke-width="1.10" />
<line x1="495.67" y1="268.08" x2="420.85" y2="414.15" stroke="#CFE7FF" stroke-opacity="0.800" stroke-width="1.30" />
<line x1="420.85" y1="414.15" x2="514.38" y2="378.90" stroke="#CDE4FF" stroke-opacity="0.760" stroke-width="1.10" />
<line x1="551.79" y1="300.48" x2="476.97" y2="446.55" stroke="#CFE7FF" stroke-opacity="0.800" stroke-width="1.30" />
<line x1="476.97" y1="446.55" x2="570.50" y2="411.30" stroke="#CDE4FF" stroke-opacity="0.760" stroke-width="1.10" />
<line x1="607.91" y1="332.88" x2="533.09" y2="478.95" stroke="#CFE7FF" stroke-opacity="0.800" stroke-width="1.30" />
<line x1="533.09" y1="478.95" x2="626.62" y2="443.70" stroke="#CDE4FF" stroke-opacity="0.760" stroke-width="1.10" />
<line x1="664.03" y1="365.28" x2="589.21" y2="511.35" stroke="#CFE7FF" stroke-opacity="0.800" stroke-width="1.30" />
<line x1="589.21" y1="511.35" x2="682.74" y2="476.10" stroke="#CDE4FF" stroke-opacity="0.760" stroke-width="1.10" />
<line x1="720.15" y1="397.68" x2="645.32" y2="543.75" stroke="#CFE7FF" stroke-opacity="0.800" stroke-width="1.30" />
<line x1="645.32" y1="543.75" x2="738.85" y2="508.50" stroke="#CDE4FF" stroke-opacity="0.760" stroke-width="1.10" />
<line x1="776.27" y1="430.08" x2="701.44" y2="576.15" stroke="#CFE7FF" stroke-opacity="0.800" stroke-width="1.30" />
<line x1="701.44" y1="576.15" x2="794.97" y2="540.90" stroke="#CDE4FF" stroke-opacity="0.760" stroke-width="1.10" />
<line x1="832.38" y1="462.48" x2="757.56" y2="608.55" stroke="#CFE7FF" stroke-opacity="0.800" stroke-width="1.30" />
<line x1="757.56" y1="608.55" x2="851.09" y2="573.30" stroke="#CDE4FF" stroke-opacity="0.760" stroke-width="1.10" />
<line x1="888.50" y1="494.88" x2="813.68" y2="640.95" stroke="#CFE7FF" stroke-opacity="0.800" stroke-width="1.30" />
<line x1="813.68" y1="640.95" x2="907.21" y2="605.70" stroke="#CDE4FF" stroke-opacity="0.760" stroke-width="1.10" />
<line x1="944.62" y1="527.28" x2="869.80" y2="673.35" stroke="#CFE7FF" stroke-opacity="0.800" stroke-width="1.30" />
<line x1="869.80" y1="673.35" x2="963.33" y2="638.10" stroke="#CDE4FF" stroke-opacity="0.760" stroke-width="1.10" />
<polygon points="341.35,151.98 1005.42,535.38 1005.42,524.16 341.35,140.76" fill="#6D8FAF" fill-opacity="1.000" stroke="#BFD4F0" stroke-opacity="1.000" stroke-width="1.00" />
<polygon points="1005.42,535.38 631.29,751.38 631.29,740.16 1005.42,524.16" fill="#557492" fill-opacity="1.000" stroke="#BFD4F0" stroke-opacity="1.000" stroke-width="1.00" />
<polygon points="341.35,140.76 1005.42,524.16 631.29,740.16 -32.77,356.76" fill="#A3CAEF" fill-opacity="1.000" stroke="#BFD4F0" stroke-opacity="1.000" stroke-width="1.00" />
<polygon points="378.76,205.05 434.88,237.45 434.88,221.13 378.76,188.73" fill="#6D8FAF" fill-opacity="1.000" stroke="#B7CBE6" stroke-opacity="1.000" stroke-width="0.80" />
<polygon points="575.18,329.25 631.29,361.65 631.29,345.33 575.18,312.93" fill="#6D8FAF" fill-opacity="1.000" stroke="#B7CBE6" stroke-opacity="1.000" stroke-width="0.80" />
<polygon points="771.59,453.45 827.71,485.85 827.71,469.53 771.59,437.13" fill="#6D8FAF" fill-opacity="1.000" stroke="#B7CBE6" stroke-opacity="1.000" stroke-width="0.80" />
<polygon points="434.88,237.45 402.14,256.35 402.14,240.03 434.88,221.13" fill="#547390" fill-opacity="1.000" stroke="#B7CBE6" stroke-opacity="1.000" stroke-width="0.80" />
<polygon points="631.29,361.65 598.56,380.55 598.56,364.23 631.29,345.33" fill="#547390" fill-opacity="1.000" stroke="#B7CBE6" stroke-opacity="1.000" stroke-width="0.80" />
<polygon points="827.71,485.85 794.97,504.75 794.97,488.43 827.71,469.53" fill="#547390" fill-opacity="1.000" stroke="#B7CBE6" stroke-opacity="1.000" stroke-width="0.80" />
<polygon points="378.76,188.73 434.88,221.13 402.14,240.03 346.03,207.63" fill="#A0C6EA" fill-opacity="1.000" stroke="#B7CBE6" stroke-opacity="1.000" stroke-width="0.80" />
<polygon points="575.18,312.93 631.29,345.33 598.56,364.23 542.44,331.83" fill="#A0C6EA" fill-opacity="1.000" stroke="#B7CBE6" stroke-opacity="1.000" stroke-width="0.80" />
<polygon points="771.59,437.13 827.71,469.53 794.97,488.43 738.85,456.03" fill="#A0C6EA" fill-opacity="1.000" stroke="#B7CBE6" stroke-opacity="1.000" stroke-width="0.80" />
<polygon points="341.35,363.18 771.59,611.58 771.59,605.46 341.35,357.06" fill="#6686A5" fill-opacity="1.000" stroke="#BBD0EB" stroke-opacity="1.000" stroke-width="0.90" />
<polygon points="771.59,611.58 631.29,692.58 631.29,686.46 771.59,605.46" fill="#506D89" fill-opacity="1.000" stroke="#BBD0EB" stroke-opacity="1.000" stroke-width="0.90" />
<polygon points="341.35,357.06 771.59,605.46 631.29,686.46 201.05,438.06" fill="#98BCDF" fill-opacity="1.000" stroke="#BBD0EB" stroke-opacity="1.000" stroke-width="0.90" />
<line x1="341.35" y1="362.46" x2="434.88" y2="416.46" stroke="#B7CBE6" stroke-opacity="0.750" stroke-width="1.20" />
<line x1="434.88" y1="416.46" x2="313.29" y2="486.66" stroke="#B7CBE6" stroke-opacity="0.750" stroke-width="1.20" />
<line x1="313.29" y1="486.66" x2="219.76" y2="432.66" stroke="#B7CBE6" stroke-opacity="0.750" stroke-width="1.20" />
<line x1="219.76" y1="432.66" x2="341.35" y2="362.46" stroke="#B7CBE6" stroke-opacity="0.750" stroke-width="1.20" />
<line x1="341.35" y1="320.64" x2="434.88" y2="374.64" stroke="#B7CBE6" stroke-opacity="0.750" stroke-width="1.20" />
<line x1="434.88" y1="374.64" x2="313.29" y2="444.84" stroke="#B7CBE6" stroke-opacity="0.750" stroke-width="1.20" />
<line x1="313.29" y1="444.84" x2="219.76" y2="390.84" stroke="#B7CBE6" stroke-opacity="0.750" stroke-width="1.20" />
<line x1="219.76" y1="390.84" x2="341.35" y2="320.64" stroke="#B7CBE6" stroke-opacity="0.750" stroke-width="1.20" />
<line x1="341.35" y1="362.46" x2="341.35" y2="320.64" stroke="#B7CBE6" stroke-opacity="0.750" stroke-width="1.20" />
<line x1="434.88" y1="416.46" x2="434.88" y2="374.64" stroke="#B7CBE6" stroke-opacity="0.750" stroke-width="1.20" />
<line x1="313.29" y1="486.66" x2="313.29" y2="444.84" stroke="#B7CBE6" stroke-opacity="0.750" stroke-width="1.20" />
<line x1="219.76" y1="432.66" x2="219.76" y2="390.84" stroke="#B7CBE6" stroke-opacity="0.750" stroke-width="1.20" />
<line x1="446.57" y1="423.21" x2="540.10" y2="477.21" stroke="#B7CBE6" stroke-opacity="0.750" stroke-width="1.20" />
<line x1="540.10" y1="477.21" x2="418.51" y2="547.41" stroke="#B7CBE6" stroke-opacity="0.750" stroke-width="1.20" />
<line x1="418.51" y1="547.41" x2="324.98" y2="493.41" stroke="#B7CBE6" stroke-opacity="0.750" stroke-width="1.20" />
<line x1="324.98" y1="493.41" x2="446.57" y2="423.21" stroke="#B7CBE6" stroke-opacity="0.750" stroke-width="1.20" />
<line x1="446.57" y1="381.39" x2="540.10" y2="435.39" stroke="#B7CBE6" stroke-opacity="0.750" stroke-width="1.20" />
<line x1="540.10" y1="435.39" x2="418.51" y2="505.59" stroke="#B7CBE6" stroke-opacity="0.750" stroke-width="1.20" />
<line x1="418.51" y1="505.59" x2="324.98" y2="451.59" stroke="#B7CBE6" stroke-opacity="0.750" stroke-width="1.20" />
<line x1="324.98" y1="451.59" x2="446.57" y2="381.39" stroke="#B7CBE6" stroke-opacity="0.750" stroke-width="1.20" />
<line x1="446.57" y1="423.21" x2="446.57" y2="381.39" stroke="#B7CBE6" stroke-opacity="0.750" stroke-width="1.20" />
<line x1="540.10" y1="477.21" x2="540.10" y2="435.39" stroke="#B7CBE6" stroke-opacity="0.750" stroke-width="1.20" />
<line x1="418.51" y1="547.41" x2="418.51" y2="505.59" stroke="#B7CBE6" stroke-opacity="0.750" stroke-width="1.20" />
<line x1="324.98" y1="493.41" x2="324.98" y2="451.59" stroke="#B7CBE6" stroke-opacity="0.750" stroke-width="1.20" />
<line x1="551.79" y1="483.96" x2="645.32" y2="537.96" stroke="#B7CBE6" stroke-opacity="0.750" stroke-width="1.20" />
<line x1="645.32" y1="537.96" x2="523.73" y2="608.16" stroke="#B7CBE6" stroke-opacity="0.750" stroke-width="1.20" />
<line x1="523.73" y1="608.16" x2="430.20" y2="554.16" stroke="#B7CBE6" stroke-opacity="0.750" stroke-width="1.20" />
<line x1="430.20" y1="554.16" x2="551.79" y2="483.96" stroke="#B7CBE6" stroke-opacity="0.750" stroke-width="1.20" />
<line x1="551.79" y1="442.14" x2="645.32" y2="496.14" stroke="#B7CBE6" stroke-opacity="0.750" stroke-width="1.20" />
<line x1="645.32" y1="496.14" x2="523.73" y2="566.34" stroke="#B7CBE6" stroke-opacity="0.750" stroke-width="1.20" />
<line x1="523.73" y1="566.34" x2="430.20" y2="512.34" stroke="#B7CBE6" stroke-opacity="0.750" stroke-width="1.20" />
<line x1="430.20" y1="512.34" x2="551.79" y2="442.14" stroke="#B7CBE6" stroke-opacity="0.750" stroke-width="1.20" />
<line x1="551.79" y1="483.96" x2="551.79" y2="442.14" stroke="#B7CBE6" stroke-opacity="0.750" stroke-width="1.20" />
<line x1="645.32" y1="537.96" x2="645.32" y2="496.14" stroke="#B7CBE6" stroke-opacity="0.750" stroke-width="1.20" />
<line x1="523.73" y1="608.16" x2="523.73" y2="566.34" stroke="#B7CBE6" stroke-opacity="0.750" stroke-width="1.20" />
<line x1="430.20" y1="554.16" x2="430.20" y2="512.34" stroke="#B7CBE6" stroke-opacity="0.750" stroke-width="1.20" />
<line x1="657.01" y1="544.71" x2="750.55" y2="598.71" stroke="#B7CBE6" stroke-opacity="0.750" stroke-width="1.20" />
<line x1="750.55" y1="598.71" x2="628.96" y2="668.91" stroke="#B7CBE6" stroke-opacity="0.750" stroke-width="1.20" />
<line x1="628.96" y1="668.91" x2="535.42" y2="614.91" stroke="#B7CBE6" stroke-opacity="0.750" stroke-width="1.20" />
<line x1="535.42" y1="614.91" x2="657.01" y2="544.71" stroke="#B7CBE6" stroke-opacity="0.750" stroke-width="1.20" />
<line x1="657.01" y1="502.89" x2="750.55" y2="556.89" stroke="#B7CBE6" stroke-opacity="0.750" stroke-width="1.20" />
<line x1="750.55" y1="556.89" x2="628.96" y2="627.09" stroke="#B7CBE6" stroke-opacity="0.750" stroke-width="1.20" />
<line x1="628.96" y1="627.09" x2="535.42" y2="573.09" stroke="#B7CBE6" stroke-opacity="0.750" stroke-width="1.20" />
<line x1="535.42" y1="573.09" x2="657.01" y2="502.89" stroke="#B7CBE6" stroke-opacity="0.750" stroke-width="1.20" />
<line x1="657.01" y1="544.71" x2="657.01" y2="502.89" stroke="#B7CBE6" stroke-opacity="0.750" stroke-width="1.20" />
<line x1="750.55" y1="598.71" x2="750.55" y2="556.89" stroke="#B7CBE6" stroke-opacity="0.750" stroke-width="1.20" />
<line x1="628.96" y1="668.91" x2="628.96" y2="627.09" stroke="#B7CBE6" stroke-opacity="0.750" stroke-width="1.20" />
<line x1="535.42" y1="614.91" x2="535.42" y2="573.09" stroke="#B7CBE6" stroke-opacity="0.750" stroke-width="1.20" />
<polygon points="341.35,367.35 425.53,415.95 313.29,480.75 229.11,432.15" fill="#5D7E9E" fill-opacity="0.820" stroke="#B3C7E0" stroke-opacity="0.850" stroke-width="0.80" />
<polygon points="446.57,428.10 530.75,476.70 418.51,541.50 334.33,492.90" fill="#5D7E9E" fill-opacity="0.820" stroke="#B3C7E0" stroke-opacity="0.850" stroke-width="0.80" />
<polygon points="551.79,488.85 635.97,537.45 523.73,602.25 439.56,553.65" fill="#5D7E9E" fill-opacity="0.820" stroke="#B3C7E0" stroke-opacity="0.850" stroke-width="0.80" />
<polygon points="657.01,549.60 741.19,598.20 628.96,663.00 544.78,614.40" fill="#5D7E9E" fill-opacity="0.820" stroke="#B3C7E0" stroke-opacity="0.850" stroke-width="0.80" />
<polygon points="231.92,427.86 319.84,478.62 319.84,453.12 231.92,402.36" fill="#6483A1" fill-opacity="1.000" stroke="#B3C7E0" stroke-opacity="1.000" stroke-width="0.70" />
<polygon points="337.14,488.61 425.06,539.37 425.06,513.87 337.14,463.11" fill="#6483A1" fill-opacity="1.000" stroke="#B3C7E0" stroke-opacity="1.000" stroke-width="0.70" />
<polygon points="442.36,549.36 530.28,600.12 530.28,574.62 442.36,523.86" fill="#6483A1" fill-opacity="1.000" stroke="#B3C7E0" stroke-opacity="1.000" stroke-width="0.70" />
<polygon points="547.58,610.11 635.50,660.87 635.50,635.37 547.58,584.61" fill="#6483A1" fill-opacity="1.000" stroke="#B3C7E0" stroke-opacity="1.000" stroke-width="0.70" />
<polygon points="319.84,478.62 315.63,481.05 315.63,455.55 319.84,453.12" fill="#4E6A86" fill-opacity="1.000" stroke="#B3C7E0" stroke-opacity="1.000" stroke-width="0.70" />
<polygon points="425.06,539.37 420.85,541.80 420.85,516.30 425.06,513.87" fill="#4E6A86" fill-opacity="1.000" stroke="#B3C7E0" stroke-opacity="1.000" stroke-width="0.70" />
<polygon points="530.28,600.12 526.07,602.55 526.07,577.05 530.28,574.62" fill="#4E6A86" fill-opacity="1.000" stroke="#B3C7E0" stroke-opacity="1.000" stroke-width="0.70" />
<polygon points="635.50,660.87 631.29,663.30 631.29,637.80 635.50,635.37" fill="#4E6A86" fill-opacity="1.000" stroke="#B3C7E0" stroke-opacity="1.000" stroke-width="0.70" />
<polygon points="231.92,402.36 319.84,453.12 315.63,455.55 227.71,404.79" fill="#93B6D8" fill-opacity="1.000" stroke="#B3C7E0" stroke-opacity="1.000" stroke-width="0.70" />
<polygon points="337.14,463.11 425.06,513.87 420.85,516.30 332.93,465.54" fill="#93B6D8" fill-opacity="1.000" stroke="#B3C7E0" stroke-opacity="1.000" stroke-width="0.70" />
<polygon points="442.36,523.86 530.28,574.62 526.07,577.05 438.15,526.29" fill="#93B6D8" fill-opacity="1.000" stroke="#B3C7E0" stroke-opacity="1.000" stroke-width="0.70" />
<polygon points="547.58,584.61 635.50,635.37 631.29,637.80 543.37,587.04" fill="#93B6D8" fill-opacity="1.000" stroke="#B3C7E0" stroke-opacity="1.000" stroke-width="0.70" />
<line x1="308.61" y1="319.26" x2="794.97" y2="600.06" stroke="#FFD841" stroke-opacity="1.000" stroke-width="5.25" stroke-linecap="round"/>
<line x1="271.20" y1="340.86" x2="757.56" y2="621.66" stroke="#FFD841" stroke-opacity="1.000" stroke-width="5.25" stroke-linecap="round"/>
<line x1="233.79" y1="362.46" x2="720.15" y2="643.26" stroke="#FFD841" stroke-opacity="1.000" stroke-width="5.25" stroke-linecap="round"/>
<line x1="308.04" y1="320.26" x2="794.40" y2="601.06" stroke="#FFF2AE" stroke-opacity="1.000" stroke-width="1.36" stroke-linecap="round"/>
<line x1="270.62" y1="341.86" x2="756.98" y2="622.66" stroke="#FFF2AE" stroke-opacity="1.000" stroke-width="1.36" stroke-linecap="round"/>
<line x1="233.21" y1="363.46" x2="719.57" y2="644.26" stroke="#FFF2AE" stroke-opacity="1.000" stroke-width="1.36" stroke-linecap="round"/>
<ellipse cx="308.61" cy="319.26" rx="1.78" ry="1.05" fill="#FFD841" fill-opacity="1.000" stroke="#967803" stroke-width="0.80" />
<ellipse cx="794.97" cy="600.06" rx="1.78" ry="1.05" fill="#FFD841" fill-opacity="1.000" stroke="#967803" stroke-width="0.80" />
<ellipse cx="271.20" cy="340.86" rx="1.78" ry="1.05" fill="#FFD841" fill-opacity="1.000" stroke="#967803" stroke-width="0.80" />
<ellipse cx="757.56" cy="621.66" rx="1.78" ry="1.05" fill="#FFD841" fill-opacity="1.000" stroke="#967803" stroke-width="0.80" />
<ellipse cx="233.79" cy="362.46" rx="1.78" ry="1.05" fill="#FFD841" fill-opacity="1.000" stroke="#967803" stroke-width="0.80" />
<ellipse cx="720.15" cy="643.26" rx="1.78" ry="1.05" fill="#FFD841" fill-opacity="1.000" stroke="#967803" stroke-width="0.80" />
<line x1="783.28" y1="593.31" x2="780.94" y2="664.14" stroke="#FFD841" stroke-opacity="1.000" stroke-width="4.67" stroke-linecap="round"/>
<line x1="745.87" y1="614.91" x2="743.53" y2="685.74" stroke="#FFD841" stroke-opacity="1.000" stroke-width="4.67" stroke-linecap="round"/>
<line x1="708.46" y1="636.51" x2="708.46" y2="703.29" stroke="#FFD841" stroke-opacity="1.000" stroke-width="4.67" stroke-linecap="round"/>
<line x1="782.26" y1="593.28" x2="779.92" y2="664.11" stroke="#FFF2AE" stroke-opacity="1.000" stroke-width="1.21" stroke-linecap="round"/>
<line x1="744.84" y1="614.88" x2="742.50" y2="685.71" stroke="#FFF2AE" stroke-opacity="1.000" stroke-width="1.21" stroke-linecap="round"/>
<line x1="707.43" y1="636.51" x2="707.43" y2="703.29" stroke="#FFF2AE" stroke-opacity="1.000" stroke-width="1.21" stroke-linecap="round"/>
<ellipse cx="783.28" cy="593.31" rx="1.59" ry="1.00" fill="#FFD841" fill-opacity="1.000" stroke="#967803" stroke-width="0.80" />
<ellipse cx="780.94" cy="664.14" rx="1.59" ry="1.00" fill="#FFD841" fill-opacity="1.000" stroke="#967803" stroke-width="0.80" />
<ellipse cx="745.87" cy="614.91" rx="1.59" ry="1.00" fill="#FFD841" fill-opacity="1.000" stroke="#967803" stroke-width="0.80" />
<ellipse cx="743.53" cy="685.74" rx="1.59" ry="1.00" fill="#FFD841" fill-opacity="1.000" stroke="#967803" stroke-width="0.80" />
<ellipse cx="708.46" cy="636.51" rx="1.59" ry="1.00" fill="#FFD841" fill-opacity="1.000" stroke="#967803" stroke-width="0.80" />
<ellipse cx="708.46" cy="703.29" rx="1.59" ry="1.00" fill="#FFD841" fill-opacity="1.000" stroke="#967803" stroke-width="0.80" />
<rect x="382.28" y="260.82" width="11.66" height="56.10" fill="#FFD841" fill-opacity="0.960" stroke="#846A03" stroke-width="1.00" />
<rect x="485.17" y="320.22" width="11.66" height="56.10" fill="#FFD841" fill-opacity="0.960" stroke="#846A03" stroke-width="1.00" />
<rect x="588.05" y="379.62" width="11.66" height="56.10" fill="#FFD841" fill-opacity="0.960" stroke="#846A03" stroke-width="1.00" />
<rect x="690.93" y="439.02" width="11.66" height="56.10" fill="#FFD841" fill-opacity="0.960" stroke="#846A03" stroke-width="1.00" />
<ellipse cx="388.11" cy="260.82" rx="5.83" ry="2.43" fill="#FFF2AE" fill-opacity="1.000" stroke="#846A03" stroke-width="1.00" />
<ellipse cx="491.00" cy="320.22" rx="5.83" ry="2.43" fill="#FFF2AE" fill-opacity="1.000" stroke="#846A03" stroke-width="1.00" />
<ellipse cx="593.88" cy="379.62" rx="5.83" ry="2.43" fill="#FFF2AE" fill-opacity="1.000" stroke="#846A03" stroke-width="1.00" />
<ellipse cx="696.77" cy="439.02" rx="5.83" ry="2.43" fill="#FFF2AE" fill-opacity="1.000" stroke="#846A03" stroke-width="1.00" />
<ellipse cx="388.11" cy="316.92" rx="5.83" ry="2.43" fill="#DBBA38" fill-opacity="0.600" stroke="#846A03" stroke-width="0.80" />
<polygon points="408.36,251.80 403.08,253.93 397.80,251.80 397.80,247.53 403.08,245.39 408.36,247.53" fill="#A4CCF1" fill-opacity="1.000" stroke="#B3C7E0" stroke-opacity="1.000" stroke-width="1.00" />
<ellipse cx="491.00" cy="376.32" rx="5.83" ry="2.43" fill="#DBBA38" fill-opacity="0.600" stroke="#846A03" stroke-width="0.80" />
<polygon points="511.25,311.20 505.96,313.33 500.68,311.20 500.68,306.93 505.96,304.79 511.25,306.93" fill="#A4CCF1" fill-opacity="1.000" stroke="#B3C7E0" stroke-opacity="1.000" stroke-width="1.00" />
<ellipse cx="593.88" cy="435.72" rx="5.83" ry="2.43" fill="#DBBA38" fill-opacity="0.600" stroke="#846A03" stroke-width="0.80" />
<polygon points="614.13,370.60 608.85,372.73 603.56,370.60 603.56,366.33 608.85,364.19 614.13,366.33" fill="#A4CCF1" fill-opacity="1.000" stroke="#B3C7E0" stroke-opacity="1.000" stroke-width="1.00" />
<ellipse cx="696.77" cy="495.12" rx="5.83" ry="2.43" fill="#DBBA38" fill-opacity="0.600" stroke="#846A03" stroke-width="0.80" />
<polygon points="717.01,430.00 711.73,432.13 706.45,430.00 706.45,425.73 711.73,423.59 717.01,425.73" fill="#A4CCF1" fill-opacity="1.000" stroke="#B3C7E0" stroke-opacity="1.000" stroke-width="1.00" />
<rect x="0.00" y="0.00" width="1400.00" height="900.00" fill="#0A1630" fill-opacity="0.170" stroke="none" stroke-width="0.00" style="mix-blend-mode:screen"/>
</svg>
