<svg xmlns="http://www.w3.org/2000/svg" width="1400" height="900" viewBox="0 0 1400 900" shape-rendering="geometricPrecision">
<defs>
  <linearGradient id="bgGradient" x1="0%" y1="0%" x2="0%" y2="100%">
    <stop offset="0%" stop-color="#0B1018"/>
    <stop offset="100%" stop-color="#182433"/>
  </linearGradient>
  <filter id="softShadow" x="-50%" y="-50%" width="200%" height="200%">
    <feGaussianBlur in="SourceAlpha" stdDeviation="2.2" result="blur"/>
    <feOffset dx="1.6" dy="2.2" result="offset"/>
    <feMerge>
      <feMergeNode in="offset"/>
      <feMergeNode in="SourceGraphic"/>
    </feMerge>
  </filter>
</defs>
<rect x="0.00" y="0.00" width="1400.00" height="900.00" fill="url(#bgGradient)" fill-opacity="1.000" stroke="none" stroke-width="0.00" />
<line x1="471.17" y1="-205.00" x2="-1243.56" y2="785.00" stroke="#27415A" stroke-opacity="0.220" stroke-width="0.70" />
<line x1="549.12" y1="-160.00" x2="-1165.61" y2="830.00" stroke="#35506B" stroke-opacity="0.400" stroke-width="1.10" />
<line x1="627.06" y1="-115.00" x2="-1087.67" y2="875.00" stroke="#27415A" stroke-opacity="0.220" stroke-width="0.70" />
<line x1="705.00" y1="-70.00" x2="-1009.73" y2="920.00" stroke="#27415A" stroke-opacity="0.220" stroke-width="0.70" />
<line x1="782.94" y1="-25.00" x2="-931.79" y2="965.00" stroke="#27415A" stroke-opacity="0.220" stroke-width="0.70" />
<line x1="860.88" y1="20.00" x2="-853.85" y2="1010.00" stroke="#27415A" stroke-opacity="0.220" stroke-width="0.70" />
<line x1="938.83" y1="65.00" x2="-775.90" y2="1055.00" stroke="#35506B" stroke-opacity="0.400" stroke-width="1.10" />
<line x1="1016.77" y1="110.00" x2="-697.96" y2="1100.00" stroke="#27415A" stroke-opacity="0.220" stroke-width="0.70" />
<line x1="1094.71" y1="155.00" x2="-620.02" y2="1145.00" stroke="#27415A" stroke-opacity="0.220" stroke-width="0.70" />
<line x1="1172.65" y1="200.00" x2="-542.08" y2="1190.00" stroke="#27415A" stroke-opacity="0.220" stroke-width="0.70" />
<line x1="1250.60" y1="245.00" x2="-464.13" y2="1235.00" stroke="#27415A" stroke-opacity="0.220" stroke-width="0.70" />
<line x1="1328.54" y1="290.00" x2="-386.19" y2="1280.00" stroke="#35506B" stroke-opacity="0.400" stroke-width="1.10" />
<line x1="1406.48" y1="335.00" x2="-308.25" y2="1325.00" stroke="#27415A" stroke-opacity="0.220" stroke-width="0.70" />
<line x1="1484.42" y1="380.00" x2="-230.31" y2="1370.00" stroke="#27415A" stroke-opacity="0.220" stroke-width="0.70" />
<line x1="1562.37" y1="425.00" x2="-152.37" y2="1415.00" stroke="#27415A" stroke-opacity="0.220" stroke-width="0.70" />
<line x1="1640.31" y1="470.00" x2="-74.42" y2="1460.00" stroke="#27415A" stroke-opacity="0.220" stroke-width="0.70" />
<line x1="1718.25" y1="515.00" x2="3.52" y2="1505.00" stroke="#35506B" stroke-opacity="0.400" stroke-width="1.10" />
<line x1="1796.19" y1="560.00" x2="81.46" y2="1550.00" stroke="#27415A" stroke-opacity="0.220" stroke-width="0.70" />
<line x1="1874.13" y1="605.00" x2="159.40" y2="1595.00" stroke="#27415A" stroke-opacity="0.220" stroke-width="0.70" />
<line x1="1952.08" y1="650.00" x2="237.35" y2="1640.00" stroke="#27415A" stroke-opacity="0.220" stroke-width="0.70" />
<line x1="2030.02" y1="695.00" x2="315.29" y2="1685.00" stroke="#27415A" stroke-opacity="0.220" stroke-width="0.70" />
<line x1="2107.96" y1="740.00" x2="393.23" y2="1730.00" stroke="#35506B" stroke-opacity="0.400" stroke-width="1.10" />
<line x1="2185.90" y1="785.00" x2="471.17" y2="1775.00" stroke="#27415A" stroke-opacity="0.220" stroke-width="0.70" />
<line x1="2263.85" y1="830.00" x2="549.12" y2="1820.00" stroke="#27415A" stroke-opacity="0.220" stroke-width="0.70" />
<line x1="2341.79" y1="875.00" x2="627.06" y2="1865.00" stroke="#27415A" stroke-opacity="0.220" stroke-width="0.70" />
<line x1="471.17" y1="-205.00" x2="2341.79" y2="875.00" stroke="#27415A" stroke-opacity="0.220" stroke-width="0.70" />
<line x1="393.23" y1="-160.00" x2="2263.85" y2="920.00" stroke="#27415A" stroke-opacity="0.220" stroke-width="0.70" />
<line x1="315.29" y1="-115.00" x2="2185.90" y2="965.00" stroke="#27415A" stroke-opacity="0.220" stroke-width="0.70" />
<line x1="237.35" y1="-70.00" x2="2107.96" y2="1010.00" stroke="#35506B" stroke-opacity="0.400" stroke-width="1.10" />
<line x1="159.40" y1="-25.00" x2="2030.02" y2="1055.00" stroke="#27415A" stroke-opacity="0.220" stroke-width="0.70" />
<line x1="81.46" y1="20.00" x2="1952.08" y2="1100.00" stroke="#27415A" stroke-opacity="0.220" stroke-width="0.70" />
<line x1="3.52" y1="65.00" x2="1874.13" y2="1145.00" stroke="#27415A" stroke-opacity="0.220" stroke-width="0.70" />
<line x1="-74.42" y1="110.00" x2="1796.19" y2="1190.00" stroke="#27415A" stroke-opacity="0.220" stroke-width="0.70" />
<line x1="-152.37" y1="155.00" x2="1718.25" y2="1235.00" stroke="#35506B" stroke-opacity="0.400" stroke-width="1.10" />
<line x1="-230.31" y1="200.00" x2="1640.31" y2="1280.00" stroke="#27415A" stroke-opacity="0.220" stroke-width="0.70" />
<line x1="-308.25" y1="245.00" x2="1562.37" y2="1325.00" stroke="#27415A" stroke-opacity="0.220" stroke-width="0.70" />
<line x1="-386.19" y1="290.00" x2="1484.42" y2="1370.00" stroke="#27415A" stroke-opacity="0.220" stroke-width="0.70" />
<line x1="-464.13" y1="335.00" x2="1406.48" y2="1415.00" stroke="#27415A" stroke-opacity="0.220" stroke-width="0.70" />
<line x1="-542.08" y1="380.00" x2="1328.54" y2="1460.00" stroke="#35506B" stroke-opacity="0.400" stroke-width="1.10" />
<line x1="-620.02" y1="425.00" x2="1250.60" y2="1505.00" stroke="#27415A" stroke-opacity="0.220" stroke-width="0.70" />
<line x1="-697.96" y1="470.00" x2="1172.65" y2="1550.00" stroke="#27415A" stroke-opacity="0.220" stroke-width="0.70" />
<line x1="-775.90" y1="515.00" x2="1094.71" y2="1595.00" stroke="#27415A" stroke-opacity="0.220" stroke-width="0.70" />
<line x1="-853.85" y1="560.00" x2="1016.77" y2="1640.00" stroke="#27415A" stroke-opacity="0.220" stroke-width="0.70" />
<line x1="-931.79" y1="605.00" x2="938.83" y2="1685.00" stroke="#35506B" stroke-opacity="0.400" stroke-width="1.10" />
<line x1="-1009.73" y1="650.00" x2="860.88" y2="1730.00" stroke="#27415A" stroke-opacity="0.220" stroke-width="0.70" />
<line x1="-1087.67" y1="695.00" x2="782.94" y2="1775.00" stroke="#27415A" stroke-opacity="0.220" stroke-width="0.70" />
<line x1="-1165.61" y1="740.00" x2="705.00" y2="1820.00" stroke="#27415A" stroke-opacity="0.220" stroke-width="0.70" />
<line x1="-1243.56" y1="785.00" x2="627.06" y2="1865.00" stroke="#27415A" stroke-opacity="0.220" stroke-width="0.70" />
<polygon points="252.93,551.00 938.83,947.00 938.83,927.42 252.93,531.42" fill="#698AA9" fill-opacity="1.000" stroke="#CBE2FF" stroke-opacity="1.000" stroke-width="1.10" />
<polygon points="938.83,947.00 533.53,1181.00 533.53,1161.42 938.83,927.42" fill="#506D89" fill-opacity="1.000" stroke="#CBE2FF" stroke-opacity="1.000" stroke-width="1.10" />
<polygon points="252.93,531.42 938.83,927.42 533.53,1161.42 -152.37,765.42" fill="#96BADC" fill-opacity="1.000" stroke="#CBE2FF" stroke-opacity="1.000" stroke-width="1.10" />
<polygon points="252.93,583.64 284.11,601.64 284.11,530.44 252.93,512.44" fill="#6686A5" fill-opacity="1.000" stroke="#B7CBE6" stroke-opacity="1.000" stroke-width="0.80" />
<polygon points="330.88,628.64 362.05,646.64 362.05,575.44 330.88,557.44" fill="#6686A5" fill-opacity="1.000" stroke="#B7CBE6" stroke-opacity="1.000" stroke-width="0.80" />
<polygon points="408.82,673.64 440.00,691.64 440.00,620.44 408.82,602.44" fill="#6686A5" fill-opacity="1.000" stroke="#B7CBE6" stroke-opacity="1.000" stroke-width="0.80" />
<polygon points="486.76,718.64 517.94,736.64 517.94,665.44 486.76,647.44" fill="#6686A5" fill-opacity="1.000" stroke="#B7CBE6" stroke-opacity="1.000" stroke-width="0.80" />
<polygon points="564.70,763.64 595.88,781.64 595.88,710.44 564.70,692.44" fill="#6686A5" fill-opacity="1.000" stroke="#B7CBE6" stroke-opacity="1.000" stroke-width="0.80" />
<polygon points="642.65,808.64 673.82,826.64 673.82,755.44 642.65,737.44" fill="#6686A5" fill-opacity="1.000" stroke="#B7CBE6" stroke-opacity="1.000" stroke-width="0.80" />
<polygon points="720.59,853.64 751.77,871.64 751.77,800.44 720.59,782.44" fill="#6686A5" fill-opacity="1.000" stroke="#B7CBE6" stroke-opacity="1.000" stroke-width="0.80" />
<polygon points="798.53,898.64 829.71,916.64 829.71,845.44 798.53,827.44" fill="#6686A5" fill-opacity="1.000" stroke="#B7CBE6" stroke-opacity="1.000" stroke-width="0.80" />
<line x1="252.93" y1="531.42" x2="938.83" y2="927.42" stroke="#C1D7F2" stroke-opacity="0.900" stroke-width="1.40" />
<line x1="938.83" y1="927.42" x2="533.53" y2="1161.42" stroke="#C1D7F2" stroke-opacity="0.900" stroke-width="1.40" />
<line x1="533.53" y1="1161.42" x2="-152.37" y2="765.42" stroke="#C1D7F2" stroke-opacity="0.900" stroke-width="1.40" />
<line x1="-152.37" y1="765.42" x2="252.93" y2="531.42" stroke="#C1D7F2" stroke-opacity="0.900" stroke-width="1.40" />
<line x1="252.93" y1="397.92" x2="938.83" y2="793.92" stroke="#C1D7F2" stroke-opacity="0.900" stroke-width="1.40" />
<line x1="938.83" y1="793.92" x2="533.53" y2="1027.92" stroke="#C1D7F2" stroke-opacity="0.900" stroke-width="1.40" />
<line x1="533.53" y1="1027.92" x2="-152.37" y2="631.92" stroke="#C1D7F2" stroke-opacity="0.900" stroke-width="1.40" />
<line x1="-152.37" y1="631.92" x2="252.93" y2="397.92" stroke="#C1D7F2" stroke-opacity="0.900" stroke-width="1.40" />
<line x1="252.93" y1="531.42" x2="252.93" y2="397.92" stroke="#C1D7F2" stroke-opacity="0.900" stroke-width="1.40" />
<line x1="938.83" y1="927.42" x2="938.83" y2="793.92" stroke="#C1D7F2" stroke-opacity="0.900" stroke-width="1.40" />
<line x1="533.53" y1="1161.42" x2="533.53" y2="1027.92" stroke="#C1D7F2" stroke-opacity="0.900" stroke-width="1.40" />
<line x1="-152.37" y1="765.42" x2="-152.37" y2="631.92" stroke="#C1D7F2" stroke-opacity="0.900" stroke-width="1.40" />
<polygon points="284.11,601.64 213.96,642.14 213.96,570.94 284.11,530.44" fill="#4E6A86" fill-opacity="1.000" stroke="#B7CBE6" stroke-opacity="1.000" stroke-width="0.80" />
<polygon points="362.05,646.64 291.91,687.14 291.91,615.94 362.05,575.44" fill="#4E6A86" fill-opacity="1.000" stroke="#B7CBE6" stroke-opacity="1.000" stroke-width="0.80" />
<polygon points="440.00,691.64 369.85,732.14 369.85,660.94 440.00,620.44" fill="#4E6A86" fill-opacity="1.000" stroke="#B7CBE6" stroke-opacity="1.000" stroke-width="0.80" />
<polygon points="517.94,736.64 447.79,777.14 447.79,705.94 517.94,665.44" fill="#4E6A86" fill-opacity="1.000" stroke="#B7CBE6" stroke-opacity="1.000" stroke-width="0.80" />
<polygon points="595.88,781.64 525.73,822.14 525.73,750.94 595.88,710.44" fill="#4E6A86" fill-opacity="1.000" stroke="#B7CBE6" stroke-opacity="1.000" stroke-width="0.80" />
<polygon points="673.82,826.64 603.68,867.14 603.68,795.94 673.82,755.44" fill="#4E6A86" fill-opacity="1.000" stroke="#B7CBE6" stroke-opacity="1.000" stroke-width="0.80" />
<polygon points="751.77,871.64 681.62,912.14 681.62,840.94 751.77,800.44" fill="#4E6A86" fill-opacity="1.000" stroke="#B7CBE6" stroke-opacity="1.000" stroke-width="0.80" />
<polygon points="829.71,916.64 759.56,957.14 759.56,885.94 829.71,845.44" fill="#4E6A86" fill-opacity="1.000" stroke="#B7CBE6" stroke-opacity="1.000" stroke-width="0.80" />
<polygon points="252.93,512.44 284.11,530.44 213.96,570.94 182.79,552.94" fill="#93B6D8" fill-opacity="1.000" stroke="#B7CBE6" stroke-opacity="1.000" stroke-width="0.80" />
<polygon points="330.88,557.44 362.05,575.44 291.91,615.94 260.73,597.94" fill="#93B6D8" fill-opacity="1.000" stroke="#B7CBE6" stroke-opacity="1.000" stroke-width="0.80" />
<polygon points="408.82,602.44 440.00,620.44 369.85,660.94 338.67,642.94" fill="#93B6D8" fill-opacity="1.000" stroke="#B7CBE6" stroke-opacity="1.000" stroke-width="0.80" />
<polygon points="486.76,647.44 517.94,665.44 447.79,705.94 416.61,687.94" fill="#93B6D8" fill-opacity="1.000" stroke="#B7CBE6" stroke-opacity="1.000" stroke-width="0.80" />
<polygon points="564.70,692.44 595.88,710.44 525.73,750.94 494.56,732.94" fill="#93B6D8" fill-opacity="1.000" stroke="#B7CBE6" stroke-opacity="1.000" stroke-width="0.80" />
<polygon points="642.65,737.44 673.82,755.44 603.68,795.94 572.50,777.94" fill="#93B6D8" fill-opacity="1.000" stroke="#B7CBE6" stroke-opacity="1.000" stroke-width="0.80" />
<polygon points="720.59,782.44 751.77,800.44 681.62,840.94 650.44,822.94" fill="#93B6D8" fill-opacity="1.000" stroke="#B7CBE6" stroke-opacity="1.000" stroke-width="0.80" />
<polygon points="798.53,827.44 829.71,845.44 759.56,885.94 728.38,867.94" fill="#93B6D8" fill-opacity="1.000" stroke="#B7CBE6" stroke-opacity="1.000" stroke-width="0.80" />
<polygon points="393.23,390.90 938.83,705.90 938.83,684.54 393.23,369.54" fill="#6C8DAD" fill-opacity="1.000" stroke="#CBE2FF" stroke-opacity="1.000" stroke-width="1.10" />
<polygon points="938.83,705.90 627.06,885.90 627.06,864.54 938.83,684.54" fill="#52708D" fill-opacity="1.000" stroke="#CBE2FF" stroke-opacity="1.000" stroke-width="1.10" />
<line x1="393.23" y1="390.90" x2="938.83" y2="705.90" stroke="#D5EDFF" stroke-opacity="0.940" stroke-width="1.80" />
<line x1="938.83" y1="705.90" x2="627.06" y2="885.90" stroke="#D5EDFF" stroke-opacity="0.940" stroke-width="1.80" />
<line x1="627.06" y1="885.90" x2="81.46" y2="570.90" stroke="#D5EDFF" stroke-opacity="0.940" stroke-width="1.80" />
<line x1="81.46" y1="570.90" x2="393.23" y2="390.90" stroke="#D5EDFF" stroke-opacity="0.940" stroke-width="1.80" />
<line x1="393.23" y1="239.60" x2="938.83" y2="554.60" stroke="#D5EDFF" stroke-opacity="0.940" stroke-width="1.80" />
<line x1="938.83" y1="554.60" x2="627.06" y2="734.60" stroke="#D5EDFF" stroke-opacity="0.940" stroke-width="1.80" />
<line x1="627.06" y1="734.60" x2="81.46" y2="419.60" stroke="#D5EDFF" stroke-opacity="0.940" stroke-width="1.80" />
<line x1="81.46" y1="419.60" x2="393.23" y2="239.60" stroke="#D5EDFF" stroke-opacity="0.940" stroke-width="1.80" />
<line x1="393.23" y1="390.90" x2="393.23" y2="239.60" stroke="#D5EDFF" stroke-opacity="0.940" stroke-width="1.80" />
<line x1="938.83" y1="705.90" x2="938.83" y2="554.60" stroke="#D5EDFF" stroke-opacity="0.940" stroke-width="1.80" />
<line x1="627.06" y1="885.90" x2="627.06" y2="734.60" stroke="#D5EDFF" stroke-opacity="0.940" stroke-width="1.80" />
<line x1="81.46" y1="570.90" x2="81.46" y2="419.60" stroke="#D5EDFF" stroke-opacity="0.940" stroke-width="1.80" />
<polygon points="393.23,369.54 938.83,684.54 627.06,864.54 81.46,549.54" fill="#A1C8ED" fill-opacity="1.000" stroke="#CBE2FF" stroke-opacity="1.000" stroke-width="1.10" />
<line x1="346.47" y1="113.90" x2="190.58" y2="409.20" stroke="#DBF4FF" stroke-opacity="0.850" stroke-width="1.40" />
<line x1="190.58" y1="409.20" x2="362.05" y2="364.00" stroke="#DBF4FF" stroke-opacity="0.800" stroke-width="1.20" />
<line x1="424.41" y1="158.90" x2="268.52" y2="454.20" stroke="#DBF4FF" stroke-opacity="0.850" stroke-width="1.40" />
<line x1="268.52" y1="454.20" x2="440.00" y2="409.00" stroke="#DBF4FF" stroke-opacity="0.800" stroke-width="1.20" />
<line x1="502.35" y1="203.90" x2="346.47" y2="499.20" stroke="#DBF4FF" stroke-opacity="0.850" stroke-width="1.40" />
<line x1="346.47" y1="499.20" x2="517.94" y2="454.00" stroke="#DBF4FF" stroke-opacity="0.800" stroke-width="1.20" />
<line x1="580.29" y1="248.90" x2="424.41" y2="544.20" stroke="#DBF4FF" stroke-opacity="0.850" stroke-width="1.40" />
<line x1="424.41" y1="544.20" x2="595.88" y2="499.00" stroke="#DBF4FF" stroke-opacity="0.800" stroke-width="1.20" />
<line x1="658.23" y1="293.90" x2="502.35" y2="589.20" stroke="#DBF4FF" stroke-opacity="0.850" stroke-width="1.40" />
<line x1="502.35" y1="589.20" x2="673.82" y2="544.00" stroke="#DBF4FF" stroke-opacity="0.800" stroke-width="1.20" />
<line x1="736.18" y1="338.90" x2="580.29" y2="634.20" stroke="#DBF4FF" stroke-opacity="0.850" stroke-width="1.40" />
<line x1="580.29" y1="634.20" x2="751.77" y2="589.00" stroke="#DBF4FF" stroke-opacity="0.800" stroke-width="1.20" />
<line x1="814.12" y1="383.90" x2="658.23" y2="679.20" stroke="#DBF4FF" stroke-opacity="0.850" stroke-width="1.40" />
<line x1="658.23" y1="679.20" x2="829.71" y2="634.00" stroke="#DBF4FF" stroke-opacity="0.800" stroke-width="1.20" />
<line x1="892.06" y1="428.90" x2="736.18" y2="724.20" stroke="#DBF4FF" stroke-opacity="0.850" stroke-width="1.40" />
<line x1="736.18" y1="724.20" x2="907.65" y2="679.00" stroke="#DBF4FF" stroke-opacity="0.800" stroke-width="1.20" />
<line x1="970.00" y1="473.90" x2="814.12" y2="769.20" stroke="#DBF4FF" stroke-opacity="0.850" stroke-width="1.40" />
<line x1="814.12" y1="769.20" x2="985.59" y2="724.00" stroke="#DBF4FF" stroke-opacity="0.800" stroke-width="1.20" />
<line x1="1047.95" y1="518.90" x2="892.06" y2="814.20" stroke="#DBF4FF" stroke-opacity="0.850" stroke-width="1.40" />
<line x1="892.06" y1="814.20" x2="1063.53" y2="769.00" stroke="#DBF4FF" stroke-opacity="0.800" stroke-width="1.20" />
<polygon points="362.05,68.90 1172.65,536.90 1172.65,519.10 362.05,51.10" fill="#6D8FAF" fill-opacity="1.000" stroke="#CBE2FF" stroke-opacity="1.000" stroke-width="1.00" />
<polygon points="1172.65,536.90 689.41,815.90 689.41,798.10 1172.65,519.10" fill="#547390" fill-opacity="1.000" stroke="#CBE2FF" stroke-opacity="1.000" stroke-width="1.00" />
<polygon points="362.05,51.10 1172.65,519.10 689.41,798.10 -121.19,330.10" fill="#9EC4E8" fill-opacity="1.000" stroke="#CBE2FF" stroke-opacity="1.000" stroke-width="1.00" />
<line x1="455.58" y1="267.10" x2="814.12" y2="474.10" stroke="#D5EDFF" stroke-opacity="0.920" stroke-width="1.50" />
<line x1="814.12" y1="474.10" x2="673.82" y2="555.10" stroke="#D5EDFF" stroke-opacity="0.920" stroke-width="1.50" />
<line x1="673.82" y1="555.10" x2="315.29" y2="348.10" stroke="#D5EDFF" stroke-opacity="0.920" stroke-width="1.50" />
<line x1="315.29" y1="348.10" x2="455.58" y2="267.10" stroke="#D5EDFF" stroke-opacity="0.920" stroke-width="1.50" />
<line x1="455.58" y1="195.90" x2="814.12" y2="402.90" stroke="#D5EDFF" stroke-opacity="0.920" stroke-width="1.50" />
<line x1="814.12" y1="402.90" x2="673.82" y2="483.90" stroke="#D5EDFF" stroke-opacity="0.920" stroke-width="1.50" />
<line x1="673.82" y1="483.90" x2="315.29" y2="276.90" stroke="#D5EDFF" stroke-opacity="0.920" stroke-width="1.50" />
<line x1="315.29" y1="276.90" x2="455.58" y2="195.90" stroke="#D5EDFF" stroke-opacity="0.920" stroke-width="1.50" />
<line x1="455.58" y1="267.10" x2="455.58" y2="195.90" stroke="#D5EDFF" stroke-opacity="0.920" stroke-width="1.50" />
<line x1="814.12" y1="474.10" x2="814.12" y2="402.90" stroke="#D5EDFF" stroke-opacity="0.920" stroke-width="1.50" />
<line x1="673.82" y1="555.10" x2="673.82" y2="483.90" stroke="#D5EDFF" stroke-opacity="0.920" stroke-width="1.50" />
<line x1="315.29" y1="348.10" x2="315.29" y2="276.90" stroke="#D5EDFF" stroke-opacity="0.920" stroke-width="1.50" />
<line x1="210.07" y1="559.78" x2="210.07" y2="432.51" stroke="#C3D9F5" stroke-opacity="0.680" stroke-width="1.10" />
<line x1="892.06" y1="953.53" x2="892.06" y2="826.26" stroke="#C3D9F5" stroke-opacity="0.680" stroke-width="1.10" />
<line x1="132.12" y1="604.78" x2="132.12" y2="477.51" stroke="#C3D9F5" stroke-opacity="0.680" stroke-width="1.10" />
<line x1="814.12" y1="998.53" x2="814.12" y2="871.26" stroke="#C3D9F5" stroke-opacity="0.680" stroke-width="1.10" />
<line x1="54.18" y1="649.78" x2="54.18" y2="522.51" stroke="#C3D9F5" stroke-opacity="0.680" stroke-width="1.10" />
<line x1="736.18" y1="1043.53" x2="736.18" y2="916.26" stroke="#C3D9F5" stroke-opacity="0.680" stroke-width="1.10" />
<line x1="-23.76" y1="694.78" x2="-23.76" y2="567.51" stroke="#C3D9F5" stroke-opacity="0.680" stroke-width="1.10" />
<line x1="658.23" y1="1088.53" x2="658.23" y2="961.26" stroke="#C3D9F5" stroke-opacity="0.680" stroke-width="1.10" />
<polygon points="393.23,403.76 418.17,418.16 418.17,398.58 393.23,384.18" fill="#6C8DAD" fill-opacity="1.000" stroke="#B3C7E0" stroke-opacity="1.000" stroke-width="0.70" />
<polygon points="299.70,457.76 324.64,472.16 324.64,452.58 299.70,438.18" fill="#6C8DAD" fill-opacity="1.000" stroke="#B3C7E0" stroke-opacity="1.000" stroke-width="0.70" />
<polygon points="206.17,511.76 231.11,526.16 231.11,506.58 206.17,492.18" fill="#6C8DAD" fill-opacity="1.000" stroke="#B3C7E0" stroke-opacity="1.000" stroke-width="0.70" />
<polygon points="502.35,466.76 527.29,481.16 527.29,461.58 502.35,447.18" fill="#6C8DAD" fill-opacity="1.000" stroke="#B3C7E0" stroke-opacity="1.000" stroke-width="0.70" />
<polygon points="408.82,520.76 433.76,535.16 433.76,515.58 408.82,501.18" fill="#6C8DAD" fill-opacity="1.000" stroke="#B3C7E0" stroke-opacity="1.000" stroke-width="0.70" />
<polygon points="315.29,574.76 340.23,589.16 340.23,569.58 315.29,555.18" fill="#6C8DAD" fill-opacity="1.000" stroke="#B3C7E0" stroke-opacity="1.000" stroke-width="0.70" />
<polygon points="611.47,529.76 636.41,544.16 636.41,524.58 611.47,510.18" fill="#6C8DAD" fill-opacity="1.000" stroke="#B3C7E0" stroke-opacity="1.000" stroke-width="0.70" />
<polygon points="517.94,583.76 542.88,598.16 542.88,578.58 517.94,564.18" fill="#6C8DAD" fill-opacity="1.000" stroke="#B3C7E0" stroke-opacity="1.000" stroke-width="0.70" />
<polygon points="424.41,637.76 449.35,652.16 449.35,632.58 424.41,618.18" fill="#6C8DAD" fill-opacity="1.000" stroke="#B3C7E0" stroke-opacity="1.000" stroke-width="0.70" />
<polygon points="720.59,592.76 745.53,607.16 745.53,587.58 720.59,573.18" fill="#6C8DAD" fill-opacity="1.000" stroke="#B3C7E0" stroke-opacity="1.000" stroke-width="0.70" />
<polygon points="627.06,646.76 652.00,661.16 652.00,641.58 627.06,627.18" fill="#6C8DAD" fill-opacity="1.000" stroke="#B3C7E0" stroke-opacity="1.000" stroke-width="0.70" />
<polygon points="533.53,700.76 558.47,715.16 558.47,695.58 533.53,681.18" fill="#6C8DAD" fill-opacity="1.000" stroke="#B3C7E0" stroke-opacity="1.000" stroke-width="0.70" />
<polygon points="829.71,655.76 854.65,670.16 854.65,650.58 829.71,636.18" fill="#6C8DAD" fill-opacity="1.000" stroke="#B3C7E0" stroke-opacity="1.000" stroke-width="0.70" />
<polygon points="736.18,709.76 761.12,724.16 761.12,704.58 736.18,690.18" fill="#6C8DAD" fill-opacity="1.000" stroke="#B3C7E0" stroke-opacity="1.000" stroke-width="0.70" />
<polygon points="642.65,763.76 667.59,778.16 667.59,758.58 642.65,744.18" fill="#6C8DAD" fill-opacity="1.000" stroke="#B3C7E0" stroke-opacity="1.000" stroke-width="0.70" />
<polygon points="418.17,418.16 393.23,432.56 393.23,412.98 418.17,398.58" fill="#547390" fill-opacity="1.000" stroke="#B3C7E0" stroke-opacity="1.000" stroke-width="0.70" />
<polygon points="324.64,472.16 299.70,486.56 299.70,466.98 324.64,452.58" fill="#547390" fill-opacity="1.000" stroke="#B3C7E0" stroke-opacity="1.000" stroke-width="0.70" />
<polygon points="231.11,526.16 206.17,540.56 206.17,520.98 231.11,506.58" fill="#547390" fill-opacity="1.000" stroke="#B3C7E0" stroke-opacity="1.000" stroke-width="0.70" />
<polygon points="527.29,481.16 502.35,495.56 502.35,475.98 527.29,461.58" fill="#547390" fill-opacity="1.000" stroke="#B3C7E0" stroke-opacity="1.000" stroke-width="0.70" />
<polygon points="433.76,535.16 408.82,549.56 408.82,529.98 433.76,515.58" fill="#547390" fill-opacity="1.000" stroke="#B3C7E0" stroke-opacity="1.000" stroke-width="0.70" />
<polygon points="340.23,589.16 315.29,603.56 315.29,583.98 340.23,569.58" fill="#547390" fill-opacity="1.000" stroke="#B3C7E0" stroke-opacity="1.000" stroke-width="0.70" />
<polygon points="636.41,544.16 611.47,558.56 611.47,538.98 636.41,524.58" fill="#547390" fill-opacity="1.000" stroke="#B3C7E0" stroke-opacity="1.000" stroke-width="0.70" />
<polygon points="542.88,598.16 517.94,612.56 517.94,592.98 542.88,578.58" fill="#547390" fill-opacity="1.000" stroke="#B3C7E0" stroke-opacity="1.000" stroke-width="0.70" />
<polygon points="449.35,652.16 424.41,666.56 424.41,646.98 449.35,632.58" fill="#547390" fill-opacity="1.000" stroke="#B3C7E0" stroke-opacity="1.000" stroke-width="0.70" />
<polygon points="745.53,607.16 720.59,621.56 720.59,601.98 745.53,587.58" fill="#547390" fill-opacity="1.000" stroke="#B3C7E0" stroke-opacity="1.000" stroke-width="0.70" />
<polygon points="652.00,661.16 627.06,675.56 627.06,655.98 652.00,641.58" fill="#547390" fill-opacity="1.000" stroke="#B3C7E0" stroke-opacity="1.000" stroke-width="0.70" />
<polygon points="558.47,715.16 533.53,729.56 533.53,709.98 558.47,695.58" fill="#547390" fill-opacity="1.000" stroke="#B3C7E0" stroke-opacity="1.000" stroke-width="0.70" />
<polygon points="854.65,670.16 829.71,684.56 829.71,664.98 854.65,650.58" fill="#547390" fill-opacity="1.000" stroke="#B3C7E0" stroke-opacity="1.000" stroke-width="0.70" />
<polygon points="761.12,724.16 736.18,738.56 736.18,718.98 761.12,704.58" fill="#547390" fill-opacity="1.000" stroke="#B3C7E0" stroke-opacity="1.000" stroke-width="0.70" />
<polygon points="667.59,778.16 642.65,792.56 642.65,772.98 667.59,758.58" fill="#547390" fill-opacity="1.000" stroke="#B3C7E0" stroke-opacity="1.000" stroke-width="0.70" />
<polygon points="393.23,384.18 418.17,398.58 393.23,412.98 368.29,398.58" fill="#9BC0E3" fill-opacity="1.000" stroke="#B3C7E0" stroke-opacity="1.000" stroke-width="0.70" />
<polygon points="299.70,438.18 324.64,452.58 299.70,466.98 274.76,452.58" fill="#9BC0E3" fill-opacity="1.000" stroke="#B3C7E0" stroke-opacity="1.000" stroke-width="0.70" />
<polygon points="206.17,492.18 231.11,506.58 206.17,520.98 181.23,506.58" fill="#9BC0E3" fill-opacity="1.000" stroke="#B3C7E0" stroke-opacity="1.000" stroke-width="0.70" />
<polygon points="502.35,447.18 527.29,461.58 502.35,475.98 477.41,461.58" fill="#9BC0E3" fill-opacity="1.000" stroke="#B3C7E0" stroke-opacity="1.000" stroke-width="0.70" />
<polygon points="408.82,501.18 433.76,515.58 408.82,529.98 383.88,515.58" fill="#9BC0E3" fill-opacity="1.000" stroke="#B3C7E0" stroke-opacity="1.000" stroke-width="0.70" />
<polygon points="315.29,555.18 340.23,569.58 315.29,583.98 290.35,569.58" fill="#9BC0E3" fill-opacity="1.000" stroke="#B3C7E0" stroke-opacity="1.000" stroke-width="0.70" />
<polygon points="611.47,510.18 636.41,524.58 611.47,538.98 586.53,524.58" fill="#9BC0E3" fill-opacity="1.000" stroke="#B3C7E0" stroke-opacity="1.000" stroke-width="0.70" />
<polygon points="517.94,564.18 542.88,578.58 517.94,592.98 493.00,578.58" fill="#9BC0E3" fill-opacity="1.000" stroke="#B3C7E0" stroke-opacity="1.000" stroke-width="0.70" />
<polygon points="424.41,618.18 449.35,632.58 424.41,646.98 399.47,632.58" fill="#9BC0E3" fill-opacity="1.000" stroke="#B3C7E0" stroke-opacity="1.000" stroke-width="0.70" />
<polygon points="720.59,573.18 745.53,587.58 720.59,601.98 695.65,587.58" fill="#9BC0E3" fill-opacity="1.000" stroke="#B3C7E0" stroke-opacity="1.000" stroke-width="0.70" />
<polygon points="627.06,627.18 652.00,641.58 627.06,655.98 602.12,641.58" fill="#9BC0E3" fill-opacity="1.000" stroke="#B3C7E0" stroke-opacity="1.000" stroke-width="0.70" />
<polygon points="533.53,681.18 558.47,695.58 533.53,709.98 508.59,695.58" fill="#9BC0E3" fill-opacity="1.000" stroke="#B3C7E0" stroke-opacity="1.000" stroke-width="0.70" />
<polygon points="829.71,636.18 854.65,650.58 829.71,664.98 804.77,650.58" fill="#9BC0E3" fill-opacity="1.000" stroke="#B3C7E0" stroke-opacity="1.000" stroke-width="0.70" />
<polygon points="736.18,690.18 761.12,704.58 736.18,718.98 711.24,704.58" fill="#9BC0E3" fill-opacity="1.000" stroke="#B3C7E0" stroke-opacity="1.000" stroke-width="0.70" />
<polygon points="642.65,744.18 667.59,758.58 642.65,772.98 617.70,758.58" fill="#9BC0E3" fill-opacity="1.000" stroke="#B3C7E0" stroke-opacity="1.000" stroke-width="0.70" />
<polygon points="354.26,98.82 408.82,130.32 408.82,105.40 354.26,73.90" fill="#7094B5" fill-opacity="1.000" stroke="#CBE2FF" stroke-opacity="1.000" stroke-width="0.80" />
<polygon points="564.70,220.32 619.26,251.82 619.26,226.90 564.70,195.40" fill="#7094B5" fill-opacity="1.000" stroke="#CBE2FF" stroke-opacity="1.000" stroke-width="0.80" />
<polygon points="782.94,346.32 837.50,377.82 837.50,352.90 782.94,321.40" fill="#7094B5" fill-opacity="1.000" stroke="#CBE2FF" stroke-opacity="1.000" stroke-width="0.80" />
<polygon points="408.82,130.32 362.05,157.32 362.05,132.40 408.82,105.40" fill="#577694" fill-opacity="1.000" stroke="#CBE2FF" stroke-opacity="1.000" stroke-width="0.80" />
<polygon points="619.26,251.82 572.50,278.82 572.50,253.90 619.26,226.90" fill="#577694" fill-opacity="1.000" stroke="#CBE2FF" stroke-opacity="1.000" stroke-width="0.80" />
<polygon points="837.50,377.82 790.74,404.82 790.74,379.90 837.50,352.90" fill="#577694" fill-opacity="1.000" stroke="#CBE2FF" stroke-opacity="1.000" stroke-width="0.80" />
<polygon points="354.26,73.90 408.82,105.40 362.05,132.40 307.49,100.90" fill="#A1C8ED" fill-opacity="1.000" stroke="#CBE2FF" stroke-opacity="1.000" stroke-width="0.80" />
<polygon points="564.70,195.40 619.26,226.90 572.50,253.90 517.94,222.40" fill="#A1C8ED" fill-opacity="1.000" stroke="#CBE2FF" stroke-opacity="1.000" stroke-width="0.80" />
<polygon points="782.94,321.40 837.50,352.90 790.74,379.90 736.18,348.40" fill="#A1C8ED" fill-opacity="1.000" stroke="#CBE2FF" stroke-opacity="1.000" stroke-width="0.80" />
<line x1="385.44" y1="351.30" x2="860.88" y2="625.80" stroke="#FFD841" stroke-opacity="1.000" stroke-width="8.75" stroke-linecap="round"/>
<line x1="323.08" y1="387.30" x2="798.53" y2="661.80" stroke="#FFD841" stroke-opacity="1.000" stroke-width="8.75" stroke-linecap="round"/>
<line x1="260.73" y1="423.30" x2="736.18" y2="697.80" stroke="#FFD841" stroke-opacity="1.000" stroke-width="8.75" stroke-linecap="round"/>
<line x1="384.47" y1="352.97" x2="859.92" y2="627.47" stroke="#FFF2AE" stroke-opacity="1.000" stroke-width="2.27" stroke-linecap="round"/>
<line x1="322.12" y1="388.97" x2="797.57" y2="663.47" stroke="#FFF2AE" stroke-opacity="1.000" stroke-width="2.27" stroke-linecap="round"/>
<line x1="259.77" y1="424.97" x2="735.21" y2="699.47" stroke="#FFF2AE" stroke-opacity="1.000" stroke-width="2.27" stroke-linecap="round"/>
<ellipse cx="385.44" cy="351.30" rx="2.97" ry="1.75" fill="#FFD841" fill-opacity="1.000" stroke="#967803" stroke-width="0.80" />
<ellipse cx="860.88" cy="625.80" rx="2.97" ry="1.75" fill="#FFD841" fill-opacity="1.000" stroke="#967803" stroke-width="0.80" />
<ellipse cx="323.08" cy="387.30" rx="2.97" ry="1.75" fill="#FFD841" fill-opacity="1.000" stroke="#967803" stroke-width="0.80" />
<ellipse cx="798.53" cy="661.80" rx="2.97" ry="1.75" fill="#FFD841" fill-opacity="1.000" stroke="#967803" stroke-width="0.80" />
<ellipse cx="260.73" cy="423.30" rx="2.97" ry="1.75" fill="#FFD841" fill-opacity="1.000" stroke="#967803" stroke-width="0.80" />
<ellipse cx="736.18" cy="697.80" rx="2.97" ry="1.75" fill="#FFD841" fill-opacity="1.000" stroke="#967803" stroke-width="0.80" />
<line x1="868.68" y1="630.30" x2="884.27" y2="728.70" stroke="#FFD841" stroke-opacity="1.000" stroke-width="8.10" stroke-linecap="round"/>
<line x1="806.32" y1="666.30" x2="829.71" y2="769.20" stroke="#FFD841" stroke-opacity="1.000" stroke-width="8.10" stroke-linecap="round"/>
<line x1="743.97" y1="702.30" x2="759.56" y2="800.70" stroke="#FFD841" stroke-opacity="1.000" stroke-width="8.10" stroke-linecap="round"/>
<line x1="377.64" y1="346.80" x2="354.26" y2="350.60" stroke="#FFD841" stroke-opacity="1.000" stroke-width="8.10" stroke-linecap="round"/>
<line x1="866.92" y1="630.58" x2="882.51" y2="728.98" stroke="#FFF2AE" stroke-opacity="1.000" stroke-width="2.11" stroke-linecap="round"/>
<line x1="804.59" y1="666.69" x2="827.97" y2="769.59" stroke="#FFF2AE" stroke-opacity="1.000" stroke-width="2.11" stroke-linecap="round"/>
<line x1="742.21" y1="702.58" x2="757.80" y2="800.98" stroke="#FFF2AE" stroke-opacity="1.000" stroke-width="2.11" stroke-linecap="round"/>
<line x1="377.36" y1="345.04" x2="353.97" y2="348.84" stroke="#FFF2AE" stroke-opacity="1.000" stroke-width="2.11" stroke-linecap="round"/>
<line x1="884.27" y1="728.70" x2="884.27" y2="782.10" stroke="#FFD841" stroke-opacity="1.000" stroke-width="7.65" stroke-linecap="round"/>
<line x1="829.71" y1="769.20" x2="829.71" y2="822.60" stroke="#FFD841" stroke-opacity="1.000" stroke-width="7.65" stroke-linecap="round"/>
<line x1="759.56" y1="800.70" x2="759.56" y2="854.10" stroke="#FFD841" stroke-opacity="1.000" stroke-width="7.65" stroke-linecap="round"/>
<ellipse cx="868.68" cy="630.30" rx="2.75" ry="1.62" fill="#FFD841" fill-opacity="1.000" stroke="#967803" stroke-width="0.80" />
<ellipse cx="884.27" cy="728.70" rx="2.75" ry="1.62" fill="#FFD841" fill-opacity="1.000" stroke="#967803" stroke-width="0.80" />
<ellipse cx="806.32" cy="666.30" rx="2.75" ry="1.62" fill="#FFD841" fill-opacity="1.000" stroke="#967803" stroke-width="0.80" />
<ellipse cx="829.71" cy="769.20" rx="2.75" ry="1.62" fill="#FFD841" fill-opacity="1.000" stroke="#967803" stroke-width="0.80" />
<ellipse cx="743.97" cy="702.30" rx="2.75" ry="1.62" fill="#FFD841" fill-opacity="1.000" stroke="#967803" stroke-width="0.80" />
<ellipse cx="759.56" cy="800.70" rx="2.75" ry="1.62" fill="#FFD841" fill-opacity="1.000" stroke="#967803" stroke-width="0.80" />
<ellipse cx="377.64" cy="346.80" rx="2.75" ry="1.62" fill="#FFD841" fill-opacity="1.000" stroke="#967803" stroke-width="0.80" />
<ellipse cx="354.26" cy="350.60" rx="2.75" ry="1.62" fill="#FFD841" fill-opacity="1.000" stroke="#967803" stroke-width="0.80" />
<line x1="882.59" y1="728.70" x2="882.59" y2="782.10" stroke="#FFF2AE" stroke-opacity="1.000" stroke-width="1.99" stroke-linecap="round"/>
<line x1="828.03" y1="769.20" x2="828.03" y2="822.60" stroke="#FFF2AE" stroke-opacity="1.000" stroke-width="1.99" stroke-linecap="round"/>
<line x1="757.88" y1="800.70" x2="757.88" y2="854.10" stroke="#FFF2AE" stroke-opacity="1.000" stroke-width="1.99" stroke-linecap="round"/>
<ellipse cx="884.27" cy="728.70" rx="2.60" ry="1.53" fill="#FFD841" fill-opacity="1.000" stroke="#967803" stroke-width="0.80" />
<ellipse cx="884.27" cy="782.10" rx="2.60" ry="1.53" fill="#FFD841" fill-opacity="1.000" stroke="#967803" stroke-width="0.80" />
<ellipse cx="829.71" cy="769.20" rx="2.60" ry="1.53" fill="#FFD841" fill-opacity="1.000" stroke="#967803" stroke-width="0.80" />
<ellipse cx="829.71" cy="822.60" rx="2.60" ry="1.53" fill="#FFD841" fill-opacity="1.000" stroke="#967803" stroke-width="0.80" />
<ellipse cx="759.56" cy="800.70" rx="2.60" ry="1.53" fill="#FFD841" fill-opacity="1.000" stroke="#967803" stroke-width="0.80" />
<ellipse cx="759.56" cy="854.10" rx="2.60" ry="1.53" fill="#FFD841" fill-opacity="1.000" stroke="#967803" stroke-width="0.80" />
<rect x="406.89" y="245.70" width="19.44" height="96.12" fill="#FFD841" fill-opacity="0.960" stroke="#7F6603" stroke-width="1.00" />
<rect x="492.63" y="295.20" width="19.44" height="96.12" fill="#FFD841" fill-opacity="0.960" stroke="#7F6603" stroke-width="1.00" />
<rect x="578.37" y="344.70" width="19.44" height="96.12" fill="#FFD841" fill-opacity="0.960" stroke="#7F6603" stroke-width="1.00" />
<rect x="664.10" y="394.20" width="19.44" height="96.12" fill="#FFD841" fill-opacity="0.960" stroke="#7F6603" stroke-width="1.00" />
<ellipse cx="416.61" cy="245.70" rx="9.72" ry="4.05" fill="#FFF2AE" fill-opacity="1.000" stroke="#7F6603" stroke-width="1.00" />
<ellipse cx="502.35" cy="295.20" rx="9.72" ry="4.05" fill="#FFF2AE" fill-opacity="1.000" stroke="#7F6603" stroke-width="1.00" />
<ellipse cx="588.09" cy="344.70" rx="9.72" ry="4.05" fill="#FFF2AE" fill-opacity="1.000" stroke="#7F6603" stroke-width="1.00" />
<ellipse cx="673.82" cy="394.20" rx="9.72" ry="4.05" fill="#FFF2AE" fill-opacity="1.000" stroke="#7F6603" stroke-width="1.00" />
<ellipse cx="416.61" cy="341.82" rx="9.72" ry="4.05" fill="#DBBA38" fill-opacity="0.600" stroke="#7F6603" stroke-width="0.80" />
<ellipse cx="502.35" cy="391.32" rx="9.72" ry="4.05" fill="#DBBA38" fill-opacity="0.600" stroke="#7F6603" stroke-width="0.80" />
<ellipse cx="588.09" cy="440.82" rx="9.72" ry="4.05" fill="#DBBA38" fill-opacity="0.600" stroke="#7F6603" stroke-width="0.80" />
<ellipse cx="673.82" cy="490.32" rx="9.72" ry="4.05" fill="#DBBA38" fill-opacity="0.600" stroke="#7F6603" stroke-width="0.80" />
<polygon points="440.86,228.90 433.76,231.77 426.66,228.90 426.66,223.16 433.76,220.29 440.86,223.16" fill="#A7D0F6" fill-opacity="1.000" stroke="#B3C7E0" stroke-opacity="1.000" stroke-width="1.00" />
<polygon points="526.60,278.40 519.50,281.27 512.40,278.40 512.40,272.66 519.50,269.79 526.60,272.66" fill="#A7D0F6" fill-opacity="1.000" stroke="#B3C7E0" stroke-opacity="1.000" stroke-width="1.00" />
<polygon points="612.34,327.90 605.23,330.77 598.13,327.90 598.13,322.16 605.23,319.29 612.34,322.16" fill="#A7D0F6" fill-opacity="1.000" stroke="#B3C7E0" stroke-opacity="1.000" stroke-width="1.00" />
<polygon points="698.07,377.40 690.97,380.27 683.87,377.40 683.87,371.66 690.97,368.79 698.07,371.66" fill="#A7D0F6" fill-opacity="1.000" stroke="#B3C7E0" stroke-opacity="1.000" stroke-width="1.00" />
<rect x="0.00" y="0.00" width="1400.00" height="900.00" fill="#0A1630" fill-opacity="0.170" stroke="none" stroke-width="0.00" style="mix-blend-mode:screen"/>
</svg>
