<svg xmlns="http://www.w3.org/2000/svg" width="1400" height="900" viewBox="0 0 1400 900" shape-rendering="geometricPrecision">
<defs>
  <linearGradient id="bgGradient" x1="0%" y1="0%" x2="0%" y2="100%">
    <stop offset="0%" stop-color="#070D16"/>
    <stop offset="100%" stop-color="#111722"/>
  </linearGradient>
  <filter id="softShadow" x="-50%" y="-50%" width="200%" height="200%">
    <feGaussianBlur in="SourceAlpha" stdDeviation="2.2" result="blur"/>
    <feOffset dx="1.6" dy="2.2" result="offset"/>
    <feMerge>
      <feMergeNode in="offset"/>
      <feMergeNode in="SourceGraphic"/>
    </feMerge>
  </filter>
</defs>
<rect x="0.00" y="0.00" width="1400.00" height="900.00" fill="url(#bgGradient)" fill-opacity="1.000" stroke="none" stroke-width="0.00" />
<line x1="471.17" y1="-210.00" x2="-1243.56" y2="780.00" stroke="#3B4350" stroke-opacity="0.220" stroke-width="0.70" />
<line x1="549.12" y1="-165.00" x2="-1165.61" y2="825.00" stroke="#4B5463" stroke-opacity="0.400" stroke-width="1.10" />
<line x1="627.06" y1="-120.00" x2="-1087.67" y2="870.00" stroke="#3B4350" stroke-opacity="0.220" stroke-width="0.70" />
<line x1="705.00" y1="-75.00" x2="-1009.73" y2="915.00" stroke="#3B4350" stroke-opacity="0.220" stroke-width="0.70" />
<line x1="782.94" y1="-30.00" x2="-931.79" y2="960.00" stroke="#3B4350" stroke-opacity="0.220" stroke-width="0.70" />
<line x1="860.88" y1="15.00" x2="-853.85" y2="1005.00" stroke="#3B4350" stroke-opacity="0.220" stroke-width="0.70" />
<line x1="938.83" y1="60.00" x2="-775.90" y2="1050.00" stroke="#4B5463" stroke-opacity="0.400" stroke-width="1.10" />
<line x1="1016.77" y1="105.00" x2="-697.96" y2="1095.00" stroke="#3B4350" stroke-opacity="0.220" stroke-width="0.70" />
<line x1="1094.71" y1="150.00" x2="-620.02" y2="1140.00" stroke="#3B4350" stroke-opacity="0.220" stroke-width="0.70" />
<line x1="1172.65" y1="195.00" x2="-542.08" y2="1185.00" stroke="#3B4350" stroke-opacity="0.220" stroke-width="0.70" />
<line x1="1250.60" y1="240.00" x2="-464.13" y2="1230.00" stroke="#3B4350" stroke-opacity="0.220" stroke-width="0.70" />
<line x1="1328.54" y1="285.00" x2="-386.19" y2="1275.00" stroke="#4B5463" stroke-opacity="0.400" stroke-width="1.10" />
<line x1="1406.48" y1="330.00" x2="-308.25" y2="1320.00" stroke="#3B4350" stroke-opacity="0.220" stroke-width="0.70" />
<line x1="1484.42" y1="375.00" x2="-230.31" y2="1365.00" stroke="#3B4350" stroke-opacity="0.220" stroke-width="0.70" />
<line x1="1562.37" y1="420.00" x2="-152.37" y2="1410.00" stroke="#3B4350" stroke-opacity="0.220" stroke-width="0.70" />
<line x1="1640.31" y1="465.00" x2="-74.42" y2="1455.00" stroke="#3B4350" stroke-opacity="0.220" stroke-width="0.70" />
<line x1="1718.25" y1="510.00" x2="3.52" y2="1500.00" stroke="#4B5463" stroke-opacity="0.400" stroke-width="1.10" />
<line x1="1796.19" y1="555.00" x2="81.46" y2="1545.00" stroke="#3B4350" stroke-opacity="0.220" stroke-width="0.70" />
<line x1="1874.13" y1="600.00" x2="159.40" y2="1590.00" stroke="#3B4350" stroke-opacity="0.220" stroke-width="0.70" />
<line x1="1952.08" y1="645.00" x2="237.35" y2="1635.00" stroke="#3B4350" stroke-opacity="0.220" stroke-width="0.70" />
<line x1="2030.02" y1="690.00" x2="315.29" y2="1680.00" stroke="#3B4350" stroke-opacity="0.220" stroke-width="0.70" />
<line x1="2107.96" y1="735.00" x2="393.23" y2="1725.00" stroke="#4B5463" stroke-opacity="0.400" stroke-width="1.10" />
<line x1="2185.90" y1="780.00" x2="471.17" y2="1770.00" stroke="#3B4350" stroke-opacity="0.220" stroke-width="0.70" />
<line x1="2263.85" y1="825.00" x2="549.12" y2="1815.00" stroke="#3B4350" stroke-opacity="0.220" stroke-width="0.70" />
<line x1="2341.79" y1="870.00" x2="627.06" y2="1860.00" stroke="#3B4350" stroke-opacity="0.220" stroke-width="0.70" />
<line x1="471.17" y1="-210.00" x2="2341.79" y2="870.00" stroke="#3B4350" stroke-opacity="0.220" stroke-width="0.70" />
<line x1="393.23" y1="-165.00" x2="2263.85" y2="915.00" stroke="#3B4350" stroke-opacity="0.220" stroke-width="0.70" />
<line x1="315.29" y1="-120.00" x2="2185.90" y2="960.00" stroke="#3B4350" stroke-opacity="0.220" stroke-width="0.70" />
<line x1="237.35" y1="-75.00" x2="2107.96" y2="1005.00" stroke="#4B5463" stroke-opacity="0.400" stroke-width="1.10" />
<line x1="159.40" y1="-30.00" x2="2030.02" y2="1050.00" stroke="#3B4350" stroke-opacity="0.220" stroke-width="0.70" />
<line x1="81.46" y1="15.00" x2="1952.08" y2="1095.00" stroke="#3B4350" stroke-opacity="0.220" stroke-width="0.70" />
<line x1="3.52" y1="60.00" x2="1874.13" y2="1140.00" stroke="#3B4350" stroke-opacity="0.220" stroke-width="0.70" />
<line x1="-74.42" y1="105.00" x2="1796.19" y2="1185.00" stroke="#3B4350" stroke-opacity="0.220" stroke-width="0.70" />
<line x1="-152.37" y1="150.00" x2="1718.25" y2="1230.00" stroke="#4B5463" stroke-opacity="0.400" stroke-width="1.10" />
<line x1="-230.31" y1="195.00" x2="1640.31" y2="1275.00" stroke="#3B4350" stroke-opacity="0.220" stroke-width="0.70" />
<line x1="-308.25" y1="240.00" x2="1562.37" y2="1320.00" stroke="#3B4350" stroke-opacity="0.220" stroke-width="0.70" />
<line x1="-386.19" y1="285.00" x2="1484.42" y2="1365.00" stroke="#3B4350" stroke-opacity="0.220" stroke-width="0.70" />
<line x1="-464.13" y1="330.00" x2="1406.48" y2="1410.00" stroke="#3B4350" stroke-opacity="0.220" stroke-width="0.70" />
<line x1="-542.08" y1="375.00" x2="1328.54" y2="1455.00" stroke="#4B5463" stroke-opacity="0.400" stroke-width="1.10" />
<line x1="-620.02" y1="420.00" x2="1250.60" y2="1500.00" stroke="#3B4350" stroke-opacity="0.220" stroke-width="0.70" />
<line x1="-697.96" y1="465.00" x2="1172.65" y2="1545.00" stroke="#3B4350" stroke-opacity="0.220" stroke-width="0.70" />
<line x1="-775.90" y1="510.00" x2="1094.71" y2="1590.00" stroke="#3B4350" stroke-opacity="0.220" stroke-width="0.70" />
<line x1="-853.85" y1="555.00" x2="1016.77" y2="1635.00" stroke="#3B4350" stroke-opacity="0.220" stroke-width="0.70" />
<line x1="-931.79" y1="600.00" x2="938.83" y2="1680.00" stroke="#4B5463" stroke-opacity="0.400" stroke-width="1.10" />
<line x1="-1009.73" y1="645.00" x2="860.88" y2="1725.00" stroke="#3B4350" stroke-opacity="0.220" stroke-width="0.70" />
<line x1="-1087.67" y1="690.00" x2="782.94" y2="1770.00" stroke="#3B4350" stroke-opacity="0.220" stroke-width="0.70" />
<line x1="-1165.61" y1="735.00" x2="705.00" y2="1815.00" stroke="#3B4350" stroke-opacity="0.220" stroke-width="0.70" />
<line x1="-1243.56" y1="780.00" x2="627.06" y2="1860.00" stroke="#3B4350" stroke-opacity="0.220" stroke-width="0.70" />
<polygon points="252.93,546.00 938.83,942.00 938.83,922.42 252.93,526.42" fill="#A0A5AA" fill-opacity="1.000" stroke="#8E949D" stroke-opacity="1.000" stroke-width="1.10" />
<polygon points="938.83,942.00 533.53,1176.00 533.53,1156.42 938.83,922.42" fill="#888C92" fill-opacity="1.000" stroke="#8E949D" stroke-opacity="1.000" stroke-width="1.10" />
<polygon points="252.93,526.42 938.83,922.42 533.53,1156.42 -152.37,760.42" fill="#C8CBCF" fill-opacity="1.000" stroke="#8E949D" stroke-opacity="1.000" stroke-width="1.10" />
<polygon points="252.93,578.64 284.11,596.64 284.11,525.44 252.93,507.44" fill="#9DA1A6" fill-opacity="1.000" stroke="#80858D" stroke-opacity="1.000" stroke-width="0.80" />
<polygon points="330.88,623.64 362.05,641.64 362.05,570.44 330.88,552.44" fill="#9DA1A6" fill-opacity="1.000" stroke="#80858D" stroke-opacity="1.000" stroke-width="0.80" />
<polygon points="408.82,668.64 440.00,686.64 440.00,615.44 408.82,597.44" fill="#9DA1A6" fill-opacity="1.000" stroke="#80858D" stroke-opacity="1.000" stroke-width="0.80" />
<polygon points="486.76,713.64 517.94,731.64 517.94,660.44 486.76,642.44" fill="#9DA1A6" fill-opacity="1.000" stroke="#80858D" stroke-opacity="1.000" stroke-width="0.80" />
<polygon points="564.70,758.64 595.88,776.64 595.88,705.44 564.70,687.44" fill="#9DA1A6" fill-opacity="1.000" stroke="#80858D" stroke-opacity="1.000" stroke-width="0.80" />
<polygon points="642.65,803.64 673.82,821.64 673.82,750.44 642.65,732.44" fill="#9DA1A6" fill-opacity="1.000" stroke="#80858D" stroke-opacity="1.000" stroke-width="0.80" />
<polygon points="720.59,848.64 751.77,866.64 751.77,795.44 720.59,777.44" fill="#9DA1A6" fill-opacity="1.000" stroke="#80858D" stroke-opacity="1.000" stroke-width="0.80" />
<polygon points="798.53,893.64 829.71,911.64 829.71,840.44 798.53,822.44" fill="#9DA1A6" fill-opacity="1.000" stroke="#80858D" stroke-opacity="1.000" stroke-width="0.80" />
<line x1="252.93" y1="526.42" x2="938.83" y2="922.42" stroke="#878D95" stroke-opacity="0.900" stroke-width="1.40" />
<line x1="938.83" y1="922.42" x2="533.53" y2="1156.42" stroke="#878D95" stroke-opacity="0.900" stroke-width="1.40" />
<line x1="533.53" y1="1156.42" x2="-152.37" y2="760.42" stroke="#878D95" stroke-opacity="0.900" stroke-width="1.40" />
<line x1="-152.37" y1="760.42" x2="252.93" y2="526.42" stroke="#878D95" stroke-opacity="0.900" stroke-width="1.40" />
<line x1="252.93" y1="392.92" x2="938.83" y2="788.92" stroke="#878D95" stroke-opacity="0.900" stroke-width="1.40" />
<line x1="938.83" y1="788.92" x2="533.53" y2="1022.92" stroke="#878D95" stroke-opacity="0.900" stroke-width="1.40" />
<line x1="533.53" y1="1022.92" x2="-152.37" y2="626.92" stroke="#878D95" stroke-opacity="0.900" stroke-width="1.40" />
<line x1="-152.37" y1="626.92" x2="252.93" y2="392.92" stroke="#878D95" stroke-opacity="0.900" stroke-width="1.40" />
<line x1="252.93" y1="526.42" x2="252.93" y2="392.92" stroke="#878D95" stroke-opacity="0.900" stroke-width="1.40" />
<line x1="938.83" y1="922.42" x2="938.83" y2="788.92" stroke="#878D95" stroke-opacity="0.900" stroke-width="1.40" />
<line x1="533.53" y1="1156.42" x2="533.53" y2="1022.92" stroke="#878D95" stroke-opacity="0.900" stroke-width="1.40" />
<line x1="-152.37" y1="760.42" x2="-152.37" y2="626.92" stroke="#878D95" stroke-opacity="0.900" stroke-width="1.40" />
<polygon points="284.11,596.64 213.96,637.14 213.96,565.94 284.11,525.44" fill="#84888E" fill-opacity="1.000" stroke="#80858D" stroke-opacity="1.000" stroke-width="0.80" />
<polygon points="362.05,641.64 291.91,682.14 291.91,610.94 362.05,570.44" fill="#84888E" fill-opacity="1.000" stroke="#80858D" stroke-opacity="1.000" stroke-width="0.80" />
<polygon points="440.00,686.64 369.85,727.14 369.85,655.94 440.00,615.44" fill="#84888E" fill-opacity="1.000" stroke="#80858D" stroke-opacity="1.000" stroke-width="0.80" />
<polygon points="517.94,731.64 447.79,772.14 447.79,700.94 517.94,660.44" fill="#84888E" fill-opacity="1.000" stroke="#80858D" stroke-opacity="1.000" stroke-width="0.80" />
<polygon points="595.88,776.64 525.73,817.14 525.73,745.94 595.88,705.44" fill="#84888E" fill-opacity="1.000" stroke="#80858D" stroke-opacity="1.000" stroke-width="0.80" />
<polygon points="673.82,821.64 603.68,862.14 603.68,790.94 673.82,750.44" fill="#84888E" fill-opacity="1.000" stroke="#80858D" stroke-opacity="1.000" stroke-width="0.80" />
<polygon points="751.77,866.64 681.62,907.14 681.62,835.94 751.77,795.44" fill="#84888E" fill-opacity="1.000" stroke="#80858D" stroke-opacity="1.000" stroke-width="0.80" />
<polygon points="829.71,911.64 759.56,952.14 759.56,880.94 829.71,840.44" fill="#84888E" fill-opacity="1.000" stroke="#80858D" stroke-opacity="1.000" stroke-width="0.80" />
<polygon points="252.93,507.44 284.11,525.44 213.96,565.94 182.79,547.94" fill="#C4C7CB" fill-opacity="1.000" stroke="#80858D" stroke-opacity="1.000" stroke-width="0.80" />
<polygon points="330.88,552.44 362.05,570.44 291.91,610.94 260.73,592.94" fill="#C4C7CB" fill-opacity="1.000" stroke="#80858D" stroke-opacity="1.000" stroke-width="0.80" />
<polygon points="408.82,597.44 440.00,615.44 369.85,655.94 338.67,637.94" fill="#C4C7CB" fill-opacity="1.000" stroke="#80858D" stroke-opacity="1.000" stroke-width="0.80" />
<polygon points="486.76,642.44 517.94,660.44 447.79,700.94 416.61,682.94" fill="#C4C7CB" fill-opacity="1.000" stroke="#80858D" stroke-opacity="1.000" stroke-width="0.80" />
<polygon points="564.70,687.44 595.88,705.44 525.73,745.94 494.56,727.94" fill="#C4C7CB" fill-opacity="1.000" stroke="#80858D" stroke-opacity="1.000" stroke-width="0.80" />
<polygon points="642.65,732.44 673.82,750.44 603.68,790.94 572.50,772.94" fill="#C4C7CB" fill-opacity="1.000" stroke="#80858D" stroke-opacity="1.000" stroke-width="0.80" />
<polygon points="720.59,777.44 751.77,795.44 681.62,835.94 650.44,817.94" fill="#C4C7CB" fill-opacity="1.000" stroke="#80858D" stroke-opacity="1.000" stroke-width="0.80" />
<polygon points="798.53,822.44 829.71,840.44 759.56,880.94 728.38,862.94" fill="#C4C7CB" fill-opacity="1.000" stroke="#80858D" stroke-opacity="1.000" stroke-width="0.80" />
<polygon points="393.23,385.90 938.83,700.90 938.83,679.54 393.23,364.54" fill="#A4A9AE" fill-opacity="1.000" stroke="#8E949D" stroke-opacity="1.000" stroke-width="1.10" />
<polygon points="938.83,700.90 627.06,880.90 627.06,859.54 938.83,679.54" fill="#8B8F96" fill-opacity="1.000" stroke="#8E949D" stroke-opacity="1.000" stroke-width="1.10" />
<line x1="393.23" y1="385.90" x2="938.83" y2="700.90" stroke="#959BA5" stroke-opacity="0.940" stroke-width="1.80" />
<line x1="938.83" y1="700.90" x2="627.06" y2="880.90" stroke="#959BA5" stroke-opacity="0.940" stroke-width="1.80" />
<line x1="627.06" y1="880.90" x2="81.46" y2="565.90" stroke="#959BA5" stroke-opacity="0.940" stroke-width="1.80" />
<line x1="81.46" y1="565.90" x2="393.23" y2="385.90" stroke="#959BA5" stroke-opacity="0.940" stroke-width="1.80" />
<line x1="393.23" y1="234.60" x2="938.83" y2="549.60" stroke="#959BA5" stroke-opacity="0.940" stroke-width="1.80" />
<line x1="938.83" y1="549.60" x2="627.06" y2="729.60" stroke="#959BA5" stroke-opacity="0.940" stroke-width="1.80" />
<line x1="627.06" y1="729.60" x2="81.46" y2="414.60" stroke="#959BA5" stroke-opacity="0.940" stroke-width="1.80" />
<line x1="81.46" y1="414.60" x2="393.23" y2="234.60" stroke="#959BA5" stroke-opacity="0.940" stroke-width="1.80" />
<line x1="393.23" y1="385.90" x2="393.23" y2="234.60" stroke="#959BA5" stroke-opacity="0.940" stroke-width="1.80" />
<line x1="938.83" y1="700.90" x2="938.83" y2="549.60" stroke="#959BA5" stroke-opacity="0.940" stroke-width="1.80" />
<line x1="627.06" y1="880.90" x2="627.06" y2="729.60" stroke="#959BA5" stroke-opacity="0.940" stroke-width="1.80" />
<line x1="81.46" y1="565.90" x2="81.46" y2="414.60" stroke="#959BA5" stroke-opacity="0.940" stroke-width="1.80" />
<polygon points="393.23,364.54 938.83,679.54 627.06,859.54 81.46,544.54" fill="#D7DADE" fill-opacity="1.000" stroke="#8E949D" stroke-opacity="1.000" stroke-width="1.10" />
<line x1="346.47" y1="108.90" x2="190.58" y2="404.20" stroke="#99A0AA" stroke-opacity="0.850" stroke-width="1.40" />
<line x1="190.58" y1="404.20" x2="362.05" y2="359.00" stroke="#99A0AA" stroke-opacity="0.800" stroke-width="1.20" />
<line x1="424.41" y1="153.90" x2="268.52" y2="449.20" stroke="#99A0AA" stroke-opacity="0.850" stroke-width="1.40" />
<line x1="268.52" y1="449.20" x2="440.00" y2="404.00" stroke="#99A0AA" stroke-opacity="0.800" stroke-width="1.20" />
<line x1="502.35" y1="198.90" x2="346.47" y2="494.20" stroke="#99A0AA" stroke-opacity="0.850" stroke-width="1.40" />
<line x1="346.47" y1="494.20" x2="517.94" y2="449.00" stroke="#99A0AA" stroke-opacity="0.800" stroke-width="1.20" />
<line x1="580.29" y1="243.90" x2="424.41" y2="539.20" stroke="#99A0AA" stroke-opacity="0.850" stroke-width="1.40" />
<line x1="424.41" y1="539.20" x2="595.88" y2="494.00" stroke="#99A0AA" stroke-opacity="0.800" stroke-width="1.20" />
<line x1="658.23" y1="288.90" x2="502.35" y2="584.20" stroke="#99A0AA" stroke-opacity="0.850" stroke-width="1.40" />
<line x1="502.35" y1="584.20" x2="673.82" y2="539.00" stroke="#99A0AA" stroke-opacity="0.800" stroke-width="1.20" />
<line x1="736.18" y1="333.90" x2="580.29" y2="629.20" stroke="#99A0AA" stroke-opacity="0.850" stroke-width="1.40" />
<line x1="580.29" y1="629.20" x2="751.77" y2="584.00" stroke="#99A0AA" stroke-opacity="0.800" stroke-width="1.20" />
<line x1="814.12" y1="378.90" x2="658.23" y2="674.20" stroke="#99A0AA" stroke-opacity="0.850" stroke-width="1.40" />
<line x1="658.23" y1="674.20" x2="829.71" y2="629.00" stroke="#99A0AA" stroke-opacity="0.800" stroke-width="1.20" />
<line x1="892.06" y1="423.90" x2="736.18" y2="719.20" stroke="#99A0AA" stroke-opacity="0.850" stroke-width="1.40" />
<line x1="736.18" y1="719.20" x2="907.65" y2="674.00" stroke="#99A0AA" stroke-opacity="0.800" stroke-width="1.20" />
<line x1="970.00" y1="468.90" x2="814.12" y2="764.20" stroke="#99A0AA" stroke-opacity="0.850" stroke-width="1.40" />
<line x1="814.12" y1="764.20" x2="985.59" y2="719.00" stroke="#99A0AA" stroke-opacity="0.800" stroke-width="1.20" />
<line x1="1047.95" y1="513.90" x2="892.06" y2="809.20" stroke="#99A0AA" stroke-opacity="0.850" stroke-width="1.40" />
<line x1="892.06" y1="809.20" x2="1063.53" y2="764.00" stroke="#99A0AA" stroke-opacity="0.800" stroke-width="1.20" />
<polygon points="362.05,63.90 1172.65,531.90 1172.65,514.10 362.05,46.10" fill="#A6ABB0" fill-opacity="1.000" stroke="#8E949D" stroke-opacity="1.000" stroke-width="1.00" />
<polygon points="1172.65,531.90 689.41,810.90 689.41,793.10 1172.65,514.10" fill="#8F9399" fill-opacity="1.000" stroke="#8E949D" stroke-opacity="1.000" stroke-width="1.00" />
<polygon points="362.05,46.10 1172.65,514.10 689.41,793.10 -121.19,325.10" fill="#D3D6DA" fill-opacity="1.000" stroke="#8E949D" stroke-opacity="1.000" stroke-width="1.00" />
<line x1="455.58" y1="262.10" x2="814.12" y2="469.10" stroke="#959BA5" stroke-opacity="0.920" stroke-width="1.50" />
<line x1="814.12" y1="469.10" x2="673.82" y2="550.10" stroke="#959BA5" stroke-opacity="0.920" stroke-width="1.50" />
<line x1="673.82" y1="550.10" x2="315.29" y2="343.10" stroke="#959BA5" stroke-opacity="0.920" stroke-width="1.50" />
<line x1="315.29" y1="343.10" x2="455.58" y2="262.10" stroke="#959BA5" stroke-opacity="0.920" stroke-width="1.50" />
<line x1="455.58" y1="190.90" x2="814.12" y2="397.90" stroke="#959BA5" stroke-opacity="0.920" stroke-width="1.50" />
<line x1="814.12" y1="397.90" x2="673.82" y2="478.90" stroke="#959BA5" stroke-opacity="0.920" stroke-width="1.50" />
<line x1="673.82" y1="478.90" x2="315.29" y2="271.90" stroke="#959BA5" stroke-opacity="0.920" stroke-width="1.50" />
<line x1="315.29" y1="271.90" x2="455.58" y2="190.90" stroke="#959BA5" stroke-opacity="0.920" stroke-width="1.50" />
<line x1="455.58" y1="262.10" x2="455.58" y2="190.90" stroke="#959BA5" stroke-opacity="0.920" stroke-width="1.50" />
<line x1="814.12" y1="469.10" x2="814.12" y2="397.90" stroke="#959BA5" stroke-opacity="0.920" stroke-width="1.50" />
<line x1="673.82" y1="550.10" x2="673.82" y2="478.90" stroke="#959BA5" stroke-opacity="0.920" stroke-width="1.50" />
<line x1="315.29" y1="343.10" x2="315.29" y2="271.90" stroke="#959BA5" stroke-opacity="0.920" stroke-width="1.50" />
<line x1="210.07" y1="554.78" x2="210.07" y2="427.51" stroke="#888E97" stroke-opacity="0.680" stroke-width="1.10" />
<line x1="892.06" y1="948.53" x2="892.06" y2="821.26" stroke="#888E97" stroke-opacity="0.680" stroke-width="1.10" />
<line x1="132.12" y1="599.78" x2="132.12" y2="472.51" stroke="#888E97" stroke-opacity="0.680" stroke-width="1.10" />
<line x1="814.12" y1="993.53" x2="814.12" y2="866.26" stroke="#888E97" stroke-opacity="0.680" stroke-width="1.10" />
<line x1="54.18" y1="644.78" x2="54.18" y2="517.51" stroke="#888E97" stroke-opacity="0.680" stroke-width="1.10" />
<line x1="736.18" y1="1038.53" x2="736.18" y2="911.26" stroke="#888E97" stroke-opacity="0.680" stroke-width="1.10" />
<line x1="-23.76" y1="689.78" x2="-23.76" y2="562.51" stroke="#888E97" stroke-opacity="0.680" stroke-width="1.10" />
<line x1="658.23" y1="1083.53" x2="658.23" y2="956.26" stroke="#888E97" stroke-opacity="0.680" stroke-width="1.10" />
<polygon points="393.23,398.76 418.17,413.16 418.17,393.58 393.23,379.18" fill="#A4A9AE" fill-opacity="1.000" stroke="#7D828A" stroke-opacity="1.000" stroke-width="0.70" />
<polygon points="299.70,452.76 324.64,467.16 324.64,447.58 299.70,433.18" fill="#A4A9AE" fill-opacity="1.000" stroke="#7D828A" stroke-opacity="1.000" stroke-width="0.70" />
<polygon points="206.17,506.76 231.11,521.16 231.11,501.58 206.17,487.18" fill="#A4A9AE" fill-opacity="1.000" stroke="#7D828A" stroke-opacity="1.000" stroke-width="0.70" />
<polygon points="502.35,461.76 527.29,476.16 527.29,456.58 502.35,442.18" fill="#A4A9AE" fill-opacity="1.000" stroke="#7D828A" stroke-opacity="1.000" stroke-width="0.70" />
<polygon points="408.82,515.76 433.76,530.16 433.76,510.58 408.82,496.18" fill="#A4A9AE" fill-opacity="1.000" stroke="#7D828A" stroke-opacity="1.000" stroke-width="0.70" />
<polygon points="315.29,569.76 340.23,584.16 340.23,564.58 315.29,550.18" fill="#A4A9AE" fill-opacity="1.000" stroke="#7D828A" stroke-opacity="1.000" stroke-width="0.70" />
<polygon points="611.47,524.76 636.41,539.16 636.41,519.58 611.47,505.18" fill="#A4A9AE" fill-opacity="1.000" stroke="#7D828A" stroke-opacity="1.000" stroke-width="0.70" />
<polygon points="517.94,578.76 542.88,593.16 542.88,573.58 517.94,559.18" fill="#A4A9AE" fill-opacity="1.000" stroke="#7D828A" stroke-opacity="1.000" stroke-width="0.70" />
<polygon points="424.41,632.76 449.35,647.16 449.35,627.58 424.41,613.18" fill="#A4A9AE" fill-opacity="1.000" stroke="#7D828A" stroke-opacity="1.000" stroke-width="0.70" />
<polygon points="720.59,587.76 745.53,602.16 745.53,582.58 720.59,568.18" fill="#A4A9AE" fill-opacity="1.000" stroke="#7D828A" stroke-opacity="1.000" stroke-width="0.70" />
<polygon points="627.06,641.76 652.00,656.16 652.00,636.58 627.06,622.18" fill="#A4A9AE" fill-opacity="1.000" stroke="#7D828A" stroke-opacity="1.000" stroke-width="0.70" />
<polygon points="533.53,695.76 558.47,710.16 558.47,690.58 533.53,676.18" fill="#A4A9AE" fill-opacity="1.000" stroke="#7D828A" stroke-opacity="1.000" stroke-width="0.70" />
<polygon points="829.71,650.76 854.65,665.16 854.65,645.58 829.71,631.18" fill="#A4A9AE" fill-opacity="1.000" stroke="#7D828A" stroke-opacity="1.000" stroke-width="0.70" />
<polygon points="736.18,704.76 761.12,719.16 761.12,699.58 736.18,685.18" fill="#A4A9AE" fill-opacity="1.000" stroke="#7D828A" stroke-opacity="1.000" stroke-width="0.70" />
<polygon points="642.65,758.76 667.59,773.16 667.59,753.58 642.65,739.18" fill="#A4A9AE" fill-opacity="1.000" stroke="#7D828A" stroke-opacity="1.000" stroke-width="0.70" />
<polygon points="418.17,413.16 393.23,427.56 393.23,407.98 418.17,393.58" fill="#8F9399" fill-opacity="1.000" stroke="#7D828A" stroke-opacity="1.000" stroke-width="0.70" />
<polygon points="324.64,467.16 299.70,481.56 299.70,461.98 324.64,447.58" fill="#8F9399" fill-opacity="1.000" stroke="#7D828A" stroke-opacity="1.000" stroke-width="0.70" />
<polygon points="231.11,521.16 206.17,535.56 206.17,515.98 231.11,501.58" fill="#8F9399" fill-opacity="1.000" stroke="#7D828A" stroke-opacity="1.000" stroke-width="0.70" />
<polygon points="527.29,476.16 502.35,490.56 502.35,470.98 527.29,456.58" fill="#8F9399" fill-opacity="1.000" stroke="#7D828A" stroke-opacity="1.000" stroke-width="0.70" />
<polygon points="433.76,530.16 408.82,544.56 408.82,524.98 433.76,510.58" fill="#8F9399" fill-opacity="1.000" stroke="#7D828A" stroke-opacity="1.000" stroke-width="0.70" />
<polygon points="340.23,584.16 315.29,598.56 315.29,578.98 340.23,564.58" fill="#8F9399" fill-opacity="1.000" stroke="#7D828A" stroke-opacity="1.000" stroke-width="0.70" />
<polygon points="636.41,539.16 611.47,553.56 611.47,533.98 636.41,519.58" fill="#8F9399" fill-opacity="1.000" stroke="#7D828A" stroke-opacity="1.000" stroke-width="0.70" />
<polygon points="542.88,593.16 517.94,607.56 517.94,587.98 542.88,573.58" fill="#8F9399" fill-opacity="1.000" stroke="#7D828A" stroke-opacity="1.000" stroke-width="0.70" />
<polygon points="449.35,647.16 424.41,661.56 424.41,641.98 449.35,627.58" fill="#8F9399" fill-opacity="1.000" stroke="#7D828A" stroke-opacity="1.000" stroke-width="0.70" />
<polygon points="745.53,602.16 720.59,616.56 720.59,596.98 745.53,582.58" fill="#8F9399" fill-opacity="1.000" stroke="#7D828A" stroke-opacity="1.000" stroke-width="0.70" />
<polygon points="652.00,656.16 627.06,670.56 627.06,650.98 652.00,636.58" fill="#8F9399" fill-opacity="1.000" stroke="#7D828A" stroke-opacity="1.000" stroke-width="0.70" />
<polygon points="558.47,710.16 533.53,724.56 533.53,704.98 558.47,690.58" fill="#8F9399" fill-opacity="1.000" stroke="#7D828A" stroke-opacity="1.000" stroke-width="0.70" />
<polygon points="854.65,665.16 829.71,679.56 829.71,659.98 854.65,645.58" fill="#8F9399" fill-opacity="1.000" stroke="#7D828A" stroke-opacity="1.000" stroke-width="0.70" />
<polygon points="761.12,719.16 736.18,733.56 736.18,713.98 761.12,699.58" fill="#8F9399" fill-opacity="1.000" stroke="#7D828A" stroke-opacity="1.000" stroke-width="0.70" />
<polygon points="667.59,773.16 642.65,787.56 642.65,767.98 667.59,753.58" fill="#8F9399" fill-opacity="1.000" stroke="#7D828A" stroke-opacity="1.000" stroke-width="0.70" />
<polygon points="393.23,379.18 418.17,393.58 393.23,407.98 368.29,393.58" fill="#CFD2D6" fill-opacity="1.000" stroke="#7D828A" stroke-opacity="1.000" stroke-width="0.70" />
<polygon points="299.70,433.18 324.64,447.58 299.70,461.98 274.76,447.58" fill="#CFD2D6" fill-opacity="1.000" stroke="#7D828A" stroke-opacity="1.000" stroke-width="0.70" />
<polygon points="206.17,487.18 231.11,501.58 206.17,515.98 181.23,501.58" fill="#CFD2D6" fill-opacity="1.000" stroke="#7D828A" stroke-opacity="1.000" stroke-width="0.70" />
<polygon points="502.35,442.18 527.29,456.58 502.35,470.98 477.41,456.58" fill="#CFD2D6" fill-opacity="1.000" stroke="#7D828A" stroke-opacity="1.000" stroke-width="0.70" />
<polygon points="408.82,496.18 433.76,510.58 408.82,524.98 383.88,510.58" fill="#CFD2D6" fill-opacity="1.000" stroke="#7D828A" stroke-opacity="1.000" stroke-width="0.70" />
<polygon points="315.29,550.18 340.23,564.58 315.29,578.98 290.35,564.58" fill="#CFD2D6" fill-opacity="1.000" stroke="#7D828A" stroke-opacity="1.000" stroke-width="0.70" />
<polygon points="611.47,505.18 636.41,519.58 611.47,533.98 586.53,519.58" fill="#CFD2D6" fill-opacity="1.000" stroke="#7D828A" stroke-opacity="1.000" stroke-width="0.70" />
<polygon points="517.94,559.18 542.88,573.58 517.94,587.98 493.00,573.58" fill="#CFD2D6" fill-opacity="1.000" stroke="#7D828A" stroke-opacity="1.000" stroke-width="0.70" />
<polygon points="424.41,613.18 449.35,627.58 424.41,641.98 399.47,627.58" fill="#CFD2D6" fill-opacity="1.000" stroke="#7D828A" stroke-opacity="1.000" stroke-width="0.70" />
<polygon points="720.59,568.18 745.53,582.58 720.59,596.98 695.65,582.58" fill="#CFD2D6" fill-opacity="1.000" stroke="#7D828A" stroke-opacity="1.000" stroke-width="0.70" />
<polygon points="627.06,622.18 652.00,636.58 627.06,650.98 602.12,636.58" fill="#CFD2D6" fill-opacity="1.000" stroke="#7D828A" stroke-opacity="1.000" stroke-width="0.70" />
<polygon points="533.53,676.18 558.47,690.58 533.53,704.98 508.59,690.58" fill="#CFD2D6" fill-opacity="1.000" stroke="#7D828A" stroke-opacity="1.000" stroke-width="0.70" />
<polygon points="829.71,631.18 854.65,645.58 829.71,659.98 804.77,645.58" fill="#CFD2D6" fill-opacity="1.000" stroke="#7D828A" stroke-opacity="1.000" stroke-width="0.70" />
<polygon points="736.18,685.18 761.12,699.58 736.18,713.98 711.24,699.58" fill="#CFD2D6" fill-opacity="1.000" stroke="#7D828A" stroke-opacity="1.000" stroke-width="0.70" />
<polygon points="642.65,739.18 667.59,753.58 642.65,767.98 617.70,753.58" fill="#CFD2D6" fill-opacity="1.000" stroke="#7D828A" stroke-opacity="1.000" stroke-width="0.70" />
<polygon points="354.26,93.82 408.82,125.32 408.82,100.40 354.26,68.90" fill="#ACB0B6" fill-opacity="1.000" stroke="#8E949D" stroke-opacity="1.000" stroke-width="0.80" />
<polygon points="564.70,215.32 619.26,246.82 619.26,221.90 564.70,190.40" fill="#ACB0B6" fill-opacity="1.000" stroke="#8E949D" stroke-opacity="1.000" stroke-width="0.80" />
<polygon points="782.94,341.32 837.50,372.82 837.50,347.90 782.94,316.40" fill="#ACB0B6" fill-opacity="1.000" stroke="#8E949D" stroke-opacity="1.000" stroke-width="0.80" />
<polygon points="408.82,125.32 362.05,152.32 362.05,127.40 408.82,100.40" fill="#92969D" fill-opacity="1.000" stroke="#8E949D" stroke-opacity="1.000" stroke-width="0.80" />
<polygon points="619.26,246.82 572.50,273.82 572.50,248.90 619.26,221.90" fill="#92969D" fill-opacity="1.000" stroke="#8E949D" stroke-opacity="1.000" stroke-width="0.80" />
<polygon points="837.50,372.82 790.74,399.82 790.74,374.90 837.50,347.90" fill="#92969D" fill-opacity="1.000" stroke="#8E949D" stroke-opacity="1.000" stroke-width="0.80" />
<polygon points="354.26,68.90 408.82,100.40 362.05,127.40 307.49,95.90" fill="#D7DADE" fill-opacity="1.000" stroke="#8E949D" stroke-opacity="1.000" stroke-width="0.80" />
<polygon points="564.70,190.40 619.26,221.90 572.50,248.90 517.94,217.40" fill="#D7DADE" fill-opacity="1.000" stroke="#8E949D" stroke-opacity="1.000" stroke-width="0.80" />
<polygon points="782.94,316.40 837.50,347.90 790.74,374.90 736.18,343.40" fill="#D7DADE" fill-opacity="1.000" stroke="#8E949D" stroke-opacity="1.000" stroke-width="0.80" />
<line x1="385.44" y1="346.30" x2="860.88" y2="620.80" stroke="#E5DD1E" stroke-opacity="1.000" stroke-width="8.75" stroke-linecap="round"/>
<line x1="323.08" y1="382.30" x2="798.53" y2="656.80" stroke="#E5DD1E" stroke-opacity="1.000" stroke-width="8.75" stroke-linecap="round"/>
<line x1="260.73" y1="418.30" x2="736.18" y2="692.80" stroke="#E5DD1E" stroke-opacity="1.000" stroke-width="8.75" stroke-linecap="round"/>
<line x1="384.47" y1="347.97" x2="859.92" y2="622.47" stroke="#F9F279" stroke-opacity="1.000" stroke-width="2.27" stroke-linecap="round"/>
<line x1="322.12" y1="383.97" x2="797.57" y2="658.47" stroke="#F9F279" stroke-opacity="1.000" stroke-width="2.27" stroke-linecap="round"/>
<line x1="259.77" y1="419.97" x2="735.21" y2="694.47" stroke="#F9F279" stroke-opacity="1.000" stroke-width="2.27" stroke-linecap="round"/>
<ellipse cx="385.44" cy="346.30" rx="2.97" ry="1.75" fill="#E5DD1E" fill-opacity="1.000" stroke="#8E8505" stroke-width="0.80" />
<ellipse cx="860.88" cy="620.80" rx="2.97" ry="1.75" fill="#E5DD1E" fill-opacity="1.000" stroke="#8E8505" stroke-width="0.80" />
<ellipse cx="323.08" cy="382.30" rx="2.97" ry="1.75" fill="#E5DD1E" fill-opacity="1.000" stroke="#8E8505" stroke-width="0.80" />
<ellipse cx="798.53" cy="656.80" rx="2.97" ry="1.75" fill="#E5DD1E" fill-opacity="1.000" stroke="#8E8505" stroke-width="0.80" />
<ellipse cx="260.73" cy="418.30" rx="2.97" ry="1.75" fill="#E5DD1E" fill-opacity="1.000" stroke="#8E8505" stroke-width="0.80" />
<ellipse cx="736.18" cy="692.80" rx="2.97" ry="1.75" fill="#E5DD1E" fill-opacity="1.000" stroke="#8E8505" stroke-width="0.80" />
<line x1="868.68" y1="625.30" x2="884.27" y2="723.70" stroke="#E5DD1E" stroke-opacity="1.000" stroke-width="8.10" stroke-linecap="round"/>
<line x1="806.32" y1="661.30" x2="829.71" y2="764.20" stroke="#E5DD1E" stroke-opacity="1.000" stroke-width="8.10" stroke-linecap="round"/>
<line x1="743.97" y1="697.30" x2="759.56" y2="795.70" stroke="#E5DD1E" stroke-opacity="1.000" stroke-width="8.10" stroke-linecap="round"/>
<line x1="377.64" y1="341.80" x2="354.26" y2="345.60" stroke="#E5DD1E" stroke-opacity="1.000" stroke-width="8.10" stroke-linecap="round"/>
<line x1="866.92" y1="625.58" x2="882.51" y2="723.98" stroke="#F9F279" stroke-opacity="1.000" stroke-width="2.11" stroke-linecap="round"/>
<line x1="804.59" y1="661.69" x2="827.97" y2="764.59" stroke="#F9F279" stroke-opacity="1.000" stroke-width="2.11" stroke-linecap="round"/>
<line x1="742.21" y1="697.58" x2="757.80" y2="795.98" stroke="#F9F279" stroke-opacity="1.000" stroke-width="2.11" stroke-linecap="round"/>
<line x1="377.36" y1="340.04" x2="353.97" y2="343.84" stroke="#F9F279" stroke-opacity="1.000" stroke-width="2.11" stroke-linecap="round"/>
<line x1="884.27" y1="723.70" x2="884.27" y2="777.10" stroke="#E5DD1E" stroke-opacity="1.000" stroke-width="7.65" stroke-linecap="round"/>
<line x1="829.71" y1="764.20" x2="829.71" y2="817.60" stroke="#E5DD1E" stroke-opacity="1.000" stroke-width="7.65" stroke-linecap="round"/>
<line x1="759.56" y1="795.70" x2="759.56" y2="849.10" stroke="#E5DD1E" stroke-opacity="1.000" stroke-width="7.65" stroke-linecap="round"/>
<ellipse cx="868.68" cy="625.30" rx="2.75" ry="1.62" fill="#E5DD1E" fill-opacity="1.000" stroke="#8E8505" stroke-width="0.80" />
<ellipse cx="884.27" cy="723.70" rx="2.75" ry="1.62" fill="#E5DD1E" fill-opacity="1.000" stroke="#8E8505" stroke-width="0.80" />
<ellipse cx="806.32" cy="661.30" rx="2.75" ry="1.62" fill="#E5DD1E" fill-opacity="1.000" stroke="#8E8505" stroke-width="0.80" />
<ellipse cx="829.71" cy="764.20" rx="2.75" ry="1.62" fill="#E5DD1E" fill-opacity="1.000" stroke="#8E8505" stroke-width="0.80" />
<ellipse cx="743.97" cy="697.30" rx="2.75" ry="1.62" fill="#E5DD1E" fill-opacity="1.000" stroke="#8E8505" stroke-width="0.80" />
<ellipse cx="759.56" cy="795.70" rx="2.75" ry="1.62" fill="#E5DD1E" fill-opacity="1.000" stroke="#8E8505" stroke-width="0.80" />
<ellipse cx="377.64" cy="341.80" rx="2.75" ry="1.62" fill="#E5DD1E" fill-opacity="1.000" stroke="#8E8505" stroke-width="0.80" />
<ellipse cx="354.26" cy="345.60" rx="2.75" ry="1.62" fill="#E5DD1E" fill-opacity="1.000" stroke="#8E8505" stroke-width="0.80" />
<line x1="882.59" y1="723.70" x2="882.59" y2="777.10" stroke="#F9F279" stroke-opacity="1.000" stroke-width="1.99" stroke-linecap="round"/>
<line x1="828.03" y1="764.20" x2="828.03" y2="817.60" stroke="#F9F279" stroke-opacity="1.000" stroke-width="1.99" stroke-linecap="round"/>
<line x1="757.88" y1="795.70" x2="757.88" y2="849.10" stroke="#F9F279" stroke-opacity="1.000" stroke-width="1.99" stroke-linecap="round"/>
<ellipse cx="884.27" cy="723.70" rx="2.60" ry="1.53" fill="#E5DD1E" fill-opacity="1.000" stroke="#8E8505" stroke-width="0.80" />
<ellipse cx="884.27" cy="777.10" rx="2.60" ry="1.53" fill="#E5DD1E" fill-opacity="1.000" stroke="#8E8505" stroke-width="0.80" />
<ellipse cx="829.71" cy="764.20" rx="2.60" ry="1.53" fill="#E5DD1E" fill-opacity="1.000" stroke="#8E8505" stroke-width="0.80" />
<ellipse cx="829.71" cy="817.60" rx="2.60" ry="1.53" fill="#E5DD1E" fill-opacity="1.000" stroke="#8E8505" stroke-width="0.80" />
<ellipse cx="759.56" cy="795.70" rx="2.60" ry="1.53" fill="#E5DD1E" fill-opacity="1.000" stroke="#8E8505" stroke-width="0.80" />
<ellipse cx="759.56" cy="849.10" rx="2.60" ry="1.53" fill="#E5DD1E" fill-opacity="1.000" stroke="#8E8505" stroke-width="0.80" />
<rect x="406.89" y="240.70" width="19.44" height="96.12" fill="#E5DD1E" fill-opacity="0.960" stroke="#787104" stroke-width="1.00" />
<rect x="492.63" y="290.20" width="19.44" height="96.12" fill="#E5DD1E" fill-opacity="0.960" stroke="#787104" stroke-width="1.00" />
<rect x="578.37" y="339.70" width="19.44" height="96.12" fill="#E5DD1E" fill-opacity="0.960" stroke="#787104" stroke-width="1.00" />
<rect x="664.10" y="389.20" width="19.44" height="96.12" fill="#E5DD1E" fill-opacity="0.960" stroke="#787104" stroke-width="1.00" />
<ellipse cx="416.61" cy="240.70" rx="9.72" ry="4.05" fill="#F9F279" fill-opacity="1.000" stroke="#787104" stroke-width="1.00" />
<ellipse cx="502.35" cy="290.20" rx="9.72" ry="4.05" fill="#F9F279" fill-opacity="1.000" stroke="#787104" stroke-width="1.00" />
<ellipse cx="588.09" cy="339.70" rx="9.72" ry="4.05" fill="#F9F279" fill-opacity="1.000" stroke="#787104" stroke-width="1.00" />
<ellipse cx="673.82" cy="389.20" rx="9.72" ry="4.05" fill="#F9F279" fill-opacity="1.000" stroke="#787104" stroke-width="1.00" />
<ellipse cx="416.61" cy="336.82" rx="9.72" ry="4.05" fill="#C5BE1A" fill-opacity="0.600" stroke="#787104" stroke-width="0.80" />
<ellipse cx="502.35" cy="386.32" rx="9.72" ry="4.05" fill="#C5BE1A" fill-opacity="0.600" stroke="#787104" stroke-width="0.80" />
<ellipse cx="588.09" cy="435.82" rx="9.72" ry="4.05" fill="#C5BE1A" fill-opacity="0.600" stroke="#787104" stroke-width="0.80" />
<ellipse cx="673.82" cy="485.32" rx="9.72" ry="4.05" fill="#C5BE1A" fill-opacity="0.600" stroke="#787104" stroke-width="0.80" />
<polygon points="440.86,223.90 433.76,226.77 426.66,223.90 426.66,218.16 433.76,215.29 440.86,218.16" fill="#E0E3E7" fill-opacity="1.000" stroke="#7D828A" stroke-opacity="1.000" stroke-width="1.00" />
<polygon points="526.60,273.40 519.50,276.27 512.40,273.40 512.40,267.66 519.50,264.79 526.60,267.66" fill="#E0E3E7" fill-opacity="1.000" stroke="#7D828A" stroke-opacity="1.000" stroke-width="1.00" />
<polygon points="612.34,322.90 605.23,325.77 598.13,322.90 598.13,317.16 605.23,314.29 612.34,317.16" fill="#E0E3E7" fill-opacity="1.000" stroke="#7D828A" stroke-opacity="1.000" stroke-width="1.00" />
<polygon points="698.07,372.40 690.97,375.27 683.87,372.40 683.87,366.66 690.97,363.79 698.07,366.66" fill="#E0E3E7" fill-opacity="1.000" stroke="#7D828A" stroke-opacity="1.000" stroke-width="1.00" />
</svg>
