<svg xmlns="http://www.w3.org/2000/svg" width="1400" height="900" viewBox="0 0 1400 900" shape-rendering="geometricPrecision">
<defs>
  <linearGradient id="bgGradient" x1="0%" y1="0%" x2="0%" y2="100%">
    <stop offset="0%" stop-color="#CDE2F4"/>
    <stop offset="100%" stop-color="#A7C8E4"/>
  </linearGradient>
  <filter id="softShadow" x="-50%" y="-50%" width="200%" height="200%">
    <feGaussianBlur in="SourceAlpha" stdDeviation="2.2" result="blur"/>
    <feOffset dx="1.6" dy="2.2" result="offset"/>
    <feMerge>
      <feMergeNode in="offset"/>
      <feMergeNode in="SourceGraphic"/>
    </feMerge>
  </filter>
</defs>
<rect x="0.00" y="0.00" width="1400.00" height="900.00" fill="url(#bgGradient)" fill-opacity="1.000" stroke="none" stroke-width="0.00" />
<line x1="471.17" y1="-200.00" x2="-1243.56" y2="790.00" stroke="#96AEC4" stroke-opacity="0.220" stroke-width="0.70" />
<line x1="549.12" y1="-155.00" x2="-1165.61" y2="835.00" stroke="#7C97B1" stroke-opacity="0.400" stroke-width="1.10" />
<line x1="627.06" y1="-110.00" x2="-1087.67" y2="880.00" stroke="#96AEC4" stroke-opacity="0.220" stroke-width="0.70" />
<line x1="705.00" y1="-65.00" x2="-1009.73" y2="925.00" stroke="#96AEC4" stroke-opacity="0.220" stroke-width="0.70" />
<line x1="782.94" y1="-20.00" x2="-931.79" y2="970.00" stroke="#96AEC4" stroke-opacity="0.220" stroke-width="0.70" />
<line x1="860.88" y1="25.00" x2="-853.85" y2="1015.00" stroke="#96AEC4" stroke-opacity="0.220" stroke-width="0.70" />
<line x1="938.83" y1="70.00" x2="-775.90" y2="1060.00" stroke="#7C97B1" stroke-opacity="0.400" stroke-width="1.10" />
<line x1="1016.77" y1="115.00" x2="-697.96" y2="1105.00" stroke="#96AEC4" stroke-opacity="0.220" stroke-width="0.70" />
<line x1="1094.71" y1="160.00" x2="-620.02" y2="1150.00" stroke="#96AEC4" stroke-opacity="0.220" stroke-width="0.70" />
<line x1="1172.65" y1="205.00" x2="-542.08" y2="1195.00" stroke="#96AEC4" stroke-opacity="0.220" stroke-width="0.70" />
<line x1="1250.60" y1="250.00" x2="-464.13" y2="1240.00" stroke="#96AEC4" stroke-opacity="0.220" stroke-width="0.70" />
<line x1="1328.54" y1="295.00" x2="-386.19" y2="1285.00" stroke="#7C97B1" stroke-opacity="0.400" stroke-width="1.10" />
<line x1="1406.48" y1="340.00" x2="-308.25" y2="1330.00" stroke="#96AEC4" stroke-opacity="0.220" stroke-width="0.70" />
<line x1="1484.42" y1="385.00" x2="-230.31" y2="1375.00" stroke="#96AEC4" stroke-opacity="0.220" stroke-width="0.70" />
<line x1="1562.37" y1="430.00" x2="-152.37" y2="1420.00" stroke="#96AEC4" stroke-opacity="0.220" stroke-width="0.70" />
<line x1="1640.31" y1="475.00" x2="-74.42" y2="1465.00" stroke="#96AEC4" stroke-opacity="0.220" stroke-width="0.70" />
<line x1="1718.25" y1="520.00" x2="3.52" y2="1510.00" stroke="#7C97B1" stroke-opacity="0.400" stroke-width="1.10" />
<line x1="1796.19" y1="565.00" x2="81.46" y2="1555.00" stroke="#96AEC4" stroke-opacity="0.220" stroke-width="0.70" />
<line x1="1874.13" y1="610.00" x2="159.40" y2="1600.00" stroke="#96AEC4" stroke-opacity="0.220" stroke-width="0.70" />
<line x1="1952.08" y1="655.00" x2="237.35" y2="1645.00" stroke="#96AEC4" stroke-opacity="0.220" stroke-width="0.70" />
<line x1="2030.02" y1="700.00" x2="315.29" y2="1690.00" stroke="#96AEC4" stroke-opacity="0.220" stroke-width="0.70" />
<line x1="2107.96" y1="745.00" x2="393.23" y2="1735.00" stroke="#7C97B1" stroke-opacity="0.400" stroke-width="1.10" />
<line x1="2185.90" y1="790.00" x2="471.17" y2="1780.00" stroke="#96AEC4" stroke-opacity="0.220" stroke-width="0.70" />
<line x1="2263.85" y1="835.00" x2="549.12" y2="1825.00" stroke="#96AEC4" stroke-opacity="0.220" stroke-width="0.70" />
<line x1="2341.79" y1="880.00" x2="627.06" y2="1870.00" stroke="#96AEC4" stroke-opacity="0.220" stroke-width="0.70" />
<line x1="471.17" y1="-200.00" x2="2341.79" y2="880.00" stroke="#96AEC4" stroke-opacity="0.220" stroke-width="0.70" />
<line x1="393.23" y1="-155.00" x2="2263.85" y2="925.00" stroke="#96AEC4" stroke-opacity="0.220" stroke-width="0.70" />
<line x1="315.29" y1="-110.00" x2="2185.90" y2="970.00" stroke="#96AEC4" stroke-opacity="0.220" stroke-width="0.70" />
<line x1="237.35" y1="-65.00" x2="2107.96" y2="1015.00" stroke="#7C97B1" stroke-opacity="0.400" stroke-width="1.10" />
<line x1="159.40" y1="-20.00" x2="2030.02" y2="1060.00" stroke="#96AEC4" stroke-opacity="0.220" stroke-width="0.70" />
<line x1="81.46" y1="25.00" x2="1952.08" y2="1105.00" stroke="#96AEC4" stroke-opacity="0.220" stroke-width="0.70" />
<line x1="3.52" y1="70.00" x2="1874.13" y2="1150.00" stroke="#96AEC4" stroke-opacity="0.220" stroke-width="0.70" />
<line x1="-74.42" y1="115.00" x2="1796.19" y2="1195.00" stroke="#96AEC4" stroke-opacity="0.220" stroke-width="0.70" />
<line x1="-152.37" y1="160.00" x2="1718.25" y2="1240.00" stroke="#7C97B1" stroke-opacity="0.400" stroke-width="1.10" />
<line x1="-230.31" y1="205.00" x2="1640.31" y2="1285.00" stroke="#96AEC4" stroke-opacity="0.220" stroke-width="0.70" />
<line x1="-308.25" y1="250.00" x2="1562.37" y2="1330.00" stroke="#96AEC4" stroke-opacity="0.220" stroke-width="0.70" />
<line x1="-386.19" y1="295.00" x2="1484.42" y2="1375.00" stroke="#96AEC4" stroke-opacity="0.220" stroke-width="0.70" />
<line x1="-464.13" y1="340.00" x2="1406.48" y2="1420.00" stroke="#96AEC4" stroke-opacity="0.220" stroke-width="0.70" />
<line x1="-542.08" y1="385.00" x2="1328.54" y2="1465.00" stroke="#7C97B1" stroke-opacity="0.400" stroke-width="1.10" />
<line x1="-620.02" y1="430.00" x2="1250.60" y2="1510.00" stroke="#96AEC4" stroke-opacity="0.220" stroke-width="0.70" />
<line x1="-697.96" y1="475.00" x2="1172.65" y2="1555.00" stroke="#96AEC4" stroke-opacity="0.220" stroke-width="0.70" />
<line x1="-775.90" y1="520.00" x2="1094.71" y2="1600.00" stroke="#96AEC4" stroke-opacity="0.220" stroke-width="0.70" />
<line x1="-853.85" y1="565.00" x2="1016.77" y2="1645.00" stroke="#96AEC4" stroke-opacity="0.220" stroke-width="0.70" />
<line x1="-931.79" y1="610.00" x2="938.83" y2="1690.00" stroke="#7C97B1" stroke-opacity="0.400" stroke-width="1.10" />
<line x1="-1009.73" y1="655.00" x2="860.88" y2="1735.00" stroke="#96AEC4" stroke-opacity="0.220" stroke-width="0.70" />
<line x1="-1087.67" y1="700.00" x2="782.94" y2="1780.00" stroke="#96AEC4" stroke-opacity="0.220" stroke-width="0.70" />
<line x1="-1165.61" y1="745.00" x2="705.00" y2="1825.00" stroke="#96AEC4" stroke-opacity="0.220" stroke-width="0.70" />
<line x1="-1243.56" y1="790.00" x2="627.06" y2="1870.00" stroke="#96AEC4" stroke-opacity="0.220" stroke-width="0.70" />
<polygon points="252.93,556.00 938.83,952.00 938.83,932.42 252.93,536.42" fill="#B1B5BA" fill-opacity="1.000" stroke="#8B97A4" stroke-opacity="1.000" stroke-width="1.10" />
<polygon points="938.83,952.00 533.53,1186.00 533.53,1166.42 938.83,932.42" fill="#969BA2" fill-opacity="1.000" stroke="#8B97A4" stroke-opacity="1.000" stroke-width="1.10" />
<polygon points="252.93,536.42 938.83,932.42 533.53,1166.42 -152.37,770.42" fill="#DEE1E3" fill-opacity="1.000" stroke="#8B97A4" stroke-opacity="1.000" stroke-width="1.10" />
<polygon points="252.93,588.64 284.11,606.64 284.11,535.44 252.93,517.44" fill="#ADB1B6" fill-opacity="1.000" stroke="#7D8894" stroke-opacity="1.000" stroke-width="0.80" />
<polygon points="330.88,633.64 362.05,651.64 362.05,580.44 330.88,562.44" fill="#ADB1B6" fill-opacity="1.000" stroke="#7D8894" stroke-opacity="1.000" stroke-width="0.80" />
<polygon points="408.82,678.64 440.00,696.64 440.00,625.44 408.82,607.44" fill="#ADB1B6" fill-opacity="1.000" stroke="#7D8894" stroke-opacity="1.000" stroke-width="0.80" />
<polygon points="486.76,723.64 517.94,741.64 517.94,670.44 486.76,652.44" fill="#ADB1B6" fill-opacity="1.000" stroke="#7D8894" stroke-opacity="1.000" stroke-width="0.80" />
<polygon points="564.70,768.64 595.88,786.64 595.88,715.44 564.70,697.44" fill="#ADB1B6" fill-opacity="1.000" stroke="#7D8894" stroke-opacity="1.000" stroke-width="0.80" />
<polygon points="642.65,813.64 673.82,831.64 673.82,760.44 642.65,742.44" fill="#ADB1B6" fill-opacity="1.000" stroke="#7D8894" stroke-opacity="1.000" stroke-width="0.80" />
<polygon points="720.59,858.64 751.77,876.64 751.77,805.44 720.59,787.44" fill="#ADB1B6" fill-opacity="1.000" stroke="#7D8894" stroke-opacity="1.000" stroke-width="0.80" />
<polygon points="798.53,903.64 829.71,921.64 829.71,850.44 798.53,832.44" fill="#ADB1B6" fill-opacity="1.000" stroke="#7D8894" stroke-opacity="1.000" stroke-width="0.80" />
<line x1="252.93" y1="536.42" x2="938.83" y2="932.42" stroke="#848F9C" stroke-opacity="0.900" stroke-width="1.40" />
<line x1="938.83" y1="932.42" x2="533.53" y2="1166.42" stroke="#848F9C" stroke-opacity="0.900" stroke-width="1.40" />
<line x1="533.53" y1="1166.42" x2="-152.37" y2="770.42" stroke="#848F9C" stroke-opacity="0.900" stroke-width="1.40" />
<line x1="-152.37" y1="770.42" x2="252.93" y2="536.42" stroke="#848F9C" stroke-opacity="0.900" stroke-width="1.40" />
<line x1="252.93" y1="402.92" x2="938.83" y2="798.92" stroke="#848F9C" stroke-opacity="0.900" stroke-width="1.40" />
<line x1="938.83" y1="798.92" x2="533.53" y2="1032.92" stroke="#848F9C" stroke-opacity="0.900" stroke-width="1.40" />
<line x1="533.53" y1="1032.92" x2="-152.37" y2="636.92" stroke="#848F9C" stroke-opacity="0.900" stroke-width="1.40" />
<line x1="-152.37" y1="636.92" x2="252.93" y2="402.92" stroke="#848F9C" stroke-opacity="0.900" stroke-width="1.40" />
<line x1="252.93" y1="536.42" x2="252.93" y2="402.92" stroke="#848F9C" stroke-opacity="0.900" stroke-width="1.40" />
<line x1="938.83" y1="932.42" x2="938.83" y2="798.92" stroke="#848F9C" stroke-opacity="0.900" stroke-width="1.40" />
<line x1="533.53" y1="1166.42" x2="533.53" y2="1032.92" stroke="#848F9C" stroke-opacity="0.900" stroke-width="1.40" />
<line x1="-152.37" y1="770.42" x2="-152.37" y2="636.92" stroke="#848F9C" stroke-opacity="0.900" stroke-width="1.40" />
<polygon points="284.11,606.64 213.96,647.14 213.96,575.94 284.11,535.44" fill="#92979E" fill-opacity="1.000" stroke="#7D8894" stroke-opacity="1.000" stroke-width="0.80" />
<polygon points="362.05,651.64 291.91,692.14 291.91,620.94 362.05,580.44" fill="#92979E" fill-opacity="1.000" stroke="#7D8894" stroke-opacity="1.000" stroke-width="0.80" />
<polygon points="440.00,696.64 369.85,737.14 369.85,665.94 440.00,625.44" fill="#92979E" fill-opacity="1.000" stroke="#7D8894" stroke-opacity="1.000" stroke-width="0.80" />
<polygon points="517.94,741.64 447.79,782.14 447.79,710.94 517.94,670.44" fill="#92979E" fill-opacity="1.000" stroke="#7D8894" stroke-opacity="1.000" stroke-width="0.80" />
<polygon points="595.88,786.64 525.73,827.14 525.73,755.94 595.88,715.44" fill="#92979E" fill-opacity="1.000" stroke="#7D8894" stroke-opacity="1.000" stroke-width="0.80" />
<polygon points="673.82,831.64 603.68,872.14 603.68,800.94 673.82,760.44" fill="#92979E" fill-opacity="1.000" stroke="#7D8894" stroke-opacity="1.000" stroke-width="0.80" />
<polygon points="751.77,876.64 681.62,917.14 681.62,845.94 751.77,805.44" fill="#92979E" fill-opacity="1.000" stroke="#7D8894" stroke-opacity="1.000" stroke-width="0.80" />
<polygon points="829.71,921.64 759.56,962.14 759.56,890.94 829.71,850.44" fill="#92979E" fill-opacity="1.000" stroke="#7D8894" stroke-opacity="1.000" stroke-width="0.80" />
<polygon points="252.93,517.44 284.11,535.44 213.96,575.94 182.79,557.94" fill="#DADCDE" fill-opacity="1.000" stroke="#7D8894" stroke-opacity="1.000" stroke-width="0.80" />
<polygon points="330.88,562.44 362.05,580.44 291.91,620.94 260.73,602.94" fill="#DADCDE" fill-opacity="1.000" stroke="#7D8894" stroke-opacity="1.000" stroke-width="0.80" />
<polygon points="408.82,607.44 440.00,625.44 369.85,665.94 338.67,647.94" fill="#DADCDE" fill-opacity="1.000" stroke="#7D8894" stroke-opacity="1.000" stroke-width="0.80" />
<polygon points="486.76,652.44 517.94,670.44 447.79,710.94 416.61,692.94" fill="#DADCDE" fill-opacity="1.000" stroke="#7D8894" stroke-opacity="1.000" stroke-width="0.80" />
<polygon points="564.70,697.44 595.88,715.44 525.73,755.94 494.56,737.94" fill="#DADCDE" fill-opacity="1.000" stroke="#7D8894" stroke-opacity="1.000" stroke-width="0.80" />
<polygon points="642.65,742.44 673.82,760.44 603.68,800.94 572.50,782.94" fill="#DADCDE" fill-opacity="1.000" stroke="#7D8894" stroke-opacity="1.000" stroke-width="0.80" />
<polygon points="720.59,787.44 751.77,805.44 681.62,845.94 650.44,827.94" fill="#DADCDE" fill-opacity="1.000" stroke="#7D8894" stroke-opacity="1.000" stroke-width="0.80" />
<polygon points="798.53,832.44 829.71,850.44 759.56,890.94 728.38,872.94" fill="#DADCDE" fill-opacity="1.000" stroke="#7D8894" stroke-opacity="1.000" stroke-width="0.80" />
<polygon points="393.23,395.90 938.83,710.90 938.83,689.54 393.23,374.54" fill="#B5BABF" fill-opacity="1.000" stroke="#8B97A4" stroke-opacity="1.000" stroke-width="1.10" />
<polygon points="938.83,710.90 627.06,890.90 627.06,869.54 938.83,689.54" fill="#9A9FA6" fill-opacity="1.000" stroke="#8B97A4" stroke-opacity="1.000" stroke-width="1.10" />
<line x1="393.23" y1="395.90" x2="938.83" y2="710.90" stroke="#929FAC" stroke-opacity="0.940" stroke-width="1.80" />
<line x1="938.83" y1="710.90" x2="627.06" y2="890.90" stroke="#929FAC" stroke-opacity="0.940" stroke-width="1.80" />
<line x1="627.06" y1="890.90" x2="81.46" y2="575.90" stroke="#929FAC" stroke-opacity="0.940" stroke-width="1.80" />
<line x1="81.46" y1="575.90" x2="393.23" y2="395.90" stroke="#929FAC" stroke-opacity="0.940" stroke-width="1.80" />
<line x1="393.23" y1="244.60" x2="938.83" y2="559.60" stroke="#929FAC" stroke-opacity="0.940" stroke-width="1.80" />
<line x1="938.83" y1="559.60" x2="627.06" y2="739.60" stroke="#929FAC" stroke-opacity="0.940" stroke-width="1.80" />
<line x1="627.06" y1="739.60" x2="81.46" y2="424.60" stroke="#929FAC" stroke-opacity="0.940" stroke-width="1.80" />
<line x1="81.46" y1="424.60" x2="393.23" y2="244.60" stroke="#929FAC" stroke-opacity="0.940" stroke-width="1.80" />
<line x1="393.23" y1="395.90" x2="393.23" y2="244.60" stroke="#929FAC" stroke-opacity="0.940" stroke-width="1.80" />
<line x1="938.83" y1="710.90" x2="938.83" y2="559.60" stroke="#929FAC" stroke-opacity="0.940" stroke-width="1.80" />
<line x1="627.06" y1="890.90" x2="627.06" y2="739.60" stroke="#929FAC" stroke-opacity="0.940" stroke-width="1.80" />
<line x1="81.46" y1="575.90" x2="81.46" y2="424.60" stroke="#929FAC" stroke-opacity="0.940" stroke-width="1.80" />
<polygon points="393.23,374.54 938.83,689.54 627.06,869.54 81.46,554.54" fill="#EFF2F4" fill-opacity="1.000" stroke="#8B97A4" stroke-opacity="1.000" stroke-width="1.10" />
<line x1="346.47" y1="118.90" x2="190.58" y2="414.20" stroke="#96A3B1" stroke-opacity="0.850" stroke-width="1.40" />
<line x1="190.58" y1="414.20" x2="362.05" y2="369.00" stroke="#96A3B1" stroke-opacity="0.800" stroke-width="1.20" />
<line x1="424.41" y1="163.90" x2="268.52" y2="459.20" stroke="#96A3B1" stroke-opacity="0.850" stroke-width="1.40" />
<line x1="268.52" y1="459.20" x2="440.00" y2="414.00" stroke="#96A3B1" stroke-opacity="0.800" stroke-width="1.20" />
<line x1="502.35" y1="208.90" x2="346.47" y2="504.20" stroke="#96A3B1" stroke-opacity="0.850" stroke-width="1.40" />
<line x1="346.47" y1="504.20" x2="517.94" y2="459.00" stroke="#96A3B1" stroke-opacity="0.800" stroke-width="1.20" />
<line x1="580.29" y1="253.90" x2="424.41" y2="549.20" stroke="#96A3B1" stroke-opacity="0.850" stroke-width="1.40" />
<line x1="424.41" y1="549.20" x2="595.88" y2="504.00" stroke="#96A3B1" stroke-opacity="0.800" stroke-width="1.20" />
<line x1="658.23" y1="298.90" x2="502.35" y2="594.20" stroke="#96A3B1" stroke-opacity="0.850" stroke-width="1.40" />
<line x1="502.35" y1="594.20" x2="673.82" y2="549.00" stroke="#96A3B1" stroke-opacity="0.800" stroke-width="1.20" />
<line x1="736.18" y1="343.90" x2="580.29" y2="639.20" stroke="#96A3B1" stroke-opacity="0.850" stroke-width="1.40" />
<line x1="580.29" y1="639.20" x2="751.77" y2="594.00" stroke="#96A3B1" stroke-opacity="0.800" stroke-width="1.20" />
<line x1="814.12" y1="388.90" x2="658.23" y2="684.20" stroke="#96A3B1" stroke-opacity="0.850" stroke-width="1.40" />
<line x1="658.23" y1="684.20" x2="829.71" y2="639.00" stroke="#96A3B1" stroke-opacity="0.800" stroke-width="1.20" />
<line x1="892.06" y1="433.90" x2="736.18" y2="729.20" stroke="#96A3B1" stroke-opacity="0.850" stroke-width="1.40" />
<line x1="736.18" y1="729.20" x2="907.65" y2="684.00" stroke="#96A3B1" stroke-opacity="0.800" stroke-width="1.20" />
<line x1="970.00" y1="478.90" x2="814.12" y2="774.20" stroke="#96A3B1" stroke-opacity="0.850" stroke-width="1.40" />
<line x1="814.12" y1="774.20" x2="985.59" y2="729.00" stroke="#96A3B1" stroke-opacity="0.800" stroke-width="1.20" />
<line x1="1047.95" y1="523.90" x2="892.06" y2="819.20" stroke="#96A3B1" stroke-opacity="0.850" stroke-width="1.40" />
<line x1="892.06" y1="819.20" x2="1063.53" y2="774.00" stroke="#96A3B1" stroke-opacity="0.800" stroke-width="1.20" />
<polygon points="362.05,73.90 1172.65,541.90 1172.65,524.10 362.05,56.10" fill="#B8BCC1" fill-opacity="1.000" stroke="#8B97A4" stroke-opacity="1.000" stroke-width="1.00" />
<polygon points="1172.65,541.90 689.41,820.90 689.41,803.10 1172.65,524.10" fill="#9DA3AB" fill-opacity="1.000" stroke="#8B97A4" stroke-opacity="1.000" stroke-width="1.00" />
<polygon points="362.05,56.10 1172.65,524.10 689.41,803.10 -121.19,335.10" fill="#EAEDEF" fill-opacity="1.000" stroke="#8B97A4" stroke-opacity="1.000" stroke-width="1.00" />
<line x1="455.58" y1="272.10" x2="814.12" y2="479.10" stroke="#929FAC" stroke-opacity="0.920" stroke-width="1.50" />
<line x1="814.12" y1="479.10" x2="673.82" y2="560.10" stroke="#929FAC" stroke-opacity="0.920" stroke-width="1.50" />
<line x1="673.82" y1="560.10" x2="315.29" y2="353.10" stroke="#929FAC" stroke-opacity="0.920" stroke-width="1.50" />
<line x1="315.29" y1="353.10" x2="455.58" y2="272.10" stroke="#929FAC" stroke-opacity="0.920" stroke-width="1.50" />
<line x1="455.58" y1="200.90" x2="814.12" y2="407.90" stroke="#929FAC" stroke-opacity="0.920" stroke-width="1.50" />
<line x1="814.12" y1="407.90" x2="673.82" y2="488.90" stroke="#929FAC" stroke-opacity="0.920" stroke-width="1.50" />
<line x1="673.82" y1="488.90" x2="315.29" y2="281.90" stroke="#929FAC" stroke-opacity="0.920" stroke-width="1.50" />
<line x1="315.29" y1="281.90" x2="455.58" y2="200.90" stroke="#929FAC" stroke-opacity="0.920" stroke-width="1.50" />
<line x1="455.58" y1="272.10" x2="455.58" y2="200.90" stroke="#929FAC" stroke-opacity="0.920" stroke-width="1.50" />
<line x1="814.12" y1="479.10" x2="814.12" y2="407.90" stroke="#929FAC" stroke-opacity="0.920" stroke-width="1.50" />
<line x1="673.82" y1="560.10" x2="673.82" y2="488.90" stroke="#929FAC" stroke-opacity="0.920" stroke-width="1.50" />
<line x1="315.29" y1="353.10" x2="315.29" y2="281.90" stroke="#929FAC" stroke-opacity="0.920" stroke-width="1.50" />
<line x1="210.07" y1="564.78" x2="210.07" y2="437.51" stroke="#85919D" stroke-opacity="0.680" stroke-width="1.10" />
<line x1="892.06" y1="958.53" x2="892.06" y2="831.26" stroke="#85919D" stroke-opacity="0.680" stroke-width="1.10" />
<line x1="132.12" y1="609.78" x2="132.12" y2="482.51" stroke="#85919D" stroke-opacity="0.680" stroke-width="1.10" />
<line x1="814.12" y1="1003.53" x2="814.12" y2="876.26" stroke="#85919D" stroke-opacity="0.680" stroke-width="1.10" />
<line x1="54.18" y1="654.78" x2="54.18" y2="527.51" stroke="#85919D" stroke-opacity="0.680" stroke-width="1.10" />
<line x1="736.18" y1="1048.53" x2="736.18" y2="921.26" stroke="#85919D" stroke-opacity="0.680" stroke-width="1.10" />
<line x1="-23.76" y1="699.78" x2="-23.76" y2="572.51" stroke="#85919D" stroke-opacity="0.680" stroke-width="1.10" />
<line x1="658.23" y1="1093.53" x2="658.23" y2="966.26" stroke="#85919D" stroke-opacity="0.680" stroke-width="1.10" />
<polygon points="393.23,408.76 418.17,423.16 418.17,403.58 393.23,389.18" fill="#B5BABF" fill-opacity="1.000" stroke="#7A8590" stroke-opacity="1.000" stroke-width="0.70" />
<polygon points="299.70,462.76 324.64,477.16 324.64,457.58 299.70,443.18" fill="#B5BABF" fill-opacity="1.000" stroke="#7A8590" stroke-opacity="1.000" stroke-width="0.70" />
<polygon points="206.17,516.76 231.11,531.16 231.11,511.58 206.17,497.18" fill="#B5BABF" fill-opacity="1.000" stroke="#7A8590" stroke-opacity="1.000" stroke-width="0.70" />
<polygon points="502.35,471.76 527.29,486.16 527.29,466.58 502.35,452.18" fill="#B5BABF" fill-opacity="1.000" stroke="#7A8590" stroke-opacity="1.000" stroke-width="0.70" />
<polygon points="408.82,525.76 433.76,540.16 433.76,520.58 408.82,506.18" fill="#B5BABF" fill-opacity="1.000" stroke="#7A8590" stroke-opacity="1.000" stroke-width="0.70" />
<polygon points="315.29,579.76 340.23,594.16 340.23,574.58 315.29,560.18" fill="#B5BABF" fill-opacity="1.000" stroke="#7A8590" stroke-opacity="1.000" stroke-width="0.70" />
<polygon points="611.47,534.76 636.41,549.16 636.41,529.58 611.47,515.18" fill="#B5BABF" fill-opacity="1.000" stroke="#7A8590" stroke-opacity="1.000" stroke-width="0.70" />
<polygon points="517.94,588.76 542.88,603.16 542.88,583.58 517.94,569.18" fill="#B5BABF" fill-opacity="1.000" stroke="#7A8590" stroke-opacity="1.000" stroke-width="0.70" />
<polygon points="424.41,642.76 449.35,657.16 449.35,637.58 424.41,623.18" fill="#B5BABF" fill-opacity="1.000" stroke="#7A8590" stroke-opacity="1.000" stroke-width="0.70" />
<polygon points="720.59,597.76 745.53,612.16 745.53,592.58 720.59,578.18" fill="#B5BABF" fill-opacity="1.000" stroke="#7A8590" stroke-opacity="1.000" stroke-width="0.70" />
<polygon points="627.06,651.76 652.00,666.16 652.00,646.58 627.06,632.18" fill="#B5BABF" fill-opacity="1.000" stroke="#7A8590" stroke-opacity="1.000" stroke-width="0.70" />
<polygon points="533.53,705.76 558.47,720.16 558.47,700.58 533.53,686.18" fill="#B5BABF" fill-opacity="1.000" stroke="#7A8590" stroke-opacity="1.000" stroke-width="0.70" />
<polygon points="829.71,660.76 854.65,675.16 854.65,655.58 829.71,641.18" fill="#B5BABF" fill-opacity="1.000" stroke="#7A8590" stroke-opacity="1.000" stroke-width="0.70" />
<polygon points="736.18,714.76 761.12,729.16 761.12,709.58 736.18,695.18" fill="#B5BABF" fill-opacity="1.000" stroke="#7A8590" stroke-opacity="1.000" stroke-width="0.70" />
<polygon points="642.65,768.76 667.59,783.16 667.59,763.58 642.65,749.18" fill="#B5BABF" fill-opacity="1.000" stroke="#7A8590" stroke-opacity="1.000" stroke-width="0.70" />
<polygon points="418.17,423.16 393.23,437.56 393.23,417.98 418.17,403.58" fill="#9DA3AB" fill-opacity="1.000" stroke="#7A8590" stroke-opacity="1.000" stroke-width="0.70" />
<polygon points="324.64,477.16 299.70,491.56 299.70,471.98 324.64,457.58" fill="#9DA3AB" fill-opacity="1.000" stroke="#7A8590" stroke-opacity="1.000" stroke-width="0.70" />
<polygon points="231.11,531.16 206.17,545.56 206.17,525.98 231.11,511.58" fill="#9DA3AB" fill-opacity="1.000" stroke="#7A8590" stroke-opacity="1.000" stroke-width="0.70" />
<polygon points="527.29,486.16 502.35,500.56 502.35,480.98 527.29,466.58" fill="#9DA3AB" fill-opacity="1.000" stroke="#7A8590" stroke-opacity="1.000" stroke-width="0.70" />
<polygon points="433.76,540.16 408.82,554.56 408.82,534.98 433.76,520.58" fill="#9DA3AB" fill-opacity="1.000" stroke="#7A8590" stroke-opacity="1.000" stroke-width="0.70" />
<polygon points="340.23,594.16 315.29,608.56 315.29,588.98 340.23,574.58" fill="#9DA3AB" fill-opacity="1.000" stroke="#7A8590" stroke-opacity="1.000" stroke-width="0.70" />
<polygon points="636.41,549.16 611.47,563.56 611.47,543.98 636.41,529.58" fill="#9DA3AB" fill-opacity="1.000" stroke="#7A8590" stroke-opacity="1.000" stroke-width="0.70" />
<polygon points="542.88,603.16 517.94,617.56 517.94,597.98 542.88,583.58" fill="#9DA3AB" fill-opacity="1.000" stroke="#7A8590" stroke-opacity="1.000" stroke-width="0.70" />
<polygon points="449.35,657.16 424.41,671.56 424.41,651.98 449.35,637.58" fill="#9DA3AB" fill-opacity="1.000" stroke="#7A8590" stroke-opacity="1.000" stroke-width="0.70" />
<polygon points="745.53,612.16 720.59,626.56 720.59,606.98 745.53,592.58" fill="#9DA3AB" fill-opacity="1.000" stroke="#7A8590" stroke-opacity="1.000" stroke-width="0.70" />
<polygon points="652.00,666.16 627.06,680.56 627.06,660.98 652.00,646.58" fill="#9DA3AB" fill-opacity="1.000" stroke="#7A8590" stroke-opacity="1.000" stroke-width="0.70" />
<polygon points="558.47,720.16 533.53,734.56 533.53,714.98 558.47,700.58" fill="#9DA3AB" fill-opacity="1.000" stroke="#7A8590" stroke-opacity="1.000" stroke-width="0.70" />
<polygon points="854.65,675.16 829.71,689.56 829.71,669.98 854.65,655.58" fill="#9DA3AB" fill-opacity="1.000" stroke="#7A8590" stroke-opacity="1.000" stroke-width="0.70" />
<polygon points="761.12,729.16 736.18,743.56 736.18,723.98 761.12,709.58" fill="#9DA3AB" fill-opacity="1.000" stroke="#7A8590" stroke-opacity="1.000" stroke-width="0.70" />
<polygon points="667.59,783.16 642.65,797.56 642.65,777.98 667.59,763.58" fill="#9DA3AB" fill-opacity="1.000" stroke="#7A8590" stroke-opacity="1.000" stroke-width="0.70" />
<polygon points="393.23,389.18 418.17,403.58 393.23,417.98 368.29,403.58" fill="#E5E8EA" fill-opacity="1.000" stroke="#7A8590" stroke-opacity="1.000" stroke-width="0.70" />
<polygon points="299.70,443.18 324.64,457.58 299.70,471.98 274.76,457.58" fill="#E5E8EA" fill-opacity="1.000" stroke="#7A8590" stroke-opacity="1.000" stroke-width="0.70" />
<polygon points="206.17,497.18 231.11,511.58 206.17,525.98 181.23,511.58" fill="#E5E8EA" fill-opacity="1.000" stroke="#7A8590" stroke-opacity="1.000" stroke-width="0.70" />
<polygon points="502.35,452.18 527.29,466.58 502.35,480.98 477.41,466.58" fill="#E5E8EA" fill-opacity="1.000" stroke="#7A8590" stroke-opacity="1.000" stroke-width="0.70" />
<polygon points="408.82,506.18 433.76,520.58 408.82,534.98 383.88,520.58" fill="#E5E8EA" fill-opacity="1.000" stroke="#7A8590" stroke-opacity="1.000" stroke-width="0.70" />
<polygon points="315.29,560.18 340.23,574.58 315.29,588.98 290.35,574.58" fill="#E5E8EA" fill-opacity="1.000" stroke="#7A8590" stroke-opacity="1.000" stroke-width="0.70" />
<polygon points="611.47,515.18 636.41,529.58 611.47,543.98 586.53,529.58" fill="#E5E8EA" fill-opacity="1.000" stroke="#7A8590" stroke-opacity="1.000" stroke-width="0.70" />
<polygon points="517.94,569.18 542.88,583.58 517.94,597.98 493.00,583.58" fill="#E5E8EA" fill-opacity="1.000" stroke="#7A8590" stroke-opacity="1.000" stroke-width="0.70" />
<polygon points="424.41,623.18 449.35,637.58 424.41,651.98 399.47,637.58" fill="#E5E8EA" fill-opacity="1.000" stroke="#7A8590" stroke-opacity="1.000" stroke-width="0.70" />
<polygon points="720.59,578.18 745.53,592.58 720.59,606.98 695.65,592.58" fill="#E5E8EA" fill-opacity="1.000" stroke="#7A8590" stroke-opacity="1.000" stroke-width="0.70" />
<polygon points="627.06,632.18 652.00,646.58 627.06,660.98 602.12,646.58" fill="#E5E8EA" fill-opacity="1.000" stroke="#7A8590" stroke-opacity="1.000" stroke-width="0.70" />
<polygon points="533.53,686.18 558.47,700.58 533.53,714.98 508.59,700.58" fill="#E5E8EA" fill-opacity="1.000" stroke="#7A8590" stroke-opacity="1.000" stroke-width="0.70" />
<polygon points="829.71,641.18 854.65,655.58 829.71,669.98 804.77,655.58" fill="#E5E8EA" fill-opacity="1.000" stroke="#7A8590" stroke-opacity="1.000" stroke-width="0.70" />
<polygon points="736.18,695.18 761.12,709.58 736.18,723.98 711.24,709.58" fill="#E5E8EA" fill-opacity="1.000" stroke="#7A8590" stroke-opacity="1.000" stroke-width="0.70" />
<polygon points="642.65,749.18 667.59,763.58 642.65,777.98 617.70,763.58" fill="#E5E8EA" fill-opacity="1.000" stroke="#7A8590" stroke-opacity="1.000" stroke-width="0.70" />
<polygon points="354.26,103.82 408.82,135.32 408.82,110.40 354.26,78.90" fill="#BEC2C8" fill-opacity="1.000" stroke="#8B97A4" stroke-opacity="1.000" stroke-width="0.80" />
<polygon points="564.70,225.32 619.26,256.82 619.26,231.90 564.70,200.40" fill="#BEC2C8" fill-opacity="1.000" stroke="#8B97A4" stroke-opacity="1.000" stroke-width="0.80" />
<polygon points="782.94,351.32 837.50,382.82 837.50,357.90 782.94,326.40" fill="#BEC2C8" fill-opacity="1.000" stroke="#8B97A4" stroke-opacity="1.000" stroke-width="0.80" />
<polygon points="408.82,135.32 362.05,162.32 362.05,137.40 408.82,110.40" fill="#A1A7AF" fill-opacity="1.000" stroke="#8B97A4" stroke-opacity="1.000" stroke-width="0.80" />
<polygon points="619.26,256.82 572.50,283.82 572.50,258.90 619.26,231.90" fill="#A1A7AF" fill-opacity="1.000" stroke="#8B97A4" stroke-opacity="1.000" stroke-width="0.80" />
<polygon points="837.50,382.82 790.74,409.82 790.74,384.90 837.50,357.90" fill="#A1A7AF" fill-opacity="1.000" stroke="#8B97A4" stroke-opacity="1.000" stroke-width="0.80" />
<polygon points="354.26,78.90 408.82,110.40 362.05,137.40 307.49,105.90" fill="#EFF2F4" fill-opacity="1.000" stroke="#8B97A4" stroke-opacity="1.000" stroke-width="0.80" />
<polygon points="564.70,200.40 619.26,231.90 572.50,258.90 517.94,227.40" fill="#EFF2F4" fill-opacity="1.000" stroke="#8B97A4" stroke-opacity="1.000" stroke-width="0.80" />
<polygon points="782.94,326.40 837.50,357.90 790.74,384.90 736.18,353.40" fill="#EFF2F4" fill-opacity="1.000" stroke="#8B97A4" stroke-opacity="1.000" stroke-width="0.80" />
<line x1="385.44" y1="356.30" x2="860.88" y2="630.80" stroke="#D9B814" stroke-opacity="1.000" stroke-width="8.75" stroke-linecap="round"/>
<line x1="323.08" y1="392.30" x2="798.53" y2="666.80" stroke="#D9B814" stroke-opacity="1.000" stroke-width="8.75" stroke-linecap="round"/>
<line x1="260.73" y1="428.30" x2="736.18" y2="702.80" stroke="#D9B814" stroke-opacity="1.000" stroke-width="8.75" stroke-linecap="round"/>
<line x1="384.47" y1="357.97" x2="859.92" y2="632.47" stroke="#F8DE63" stroke-opacity="1.000" stroke-width="2.27" stroke-linecap="round"/>
<line x1="322.12" y1="393.97" x2="797.57" y2="668.47" stroke="#F8DE63" stroke-opacity="1.000" stroke-width="2.27" stroke-linecap="round"/>
<line x1="259.77" y1="429.97" x2="735.21" y2="704.47" stroke="#F8DE63" stroke-opacity="1.000" stroke-width="2.27" stroke-linecap="round"/>
<ellipse cx="385.44" cy="356.30" rx="2.97" ry="1.75" fill="#D9B814" fill-opacity="1.000" stroke="#846905" stroke-width="0.80" />
<ellipse cx="860.88" cy="630.80" rx="2.97" ry="1.75" fill="#D9B814" fill-opacity="1.000" stroke="#846905" stroke-width="0.80" />
<ellipse cx="323.08" cy="392.30" rx="2.97" ry="1.75" fill="#D9B814" fill-opacity="1.000" stroke="#846905" stroke-width="0.80" />
<ellipse cx="798.53" cy="666.80" rx="2.97" ry="1.75" fill="#D9B814" fill-opacity="1.000" stroke="#846905" stroke-width="0.80" />
<ellipse cx="260.73" cy="428.30" rx="2.97" ry="1.75" fill="#D9B814" fill-opacity="1.000" stroke="#846905" stroke-width="0.80" />
<ellipse cx="736.18" cy="702.80" rx="2.97" ry="1.75" fill="#D9B814" fill-opacity="1.000" stroke="#846905" stroke-width="0.80" />
<line x1="868.68" y1="635.30" x2="884.27" y2="733.70" stroke="#D9B814" stroke-opacity="1.000" stroke-width="8.10" stroke-linecap="round"/>
<line x1="806.32" y1="671.30" x2="829.71" y2="774.20" stroke="#D9B814" stroke-opacity="1.000" stroke-width="8.10" stroke-linecap="round"/>
<line x1="743.97" y1="707.30" x2="759.56" y2="805.70" stroke="#D9B814" stroke-opacity="1.000" stroke-width="8.10" stroke-linecap="round"/>
<line x1="377.64" y1="351.80" x2="354.26" y2="355.60" stroke="#D9B814" stroke-opacity="1.000" stroke-width="8.10" stroke-linecap="round"/>
<line x1="866.92" y1="635.58" x2="882.51" y2="733.98" stroke="#F8DE63" stroke-opacity="1.000" stroke-width="2.11" stroke-linecap="round"/>
<line x1="804.59" y1="671.69" x2="827.97" y2="774.59" stroke="#F8DE63" stroke-opacity="1.000" stroke-width="2.11" stroke-linecap="round"/>
<line x1="742.21" y1="707.58" x2="757.80" y2="805.98" stroke="#F8DE63" stroke-opacity="1.000" stroke-width="2.11" stroke-linecap="round"/>
<line x1="377.36" y1="350.04" x2="353.97" y2="353.84" stroke="#F8DE63" stroke-opacity="1.000" stroke-width="2.11" stroke-linecap="round"/>
<line x1="884.27" y1="733.70" x2="884.27" y2="787.10" stroke="#D9B814" stroke-opacity="1.000" stroke-width="7.65" stroke-linecap="round"/>
<line x1="829.71" y1="774.20" x2="829.71" y2="827.60" stroke="#D9B814" stroke-opacity="1.000" stroke-width="7.65" stroke-linecap="round"/>
<line x1="759.56" y1="805.70" x2="759.56" y2="859.10" stroke="#D9B814" stroke-opacity="1.000" stroke-width="7.65" stroke-linecap="round"/>
<ellipse cx="868.68" cy="635.30" rx="2.75" ry="1.62" fill="#D9B814" fill-opacity="1.000" stroke="#846905" stroke-width="0.80" />
<ellipse cx="884.27" cy="733.70" rx="2.75" ry="1.62" fill="#D9B814" fill-opacity="1.000" stroke="#846905" stroke-width="0.80" />
<ellipse cx="806.32" cy="671.30" rx="2.75" ry="1.62" fill="#D9B814" fill-opacity="1.000" stroke="#846905" stroke-width="0.80" />
<ellipse cx="829.71" cy="774.20" rx="2.75" ry="1.62" fill="#D9B814" fill-opacity="1.000" stroke="#846905" stroke-width="0.80" />
<ellipse cx="743.97" cy="707.30" rx="2.75" ry="1.62" fill="#D9B814" fill-opacity="1.000" stroke="#846905" stroke-width="0.80" />
<ellipse cx="759.56" cy="805.70" rx="2.75" ry="1.62" fill="#D9B814" fill-opacity="1.000" stroke="#846905" stroke-width="0.80" />
<ellipse cx="377.64" cy="351.80" rx="2.75" ry="1.62" fill="#D9B814" fill-opacity="1.000" stroke="#846905" stroke-width="0.80" />
<ellipse cx="354.26" cy="355.60" rx="2.75" ry="1.62" fill="#D9B814" fill-opacity="1.000" stroke="#846905" stroke-width="0.80" />
<line x1="882.59" y1="733.70" x2="882.59" y2="787.10" stroke="#F8DE63" stroke-opacity="1.000" stroke-width="1.99" stroke-linecap="round"/>
<line x1="828.03" y1="774.20" x2="828.03" y2="827.60" stroke="#F8DE63" stroke-opacity="1.000" stroke-width="1.99" stroke-linecap="round"/>
<line x1="757.88" y1="805.70" x2="757.88" y2="859.10" stroke="#F8DE63" stroke-opacity="1.000" stroke-width="1.99" stroke-linecap="round"/>
<ellipse cx="884.27" cy="733.70" rx="2.60" ry="1.53" fill="#D9B814" fill-opacity="1.000" stroke="#846905" stroke-width="0.80" />
<ellipse cx="884.27" cy="787.10" rx="2.60" ry="1.53" fill="#D9B814" fill-opacity="1.000" stroke="#846905" stroke-width="0.80" />
<ellipse cx="829.71" cy="774.20" rx="2.60" ry="1.53" fill="#D9B814" fill-opacity="1.000" stroke="#846905" stroke-width="0.80" />
<ellipse cx="829.71" cy="827.60" rx="2.60" ry="1.53" fill="#D9B814" fill-opacity="1.000" stroke="#846905" stroke-width="0.80" />
<ellipse cx="759.56" cy="805.70" rx="2.60" ry="1.53" fill="#D9B814" fill-opacity="1.000" stroke="#846905" stroke-width="0.80" />
<ellipse cx="759.56" cy="859.10" rx="2.60" ry="1.53" fill="#D9B814" fill-opacity="1.000" stroke="#846905" stroke-width="0.80" />
<rect x="406.89" y="250.70" width="19.44" height="96.12" fill="#D9B814" fill-opacity="0.960" stroke="#705904" stroke-width="1.00" />
<rect x="492.63" y="300.20" width="19.44" height="96.12" fill="#D9B814" fill-opacity="0.960" stroke="#705904" stroke-width="1.00" />
<rect x="578.37" y="349.70" width="19.44" height="96.12" fill="#D9B814" fill-opacity="0.960" stroke="#705904" stroke-width="1.00" />
<rect x="664.10" y="399.20" width="19.44" height="96.12" fill="#D9B814" fill-opacity="0.960" stroke="#705904" stroke-width="1.00" />
<ellipse cx="416.61" cy="250.70" rx="9.72" ry="4.05" fill="#F8DE63" fill-opacity="1.000" stroke="#705904" stroke-width="1.00" />
<ellipse cx="502.35" cy="300.20" rx="9.72" ry="4.05" fill="#F8DE63" fill-opacity="1.000" stroke="#705904" stroke-width="1.00" />
<ellipse cx="588.09" cy="349.70" rx="9.72" ry="4.05" fill="#F8DE63" fill-opacity="1.000" stroke="#705904" stroke-width="1.00" />
<ellipse cx="673.82" cy="399.20" rx="9.72" ry="4.05" fill="#F8DE63" fill-opacity="1.000" stroke="#705904" stroke-width="1.00" />
<ellipse cx="416.61" cy="346.82" rx="9.72" ry="4.05" fill="#BB9E11" fill-opacity="0.600" stroke="#705904" stroke-width="0.80" />
<ellipse cx="502.35" cy="396.32" rx="9.72" ry="4.05" fill="#BB9E11" fill-opacity="0.600" stroke="#705904" stroke-width="0.80" />
<ellipse cx="588.09" cy="445.82" rx="9.72" ry="4.05" fill="#BB9E11" fill-opacity="0.600" stroke="#705904" stroke-width="0.80" />
<ellipse cx="673.82" cy="495.32" rx="9.72" ry="4.05" fill="#BB9E11" fill-opacity="0.600" stroke="#705904" stroke-width="0.80" />
<polygon points="440.86,233.90 433.76,236.77 426.66,233.90 426.66,228.16 433.76,225.29 440.86,228.16" fill="#F8FBFD" fill-opacity="1.000" stroke="#7A8590" stroke-opacity="1.000" stroke-width="1.00" />
<polygon points="526.60,283.40 519.50,286.27 512.40,283.40 512.40,277.66 519.50,274.79 526.60,277.66" fill="#F8FBFD" fill-opacity="1.000" stroke="#7A8590" stroke-opacity="1.000" stroke-width="1.00" />
<polygon points="612.34,332.90 605.23,335.77 598.13,332.90 598.13,327.16 605.23,324.29 612.34,327.16" fill="#F8FBFD" fill-opacity="1.000" stroke="#7A8590" stroke-opacity="1.000" stroke-width="1.00" />
<polygon points="698.07,382.40 690.97,385.27 683.87,382.40 683.87,376.66 690.97,373.79 698.07,376.66" fill="#F8FBFD" fill-opacity="1.000" stroke="#7A8590" stroke-opacity="1.000" stroke-width="1.00" />
</svg>
