<svg xmlns="http://www.w3.org/2000/svg" width="1400" height="900" viewBox="0 0 1400 900" style="background-color:#2a2a2a">
    <rect width="1400" height="900" fill="#1a1a1a" /><line x1="596.08" y1="100.00" x2="-96.72" y2="500.00" stroke="#333333" stroke-width="1" opacity="0.3" stroke-linecap="round" /><line x1="803.92" y1="100.00" x2="1496.72" y2="500.00" stroke="#333333" stroke-width="1" opacity="0.3" stroke-linecap="round" /><line x1="630.72" y1="120.00" x2="-62.08" y2="520.00" stroke="#333333" stroke-width="1" opacity="0.3" stroke-linecap="round" /><line x1="769.28" y1="120.00" x2="1462.08" y2="520.00" stroke="#333333" stroke-width="1" opacity="0.3" stroke-linecap="round" /><line x1="665.36" y1="140.00" x2="-27.44" y2="540.00" stroke="#333333" stroke-width="1" opacity="0.3" stroke-linecap="round" /><line x1="734.64" y1="140.00" x2="1427.44" y2="540.00" stroke="#333333" stroke-width="1" opacity="0.3" stroke-linecap="round" /><line x1="700.00" y1="160.00" x2="7.20" y2="560.00" stroke="#333333" stroke-width="1" opacity="0.3" stroke-linecap="round" /><line x1="700.00" y1="160.00" x2="1392.80" y2="560.00" stroke="#333333" stroke-width="1" opacity="0.3" stroke-linecap="round" /><line x1="734.64" y1="180.00" x2="41.84" y2="580.00" stroke="#333333" stroke-width="1" opacity="0.3" stroke-linecap="round" /><line x1="665.36" y1="180.00" x2="1358.16" y2="580.00" stroke="#333333" stroke-width="1" opacity="0.3" stroke-linecap="round" /><line x1="769.28" y1="200.00" x2="76.48" y2="600.00" stroke="#333333" stroke-width="1" opacity="0.3" stroke-linecap="round" /><line x1="630.72" y1="200.00" x2="1323.52" y2="600.00" stroke="#333333" stroke-width="1" opacity="0.3" stroke-linecap="round" /><line x1="803.92" y1="220.00" x2="111.12" y2="620.00" stroke="#333333" stroke-width="1" opacity="0.3" stroke-linecap="round" /><line x1="596.08" y1="220.00" x2="1288.88" y2="620.00" stroke="#333333" stroke-width="1" opacity="0.3" stroke-linecap="round" /><line x1="838.56" y1="240.00" x2="145.76" y2="640.00" stroke="#333333" stroke-width="1" opacity="0.3" stroke-linecap="round" /><line x1="561.44" y1="240.00" x2="1254.24" y2="640.00" stroke="#333333" stroke-width="1" opacity="0.3" stroke-linecap="round" /><line x1="873.20" y1="260.00" x2="180.40" y2="660.00" stroke="#333333" stroke-width="1" opacity="0.3" stroke-linecap="round" /><line x1="526.80" y1="260.00" x2="1219.60" y2="660.00" stroke="#333333" stroke-width="1" opacity="0.3" stroke-linecap="round" /><line x1="907.84" y1="280.00" x2="215.04" y2="680.00" stroke="#333333" stroke-width="1" opacity="0.3" stroke-linecap="round" /><line x1="492.16" y1="280.00" x2="1184.96" y2="680.00" stroke="#333333" stroke-width="1" opacity="0.3" stroke-linecap="round" /><line x1="942.48" y1="300.00" x2="249.68" y2="700.00" stroke="#333333" stroke-width="1" opacity="0.3" stroke-linecap="round" /><line x1="457.52" y1="300.00" x2="1150.32" y2="700.00" stroke="#333333" stroke-width="1" opacity="0.3" stroke-linecap="round" /><line x1="977.12" y1="320.00" x2="284.32" y2="720.00" stroke="#333333" stroke-width="1" opacity="0.3" stroke-linecap="round" /><line x1="422.88" y1="320.00" x2="1115.68" y2="720.00" stroke="#333333" stroke-width="1" opacity="0.3" stroke-linecap="round" /><line x1="1011.76" y1="340.00" x2="318.96" y2="740.00" stroke="#333333" stroke-width="1" opacity="0.3" stroke-linecap="round" /><line x1="388.24" y1="340.00" x2="1081.04" y2="740.00" stroke="#333333" stroke-width="1" opacity="0.3" stroke-linecap="round" /><line x1="1046.40" y1="360.00" x2="353.60" y2="760.00" stroke="#333333" stroke-width="1" opacity="0.3" stroke-linecap="round" /><line x1="353.60" y1="360.00" x2="1046.40" y2="760.00" stroke="#333333" stroke-width="1" opacity="0.3" stroke-linecap="round" /><line x1="1081.04" y1="380.00" x2="388.24" y2="780.00" stroke="#333333" stroke-width="1" opacity="0.3" stroke-linecap="round" /><line x1="318.96" y1="380.00" x2="1011.76" y2="780.00" stroke="#333333" stroke-width="1" opacity="0.3" stroke-linecap="round" /><line x1="1115.68" y1="400.00" x2="422.88" y2="800.00" stroke="#333333" stroke-width="1" opacity="0.3" stroke-linecap="round" /><line x1="284.32" y1="400.00" x2="977.12" y2="800.00" stroke="#333333" stroke-width="1" opacity="0.3" stroke-linecap="round" /><line x1="1150.32" y1="420.00" x2="457.52" y2="820.00" stroke="#333333" stroke-width="1" opacity="0.3" stroke-linecap="round" /><line x1="249.68" y1="420.00" x2="942.48" y2="820.00" stroke="#333333" stroke-width="1" opacity="0.3" stroke-linecap="round" /><line x1="1184.96" y1="440.00" x2="492.16" y2="840.00" stroke="#333333" stroke-width="1" opacity="0.3" stroke-linecap="round" /><line x1="215.04" y1="440.00" x2="907.84" y2="840.00" stroke="#333333" stroke-width="1" opacity="0.3" stroke-linecap="round" /><line x1="1219.60" y1="460.00" x2="526.80" y2="860.00" stroke="#333333" stroke-width="1" opacity="0.3" stroke-linecap="round" /><line x1="180.40" y1="460.00" x2="873.20" y2="860.00" stroke="#333333" stroke-width="1" opacity="0.3" stroke-linecap="round" /><line x1="1254.24" y1="480.00" x2="561.44" y2="880.00" stroke="#333333" stroke-width="1" opacity="0.3" stroke-linecap="round" /><line x1="145.76" y1="480.00" x2="838.56" y2="880.00" stroke="#333333" stroke-width="1" opacity="0.3" stroke-linecap="round" /><line x1="1288.88" y1="500.00" x2="596.08" y2="900.00" stroke="#333333" stroke-width="1" opacity="0.3" stroke-linecap="round" /><line x1="111.12" y1="500.00" x2="803.92" y2="900.00" stroke="#333333" stroke-width="1" opacity="0.3" stroke-linecap="round" /><line x1="1323.52" y1="520.00" x2="630.72" y2="920.00" stroke="#333333" stroke-width="1" opacity="0.3" stroke-linecap="round" /><line x1="76.48" y1="520.00" x2="769.28" y2="920.00" stroke="#333333" stroke-width="1" opacity="0.3" stroke-linecap="round" /><line x1="1358.16" y1="540.00" x2="665.36" y2="940.00" stroke="#333333" stroke-width="1" opacity="0.3" stroke-linecap="round" /><line x1="41.84" y1="540.00" x2="734.64" y2="940.00" stroke="#333333" stroke-width="1" opacity="0.3" stroke-linecap="round" /><line x1="1392.80" y1="560.00" x2="700.00" y2="960.00" stroke="#333333" stroke-width="1" opacity="0.3" stroke-linecap="round" /><line x1="7.20" y1="560.00" x2="700.00" y2="960.00" stroke="#333333" stroke-width="1" opacity="0.3" stroke-linecap="round" /><line x1="1427.44" y1="580.00" x2="734.64" y2="980.00" stroke="#333333" stroke-width="1" opacity="0.3" stroke-linecap="round" /><line x1="-27.44" y1="580.00" x2="665.36" y2="980.00" stroke="#333333" stroke-width="1" opacity="0.3" stroke-linecap="round" /><line x1="1462.08" y1="600.00" x2="769.28" y2="1000.00" stroke="#333333" stroke-width="1" opacity="0.3" stroke-linecap="round" /><line x1="-62.08" y1="600.00" x2="630.72" y2="1000.00" stroke="#333333" stroke-width="1" opacity="0.3" stroke-linecap="round" /><line x1="1496.72" y1="620.00" x2="803.92" y2="1020.00" stroke="#333333" stroke-width="1" opacity="0.3" stroke-linecap="round" /><line x1="-96.72" y1="620.00" x2="596.08" y2="1020.00" stroke="#333333" stroke-width="1" opacity="0.3" stroke-linecap="round" /><line x1="1531.36" y1="640.00" x2="838.56" y2="1040.00" stroke="#333333" stroke-width="1" opacity="0.3" stroke-linecap="round" /><line x1="-131.36" y1="640.00" x2="561.44" y2="1040.00" stroke="#333333" stroke-width="1" opacity="0.3" stroke-linecap="round" /><polygon points="700.00,240.00 1184.96,520.00 838.56,720.00 353.60,440.00" fill="#555555" stroke="#666666" stroke-width="1" opacity="1.0" /><polygon points="1184.96,530.00 838.56,730.00 838.56,720.00 1184.96,520.00" fill="#444444" stroke="#666666" stroke-width="1" opacity="1.0" /><polygon points="353.60,450.00 838.56,730.00 838.56,720.00 353.60,440.00" fill="#444444" stroke="#666666" stroke-width="1" opacity="1.0" /><polygon points="700.00,240.00 1184.96,520.00 838.56,720.00 353.60,440.00" fill="#555555" stroke="#666666" stroke-width="1" opacity="1.0" /><polygon points="665.36,318.00 725.98,353.00 552.78,453.00 492.16,418.00" fill="#3a3a3a" stroke="#aaaaaa" stroke-width="2" opacity="0.8" /><polygon points="769.28,378.00 829.90,413.00 656.70,513.00 596.08,478.00" fill="#3a3a3a" stroke="#aaaaaa" stroke-width="2" opacity="0.8" /><polygon points="873.20,438.00 933.82,473.00 760.62,573.00 700.00,538.00" fill="#3a3a3a" stroke="#aaaaaa" stroke-width="2" opacity="0.8" /><polygon points="977.12,498.00 1037.74,533.00 864.54,633.00 803.92,598.00" fill="#3a3a3a" stroke="#aaaaaa" stroke-width="2" opacity="0.8" /><polygon points="700.00,60.00 708.66,65.00 700.00,70.00 691.34,65.00" fill="#8899aa" stroke="#aabbcc" stroke-width="1" opacity="1.0" /><polygon points="708.66,265.00 700.00,270.00 700.00,70.00 708.66,65.00" fill="#667788" stroke="#aabbcc" stroke-width="1" opacity="1.0" /><polygon points="691.34,265.00 700.00,270.00 700.00,70.00 691.34,65.00" fill="#8899aa" stroke="#aabbcc" stroke-width="1" opacity="1.0" /><polygon points="700.00,60.00 708.66,65.00 700.00,70.00 691.34,65.00" fill="#8899aa" stroke="#aabbcc" stroke-width="1" opacity="1.0" /><polygon points="388.24,240.00 396.90,245.00 388.24,250.00 379.58,245.00" fill="#8899aa" stroke="#aabbcc" stroke-width="1" opacity="1.0" /><polygon points="396.90,445.00 388.24,450.00 388.24,250.00 396.90,245.00" fill="#667788" stroke="#aabbcc" stroke-width="1" opacity="1.0" /><polygon points="379.58,445.00 388.24,450.00 388.24,250.00 379.58,245.00" fill="#8899aa" stroke="#aabbcc" stroke-width="1" opacity="1.0" /><polygon points="388.24,240.00 396.90,245.00 388.24,250.00 379.58,245.00" fill="#8899aa" stroke="#aabbcc" stroke-width="1" opacity="1.0" /><line x1="700.00" y1="60.00" x2="388.24" y2="240.00" stroke="#8899aa" stroke-width="2" opacity="1.0" stroke-linecap="round" /><polygon points="803.92,120.00 812.58,125.00 803.92,130.00 795.26,125.00" fill="#8899aa" stroke="#aabbcc" stroke-width="1" opacity="1.0" /><polygon points="812.58,325.00 803.92,330.00 803.92,130.00 812.58,125.00" fill="#667788" stroke="#aabbcc" stroke-width="1" opacity="1.0" /><polygon points="795.26,325.00 803.92,330.00 803.92,130.00 795.26,125.00" fill="#8899aa" stroke="#aabbcc" stroke-width="1" opacity="1.0" /><polygon points="803.92,120.00 812.58,125.00 803.92,130.00 795.26,125.00" fill="#8899aa" stroke="#aabbcc" stroke-width="1" opacity="1.0" /><polygon points="492.16,300.00 500.82,305.00 492.16,310.00 483.50,305.00" fill="#8899aa" stroke="#aabbcc" stroke-width="1" opacity="1.0" /><polygon points="500.82,505.00 492.16,510.00 492.16,310.00 500.82,305.00" fill="#667788" stroke="#aabbcc" stroke-width="1" opacity="1.0" /><polygon points="483.50,505.00 492.16,510.00 492.16,310.00 483.50,305.00" fill="#8899aa" stroke="#aabbcc" stroke-width="1" opacity="1.0" /><polygon points="492.16,300.00 500.82,305.00 492.16,310.00 483.50,305.00" fill="#8899aa" stroke="#aabbcc" stroke-width="1" opacity="1.0" /><line x1="803.92" y1="120.00" x2="492.16" y2="300.00" stroke="#8899aa" stroke-width="2" opacity="1.0" stroke-linecap="round" /><polygon points="907.84,180.00 916.50,185.00 907.84,190.00 899.18,185.00" fill="#8899aa" stroke="#aabbcc" stroke-width="1" opacity="1.0" /><polygon points="916.50,385.00 907.84,390.00 907.84,190.00 916.50,185.00" fill="#667788" stroke="#aabbcc" stroke-width="1" opacity="1.0" /><polygon points="899.18,385.00 907.84,390.00 907.84,190.00 899.18,185.00" fill="#8899aa" stroke="#aabbcc" stroke-width="1" opacity="1.0" /><polygon points="907.84,180.00 916.50,185.00 907.84,190.00 899.18,185.00" fill="#8899aa" stroke="#aabbcc" stroke-width="1" opacity="1.0" /><polygon points="596.08,360.00 604.74,365.00 596.08,370.00 587.42,365.00" fill="#8899aa" stroke="#aabbcc" stroke-width="1" opacity="1.0" /><polygon points="604.74,565.00 596.08,570.00 596.08,370.00 604.74,365.00" fill="#667788" stroke="#aabbcc" stroke-width="1" opacity="1.0" /><polygon points="587.42,565.00 596.08,570.00 596.08,370.00 587.42,365.00" fill="#8899aa" stroke="#aabbcc" stroke-width="1" opacity="1.0" /><polygon points="596.08,360.00 604.74,365.00 596.08,370.00 587.42,365.00" fill="#8899aa" stroke="#aabbcc" stroke-width="1" opacity="1.0" /><line x1="907.84" y1="180.00" x2="596.08" y2="360.00" stroke="#8899aa" stroke-width="2" opacity="1.0" stroke-linecap="round" /><polygon points="1011.76,240.00 1020.42,245.00 1011.76,250.00 1003.10,245.00" fill="#8899aa" stroke="#aabbcc" stroke-width="1" opacity="1.0" /><polygon points="1020.42,445.00 1011.76,450.00 1011.76,250.00 1020.42,245.00" fill="#667788" stroke="#aabbcc" stroke-width="1" opacity="1.0" /><polygon points="1003.10,445.00 1011.76,450.00 1011.76,250.00 1003.10,245.00" fill="#8899aa" stroke="#aabbcc" stroke-width="1" opacity="1.0" /><polygon points="1011.76,240.00 1020.42,245.00 1011.76,250.00 1003.10,245.00" fill="#8899aa" stroke="#aabbcc" stroke-width="1" opacity="1.0" /><polygon points="700.00,420.00 708.66,425.00 700.00,430.00 691.34,425.00" fill="#8899aa" stroke="#aabbcc" stroke-width="1" opacity="1.0" /><polygon points="708.66,625.00 700.00,630.00 700.00,430.00 708.66,425.00" fill="#667788" stroke="#aabbcc" stroke-width="1" opacity="1.0" /><polygon points="691.34,625.00 700.00,630.00 700.00,430.00 691.34,425.00" fill="#8899aa" stroke="#aabbcc" stroke-width="1" opacity="1.0" /><polygon points="700.00,420.00 708.66,425.00 700.00,430.00 691.34,425.00" fill="#8899aa" stroke="#aabbcc" stroke-width="1" opacity="1.0" /><line x1="1011.76" y1="240.00" x2="700.00" y2="420.00" stroke="#8899aa" stroke-width="2" opacity="1.0" stroke-linecap="round" /><polygon points="1115.68,300.00 1124.34,305.00 1115.68,310.00 1107.02,305.00" fill="#8899aa" stroke="#aabbcc" stroke-width="1" opacity="1.0" /><polygon points="1124.34,505.00 1115.68,510.00 1115.68,310.00 1124.34,305.00" fill="#667788" stroke="#aabbcc" stroke-width="1" opacity="1.0" /><polygon points="1107.02,505.00 1115.68,510.00 1115.68,310.00 1107.02,305.00" fill="#8899aa" stroke="#aabbcc" stroke-width="1" opacity="1.0" /><polygon points="1115.68,300.00 1124.34,305.00 1115.68,310.00 1107.02,305.00" fill="#8899aa" stroke="#aabbcc" stroke-width="1" opacity="1.0" /><polygon points="803.92,480.00 812.58,485.00 803.92,490.00 795.26,485.00" fill="#8899aa" stroke="#aabbcc" stroke-width="1" opacity="1.0" /><polygon points="812.58,685.00 803.92,690.00 803.92,490.00 812.58,485.00" fill="#667788" stroke="#aabbcc" stroke-width="1" opacity="1.0" /><polygon points="795.26,685.00 803.92,690.00 803.92,490.00 795.26,485.00" fill="#8899aa" stroke="#aabbcc" stroke-width="1" opacity="1.0" /><polygon points="803.92,480.00 812.58,485.00 803.92,490.00 795.26,485.00" fill="#8899aa" stroke="#aabbcc" stroke-width="1" opacity="1.0" /><line x1="1115.68" y1="300.00" x2="803.92" y2="480.00" stroke="#8899aa" stroke-width="2" opacity="1.0" stroke-linecap="round" /><polygon points="700.00,60.00 708.66,65.00 700.00,70.00 691.34,65.00" fill="#8899aa" stroke="#aabbcc" stroke-width="1" opacity="1.0" /><polygon points="708.66,265.00 700.00,270.00 700.00,70.00 708.66,65.00" fill="#667788" stroke="#aabbcc" stroke-width="1" opacity="1.0" /><polygon points="691.34,265.00 700.00,270.00 700.00,70.00 691.34,65.00" fill="#8899aa" stroke="#aabbcc" stroke-width="1" opacity="1.0" /><polygon points="700.00,60.00 708.66,65.00 700.00,70.00 691.34,65.00" fill="#8899aa" stroke="#aabbcc" stroke-width="1" opacity="1.0" /><polygon points="1150.32,320.00 1158.98,325.00 1150.32,330.00 1141.66,325.00" fill="#8899aa" stroke="#aabbcc" stroke-width="1" opacity="1.0" /><polygon points="1158.98,525.00 1150.32,530.00 1150.32,330.00 1158.98,325.00" fill="#667788" stroke="#aabbcc" stroke-width="1" opacity="1.0" /><polygon points="1141.66,525.00 1150.32,530.00 1150.32,330.00 1141.66,325.00" fill="#8899aa" stroke="#aabbcc" stroke-width="1" opacity="1.0" /><polygon points="1150.32,320.00 1158.98,325.00 1150.32,330.00 1141.66,325.00" fill="#8899aa" stroke="#aabbcc" stroke-width="1" opacity="1.0" /><polygon points="596.08,120.00 604.74,125.00 596.08,130.00 587.42,125.00" fill="#8899aa" stroke="#aabbcc" stroke-width="1" opacity="1.0" /><polygon points="604.74,325.00 596.08,330.00 596.08,130.00 604.74,125.00" fill="#667788" stroke="#aabbcc" stroke-width="1" opacity="1.0" /><polygon points="587.42,325.00 596.08,330.00 596.08,130.00 587.42,125.00" fill="#8899aa" stroke="#aabbcc" stroke-width="1" opacity="1.0" /><polygon points="596.08,120.00 604.74,125.00 596.08,130.00 587.42,125.00" fill="#8899aa" stroke="#aabbcc" stroke-width="1" opacity="1.0" /><polygon points="1046.40,380.00 1055.06,385.00 1046.40,390.00 1037.74,385.00" fill="#8899aa" stroke="#aabbcc" stroke-width="1" opacity="1.0" /><polygon points="1055.06,585.00 1046.40,590.00 1046.40,390.00 1055.06,385.00" fill="#667788" stroke="#aabbcc" stroke-width="1" opacity="1.0" /><polygon points="1037.74,585.00 1046.40,590.00 1046.40,390.00 1037.74,385.00" fill="#8899aa" stroke="#aabbcc" stroke-width="1" opacity="1.0" /><polygon points="1046.40,380.00 1055.06,385.00 1046.40,390.00 1037.74,385.00" fill="#8899aa" stroke="#aabbcc" stroke-width="1" opacity="1.0" /><polygon points="492.16,180.00 500.82,185.00 492.16,190.00 483.50,185.00" fill="#8899aa" stroke="#aabbcc" stroke-width="1" opacity="1.0" /><polygon points="500.82,385.00 492.16,390.00 492.16,190.00 500.82,185.00" fill="#667788" stroke="#aabbcc" stroke-width="1" opacity="1.0" /><polygon points="483.50,385.00 492.16,390.00 492.16,190.00 483.50,185.00" fill="#8899aa" stroke="#aabbcc" stroke-width="1" opacity="1.0" /><polygon points="492.16,180.00 500.82,185.00 492.16,190.00 483.50,185.00" fill="#8899aa" stroke="#aabbcc" stroke-width="1" opacity="1.0" /><polygon points="942.48,440.00 951.14,445.00 942.48,450.00 933.82,445.00" fill="#8899aa" stroke="#aabbcc" stroke-width="1" opacity="1.0" /><polygon points="951.14,645.00 942.48,650.00 942.48,450.00 951.14,445.00" fill="#667788" stroke="#aabbcc" stroke-width="1" opacity="1.0" /><polygon points="933.82,645.00 942.48,650.00 942.48,450.00 933.82,445.00" fill="#8899aa" stroke="#aabbcc" stroke-width="1" opacity="1.0" /><polygon points="942.48,440.00 951.14,445.00 942.48,450.00 933.82,445.00" fill="#8899aa" stroke="#aabbcc" stroke-width="1" opacity="1.0" /><polygon points="388.24,240.00 396.90,245.00 388.24,250.00 379.58,245.00" fill="#8899aa" stroke="#aabbcc" stroke-width="1" opacity="1.0" /><polygon points="396.90,445.00 388.24,450.00 388.24,250.00 396.90,245.00" fill="#667788" stroke="#aabbcc" stroke-width="1" opacity="1.0" /><polygon points="379.58,445.00 388.24,450.00 388.24,250.00 379.58,245.00" fill="#8899aa" stroke="#aabbcc" stroke-width="1" opacity="1.0" /><polygon points="388.24,240.00 396.90,245.00 388.24,250.00 379.58,245.00" fill="#8899aa" stroke="#aabbcc" stroke-width="1" opacity="1.0" /><polygon points="838.56,500.00 847.22,505.00 838.56,510.00 829.90,505.00" fill="#8899aa" stroke="#aabbcc" stroke-width="1" opacity="1.0" /><polygon points="847.22,705.00 838.56,710.00 838.56,510.00 847.22,505.00" fill="#667788" stroke="#aabbcc" stroke-width="1" opacity="1.0" /><polygon points="829.90,705.00 838.56,710.00 838.56,510.00 829.90,505.00" fill="#8899aa" stroke="#aabbcc" stroke-width="1" opacity="1.0" /><polygon points="838.56,500.00 847.22,505.00 838.56,510.00 829.90,505.00" fill="#8899aa" stroke="#aabbcc" stroke-width="1" opacity="1.0" /><line x1="700.00" y1="60.00" x2="1150.32" y2="320.00" stroke="#8899aa" stroke-width="3" opacity="1.0" stroke-linecap="round" /><line x1="388.24" y1="240.00" x2="838.56" y2="500.00" stroke="#8899aa" stroke-width="3" opacity="1.0" stroke-linecap="round" /><line x1="422.88" y1="280.00" x2="873.20" y2="540.00" stroke="#f5c400" stroke-width="6" opacity="1.0" stroke-linecap="round" /><line x1="422.88" y1="280.00" x2="873.20" y2="540.00" stroke="#ffe066" stroke-width="2" opacity="1.0" stroke-linecap="round" /><line x1="487.83" y1="317.50" x2="487.83" y2="417.50" stroke="#f5c400" stroke-width="4" opacity="1.0" stroke-linecap="round" /><line x1="591.75" y1="377.50" x2="591.75" y2="477.50" stroke="#f5c400" stroke-width="4" opacity="1.0" stroke-linecap="round" /><line x1="695.67" y1="437.50" x2="695.67" y2="537.50" stroke="#f5c400" stroke-width="4" opacity="1.0" stroke-linecap="round" /><line x1="799.59" y1="497.50" x2="799.59" y2="597.50" stroke="#f5c400" stroke-width="4" opacity="1.0" stroke-linecap="round" /><polygon points="700.00,60.00 1150.32,320.00 838.56,500.00 388.24,240.00" fill="rgba(100, 120, 140, 0.2)" stroke="#6688aa" stroke-width="1" opacity="1.0" />
    </svg>