<svg xmlns="http://www.w3.org/2000/svg" width="1400" height="900" viewBox="0 0 1400 900" style="background-color:#2a2a2a">
    <rect width="1400" height="900" fill="#1a1a1a" /><line x1="803.92" y1="100.00" x2="1496.72" y2="500.00" stroke="#333333" stroke-width="1" opacity="0.3" stroke-linecap="round" /><line x1="596.08" y1="100.00" x2="-96.72" y2="500.00" stroke="#333333" stroke-width="1" opacity="0.3" stroke-linecap="round" /><line x1="769.28" y1="120.00" x2="1462.08" y2="520.00" stroke="#333333" stroke-width="1" opacity="0.3" stroke-linecap="round" /><line x1="630.72" y1="120.00" x2="-62.08" y2="520.00" stroke="#333333" stroke-width="1" opacity="0.3" stroke-linecap="round" /><line x1="734.64" y1="140.00" x2="1427.44" y2="540.00" stroke="#333333" stroke-width="1" opacity="0.3" stroke-linecap="round" /><line x1="665.36" y1="140.00" x2="-27.44" y2="540.00" stroke="#333333" stroke-width="1" opacity="0.3" stroke-linecap="round" /><line x1="700.00" y1="160.00" x2="1392.80" y2="560.00" stroke="#333333" stroke-width="1" opacity="0.3" stroke-linecap="round" /><line x1="700.00" y1="160.00" x2="7.20" y2="560.00" stroke="#333333" stroke-width="1" opacity="0.3" stroke-linecap="round" /><line x1="665.36" y1="180.00" x2="1358.16" y2="580.00" stroke="#333333" stroke-width="1" opacity="0.3" stroke-linecap="round" /><line x1="734.64" y1="180.00" x2="41.84" y2="580.00" stroke="#333333" stroke-width="1" opacity="0.3" stroke-linecap="round" /><line x1="630.72" y1="200.00" x2="1323.52" y2="600.00" stroke="#333333" stroke-width="1" opacity="0.3" stroke-linecap="round" /><line x1="769.28" y1="200.00" x2="76.48" y2="600.00" stroke="#333333" stroke-width="1" opacity="0.3" stroke-linecap="round" /><line x1="596.08" y1="220.00" x2="1288.88" y2="620.00" stroke="#333333" stroke-width="1" opacity="0.3" stroke-linecap="round" /><line x1="803.92" y1="220.00" x2="111.12" y2="620.00" stroke="#333333" stroke-width="1" opacity="0.3" stroke-linecap="round" /><line x1="561.44" y1="240.00" x2="1254.24" y2="640.00" stroke="#333333" stroke-width="1" opacity="0.3" stroke-linecap="round" /><line x1="838.56" y1="240.00" x2="145.76" y2="640.00" stroke="#333333" stroke-width="1" opacity="0.3" stroke-linecap="round" /><line x1="526.80" y1="260.00" x2="1219.60" y2="660.00" stroke="#333333" stroke-width="1" opacity="0.3" stroke-linecap="round" /><line x1="873.20" y1="260.00" x2="180.40" y2="660.00" stroke="#333333" stroke-width="1" opacity="0.3" stroke-linecap="round" /><line x1="492.16" y1="280.00" x2="1184.96" y2="680.00" stroke="#333333" stroke-width="1" opacity="0.3" stroke-linecap="round" /><line x1="907.84" y1="280.00" x2="215.04" y2="680.00" stroke="#333333" stroke-width="1" opacity="0.3" stroke-linecap="round" /><line x1="457.52" y1="300.00" x2="1150.32" y2="700.00" stroke="#333333" stroke-width="1" opacity="0.3" stroke-linecap="round" /><line x1="942.48" y1="300.00" x2="249.68" y2="700.00" stroke="#333333" stroke-width="1" opacity="0.3" stroke-linecap="round" /><line x1="422.88" y1="320.00" x2="1115.68" y2="720.00" stroke="#333333" stroke-width="1" opacity="0.3" stroke-linecap="round" /><line x1="977.12" y1="320.00" x2="284.32" y2="720.00" stroke="#333333" stroke-width="1" opacity="0.3" stroke-linecap="round" /><line x1="388.24" y1="340.00" x2="1081.04" y2="740.00" stroke="#333333" stroke-width="1" opacity="0.3" stroke-linecap="round" /><line x1="1011.76" y1="340.00" x2="318.96" y2="740.00" stroke="#333333" stroke-width="1" opacity="0.3" stroke-linecap="round" /><line x1="353.60" y1="360.00" x2="1046.40" y2="760.00" stroke="#333333" stroke-width="1" opacity="0.3" stroke-linecap="round" /><line x1="1046.40" y1="360.00" x2="353.60" y2="760.00" stroke="#333333" stroke-width="1" opacity="0.3" stroke-linecap="round" /><line x1="318.96" y1="380.00" x2="1011.76" y2="780.00" stroke="#333333" stroke-width="1" opacity="0.3" stroke-linecap="round" /><line x1="1081.04" y1="380.00" x2="388.24" y2="780.00" stroke="#333333" stroke-width="1" opacity="0.3" stroke-linecap="round" /><line x1="284.32" y1="400.00" x2="977.12" y2="800.00" stroke="#333333" stroke-width="1" opacity="0.3" stroke-linecap="round" /><line x1="1115.68" y1="400.00" x2="422.88" y2="800.00" stroke="#333333" stroke-width="1" opacity="0.3" stroke-linecap="round" /><line x1="249.68" y1="420.00" x2="942.48" y2="820.00" stroke="#333333" stroke-width="1" opacity="0.3" stroke-linecap="round" /><line x1="1150.32" y1="420.00" x2="457.52" y2="820.00" stroke="#333333" stroke-width="1" opacity="0.3" stroke-linecap="round" /><line x1="215.04" y1="440.00" x2="907.84" y2="840.00" stroke="#333333" stroke-width="1" opacity="0.3" stroke-linecap="round" /><line x1="1184.96" y1="440.00" x2="492.16" y2="840.00" stroke="#333333" stroke-width="1" opacity="0.3" stroke-linecap="round" /><line x1="180.40" y1="460.00" x2="873.20" y2="860.00" stroke="#333333" stroke-width="1" opacity="0.3" stroke-linecap="round" /><line x1="1219.60" y1="460.00" x2="526.80" y2="860.00" stroke="#333333" stroke-width="1" opacity="0.3" stroke-linecap="round" /><line x1="145.76" y1="480.00" x2="838.56" y2="880.00" stroke="#333333" stroke-width="1" opacity="0.3" stroke-linecap="round" /><line x1="1254.24" y1="480.00" x2="561.44" y2="880.00" stroke="#333333" stroke-width="1" opacity="0.3" stroke-linecap="round" /><line x1="111.12" y1="500.00" x2="803.92" y2="900.00" stroke="#333333" stroke-width="1" opacity="0.3" stroke-linecap="round" /><line x1="1288.88" y1="500.00" x2="596.08" y2="900.00" stroke="#333333" stroke-width="1" opacity="0.3" stroke-linecap="round" /><line x1="76.48" y1="520.00" x2="769.28" y2="920.00" stroke="#333333" stroke-width="1" opacity="0.3" stroke-linecap="round" /><line x1="1323.52" y1="520.00" x2="630.72" y2="920.00" stroke="#333333" stroke-width="1" opacity="0.3" stroke-linecap="round" /><line x1="41.84" y1="540.00" x2="734.64" y2="940.00" stroke="#333333" stroke-width="1" opacity="0.3" stroke-linecap="round" /><line x1="1358.16" y1="540.00" x2="665.36" y2="940.00" stroke="#333333" stroke-width="1" opacity="0.3" stroke-linecap="round" /><line x1="7.20" y1="560.00" x2="700.00" y2="960.00" stroke="#333333" stroke-width="1" opacity="0.3" stroke-linecap="round" /><line x1="1392.80" y1="560.00" x2="700.00" y2="960.00" stroke="#333333" stroke-width="1" opacity="0.3" stroke-linecap="round" /><line x1="-27.44" y1="580.00" x2="665.36" y2="980.00" stroke="#333333" stroke-width="1" opacity="0.3" stroke-linecap="round" /><line x1="1427.44" y1="580.00" x2="734.64" y2="980.00" stroke="#333333" stroke-width="1" opacity="0.3" stroke-linecap="round" /><line x1="-62.08" y1="600.00" x2="630.72" y2="1000.00" stroke="#333333" stroke-width="1" opacity="0.3" stroke-linecap="round" /><line x1="1462.08" y1="600.00" x2="769.28" y2="1000.00" stroke="#333333" stroke-width="1" opacity="0.3" stroke-linecap="round" /><line x1="-96.72" y1="620.00" x2="596.08" y2="1020.00" stroke="#333333" stroke-width="1" opacity="0.3" stroke-linecap="round" /><line x1="1496.72" y1="620.00" x2="803.92" y2="1020.00" stroke="#333333" stroke-width="1" opacity="0.3" stroke-linecap="round" /><line x1="-131.36" y1="640.00" x2="561.44" y2="1040.00" stroke="#333333" stroke-width="1" opacity="0.3" stroke-linecap="round" /><line x1="1531.36" y1="640.00" x2="838.56" y2="1040.00" stroke="#333333" stroke-width="1" opacity="0.3" stroke-linecap="round" /><polygon points="339.07,616.12 783.05,735.65 783.05,725.65 339.07,606.12" fill="#444444" stroke="#666666" stroke-width="1" opacity="1.0" /><polygon points="1072.90,376.77 783.05,735.65 783.05,725.65 1072.90,366.77" fill="#444444" stroke="#666666" stroke-width="1" opacity="1.0" /><polygon points="628.91,247.24 339.07,606.12 783.05,725.65 1072.90,366.77" fill="#555555" stroke="#666666" stroke-width="1" opacity="1.0" /><polygon points="708.86,313.57 672.62,358.43 894.62,418.20 930.85,373.34" fill="#3a3a3a" stroke="#aaaaaa" stroke-width="2" opacity="0.8" /><polygon points="646.75,390.47 610.51,435.33 832.51,495.10 868.74,450.24" fill="#3a3a3a" stroke="#aaaaaa" stroke-width="2" opacity="0.8" /><polygon points="584.64,467.38 548.40,512.24 770.40,572.00 806.63,527.14" fill="#3a3a3a" stroke="#aaaaaa" stroke-width="2" opacity="0.8" /><polygon points="522.53,544.28 486.29,589.14 708.29,648.91 744.52,604.05" fill="#3a3a3a" stroke="#aaaaaa" stroke-width="2" opacity="0.8" /><polygon points="635.59,272.44 646.69,275.43 646.69,75.43 635.59,72.44" fill="#667788" stroke="#aabbcc" stroke-width="1" opacity="1.0" /><polygon points="651.86,269.02 646.69,275.43 646.69,75.43 651.86,69.02" fill="#8899aa" stroke="#aabbcc" stroke-width="1" opacity="1.0" /><polygon points="640.76,66.03 635.59,72.44 646.69,75.43 651.86,69.02" fill="#8899aa" stroke="#aabbcc" stroke-width="1" opacity="1.0" /><polygon points="1035.17,380.02 1046.27,383.01 1046.27,183.01 1035.17,180.02" fill="#667788" stroke="#aabbcc" stroke-width="1" opacity="1.0" /><polygon points="1051.45,376.60 1046.27,383.01 1046.27,183.01 1051.45,176.60" fill="#8899aa" stroke="#aabbcc" stroke-width="1" opacity="1.0" /><polygon points="1040.35,173.61 1035.17,180.02 1046.27,183.01 1051.45,176.60" fill="#8899aa" stroke="#aabbcc" stroke-width="1" opacity="1.0" /><line x1="640.76" y1="66.03" x2="1040.35" y2="173.61" stroke="#8899aa" stroke-width="2" opacity="1.0" stroke-linecap="round" /><polygon points="573.48,349.34 584.58,352.33 584.58,152.33 573.48,149.34" fill="#667788" stroke="#aabbcc" stroke-width="1" opacity="1.0" /><polygon points="589.75,345.92 584.58,352.33 584.58,152.33 589.75,145.92" fill="#8899aa" stroke="#aabbcc" stroke-width="1" opacity="1.0" /><polygon points="578.65,142.93 573.48,149.34 584.58,152.33 589.75,145.92" fill="#8899aa" stroke="#aabbcc" stroke-width="1" opacity="1.0" /><polygon points="973.06,456.92 984.16,459.91 984.16,259.91 973.06,256.92" fill="#667788" stroke="#aabbcc" stroke-width="1" opacity="1.0" /><polygon points="989.34,453.50 984.16,459.91 984.16,259.91 989.34,253.50" fill="#8899aa" stroke="#aabbcc" stroke-width="1" opacity="1.0" /><polygon points="978.24,250.51 973.06,256.92 984.16,259.91 989.34,253.50" fill="#8899aa" stroke="#aabbcc" stroke-width="1" opacity="1.0" /><line x1="578.65" y1="142.93" x2="978.24" y2="250.51" stroke="#8899aa" stroke-width="2" opacity="1.0" stroke-linecap="round" /><polygon points="511.37,426.24 522.47,429.23 522.47,229.23 511.37,226.24" fill="#667788" stroke="#aabbcc" stroke-width="1" opacity="1.0" /><polygon points="527.64,422.82 522.47,429.23 522.47,229.23 527.64,222.82" fill="#8899aa" stroke="#aabbcc" stroke-width="1" opacity="1.0" /><polygon points="516.54,219.84 511.37,226.24 522.47,229.23 527.64,222.82" fill="#8899aa" stroke="#aabbcc" stroke-width="1" opacity="1.0" /><polygon points="910.95,533.83 922.05,536.81 922.05,336.81 910.95,333.83" fill="#667788" stroke="#aabbcc" stroke-width="1" opacity="1.0" /><polygon points="927.23,530.41 922.05,536.81 922.05,336.81 927.23,330.41" fill="#8899aa" stroke="#aabbcc" stroke-width="1" opacity="1.0" /><polygon points="916.13,327.42 910.95,333.83 922.05,336.81 927.23,330.41" fill="#8899aa" stroke="#aabbcc" stroke-width="1" opacity="1.0" /><line x1="516.54" y1="219.84" x2="916.13" y2="327.42" stroke="#8899aa" stroke-width="2" opacity="1.0" stroke-linecap="round" /><polygon points="449.26,503.15 460.36,506.14 460.36,306.14 449.26,303.15" fill="#667788" stroke="#aabbcc" stroke-width="1" opacity="1.0" /><polygon points="465.53,499.73 460.36,506.14 460.36,306.14 465.53,299.73" fill="#8899aa" stroke="#aabbcc" stroke-width="1" opacity="1.0" /><polygon points="454.43,296.74 449.26,303.15 460.36,306.14 465.53,299.73" fill="#8899aa" stroke="#aabbcc" stroke-width="1" opacity="1.0" /><polygon points="848.84,610.73 859.94,613.72 859.94,413.72 848.84,410.73" fill="#667788" stroke="#aabbcc" stroke-width="1" opacity="1.0" /><polygon points="865.12,607.31 859.94,613.72 859.94,413.72 865.12,407.31" fill="#8899aa" stroke="#aabbcc" stroke-width="1" opacity="1.0" /><polygon points="854.02,404.32 848.84,410.73 859.94,413.72 865.12,407.31" fill="#8899aa" stroke="#aabbcc" stroke-width="1" opacity="1.0" /><line x1="454.43" y1="296.74" x2="854.02" y2="404.32" stroke="#8899aa" stroke-width="2" opacity="1.0" stroke-linecap="round" /><polygon points="387.15,580.05 398.25,583.04 398.25,383.04 387.15,380.05" fill="#667788" stroke="#aabbcc" stroke-width="1" opacity="1.0" /><polygon points="403.42,576.63 398.25,583.04 398.25,383.04 403.42,376.63" fill="#8899aa" stroke="#aabbcc" stroke-width="1" opacity="1.0" /><polygon points="392.32,373.64 387.15,380.05 398.25,383.04 403.42,376.63" fill="#8899aa" stroke="#aabbcc" stroke-width="1" opacity="1.0" /><polygon points="786.73,687.63 797.83,690.62 797.83,490.62 786.73,487.63" fill="#667788" stroke="#aabbcc" stroke-width="1" opacity="1.0" /><polygon points="803.01,684.21 797.83,690.62 797.83,490.62 803.01,484.21" fill="#8899aa" stroke="#aabbcc" stroke-width="1" opacity="1.0" /><polygon points="791.91,481.22 786.73,487.63 797.83,490.62 803.01,484.21" fill="#8899aa" stroke="#aabbcc" stroke-width="1" opacity="1.0" /><line x1="392.32" y1="373.64" x2="791.91" y2="481.22" stroke="#8899aa" stroke-width="2" opacity="1.0" stroke-linecap="round" /><polygon points="635.59,272.44 646.69,275.43 646.69,75.43 635.59,72.44" fill="#667788" stroke="#aabbcc" stroke-width="1" opacity="1.0" /><polygon points="651.86,269.02 646.69,275.43 646.69,75.43 651.86,69.02" fill="#8899aa" stroke="#aabbcc" stroke-width="1" opacity="1.0" /><polygon points="640.76,66.03 635.59,72.44 646.69,75.43 651.86,69.02" fill="#8899aa" stroke="#aabbcc" stroke-width="1" opacity="1.0" /><polygon points="366.44,605.68 377.54,608.67 377.54,408.67 366.44,405.68" fill="#667788" stroke="#aabbcc" stroke-width="1" opacity="1.0" /><polygon points="382.72,602.26 377.54,608.67 377.54,408.67 382.72,402.26" fill="#8899aa" stroke="#aabbcc" stroke-width="1" opacity="1.0" /><polygon points="371.62,399.28 366.44,405.68 377.54,408.67 382.72,402.26" fill="#8899aa" stroke="#aabbcc" stroke-width="1" opacity="1.0" /><polygon points="768.78,308.30 779.88,311.29 779.88,111.29 768.78,108.30" fill="#667788" stroke="#aabbcc" stroke-width="1" opacity="1.0" /><polygon points="785.06,304.88 779.88,311.29 779.88,111.29 785.06,104.88" fill="#8899aa" stroke="#aabbcc" stroke-width="1" opacity="1.0" /><polygon points="773.96,101.89 768.78,108.30 779.88,111.29 785.06,104.88" fill="#8899aa" stroke="#aabbcc" stroke-width="1" opacity="1.0" /><polygon points="499.64,641.54 510.74,644.53 510.74,444.53 499.64,441.54" fill="#667788" stroke="#aabbcc" stroke-width="1" opacity="1.0" /><polygon points="515.91,638.12 510.74,644.53 510.74,444.53 515.91,438.12" fill="#8899aa" stroke="#aabbcc" stroke-width="1" opacity="1.0" /><polygon points="504.81,435.14 499.64,441.54 510.74,444.53 515.91,438.12" fill="#8899aa" stroke="#aabbcc" stroke-width="1" opacity="1.0" /><polygon points="901.98,344.16 913.08,347.15 913.08,147.15 901.98,144.16" fill="#667788" stroke="#aabbcc" stroke-width="1" opacity="1.0" /><polygon points="918.25,340.74 913.08,347.15 913.08,147.15 918.25,140.74" fill="#8899aa" stroke="#aabbcc" stroke-width="1" opacity="1.0" /><polygon points="907.15,137.75 901.98,144.16 913.08,147.15 918.25,140.74" fill="#8899aa" stroke="#aabbcc" stroke-width="1" opacity="1.0" /><polygon points="632.83,677.41 643.93,680.39 643.93,480.39 632.83,477.41" fill="#667788" stroke="#aabbcc" stroke-width="1" opacity="1.0" /><polygon points="649.11,673.99 643.93,680.39 643.93,480.39 649.11,473.99" fill="#8899aa" stroke="#aabbcc" stroke-width="1" opacity="1.0" /><polygon points="638.01,471.00 632.83,477.41 643.93,480.39 649.11,473.99" fill="#8899aa" stroke="#aabbcc" stroke-width="1" opacity="1.0" /><polygon points="1035.17,380.02 1046.27,383.01 1046.27,183.01 1035.17,180.02" fill="#667788" stroke="#aabbcc" stroke-width="1" opacity="1.0" /><polygon points="1051.45,376.60 1046.27,383.01 1046.27,183.01 1051.45,176.60" fill="#8899aa" stroke="#aabbcc" stroke-width="1" opacity="1.0" /><polygon points="1040.35,173.61 1035.17,180.02 1046.27,183.01 1051.45,176.60" fill="#8899aa" stroke="#aabbcc" stroke-width="1" opacity="1.0" /><polygon points="766.03,713.27 777.13,716.25 777.13,516.25 766.03,513.27" fill="#667788" stroke="#aabbcc" stroke-width="1" opacity="1.0" /><polygon points="782.30,709.85 777.13,716.25 777.13,516.25 782.30,509.85" fill="#8899aa" stroke="#aabbcc" stroke-width="1" opacity="1.0" /><polygon points="771.21,506.86 766.03,513.27 777.13,516.25 782.30,509.85" fill="#8899aa" stroke="#aabbcc" stroke-width="1" opacity="1.0" /><line x1="640.76" y1="66.03" x2="371.62" y2="399.28" stroke="#8899aa" stroke-width="3" opacity="1.0" stroke-linecap="round" /><line x1="1040.35" y1="173.61" x2="771.21" y2="506.86" stroke="#8899aa" stroke-width="3" opacity="1.0" stroke-linecap="round" /><line x1="995.95" y1="221.66" x2="726.81" y2="554.90" stroke="#f5c400" stroke-width="6" opacity="1.0" stroke-linecap="round" /><line x1="995.95" y1="221.66" x2="726.81" y2="554.90" stroke="#ffe066" stroke-width="2" opacity="1.0" stroke-linecap="round" /><line x1="957.13" y1="269.72" x2="957.13" y2="369.72" stroke="#f5c400" stroke-width="4" opacity="1.0" stroke-linecap="round" /><line x1="895.02" y1="346.63" x2="895.02" y2="446.63" stroke="#f5c400" stroke-width="4" opacity="1.0" stroke-linecap="round" /><line x1="832.91" y1="423.53" x2="832.91" y2="523.53" stroke="#f5c400" stroke-width="4" opacity="1.0" stroke-linecap="round" /><line x1="770.80" y1="500.43" x2="770.80" y2="600.43" stroke="#f5c400" stroke-width="4" opacity="1.0" stroke-linecap="round" /><polygon points="640.76,66.03 371.62,399.28 771.21,506.86 1040.35,173.61" fill="rgba(100, 120, 140, 0.2)" stroke="#6688aa" stroke-width="1" opacity="1.0" />
    </svg>