<svg xmlns="http://www.w3.org/2000/svg" width="4200" height="2700" viewBox="-616.32 -610 2494.08 2010">
    <polygon points="-616.32,800 422.88,1400 422.88,1370 -616.32,770" fill="#444444" stroke="#666666" stroke-width="3" opacity="1.0" /><polygon points="1877.76,560 422.88,1400 422.88,1370 1877.76,530" fill="#444444" stroke="#666666" stroke-width="3" opacity="1.0" /><polygon points="838.56,-70 -616.32,770 422.88,1370 1877.76,530" fill="#555555" stroke="#666666" stroke-width="3" opacity="1.0" /><polygon points="942.48,164 760.62,269 1280.22,569 1462.08,464" fill="#3a3a3a" stroke="#aaaaaa" stroke-width="6" opacity="0.8" /><polygon points="630.72,344 448.86,449 968.46,749 1150.32,644" fill="#3a3a3a" stroke="#aaaaaa" stroke-width="6" opacity="0.8" /><polygon points="318.96,524 137.1,629 656.7,929 838.56,824" fill="#3a3a3a" stroke="#aaaaaa" stroke-width="6" opacity="0.8" /><polygon points="7.2,704 -174.66,809 344.94,1109 526.8,1004" fill="#3a3a3a" stroke="#aaaaaa" stroke-width="6" opacity="0.8" /><polygon points="812.58,5 838.56,20 838.56,-580 812.58,-595" fill="#667788" stroke="#aabbcc" stroke-width="3" opacity="1.0" /><polygon points="864.54,5 838.56,20 838.56,-580 864.54,-595" fill="#8899aa" stroke="#aabbcc" stroke-width="3" opacity="1.0" /><polygon points="838.56,-610 812.58,-595 838.56,-580 864.54,-595" fill="#8899aa" stroke="#aabbcc" stroke-width="3" opacity="1.0" /><polygon points="1747.86,545 1773.84,560 1773.84,-40 1747.86,-55" fill="#667788" stroke="#aabbcc" stroke-width="3" opacity="1.0" /><polygon points="1799.82,545 1773.84,560 1773.84,-40 1799.82,-55" fill="#8899aa" stroke="#aabbcc" stroke-width="3" opacity="1.0" /><polygon points="1773.84,-70 1747.86,-55 1773.84,-40 1799.82,-55" fill="#8899aa" stroke="#aabbcc" stroke-width="3" opacity="1.0" /><line x1="838.56" y1="-610" x2="1773.84" y2="-70" stroke="#8899aa" stroke-width="6" opacity="1.0" stroke-linecap="round" /><polygon points="500.82,185 526.8,200 526.8,-400 500.82,-415" fill="#667788" stroke="#aabbcc" stroke-width="3" opacity="1.0" /><polygon points="552.78,185 526.8,200 526.8,-400 552.78,-415" fill="#8899aa" stroke="#aabbcc" stroke-width="3" opacity="1.0" /><polygon points="526.8,-430 500.82,-415 526.8,-400 552.78,-415" fill="#8899aa" stroke="#aabbcc" stroke-width="3" opacity="1.0" /><polygon points="1436.1,725 1462.08,740 1462.08,140 1436.1,125" fill="#667788" stroke="#aabbcc" stroke-width="3" opacity="1.0" /><polygon points="1488.06,725 1462.08,740 1462.08,140 1488.06,125" fill="#8899aa" stroke="#aabbcc" stroke-width="3" opacity="1.0" /><polygon points="1462.08,110 1436.1,125 1462.08,140 1488.06,125" fill="#8899aa" stroke="#aabbcc" stroke-width="3" opacity="1.0" /><line x1="526.8" y1="-430" x2="1462.08" y2="110" stroke="#8899aa" stroke-width="6" opacity="1.0" stroke-linecap="round" /><polygon points="189.06,365 215.04,380 215.04,-220 189.06,-235" fill="#667788" stroke="#aabbcc" stroke-width="3" opacity="1.0" /><polygon points="241.02,365 215.04,380 215.04,-220 241.02,-235" fill="#8899aa" stroke="#aabbcc" stroke-width="3" opacity="1.0" /><polygon points="215.04,-250 189.06,-235 215.04,-220 241.02,-235" fill="#8899aa" stroke="#aabbcc" stroke-width="3" opacity="1.0" /><polygon points="1124.34,905 1150.32,920 1150.32,320 1124.34,305" fill="#667788" stroke="#aabbcc" stroke-width="3" opacity="1.0" /><polygon points="1176.3,905 1150.32,920 1150.32,320 1176.3,305" fill="#8899aa" stroke="#aabbcc" stroke-width="3" opacity="1.0" /><polygon points="1150.32,290 1124.34,305 1150.32,320 1176.3,305" fill="#8899aa" stroke="#aabbcc" stroke-width="3" opacity="1.0" /><line x1="215.04" y1="-250" x2="1150.32" y2="290" stroke="#8899aa" stroke-width="6" opacity="1.0" stroke-linecap="round" /><polygon points="-122.7,545 -96.72,560 -96.72,-40 -122.7,-55" fill="#667788" stroke="#aabbcc" stroke-width="3" opacity="1.0" /><polygon points="-70.74,545 -96.72,560 -96.72,-40 -70.74,-55" fill="#8899aa" stroke="#aabbcc" stroke-width="3" opacity="1.0" /><polygon points="-96.72,-70 -122.7,-55 -96.72,-40 -70.74,-55" fill="#8899aa" stroke="#aabbcc" stroke-width="3" opacity="1.0" /><polygon points="812.58,1085 838.56,1100 838.56,500 812.58,485" fill="#667788" stroke="#aabbcc" stroke-width="3" opacity="1.0" /><polygon points="864.54,1085 838.56,1100 838.56,500 864.54,485" fill="#8899aa" stroke="#aabbcc" stroke-width="3" opacity="1.0" /><polygon points="838.56,470 812.58,485 838.56,500 864.54,485" fill="#8899aa" stroke="#aabbcc" stroke-width="3" opacity="1.0" /><line x1="-96.72" y1="-70" x2="838.56" y2="470" stroke="#8899aa" stroke-width="6" opacity="1.0" stroke-linecap="round" /><polygon points="-434.46,725 -408.48,740 -408.48,140 -434.46,125" fill="#667788" stroke="#aabbcc" stroke-width="3" opacity="1.0" /><polygon points="-382.5,725 -408.48,740 -408.48,140 -382.5,125" fill="#8899aa" stroke="#aabbcc" stroke-width="3" opacity="1.0" /><polygon points="-408.48,110 -434.46,125 -408.48,140 -382.5,125" fill="#8899aa" stroke="#aabbcc" stroke-width="3" opacity="1.0" /><polygon points="500.82,1265 526.8,1280 526.8,680 500.82,665" fill="#667788" stroke="#aabbcc" stroke-width="3" opacity="1.0" /><polygon points="552.78,1265 526.8,1280 526.8,680 552.78,665" fill="#8899aa" stroke="#aabbcc" stroke-width="3" opacity="1.0" /><polygon points="526.8,650 500.82,665 526.8,680 552.78,665" fill="#8899aa" stroke="#aabbcc" stroke-width="3" opacity="1.0" /><line x1="-408.48" y1="110" x2="526.8" y2="650" stroke="#8899aa" stroke-width="6" opacity="1.0" stroke-linecap="round" /><polygon points="812.58,5 838.56,20 838.56,-580 812.58,-595" fill="#667788" stroke="#aabbcc" stroke-width="3" opacity="1.0" /><polygon points="864.54,5 838.56,20 838.56,-580 864.54,-595" fill="#8899aa" stroke="#aabbcc" stroke-width="3" opacity="1.0" /><polygon points="838.56,-610 812.58,-595 838.56,-580 864.54,-595" fill="#8899aa" stroke="#aabbcc" stroke-width="3" opacity="1.0" /><polygon points="-538.38,785 -512.4,800 -512.4,200 -538.38,185" fill="#667788" stroke="#aabbcc" stroke-width="3" opacity="1.0" /><polygon points="-486.42,785 -512.4,800 -512.4,200 -486.42,185" fill="#8899aa" stroke="#aabbcc" stroke-width="3" opacity="1.0" /><polygon points="-512.4,170 -538.38,185 -512.4,200 -486.42,185" fill="#8899aa" stroke="#aabbcc" stroke-width="3" opacity="1.0" /><polygon points="1124.34,185 1150.32,200 1150.32,-400 1124.34,-415" fill="#667788" stroke="#aabbcc" stroke-width="3" opacity="1.0" /><polygon points="1176.3,185 1150.32,200 1150.32,-400 1176.3,-415" fill="#8899aa" stroke="#aabbcc" stroke-width="3" opacity="1.0" /><polygon points="1150.32,-430 1124.34,-415 1150.32,-400 1176.3,-415" fill="#8899aa" stroke="#aabbcc" stroke-width="3" opacity="1.0" /><polygon points="-226.62,965 -200.64,980 -200.64,380 -226.62,365" fill="#667788" stroke="#aabbcc" stroke-width="3" opacity="1.0" /><polygon points="-174.66,965 -200.64,980 -200.64,380 -174.66,365" fill="#8899aa" stroke="#aabbcc" stroke-width="3" opacity="1.0" /><polygon points="-200.64,350 -226.62,365 -200.64,380 -174.66,365" fill="#8899aa" stroke="#aabbcc" stroke-width="3" opacity="1.0" /><polygon points="1436.1,365 1462.08,380 1462.08,-220 1436.1,-235" fill="#667788" stroke="#aabbcc" stroke-width="3" opacity="1.0" /><polygon points="1488.06,365 1462.08,380 1462.08,-220 1488.06,-235" fill="#8899aa" stroke="#aabbcc" stroke-width="3" opacity="1.0" /><polygon points="1462.08,-250 1436.1,-235 1462.08,-220 1488.06,-235" fill="#8899aa" stroke="#aabbcc" stroke-width="3" opacity="1.0" /><polygon points="85.14,1145 111.12,1160 111.12,560 85.14,545" fill="#667788" stroke="#aabbcc" stroke-width="3" opacity="1.0" /><polygon points="137.1,1145 111.12,1160 111.12,560 137.1,545" fill="#8899aa" stroke="#aabbcc" stroke-width="3" opacity="1.0" /><polygon points="111.12,530 85.14,545 111.12,560 137.1,545" fill="#8899aa" stroke="#aabbcc" stroke-width="3" opacity="1.0" /><polygon points="1747.86,545 1773.84,560 1773.84,-40 1747.86,-55" fill="#667788" stroke="#aabbcc" stroke-width="3" opacity="1.0" /><polygon points="1799.82,545 1773.84,560 1773.84,-40 1799.82,-55" fill="#8899aa" stroke="#aabbcc" stroke-width="3" opacity="1.0" /><polygon points="1773.84,-70 1747.86,-55 1773.84,-40 1799.82,-55" fill="#8899aa" stroke="#aabbcc" stroke-width="3" opacity="1.0" /><polygon points="396.9,1325 422.88,1340 422.88,740 396.9,725" fill="#667788" stroke="#aabbcc" stroke-width="3" opacity="1.0" /><polygon points="448.86,1325 422.88,1340 422.88,740 448.86,725" fill="#8899aa" stroke="#aabbcc" stroke-width="3" opacity="1.0" /><polygon points="422.88,710 396.9,725 422.88,740 448.86,725" fill="#8899aa" stroke="#aabbcc" stroke-width="3" opacity="1.0" /><line x1="838.56" y1="-610" x2="-512.4" y2="170" stroke="#8899aa" stroke-width="9" opacity="1.0" stroke-linecap="round" /><line x1="1773.84" y1="-70" x2="422.88" y2="710" stroke="#8899aa" stroke-width="9" opacity="1.0" stroke-linecap="round" /><line x1="1669.92" y1="50" x2="318.96" y2="830" stroke="#f5c400" stroke-width="18" opacity="1.0" stroke-linecap="round" /><line x1="1669.92" y1="50" x2="318.96" y2="830" stroke="#ffe066" stroke-width="6" opacity="1.0" stroke-linecap="round" /><line x1="1475.07" y1="162.5" x2="1475.07" y2="462.5" stroke="#f5c400" stroke-width="12" opacity="1.0" stroke-linecap="round" /><line x1="1163.31" y1="342.5" x2="1163.31" y2="642.5" stroke="#f5c400" stroke-width="12" opacity="1.0" stroke-linecap="round" /><line x1="851.55" y1="522.5" x2="851.55" y2="822.5" stroke="#f5c400" stroke-width="12" opacity="1.0" stroke-linecap="round" /><line x1="539.79" y1="702.5" x2="539.79" y2="1002.5" stroke="#f5c400" stroke-width="12" opacity="1.0" stroke-linecap="round" /><polygon points="838.56,-610 -512.4,170 422.88,710 1773.84,-70" fill="rgba(100, 120, 140, 0.2)" stroke="#6688aa" stroke-width="3" opacity="1.0" />
    </svg>