<svg xmlns="http://www.w3.org/2000/svg" width="14000" height="9000" viewBox="-3526.08 -2955 8313.6 6700">
    <polygon points="-3526.08,1745 -62.08,3745 -62.08,3645 -3526.08,1645" fill="#444444" stroke="#666666" stroke-width="10" opacity="1.0" /><polygon points="4787.52,945 -62.08,3745 -62.08,3645 4787.52,845" fill="#444444" stroke="#666666" stroke-width="10" opacity="1.0" /><polygon points="1323.52,-1155 -3526.08,1645 -62.08,3645 4787.52,845" fill="#555555" stroke="#666666" stroke-width="10" opacity="1.0" /><polygon points="1669.92,-375 1063.72,-25 2795.72,975 3401.92,625" fill="#3a3a3a" stroke="#aaaaaa" stroke-width="20" opacity="0.8" /><polygon points="630.72,225 24.52,575 1756.52,1575 2362.72,1225" fill="#3a3a3a" stroke="#aaaaaa" stroke-width="20" opacity="0.8" /><polygon points="-408.48,825 -1014.68,1175 717.32,2175 1323.52,1825" fill="#3a3a3a" stroke="#aaaaaa" stroke-width="20" opacity="0.8" /><polygon points="-1447.68,1425 -2053.88,1775 -321.88,2775 284.32,2425" fill="#3a3a3a" stroke="#aaaaaa" stroke-width="20" opacity="0.8" /><polygon points="1236.92,-905 1323.52,-855 1323.52,-2855 1236.92,-2905" fill="#667788" stroke="#aabbcc" stroke-width="10" opacity="1.0" /><polygon points="1410.12,-905 1323.52,-855 1323.52,-2855 1410.12,-2905" fill="#8899aa" stroke="#aabbcc" stroke-width="10" opacity="1.0" /><polygon points="1323.52,-2955 1236.92,-2905 1323.52,-2855 1410.12,-2905" fill="#8899aa" stroke="#aabbcc" stroke-width="10" opacity="1.0" /><polygon points="4354.52,895 4441.12,945 4441.12,-1055 4354.52,-1105" fill="#667788" stroke="#aabbcc" stroke-width="10" opacity="1.0" /><polygon points="4527.72,895 4441.12,945 4441.12,-1055 4527.72,-1105" fill="#8899aa" stroke="#aabbcc" stroke-width="10" opacity="1.0" /><polygon points="4441.12,-1155 4354.52,-1105 4441.12,-1055 4527.72,-1105" fill="#8899aa" stroke="#aabbcc" stroke-width="10" opacity="1.0" /><line x1="1323.52" y1="-2955" x2="4441.12" y2="-1155" stroke="#8899aa" stroke-width="20" opacity="1.0" stroke-linecap="round" /><polygon points="197.72,-305 284.32,-255 284.32,-2255 197.72,-2305" fill="#667788" stroke="#aabbcc" stroke-width="10" opacity="1.0" /><polygon points="370.92,-305 284.32,-255 284.32,-2255 370.92,-2305" fill="#8899aa" stroke="#aabbcc" stroke-width="10" opacity="1.0" /><polygon points="284.32,-2355 197.72,-2305 284.32,-2255 370.92,-2305" fill="#8899aa" stroke="#aabbcc" stroke-width="10" opacity="1.0" /><polygon points="3315.32,1495 3401.92,1545 3401.92,-455 3315.32,-505" fill="#667788" stroke="#aabbcc" stroke-width="10" opacity="1.0" /><polygon points="3488.52,1495 3401.92,1545 3401.92,-455 3488.52,-505" fill="#8899aa" stroke="#aabbcc" stroke-width="10" opacity="1.0" /><polygon points="3401.92,-555 3315.32,-505 3401.92,-455 3488.52,-505" fill="#8899aa" stroke="#aabbcc" stroke-width="10" opacity="1.0" /><line x1="284.32" y1="-2355" x2="3401.92" y2="-555" stroke="#8899aa" stroke-width="20" opacity="1.0" stroke-linecap="round" /><polygon points="-841.48,295 -754.88,345 -754.88,-1655 -841.48,-1705" fill="#667788" stroke="#aabbcc" stroke-width="10" opacity="1.0" /><polygon points="-668.28,295 -754.88,345 -754.88,-1655 -668.28,-1705" fill="#8899aa" stroke="#aabbcc" stroke-width="10" opacity="1.0" /><polygon points="-754.88,-1755 -841.48,-1705 -754.88,-1655 -668.28,-1705" fill="#8899aa" stroke="#aabbcc" stroke-width="10" opacity="1.0" /><polygon points="2276.12,2095 2362.72,2145 2362.72,145 2276.12,95" fill="#667788" stroke="#aabbcc" stroke-width="10" opacity="1.0" /><polygon points="2449.32,2095 2362.72,2145 2362.72,145 2449.32,95" fill="#8899aa" stroke="#aabbcc" stroke-width="10" opacity="1.0" /><polygon points="2362.72,45 2276.12,95 2362.72,145 2449.32,95" fill="#8899aa" stroke="#aabbcc" stroke-width="10" opacity="1.0" /><line x1="-754.88" y1="-1755" x2="2362.72" y2="45" stroke="#8899aa" stroke-width="20" opacity="1.0" stroke-linecap="round" /><polygon points="-1880.68,895 -1794.08,945 -1794.08,-1055 -1880.68,-1105" fill="#667788" stroke="#aabbcc" stroke-width="10" opacity="1.0" /><polygon points="-1707.48,895 -1794.08,945 -1794.08,-1055 -1707.48,-1105" fill="#8899aa" stroke="#aabbcc" stroke-width="10" opacity="1.0" /><polygon points="-1794.08,-1155 -1880.68,-1105 -1794.08,-1055 -1707.48,-1105" fill="#8899aa" stroke="#aabbcc" stroke-width="10" opacity="1.0" /><polygon points="1236.92,2695 1323.52,2745 1323.52,745 1236.92,695" fill="#667788" stroke="#aabbcc" stroke-width="10" opacity="1.0" /><polygon points="1410.12,2695 1323.52,2745 1323.52,745 1410.12,695" fill="#8899aa" stroke="#aabbcc" stroke-width="10" opacity="1.0" /><polygon points="1323.52,645 1236.92,695 1323.52,745 1410.12,695" fill="#8899aa" stroke="#aabbcc" stroke-width="10" opacity="1.0" /><line x1="-1794.08" y1="-1155" x2="1323.52" y2="645" stroke="#8899aa" stroke-width="20" opacity="1.0" stroke-linecap="round" /><polygon points="-2919.88,1495 -2833.28,1545 -2833.28,-455 -2919.88,-505" fill="#667788" stroke="#aabbcc" stroke-width="10" opacity="1.0" /><polygon points="-2746.68,1495 -2833.28,1545 -2833.28,-455 -2746.68,-505" fill="#8899aa" stroke="#aabbcc" stroke-width="10" opacity="1.0" /><polygon points="-2833.28,-555 -2919.88,-505 -2833.28,-455 -2746.68,-505" fill="#8899aa" stroke="#aabbcc" stroke-width="10" opacity="1.0" /><polygon points="197.72,3295 284.32,3345 284.32,1345 197.72,1295" fill="#667788" stroke="#aabbcc" stroke-width="10" opacity="1.0" /><polygon points="370.92,3295 284.32,3345 284.32,1345 370.92,1295" fill="#8899aa" stroke="#aabbcc" stroke-width="10" opacity="1.0" /><polygon points="284.32,1245 197.72,1295 284.32,1345 370.92,1295" fill="#8899aa" stroke="#aabbcc" stroke-width="10" opacity="1.0" /><line x1="-2833.28" y1="-555" x2="284.32" y2="1245" stroke="#8899aa" stroke-width="20" opacity="1.0" stroke-linecap="round" /><polygon points="1236.92,-905 1323.52,-855 1323.52,-2855 1236.92,-2905" fill="#667788" stroke="#aabbcc" stroke-width="10" opacity="1.0" /><polygon points="1410.12,-905 1323.52,-855 1323.52,-2855 1410.12,-2905" fill="#8899aa" stroke="#aabbcc" stroke-width="10" opacity="1.0" /><polygon points="1323.52,-2955 1236.92,-2905 1323.52,-2855 1410.12,-2905" fill="#8899aa" stroke="#aabbcc" stroke-width="10" opacity="1.0" /><polygon points="-3266.28,1695 -3179.68,1745 -3179.68,-255 -3266.28,-305" fill="#667788" stroke="#aabbcc" stroke-width="10" opacity="1.0" /><polygon points="-3093.08,1695 -3179.68,1745 -3179.68,-255 -3093.08,-305" fill="#8899aa" stroke="#aabbcc" stroke-width="10" opacity="1.0" /><polygon points="-3179.68,-355 -3266.28,-305 -3179.68,-255 -3093.08,-305" fill="#8899aa" stroke="#aabbcc" stroke-width="10" opacity="1.0" /><polygon points="2276.12,-305 2362.72,-255 2362.72,-2255 2276.12,-2305" fill="#667788" stroke="#aabbcc" stroke-width="10" opacity="1.0" /><polygon points="2449.32,-305 2362.72,-255 2362.72,-2255 2449.32,-2305" fill="#8899aa" stroke="#aabbcc" stroke-width="10" opacity="1.0" /><polygon points="2362.72,-2355 2276.12,-2305 2362.72,-2255 2449.32,-2305" fill="#8899aa" stroke="#aabbcc" stroke-width="10" opacity="1.0" /><polygon points="-2227.08,2295 -2140.48,2345 -2140.48,345 -2227.08,295" fill="#667788" stroke="#aabbcc" stroke-width="10" opacity="1.0" /><polygon points="-2053.88,2295 -2140.48,2345 -2140.48,345 -2053.88,295" fill="#8899aa" stroke="#aabbcc" stroke-width="10" opacity="1.0" /><polygon points="-2140.48,245 -2227.08,295 -2140.48,345 -2053.88,295" fill="#8899aa" stroke="#aabbcc" stroke-width="10" opacity="1.0" /><polygon points="3315.32,295 3401.92,345 3401.92,-1655 3315.32,-1705" fill="#667788" stroke="#aabbcc" stroke-width="10" opacity="1.0" /><polygon points="3488.52,295 3401.92,345 3401.92,-1655 3488.52,-1705" fill="#8899aa" stroke="#aabbcc" stroke-width="10" opacity="1.0" /><polygon points="3401.92,-1755 3315.32,-1705 3401.92,-1655 3488.52,-1705" fill="#8899aa" stroke="#aabbcc" stroke-width="10" opacity="1.0" /><polygon points="-1187.88,2895 -1101.28,2945 -1101.28,945 -1187.88,895" fill="#667788" stroke="#aabbcc" stroke-width="10" opacity="1.0" /><polygon points="-1014.68,2895 -1101.28,2945 -1101.28,945 -1014.68,895" fill="#8899aa" stroke="#aabbcc" stroke-width="10" opacity="1.0" /><polygon points="-1101.28,845 -1187.88,895 -1101.28,945 -1014.68,895" fill="#8899aa" stroke="#aabbcc" stroke-width="10" opacity="1.0" /><polygon points="4354.52,895 4441.12,945 4441.12,-1055 4354.52,-1105" fill="#667788" stroke="#aabbcc" stroke-width="10" opacity="1.0" /><polygon points="4527.72,895 4441.12,945 4441.12,-1055 4527.72,-1105" fill="#8899aa" stroke="#aabbcc" stroke-width="10" opacity="1.0" /><polygon points="4441.12,-1155 4354.52,-1105 4441.12,-1055 4527.72,-1105" fill="#8899aa" stroke="#aabbcc" stroke-width="10" opacity="1.0" /><polygon points="-148.68,3495 -62.08,3545 -62.08,1545 -148.68,1495" fill="#667788" stroke="#aabbcc" stroke-width="10" opacity="1.0" /><polygon points="24.52,3495 -62.08,3545 -62.08,1545 24.52,1495" fill="#8899aa" stroke="#aabbcc" stroke-width="10" opacity="1.0" /><polygon points="-62.08,1445 -148.68,1495 -62.08,1545 24.52,1495" fill="#8899aa" stroke="#aabbcc" stroke-width="10" opacity="1.0" /><line x1="1323.52" y1="-2955" x2="-3179.68" y2="-355" stroke="#8899aa" stroke-width="30" opacity="1.0" stroke-linecap="round" /><line x1="4441.12" y1="-1155" x2="-62.08" y2="1445" stroke="#8899aa" stroke-width="30" opacity="1.0" stroke-linecap="round" /><line x1="4094.72" y1="-755" x2="-408.48" y2="1845" stroke="#f5c400" stroke-width="60" opacity="1.0" stroke-linecap="round" /><line x1="4094.72" y1="-755" x2="-408.48" y2="1845" stroke="#ffe066" stroke-width="20" opacity="1.0" stroke-linecap="round" /><line x1="3445.22" y1="-380" x2="3445.22" y2="620" stroke="#f5c400" stroke-width="40" opacity="1.0" stroke-linecap="round" /><line x1="2406.02" y1="220" x2="2406.02" y2="1220" stroke="#f5c400" stroke-width="40" opacity="1.0" stroke-linecap="round" /><line x1="1366.82" y1="820" x2="1366.82" y2="1820" stroke="#f5c400" stroke-width="40" opacity="1.0" stroke-linecap="round" /><line x1="327.62" y1="1420" x2="327.62" y2="2420" stroke="#f5c400" stroke-width="40" opacity="1.0" stroke-linecap="round" /><polygon points="1323.52,-2955 -3179.68,-355 -62.08,1445 4441.12,-1155" fill="rgba(100, 120, 140, 0.2)" stroke="#6688aa" stroke-width="10" opacity="1.0" />
    </svg>