<svg xmlns="http://www.w3.org/2000/svg" width="1400" height="900" viewBox="0 0 1400 900">
    <polygon points="215.04,530.00 561.44,730.00 561.44,720.00 215.04,520.00" fill="#444444" stroke="#666666" stroke-width="1" opacity="1.0" /><polygon points="1046.40,450.00 561.44,730.00 561.44,720.00 1046.40,440.00" fill="#444444" stroke="#666666" stroke-width="1" opacity="1.0" /><polygon points="700.00,240.00 215.04,520.00 561.44,720.00 1046.40,440.00" fill="#555555" stroke="#666666" stroke-width="1" opacity="1.0" /><polygon points="734.64,318.00 674.02,353.00 847.22,453.00 907.84,418.00" fill="#3a3a3a" stroke="#aaaaaa" stroke-width="2" opacity="0.8" /><polygon points="630.72,378.00 570.10,413.00 743.30,513.00 803.92,478.00" fill="#3a3a3a" stroke="#aaaaaa" stroke-width="2" opacity="0.8" /><polygon points="526.80,438.00 466.18,473.00 639.38,573.00 700.00,538.00" fill="#3a3a3a" stroke="#aaaaaa" stroke-width="2" opacity="0.8" /><polygon points="422.88,498.00 362.26,533.00 535.46,633.00 596.08,598.00" fill="#3a3a3a" stroke="#aaaaaa" stroke-width="2" opacity="0.8" /><polygon points="691.34,265.00 700.00,270.00 700.00,70.00 691.34,65.00" fill="#667788" stroke="#aabbcc" stroke-width="1" opacity="1.0" /><polygon points="708.66,265.00 700.00,270.00 700.00,70.00 708.66,65.00" fill="#8899aa" stroke="#aabbcc" stroke-width="1" opacity="1.0" /><polygon points="700.00,60.00 691.34,65.00 700.00,70.00 708.66,65.00" fill="#8899aa" stroke="#aabbcc" stroke-width="1" opacity="1.0" /><polygon points="1003.10,445.00 1011.76,450.00 1011.76,250.00 1003.10,245.00" fill="#667788" stroke="#aabbcc" stroke-width="1" opacity="1.0" /><polygon points="1020.42,445.00 1011.76,450.00 1011.76,250.00 1020.42,245.00" fill="#8899aa" stroke="#aabbcc" stroke-width="1" opacity="1.0" /><polygon points="1011.76,240.00 1003.10,245.00 1011.76,250.00 1020.42,245.00" fill="#8899aa" stroke="#aabbcc" stroke-width="1" opacity="1.0" /><line x1="700.00" y1="60.00" x2="1011.76" y2="240.00" stroke="#8899aa" stroke-width="2" opacity="1.0" stroke-linecap="round" /><polygon points="587.42,325.00 596.08,330.00 596.08,130.00 587.42,125.00" fill="#667788" stroke="#aabbcc" stroke-width="1" opacity="1.0" /><polygon points="604.74,325.00 596.08,330.00 596.08,130.00 604.74,125.00" fill="#8899aa" stroke="#aabbcc" stroke-width="1" opacity="1.0" /><polygon points="596.08,120.00 587.42,125.00 596.08,130.00 604.74,125.00" fill="#8899aa" stroke="#aabbcc" stroke-width="1" opacity="1.0" /><polygon points="899.18,505.00 907.84,510.00 907.84,310.00 899.18,305.00" fill="#667788" stroke="#aabbcc" stroke-width="1" opacity="1.0" /><polygon points="916.50,505.00 907.84,510.00 907.84,310.00 916.50,305.00" fill="#8899aa" stroke="#aabbcc" stroke-width="1" opacity="1.0" /><polygon points="907.84,300.00 899.18,305.00 907.84,310.00 916.50,305.00" fill="#8899aa" stroke="#aabbcc" stroke-width="1" opacity="1.0" /><line x1="596.08" y1="120.00" x2="907.84" y2="300.00" stroke="#8899aa" stroke-width="2" opacity="1.0" stroke-linecap="round" /><polygon points="483.50,385.00 492.16,390.00 492.16,190.00 483.50,185.00" fill="#667788" stroke="#aabbcc" stroke-width="1" opacity="1.0" /><polygon points="500.82,385.00 492.16,390.00 492.16,190.00 500.82,185.00" fill="#8899aa" stroke="#aabbcc" stroke-width="1" opacity="1.0" /><polygon points="492.16,180.00 483.50,185.00 492.16,190.00 500.82,185.00" fill="#8899aa" stroke="#aabbcc" stroke-width="1" opacity="1.0" /><polygon points="795.26,565.00 803.92,570.00 803.92,370.00 795.26,365.00" fill="#667788" stroke="#aabbcc" stroke-width="1" opacity="1.0" /><polygon points="812.58,565.00 803.92,570.00 803.92,370.00 812.58,365.00" fill="#8899aa" stroke="#aabbcc" stroke-width="1" opacity="1.0" /><polygon points="803.92,360.00 795.26,365.00 803.92,370.00 812.58,365.00" fill="#8899aa" stroke="#aabbcc" stroke-width="1" opacity="1.0" /><line x1="492.16" y1="180.00" x2="803.92" y2="360.00" stroke="#8899aa" stroke-width="2" opacity="1.0" stroke-linecap="round" /><polygon points="379.58,445.00 388.24,450.00 388.24,250.00 379.58,245.00" fill="#667788" stroke="#aabbcc" stroke-width="1" opacity="1.0" /><polygon points="396.90,445.00 388.24,450.00 388.24,250.00 396.90,245.00" fill="#8899aa" stroke="#aabbcc" stroke-width="1" opacity="1.0" /><polygon points="388.24,240.00 379.58,245.00 388.24,250.00 396.90,245.00" fill="#8899aa" stroke="#aabbcc" stroke-width="1" opacity="1.0" /><polygon points="691.34,625.00 700.00,630.00 700.00,430.00 691.34,425.00" fill="#667788" stroke="#aabbcc" stroke-width="1" opacity="1.0" /><polygon points="708.66,625.00 700.00,630.00 700.00,430.00 708.66,425.00" fill="#8899aa" stroke="#aabbcc" stroke-width="1" opacity="1.0" /><polygon points="700.00,420.00 691.34,425.00 700.00,430.00 708.66,425.00" fill="#8899aa" stroke="#aabbcc" stroke-width="1" opacity="1.0" /><line x1="388.24" y1="240.00" x2="700.00" y2="420.00" stroke="#8899aa" stroke-width="2" opacity="1.0" stroke-linecap="round" /><polygon points="275.66,505.00 284.32,510.00 284.32,310.00 275.66,305.00" fill="#667788" stroke="#aabbcc" stroke-width="1" opacity="1.0" /><polygon points="292.98,505.00 284.32,510.00 284.32,310.00 292.98,305.00" fill="#8899aa" stroke="#aabbcc" stroke-width="1" opacity="1.0" /><polygon points="284.32,300.00 275.66,305.00 284.32,310.00 292.98,305.00" fill="#8899aa" stroke="#aabbcc" stroke-width="1" opacity="1.0" /><polygon points="587.42,685.00 596.08,690.00 596.08,490.00 587.42,485.00" fill="#667788" stroke="#aabbcc" stroke-width="1" opacity="1.0" /><polygon points="604.74,685.00 596.08,690.00 596.08,490.00 604.74,485.00" fill="#8899aa" stroke="#aabbcc" stroke-width="1" opacity="1.0" /><polygon points="596.08,480.00 587.42,485.00 596.08,490.00 604.74,485.00" fill="#8899aa" stroke="#aabbcc" stroke-width="1" opacity="1.0" /><line x1="284.32" y1="300.00" x2="596.08" y2="480.00" stroke="#8899aa" stroke-width="2" opacity="1.0" stroke-linecap="round" /><polygon points="691.34,265.00 700.00,270.00 700.00,70.00 691.34,65.00" fill="#667788" stroke="#aabbcc" stroke-width="1" opacity="1.0" /><polygon points="708.66,265.00 700.00,270.00 700.00,70.00 708.66,65.00" fill="#8899aa" stroke="#aabbcc" stroke-width="1" opacity="1.0" /><polygon points="700.00,60.00 691.34,65.00 700.00,70.00 708.66,65.00" fill="#8899aa" stroke="#aabbcc" stroke-width="1" opacity="1.0" /><polygon points="241.02,525.00 249.68,530.00 249.68,330.00 241.02,325.00" fill="#667788" stroke="#aabbcc" stroke-width="1" opacity="1.0" /><polygon points="258.34,525.00 249.68,530.00 249.68,330.00 258.34,325.00" fill="#8899aa" stroke="#aabbcc" stroke-width="1" opacity="1.0" /><polygon points="249.68,320.00 241.02,325.00 249.68,330.00 258.34,325.00" fill="#8899aa" stroke="#aabbcc" stroke-width="1" opacity="1.0" /><polygon points="795.26,325.00 803.92,330.00 803.92,130.00 795.26,125.00" fill="#667788" stroke="#aabbcc" stroke-width="1" opacity="1.0" /><polygon points="812.58,325.00 803.92,330.00 803.92,130.00 812.58,125.00" fill="#8899aa" stroke="#aabbcc" stroke-width="1" opacity="1.0" /><polygon points="803.92,120.00 795.26,125.00 803.92,130.00 812.58,125.00" fill="#8899aa" stroke="#aabbcc" stroke-width="1" opacity="1.0" /><polygon points="344.94,585.00 353.60,590.00 353.60,390.00 344.94,385.00" fill="#667788" stroke="#aabbcc" stroke-width="1" opacity="1.0" /><polygon points="362.26,585.00 353.60,590.00 353.60,390.00 362.26,385.00" fill="#8899aa" stroke="#aabbcc" stroke-width="1" opacity="1.0" /><polygon points="353.60,380.00 344.94,385.00 353.60,390.00 362.26,385.00" fill="#8899aa" stroke="#aabbcc" stroke-width="1" opacity="1.0" /><polygon points="899.18,385.00 907.84,390.00 907.84,190.00 899.18,185.00" fill="#667788" stroke="#aabbcc" stroke-width="1" opacity="1.0" /><polygon points="916.50,385.00 907.84,390.00 907.84,190.00 916.50,185.00" fill="#8899aa" stroke="#aabbcc" stroke-width="1" opacity="1.0" /><polygon points="907.84,180.00 899.18,185.00 907.84,190.00 916.50,185.00" fill="#8899aa" stroke="#aabbcc" stroke-width="1" opacity="1.0" /><polygon points="448.86,645.00 457.52,650.00 457.52,450.00 448.86,445.00" fill="#667788" stroke="#aabbcc" stroke-width="1" opacity="1.0" /><polygon points="466.18,645.00 457.52,650.00 457.52,450.00 466.18,445.00" fill="#8899aa" stroke="#aabbcc" stroke-width="1" opacity="1.0" /><polygon points="457.52,440.00 448.86,445.00 457.52,450.00 466.18,445.00" fill="#8899aa" stroke="#aabbcc" stroke-width="1" opacity="1.0" /><polygon points="1003.10,445.00 1011.76,450.00 1011.76,250.00 1003.10,245.00" fill="#667788" stroke="#aabbcc" stroke-width="1" opacity="1.0" /><polygon points="1020.42,445.00 1011.76,450.00 1011.76,250.00 1020.42,245.00" fill="#8899aa" stroke="#aabbcc" stroke-width="1" opacity="1.0" /><polygon points="1011.76,240.00 1003.10,245.00 1011.76,250.00 1020.42,245.00" fill="#8899aa" stroke="#aabbcc" stroke-width="1" opacity="1.0" /><polygon points="552.78,705.00 561.44,710.00 561.44,510.00 552.78,505.00" fill="#667788" stroke="#aabbcc" stroke-width="1" opacity="1.0" /><polygon points="570.10,705.00 561.44,710.00 561.44,510.00 570.10,505.00" fill="#8899aa" stroke="#aabbcc" stroke-width="1" opacity="1.0" /><polygon points="561.44,500.00 552.78,505.00 561.44,510.00 570.10,505.00" fill="#8899aa" stroke="#aabbcc" stroke-width="1" opacity="1.0" /><line x1="700.00" y1="60.00" x2="249.68" y2="320.00" stroke="#8899aa" stroke-width="3" opacity="1.0" stroke-linecap="round" /><line x1="1011.76" y1="240.00" x2="561.44" y2="500.00" stroke="#8899aa" stroke-width="3" opacity="1.0" stroke-linecap="round" /><line x1="977.12" y1="280.00" x2="526.80" y2="540.00" stroke="#f5c400" stroke-width="6" opacity="1.0" stroke-linecap="round" /><line x1="977.12" y1="280.00" x2="526.80" y2="540.00" stroke="#ffe066" stroke-width="2" opacity="1.0" stroke-linecap="round" /><line x1="912.17" y1="317.50" x2="912.17" y2="417.50" stroke="#f5c400" stroke-width="4" opacity="1.0" stroke-linecap="round" /><line x1="808.25" y1="377.50" x2="808.25" y2="477.50" stroke="#f5c400" stroke-width="4" opacity="1.0" stroke-linecap="round" /><line x1="704.33" y1="437.50" x2="704.33" y2="537.50" stroke="#f5c400" stroke-width="4" opacity="1.0" stroke-linecap="round" /><line x1="600.41" y1="497.50" x2="600.41" y2="597.50" stroke="#f5c400" stroke-width="4" opacity="1.0" stroke-linecap="round" /><polygon points="700.00,60.00 249.68,320.00 561.44,500.00 1011.76,240.00" fill="rgba(100, 120, 140, 0.2)" stroke="#6688aa" stroke-width="1" opacity="1.0" />
    </svg>

