<svg xmlns="http://www.w3.org/2000/svg" width="7000" height="4500" viewBox="-1447.68 -1280 4156.8 3350">
    <polygon points="-1447.68,1070 284.32,2070 284.32,2020 -1447.68,1020" fill="#444444" stroke="#666666" stroke-width="5" opacity="1.0" /><polygon points="2709.12,670 284.32,2070 284.32,2020 2709.12,620" fill="#444444" stroke="#666666" stroke-width="5" opacity="1.0" /><polygon points="977.12,-380 -1447.68,1020 284.32,2020 2709.12,620" fill="#555555" stroke="#666666" stroke-width="5" opacity="1.0" /><polygon points="1150.32,10 847.22,185 1713.22,685 2016.32,510" fill="#3a3a3a" stroke="#aaaaaa" stroke-width="10" opacity="0.8" /><polygon points="630.72,310 327.62,485 1193.62,985 1496.72,810" fill="#3a3a3a" stroke="#aaaaaa" stroke-width="10" opacity="0.8" /><polygon points="111.12,610 -191.98,785 674.02,1285 977.12,1110" fill="#3a3a3a" stroke="#aaaaaa" stroke-width="10" opacity="0.8" /><polygon points="-408.48,910 -711.58,1085 154.42,1585 457.52,1410" fill="#3a3a3a" stroke="#aaaaaa" stroke-width="10" opacity="0.8" /><polygon points="933.82,-255 977.12,-230 977.12,-1230 933.82,-1255" fill="#667788" stroke="#aabbcc" stroke-width="5" opacity="1.0" /><polygon points="1020.42,-255 977.12,-230 977.12,-1230 1020.42,-1255" fill="#8899aa" stroke="#aabbcc" stroke-width="5" opacity="1.0" /><polygon points="977.12,-1280 933.82,-1255 977.12,-1230 1020.42,-1255" fill="#8899aa" stroke="#aabbcc" stroke-width="5" opacity="1.0" /><polygon points="2492.62,645 2535.92,670 2535.92,-330 2492.62,-355" fill="#667788" stroke="#aabbcc" stroke-width="5" opacity="1.0" /><polygon points="2579.22,645 2535.92,670 2535.92,-330 2579.22,-355" fill="#8899aa" stroke="#aabbcc" stroke-width="5" opacity="1.0" /><polygon points="2535.92,-380 2492.62,-355 2535.92,-330 2579.22,-355" fill="#8899aa" stroke="#aabbcc" stroke-width="5" opacity="1.0" /><line x1="977.12" y1="-1280" x2="2535.92" y2="-380" stroke="#8899aa" stroke-width="10" opacity="1.0" stroke-linecap="round" /><polygon points="414.22,45 457.52,70 457.52,-930 414.22,-955" fill="#667788" stroke="#aabbcc" stroke-width="5" opacity="1.0" /><polygon points="500.82,45 457.52,70 457.52,-930 500.82,-955" fill="#8899aa" stroke="#aabbcc" stroke-width="5" opacity="1.0" /><polygon points="457.52,-980 414.22,-955 457.52,-930 500.82,-955" fill="#8899aa" stroke="#aabbcc" stroke-width="5" opacity="1.0" /><polygon points="1973.02,945 2016.32,970 2016.32,-30 1973.02,-55" fill="#667788" stroke="#aabbcc" stroke-width="5" opacity="1.0" /><polygon points="2059.62,945 2016.32,970 2016.32,-30 2059.62,-55" fill="#8899aa" stroke="#aabbcc" stroke-width="5" opacity="1.0" /><polygon points="2016.32,-80 1973.02,-55 2016.32,-30 2059.62,-55" fill="#8899aa" stroke="#aabbcc" stroke-width="5" opacity="1.0" /><line x1="457.52" y1="-980" x2="2016.32" y2="-80" stroke="#8899aa" stroke-width="10" opacity="1.0" stroke-linecap="round" /><polygon points="-105.38,345 -62.08,370 -62.08,-630 -105.38,-655" fill="#667788" stroke="#aabbcc" stroke-width="5" opacity="1.0" /><polygon points="-18.78,345 -62.08,370 -62.08,-630 -18.78,-655" fill="#8899aa" stroke="#aabbcc" stroke-width="5" opacity="1.0" /><polygon points="-62.08,-680 -105.38,-655 -62.08,-630 -18.78,-655" fill="#8899aa" stroke="#aabbcc" stroke-width="5" opacity="1.0" /><polygon points="1453.42,1245 1496.72,1270 1496.72,270 1453.42,245" fill="#667788" stroke="#aabbcc" stroke-width="5" opacity="1.0" /><polygon points="1540.02,1245 1496.72,1270 1496.72,270 1540.02,245" fill="#8899aa" stroke="#aabbcc" stroke-width="5" opacity="1.0" /><polygon points="1496.72,220 1453.42,245 1496.72,270 1540.02,245" fill="#8899aa" stroke="#aabbcc" stroke-width="5" opacity="1.0" /><line x1="-62.08" y1="-680" x2="1496.72" y2="220" stroke="#8899aa" stroke-width="10" opacity="1.0" stroke-linecap="round" /><polygon points="-624.98,645 -581.68,670 -581.68,-330 -624.98,-355" fill="#667788" stroke="#aabbcc" stroke-width="5" opacity="1.0" /><polygon points="-538.38,645 -581.68,670 -581.68,-330 -538.38,-355" fill="#8899aa" stroke="#aabbcc" stroke-width="5" opacity="1.0" /><polygon points="-581.68,-380 -624.98,-355 -581.68,-330 -538.38,-355" fill="#8899aa" stroke="#aabbcc" stroke-width="5" opacity="1.0" /><polygon points="933.82,1545 977.12,1570 977.12,570 933.82,545" fill="#667788" stroke="#aabbcc" stroke-width="5" opacity="1.0" /><polygon points="1020.42,1545 977.12,1570 977.12,570 1020.42,545" fill="#8899aa" stroke="#aabbcc" stroke-width="5" opacity="1.0" /><polygon points="977.12,520 933.82,545 977.12,570 1020.42,545" fill="#8899aa" stroke="#aabbcc" stroke-width="5" opacity="1.0" /><line x1="-581.68" y1="-380" x2="977.12" y2="520" stroke="#8899aa" stroke-width="10" opacity="1.0" stroke-linecap="round" /><polygon points="-1144.58,945 -1101.28,970 -1101.28,-30 -1144.58,-55" fill="#667788" stroke="#aabbcc" stroke-width="5" opacity="1.0" /><polygon points="-1057.98,945 -1101.28,970 -1101.28,-30 -1057.98,-55" fill="#8899aa" stroke="#aabbcc" stroke-width="5" opacity="1.0" /><polygon points="-1101.28,-80 -1144.58,-55 -1101.28,-30 -1057.98,-55" fill="#8899aa" stroke="#aabbcc" stroke-width="5" opacity="1.0" /><polygon points="414.22,1845 457.52,1870 457.52,870 414.22,845" fill="#667788" stroke="#aabbcc" stroke-width="5" opacity="1.0" /><polygon points="500.82,1845 457.52,1870 457.52,870 500.82,845" fill="#8899aa" stroke="#aabbcc" stroke-width="5" opacity="1.0" /><polygon points="457.52,820 414.22,845 457.52,870 500.82,845" fill="#8899aa" stroke="#aabbcc" stroke-width="5" opacity="1.0" /><line x1="-1101.28" y1="-80" x2="457.52" y2="820" stroke="#8899aa" stroke-width="10" opacity="1.0" stroke-linecap="round" /><polygon points="933.82,-255 977.12,-230 977.12,-1230 933.82,-1255" fill="#667788" stroke="#aabbcc" stroke-width="5" opacity="1.0" /><polygon points="1020.42,-255 977.12,-230 977.12,-1230 1020.42,-1255" fill="#8899aa" stroke="#aabbcc" stroke-width="5" opacity="1.0" /><polygon points="977.12,-1280 933.82,-1255 977.12,-1230 1020.42,-1255" fill="#8899aa" stroke="#aabbcc" stroke-width="5" opacity="1.0" /><polygon points="-1317.78,1045 -1274.48,1070 -1274.48,70 -1317.78,45" fill="#667788" stroke="#aabbcc" stroke-width="5" opacity="1.0" /><polygon points="-1231.18,1045 -1274.48,1070 -1274.48,70 -1231.18,45" fill="#8899aa" stroke="#aabbcc" stroke-width="5" opacity="1.0" /><polygon points="-1274.48,20 -1317.78,45 -1274.48,70 -1231.18,45" fill="#8899aa" stroke="#aabbcc" stroke-width="5" opacity="1.0" /><polygon points="1453.42,45 1496.72,70 1496.72,-930 1453.42,-955" fill="#667788" stroke="#aabbcc" stroke-width="5" opacity="1.0" /><polygon points="1540.02,45 1496.72,70 1496.72,-930 1540.02,-955" fill="#8899aa" stroke="#aabbcc" stroke-width="5" opacity="1.0" /><polygon points="1496.72,-980 1453.42,-955 1496.72,-930 1540.02,-955" fill="#8899aa" stroke="#aabbcc" stroke-width="5" opacity="1.0" /><polygon points="-798.18,1345 -754.88,1370 -754.88,370 -798.18,345" fill="#667788" stroke="#aabbcc" stroke-width="5" opacity="1.0" /><polygon points="-711.58,1345 -754.88,1370 -754.88,370 -711.58,345" fill="#8899aa" stroke="#aabbcc" stroke-width="5" opacity="1.0" /><polygon points="-754.88,320 -798.18,345 -754.88,370 -711.58,345" fill="#8899aa" stroke="#aabbcc" stroke-width="5" opacity="1.0" /><polygon points="1973.02,345 2016.32,370 2016.32,-630 1973.02,-655" fill="#667788" stroke="#aabbcc" stroke-width="5" opacity="1.0" /><polygon points="2059.62,345 2016.32,370 2016.32,-630 2059.62,-655" fill="#8899aa" stroke="#aabbcc" stroke-width="5" opacity="1.0" /><polygon points="2016.32,-680 1973.02,-655 2016.32,-630 2059.62,-655" fill="#8899aa" stroke="#aabbcc" stroke-width="5" opacity="1.0" /><polygon points="-278.58,1645 -235.28,1670 -235.28,670 -278.58,645" fill="#667788" stroke="#aabbcc" stroke-width="5" opacity="1.0" /><polygon points="-191.98,1645 -235.28,1670 -235.28,670 -191.98,645" fill="#8899aa" stroke="#aabbcc" stroke-width="5" opacity="1.0" /><polygon points="-235.28,620 -278.58,645 -235.28,670 -191.98,645" fill="#8899aa" stroke="#aabbcc" stroke-width="5" opacity="1.0" /><polygon points="2492.62,645 2535.92,670 2535.92,-330 2492.62,-355" fill="#667788" stroke="#aabbcc" stroke-width="5" opacity="1.0" /><polygon points="2579.22,645 2535.92,670 2535.92,-330 2579.22,-355" fill="#8899aa" stroke="#aabbcc" stroke-width="5" opacity="1.0" /><polygon points="2535.92,-380 2492.62,-355 2535.92,-330 2579.22,-355" fill="#8899aa" stroke="#aabbcc" stroke-width="5" opacity="1.0" /><polygon points="241.02,1945 284.32,1970 284.32,970 241.02,945" fill="#667788" stroke="#aabbcc" stroke-width="5" opacity="1.0" /><polygon points="327.62,1945 284.32,1970 284.32,970 327.62,945" fill="#8899aa" stroke="#aabbcc" stroke-width="5" opacity="1.0" /><polygon points="284.32,920 241.02,945 284.32,970 327.62,945" fill="#8899aa" stroke="#aabbcc" stroke-width="5" opacity="1.0" /><line x1="977.12" y1="-1280" x2="-1274.48" y2="20" stroke="#8899aa" stroke-width="15" opacity="1.0" stroke-linecap="round" /><line x1="2535.92" y1="-380" x2="284.32" y2="920" stroke="#8899aa" stroke-width="15" opacity="1.0" stroke-linecap="round" /><line x1="2362.72" y1="-180" x2="111.12" y2="1120" stroke="#f5c400" stroke-width="30" opacity="1.0" stroke-linecap="round" /><line x1="2362.72" y1="-180" x2="111.12" y2="1120" stroke="#ffe066" stroke-width="10" opacity="1.0" stroke-linecap="round" /><line x1="2037.97" y1="7.5" x2="2037.97" y2="507.5" stroke="#f5c400" stroke-width="20" opacity="1.0" stroke-linecap="round" /><line x1="1518.37" y1="307.5" x2="1518.37" y2="807.5" stroke="#f5c400" stroke-width="20" opacity="1.0" stroke-linecap="round" /><line x1="998.77" y1="607.5" x2="998.77" y2="1107.5" stroke="#f5c400" stroke-width="20" opacity="1.0" stroke-linecap="round" /><line x1="479.17" y1="907.5" x2="479.17" y2="1407.5" stroke="#f5c400" stroke-width="20" opacity="1.0" stroke-linecap="round" /><polygon points="977.12,-1280 -1274.48,20 284.32,920 2535.92,-380" fill="rgba(100, 120, 140, 0.2)" stroke="#6688aa" stroke-width="5" opacity="1.0" />
    </svg>