<svg xmlns="http://www.w3.org/2000/svg" width="5600" height="3600" viewBox="-1032 -945 3325.44 2680">
    <polygon points="-1032,935 353.6,1735 353.6,1695 -1032,895" fill="#444444" stroke="#666666" stroke-width="4" opacity="1.0" /><polygon points="2293.44,615 353.6,1735 353.6,1695 2293.44,575" fill="#444444" stroke="#666666" stroke-width="4" opacity="1.0" /><polygon points="907.84,-225 -1032,895 353.6,1695 2293.44,575" fill="#555555" stroke="#666666" stroke-width="4" opacity="1.0" /><polygon points="1046.4,87 803.92,227 1496.72,627 1739.2,487" fill="#3a3a3a" stroke="#aaaaaa" stroke-width="8" opacity="0.8" /><polygon points="630.72,327 388.24,467 1081.04,867 1323.52,727" fill="#3a3a3a" stroke="#aaaaaa" stroke-width="8" opacity="0.8" /><polygon points="215.04,567 -27.44,707 665.36,1107 907.84,967" fill="#3a3a3a" stroke="#aaaaaa" stroke-width="8" opacity="0.8" /><polygon points="-200.64,807 -443.12,947 249.68,1347 492.16,1207" fill="#3a3a3a" stroke="#aaaaaa" stroke-width="8" opacity="0.8" /><polygon points="873.2,-125 907.84,-105 907.84,-905 873.2,-925" fill="#667788" stroke="#aabbcc" stroke-width="4" opacity="1.0" /><polygon points="942.48,-125 907.84,-105 907.84,-905 942.48,-925" fill="#8899aa" stroke="#aabbcc" stroke-width="4" opacity="1.0" /><polygon points="907.84,-945 873.2,-925 907.84,-905 942.48,-925" fill="#8899aa" stroke="#aabbcc" stroke-width="4" opacity="1.0" /><polygon points="2120.24,595 2154.88,615 2154.88,-185 2120.24,-205" fill="#667788" stroke="#aabbcc" stroke-width="4" opacity="1.0" /><polygon points="2189.52,595 2154.88,615 2154.88,-185 2189.52,-205" fill="#8899aa" stroke="#aabbcc" stroke-width="4" opacity="1.0" /><polygon points="2154.88,-225 2120.24,-205 2154.88,-185 2189.52,-205" fill="#8899aa" stroke="#aabbcc" stroke-width="4" opacity="1.0" /><line x1="907.84" y1="-945" x2="2154.88" y2="-225" stroke="#8899aa" stroke-width="8" opacity="1.0" stroke-linecap="round" /><polygon points="457.52,115 492.16,135 492.16,-665 457.52,-685" fill="#667788" stroke="#aabbcc" stroke-width="4" opacity="1.0" /><polygon points="526.8,115 492.16,135 492.16,-665 526.8,-685" fill="#8899aa" stroke="#aabbcc" stroke-width="4" opacity="1.0" /><polygon points="492.16,-705 457.52,-685 492.16,-665 526.8,-685" fill="#8899aa" stroke="#aabbcc" stroke-width="4" opacity="1.0" /><polygon points="1704.56,835 1739.2,855 1739.2,55 1704.56,35" fill="#667788" stroke="#aabbcc" stroke-width="4" opacity="1.0" /><polygon points="1773.84,835 1739.2,855 1739.2,55 1773.84,35" fill="#8899aa" stroke="#aabbcc" stroke-width="4" opacity="1.0" /><polygon points="1739.2,15 1704.56,35 1739.2,55 1773.84,35" fill="#8899aa" stroke="#aabbcc" stroke-width="4" opacity="1.0" /><line x1="492.16" y1="-705" x2="1739.2" y2="15" stroke="#8899aa" stroke-width="8" opacity="1.0" stroke-linecap="round" /><polygon points="41.84,355 76.48,375 76.48,-425 41.84,-445" fill="#667788" stroke="#aabbcc" stroke-width="4" opacity="1.0" /><polygon points="111.12,355 76.48,375 76.48,-425 111.12,-445" fill="#8899aa" stroke="#aabbcc" stroke-width="4" opacity="1.0" /><polygon points="76.48,-465 41.84,-445 76.48,-425 111.12,-445" fill="#8899aa" stroke="#aabbcc" stroke-width="4" opacity="1.0" /><polygon points="1288.88,1075 1323.52,1095 1323.52,295 1288.88,275" fill="#667788" stroke="#aabbcc" stroke-width="4" opacity="1.0" /><polygon points="1358.16,1075 1323.52,1095 1323.52,295 1358.16,275" fill="#8899aa" stroke="#aabbcc" stroke-width="4" opacity="1.0" /><polygon points="1323.52,255 1288.88,275 1323.52,295 1358.16,275" fill="#8899aa" stroke="#aabbcc" stroke-width="4" opacity="1.0" /><line x1="76.48" y1="-465" x2="1323.52" y2="255" stroke="#8899aa" stroke-width="8" opacity="1.0" stroke-linecap="round" /><polygon points="-373.84,595 -339.2,615 -339.2,-185 -373.84,-205" fill="#667788" stroke="#aabbcc" stroke-width="4" opacity="1.0" /><polygon points="-304.56,595 -339.2,615 -339.2,-185 -304.56,-205" fill="#8899aa" stroke="#aabbcc" stroke-width="4" opacity="1.0" /><polygon points="-339.2,-225 -373.84,-205 -339.2,-185 -304.56,-205" fill="#8899aa" stroke="#aabbcc" stroke-width="4" opacity="1.0" /><polygon points="873.2,1315 907.84,1335 907.84,535 873.2,515" fill="#667788" stroke="#aabbcc" stroke-width="4" opacity="1.0" /><polygon points="942.48,1315 907.84,1335 907.84,535 942.48,515" fill="#8899aa" stroke="#aabbcc" stroke-width="4" opacity="1.0" /><polygon points="907.84,495 873.2,515 907.84,535 942.48,515" fill="#8899aa" stroke="#aabbcc" stroke-width="4" opacity="1.0" /><line x1="-339.2" y1="-225" x2="907.84" y2="495" stroke="#8899aa" stroke-width="8" opacity="1.0" stroke-linecap="round" /><polygon points="-789.52,835 -754.88,855 -754.88,55 -789.52,35" fill="#667788" stroke="#aabbcc" stroke-width="4" opacity="1.0" /><polygon points="-720.24,835 -754.88,855 -754.88,55 -720.24,35" fill="#8899aa" stroke="#aabbcc" stroke-width="4" opacity="1.0" /><polygon points="-754.88,15 -789.52,35 -754.88,55 -720.24,35" fill="#8899aa" stroke="#aabbcc" stroke-width="4" opacity="1.0" /><polygon points="457.52,1555 492.16,1575 492.16,775 457.52,755" fill="#667788" stroke="#aabbcc" stroke-width="4" opacity="1.0" /><polygon points="526.8,1555 492.16,1575 492.16,775 526.8,755" fill="#8899aa" stroke="#aabbcc" stroke-width="4" opacity="1.0" /><polygon points="492.16,735 457.52,755 492.16,775 526.8,755" fill="#8899aa" stroke="#aabbcc" stroke-width="4" opacity="1.0" /><line x1="-754.88" y1="15" x2="492.16" y2="735" stroke="#8899aa" stroke-width="8" opacity="1.0" stroke-linecap="round" /><polygon points="873.2,-125 907.84,-105 907.84,-905 873.2,-925" fill="#667788" stroke="#aabbcc" stroke-width="4" opacity="1.0" /><polygon points="942.48,-125 907.84,-105 907.84,-905 942.48,-925" fill="#8899aa" stroke="#aabbcc" stroke-width="4" opacity="1.0" /><polygon points="907.84,-945 873.2,-925 907.84,-905 942.48,-925" fill="#8899aa" stroke="#aabbcc" stroke-width="4" opacity="1.0" /><polygon points="-928.08,915 -893.44,935 -893.44,135 -928.08,115" fill="#667788" stroke="#aabbcc" stroke-width="4" opacity="1.0" /><polygon points="-858.8,915 -893.44,935 -893.44,135 -858.8,115" fill="#8899aa" stroke="#aabbcc" stroke-width="4" opacity="1.0" /><polygon points="-893.44,95 -928.08,115 -893.44,135 -858.8,115" fill="#8899aa" stroke="#aabbcc" stroke-width="4" opacity="1.0" /><polygon points="1288.88,115 1323.52,135 1323.52,-665 1288.88,-685" fill="#667788" stroke="#aabbcc" stroke-width="4" opacity="1.0" /><polygon points="1358.16,115 1323.52,135 1323.52,-665 1358.16,-685" fill="#8899aa" stroke="#aabbcc" stroke-width="4" opacity="1.0" /><polygon points="1323.52,-705 1288.88,-685 1323.52,-665 1358.16,-685" fill="#8899aa" stroke="#aabbcc" stroke-width="4" opacity="1.0" /><polygon points="-512.4,1155 -477.76,1175 -477.76,375 -512.4,355" fill="#667788" stroke="#aabbcc" stroke-width="4" opacity="1.0" /><polygon points="-443.12,1155 -477.76,1175 -477.76,375 -443.12,355" fill="#8899aa" stroke="#aabbcc" stroke-width="4" opacity="1.0" /><polygon points="-477.76,335 -512.4,355 -477.76,375 -443.12,355" fill="#8899aa" stroke="#aabbcc" stroke-width="4" opacity="1.0" /><polygon points="1704.56,355 1739.2,375 1739.2,-425 1704.56,-445" fill="#667788" stroke="#aabbcc" stroke-width="4" opacity="1.0" /><polygon points="1773.84,355 1739.2,375 1739.2,-425 1773.84,-445" fill="#8899aa" stroke="#aabbcc" stroke-width="4" opacity="1.0" /><polygon points="1739.2,-465 1704.56,-445 1739.2,-425 1773.84,-445" fill="#8899aa" stroke="#aabbcc" stroke-width="4" opacity="1.0" /><polygon points="-96.72,1395 -62.08,1415 -62.08,615 -96.72,595" fill="#667788" stroke="#aabbcc" stroke-width="4" opacity="1.0" /><polygon points="-27.44,1395 -62.08,1415 -62.08,615 -27.44,595" fill="#8899aa" stroke="#aabbcc" stroke-width="4" opacity="1.0" /><polygon points="-62.08,575 -96.72,595 -62.08,615 -27.44,595" fill="#8899aa" stroke="#aabbcc" stroke-width="4" opacity="1.0" /><polygon points="2120.24,595 2154.88,615 2154.88,-185 2120.24,-205" fill="#667788" stroke="#aabbcc" stroke-width="4" opacity="1.0" /><polygon points="2189.52,595 2154.88,615 2154.88,-185 2189.52,-205" fill="#8899aa" stroke="#aabbcc" stroke-width="4" opacity="1.0" /><polygon points="2154.88,-225 2120.24,-205 2154.88,-185 2189.52,-205" fill="#8899aa" stroke="#aabbcc" stroke-width="4" opacity="1.0" /><polygon points="318.96,1635 353.6,1655 353.6,855 318.96,835" fill="#667788" stroke="#aabbcc" stroke-width="4" opacity="1.0" /><polygon points="388.24,1635 353.6,1655 353.6,855 388.24,835" fill="#8899aa" stroke="#aabbcc" stroke-width="4" opacity="1.0" /><polygon points="353.6,815 318.96,835 353.6,855 388.24,835" fill="#8899aa" stroke="#aabbcc" stroke-width="4" opacity="1.0" /><line x1="907.84" y1="-945" x2="-893.44" y2="95" stroke="#8899aa" stroke-width="12" opacity="1.0" stroke-linecap="round" /><line x1="2154.88" y1="-225" x2="353.6" y2="815" stroke="#8899aa" stroke-width="12" opacity="1.0" stroke-linecap="round" /><line x1="2016.32" y1="-65" x2="215.04" y2="975" stroke="#f5c400" stroke-width="24" opacity="1.0" stroke-linecap="round" /><line x1="2016.32" y1="-65" x2="215.04" y2="975" stroke="#ffe066" stroke-width="8" opacity="1.0" stroke-linecap="round" /><line x1="1756.52" y1="85" x2="1756.52" y2="485" stroke="#f5c400" stroke-width="16" opacity="1.0" stroke-linecap="round" /><line x1="1340.84" y1="325" x2="1340.84" y2="725" stroke="#f5c400" stroke-width="16" opacity="1.0" stroke-linecap="round" /><line x1="925.16" y1="565" x2="925.16" y2="965" stroke="#f5c400" stroke-width="16" opacity="1.0" stroke-linecap="round" /><line x1="509.48" y1="805" x2="509.48" y2="1205" stroke="#f5c400" stroke-width="16" opacity="1.0" stroke-linecap="round" /><polygon points="907.84,-945 -893.44,95 353.6,815 2154.88,-225" fill="rgba(100, 120, 140, 0.2)" stroke="#6688aa" stroke-width="4" opacity="1.0" />
    </svg>